<svg width="90" height="94" viewBox="0 0 90 94" fill="none" xmlns="http://www.w3.org/2000/svg">
<path d="M15.8397 8.39669C15.929 8.39651 15.929 8.39651 16.02 8.39632C16.2186 8.39598 16.4172 8.39607 16.6158 8.39615C16.7599 8.396 16.9041 8.39582 17.0482 8.39562C17.4023 8.39519 17.7564 8.39503 18.1104 8.395C18.5347 8.39495 18.9591 8.39455 19.3834 8.39414C20.4085 8.39319 21.4336 8.39284 22.4587 8.39255C22.9437 8.39241 23.4287 8.3922 23.9137 8.39197C25.5745 8.39121 27.2352 8.39057 28.8959 8.39036C29.0001 8.39035 29.1042 8.39034 29.2084 8.39032C29.3128 8.39031 29.4172 8.3903 29.5216 8.39028C29.7311 8.39026 29.9405 8.39023 30.15 8.3902C30.2019 8.3902 30.2538 8.39019 30.3073 8.39018C31.9923 8.38997 33.6773 8.38902 35.3623 8.38763C37.1444 8.38616 38.9265 8.38535 40.7087 8.38527C40.9043 8.38526 41.0999 8.38525 41.2954 8.38524C41.3436 8.38523 41.3918 8.38523 41.4414 8.38523C42.2164 8.38516 42.9914 8.3845 43.7664 8.38363C44.545 8.38278 45.3237 8.38258 46.1024 8.38306C46.5649 8.38333 47.0275 8.3831 47.4901 8.38216C47.8354 8.38151 48.1808 8.38179 48.5261 8.38244C48.6659 8.38256 48.8056 8.38237 48.9454 8.38185C49.1352 8.38119 49.3251 8.38164 49.515 8.38235C49.5693 8.3819 49.6235 8.38145 49.6795 8.38098C50.2643 8.38575 50.7629 8.52813 51.1926 8.94098C51.5931 9.37603 51.764 9.84764 51.7435 10.4414C51.6767 11.0031 51.4352 11.4308 51.0157 11.8021C50.5468 12.1254 50.0215 12.1776 49.4692 12.1747C49.38 12.1749 49.38 12.1749 49.289 12.1752C49.0896 12.1756 48.8903 12.1752 48.6909 12.1747C48.5466 12.1749 48.4022 12.1751 48.2579 12.1753C47.944 12.1757 47.6301 12.1757 47.3162 12.1754C46.8494 12.1749 46.3827 12.1751 45.9159 12.1755C45.1304 12.1762 44.3449 12.1763 43.5595 12.1761C42.437 12.1759 41.3145 12.1767 40.192 12.1777C39.7414 12.1781 39.2908 12.1785 38.8402 12.1788C38.7651 12.1789 38.7651 12.1789 38.6885 12.179C37.4971 12.1799 36.3056 12.1806 35.1142 12.1811C35.0621 12.1811 35.0099 12.1812 34.9562 12.1812C33.7403 12.1818 32.5243 12.1822 31.3083 12.1823C31.2299 12.1823 31.2299 12.1823 31.1499 12.1823C30.8862 12.1824 30.6226 12.1824 30.359 12.1824C30.3069 12.1824 30.2547 12.1824 30.2011 12.1824C30.0959 12.1825 29.9907 12.1825 29.8856 12.1825C28.1472 12.1827 26.4089 12.1837 24.6706 12.1856C24.425 12.1858 24.1795 12.1861 23.9339 12.1864C23.8855 12.1864 23.8372 12.1864 23.7874 12.1865C23.0102 12.1873 22.233 12.1871 21.4558 12.1867C20.6744 12.1862 19.893 12.1866 19.1116 12.1878C18.6476 12.1886 18.1837 12.1886 17.7197 12.1877C17.3729 12.1871 17.0261 12.1877 16.6792 12.1888C16.5392 12.1891 16.3992 12.1889 16.2592 12.1884C14.9856 12.1834 13.9625 12.3591 13.0181 13.2972C12.4262 13.9365 12.0802 14.7684 12.0828 15.6436C12.0826 15.7102 12.0826 15.7102 12.0825 15.7782C12.0822 15.9279 12.0823 16.0776 12.0825 16.2273C12.0824 16.3359 12.0822 16.4444 12.0821 16.553C12.0817 16.853 12.0817 17.1531 12.0817 17.4531C12.0817 17.7789 12.0814 18.1047 12.0811 18.4305C12.0805 19.0774 12.0803 19.7243 12.0801 20.3712C12.08 21.1458 12.0795 21.9203 12.0789 22.6949C12.0777 24.5672 12.0771 26.4396 12.0766 28.3119C12.0764 28.9319 12.0762 29.5519 12.076 30.172C12.076 30.2376 12.076 30.2376 12.0759 30.3045C12.0759 30.4815 12.0758 30.6584 12.0758 30.8354C12.0747 33.8622 12.0738 36.889 12.0734 39.9159C12.0733 40.1537 12.0733 40.3914 12.0732 40.6292C12.0732 40.6999 12.0732 40.7 12.0732 40.7721C12.0732 41.25 12.0731 41.7279 12.073 42.2057C12.073 42.3015 12.073 42.3973 12.073 42.4932C12.0725 45.5702 12.0712 48.6471 12.0693 51.7241C12.0679 53.9349 12.0666 56.1457 12.0662 58.3565C12.0662 58.402 12.0662 58.4474 12.0662 58.4943C12.066 59.4925 12.0659 60.4907 12.0658 61.4888C12.0658 61.8905 12.0658 62.2921 12.0657 62.6937C12.0657 62.7377 12.0657 62.7817 12.0657 62.8269C12.0656 64.2427 12.0647 65.6584 12.0635 67.0742C12.0623 68.5003 12.0619 69.9265 12.0624 71.3526C12.0628 72.2374 12.0625 73.1223 12.0611 74.0071C12.0603 74.5715 12.0604 75.1359 12.0612 75.7003C12.0616 76.022 12.0616 76.3437 12.0606 76.6654C12.0597 76.9582 12.0599 77.2511 12.0609 77.5439C12.0611 77.649 12.0609 77.7541 12.0602 77.8591C12.0534 79.026 12.3272 79.9898 13.1568 80.8429C13.7577 81.4112 14.5667 81.7875 15.3955 81.7883C15.4676 81.7885 15.5397 81.7887 15.614 81.7889C15.694 81.7889 15.774 81.7888 15.854 81.7887C15.9394 81.7889 16.0247 81.789 16.1101 81.7892C16.3457 81.7896 16.5813 81.7897 16.8169 81.7897C17.0728 81.7898 17.3288 81.7902 17.5847 81.7905C18.0928 81.7912 18.6009 81.7915 19.109 81.7918C19.7175 81.7921 20.3259 81.7927 20.9343 81.7933C22.4051 81.7949 23.8759 81.7958 25.3467 81.7965C25.8338 81.7968 26.3209 81.797 26.808 81.7973C29.3978 81.7988 31.9876 81.8002 34.5773 81.8009C35.1774 81.8011 35.7775 81.8012 36.3776 81.8014C36.4521 81.8015 36.5267 81.8015 36.6035 81.8015C39.0207 81.8022 41.4378 81.8041 43.855 81.8066C46.3397 81.8091 48.8244 81.8107 51.3091 81.811C51.66 81.811 52.011 81.8111 52.3619 81.8112C52.431 81.8112 52.5001 81.8112 52.5712 81.8112C53.6828 81.8114 54.7943 81.8126 55.9059 81.8142C57.0233 81.8157 58.1406 81.8162 59.258 81.8156C59.9218 81.8152 60.5855 81.8157 61.2493 81.8173C61.693 81.8184 62.1366 81.8183 62.5802 81.8174C62.8328 81.8169 63.0854 81.8168 63.3381 81.8181C63.5684 81.8193 63.7987 81.819 64.029 81.8177C64.1498 81.8174 64.2706 81.8185 64.3914 81.8197C65.2262 81.812 65.9749 81.5775 66.6448 81.0653C66.6877 81.0328 66.7305 81.0003 66.7747 80.9668C67.4908 80.3798 67.8521 79.5219 68.0013 78.6214C68.0245 78.3071 68.0249 77.9944 68.0232 77.6795C68.0233 77.5866 68.0236 77.4937 68.0239 77.4008C68.0245 77.1476 68.024 76.8944 68.0233 76.6412C68.0228 76.3674 68.0233 76.0935 68.0237 75.8197C68.0242 75.3457 68.0242 74.8718 68.0237 74.3978C68.023 73.7119 68.0236 73.0259 68.0244 72.34C68.0258 71.226 68.0266 70.112 68.0269 68.998C68.0269 68.8981 68.0269 68.8981 68.0269 68.7962C68.027 68.053 68.0271 67.3097 68.027 66.5665C68.027 66.2968 68.027 66.0272 68.027 65.7575C68.027 65.6909 68.027 65.6244 68.027 65.5558C68.0269 64.4457 68.0278 63.3356 68.0294 62.2254C68.0303 61.5413 68.0304 60.8571 68.0295 60.173C68.029 59.7043 68.0293 59.2356 68.0302 58.7669C68.0307 58.4966 68.0308 58.2264 68.0299 57.9561C68.0291 57.7084 68.0294 57.4608 68.0305 57.2131C68.0307 57.1238 68.0305 57.0345 68.0299 56.9452C68.0254 56.2516 68.0996 55.6411 68.591 55.1198C69.0538 54.7169 69.4921 54.6369 70.0885 54.6431C70.5559 54.6789 70.9191 54.8702 71.2593 55.1917C71.5693 55.5607 71.724 55.9888 71.7248 56.4671C71.7249 56.5057 71.7251 56.5443 71.7252 56.584C71.7256 56.7143 71.7256 56.8445 71.7255 56.9747C71.7257 57.0687 71.726 57.1626 71.7262 57.2566C71.7268 57.5155 71.727 57.7745 71.7272 58.0334C71.7274 58.3125 71.728 58.5915 71.7285 58.8706C71.7296 59.5451 71.7302 60.2197 71.7308 60.8942C71.731 61.2121 71.7313 61.5299 71.7316 61.8478C71.7327 62.905 71.7335 63.9621 71.7339 65.0193C71.734 65.2938 71.7342 65.5683 71.7343 65.8427C71.7343 65.9109 71.7343 65.9792 71.7344 66.0494C71.7349 67.1527 71.7363 68.256 71.7383 69.3593C71.7402 70.4928 71.7413 71.6263 71.7415 72.7598C71.7416 73.3959 71.7421 74.032 71.7436 74.6681C71.7449 75.2102 71.7454 75.7524 71.7448 76.2946C71.7445 76.5708 71.7446 76.847 71.7458 77.1233C71.7542 79.2508 71.7542 79.2508 71.4809 80.2308C71.4642 80.2921 71.4642 80.2921 71.447 80.3547C71.1237 81.5272 70.4728 82.5109 69.6526 83.3899C69.6136 83.434 69.5745 83.478 69.5342 83.5234C68.3531 84.801 66.5706 85.4739 64.8754 85.5954C64.5937 85.6037 64.312 85.6035 64.0301 85.6031C63.9451 85.6031 63.86 85.6033 63.7749 85.6034C63.5414 85.6037 63.308 85.6036 63.0745 85.6034C62.8204 85.6033 62.5663 85.6036 62.3121 85.6038C61.8668 85.6041 61.4215 85.6042 60.9762 85.6041C60.314 85.604 59.6518 85.6043 58.9896 85.6046C57.7381 85.6052 56.4866 85.6053 55.235 85.6054C54.2685 85.6054 53.3019 85.6055 52.3354 85.6057C52.0572 85.6057 51.779 85.6058 51.5008 85.6059C51.4316 85.6059 51.3624 85.6059 51.2912 85.6059C49.3457 85.6063 47.4002 85.6065 45.4547 85.6065C45.3813 85.6065 45.308 85.6065 45.2324 85.6065C44.8606 85.6065 44.4888 85.6065 44.117 85.6065C44.0062 85.6064 44.0062 85.6064 43.8932 85.6064C43.7439 85.6064 43.5946 85.6064 43.4453 85.6064C41.1222 85.6064 38.7992 85.6069 36.4762 85.6077C33.8663 85.6086 31.2564 85.6091 28.6465 85.609C28.3682 85.609 28.0899 85.609 27.8115 85.609C27.743 85.609 27.6745 85.609 27.6039 85.609C26.5013 85.609 25.3987 85.6094 24.2961 85.6099C23.1878 85.6104 22.0795 85.6105 20.9712 85.6101C20.313 85.6099 19.6547 85.61 18.9965 85.6106C18.5565 85.6109 18.1164 85.6108 17.6764 85.6104C17.4259 85.6102 17.1754 85.6101 16.9249 85.6106C14.7307 85.6146 12.6285 85.395 10.9108 83.8668C10.8633 83.8266 10.8158 83.7864 10.7669 83.745C9.34025 82.5063 8.49013 80.7068 8.32778 78.8214C8.30258 78.3999 8.30761 77.9777 8.30807 77.5556C8.30797 77.4472 8.30785 77.3389 8.3077 77.2306C8.30738 76.9328 8.30742 76.635 8.30751 76.3373C8.30756 76.0133 8.30726 75.6894 8.30701 75.3654C8.30656 74.7229 8.30643 74.0803 8.3064 73.4378C8.30635 72.6682 8.30595 71.8986 8.30555 71.1289C8.30463 69.313 8.30427 67.4971 8.304 65.6812C8.30386 64.7571 8.30364 63.8329 8.3034 62.9088C8.30266 59.9436 8.30202 56.9784 8.30182 54.0131C8.30181 53.8715 8.3018 53.7298 8.30179 53.5881C8.30177 53.304 8.30175 53.0198 8.30173 52.7357C8.30171 52.403 8.30169 52.0704 8.30166 51.7377C8.30166 51.6425 8.30165 51.5473 8.30164 51.4521C8.30144 48.3949 8.30055 45.3377 8.29917 42.2804C8.29818 40.0832 8.29727 37.886 8.297 35.6888C8.297 35.6436 8.29699 35.5984 8.29699 35.5518C8.29687 34.5592 8.2968 33.5667 8.29678 32.5741C8.29677 32.2189 8.29676 31.8637 8.29675 31.5085C8.29674 31.4202 8.29674 31.3318 8.29673 31.2434C8.29668 29.8369 8.29609 28.4304 8.29523 27.0239C8.29435 25.5672 8.2941 24.1106 8.29459 22.6539C8.29485 21.8146 8.29463 20.9752 8.29369 20.1358C8.29312 19.5747 8.29319 19.0137 8.29378 18.4526C8.29409 18.1332 8.29414 17.8138 8.29339 17.4943C8.29272 17.203 8.29288 16.9118 8.29367 16.6205C8.29381 16.5164 8.29366 16.4124 8.29317 16.3083C8.28893 15.3449 8.3508 14.3397 8.67706 13.4264C8.69467 13.3753 8.71228 13.3243 8.73042 13.2717C9.38298 11.4512 10.7195 9.95461 12.4475 9.1212C13.5412 8.61336 14.6391 8.39435 15.8397 8.39669Z" fill="#165056"/>
<path d="M65.129 15.5872C65.4039 15.7441 65.6333 15.927 65.8619 16.146C66.0044 16.2814 66.1528 16.4055 66.3049 16.5297C66.5449 16.7265 66.7814 16.9267 67.0163 17.1295C67.2779 17.355 67.5444 17.5724 67.8162 17.7852C68.1563 18.0517 68.4822 18.3321 68.8059 18.6186C69.0609 18.8441 69.3209 19.0615 69.5871 19.2735C69.749 19.4027 69.907 19.536 70.0647 19.6703C70.0662 19.6133 70.0678 19.5564 70.0693 19.4978C70.0974 18.8497 70.1667 18.2329 70.6545 17.7629C70.938 17.5628 71.1997 17.4582 71.5444 17.4561C71.592 17.4556 71.6395 17.4552 71.6884 17.4548C71.7401 17.4546 71.7917 17.4544 71.8449 17.4543C71.8997 17.4539 71.9545 17.4535 72.0109 17.4531C72.1922 17.4519 72.3736 17.4512 72.5549 17.4506C72.617 17.4504 72.6791 17.4501 72.7431 17.4499C73.0719 17.4486 73.4008 17.4478 73.7296 17.4472C74.0682 17.4466 74.4067 17.4445 74.7453 17.4422C75.0065 17.4406 75.2678 17.4401 75.529 17.4399C75.6538 17.4396 75.7785 17.4389 75.9032 17.4378C76.7163 17.431 77.3706 17.4492 78.047 17.9561C78.2744 18.2 78.3438 18.452 78.3399 18.7803C78.3394 18.8871 78.3394 18.8871 78.3388 18.996C78.3375 19.0733 78.3363 19.1506 78.3349 19.2302C78.3342 19.3131 78.3336 19.396 78.333 19.4789C78.3317 19.6569 78.3299 19.835 78.3278 20.0131C78.3246 20.2952 78.3233 20.5774 78.3225 20.8595C78.3222 20.9564 78.3219 21.0532 78.3216 21.15C78.3214 21.2227 78.3214 21.2227 78.3212 21.2969C78.319 21.9534 78.3152 22.6098 78.3073 23.2663C78.3019 23.7096 78.2993 24.153 78.2998 24.5964C78.2999 24.8307 78.2986 25.0648 78.294 25.2991C78.2203 26.3824 78.2203 26.3824 78.6442 27.3144C78.8033 27.4495 78.9673 27.5518 79.1473 27.6576C79.2605 27.749 79.3725 27.8419 79.4827 27.937C79.5615 28.001 79.5615 28.001 79.6419 28.0662C79.8464 28.2358 80.0405 28.4158 80.2358 28.5959C80.3939 28.7378 80.5566 28.8722 80.7212 29.0062C81.5511 29.6921 81.5511 29.6921 81.6833 30.2803C81.7106 30.7351 81.576 31.1125 81.2997 31.4671C80.9817 31.8183 80.6205 32.0159 80.1462 32.0387C79.5786 32.0079 79.2507 31.6632 78.8568 31.2855C78.6945 31.1307 78.5253 30.9876 78.3511 30.8466C78.1166 30.6559 77.893 30.4576 77.6728 30.2505C77.4012 29.9951 77.1203 29.756 76.8313 29.5208C76.6034 29.3303 76.3864 29.1288 76.1696 28.9256C76.0463 28.8128 75.9207 28.7102 75.7892 28.6076C75.5235 28.3739 75.395 28.077 75.3517 27.7253C75.3438 27.5281 75.3435 27.3322 75.3459 27.1347C75.3459 27.0603 75.3459 26.9858 75.3458 26.909C75.346 26.7063 75.3471 26.5037 75.3488 26.301C75.3503 26.0886 75.3504 25.8762 75.3507 25.6638C75.3514 25.2623 75.3533 24.8608 75.3557 24.4593C75.3584 24.0019 75.3597 23.5445 75.3608 23.0871C75.3633 22.1468 75.3676 21.2066 75.3727 20.2664C74.6331 20.2664 73.8935 20.2664 73.1316 20.2664C73.135 20.4574 73.1384 20.6484 73.1419 20.8452C73.1442 21.0318 73.146 21.2184 73.1478 21.4051C73.1492 21.534 73.1512 21.6629 73.1538 21.7918C73.1574 21.978 73.1591 22.1641 73.1603 22.3503C73.1619 22.4072 73.1634 22.4641 73.165 22.5227C73.1652 22.9933 73.0353 23.375 72.7256 23.7325C72.3744 24.084 71.9623 24.2037 71.4765 24.2228C70.8369 24.1956 70.4762 23.9027 70.0057 23.4851C69.9108 23.4033 69.8154 23.3219 69.72 23.2405C69.6547 23.1848 69.5894 23.129 69.5243 23.0731C69.3228 22.9002 69.1196 22.7298 68.9146 22.5612C68.643 22.3378 68.3755 22.1099 68.1086 21.8807C67.9085 21.7091 67.7066 21.54 67.5029 21.3728C67.2161 21.1369 66.9355 20.8943 66.6554 20.6505C66.3953 20.4244 66.1312 20.204 65.8649 19.9855C65.6766 19.8294 65.4913 19.6699 65.3059 19.5101C65.032 19.2742 64.7532 19.0494 64.4618 18.8358C64.2174 18.9371 64.0346 19.1124 63.8389 19.2866C63.7648 19.3517 63.6907 19.4167 63.6166 19.4817C63.5799 19.5138 63.5433 19.5459 63.5056 19.579C63.3597 19.7054 63.2106 19.8277 63.0611 19.9497C62.8027 20.1616 62.5558 20.3836 62.3098 20.61C62.1095 20.7901 61.9013 20.9593 61.6929 21.1297C61.4822 21.3053 61.2763 21.4857 61.0706 21.6671C60.8181 21.8897 60.5644 22.1097 60.3039 22.3228C59.9305 22.6286 59.5695 22.9486 59.207 23.2675C58.7384 23.6788 58.2656 24.0851 57.7914 24.4896C57.5538 24.6924 57.3179 24.897 57.0822 25.102C56.8427 25.3102 56.6016 25.5156 56.3561 25.7167C55.9817 26.024 55.6192 26.345 55.2555 26.6651C54.7872 27.0761 54.3146 27.4822 53.8406 27.8865C53.5609 28.1253 53.283 28.3662 53.0058 28.6078C52.8169 28.772 52.6259 28.9322 52.4304 29.0882C52.5116 29.1132 52.5116 29.1132 52.5944 29.1387C53.1084 29.3084 53.5574 29.4748 53.8207 29.9824C53.934 30.2579 53.9289 30.5216 53.9261 30.8162C53.9263 30.9045 53.9263 30.9045 53.9266 30.9946C53.9268 31.192 53.9259 31.3894 53.9249 31.5867C53.9248 31.7306 53.9249 31.8745 53.925 32.0184C53.925 32.4036 53.924 32.7887 53.9227 33.1739C53.9217 33.5354 53.9217 33.8968 53.9216 34.2583C53.9206 35.3153 53.9182 36.3724 53.9159 37.4294C53.9122 39.7911 53.9086 42.1527 53.9048 44.5859C61.0087 44.5859 68.1125 44.5859 75.4317 44.5859C75.4317 42.3829 75.4317 40.1798 75.4317 37.91C75.6571 37.3974 75.7881 37.1245 76.2804 36.8887C76.7204 36.7335 77.1417 36.744 77.5696 36.9339C77.9052 37.1237 78.1355 37.4123 78.2833 37.7698C78.3702 38.0879 78.3471 38.4245 78.3464 38.7522C78.3468 38.8377 78.3473 38.9231 78.3479 39.0085C78.3492 39.2397 78.3494 39.4708 78.3492 39.702C78.3492 39.8954 78.3497 40.0889 78.3502 40.2823C78.3514 40.739 78.3515 41.1957 78.3511 41.6523C78.3507 42.1223 78.3521 42.5923 78.3543 43.0623C78.3561 43.4668 78.3568 43.8713 78.3565 44.2758C78.3564 44.5169 78.3567 44.758 78.3582 44.9992C78.3595 45.2262 78.3594 45.4531 78.3582 45.6801C78.358 45.763 78.3583 45.8459 78.3591 45.9288C78.3643 46.4763 78.3125 46.9384 77.9437 47.3641C77.6073 47.6722 77.2553 47.7674 76.8137 47.7678C76.7488 47.7682 76.7488 47.7682 76.6827 47.7686C76.5381 47.7693 76.3935 47.7688 76.2489 47.7682C76.1441 47.7685 76.0392 47.7688 75.9344 47.7692C75.6465 47.7701 75.3587 47.7698 75.0708 47.7694C74.7603 47.7691 74.4498 47.7698 74.1392 47.7704C73.5309 47.7715 72.9226 47.7715 72.3143 47.7712C71.82 47.771 71.3256 47.771 70.8312 47.7714C70.7257 47.7714 70.7257 47.7714 70.618 47.7715C70.4751 47.7716 70.3323 47.7717 70.1894 47.7718C68.8491 47.7726 67.5087 47.7723 66.1684 47.7716C64.9421 47.771 63.7158 47.7718 62.4895 47.7732C61.2304 47.7746 59.9714 47.7752 58.7124 47.7748C58.0055 47.7746 57.2986 47.7747 56.5917 47.7758C55.9899 47.7767 55.3881 47.7767 54.7863 47.7757C54.4792 47.7752 54.1722 47.775 53.8651 47.7759C53.584 47.7768 53.3029 47.7765 53.0217 47.7753C52.9201 47.7751 52.8184 47.7753 52.7168 47.7759C51.5972 47.7823 51.5972 47.7823 51.2154 47.4162C51.0317 47.203 50.9485 47.0584 50.9487 46.7806C50.9486 46.728 50.9484 46.6755 50.9483 46.6213C50.9485 46.5632 50.9487 46.5051 50.9488 46.4452C50.9488 46.3838 50.9487 46.3224 50.9487 46.2591C50.9486 46.0518 50.9489 45.8446 50.9492 45.6374C50.9493 45.4894 50.9492 45.3414 50.9492 45.1934C50.9492 44.8741 50.9494 44.5547 50.9497 44.2354C50.9502 43.7737 50.9503 43.312 50.9504 42.8503C50.9505 42.1013 50.9509 41.3522 50.9515 40.6032C50.952 39.8755 50.9524 39.1477 50.9527 38.42C50.9527 38.3751 50.9527 38.3303 50.9527 38.2841C50.9528 38.0592 50.9529 37.8343 50.953 37.6093C50.9536 35.7425 50.9546 33.8757 50.9559 32.0089C50.8837 32.0098 50.8114 32.0108 50.737 32.0117C50.4669 32.015 50.1968 32.017 49.9268 32.0187C49.8103 32.0196 49.6937 32.0208 49.5772 32.0224C49.409 32.0246 49.2408 32.0256 49.0726 32.0264C49.0211 32.0273 48.9697 32.0282 48.9167 32.0292C48.3238 32.0293 47.9145 31.8596 47.4866 31.444C47.1889 31.0951 47.0763 30.7004 47.101 30.2426C47.2136 29.5008 47.9556 29.0668 48.4936 28.6281C48.6606 28.4881 48.8206 28.3425 48.9802 28.1941C49.2438 27.9489 49.5163 27.7189 49.795 27.4916C49.9502 27.3622 50.0995 27.2283 50.2482 27.0913C50.4485 26.9068 50.6529 26.7306 50.8638 26.5586C51.0881 26.3753 51.3039 26.1861 51.5162 25.9886C51.7798 25.7434 52.0524 25.5135 52.3311 25.2861C52.4862 25.1567 52.6356 25.0228 52.7842 24.8859C53.0378 24.6523 53.3008 24.4334 53.5675 24.2153C53.7738 24.0428 53.9707 23.8609 54.1686 23.6786C54.3218 23.541 54.4789 23.4103 54.6384 23.2802C54.8627 23.0969 55.0785 22.9077 55.2908 22.7102C55.5544 22.465 55.8269 22.2351 56.1057 22.0078C56.2608 21.8783 56.4102 21.7445 56.5588 21.6075C56.7591 21.423 56.9635 21.2468 57.1744 21.0748C57.3987 20.8914 57.6146 20.7022 57.8268 20.5048C58.0905 20.2596 58.363 20.0297 58.6417 19.8023C58.7968 19.6729 58.9462 19.539 59.0949 19.4021C59.2951 19.2175 59.4995 19.0413 59.7104 18.8693C59.9347 18.686 60.1506 18.4968 60.3629 18.2993C60.6265 18.0541 60.899 17.8242 61.1777 17.5969C61.3329 17.4674 61.4822 17.3336 61.6309 17.1966C61.8829 16.9644 62.1443 16.7471 62.4098 16.5309C62.5814 16.3861 62.7435 16.2338 62.9063 16.079C63.5377 15.4911 64.3004 15.19 65.129 15.5872Z" fill="#115056"/>
<path d="M20.4312 70.8502C20.5381 70.8498 20.5381 70.8498 20.6472 70.8494C20.8441 70.849 21.041 70.8493 21.238 70.8499C21.4526 70.8504 21.6672 70.8499 21.8817 70.8495C22.2575 70.8489 22.6333 70.849 23.0091 70.8496C23.5679 70.8504 24.1267 70.8502 24.6855 70.8498C25.6836 70.8491 26.6816 70.8494 27.6797 70.8501C28.553 70.8507 29.4263 70.851 30.2997 70.8509C30.3866 70.8509 30.3866 70.8509 30.4752 70.8509C30.7104 70.8509 30.9455 70.8508 31.1807 70.8508C33.3865 70.8506 35.5923 70.8513 37.7982 70.8526C39.7581 70.8537 41.7181 70.854 43.6781 70.8537C43.8039 70.8537 43.9298 70.8537 44.0557 70.8536C44.149 70.8536 44.149 70.8536 44.2442 70.8536C44.5575 70.8536 44.8707 70.8535 45.1839 70.8535C45.2457 70.8534 45.3075 70.8534 45.3712 70.8534C47.0088 70.8532 48.6464 70.8535 50.284 70.854C50.4602 70.8541 50.6363 70.8541 50.8125 70.8542C50.9294 70.8542 51.0463 70.8543 51.1632 70.8543C51.9782 70.8545 52.7933 70.8546 53.6083 70.8545C54.6585 70.8543 55.7087 70.8546 56.7589 70.8555C57.3144 70.856 57.8699 70.8561 58.4254 70.8558C58.7963 70.8556 59.1672 70.8559 59.5382 70.8565C59.7496 70.8568 59.961 70.857 60.1724 70.8566C60.4001 70.8562 60.6279 70.8567 60.8556 70.8573C60.9212 70.8571 60.9868 70.8568 61.0544 70.8565C61.7061 70.8599 62.218 70.9491 62.7038 71.4118C63.1699 71.9104 63.2609 72.2959 63.2447 72.9811C63.1965 73.4947 62.9439 73.8633 62.5757 74.2105C62.0694 74.6145 61.545 74.6454 60.9209 74.6429C60.8142 74.6432 60.8142 74.6432 60.7053 74.6435C60.508 74.6439 60.3106 74.6438 60.1133 74.6434C59.8985 74.6432 59.6837 74.6436 59.469 74.644C59.0926 74.6445 58.7163 74.6446 58.3399 74.6444C57.7803 74.644 57.2206 74.6444 56.661 74.6449C55.6033 74.6458 54.5456 74.6459 53.4879 74.6458C52.6712 74.6457 51.8545 74.6458 51.0378 74.646C50.9205 74.6461 50.8031 74.6461 50.6858 74.6461C50.5091 74.6462 50.3323 74.6462 50.1556 74.6463C48.5119 74.6468 46.8683 74.647 45.2247 74.6468C45.1627 74.6468 45.1007 74.6468 45.0369 74.6468C44.7228 74.6467 44.4087 74.6467 44.0945 74.6466C44.0322 74.6466 43.9698 74.6466 43.9055 74.6466C43.7793 74.6466 43.6532 74.6465 43.527 74.6465C41.5639 74.6462 39.6008 74.6467 37.6377 74.6478C35.4325 74.649 33.2273 74.6497 31.0221 74.6494C30.787 74.6494 30.5519 74.6494 30.3169 74.6493C30.259 74.6493 30.2011 74.6493 30.1414 74.6493C29.2673 74.6493 28.3931 74.6497 27.5189 74.6503C26.5248 74.651 25.5307 74.6511 24.5366 74.6504C23.9802 74.65 23.4238 74.6501 22.8674 74.6509C22.4958 74.6514 22.1241 74.6512 21.7524 74.6505C21.5407 74.6501 21.3289 74.6501 21.1172 74.6507C20.8889 74.6515 20.6606 74.6509 20.4323 74.6501C20.3668 74.6505 20.3014 74.6509 20.234 74.6514C19.5553 74.6466 19.0141 74.5156 18.5193 74.0317C18.1824 73.6775 18.0762 73.229 18.0254 72.7501C18.0949 72.0942 18.3137 71.5986 18.829 71.178C19.3148 70.8705 19.8741 70.8465 20.4312 70.8502Z" fill="#165056"/>
<path d="M19.7128 61.6184C19.7742 61.6181 19.8356 61.6178 19.8988 61.6174C19.966 61.6177 20.0332 61.6179 20.1025 61.6182C20.1744 61.618 20.2462 61.6178 20.3203 61.6175C20.5205 61.6171 20.7207 61.6172 20.9209 61.6175C21.1385 61.6177 21.356 61.6172 21.5736 61.6168C21.9551 61.6161 22.3366 61.616 22.7182 61.6161C23.2855 61.6163 23.8529 61.6158 24.4202 61.6152C25.4924 61.614 26.5646 61.6137 27.6368 61.6136C28.4647 61.6135 29.2926 61.6133 30.1205 61.6129C30.3586 61.6128 30.5967 61.6127 30.8349 61.6126C30.8941 61.6126 30.9533 61.6126 31.0143 61.6125C32.6799 61.6118 34.3455 61.6113 36.0111 61.6114C36.0739 61.6114 36.1367 61.6114 36.2014 61.6114C36.5199 61.6114 36.8383 61.6114 37.1567 61.6114C37.22 61.6114 37.2832 61.6114 37.3484 61.6114C37.4763 61.6114 37.6042 61.6114 37.732 61.6114C39.7221 61.6115 41.7121 61.6106 43.7021 61.609C45.9368 61.6072 48.1716 61.6061 50.4063 61.6062C50.6445 61.6062 50.8827 61.6062 51.1209 61.6063C51.2089 61.6063 51.2089 61.6063 51.2987 61.6063C52.2434 61.6063 53.1881 61.6055 54.1328 61.6045C55.082 61.6035 56.0311 61.6033 56.9803 61.6041C57.5444 61.6046 58.1085 61.6043 58.6727 61.6032C59.0494 61.6025 59.4261 61.6026 59.8028 61.6035C60.0175 61.6039 60.2322 61.604 60.4469 61.6031C60.6782 61.602 60.9095 61.6029 61.1408 61.6038C61.2074 61.6033 61.2741 61.6027 61.3428 61.6021C61.9206 61.6073 62.3409 61.7727 62.7653 62.17C63.1725 62.629 63.2465 63.0843 63.2415 63.683C63.2018 64.199 62.9813 64.5919 62.6043 64.9338C62.1211 65.3212 61.5581 65.3554 60.9631 65.3518C60.8915 65.3521 60.82 65.3524 60.7462 65.3527C60.5482 65.3532 60.3502 65.353 60.1521 65.3525C59.9365 65.3521 59.7208 65.3527 59.5051 65.3532C59.1273 65.354 58.7495 65.354 58.3717 65.3537C57.8099 65.3531 57.248 65.3536 56.6862 65.3543C55.6828 65.3555 54.6794 65.3556 53.6759 65.3553C52.7977 65.355 51.9196 65.355 51.0414 65.3554C50.9236 65.3554 50.8059 65.3555 50.6881 65.3555C50.5106 65.3556 50.3331 65.3557 50.1556 65.3557C48.5055 65.3564 46.8554 65.3567 45.2053 65.3562C45.1431 65.3562 45.0809 65.3561 45.0168 65.3561C44.5116 65.356 44.0065 65.3558 43.5013 65.3557C41.5307 65.3551 39.56 65.3556 37.5894 65.357C35.3754 65.3585 33.1614 65.3593 30.9475 65.3588C30.7115 65.3588 30.4755 65.3588 30.2394 65.3587C30.1813 65.3587 30.1232 65.3587 30.0633 65.3587C29.1858 65.3586 28.3082 65.359 27.4306 65.3598C26.4327 65.3607 25.4349 65.3608 24.437 65.3597C23.8785 65.3591 23.32 65.3592 22.7615 65.3602C22.3885 65.3609 22.0154 65.3606 21.6423 65.3597C21.4298 65.3592 21.2173 65.359 21.0047 65.3599C20.7756 65.3609 20.5464 65.36 20.3173 65.359C20.2516 65.3596 20.1859 65.3601 20.1182 65.3607C19.4918 65.3548 18.9729 65.1922 18.5166 64.7501C18.1824 64.3532 18.0259 63.8959 18.0356 63.3761C18.0801 62.8998 18.2653 62.4682 18.5788 62.1104C18.9169 61.8289 19.2667 61.6187 19.7128 61.6184Z" fill="#165056"/>
<path d="M19.6985 52.8559C19.7382 52.8557 19.778 52.8555 19.8189 52.8553C19.9515 52.8547 20.0841 52.855 20.2167 52.8553C20.313 52.8551 20.4092 52.8548 20.5054 52.8545C20.7695 52.8537 21.0336 52.8538 21.2977 52.8539C21.5827 52.8539 21.8677 52.8533 22.1526 52.8527C22.7108 52.8517 23.269 52.8514 23.8272 52.8513C24.2809 52.8513 24.7347 52.851 25.1885 52.8506C26.4752 52.8496 27.7618 52.849 29.0485 52.8491C29.1179 52.8491 29.1873 52.8491 29.2587 52.8491C29.3629 52.8491 29.3629 52.8491 29.4691 52.8491C30.5945 52.8492 31.7199 52.8481 32.8453 52.8464C34.001 52.8447 35.1567 52.8438 36.3124 52.8439C36.9612 52.844 37.6099 52.8437 38.2587 52.8424C38.8111 52.8413 39.3635 52.841 39.9159 52.8418C40.1976 52.8422 40.4793 52.8422 40.7611 52.8412C41.0192 52.8403 41.2774 52.8404 41.5355 52.8415C41.6287 52.8417 41.7218 52.8414 41.815 52.8408C42.4661 52.8364 43.0502 52.8703 43.5504 53.3332C43.9873 53.8172 44.0835 54.3149 44.0716 54.9521C44.0494 55.4358 43.854 55.8141 43.5281 56.164C43.0932 56.5393 42.6204 56.6338 42.0618 56.6341C42.0227 56.6342 41.9836 56.6343 41.9433 56.6344C41.8125 56.6347 41.6817 56.6346 41.5508 56.6344C41.456 56.6345 41.3612 56.6347 41.2664 56.6348C41.006 56.6352 40.7456 56.6352 40.4851 56.6351C40.2042 56.6351 39.9233 56.6354 39.6424 56.6357C39.0921 56.6362 38.5418 56.6364 37.9915 56.6364C37.5442 56.6364 37.0969 56.6366 36.6496 56.6368C35.3816 56.6373 34.1135 56.6376 32.8455 56.6375C32.7771 56.6375 32.7087 56.6375 32.6383 56.6375C32.5356 56.6375 32.5356 56.6375 32.4309 56.6375C31.3214 56.6375 30.212 56.638 29.1026 56.6389C27.9635 56.6397 26.8244 56.6401 25.6854 56.6401C25.0459 56.6401 24.4063 56.6402 23.7668 56.6409C23.2223 56.6414 22.6778 56.6416 22.1333 56.6411C21.8555 56.641 21.5778 56.641 21.3 56.6415C21.0456 56.6419 20.7912 56.6419 20.5368 56.6413C20.4448 56.6412 20.3529 56.6413 20.261 56.6417C19.5416 56.6441 18.916 56.6273 18.3594 56.1179C17.9893 55.7205 17.856 55.289 17.8398 54.7488C17.8596 54.1083 18.0574 53.668 18.5181 53.2289C18.8804 52.939 19.2417 52.8564 19.6985 52.8559Z" fill="#165056"/>
<path d="M19.8058 44.1383C19.8886 44.1381 19.9713 44.1377 20.0541 44.1372C20.2808 44.1362 20.5074 44.1367 20.7341 44.1375C20.9788 44.138 21.2236 44.1372 21.4684 44.1365C21.9475 44.1354 22.4267 44.1357 22.9058 44.1364C23.2953 44.1369 23.6847 44.137 24.0742 44.1367C24.1296 44.1367 24.1851 44.1366 24.2422 44.1366C24.3549 44.1365 24.4675 44.1365 24.5802 44.1364C25.6363 44.1357 26.6924 44.1365 27.7485 44.1378C28.6544 44.1388 29.5604 44.1386 30.4664 44.1375C31.5187 44.1363 32.5711 44.1358 33.6234 44.1365C33.7356 44.1366 33.8479 44.1366 33.9601 44.1367C34.0429 44.1368 34.0429 44.1368 34.1274 44.1368C34.5164 44.137 34.9053 44.1367 35.2943 44.1361C35.7683 44.1355 36.2424 44.1356 36.7164 44.1369C36.9583 44.1375 37.2001 44.1378 37.4419 44.137C37.6634 44.1363 37.8848 44.1367 38.1063 44.1379C38.2242 44.1383 38.342 44.1376 38.4598 44.1367C38.9427 44.141 39.2598 44.1986 39.6433 44.5116C40.0922 45.0315 40.2167 45.5833 40.1861 46.2625C40.1341 46.8042 39.9471 47.1704 39.5914 47.5737C39.1759 47.9171 38.7512 47.8898 38.2356 47.8874C38.1529 47.8876 38.0702 47.8879 37.9874 47.8883C37.7606 47.8892 37.5339 47.8889 37.3071 47.8885C37.0623 47.8882 36.8175 47.889 36.5727 47.8896C36.0933 47.8906 35.614 47.8906 35.1346 47.8903C34.745 47.8901 34.3553 47.8902 33.9657 47.8905C33.9102 47.8905 33.8548 47.8906 33.7976 47.8906C33.685 47.8907 33.5723 47.8908 33.4596 47.8909C32.4031 47.8917 31.3467 47.8914 30.2902 47.8907C29.3237 47.8901 28.3573 47.8909 27.3908 47.8923C26.3983 47.8938 25.4058 47.8943 24.4133 47.894C23.8561 47.8937 23.299 47.8939 22.7418 47.8949C22.2676 47.8958 21.7933 47.8958 21.319 47.8948C21.0771 47.8943 20.8351 47.8942 20.5932 47.8951C20.3716 47.8959 20.15 47.8956 19.9284 47.8945C19.8105 47.8941 19.6926 47.895 19.5748 47.8959C19.0917 47.8918 18.7746 47.8344 18.391 47.5213C17.9421 47.0013 17.8179 46.4498 17.848 45.7706C17.8969 45.2655 18.0623 44.8924 18.391 44.5116C18.8427 44.1429 19.2434 44.1344 19.8058 44.1383Z" fill="#165056"/>
<path d="M30.4734 20.6426C31.6283 21.6351 32.3469 23.003 32.4821 24.5306C32.5499 25.5319 32.3856 26.4843 31.9578 27.3922C31.9 27.5596 31.909 27.6129 31.9663 27.7768C32.0849 27.9122 32.2042 28.038 32.332 28.1639C32.3892 28.2214 32.3892 28.2214 32.4477 28.28C32.5306 28.3632 32.6138 28.4461 32.6971 28.5289C32.8292 28.6601 32.9607 28.7918 33.092 28.9237C33.4185 29.2512 33.7459 29.5778 34.0733 29.9044C34.3497 30.1802 34.6257 30.4564 34.9012 30.7331C35.0305 30.8626 35.1603 30.9915 35.2901 31.1204C35.3699 31.2004 35.4496 31.2803 35.5292 31.3603C35.5652 31.3958 35.6012 31.4312 35.6383 31.4678C35.897 31.7291 36.12 31.9937 36.1851 32.3682C36.1787 32.9645 36.0432 33.2595 35.6414 33.6928C35.3065 34.0154 34.9966 34.2166 34.5281 34.2442C34.0327 34.2109 33.7013 33.9166 33.3675 33.5713C33.3277 33.5312 33.288 33.491 33.247 33.4497C33.1169 33.318 32.9876 33.1855 32.8583 33.053C32.7678 32.9611 32.6773 32.8692 32.5867 32.7774C32.3492 32.5364 32.1124 32.2948 31.8758 32.053C31.6338 31.8061 31.3912 31.5598 31.1487 31.3134C30.6735 30.8306 30.1991 30.3471 29.7252 29.8631C29.6644 29.8879 29.6037 29.9127 29.5411 29.9383C29.4606 29.971 29.3801 30.0037 29.2996 30.0365C29.2597 30.0528 29.2197 30.0691 29.1786 30.0859C27.8198 30.6377 26.2828 30.6312 24.9257 30.076C24.1789 29.752 23.578 29.3049 23.0017 28.7306C22.9369 28.6662 22.9369 28.6662 22.8708 28.6006C22.0068 27.6823 21.5336 26.4087 21.4683 25.1541C21.4646 25.0859 21.4646 25.0859 21.4609 25.0163C21.4227 23.5507 21.9566 22.2093 22.8837 21.1009C22.9169 21.0612 22.95 21.0216 22.9842 20.9807C24.9508 18.8325 28.3096 18.9274 30.4734 20.6426ZM23.9154 22.2844C23.2338 23.1631 22.9347 24.1611 23.0017 25.2734C23.1645 26.4449 23.7002 27.372 24.5941 28.1345C25.5945 28.8516 26.673 29.0268 27.8745 28.884C28.589 28.7243 29.2512 28.3355 29.7841 27.8364C29.8457 27.7791 29.8457 27.7791 29.9085 27.7205C30.5924 27.0159 30.949 25.9761 30.9784 25.0051C30.963 23.9605 30.5951 23.01 29.9021 22.2334C29.8729 22.1984 29.8437 22.1635 29.8136 22.1275C29.215 21.4604 28.2611 20.9788 27.3705 20.9138C26.033 20.8526 24.8247 21.238 23.9154 22.2844Z" fill="#115056"/>
<path d="M64.2273 26.3462C64.8307 26.3462 65.434 26.3462 66.0556 26.3462C66.0751 26.956 66.0946 27.5657 66.1146 28.194C66.3792 28.2419 66.3792 28.2419 66.6491 28.2909C67.4441 28.4461 68.4743 28.731 69.0635 29.3265C69.0273 29.6916 68.8393 30.0249 68.6912 30.3548C68.6625 30.4211 68.6338 30.4875 68.6042 30.5559C68.576 30.6189 68.5477 30.6819 68.5186 30.7469C68.4803 30.8334 68.4803 30.8334 68.4412 30.9218C68.3558 31.0551 68.3558 31.0551 68.2368 31.1081C68.0613 31.1181 67.9586 31.0446 67.8065 30.9583C66.8165 30.4342 65.608 30.1476 64.4955 30.3829C64.134 30.5062 63.8487 30.6735 63.6154 30.9843C63.5301 31.2861 63.538 31.5096 63.6744 31.7853C63.9599 32.1194 64.2846 32.2407 64.6918 32.3553C64.7427 32.3703 64.7935 32.3852 64.846 32.4006C65.0719 32.4668 65.2984 32.5313 65.525 32.5954C68.4633 33.4279 68.4633 33.4279 69.2072 34.6353C69.6307 35.4151 69.6975 36.2056 69.4782 37.0656C69.1808 37.9877 68.5282 38.5925 67.707 39.0424C67.1987 39.2983 66.6291 39.5193 66.0556 39.5193C66.0556 40.1684 66.0556 40.8175 66.0556 41.4863C65.4523 41.4863 64.8489 41.4863 64.2273 41.4863C64.2273 40.8569 64.2273 40.2274 64.2273 39.5789C64.0716 39.5789 63.9159 39.5789 63.7555 39.5789C63.5843 39.5586 63.4185 39.5209 63.2505 39.4821C63.2044 39.4714 63.1584 39.4608 63.1109 39.4499C62.1375 39.2136 61.2517 38.7722 60.5117 38.0887C61.0846 36.7885 61.0846 36.7885 61.3374 36.3005C61.5419 36.397 61.7238 36.5185 61.9124 36.6433C62.995 37.3302 64.3706 37.6215 65.6336 37.3919C66.0641 37.2704 66.5132 37.0948 66.7892 36.7227C66.9318 36.4639 66.9831 36.2404 66.9403 35.9429C66.7831 35.5422 66.5581 35.3956 66.1736 35.2276C65.7217 35.0411 65.2496 34.9341 64.7765 34.8178C63.4899 34.499 62.0268 34.0835 61.2929 32.8648C60.9083 32.1287 60.8025 31.2631 61.0425 30.4591C61.4202 29.5176 61.994 28.906 62.9252 28.5C63.3401 28.3456 63.7839 28.194 64.2273 28.194C64.2273 27.5842 64.2273 26.9744 64.2273 26.3462Z" fill="#115056"/>
</svg>
