<svg width="90" height="108" viewBox="0 0 90 108" fill="none" xmlns="http://www.w3.org/2000/svg">
<path d="M76.6448 107.55H12.7862C12.0297 107.55 11.3041 107.249 10.7691 106.714C10.2341 106.179 9.93359 105.454 9.93359 104.697C9.93359 103.941 10.2341 103.215 10.7691 102.68C11.3041 102.145 12.0297 101.845 12.7862 101.845H76.6448C77.4014 101.845 78.127 102.145 78.662 102.68C79.1969 103.215 79.4975 103.941 79.4975 104.697C79.4975 105.454 79.1969 106.179 78.662 106.714C78.127 107.249 77.4014 107.55 76.6448 107.55Z" fill="#1C4F56"/>
<path d="M24.1585 106.639C24.0733 106.639 23.9883 106.634 23.9039 106.622C23.4039 106.555 22.951 106.292 22.6448 105.891C22.3385 105.49 22.2039 104.984 22.2706 104.484L23.8862 92.4242L42.8883 1.95935C42.9942 1.46784 43.2904 1.03826 43.7122 0.764573C44.134 0.490886 44.6469 0.39536 45.139 0.49889C45.631 0.602419 46.062 0.896578 46.3377 1.31703C46.6134 1.73748 46.7114 2.25001 46.6102 2.74252L27.6358 93.0689L26.0403 104.99C25.979 105.446 25.7546 105.864 25.4084 106.167C25.0623 106.471 24.6187 106.638 24.1585 106.639Z" fill="#1C4F56"/>
<path d="M65.3499 106.639C64.8897 106.638 64.4454 106.471 64.0993 106.167C63.7531 105.864 63.5286 105.446 63.4674 104.99L61.8519 92.9297L42.8944 2.74326C42.7932 2.25074 42.8912 1.73821 43.1669 1.31776C43.4426 0.897309 43.8736 0.603152 44.3656 0.499622C44.8577 0.396093 45.3706 0.491617 45.7924 0.765305C46.2142 1.03899 46.5104 1.46857 46.6163 1.96008L65.5946 92.2857L67.2378 104.484C67.2712 104.732 67.2554 104.984 67.1914 105.225C67.1274 105.467 67.0165 105.694 66.8649 105.892C66.7133 106.091 66.524 106.258 66.3079 106.384C66.0918 106.509 65.8531 106.591 65.6054 106.624C65.521 106.636 65.4359 106.641 65.3507 106.641" fill="#1C4F56"/>
<path d="M44.7584 34.5257H12.824C12.4111 34.5256 12.0094 34.3912 11.6796 34.1427C11.3498 33.8942 11.1097 33.5451 10.9958 33.1482C10.8818 32.7513 10.9001 32.3281 11.0478 31.9425C11.1955 31.5569 11.4647 31.2298 11.8147 31.0106L41.2618 12.553L43.2821 15.7772L19.4417 30.7214H44.7584V34.5257Z" fill="#1C4F56"/>
<path d="M12.8268 41.3234C12.5771 41.3234 12.3299 41.2742 12.0993 41.1787C11.8687 41.0831 11.6591 40.9431 11.4826 40.7666C11.306 40.59 11.166 40.3805 11.0705 40.1498C10.975 39.9192 10.9258 39.672 10.9258 39.4224V32.6231C10.9258 32.1188 11.1261 31.6352 11.4827 31.2786C11.8393 30.922 12.3229 30.7217 12.8271 30.7217C13.3314 30.7217 13.815 30.922 14.1716 31.2786C14.5282 31.6352 14.7285 32.1188 14.7285 32.6231V39.4216C14.7285 39.9258 14.5282 40.4093 14.1717 40.7658C13.8152 41.1223 13.3317 41.3226 12.8275 41.3226" fill="#1C4F56"/>
<path d="M76.6844 34.5256H44.7578V30.7213H70.0683L46.2272 15.778L48.2474 12.5537L77.6961 31.0106C78.0458 31.23 78.3147 31.5571 78.4622 31.9428C78.6097 32.3284 78.6277 32.7515 78.5136 33.1483C78.3994 33.545 78.1593 33.8939 77.8295 34.1422C77.4997 34.3905 77.0981 34.5249 76.6852 34.5249" fill="#1C4F56"/>
<path d="M76.6861 41.3234C76.182 41.3234 75.6984 41.1231 75.3419 40.7666C74.9854 40.4101 74.7852 39.9265 74.7852 39.4224V32.6231C74.7852 32.1188 74.9855 31.6352 75.3421 31.2786C75.6986 30.922 76.1822 30.7217 76.6865 30.7217C77.1908 30.7217 77.6744 30.922 78.031 31.2786C78.3876 31.6352 78.5879 32.1188 78.5879 32.6231V39.4216C78.5879 39.9258 78.3876 40.4093 78.0311 40.7658C77.6746 41.1223 77.1911 41.3226 76.6869 41.3226" fill="#1C4F56"/>
<path d="M1.89829 58.4416C1.47102 58.4418 1.05617 58.298 0.720603 58.0335C0.385039 57.769 0.148321 57.3992 0.0486075 56.9837C-0.0511058 56.5682 -0.00800269 56.1313 0.170967 55.7433C0.349937 55.3553 0.654343 55.0389 1.03512 54.8451L36.2829 36.859C36.6326 36.6798 37.0295 36.6138 37.4184 36.67C37.8073 36.7263 38.1692 36.902 38.4539 37.1729L57.4475 55.1589L54.8319 57.92L36.8137 40.858L9.89841 54.5896L44.9839 54.3919L45.0069 58.1962L1.90906 58.4393L1.89829 58.4416Z" fill="#1C4F56"/>
<path d="M1.89939 68.4006C1.64923 68.4009 1.40147 68.3518 1.17032 68.2562C0.93916 68.1605 0.729154 68.0202 0.552336 67.8432C0.375519 67.6663 0.235367 67.4562 0.139916 67.2249C0.0444651 66.9937 -0.00440873 66.7459 -0.00390236 66.4957V56.5407C-0.00390236 56.0364 0.196419 55.5528 0.552994 55.1962C0.909569 54.8396 1.39319 54.6393 1.89746 54.6393C2.40173 54.6393 2.88536 54.8396 3.24193 55.1962C3.59851 55.5528 3.79883 56.0364 3.79883 56.5407V66.4957C3.79933 66.7456 3.75058 66.9931 3.65537 67.224C3.56016 67.455 3.42036 67.665 3.24395 67.8419C3.06754 68.0188 2.85799 68.1592 2.62728 68.2551C2.39656 68.3509 2.14922 68.4004 1.89939 68.4006Z" fill="#1C4F56"/>
<path d="M18.8971 68.4006C18.3929 68.4006 17.9094 68.2003 17.5529 67.8438C17.1964 67.4873 16.9961 67.0037 16.9961 66.4996V56.5407C16.9961 56.0364 17.1964 55.5528 17.553 55.1962C17.9096 54.8396 18.3932 54.6393 18.8975 54.6393C19.4017 54.6393 19.8854 54.8396 20.2419 55.1962C20.5985 55.5528 20.7988 56.0364 20.7988 56.5407V66.4957C20.7993 66.7458 20.7505 66.9934 20.6552 67.2246C20.5598 67.4557 20.4198 67.6658 20.2431 67.8427C20.0665 68.0196 19.8567 68.16 19.6257 68.2557C19.3947 68.3515 19.1471 68.4007 18.8971 68.4006Z" fill="#1C4F56"/>
<path d="M88.0964 58.4408H88.0849L44.9855 58.1977L45.007 54.3934L80.094 54.5911L53.1464 40.8402L34.7597 57.3861L32.2148 54.5596L51.5739 37.1382C51.8597 36.8809 52.2169 36.7164 52.5982 36.6664C52.9795 36.6164 53.367 36.6833 53.7095 36.8582L88.9596 54.8442C89.3404 55.0381 89.6448 55.3545 89.8238 55.7425C90.0027 56.1305 90.0458 56.5674 89.9461 56.9829C89.8464 57.3984 89.6097 57.7682 89.2741 58.0326C88.9386 58.2971 88.5237 58.4409 88.0964 58.4408Z" fill="#1C4F56"/>
<path d="M88.0963 68.4006C87.5921 68.4006 87.1086 68.2003 86.7521 67.8438C86.3956 67.4873 86.1953 67.0037 86.1953 66.4996V56.5407C86.1953 56.0364 86.3956 55.5528 86.7522 55.1962C87.1088 54.8396 87.5924 54.6393 88.0967 54.6393C88.601 54.6393 89.0846 54.8396 89.4412 55.1962C89.7977 55.5528 89.998 56.0364 89.998 56.5407V66.4957C89.998 66.9999 89.7978 67.4834 89.4413 67.8399C89.0848 68.1964 88.6012 68.3967 88.0971 68.3967" fill="#1C4F56"/>
<path d="M71.1002 68.4006C70.596 68.4006 70.1125 68.2003 69.756 67.8438C69.3995 67.4873 69.1992 67.0037 69.1992 66.4996V56.5407C69.1992 56.0364 69.3995 55.5528 69.7561 55.1962C70.1127 54.8396 70.5963 54.6393 71.1006 54.6393C71.6049 54.6393 72.0885 54.8396 72.445 55.1962C72.8016 55.5528 73.0019 56.0364 73.0019 56.5407V66.4957C73.0019 66.9999 72.8017 67.4834 72.4452 67.8399C72.0887 68.1964 71.6051 68.3967 71.101 68.3967" fill="#1C4F56"/>
<path d="M34.0211 58.5363L31.3164 61.2104L61.6422 91.8836L64.3469 89.2095L34.0211 58.5363Z" fill="#1C4F56"/>
<path d="M55.8384 59.4503L24.3242 91.321L27.0288 93.9954L58.5429 62.1247L55.8384 59.4503Z" fill="#1C4F56"/>
</svg>
