<svg width="90" height="66" viewBox="0 0 90 66" fill="none" xmlns="http://www.w3.org/2000/svg">
<path d="M42.3317 0.225956C72.7379 -1.50949 96.1262 26.6884 88.5708 56.1435C87.2315 61.3593 85.2369 65.4097 79.2053 65.8499H10.4082C2.88456 65.3211 1.24942 57.2899 0.415935 51.1715C-3.10568 25.3329 16.1534 1.72072 42.3317 0.225956ZM42.5194 6.19552C17.9318 7.72828 1.06172 31.3912 7.33828 55.1016C7.87909 57.1505 8.36581 59.76 10.9712 59.8804L79.6316 59.7442C81.5467 59.285 81.833 57.7269 82.3388 56.096C90.365 30.3208 69.3371 4.52341 42.5194 6.19235V6.19552Z" fill="#115056"/>
<path d="M42.7065 12.1682C47.3257 11.8452 53.6722 12.6654 57.8651 14.6922C59.6497 15.5536 60.7282 17.3271 59.5098 19.1924C57.7028 21.9571 54.0444 19.4837 51.5949 18.882C33.8118 14.5149 16.875 28.541 18.0075 46.7189C18.1061 48.2801 18.9269 50.7155 18.3606 52.112C17.5081 54.2244 14.4255 54.522 13.1625 52.6599C12.5931 51.8175 12.3227 49.8256 12.1986 48.7678C10.029 30.1878 24.02 13.473 42.7065 12.1651V12.1682Z" fill="#115056"/>
<path d="M65.5574 20.9247C68.166 20.4845 69.9443 22.942 68.8309 25.3013L53.1379 41.0249C57.5821 50.6047 44.6472 58.829 37.9603 50.5445C31.9605 43.1118 40.3621 32.8512 48.9292 36.8351L64.2881 21.5264C64.6221 21.2224 65.1152 20.9976 65.5542 20.9247H65.5574ZM44.38 42.0066C40.7693 42.5893 41.3865 48.5652 45.6016 47.8875C49.2123 47.3048 48.5951 41.3289 44.38 42.0066Z" fill="#115056"/>
<path d="M71.9327 30.0674C74.4427 29.6747 75.1935 31.5717 75.9188 33.4718C77.8275 38.4755 78.7692 46.3008 77.3281 51.4882C76.7586 53.5403 74.6177 54.6456 72.7375 53.4295C70.463 51.9569 71.8532 48.752 71.9772 46.532C72.1236 43.913 71.7959 40.9267 71.1756 38.3805C70.7716 36.7305 69.4291 34.1939 69.5309 32.7213C69.6168 31.4925 70.6857 30.2638 71.9295 30.0674H71.9327Z" fill="#115056"/>
</svg>
