<svg width="90" height="94" viewBox="0 0 90 94" fill="none" xmlns="http://www.w3.org/2000/svg">
<g clip-path="url(#clip0_248_3950)">
<path fill-rule="evenodd" clip-rule="evenodd" d="M62.4324 0C64.8953 0 66.8919 2.00406 66.8919 4.47619V8.95238H76.4189C83.9195 8.95238 90 15.0557 90 22.5844V80.368C90 87.8967 83.9195 94 76.4189 94H13.5811C6.08046 94 0 87.8967 0 80.368V22.5844C0 15.0557 6.08046 8.95238 13.5811 8.95238H21.8919V4.47619C21.8919 2.00406 23.8885 0 26.3514 0C28.8142 0 30.8108 2.00406 30.8108 4.47619V8.95238H57.973V4.47619C57.973 2.00406 59.9695 0 62.4324 0ZM6.08108 23.6017V80.368C6.08108 84.5256 9.43895 87.8961 13.5811 87.8961H76.4189C80.5611 87.8961 83.9189 84.5256 83.9189 80.368V23.6017H6.08108Z" fill="#1D5056"/>
<path d="M23.3112 31.1299H12.3652V42.1169H23.3112V31.1299Z" fill="#115056"/>
<path d="M23.3112 50.2554H12.3652V61.2424H23.3112V50.2554Z" fill="#115056"/>
<path d="M23.3112 69.381H12.3652V80.368H23.3112V69.381Z" fill="#115056"/>
<path d="M41.9598 31.1299H31.0139V42.1169H41.9598V31.1299Z" fill="#115056"/>
<path d="M41.9598 50.2554H31.0139V61.2424H41.9598V50.2554Z" fill="#115056"/>
<path d="M41.9598 69.381H31.0139V80.368H41.9598V69.381Z" fill="#115056"/>
<path d="M60.2031 31.1299H49.2571V42.1169H60.2031V31.1299Z" fill="#115056"/>
<path d="M60.2031 50.2554H49.2571V61.2424H60.2031V50.2554Z" fill="#115056"/>
<path d="M60.2031 69.381H49.2571V80.368H60.2031V69.381Z" fill="#115056"/>
<path d="M78.8517 31.1299H67.9058V42.1169H78.8517V31.1299Z" fill="#115056"/>
<path d="M78.8517 50.2554H67.9058V61.2424H78.8517V50.2554Z" fill="#115056"/>
<path d="M78.8517 69.381H67.9058V80.368H78.8517V69.381Z" fill="#115056"/>
</g>
<defs>
<clipPath id="clip0_248_3950">
<rect width="90" height="94" fill="white"/>
</clipPath>
</defs>
</svg>
