<svg width="90" height="84" viewBox="0 0 90 84" fill="none" xmlns="http://www.w3.org/2000/svg">
<path d="M80.6103 1.73848C80.52 1.29026 80.2782 0.887241 79.9261 0.597738C79.574 0.308235 79.1331 0.150059 78.6782 0.150025H12.0766C11.6265 0.149868 11.1898 0.304477 10.8391 0.58819C10.4884 0.871902 10.2448 1.26766 10.1486 1.70977L0.0449902 48.3354C-0.0175589 48.6247 -0.0148555 48.9244 0.0529018 49.2125C0.120659 49.5006 0.251749 49.7698 0.436544 50.0003C0.621338 50.2308 0.855143 50.4168 1.12079 50.5445C1.38643 50.6723 1.67716 50.7386 1.97163 50.7386H37.713V63.1878H36.696C33.5048 63.1914 30.4454 64.4677 28.189 66.7365C25.9326 69.0053 24.6635 72.0814 24.6603 75.2899V81.8679C24.6601 82.1282 24.711 82.3861 24.81 82.6266C24.909 82.8672 25.0542 83.0858 25.2373 83.2699C25.4204 83.454 25.6378 83.6 25.8771 83.6995C26.1164 83.7991 26.3728 83.8502 26.6318 83.85H64.5024C64.7614 83.8502 65.0178 83.7991 65.2571 83.6995C65.4964 83.6 65.7138 83.454 65.8969 83.2699C66.08 83.0858 66.2252 82.8672 66.3242 82.6266C66.4232 82.3861 66.4741 82.1282 66.4739 81.8679V75.2899C66.4707 72.0812 65.2014 69.0049 62.9448 66.736C60.6881 64.4672 57.6283 63.1911 54.4368 63.1878H53.2295V50.7386H88.03C88.3217 50.7382 88.6097 50.6728 88.8733 50.5471C89.1369 50.4213 89.3695 50.2384 89.5543 50.0114C89.739 49.7845 89.8715 49.5191 89.942 49.2345C90.0125 48.9499 90.0194 48.6531 89.9621 48.3655L80.6103 1.73848ZM62.5268 75.283V79.8789H28.6019V75.2899C28.6041 73.1321 29.4575 71.0634 30.9749 69.5375C32.4924 68.0117 34.5499 67.1533 36.696 67.1508H54.4368C56.5832 67.1529 58.6411 68.0111 60.1588 69.537C61.6765 71.063 62.5301 73.1319 62.5323 75.2899M35.6232 17.4658H54.6585L55.6578 27.9808H34.6184L35.6232 17.4658ZM30.6645 27.9808H8.4912L10.7714 17.4658H31.6571L30.6645 27.9808ZM35.9944 13.5015L36.8863 4.11432H53.3899L54.2818 13.5029L35.9944 13.5015ZM58.6192 17.4658H79.7428L81.8517 27.9808H59.6171L58.6192 17.4658ZM78.9474 13.5015H58.2425L57.3506 4.11432H77.0657L78.9474 13.5015ZM13.6647 4.11432H32.9243L32.0337 13.5015H11.6307L13.6647 4.11432ZM7.63189 31.9437H30.2825L28.8739 46.7743H4.41766L7.63189 31.9437ZM49.2878 63.0935H41.6547V50.7399H49.2878V63.0935ZM37.713 46.7743H32.8332L34.2418 31.9437H56.0344L57.4431 46.7743H37.713ZM61.4024 46.7743L59.9938 31.9437H82.6471L85.622 46.7743H61.4024Z" fill="#164F56"/>
</svg>
