<svg width="90" height="94" viewBox="0 0 90 94" fill="none" xmlns="http://www.w3.org/2000/svg">
<g clip-path="url(#clip0_224_2991)">
<path d="M44.2611 50.8914C45.4129 51.1702 46.5062 51.4402 47.6025 51.6955C49.833 52.2179 52.0664 52.7227 54.2969 53.248C60.0704 54.6068 63.5521 58.959 63.5784 64.9254C63.6047 71.5168 63.5989 78.1053 63.5784 84.6968C63.5638 90.2904 59.8979 93.9794 54.3086 93.9853C40.5602 94.0029 26.8119 93.9911 13.0636 93.9911C11.5317 93.9911 9.99993 94.0175 8.46811 93.9618C3.78496 93.7886 0.101591 90.129 0.051895 85.4099C-0.0241112 78.3078 -0.0299578 71.2028 0.0635882 64.1036C0.127901 59.003 3.70896 54.5422 8.65228 53.3214C12.2246 52.438 15.8378 51.7161 19.4451 50.9971C20.3192 50.821 20.5502 50.4571 20.518 49.6148C20.4566 47.9332 20.5443 46.2457 20.4712 44.5641C20.4508 44.0857 20.2081 43.4958 19.8661 43.1671C15.9284 39.4048 14.0166 34.806 13.8879 29.365C13.8236 26.6298 13.4991 23.9005 13.3208 21.1653C13.1016 17.7698 13.4436 14.4242 14.5866 11.2136C16.6475 5.42627 20.8016 1.95446 26.7125 0.613279C32.6234 -0.727901 38.0988 -0.0235615 42.6943 4.37563C42.8813 4.55465 43.2 4.64856 43.4689 4.68084C47.6025 5.18562 49.9762 7.24288 51.0666 11.284C51.8033 14.0192 51.8647 16.816 51.4116 19.5659C50.7918 23.3282 50.5755 27.0994 50.4381 30.9028C50.2686 35.5691 48.2807 39.5104 44.9657 42.7592C44.4512 43.264 44.229 43.7512 44.2436 44.4672C44.2845 46.5861 44.2582 48.7079 44.2582 50.8885L44.2611 50.8914ZM24.6077 64.3912C24.3154 64.5556 24.1546 64.6348 24.0055 64.7287C22.1784 65.8557 21.851 65.7882 20.67 64.0156C18.8459 61.2775 17.01 58.5452 15.2239 55.7836C14.8175 55.1556 14.4258 54.9854 13.7038 55.1879C12.5461 55.5107 11.3563 55.6985 10.1782 55.9509C5.72312 56.9018 2.94597 60.2855 2.93136 64.8461C2.91089 71.5109 2.91674 78.1728 2.93136 84.8376C2.94013 88.5648 5.40156 91.0505 9.10247 91.071C13.3325 91.0916 17.5625 91.0593 21.7955 91.0916C22.5117 91.0975 22.7982 90.8773 22.9648 90.173C24.4411 83.9836 25.9846 77.8089 27.4346 71.6137C27.6158 70.8418 27.607 69.8645 27.2855 69.1661C26.5254 67.5226 25.5256 65.9936 24.6077 64.3883V64.3912ZM23.8886 18.1337C22.1083 19.8241 20.4186 21.4295 18.7289 23.0289C17.2965 24.3847 16.5394 25.9812 16.8609 28.015C16.9516 28.5873 16.8726 29.1831 16.8785 29.77C16.9545 37.0394 22.1521 43.3638 29.1593 44.7196C36.5261 46.143 43.6853 42.2603 46.4975 35.4018C47.7487 32.3497 47.7896 29.1684 47.5411 25.9989C47.316 23.1081 44.8663 21.18 41.9751 21.4324C40.8789 21.5292 39.7739 21.9166 38.7478 22.351C33.4624 24.5931 28.5834 23.5131 24.7977 19.1902C24.558 18.9173 24.3242 18.6414 23.8857 18.1337H23.8886ZM39.2038 63.9833C38.1836 65.6591 37.0727 67.2145 36.2688 68.9137C35.8829 69.7296 35.8362 70.88 36.0496 71.7809C37.5141 77.9351 39.0927 84.0599 40.6129 90.1965C40.7649 90.8128 40.99 91.1004 41.6945 91.0945C46.0327 91.0593 50.3709 91.1063 54.7091 91.0652C58.1323 91.0329 60.6463 88.5031 60.6609 85.0636C60.6902 78.255 60.696 71.4464 60.6609 64.6407C60.6405 60.4557 57.9539 57.1512 53.8905 56.1739C52.7914 55.9098 51.6688 55.7337 50.593 55.3962C49.8388 55.1585 49.4851 55.4168 49.0934 56.0184C47.24 58.868 45.3545 61.6942 43.4602 64.5174C42.7264 65.6121 42.1037 65.7354 40.9666 65.0662C40.4082 64.7375 39.8586 64.3912 39.195 63.9862L39.2038 63.9833ZM48.2865 20.9217C48.3918 20.2115 48.497 19.6891 48.5438 19.158C48.7806 16.4903 48.9209 13.8226 47.9825 11.24C47.3482 9.49676 46.2578 8.1996 44.3664 7.75646C41.9663 7.19005 41.3612 6.86429 39.4114 5.42627C38.625 4.84812 37.7743 4.27878 36.8622 3.96476C31.2115 2.01609 25.8969 2.77032 21.205 6.49158C17.7029 9.27079 16.6154 13.309 16.288 17.5879C16.2003 18.7471 16.2734 19.921 16.2734 20.9511C18.5506 19.0787 20.7314 17.2034 23.0028 15.4455C24.52 14.2716 25.0287 14.4301 26.0664 16.0031C28.9751 20.417 33.0532 21.5997 37.9263 19.4984C38.8881 19.0846 39.9113 18.7442 40.9373 18.5739C43.6794 18.1161 46.1204 18.8498 48.2836 20.9188L48.2865 20.9217ZM37.7772 90.9918C37.6837 90.5721 37.6135 90.2258 37.5288 89.8825C36.1139 84.2125 34.7428 78.5279 33.2578 72.8756C32.6147 70.428 33.0122 68.2651 34.3657 66.1961C35.1346 65.0193 35.8625 63.816 36.6401 62.5717C35.1667 61.6707 33.8103 60.8167 32.4247 60.0155C32.1996 59.8864 31.7669 59.8717 31.5506 60.0038C30.0626 60.9106 28.6039 61.8674 27.0633 62.8564C27.8467 64.1447 28.5834 65.3597 29.3201 66.5688C30.4807 68.4735 30.7905 70.4897 30.2468 72.6731C28.8202 78.4164 27.4316 84.1714 26.0314 89.9206C25.9495 90.2523 25.9027 90.5927 25.8297 90.9918H37.7714H37.7772ZM41.3144 45.603C35.2866 48.6874 29.44 48.7256 23.4676 45.7761C23.4676 47.5106 23.4442 49.11 23.491 50.7036C23.4998 50.953 23.7833 51.2758 24.0231 51.4226C26.4611 52.887 28.905 54.3427 31.3752 55.7455C31.6821 55.9186 32.2405 55.945 32.5416 55.7807C35.269 54.3133 37.9702 52.796 40.6625 51.2641C40.9373 51.1086 41.2706 50.7535 41.2794 50.4805C41.3378 48.9163 41.3086 47.3492 41.3086 45.603H41.3144ZM41.6185 62.0082C43.3111 59.4579 44.9306 57.0192 46.6027 54.4982C45.4597 54.2223 44.5155 53.9083 43.5508 53.7939C42.9603 53.7234 42.2645 53.8173 41.7354 54.0815C40.11 54.8973 38.5402 55.8276 36.9529 56.7169C36.3097 57.0778 35.6725 57.4535 34.8949 57.8996C37.216 59.3171 39.3529 60.623 41.6214 62.0082H41.6185ZM29.1505 57.882C27.0107 56.62 24.9614 55.5723 23.0993 54.2634C21.2138 52.9369 19.6381 54.1871 17.7701 54.3515C19.5299 56.9986 21.1611 59.4521 22.8391 61.9759C24.9322 60.6172 26.9376 59.3171 29.1505 57.882Z" fill="#115056"/>
<path d="M69.5562 33.2096C69.451 33.2977 69.334 33.3828 69.2317 33.4825C68.7026 33.9844 68.1793 34.4921 67.5625 35.082C68.6792 36.5787 67.7934 37.553 66.7586 38.5685C64.3322 40.9427 61.9585 43.3756 59.5585 45.7762C58.3073 47.0293 57.4683 47.0264 56.2084 45.7762C55.5068 45.0836 54.7964 44.3998 54.124 43.6779C53.2383 42.7299 53.2178 41.8055 54.1328 40.8722C56.8456 38.1106 59.5614 35.349 62.3502 32.6667C62.7624 32.2705 63.6686 32.0328 64.2007 32.2001C64.9344 32.429 65.3145 32.294 65.7647 31.7775C66.1213 31.3666 66.5627 31.032 67.01 30.6212C64.648 27.1787 63.8353 23.5044 64.8877 19.5161C65.6945 16.461 67.4368 14.031 70.0298 12.2496C75.2099 8.69273 82.2054 9.46456 86.4997 14.0369C90.8467 18.665 91.1712 25.6849 87.3124 30.7356C83.9301 35.1612 76.6131 37.9668 69.5562 33.2067V33.2096ZM86.3419 22.8059C86.3185 17.7464 82.2521 13.6877 77.2094 13.6935C72.1287 13.6965 68.1092 17.8169 68.077 22.938C68.0448 27.6894 72.4824 32.1326 77.303 32.0269C82.3457 31.9154 86.3682 27.8801 86.3448 22.8089L86.3419 22.8059Z" fill="#115056"/>
<path d="M77.6395 15.1843C78.2329 15.3252 79.1947 15.5013 80.1243 15.7889C80.8318 16.009 81.2235 16.5725 80.9779 17.3238C80.7207 18.1132 80.1097 18.3216 79.3146 18.1161C75.9645 17.2445 74.2718 17.9342 72.4769 20.9012C72.0618 21.5879 71.5064 21.9489 70.758 21.5381C70.0272 21.136 69.9512 20.4757 70.3108 19.7449C71.7344 16.8601 74.0731 15.3986 77.6395 15.1843Z" fill="#115056"/>
<path d="M52.1921 78.1317C51.8033 77.8441 51.4613 77.5888 51.1163 77.3364C50.7275 77.0488 50.3358 76.767 49.947 76.4765C49.5991 76.2182 49.5816 76.0774 49.8359 75.7311C50.1458 75.3143 50.4469 74.8917 50.7568 74.4779C50.9029 74.2813 50.9 74.1199 50.7334 73.9262C49.9704 73.0516 49.222 72.1683 48.4678 71.2878C48.3918 71.1998 48.3216 71.1088 48.2515 71.0208C48.2661 71.0061 48.2807 70.9885 48.2953 70.9738C48.3538 71.0032 48.4123 71.0296 48.4678 71.0589C50.0288 71.8543 51.5899 72.6496 53.148 73.4449C53.4696 73.6092 53.5076 73.7648 53.2942 74.0553C52.958 74.5073 52.616 74.9533 52.2798 75.4024C52.0313 75.734 52.0489 75.8807 52.3646 76.1449C53.9344 77.4479 55.5013 78.7538 57.074 80.0539C57.1647 80.1302 57.2757 80.1801 57.3781 80.2418C57.3517 80.2829 57.3284 80.321 57.302 80.3621C57.2173 80.3768 57.1296 80.4032 57.0448 80.4032C54.3524 80.4032 51.6571 80.4384 48.9648 80.3914C47.6288 80.368 46.5209 79.7106 45.5913 78.7715C44.6003 77.7678 44.077 76.5264 44.0361 75.1324C43.9776 73.1514 44.0127 71.1646 44.0098 69.1807C44.0098 68.5145 44.0156 67.8454 44.0098 67.1792C44.0098 66.9708 44.0799 66.8799 44.2933 66.8799C46.7898 66.8593 49.2892 66.7008 51.777 66.8417C54.6652 67.0031 56.8899 68.7933 57.3927 71.8073C57.4599 72.2152 57.4833 72.6349 57.4862 73.0487C57.495 74.6247 57.4862 76.2036 57.4862 77.7795C57.4862 77.847 57.4541 77.9527 57.4044 77.9732C57.3547 77.9967 57.2523 77.9556 57.2027 77.9116C56.656 77.445 56.1123 76.9783 55.5802 76.4941C55.4984 76.4207 55.4574 76.271 55.4516 76.1537C55.4077 75.0355 55.3814 73.9174 55.3376 72.8022C55.2557 70.8066 54.0513 69.4155 52.1015 69.0486C51.9582 69.0222 51.8091 69.0164 51.663 69.0134C49.9792 69.0134 48.2953 69.0134 46.6115 69.0134C46.173 69.0134 46.1467 69.0428 46.1467 69.4859C46.1467 71.0472 46.1116 72.6085 46.1555 74.1668C46.1964 75.6665 46.9915 77.263 48.5906 77.8705C49.0028 78.026 49.4559 78.1141 49.8973 78.1405C50.6018 78.1845 51.3122 78.1522 52.0196 78.1522C52.0576 78.1522 52.0986 78.1464 52.195 78.1346L52.1921 78.1317Z" fill="#115056"/>
</g>
<defs>
<clipPath id="clip0_224_2991">
<rect width="90" height="94" fill="white"/>
</clipPath>
</defs>
</svg>
