<svg width="90" height="96" viewBox="0 0 90 96" fill="none" xmlns="http://www.w3.org/2000/svg">
<path d="M16.2544 8.80233C16.346 8.80214 16.346 8.80214 16.4395 8.80195C16.6433 8.80161 16.8471 8.80169 17.0508 8.80178C17.1988 8.80162 17.3467 8.80144 17.4947 8.80124C17.858 8.8008 18.2214 8.80064 18.5847 8.80061C19.0202 8.80056 19.4556 8.80015 19.8911 8.79974C20.943 8.79877 21.995 8.79841 23.047 8.79812C23.5448 8.79798 24.0425 8.79776 24.5402 8.79754C26.2445 8.79676 27.9488 8.79611 29.6531 8.7959C29.76 8.79589 29.8669 8.79588 29.9737 8.79586C30.0809 8.79585 30.188 8.79584 30.2952 8.79582C30.5101 8.7958 30.7251 8.79577 30.94 8.79574C30.9933 8.79573 31.0466 8.79573 31.1015 8.79572C32.8307 8.7955 34.5599 8.79454 36.289 8.79313C38.1179 8.79164 39.9468 8.79081 41.7757 8.79074C41.9764 8.79073 42.1771 8.79071 42.3778 8.7907C42.4272 8.79069 42.4766 8.79069 42.5276 8.79069C43.3229 8.79062 44.1182 8.78995 44.9136 8.78907C45.7126 8.7882 46.5117 8.788 47.3108 8.78849C47.7855 8.78876 48.2602 8.78853 48.7349 8.78757C49.0893 8.78691 49.4437 8.7872 49.7982 8.78786C49.9416 8.78798 50.085 8.78779 50.2284 8.78726C50.4232 8.78659 50.6181 8.78704 50.8129 8.78777C50.8686 8.78731 50.9243 8.78685 50.9817 8.78638C51.5819 8.79121 52.0935 8.93579 52.5346 9.355C52.9455 9.79674 53.1209 10.2756 53.0998 10.8785C53.0313 11.4489 52.7835 11.8831 52.353 12.2602C51.8718 12.5885 51.3327 12.6414 50.7659 12.6385C50.6744 12.6387 50.6744 12.6387 50.581 12.639C50.3764 12.6394 50.1718 12.639 49.9672 12.6386C49.8191 12.6387 49.671 12.6389 49.5229 12.6391C49.2008 12.6395 48.8786 12.6395 48.5565 12.6392C48.0775 12.6387 47.5984 12.639 47.1194 12.6393C46.3133 12.64 45.5073 12.6401 44.7012 12.6399C43.5493 12.6397 42.3973 12.6405 41.2454 12.6416C40.783 12.642 40.3206 12.6423 39.8582 12.6427C39.7811 12.6428 39.7811 12.6428 39.7025 12.6428C38.4798 12.6438 37.2571 12.6445 36.0344 12.645C35.9809 12.645 35.9275 12.6451 35.8723 12.6451C34.6245 12.6457 33.3766 12.6461 32.1288 12.6462C32.0483 12.6462 32.0483 12.6462 31.9662 12.6462C31.6956 12.6463 31.425 12.6463 31.1545 12.6463C31.101 12.6463 31.0475 12.6464 30.9924 12.6464C30.8845 12.6464 30.7766 12.6464 30.6687 12.6464C28.8848 12.6466 27.1009 12.6476 25.317 12.6495C25.0649 12.6498 24.8129 12.6501 24.5609 12.6503C24.5113 12.6504 24.4617 12.6504 24.4106 12.6505C23.613 12.6513 22.8154 12.6511 22.0178 12.6507C21.2159 12.6502 20.414 12.6506 19.6121 12.6518C19.136 12.6526 18.6599 12.6526 18.1837 12.6517C17.8278 12.6511 17.4719 12.6517 17.116 12.6529C16.9723 12.6531 16.8286 12.653 16.6849 12.6524C15.3779 12.6473 14.328 12.8257 13.3589 13.7783C12.7514 14.4274 12.3964 15.2722 12.399 16.1608C12.3988 16.2285 12.3988 16.2285 12.3987 16.2975C12.3984 16.4495 12.3985 16.6015 12.3987 16.7535C12.3985 16.8637 12.3984 16.974 12.3982 17.0842C12.3978 17.3889 12.3978 17.6935 12.3979 17.9982C12.3979 18.329 12.3975 18.6598 12.3972 18.9906C12.3966 19.6474 12.3964 20.3043 12.3963 20.9612C12.3961 21.7477 12.3956 22.5342 12.395 23.3207C12.3938 25.2218 12.3931 27.123 12.3926 29.0241C12.3924 29.6537 12.3922 30.2833 12.392 30.9128C12.392 30.9795 12.392 30.9795 12.392 31.0474C12.3919 31.2271 12.3918 31.4068 12.3918 31.5864C12.3907 34.6599 12.3897 37.7333 12.3893 40.8068C12.3893 41.0482 12.3892 41.2896 12.3892 41.5311C12.3892 41.6029 12.3892 41.6029 12.3892 41.6762C12.3891 42.1614 12.389 42.6466 12.3889 43.1319C12.3889 43.2292 12.3889 43.3264 12.3889 43.4237C12.3884 46.5481 12.3871 49.6725 12.3851 52.7968C12.3837 55.0417 12.3824 57.2865 12.382 59.5313C12.382 59.5775 12.3819 59.6236 12.3819 59.6712C12.3817 60.6848 12.3816 61.6983 12.3816 62.7119C12.3815 63.1197 12.3815 63.5275 12.3815 63.9353C12.3815 63.9799 12.3815 64.0246 12.3815 64.0706C12.3813 65.5081 12.3805 66.9457 12.3792 68.3832C12.378 69.8313 12.3775 71.2794 12.3781 72.7275C12.3784 73.626 12.3782 74.5244 12.3768 75.4229C12.376 75.996 12.376 76.569 12.3768 77.1421C12.3772 77.4688 12.3772 77.7954 12.3762 78.122C12.3753 78.4194 12.3755 78.7167 12.3765 79.0141C12.3767 79.1208 12.3765 79.2275 12.3758 79.3342C12.3689 80.519 12.6498 81.4977 13.5012 82.3639C14.1178 82.9409 14.948 83.3231 15.7986 83.3238C15.8726 83.3241 15.9466 83.3243 16.0228 83.3245C16.1049 83.3244 16.187 83.3244 16.2691 83.3243C16.3567 83.3244 16.4443 83.3246 16.5319 83.3248C16.7737 83.3252 17.0155 83.3253 17.2573 83.3253C17.5199 83.3253 17.7826 83.3257 18.0452 83.3261C18.5666 83.3268 19.0881 83.3271 19.6095 83.3274C20.2339 83.3277 20.8583 83.3283 21.4827 83.329C22.992 83.3305 24.5014 83.3314 26.0107 83.3322C26.5106 83.3325 27.0105 83.3327 27.5104 83.333C30.1681 83.3345 32.8258 83.3359 35.4835 83.3366C36.0993 83.3368 36.7151 83.337 37.331 83.3372C37.4075 83.3372 37.484 83.3372 37.5628 83.3372C40.0434 83.338 42.5239 83.3399 45.0045 83.3424C47.5544 83.345 50.1042 83.3466 52.6541 83.3469C53.0142 83.3469 53.3744 83.347 53.7345 83.3471C53.8054 83.3471 53.8763 83.3471 53.9493 83.3471C55.09 83.3473 56.2307 83.3485 57.3715 83.3501C58.5181 83.3517 59.6648 83.3522 60.8115 83.3515C61.4927 83.3512 62.1738 83.3516 62.855 83.3533C63.3103 83.3544 63.7656 83.3543 64.2208 83.3534C64.4801 83.3528 64.7393 83.3528 64.9985 83.3541C65.2349 83.3553 65.4712 83.3551 65.7076 83.3537C65.8316 83.3534 65.9555 83.3545 66.0795 83.3558C66.9362 83.3479 67.7045 83.1098 68.392 82.5897C68.436 82.5567 68.48 82.5237 68.5253 82.4897C69.2602 81.8937 69.631 81.0226 69.7841 80.1082C69.8079 79.7891 69.8083 79.4715 69.8066 79.1518C69.8067 79.0575 69.8069 78.9631 69.8073 78.8688C69.8079 78.6117 69.8074 78.3546 69.8067 78.0975C69.8062 77.8195 69.8067 77.5414 69.8071 77.2633C69.8076 76.7821 69.8075 76.3008 69.8071 75.8196C69.8064 75.1231 69.8069 74.4266 69.8078 73.7301C69.8093 72.5989 69.8101 71.4678 69.8103 70.3366C69.8103 70.2352 69.8103 70.2352 69.8104 70.1317C69.8105 69.377 69.8105 68.6224 69.8105 67.8677C69.8105 67.5939 69.8104 67.3201 69.8104 67.0462C69.8104 66.9787 69.8104 66.9111 69.8104 66.8415C69.8104 65.7142 69.8113 64.587 69.8129 63.4598C69.8139 62.7651 69.814 62.0704 69.8131 61.3758C69.8125 60.8998 69.8128 60.4239 69.8138 59.948C69.8143 59.6736 69.8144 59.3992 69.8135 59.1247C69.8126 58.8733 69.8129 58.6218 69.8141 58.3703C69.8143 58.2796 69.8141 58.1889 69.8134 58.0982C69.8088 57.394 69.8849 56.7741 70.3893 56.2447C70.8642 55.8357 71.314 55.7544 71.9261 55.7608C72.4057 55.7971 72.7785 55.9913 73.1276 56.3178C73.4457 56.6924 73.6045 57.1271 73.6052 57.6128C73.6054 57.652 73.6055 57.6912 73.6057 57.7315C73.6061 57.8638 73.606 57.996 73.606 58.1282C73.6062 58.2236 73.6064 58.319 73.6067 58.4145C73.6073 58.6774 73.6075 58.9403 73.6077 59.2033C73.6079 59.4866 73.6085 59.7699 73.609 60.0533C73.6102 60.7382 73.6108 61.4231 73.6114 62.1081C73.6116 62.4308 73.612 62.7536 73.6123 63.0763C73.6133 64.1498 73.6142 65.2232 73.6146 66.2967C73.6147 66.5754 73.6148 66.8541 73.615 67.1328C73.615 67.202 73.615 67.2713 73.6151 67.3427C73.6156 68.463 73.6171 69.5833 73.6191 70.7035C73.6211 71.8545 73.6222 73.0054 73.6223 74.1564C73.6225 74.8022 73.623 75.4481 73.6245 76.094C73.6259 76.6445 73.6264 77.195 73.6258 77.7455C73.6255 78.026 73.6256 78.3065 73.6268 78.587C73.6354 80.7472 73.6354 80.7472 73.355 81.7423C73.3378 81.8046 73.3378 81.8046 73.3202 81.8682C72.9884 83.0587 72.3204 84.0575 71.4787 84.9501C71.4386 84.9949 71.3985 85.0396 71.3572 85.0856C70.1451 86.383 68.3158 87.0662 66.5763 87.1896C66.2871 87.198 65.9981 87.1978 65.7088 87.1973C65.6215 87.1974 65.5342 87.1975 65.4469 87.1977C65.2073 87.1979 64.9677 87.1979 64.7281 87.1977C64.4673 87.1976 64.2065 87.1979 63.9457 87.1981C63.4887 87.1984 63.0317 87.1985 62.5748 87.1984C61.8952 87.1983 61.2156 87.1986 60.5361 87.1989C59.2517 87.1995 57.9673 87.1996 56.683 87.1997C55.6911 87.1997 54.6992 87.1998 53.7073 87.2C53.4218 87.2001 53.1363 87.2001 52.8508 87.2002C52.7798 87.2002 52.7088 87.2002 52.6357 87.2002C50.6392 87.2006 48.6427 87.2008 46.6461 87.2008C46.5708 87.2008 46.4956 87.2008 46.418 87.2008C46.0365 87.2008 45.6549 87.2008 45.2734 87.2008C45.1597 87.2008 45.1597 87.2008 45.0437 87.2008C44.8905 87.2008 44.7373 87.2008 44.584 87.2008C42.2001 87.2007 39.8161 87.2012 37.4321 87.202C34.7538 87.2029 32.0755 87.2035 29.3972 87.2034C29.1115 87.2034 28.8259 87.2034 28.5403 87.2034C28.4699 87.2034 28.3996 87.2034 28.3271 87.2034C27.1956 87.2034 26.0641 87.2038 24.9326 87.2043C23.7953 87.2048 22.6579 87.2049 21.5205 87.2045C20.845 87.2043 20.1695 87.2044 19.494 87.205C19.0424 87.2053 18.5909 87.2052 18.1393 87.2048C17.8822 87.2046 17.6252 87.2045 17.3681 87.205C15.1163 87.209 12.959 86.9861 11.1963 85.4343C11.1475 85.3935 11.0988 85.3527 11.0485 85.3107C9.58451 84.0529 8.71209 82.2257 8.54549 80.3113C8.51963 79.8833 8.52479 79.4545 8.52526 79.026C8.52516 78.916 8.52504 78.8059 8.52489 78.6959C8.52455 78.3936 8.52459 78.0912 8.52469 77.7889C8.52474 77.4599 8.52443 77.131 8.52417 76.8021C8.52372 76.1496 8.52358 75.4972 8.52355 74.8448C8.52349 74.0633 8.52309 73.2819 8.52268 72.5004C8.52173 70.6565 8.52136 68.8126 8.52108 66.9687C8.52094 66.0304 8.52071 65.092 8.52048 64.1537C8.51971 61.1428 8.51906 58.1319 8.51885 55.1211C8.51884 54.9772 8.51883 54.8333 8.51882 54.6895C8.5188 54.401 8.51878 54.1125 8.51876 53.8239C8.51874 53.4862 8.51871 53.1484 8.51869 52.8106C8.51868 52.714 8.51868 52.6173 8.51867 52.5206C8.51845 49.4163 8.51754 46.312 8.51613 43.2077C8.51512 40.9767 8.51418 38.7457 8.51391 36.5146C8.5139 36.4687 8.5139 36.4228 8.51389 36.3755C8.51377 35.3677 8.5137 34.3598 8.51368 33.3519C8.51367 32.9913 8.51366 32.6306 8.51364 32.27C8.51364 32.1803 8.51363 32.0905 8.51363 32.0008C8.51357 30.5726 8.51297 29.1445 8.51209 27.7163C8.51118 26.2372 8.51093 24.7582 8.51143 23.2791C8.5117 22.4268 8.51147 21.5745 8.51051 20.7222C8.50992 20.1525 8.50999 19.5828 8.51059 19.0131C8.51092 18.6887 8.51096 18.3644 8.5102 18.04C8.50951 17.7443 8.50967 17.4485 8.51048 17.1527C8.51063 17.0471 8.51048 16.9414 8.50997 16.8358C8.50562 15.8575 8.56912 14.8369 8.90393 13.9095C8.922 13.8576 8.94007 13.8058 8.95869 13.7524C9.62837 11.9038 11 10.3842 12.7732 9.53799C13.8956 9.02233 15.0223 8.79995 16.2544 8.80233Z" fill="#115056"/>
<path d="M54.0626 18.8934C54.1575 18.8922 54.1575 18.8922 54.2542 18.891C54.3222 18.8912 54.3902 18.8914 54.4602 18.8916C54.5303 18.8913 54.6005 18.891 54.6727 18.8906C54.821 18.8902 54.9693 18.8903 55.1176 18.8908C55.3445 18.8913 55.5713 18.8896 55.7982 18.8877C55.9423 18.8876 56.0864 18.8876 56.2305 18.8878C56.2984 18.8871 56.3662 18.8864 56.4361 18.8857C56.9067 18.89 56.9067 18.89 57.146 19.0332C57.3428 19.2601 57.3229 19.4155 57.3202 19.7122C57.3197 19.7898 57.3191 19.8673 57.3186 19.9472C57.3179 20.007 57.3172 20.0667 57.3164 20.1283C57.3663 20.1283 57.4161 20.1282 57.4674 20.1281C60.419 20.124 63.3706 20.1209 66.3222 20.119C66.6764 20.1188 67.0306 20.1186 67.3848 20.1183C67.4553 20.1183 67.5258 20.1182 67.5984 20.1182C68.7411 20.1174 69.8837 20.116 71.0264 20.1143C72.1983 20.1126 73.3702 20.1116 74.5421 20.1112C75.2656 20.111 75.9891 20.1102 76.7126 20.1087C77.2083 20.1078 77.704 20.1075 78.1997 20.1077C78.486 20.1078 78.7723 20.1076 79.0585 20.1067C79.3204 20.1058 79.5823 20.1057 79.8442 20.1064C79.9391 20.1064 80.034 20.1062 80.1289 20.1056C80.2577 20.1049 80.3864 20.1053 80.5151 20.106C80.5867 20.1059 80.6583 20.1058 80.7321 20.1058C80.9968 20.1374 81.1555 20.2338 81.3318 20.4308C81.4448 20.7106 81.4311 20.9812 81.4293 21.2802C81.4295 21.3449 81.4297 21.4095 81.4298 21.4762C81.43 21.6127 81.4296 21.7493 81.4289 21.8858C81.4279 22.0946 81.4289 22.3034 81.43 22.5122C81.4299 22.645 81.4297 22.7778 81.4293 22.9106C81.4297 22.9729 81.4301 23.0353 81.4304 23.0995C81.425 23.6549 81.425 23.6549 81.2236 23.8808C81.0122 24.0187 80.831 24.0169 80.5822 24.0168C80.5419 24.0169 80.5017 24.0171 80.4602 24.0172C80.3248 24.0175 80.1894 24.017 80.054 24.0164C79.9562 24.0165 79.8584 24.0166 79.7605 24.0168C79.4913 24.017 79.222 24.0165 78.9527 24.0159C78.6625 24.0154 78.3723 24.0156 78.0821 24.0157C77.5792 24.0157 77.0762 24.0154 76.5733 24.0147C75.8461 24.0137 75.1189 24.0134 74.3917 24.0132C73.2119 24.013 72.0322 24.0122 70.8524 24.011C69.7063 24.0099 68.5601 24.0091 67.414 24.0085C67.3433 24.0085 67.2727 24.0085 67.1999 24.0084C66.8457 24.0083 66.4914 24.0081 66.1371 24.008C63.1969 24.0067 60.2566 24.0046 57.3164 24.0019C57.3165 24.0549 57.3166 24.108 57.3167 24.1626C57.3221 27.3037 57.3263 30.4448 57.3288 33.586C57.3291 33.9629 57.3294 34.3398 57.3297 34.7167C57.3298 34.7917 57.3299 34.8668 57.3299 34.9441C57.331 36.1601 57.3329 37.3761 57.3351 38.5921C57.3374 39.8393 57.3387 41.0865 57.3392 42.3336C57.3395 43.1036 57.3406 43.8735 57.3426 44.6435C57.3438 45.171 57.3442 45.6985 57.3439 46.2261C57.3438 46.5307 57.344 46.8354 57.3453 47.14C57.3465 47.4187 57.3465 47.6974 57.3457 47.9761C57.3456 48.0771 57.3459 48.1781 57.3467 48.2791C57.3476 48.4161 57.3471 48.5531 57.3462 48.6901C57.3463 48.7663 57.3464 48.8424 57.3465 48.9209C57.311 49.1556 57.2395 49.2551 57.0743 49.4222C56.9221 49.4983 56.8147 49.4921 56.6443 49.4944C56.5477 49.4959 56.5477 49.4959 56.449 49.4973C56.1541 49.5 55.8593 49.5025 55.5644 49.5039C55.4088 49.5049 55.2531 49.5066 55.0975 49.5089C54.8734 49.5122 54.6493 49.5135 54.4252 49.5144C54.3557 49.5158 54.2861 49.5171 54.2144 49.5186C53.7321 49.5173 53.7321 49.5173 53.4912 49.3408C53.3164 49.0828 53.3143 48.8913 53.3144 48.5858C53.3143 48.5434 53.3142 48.501 53.3142 48.4573C53.314 48.3141 53.3143 48.1709 53.3145 48.0277C53.3145 47.9245 53.3145 47.8212 53.3144 47.7179C53.3142 47.4333 53.3145 47.1488 53.3148 46.8642C53.315 46.5576 53.315 46.251 53.3149 45.9444C53.3149 45.413 53.3151 44.8815 53.3154 44.3501C53.3159 43.5817 53.3161 42.8133 53.3161 42.0449C53.3163 40.7983 53.3167 39.5517 53.3172 38.3051C53.3178 37.094 53.3182 35.8828 53.3185 34.6716C53.3185 34.597 53.3185 34.5224 53.3185 34.4455C53.3186 34.0712 53.3187 33.6969 53.3188 33.3226C53.3194 30.2157 53.3205 27.1088 53.3218 24.0019C53.2582 24.0038 53.2582 24.0038 53.1933 24.0057C53.0003 24.0108 52.8074 24.0139 52.6144 24.017C52.5477 24.019 52.4809 24.0211 52.4122 24.0232C51.9154 24.0292 51.9154 24.0292 51.6762 23.8879C51.4016 23.567 51.427 23.2351 51.4273 22.8314C51.4271 22.7708 51.4268 22.7103 51.4266 22.648C51.4262 22.5203 51.4262 22.3925 51.4264 22.2648C51.4266 22.0698 51.4252 21.8748 51.4237 21.6799C51.4235 21.5555 51.4235 21.4312 51.4236 21.3069C51.423 21.2488 51.4224 21.1907 51.4219 21.1309C51.4241 20.8145 51.4383 20.5771 51.6271 20.3099C51.8396 20.1414 51.9959 20.1061 52.2638 20.1106C52.3256 20.1112 52.3875 20.1118 52.4512 20.1124C52.547 20.1146 52.547 20.1146 52.6447 20.117C52.7422 20.1182 52.7422 20.1182 52.8418 20.1195C53.0018 20.1216 53.1618 20.1246 53.3218 20.1283C53.3187 20.0549 53.3187 20.0549 53.3154 19.9801C53.3138 19.9154 53.3122 19.8507 53.3105 19.7841C53.3073 19.6882 53.3073 19.6882 53.3041 19.5905C53.3287 19.3285 53.4176 19.1774 53.6112 19.0015C53.7743 18.8999 53.8715 18.8945 54.0626 18.8934Z" fill="#115056"/>
<path d="M20.9669 72.2174C21.0767 72.217 21.0767 72.217 21.1886 72.2166C21.3907 72.2161 21.5928 72.2164 21.7949 72.2171C22.0151 72.2176 22.2353 72.2171 22.4555 72.2167C22.8412 72.2161 23.2268 72.2162 23.6125 72.2168C24.1859 72.2176 24.7594 72.2174 25.3329 72.217C26.3571 72.2162 27.3813 72.2166 28.4055 72.2173C29.3018 72.2179 30.198 72.2182 31.0943 72.2181C31.1834 72.2181 31.1834 72.2181 31.2744 72.2181C31.5157 72.2181 31.7571 72.2181 31.9984 72.218C34.2621 72.2178 36.5257 72.2186 38.7894 72.2198C40.8008 72.2209 42.8122 72.2213 44.8235 72.221C44.9527 72.2209 45.0819 72.2209 45.211 72.2209C45.3068 72.2209 45.3068 72.2209 45.4045 72.2209C45.726 72.2208 46.0474 72.2208 46.3689 72.2207C46.4323 72.2207 46.4957 72.2207 46.5611 72.2207C48.2416 72.2204 49.9221 72.2208 51.6027 72.2213C51.7835 72.2213 51.9643 72.2214 52.1451 72.2214C52.2651 72.2215 52.385 72.2215 52.5049 72.2216C53.3414 72.2218 54.1778 72.2218 55.0142 72.2217C56.092 72.2216 57.1697 72.2218 58.2475 72.2228C58.8175 72.2233 59.3876 72.2234 59.9576 72.2231C60.3383 72.2229 60.7189 72.2232 61.0996 72.2238C61.3165 72.2241 61.5335 72.2243 61.7504 72.2239C61.9842 72.2235 62.2179 72.224 62.4516 72.2247C62.5189 72.2244 62.5862 72.2241 62.6556 72.2238C63.3244 72.2272 63.8497 72.3178 64.3482 72.7876C64.8266 73.2939 64.9199 73.6853 64.9034 74.3811C64.8539 74.9027 64.5947 75.2769 64.2168 75.6294C63.6972 76.0396 63.1591 76.071 62.5186 76.0685C62.4091 76.0688 62.4091 76.0688 62.2974 76.0691C62.0948 76.0695 61.8923 76.0694 61.6898 76.069C61.4694 76.0688 61.249 76.0692 61.0286 76.0696C60.6424 76.0701 60.2562 76.0702 59.8699 76.07C59.2956 76.0697 58.7213 76.07 58.1469 76.0705C57.0615 76.0714 55.9761 76.0716 54.8907 76.0714C54.0525 76.0713 53.2144 76.0714 52.3762 76.0717C52.2559 76.0717 52.1355 76.0717 52.0151 76.0718C51.8337 76.0718 51.6523 76.0719 51.4709 76.0719C49.7842 76.0724 48.0974 76.0727 46.4107 76.0725C46.3471 76.0724 46.2835 76.0724 46.218 76.0724C45.8956 76.0724 45.5733 76.0723 45.2509 76.0723C45.1869 76.0723 45.1229 76.0723 45.0569 76.0722C44.9275 76.0722 44.798 76.0722 44.6685 76.0722C42.6539 76.0719 40.6393 76.0723 38.6247 76.0735C36.3617 76.0747 34.0987 76.0754 31.8357 76.0751C31.5944 76.0751 31.3531 76.0751 31.1119 76.075C31.0525 76.075 30.9931 76.075 30.9319 76.075C30.0348 76.075 29.1377 76.0754 28.2406 76.076C27.2204 76.0767 26.2002 76.0768 25.18 76.0761C24.609 76.0757 24.0381 76.0758 23.4671 76.0766C23.0857 76.0771 22.7043 76.0769 22.3228 76.0762C22.1055 76.0759 21.8882 76.0758 21.6709 76.0765C21.4366 76.0772 21.2024 76.0766 20.9681 76.0758C20.9009 76.0762 20.8338 76.0767 20.7646 76.0771C20.068 76.0723 19.5127 75.9392 19.0049 75.4479C18.6592 75.0883 18.5501 74.6328 18.498 74.1466C18.5694 73.4805 18.794 72.9773 19.3227 72.5502C19.8212 72.238 20.3952 72.2136 20.9669 72.2174Z" fill="#115056"/>
<path d="M20.2295 62.8435C20.2925 62.8432 20.3555 62.8429 20.4204 62.8425C20.4893 62.8428 20.5583 62.843 20.6294 62.8433C20.7031 62.8431 20.7769 62.8429 20.8529 62.8426C21.0583 62.8422 21.2638 62.8422 21.4693 62.8426C21.6925 62.8428 21.9158 62.8422 22.139 62.8418C22.5306 62.8412 22.9221 62.841 23.3137 62.8412C23.8959 62.8414 24.4781 62.8408 25.0604 62.8402C26.1607 62.839 27.261 62.8387 28.3613 62.8386C29.2109 62.8386 30.0605 62.8383 30.9101 62.8379C31.1545 62.8378 31.3988 62.8377 31.6432 62.8376C31.704 62.8376 31.7647 62.8376 31.8273 62.8375C33.5366 62.8368 35.2459 62.8363 36.9552 62.8364C37.0196 62.8364 37.0841 62.8364 37.1505 62.8364C37.4773 62.8364 37.8041 62.8364 38.1309 62.8364C38.1958 62.8364 38.2607 62.8364 38.3276 62.8364C38.4588 62.8364 38.5901 62.8364 38.7213 62.8364C40.7635 62.8365 42.8057 62.8356 44.8479 62.8339C47.1413 62.8321 49.4346 62.831 51.728 62.8312C51.9724 62.8312 52.2169 62.8312 52.4614 62.8312C52.5516 62.8312 52.5516 62.8312 52.6438 62.8312C53.6132 62.8312 54.5827 62.8304 55.5522 62.8294C56.5263 62.8283 57.5003 62.8282 58.4744 62.829C59.0533 62.8295 59.6322 62.8292 60.2112 62.8281C60.5977 62.8273 60.9843 62.8275 61.3709 62.8284C61.5912 62.8288 61.8116 62.8289 62.0319 62.8279C62.2693 62.8269 62.5066 62.8277 62.744 62.8287C62.8124 62.8281 62.8808 62.8275 62.9513 62.8269C63.5443 62.8323 63.9756 63.0002 64.4112 63.4036C64.829 63.8696 64.9049 64.332 64.8998 64.9399C64.8591 65.4639 64.6327 65.8628 64.2459 66.2099C63.7501 66.6033 63.1723 66.6381 62.5617 66.6344C62.4882 66.6347 62.4147 66.635 62.3391 66.6352C62.1358 66.6358 61.9326 66.6356 61.7294 66.6351C61.5081 66.6347 61.2867 66.6353 61.0654 66.6358C60.6777 66.6366 60.29 66.6366 59.9023 66.6363C59.3257 66.6357 58.7492 66.6362 58.1726 66.6369C57.1428 66.6381 56.1131 66.6382 55.0833 66.6379C54.1821 66.6376 53.2809 66.6377 52.3798 66.638C52.2589 66.6381 52.138 66.6381 52.0171 66.6382C51.835 66.6382 51.6529 66.6383 51.4707 66.6384C49.7773 66.639 48.0839 66.6393 46.3905 66.6388C46.3267 66.6388 46.2629 66.6388 46.1971 66.6388C45.6787 66.6386 45.1603 66.6385 44.6419 66.6383C42.6195 66.6377 40.5972 66.6382 38.5749 66.6396C36.3028 66.6412 34.0308 66.642 31.7588 66.6415C31.5166 66.6415 31.2744 66.6415 31.0322 66.6414C30.9725 66.6414 30.9129 66.6414 30.8515 66.6414C29.9509 66.6412 29.0503 66.6417 28.1497 66.6425C27.1256 66.6434 26.1016 66.6435 25.0775 66.6424C24.5044 66.6418 23.9313 66.6419 23.3582 66.643C22.9753 66.6436 22.5925 66.6433 22.2096 66.6424C21.9915 66.6419 21.7734 66.6417 21.5553 66.6426C21.3201 66.6436 21.085 66.6427 20.8498 66.6417C20.7824 66.6423 20.715 66.6428 20.6455 66.6434C20.0027 66.6374 19.4702 66.4724 19.0019 66.0234C18.6589 65.6204 18.4983 65.156 18.5082 64.6283C18.5539 64.1446 18.744 63.7064 19.0657 63.3431C19.4127 63.0573 19.7716 62.8438 20.2295 62.8435Z" fill="#115056"/>
<path d="M20.216 53.9461C20.2568 53.9459 20.2975 53.9457 20.3395 53.9455C20.4756 53.9449 20.6117 53.9452 20.7478 53.9455C20.8466 53.9453 20.9453 53.945 21.0441 53.9446C21.3151 53.9439 21.5861 53.9439 21.8572 53.9441C22.1496 53.9441 22.442 53.9434 22.7345 53.9428C23.3073 53.9418 23.8801 53.9415 24.453 53.9414C24.9186 53.9414 25.3843 53.9411 25.8499 53.9408C27.1704 53.9397 28.4908 53.9391 29.8113 53.9392C29.8824 53.9392 29.9536 53.9392 30.027 53.9392C30.1338 53.9392 30.1338 53.9392 30.2429 53.9392C31.3978 53.9393 32.5527 53.9381 33.7076 53.9364C34.8936 53.9347 36.0796 53.9339 37.2656 53.934C37.9314 53.934 38.5972 53.9337 39.263 53.9324C39.8299 53.9313 40.3967 53.931 40.9636 53.9318C41.2527 53.9322 41.5419 53.9322 41.831 53.9312C42.0959 53.9302 42.3608 53.9304 42.6258 53.9315C42.7214 53.9316 42.817 53.9314 42.9125 53.9307C43.5807 53.9263 44.1801 53.9608 44.6935 54.4307C45.1418 54.9222 45.2406 55.4275 45.2283 56.0746C45.2056 56.5658 45.005 56.9499 44.6706 57.3052C44.2243 57.6862 43.7391 57.7822 43.1658 57.7825C43.1257 57.7826 43.0856 57.7827 43.0442 57.7828C42.91 57.7831 42.7757 57.783 42.6415 57.7828C42.5442 57.7829 42.4469 57.7831 42.3496 57.7832C42.0823 57.7836 41.8151 57.7836 41.5478 57.7835C41.2596 57.7835 40.9713 57.7838 40.683 57.7841C40.1183 57.7846 39.5535 57.7848 38.9888 57.7848C38.5298 57.7849 38.0707 57.785 37.6117 57.7852C36.3104 57.7857 35.0091 57.786 33.7078 57.7859C33.6376 57.7859 33.5674 57.7859 33.4952 57.7859C33.3898 57.7859 33.3898 57.7859 33.2823 57.7859C32.1438 57.7859 31.0052 57.7865 29.8667 57.7873C28.6978 57.7882 27.5288 57.7886 26.3599 57.7886C25.7036 57.7885 25.0473 57.7887 24.391 57.7894C23.8322 57.7899 23.2734 57.79 22.7147 57.7896C22.4296 57.7894 22.1445 57.7894 21.8595 57.79C21.5984 57.7904 21.3373 57.7903 21.0762 57.7898C20.9819 57.7897 20.8876 57.7898 20.7933 57.7902C20.055 57.7926 19.413 57.7755 18.8417 57.2584C18.4619 56.8548 18.3252 56.4167 18.3086 55.8682C18.3289 55.2178 18.5319 54.7707 19.0046 54.3248C19.3765 54.0305 19.7473 53.9466 20.216 53.9461Z" fill="#115056"/>
<path d="M20.326 45.0942C20.4109 45.0939 20.4959 45.0935 20.5808 45.093C20.8134 45.092 21.046 45.0925 21.2786 45.0933C21.5298 45.0938 21.781 45.093 22.0322 45.0923C22.5239 45.0912 23.0156 45.0915 23.5073 45.0922C23.907 45.0927 24.3067 45.0928 24.7064 45.0925C24.7633 45.0925 24.8202 45.0925 24.8788 45.0924C24.9944 45.0924 25.11 45.0923 25.2256 45.0922C26.3094 45.0915 27.3932 45.0923 28.477 45.0936C29.4067 45.0947 30.3364 45.0945 31.2662 45.0934C32.3461 45.0921 33.4261 45.0916 34.506 45.0923C34.6212 45.0924 34.7364 45.0925 34.8515 45.0925C34.9366 45.0926 34.9366 45.0926 35.0233 45.0927C35.4224 45.0929 35.8216 45.0925 36.2207 45.0919C36.7072 45.0913 37.1937 45.0914 37.6802 45.0927C37.9283 45.0934 38.1765 45.0936 38.4247 45.0928C38.652 45.0921 38.8792 45.0925 39.1065 45.0938C39.2274 45.0942 39.3484 45.0934 39.4693 45.0926C39.9648 45.0969 40.2903 45.1554 40.6838 45.4732C41.1444 46.0011 41.2723 46.5614 41.2408 47.2511C41.1875 47.8011 40.9956 48.173 40.6306 48.5824C40.2041 48.9311 39.7683 48.9034 39.2392 48.9009C39.1543 48.9012 39.0694 48.9015 38.9845 48.9019C38.7518 48.9028 38.519 48.9025 38.2863 48.9021C38.0351 48.9018 37.7839 48.9026 37.5326 48.9032C37.0407 48.9042 36.5488 48.9043 36.0568 48.9039C35.657 48.9037 35.2571 48.9038 34.8573 48.9041C34.8004 48.9042 34.7435 48.9042 34.6848 48.9043C34.5692 48.9043 34.4536 48.9044 34.3379 48.9045C33.2538 48.9054 32.1696 48.905 31.0854 48.9043C30.0936 48.9037 29.1018 48.9045 28.11 48.906C27.0914 48.9074 26.0729 48.908 25.0544 48.9076C24.4826 48.9074 23.9108 48.9075 23.339 48.9086C22.8523 48.9095 22.3656 48.9095 21.8789 48.9085C21.6306 48.908 21.3823 48.9078 21.1341 48.9088C20.9066 48.9096 20.6793 48.9093 20.4519 48.9081C20.3309 48.9078 20.2099 48.9087 20.0889 48.9096C19.5932 48.9055 19.2678 48.8471 18.8741 48.5292C18.4135 48.0013 18.2859 47.4412 18.3169 46.7515C18.367 46.2387 18.5368 45.8598 18.8741 45.4732C19.3377 45.0989 19.7489 45.0902 20.326 45.0942Z" fill="#115056"/>
<path d="M60.6738 25.5673C60.7779 25.5667 60.7779 25.5667 60.8841 25.5662C60.9607 25.5661 61.0373 25.5661 61.1162 25.566C61.1981 25.5657 61.28 25.5654 61.3619 25.5651C61.5874 25.5642 61.813 25.5638 62.0386 25.5634C62.2319 25.563 62.4253 25.5624 62.6187 25.5618C63.2558 25.5597 63.8929 25.5584 64.53 25.5573C64.6958 25.557 64.8617 25.5567 65.0276 25.5564C66.0576 25.5546 67.0876 25.553 68.1176 25.5519C68.3562 25.5517 68.5948 25.5515 68.8334 25.5512C68.8927 25.5511 68.952 25.5511 69.0131 25.551C69.9738 25.55 70.9344 25.5475 71.8951 25.5444C72.8812 25.5413 73.8674 25.5395 74.8536 25.5391C75.4074 25.5388 75.9611 25.5379 76.5148 25.5355C76.9865 25.5334 77.458 25.5326 77.9297 25.5333C78.1703 25.5337 78.4108 25.5334 78.6514 25.5316C78.8718 25.53 79.0922 25.53 79.3127 25.5313C79.4298 25.5316 79.5469 25.5301 79.664 25.5286C80.1374 25.5337 80.4447 25.6164 80.7993 25.9389C81.1501 26.3615 81.1805 26.7965 81.1783 27.3225C81.1785 27.3816 81.1787 27.4407 81.179 27.5016C81.1796 27.6991 81.1793 27.8965 81.1791 28.094C81.1794 28.2358 81.1797 28.3776 81.18 28.5194C81.1808 28.9041 81.1809 29.2889 81.1807 29.6737C81.1807 30.0356 81.181 30.3976 81.1814 30.7595C81.182 31.5201 81.1819 32.2807 81.1815 33.0413C81.1812 33.7366 81.1819 34.432 81.183 35.1273C81.1842 35.8419 81.1847 36.5565 81.1845 37.2711C81.1844 37.672 81.1845 38.0729 81.1854 38.4739C81.1861 38.8509 81.186 39.2279 81.1852 39.6049C81.1851 39.7432 81.1852 39.8815 81.1857 40.0198C81.1864 40.2087 81.1859 40.3976 81.1851 40.5865C81.1856 40.6411 81.186 40.6957 81.1865 40.7519C81.1823 41.2452 81.0511 41.6458 80.7388 42.0384C80.4418 42.2626 80.2318 42.3484 79.8631 42.3493C79.7938 42.3496 79.7246 42.3499 79.6533 42.3502C79.5769 42.3503 79.5005 42.3503 79.4218 42.3503C79.3401 42.3506 79.2585 42.3508 79.1768 42.3511C78.9518 42.3519 78.7268 42.3522 78.5018 42.3525C78.2593 42.3528 78.0168 42.3535 77.7743 42.3542C77.1885 42.3557 76.6027 42.3566 76.0168 42.3573C75.8514 42.3576 75.6859 42.3578 75.5205 42.3581C74.4934 42.3596 73.4662 42.3609 72.4391 42.3617C72.2012 42.3618 71.9632 42.362 71.7253 42.3622C71.6661 42.3623 71.607 42.3623 71.5461 42.3623C70.5879 42.3631 69.6297 42.3651 68.6716 42.3676C67.6881 42.3702 66.7046 42.3716 65.7211 42.372C65.1688 42.3722 64.6165 42.3729 64.0642 42.3749C63.5939 42.3766 63.1235 42.3772 62.6532 42.3766C62.4132 42.3762 62.1733 42.3764 61.9334 42.3779C61.7136 42.3793 61.4938 42.3792 61.274 42.3781C61.1571 42.3778 61.0402 42.3791 60.9233 42.3804C60.4325 42.3759 60.1201 42.2946 59.7662 41.9489C59.435 41.5787 59.4164 41.2502 59.418 40.7765C59.4177 40.7161 59.4174 40.6556 59.4171 40.5933C59.4164 40.3904 59.4165 40.1876 59.4166 39.9847C59.4162 39.8394 59.4158 39.694 59.4153 39.5487C59.4144 39.1947 59.414 38.8407 59.4139 38.4867C59.4139 38.1989 59.4136 37.9111 59.4132 37.6233C59.4122 36.807 59.4116 35.9906 59.4117 35.1743C59.4117 35.1303 59.4117 35.0863 59.4117 35.041C59.4117 34.9969 59.4117 34.9529 59.4117 34.9075C59.4118 34.1938 59.4106 33.48 59.4089 32.7663C59.4072 32.0331 59.4064 31.2999 59.4065 30.5667C59.4065 30.1552 59.4062 29.7437 59.4049 29.3322C59.4036 28.9452 59.4037 28.5582 59.4046 28.1711C59.4047 28.0291 59.4044 27.8871 59.4037 27.7451C59.4027 27.5511 59.4033 27.3572 59.4042 27.1633C59.4036 27.1072 59.403 27.0511 59.4023 26.9933C59.4069 26.5651 59.5117 26.2441 59.7994 25.9221C59.8399 25.8889 59.8804 25.8558 59.9221 25.8216C59.9628 25.7874 60.0034 25.7531 60.0453 25.7178C60.2515 25.5717 60.4289 25.568 60.6738 25.5673ZM60.5827 26.8404C60.5422 26.8978 60.5422 26.8978 60.5009 26.9564C60.473 26.9943 60.445 27.0321 60.4163 27.0711C60.2267 27.4256 60.2032 27.7674 60.2048 28.1607C60.2045 28.2123 60.2042 28.2638 60.204 28.317C60.2032 28.4891 60.2033 28.6612 60.2034 28.8332C60.203 28.957 60.2026 29.0807 60.2022 29.2044C60.2011 29.5399 60.2008 29.8754 60.2007 30.2109C60.2006 30.4207 60.2004 30.6304 60.2001 30.8402C60.1989 31.5724 60.1985 32.3046 60.1985 33.0368C60.1986 33.7186 60.1973 34.4005 60.1954 35.0824C60.1938 35.6683 60.1932 36.2543 60.1933 36.8403C60.1933 37.19 60.193 37.5398 60.1917 37.8895C60.1905 38.2185 60.1905 38.5475 60.1914 38.8765C60.1915 38.997 60.1912 39.1175 60.1905 39.238C60.1708 40.2183 60.1708 40.2183 60.6144 41.0662C60.9133 41.3128 61.0975 41.4405 61.4939 41.4413C61.5572 41.4415 61.6206 41.4418 61.6858 41.4421C61.7556 41.4421 61.8254 41.4421 61.8973 41.4421C61.9712 41.4423 62.0452 41.4425 62.1214 41.4427C62.3271 41.4433 62.5327 41.4436 62.7384 41.4437C62.9601 41.444 63.1818 41.4445 63.4035 41.4451C63.939 41.4463 64.4746 41.4469 65.0102 41.4474C65.2623 41.4477 65.5145 41.448 65.7667 41.4483C66.605 41.4494 67.4432 41.4502 68.2815 41.4507C68.499 41.4508 68.7166 41.4509 68.9341 41.451C68.9882 41.451 69.0423 41.4511 69.098 41.4511C69.974 41.4516 70.8499 41.4531 71.7259 41.4551C72.6251 41.4571 73.5244 41.4582 74.4236 41.4584C74.9286 41.4585 75.4335 41.4591 75.9384 41.4606C76.3684 41.4619 76.7984 41.4624 77.2285 41.4618C77.4478 41.4615 77.6672 41.4617 77.8865 41.4628C78.1245 41.4641 78.3624 41.4635 78.6004 41.4627C78.6695 41.4633 78.7386 41.464 78.8098 41.4647C79.2667 41.461 79.6101 41.4016 79.9534 41.0743C79.9804 41.0354 80.0074 40.9966 80.0352 40.9565C80.0631 40.918 80.0911 40.8794 80.1198 40.8397C80.3083 40.5024 80.3328 40.1956 80.3313 39.8193C80.3317 39.7412 80.3317 39.7412 80.3321 39.6616C80.3329 39.4877 80.3328 39.3137 80.3327 39.1398C80.3331 39.0149 80.3335 38.89 80.3339 38.7651C80.335 38.4261 80.3353 38.0871 80.3354 37.7481C80.3355 37.5361 80.3357 37.3242 80.336 37.1123C80.3372 36.3726 80.3377 35.633 80.3376 34.8933C80.3375 34.2044 80.3388 33.5155 80.3407 32.8266C80.3423 32.2347 80.3429 31.6428 80.3428 31.0509C80.3428 30.6976 80.3431 30.3443 80.3444 29.991C80.3456 29.6586 80.3456 29.3261 80.3447 28.9937C80.3446 28.8719 80.3449 28.7502 80.3456 28.6284C80.3817 27.6747 80.3817 27.6747 79.9653 26.852C79.6981 26.6055 79.463 26.4686 79.0943 26.468C79.0307 26.4676 78.967 26.4672 78.9015 26.4668C78.8316 26.467 78.7618 26.4672 78.6898 26.4674C78.5784 26.467 78.5784 26.467 78.4648 26.4666C78.2585 26.4659 78.0523 26.4658 77.8461 26.466C77.6237 26.466 77.4013 26.4653 77.1789 26.4648C76.7431 26.4638 76.3074 26.4634 75.8716 26.4634C75.5174 26.4633 75.1632 26.4631 74.8089 26.4627C73.8047 26.4616 72.8004 26.4611 71.7962 26.4611C71.742 26.4611 71.6879 26.4612 71.6321 26.4612C71.5779 26.4612 71.5236 26.4612 71.4678 26.4612C70.5893 26.4612 69.7108 26.4601 68.8322 26.4584C67.9303 26.4566 67.0283 26.4558 66.1263 26.4559C65.6199 26.4559 65.1135 26.4556 64.607 26.4543C64.1758 26.4532 63.7446 26.4529 63.3133 26.4537C63.0934 26.4541 62.8734 26.4542 62.6534 26.4531C62.4148 26.452 62.1762 26.4527 61.9376 26.4537C61.8683 26.453 61.799 26.4524 61.7276 26.4518C61.2698 26.4557 60.9291 26.5161 60.5827 26.8404Z" fill="#115056"/>
<path d="M30.2378 19.3777C30.383 19.4021 30.383 19.4021 30.5041 19.5232C30.5075 19.6988 30.5075 19.6988 30.4899 19.9228C30.4852 19.9834 30.4852 19.9834 30.4803 20.0451C30.4416 20.5061 30.3755 20.9631 30.3074 21.4205C30.294 21.5119 30.2807 21.6034 30.2674 21.6949C30.2327 21.9327 30.1976 22.1704 30.1624 22.4081C30.1266 22.6504 30.0912 22.8928 30.0558 23.1351C30.004 23.4891 29.9521 23.8431 29.8998 24.197C29.8841 24.303 29.8841 24.303 29.8682 24.4111C29.8482 24.5423 29.827 24.6733 29.8047 24.8041C29.7779 24.9695 29.7697 25.1245 29.7702 25.2919C29.7701 25.3441 29.7699 25.3963 29.7698 25.4501C29.7639 25.575 29.7639 25.575 29.8383 25.6361C29.9936 25.6424 30.1472 25.6448 30.3025 25.6447C30.3511 25.6449 30.3997 25.6451 30.4498 25.6454C30.5558 25.6458 30.6617 25.6461 30.7677 25.6463C30.9353 25.6468 31.1029 25.6477 31.2705 25.6488C31.7472 25.652 32.2239 25.6549 32.7006 25.6559C32.9919 25.6565 33.2831 25.6582 33.5744 25.6608C33.6855 25.6615 33.7966 25.6618 33.9078 25.6617C34.0633 25.6616 34.2187 25.6629 34.3742 25.6646C34.4432 25.664 34.4432 25.664 34.5136 25.6634C34.7247 25.6671 34.8417 25.6816 35.0131 25.8094C35.1039 25.9388 35.1039 25.9388 35.1087 26.1031C35.0205 26.3718 34.8813 26.5854 34.7257 26.8202C34.6588 26.9235 34.592 27.0269 34.5252 27.1303C34.4906 27.1835 34.4561 27.2368 34.4204 27.2916C34.2565 27.5459 34.0976 27.8033 33.9389 28.0609C33.9066 28.1131 33.8743 28.1653 33.8411 28.219C33.6594 28.5131 33.4782 28.8076 33.2972 29.1021C32.8661 29.8036 32.4331 30.5038 31.996 31.2016C31.6337 31.7804 31.276 32.3622 30.9185 32.944C30.7067 33.2888 30.494 33.6331 30.2809 33.9772C30.2492 34.0283 30.2175 34.0795 30.1849 34.1322C30.0564 34.3395 29.9279 34.5469 29.7993 34.7542C29.3915 35.412 28.985 36.0704 28.582 36.731C28.5583 36.7695 28.5346 36.808 28.5102 36.8477C28.4538 36.9417 28.4011 37.038 28.3491 37.1346C28.3212 37.175 28.2934 37.2153 28.2647 37.2569C28.0718 37.2758 28.0718 37.2758 27.9015 37.2569C27.7472 36.9976 27.7924 36.8174 27.862 36.5407C27.8769 36.4854 27.8918 36.4301 27.9072 36.3731C27.9226 36.3132 27.938 36.2534 27.9538 36.1917C28.0061 35.9892 28.0597 35.787 28.1134 35.5849C28.1507 35.4411 28.188 35.2973 28.2252 35.1535C28.4576 34.2591 28.6967 33.3665 28.9351 32.4738C28.9809 32.3022 29.0267 32.1307 29.0724 31.9591C29.1029 31.8447 29.1334 31.7303 29.1639 31.6159C29.179 31.5594 29.1941 31.5028 29.2096 31.4445C29.3005 31.1038 29.392 30.7633 29.4839 30.4229C29.5419 30.208 29.5995 29.993 29.6569 29.7779C29.6839 29.6771 29.7112 29.5763 29.7386 29.4756C29.7764 29.3366 29.8136 29.1975 29.8506 29.0583C29.8617 29.018 29.8728 28.9778 29.8843 28.9364C29.9519 28.6786 29.9744 28.4442 29.9594 28.1782C29.8364 28.0552 29.5804 28.1083 29.4115 28.1081C29.3604 28.1078 29.3093 28.1075 29.2567 28.1072C29.1454 28.1065 29.0341 28.106 28.9228 28.1056C28.7468 28.1049 28.5708 28.1037 28.3948 28.1024C27.8943 28.0986 27.3938 28.0954 26.8933 28.0934C26.5875 28.0921 26.2817 28.09 25.976 28.0873C25.8592 28.0864 25.7425 28.0859 25.6257 28.0857C25.4625 28.0854 25.2994 28.084 25.1362 28.0823C25.0635 28.0826 25.0635 28.0826 24.9893 28.0829C24.6637 28.078 24.6637 28.078 24.5108 27.9734C24.4516 27.8755 24.4516 27.8755 24.4537 27.737C24.5287 27.5263 24.6474 27.3631 24.781 27.1866C24.8367 27.1109 24.8922 27.035 24.9477 26.9591C24.9761 26.9204 25.0044 26.8816 25.0337 26.8417C25.1638 26.6612 25.2874 26.4765 25.4103 26.291C25.4349 26.254 25.4595 26.217 25.4848 26.1789C25.5361 26.1015 25.5873 26.0241 25.6385 25.9467C25.7824 25.7293 25.9268 25.5123 26.0711 25.2952C26.1016 25.2494 26.1321 25.2036 26.1635 25.1563C26.695 24.3578 27.2336 23.5639 27.7709 22.7692C27.9813 22.4581 28.1914 22.1467 28.4012 21.8352C28.5385 21.6313 28.6759 21.4275 28.8133 21.2237C28.8777 21.128 28.9422 21.0324 29.0065 20.9366C29.1769 20.6833 29.3481 20.4306 29.5208 20.1787C29.5933 20.0722 29.6645 19.9649 29.7356 19.8574C29.7774 19.7962 29.8192 19.7349 29.8622 19.6719C29.9151 19.5929 29.9151 19.5929 29.969 19.5122C30.0804 19.4021 30.0804 19.4021 30.2378 19.3777Z" fill="#115056"/>
<path d="M70.5116 28.5413C70.6683 28.6199 70.7926 28.7248 70.9239 28.8401C70.9598 28.87 70.9957 28.8998 71.0327 28.9306C71.1062 28.9919 71.1793 29.0537 71.252 29.1159C71.4139 29.2539 71.5795 29.3871 71.7448 29.521C71.8381 29.5978 71.9315 29.6747 72.0247 29.7518C72.0297 29.6856 72.0347 29.6194 72.0398 29.5513C72.0852 29.3281 72.0852 29.3281 72.1818 29.2249C72.3817 29.1172 72.5375 29.123 72.764 29.1224C72.8269 29.1221 72.8269 29.1221 72.891 29.1219C72.9795 29.1218 73.068 29.1221 73.1564 29.1228C73.2913 29.1238 73.426 29.1229 73.5608 29.1217C73.647 29.1218 73.7332 29.122 73.8194 29.1224C73.8974 29.1226 73.9754 29.1228 74.0558 29.123C74.2765 29.1479 74.3913 29.1947 74.5667 29.3281C74.6372 29.4691 74.6346 29.5504 74.6341 29.7073C74.6341 29.7607 74.6341 29.814 74.6341 29.8689C74.6338 29.9265 74.6335 29.9841 74.6331 30.0435C74.633 30.1319 74.633 30.1319 74.6329 30.2221C74.6325 30.4108 74.6318 30.5995 74.631 30.7882C74.6307 30.916 74.6304 31.0437 74.6302 31.1715C74.6295 31.4851 74.6285 31.7986 74.6272 32.1122C74.6635 32.1292 74.6997 32.1461 74.737 32.1636C74.9302 32.2654 75.0833 32.409 75.2438 32.5548C75.2769 32.5835 75.3099 32.6122 75.344 32.6417C75.4894 32.7734 75.5872 32.875 75.6528 33.0617C75.6574 33.255 75.5869 33.3504 75.4746 33.5043C75.3535 33.6253 75.3535 33.6253 75.184 33.6476C74.9442 33.62 74.857 33.5487 74.6764 33.3908C74.6256 33.3473 74.5748 33.3037 74.5225 33.2589C74.4939 33.2318 74.4654 33.2047 74.436 33.1768C74.3197 33.0721 74.3197 33.0721 74.1557 32.9701C73.7026 32.6404 73.7026 32.6404 73.6241 32.3444C73.5757 31.9725 73.5981 31.6005 73.6172 31.2271C73.6206 31.1132 73.6236 30.9993 73.6263 30.8854C73.6336 30.6082 73.6451 30.3314 73.6588 30.0544C73.4391 30.0544 73.2194 30.0544 72.9931 30.0544C72.9959 30.1171 72.9987 30.1798 73.0016 30.2445C73.0039 30.3274 73.0061 30.4103 73.0082 30.4932C73.0102 30.5345 73.0123 30.5757 73.0144 30.6183C73.0184 30.8278 73.0101 30.9398 72.882 31.1091C72.7104 31.2339 72.6 31.2606 72.3878 31.2649C72.0695 31.1358 71.8414 30.939 71.5897 30.7126C71.5096 30.6421 71.4296 30.5716 71.3495 30.5012C71.3102 30.4666 71.271 30.432 71.2305 30.3963C71.0695 30.255 70.9067 30.1162 70.7423 29.9787C70.6915 29.936 70.6407 29.8932 70.5884 29.8492C70.4509 29.7517 70.3743 29.7115 70.2089 29.6912C70.0576 29.8023 69.9259 29.9123 69.7891 30.0393C69.7073 30.1127 69.6255 30.186 69.5436 30.2594C69.5028 30.2964 69.4619 30.3334 69.4198 30.3715C69.251 30.523 69.0778 30.6691 68.9039 30.8147C68.6653 31.0156 68.4279 31.2177 68.1915 31.4211C67.7016 31.8429 67.2037 32.2535 66.6985 32.6569C66.7576 32.6977 66.8167 32.7384 66.8775 32.7804C67.0384 32.9155 67.0593 32.9485 67.1053 33.166C67.1045 33.2449 67.1037 33.3238 67.1029 33.4051C67.1029 33.4495 67.103 33.4939 67.103 33.5397C67.1028 33.6828 67.1 33.8258 67.0971 33.9689C67.0966 34.0575 67.0962 34.1461 67.096 34.2347C67.0941 34.5625 67.0891 34.8902 67.0844 35.2179C67.0769 35.9507 67.0694 36.6834 67.0617 37.4384C69.2387 37.4384 71.4158 37.4384 73.6588 37.4384C73.6588 36.7393 73.6588 36.0403 73.6588 35.32C73.9009 35.0779 73.9009 35.0779 74.0241 35.0479C74.3549 35.0575 74.3549 35.0575 74.5024 35.1574C74.6146 35.3356 74.6351 35.4907 74.637 35.6958C74.6376 35.7469 74.6382 35.798 74.6388 35.8507C74.6391 35.9332 74.6391 35.9332 74.6395 36.0175C74.6399 36.0743 74.6402 36.1311 74.6406 36.1896C74.6411 36.3097 74.6415 36.4299 74.6418 36.5501C74.6424 36.7337 74.6442 36.9172 74.6461 37.1008C74.6465 37.2176 74.6469 37.3344 74.6471 37.4512C74.6478 37.5059 74.6486 37.5607 74.6494 37.6172C74.6482 37.9391 74.6245 38.1674 74.3851 38.4068C74.2806 38.413 74.1759 38.415 74.0712 38.4153C74.0031 38.4156 73.9351 38.416 73.8649 38.4163C73.7519 38.4164 73.7519 38.4164 73.6366 38.4165C73.5578 38.4168 73.479 38.4171 73.3978 38.4174C73.181 38.4182 72.9641 38.4186 72.7473 38.4189C72.6119 38.4191 72.4766 38.4193 72.3412 38.4196C71.918 38.4204 71.4948 38.421 71.0717 38.4212C70.5825 38.4215 70.0934 38.4226 69.6043 38.4243C69.2267 38.4256 68.849 38.4262 68.4714 38.4263C68.2457 38.4264 68.0199 38.4267 67.7942 38.4278C67.5425 38.429 67.2907 38.4287 67.039 38.4284C66.9639 38.4289 66.8888 38.4295 66.8115 38.43C66.7431 38.4297 66.6746 38.4294 66.6042 38.429C66.5446 38.4291 66.485 38.4292 66.4237 38.4293C66.2748 38.4068 66.2748 38.4068 66.1648 38.3269C66.0478 38.1606 66.0696 37.9781 66.0727 37.7823C66.0726 37.715 66.0726 37.715 66.0726 37.6463C66.0727 37.4979 66.0741 37.3496 66.0755 37.2013C66.0759 37.0984 66.0761 36.9955 66.0763 36.8926C66.077 36.6219 66.0788 36.3512 66.0808 36.0804C66.0827 35.8041 66.0835 35.5279 66.0844 35.2516C66.0864 34.7095 66.0895 34.1674 66.0933 33.6253C66.0345 33.6268 65.9757 33.6282 65.9151 33.6297C65.7999 33.6314 65.7999 33.6314 65.6824 33.6331C65.568 33.6353 65.568 33.6353 65.4512 33.6375C65.2459 33.6253 65.2459 33.6253 65.0417 33.5005C64.9175 33.276 64.9131 33.1532 64.9433 32.899C65.0496 32.7673 65.1364 32.6783 65.2648 32.5737C65.2977 32.5453 65.3306 32.5169 65.3645 32.4877C65.4651 32.4014 65.567 32.3171 65.6696 32.2333C65.7553 32.1627 65.7553 32.1627 65.8427 32.0907C65.9518 32.0016 66.0613 31.9129 66.1711 31.8245C66.3418 31.6832 66.5052 31.536 66.6683 31.3859C66.9388 31.1369 67.2185 30.9035 67.5045 30.6726C67.6637 30.5412 67.817 30.4053 67.9695 30.2662C68.1751 30.0789 68.3848 29.9 68.6013 29.7253C68.8372 29.5347 69.0631 29.3371 69.2859 29.1314C70.028 28.4556 70.028 28.4556 70.5116 28.5413Z" fill="#115056"/>
</svg>
