<svg width="90" height="90" viewBox="0 0 90 90" fill="none" xmlns="http://www.w3.org/2000/svg">
<path d="M33.7151 89.7056C23.1689 89.7056 12.6199 89.7056 2.07368 89.7056C0.360615 89.7056 -0.0188262 89.3402 0.000703866 87.6271C0.0927741 79.723 0.366195 71.8357 2.03462 64.0627C3.60539 56.7445 7.5114 51.2482 14.5422 48.3466C16.4031 47.5794 18.4984 47.3478 20.5072 46.9767C21.1238 46.8623 21.5033 46.7451 21.7042 46.1034C22.039 45.0432 22.8425 43.9747 22.742 42.9814C22.6472 42.0691 21.6065 41.2628 21.0039 40.3923C18.889 37.3317 17.6754 33.9279 17.7144 30.2227C17.7591 26.1075 17.4633 22.0452 16.8077 17.9914C15.9177 12.495 18.1887 8.2905 22.5272 5.20755C28.336 1.0895 34.8172 -0.528705 41.9177 0.690527C44.5738 1.14809 46.3985 2.49566 47.3722 5.10153C47.7098 6.00828 48.5301 6.81459 49.3029 7.46187C50.8625 8.77317 52.0287 10.3272 52.8211 12.1826C53.7027 14.236 53.7362 16.3034 52.8657 18.368C52.6369 18.9121 52.4389 19.4896 52.1041 19.9667C50.6756 22.0006 50.4077 24.2465 50.458 26.6794C50.5054 29.0984 50.3352 31.5536 49.9362 33.939C49.4089 37.0889 47.8632 39.8287 45.7094 42.1919C45.2964 42.6438 45.2853 43.0093 45.4248 43.5813C45.9465 45.7073 46.6608 47.5459 49.3978 47.2334C57.6143 49.2004 62.734 54.3702 64.9604 62.4333C66.5898 68.3426 66.9776 74.4276 67.251 80.5154C67.3598 82.9148 67.3821 85.317 67.4156 87.7164C67.4379 89.3011 67.0222 89.7029 65.4626 89.7029C54.8801 89.7029 44.2976 89.7029 33.7151 89.7029V89.7056ZM28.7629 61.8921C28.601 61.9981 28.4309 62.1041 28.2662 62.2157C26.5811 63.3513 26.3579 63.3317 24.9489 61.8056C21.905 58.5078 18.8584 55.2128 15.8451 51.8871C15.3457 51.3347 14.983 51.2008 14.2772 51.5774C9.21609 54.281 6.28101 58.5357 4.9976 64.046C3.58586 70.1087 3.23432 76.2885 2.96369 82.4767C2.90231 83.8913 2.95532 85.3114 2.95532 86.7706H12.5753C12.5753 86.2656 12.5753 85.8499 12.5753 85.4342C12.5753 81.0148 12.5753 76.5982 12.578 72.1788C12.578 71.7994 12.5669 71.4032 12.6562 71.0405C12.8375 70.3067 13.3592 69.905 14.1042 69.9496C14.838 69.9915 15.3346 70.4156 15.4378 71.18C15.4852 71.5232 15.4713 71.8747 15.4713 72.2207C15.4713 76.7433 15.4964 81.2659 15.4518 85.7885C15.4434 86.6785 15.7252 86.8905 16.5733 86.8794C19.8432 86.8347 23.1131 86.8626 26.3858 86.8598C26.6899 86.8598 26.994 86.8236 27.3121 86.804C27.3874 86.3911 27.4655 86.0535 27.5129 85.7132C28.3639 79.4775 29.1256 73.2279 30.1132 67.0145C30.4313 65.0141 30.0295 63.435 28.7601 61.8977L28.7629 61.8921ZM64.2908 86.8152C64.2908 84.0838 64.3968 81.4779 64.2685 78.8804C64.0062 73.6296 63.5431 68.3956 62.2178 63.2815C60.8619 58.053 57.8849 54.0968 53.0778 51.5495C52.4695 51.2287 52.132 51.3068 51.6772 51.809C48.7058 55.0817 45.7066 58.3293 42.7045 61.574C40.9664 63.4517 40.958 63.4433 38.8292 62.0539C38.7818 62.0232 38.7037 62.0427 38.5697 62.0344C38.3075 62.4808 38.0815 63.0025 37.7355 63.4238C37.0492 64.2608 37.0771 65.1871 37.2222 66.1664C37.5458 68.3649 37.8527 70.569 38.1568 72.7703C38.7957 77.4129 39.4319 82.0582 40.0763 86.7734H51.945V85.5569C51.945 81.1013 51.945 76.6456 51.945 72.19C51.945 71.8412 51.9283 71.4897 51.9813 71.1493C52.0985 70.3877 52.6314 69.8687 53.3317 69.9803C53.845 70.0612 54.3556 70.5551 54.7211 70.9903C54.922 71.2274 54.8383 71.7241 54.8383 72.1035C54.8438 76.5926 54.841 81.0845 54.841 85.5737C54.841 85.9754 54.841 86.3772 54.841 86.8124H64.2936L64.2908 86.8152ZM20.5435 27.4774C20.5658 27.4774 20.5882 27.4774 20.6133 27.4774C20.6133 28.5906 20.5575 29.7038 20.6244 30.8142C20.8002 33.6879 21.6763 36.3524 23.3558 38.6904C26.4332 42.9731 30.5373 45.2413 35.9053 44.4573C41.4072 43.651 45.9437 39.2038 47.1099 33.3503C47.5842 30.9593 47.3694 28.4371 47.6345 25.9931C47.8409 24.0791 47.322 22.6758 45.6591 21.6351C45.1374 21.3087 44.797 21.1468 44.186 21.3868C37.37 24.0568 30.5736 24.1489 23.8022 21.1831C23.5344 21.0659 23.0406 21.1134 22.8202 21.2919C20.5351 23.1557 20.5435 23.1668 20.5435 26.1214V27.4774ZM48.6054 20.4382C48.9848 19.7239 49.2722 19.1325 49.6014 18.5661C51.1806 15.857 51.0494 13.3739 48.1116 10.2909C47.8019 9.96451 47.4364 9.68829 47.0737 9.41766C45.9047 8.53323 45.0035 7.44234 44.571 6.0306C44.133 4.59653 43.1649 3.88229 41.7392 3.60887C34.8758 2.29199 28.7545 4.01621 23.3279 8.24865C19.4861 11.2451 18.9476 15.3297 20.0581 20.1731C20.6049 19.5286 21.0011 19.0125 21.4503 18.5466C22.53 17.4222 22.8062 17.3943 24.1594 18.1085C26.5588 19.378 29.1256 20.0866 31.8151 20.3796C36.1871 20.8567 40.3358 20.0141 44.3032 18.2034C45.2323 17.7793 45.9409 17.8742 46.6412 18.6163C47.2104 19.2217 47.8577 19.7518 48.6054 20.441V20.4382ZM33.7123 54.8585C37.1273 52.4926 40.4893 50.1629 43.8791 47.8137C43.4997 46.7675 43.1537 45.8049 42.7994 44.8256C36.8957 48.4526 31.1037 48.4052 25.2754 44.7782C24.935 45.6794 24.5862 46.5108 24.3212 47.3673C24.2514 47.5877 24.3575 48.009 24.5304 48.1374C27.5687 50.3889 30.6322 52.6097 33.7123 54.8557V54.8585ZM33.132 65.9571C32.1834 72.8791 31.2376 79.79 30.2862 86.7454H36.985C36.985 86.4637 37.0045 86.2879 36.9822 86.1177C36.1034 79.6114 35.2134 73.1079 34.3429 66.6016C34.2508 65.9069 33.9049 65.7283 33.132 65.9571ZM31.2013 56.605C28.4504 54.599 25.7552 52.7995 23.2582 50.7544C21.6344 49.4236 20.0664 49.9118 18.1804 50.1713C21.1852 53.4356 24.0394 56.5409 26.8936 59.6433C28.3751 58.5999 29.7338 57.6401 31.1985 56.605H31.2013ZM49.1243 50.2271C47.3527 49.7193 45.8461 49.6049 44.5041 50.8771C43.9544 51.3961 43.2597 51.7616 42.632 52.1968C40.5311 53.6532 38.4274 55.1096 36.2066 56.6497C37.7104 57.6736 39.0971 58.6194 40.5144 59.5848C43.3964 56.4516 46.2144 53.3909 49.1243 50.2299V50.2271ZM36.1648 60.1707C35.4505 59.6545 34.8004 59.1439 34.1029 58.7115C33.9021 58.5887 33.5003 58.5831 33.2994 58.7059C32.5963 59.13 31.9435 59.6322 31.232 60.1316C31.6756 60.9435 32.0579 61.6773 32.4764 62.3915C32.8781 63.0751 34.4322 63.1476 34.8562 62.4864C35.3194 61.7637 35.7072 60.9937 36.1648 60.1734V60.1707Z" fill="#115056"/>
<path d="M75.2329 36.0733C75.4058 36.7875 75.4923 37.4097 75.7211 37.9733C75.8132 38.1965 76.2149 38.4002 76.4912 38.4225C79.1556 38.6317 80.7515 39.9709 81.4016 42.5991C81.6136 43.4529 81.1449 44.0583 80.1572 44.0946C78.977 44.1364 77.7913 44.1057 76.6083 44.1057C72.3982 44.1057 68.1881 44.1085 63.978 44.1057C62.2956 44.1057 61.9357 43.5087 62.5049 41.9686C63.3446 39.7003 64.8206 38.3946 67.3316 38.4169C67.5492 38.4169 67.8896 38.1518 67.9705 37.9314C68.1741 37.3874 68.2606 36.8015 68.4336 36.0733C67.9733 36.0733 67.6078 36.0733 67.2423 36.0733C63.2414 36.0733 59.2405 36.0733 55.2369 36.0733C53.8614 36.0733 53.4903 35.6436 53.7191 34.2793C54.81 27.7312 55.9093 21.1858 56.9946 14.6349C57.1453 13.7309 57.6 13.3013 58.5347 13.3013C67.4069 13.3124 76.2819 13.3096 85.1541 13.3013C86.0888 13.3013 86.5156 13.7505 86.6663 14.66C87.7433 21.2109 88.8481 27.7563 89.939 34.3044C90.1622 35.6436 89.7967 36.0677 88.3822 36.0677C84.4148 36.0733 80.4474 36.0677 76.4828 36.0677C76.1061 36.0677 75.7295 36.0677 75.2329 36.0677V36.0733ZM80.8687 33.8608C80.6762 31.9413 80.4948 30.125 80.3107 28.2892H76.3098V33.8608H80.8659H80.8687ZM67.3929 28.2641H63.3558C63.1745 30.1473 62.9959 31.9776 62.8201 33.819H67.3929V28.2641ZM69.7087 28.239V33.8162H73.9355V28.239H69.7087ZM82.5259 28.2138C82.724 30.178 82.9082 31.9915 83.0979 33.8497H87.6177C87.3303 32.0975 87.0625 30.3956 86.75 28.7021C86.7137 28.5124 86.4068 28.2417 86.2171 28.2334C85.0174 28.1915 83.8149 28.2111 82.5287 28.2111L82.5259 28.2138ZM61.1433 28.2138C59.8432 28.2138 58.6379 28.1971 57.4326 28.2334C57.2624 28.239 56.9834 28.4733 56.9555 28.6379C56.6375 30.3594 56.3613 32.0892 56.0655 33.8524H60.5714C60.7583 31.9943 60.9425 30.178 61.1433 28.2138ZM81.848 21.4927C82.007 23.0244 82.1605 24.4864 82.3083 25.9149H86.3036C86.0413 24.3748 85.793 22.924 85.5503 21.4927H81.848ZM73.7151 25.9567V21.5123H69.9207V25.9567H73.7151ZM61.8213 21.4927H58.119C57.8707 22.9965 57.6335 24.4418 57.388 25.9316H61.3637C61.5172 24.439 61.6651 23.0021 61.8185 21.4927H61.8213ZM79.6355 21.5123H76.0587V25.926H80.0652C79.9173 24.4167 79.7778 22.977 79.6355 21.5123ZM64.0338 21.4844C63.8943 22.977 63.7548 24.4362 63.6153 25.9205H67.6385V21.4844H64.0338ZM65.0382 41.7789H78.5334C78.5725 41.6561 78.6144 41.5333 78.6534 41.4134C77.995 41.1567 77.3421 40.6935 76.6781 40.6768C73.45 40.5987 70.2192 40.6377 66.9884 40.6461C66.1821 40.6461 65.5236 40.9474 65.0382 41.7816V41.7789ZM81.6359 19.1631H85.182C84.9644 17.9243 84.7663 16.7776 84.5654 15.6365H81.2649C81.3932 16.8529 81.5132 18.008 81.6359 19.1631ZM79.3983 19.1854C79.2728 17.9578 79.1556 16.7999 79.0384 15.6505H75.869V19.1854H79.3956H79.3983ZM64.6225 15.6505C64.5081 16.8557 64.3993 17.9857 64.2849 19.177H67.8449V15.6505H64.6225ZM58.5096 19.1993H62.0361C62.1617 18.008 62.2817 16.8502 62.4072 15.6505H59.1038C58.9057 16.825 58.7188 17.9466 58.5096 19.1993ZM70.169 19.1742H73.4724V15.6505H70.169V19.1742ZM73.4501 38.3444C73.1292 36.0538 73.0706 35.9533 71.3994 36.0928C69.9012 36.2156 70.7242 37.5994 70.0351 38.3444H73.4501Z" fill="#115056"/>
</svg>
