<svg preserveAspectRatio="none" width="100%" height="100%" overflow="visible" style="display: block;" viewBox="0 0 20 19" fill="none" xmlns="http://www.w3.org/2000/svg">
<g id="Icon">
<path d="M10.9466 6.20562C10.9466 6.7579 10.4989 7.20562 9.94659 7.20562C9.39431 7.20562 8.94659 6.7579 8.94659 6.20562C8.94659 5.65333 9.39431 5.20562 9.94659 5.20562C10.4989 5.20562 10.9466 5.65333 10.9466 6.20562Z" fill="var(--fill-0, #E02A24)"/>
<path d="M9.94659 8.95562C10.3608 8.95562 10.6966 9.2914 10.6966 9.70562V14.7056C10.6966 15.1198 10.3608 15.4556 9.94659 15.4556C9.53238 15.4556 9.19659 15.1198 9.19659 14.7056V9.70562C9.19659 9.2914 9.53238 8.95562 9.94659 8.95562Z" fill="var(--fill-0, #E02A24)"/>
<path fill-rule="evenodd" clip-rule="evenodd" d="M12.2169 1.19825C11.125 -0.399413 8.76818 -0.39942 7.67621 1.19825L7.24429 1.83019C4.53824 5.78941 2.21328 9.99603 0.300551 14.3937L0.210337 14.6011C-0.463719 16.1509 0.554646 17.9106 2.23419 18.0983C7.35982 18.6712 12.5333 18.6712 17.659 18.0983C19.3385 17.9106 20.3569 16.1509 19.6828 14.6011L19.5926 14.3937C17.6799 9.99603 15.3549 5.78941 12.6489 1.8302L12.2169 1.19825ZM8.91459 2.04466C9.41094 1.31845 10.4822 1.31845 10.9786 2.04466L11.4105 2.67661C14.0631 6.55763 16.3421 10.6812 18.2171 14.992L18.3073 15.1994C18.5787 15.8234 18.1686 16.532 17.4923 16.6076C12.4774 17.1681 7.4157 17.1681 2.4008 16.6076C1.7245 16.532 1.31444 15.8234 1.58586 15.1994L1.67608 14.992C3.55103 10.6812 5.83007 6.55762 8.48267 2.6766L8.91459 2.04466Z" fill="var(--fill-0, #E02A24)"/>
</g>
</svg>
