<svg width="24" height="24" viewBox="0 0 24 24" fill="none" xmlns="http://www.w3.org/2000/svg">
<path d="M7.4831 5.25929C6.33867 5.3872 5.42262 6.29045 5.29021 7.42255C4.93451 10.4637 4.93451 13.5359 5.29021 16.5771C5.42262 17.7092 6.33867 18.6124 7.4831 18.7404C10.4599 19.0731 13.5396 19.0731 16.5164 18.7404C17.6608 18.6124 18.5769 17.7092 18.7093 16.5771C18.9648 14.3919 19.0368 12.1907 18.9251 9.99656C18.9222 9.93989 18.9434 9.88462 18.9835 9.84451L20.0223 8.80573C20.1425 8.68549 20.3479 8.76068 20.3607 8.93024C20.5567 11.5352 20.5029 14.1542 20.1991 16.7513C19.9843 18.5883 18.5094 20.0269 16.683 20.2311C13.5954 20.5761 10.404 20.5761 7.31649 20.2311C5.49011 20.0269 4.01521 18.5883 3.80036 16.7513C3.43113 13.5944 3.43113 10.4052 3.80036 7.2483C4.01521 5.41134 5.49011 3.9727 7.31649 3.76858C10.404 3.4235 13.5954 3.4235 16.683 3.76858C17.3262 3.84047 17.9259 4.0655 18.4423 4.40713C18.5439 4.47436 18.5539 4.6172 18.4678 4.70334L17.6649 5.50623C17.5992 5.5719 17.4974 5.58295 17.4155 5.53908C17.1421 5.39259 16.8383 5.29527 16.5164 5.25929C13.5396 4.92659 10.4599 4.92659 7.4831 5.25929Z" fill="#115056"/>
<path d="M21.0301 6.03015C21.3229 5.73726 21.3229 5.26239 21.0301 4.96949C20.7372 4.6766 20.2623 4.6766 19.9694 4.96949L11.4997 13.4392L9.03006 10.9695C8.73716 10.6766 8.26229 10.6766 7.9694 10.9695C7.6765 11.2624 7.6765 11.7373 7.9694 12.0302L10.9694 15.0302C11.2623 15.323 11.7372 15.323 12.0301 15.0302L21.0301 6.03015Z" fill="#115056"/>
</svg>
