<svg width="101" height="97" viewBox="0 0 101 97" fill="none" xmlns="http://www.w3.org/2000/svg">
<g clip-path="url(#clip0_174_2486)">
<path d="M98.1767 41.628L90.7144 34.9807V10.5619C90.7144 7.28149 86.4631 6.72977 86.4631 6.72977H71.2586C67.6308 6.72977 67.1007 10.7181 67.1007 10.7181V13.7094C67.1007 13.7094 57.2377 5.27069 53.5166 2.07667C53.0878 1.631 52.5729 1.27638 52.0031 1.03413C51.4332 0.791872 50.8201 0.666992 50.2006 0.666992C49.5811 0.666992 48.968 0.791872 48.3981 1.03413C47.8283 1.27638 47.3134 1.631 46.8846 2.07667C31.64 15.6393 16.401 29.2098 1.16756 42.7879C1.00424 42.9596 0.864125 43.1518 0.750769 43.3596C0.481742 43.9488 0.34896 44.5907 0.362234 45.2378C0.375508 45.885 0.534498 46.521 0.827458 47.0987C1.12159 47.6888 1.53266 48.2133 2.03583 48.6406C2.539 49.0679 3.12383 49.3891 3.755 49.5848C4.09454 49.6754 4.44388 49.7245 4.79532 49.731H11.3873L11.424 93.7692C11.6307 96.3484 14.5782 96.5711 14.5782 96.5711H85.3695C85.7513 96.6358 86.1413 96.6358 86.5232 96.5711C87.6065 96.5835 88.6506 96.1671 89.4264 95.4131C90.2021 94.6592 90.6461 93.6293 90.6611 92.5495V68.2869C90.6611 67.193 90.2251 66.1439 89.4491 65.3703C88.6731 64.5968 87.6206 64.1622 86.5232 64.1622C85.4257 64.1622 84.3732 64.5968 83.5972 65.3703C82.8212 66.1439 82.3853 67.193 82.3853 68.2869V87.3579H19.8198C19.8198 87.3579 19.9699 48.9765 19.8198 45.3471C19.6698 41.7177 15.0951 41.4053 15.0951 41.4053L50.3857 10.3027L67.8409 25.4119C68.4207 25.9383 69.1297 26.3026 69.8962 26.4678C70.6627 26.6329 71.4594 26.5932 72.2055 26.3525C73.1101 26.1166 73.9206 25.6107 74.5285 24.9026C75.1364 24.1945 75.5126 23.318 75.6066 22.3908V14.8926H82.2386C82.2386 14.8926 82.3319 33.7044 82.2386 36.3035C82.1693 37.0095 82.2868 37.7213 82.5793 38.368C82.8718 39.0146 83.3291 39.5737 83.9057 39.9894L93.672 48.7771C94.0407 49.1159 94.4763 49.3743 94.951 49.5358C95.4256 49.6972 95.9288 49.7581 96.4285 49.7146C96.9281 49.6712 97.4131 49.5242 97.8525 49.2832C98.2919 49.0423 98.676 48.7125 98.9802 48.3151C99.4336 47.8532 99.7773 47.2958 99.9859 46.6839C100.195 46.072 100.263 45.4213 100.186 44.7797C100.109 44.138 99.8881 43.5218 99.5404 42.9763C99.1927 42.4309 98.7267 41.9701 98.1767 41.628Z" fill="white"/>
<path d="M53.5952 55.3768L50.8988 55.7065C50.7236 55.7279 50.5224 55.8093 50.4 55.5798C50.2776 55.3502 50.4384 55.2402 50.5121 55.0771C52.1149 51.5719 53.7179 48.0692 55.3212 44.5684C55.4111 44.3731 55.4778 44.0733 55.7495 44.1807C56.0211 44.2882 55.9572 44.5843 55.9602 44.8251C55.9514 47.0267 55.9529 49.2304 55.9069 51.4299C55.8954 52.0409 56.0605 52.1815 56.5326 52.1204C58.1848 51.9184 59.8602 51.7136 61.5223 51.5104C61.7404 51.4837 61.9921 51.376 62.1511 51.658C62.3102 51.94 62.1172 52.1143 62.0318 52.319C60.1127 56.9883 58.1889 61.6558 56.2605 66.3218C56.1694 66.5339 56.1383 66.9329 55.8432 66.825C55.548 66.7171 55.6368 66.3243 55.6681 66.0626C56.0422 62.6674 56.4196 59.2718 56.8234 55.873C56.9068 55.1929 56.7758 54.9479 56.1587 55.0568C55.3114 55.204 54.4503 55.2657 53.5977 55.37" fill="white"/>
<path d="M66.7993 40.4498C63.0503 37.4272 58.2527 36.0098 53.4591 36.5086C48.6655 37.0074 44.2673 39.3817 41.2295 43.1106C38.3437 46.9548 37.1053 51.7839 37.7856 56.5393C38.466 61.2946 41.0096 65.5883 44.8589 68.479C47.9745 70.9558 51.81 72.3609 55.7918 72.4841C59.7735 72.6073 63.6874 71.442 66.948 69.1625L82.3217 81.1272C83.1849 81.6935 84.2371 81.8976 85.2499 81.6955C86.2627 81.4933 87.1545 80.901 87.7316 80.0472L88.4473 79.133C89.1377 78.3674 89.4973 77.361 89.448 76.3323C89.3988 75.3035 88.9446 74.3354 88.1841 73.6379L77.7553 65.5217L72.8104 61.6732C74.2438 57.9647 74.4328 53.8921 73.3491 50.0659C72.2654 46.2396 69.9674 42.8657 66.7993 40.4498ZM66.522 62.7946C64.2949 65.5247 61.0722 67.2621 57.5605 67.626C54.0488 67.9899 50.5349 66.9505 47.7891 64.7357C44.9676 62.6177 43.1029 59.4712 42.6041 55.9861C42.1053 52.501 43.0129 48.9619 45.1281 46.1447C47.3552 43.4146 50.5779 41.6771 54.0895 41.3133C57.6012 40.9494 61.1152 41.9888 63.8609 44.2036C66.6825 46.3216 68.5471 49.4681 69.046 52.9532C69.5448 56.4382 68.6371 59.9774 66.522 62.7946Z" fill="white"/>
</g>
<defs>
<clipPath id="clip0_174_2486">
<rect width="100" height="96" fill="white" transform="translate(0.333984 0.631348)"/>
</clipPath>
</defs>
</svg>
