<svg width="100" height="105" viewBox="0 0 100 105" fill="none" xmlns="http://www.w3.org/2000/svg">
<path d="M17.6001 10.1916C17.6993 10.1914 17.6993 10.1914 17.8005 10.1912C18.0211 10.1908 18.2418 10.1909 18.4624 10.191C18.6226 10.1908 18.7827 10.1906 18.9429 10.1904C19.3363 10.1899 19.7297 10.1898 20.1231 10.1897C20.5946 10.1897 21.0661 10.1892 21.5375 10.1888C22.6765 10.1877 23.8155 10.1873 24.9545 10.187C25.4934 10.1869 26.0324 10.1866 26.5713 10.1864C28.4165 10.1856 30.2618 10.1849 32.107 10.1846C32.2227 10.1846 32.3385 10.1846 32.4542 10.1846C32.5702 10.1846 32.6862 10.1846 32.8022 10.1845C33.035 10.1845 33.2677 10.1845 33.5004 10.1845C33.5581 10.1844 33.6158 10.1844 33.6753 10.1844C35.5475 10.1842 37.4196 10.1832 39.2918 10.1816C41.272 10.18 43.2521 10.1791 45.2323 10.179C45.4496 10.179 45.6669 10.179 45.8843 10.179C45.9378 10.179 45.9913 10.179 46.0464 10.179C46.9075 10.1789 47.7686 10.1782 48.6298 10.1772C49.4949 10.1763 50.3601 10.1761 51.2253 10.1766C51.7393 10.1769 52.2532 10.1766 52.7672 10.1756C53.1509 10.1749 53.5347 10.1752 53.9184 10.1759C54.0736 10.176 54.2289 10.1758 54.3842 10.1753C54.5952 10.1745 54.8061 10.175 55.0171 10.1758C55.0774 10.1753 55.1377 10.1748 55.1999 10.1743C55.8497 10.1796 56.4036 10.3361 56.8811 10.79C57.3261 11.2683 57.516 11.7867 57.4932 12.4395C57.419 13.0571 57.1506 13.5272 56.6845 13.9355C56.1635 14.2909 55.5799 14.3482 54.9662 14.3451C54.8671 14.3453 54.8671 14.3453 54.766 14.3456C54.5445 14.3461 54.323 14.3456 54.1014 14.3451C53.9411 14.3453 53.7807 14.3455 53.6203 14.3457C53.2716 14.3461 52.9228 14.3461 52.574 14.3458C52.0554 14.3453 51.5367 14.3456 51.0181 14.346C50.1453 14.3467 49.2726 14.3468 48.3998 14.3466C47.1526 14.3464 45.9054 14.3473 44.6582 14.3484C44.1575 14.3488 43.6569 14.3492 43.1562 14.3496C43.0728 14.3497 43.0728 14.3497 42.9877 14.3498C41.6639 14.3508 40.34 14.3515 39.0162 14.3521C38.9583 14.3522 38.9004 14.3522 38.8407 14.3522C37.4896 14.3528 36.1385 14.3533 34.7875 14.3534C34.7003 14.3534 34.7003 14.3534 34.6114 14.3535C34.3185 14.3535 34.0256 14.3535 33.7326 14.3536C33.6747 14.3536 33.6168 14.3536 33.5572 14.3536C33.4403 14.3536 33.3235 14.3536 33.2066 14.3536C31.2752 14.3538 29.3437 14.3549 27.4122 14.357C27.1394 14.3573 26.8665 14.3576 26.5936 14.3579C26.5399 14.3579 26.4862 14.358 26.4309 14.358C25.5673 14.3589 24.7038 14.3587 23.8402 14.3582C22.972 14.3577 22.1037 14.3581 21.2355 14.3595C20.72 14.3603 20.2045 14.3604 19.689 14.3594C19.3036 14.3587 18.9183 14.3594 18.5329 14.3606C18.3774 14.3609 18.2218 14.3607 18.0662 14.3601C16.6511 14.3546 15.5144 14.5477 14.465 15.5791C13.8074 16.2819 13.4229 17.1966 13.4258 18.1587C13.4256 18.232 13.4256 18.232 13.4254 18.3067C13.4251 18.4713 13.4253 18.6359 13.4254 18.8005C13.4253 18.9198 13.4251 19.0392 13.4249 19.1585C13.4245 19.4884 13.4245 19.8182 13.4246 20.1481C13.4246 20.5062 13.4242 20.8644 13.4238 21.2225C13.4232 21.9338 13.423 22.645 13.4228 23.3562C13.4226 24.2077 13.4221 25.0593 13.4215 25.9108C13.4201 27.9692 13.4194 30.0276 13.4188 32.086C13.4187 32.7677 13.4184 33.4493 13.4182 34.131C13.4182 34.2031 13.4182 34.2031 13.4181 34.2767C13.4181 34.4712 13.418 34.6657 13.4179 34.8603C13.4168 38.1879 13.4158 41.5156 13.4153 44.8433C13.4152 45.1047 13.4152 45.3661 13.4152 45.6275C13.4151 45.7053 13.4151 45.7053 13.4151 45.7846C13.415 46.31 13.415 46.8353 13.4149 47.3607C13.4149 47.466 13.4149 47.5713 13.4148 47.6767C13.4143 51.0595 13.4129 54.4423 13.4107 57.8251C13.4092 60.2556 13.4078 62.6861 13.4073 65.1166C13.4073 65.1666 13.4073 65.2166 13.4073 65.2681C13.4071 66.3655 13.407 67.4628 13.4069 68.5602C13.4069 69.0018 13.4068 69.4433 13.4068 69.8849C13.4068 69.9332 13.4068 69.9815 13.4068 70.0313C13.4066 71.5878 13.4057 73.1442 13.4044 74.7007C13.403 76.2685 13.4025 77.8364 13.4031 79.4043C13.4035 80.3771 13.4032 81.3498 13.4017 82.3226C13.4008 82.9431 13.4009 83.5636 13.4017 84.1841C13.4022 84.5378 13.4022 84.8914 13.4011 85.245C13.4001 85.567 13.4003 85.8889 13.4015 86.2109C13.4017 86.3264 13.4014 86.442 13.4007 86.5575C13.3931 87.8403 13.6973 88.8999 14.6191 89.8378C15.2867 90.4625 16.1857 90.8763 17.1066 90.8771C17.1867 90.8774 17.2668 90.8776 17.3493 90.8778C17.4382 90.8778 17.5271 90.8777 17.616 90.8776C17.7108 90.8777 17.8057 90.8779 17.9005 90.8781C18.1623 90.8786 18.4241 90.8787 18.6859 90.8787C18.9703 90.8787 19.2546 90.8792 19.539 90.8796C20.1036 90.8803 20.6681 90.8807 21.2327 90.8809C21.9087 90.8813 22.5848 90.882 23.2608 90.8827C24.895 90.8843 26.5292 90.8853 28.1634 90.8862C28.7046 90.8864 29.2459 90.8867 29.7872 90.8871C32.6647 90.8887 35.5422 90.8902 38.4197 90.891C39.0864 90.8912 39.7532 90.8914 40.42 90.8916C40.5028 90.8916 40.5857 90.8916 40.671 90.8916C43.3567 90.8924 46.0425 90.8945 48.7282 90.8972C51.489 90.9 54.2498 90.9017 57.0106 90.9021C57.4005 90.9021 57.7904 90.9022 58.1804 90.9023C58.2571 90.9023 58.3338 90.9023 58.4129 90.9023C59.648 90.9025 60.883 90.9039 62.1181 90.9056C63.3596 90.9073 64.6012 90.9078 65.8427 90.9071C66.5802 90.9067 67.3177 90.9072 68.0552 90.909C68.5482 90.9102 69.0411 90.9101 69.534 90.9091C69.8147 90.9085 70.0954 90.9085 70.3761 90.9099C70.632 90.9112 70.8878 90.9109 71.1438 90.9095C71.278 90.9091 71.4122 90.9104 71.5464 90.9117C72.474 90.9031 73.3058 90.6454 74.0502 90.0822C74.0978 90.0465 74.1455 90.0108 74.1946 89.974C74.9902 89.3286 75.3917 88.3855 75.5574 87.3955C75.5833 87.05 75.5837 86.7061 75.5818 86.36C75.5819 86.2579 75.5822 86.1557 75.5825 86.0536C75.5832 85.7752 75.5827 85.4969 75.5819 85.2185C75.5813 84.9175 75.5819 84.6164 75.5823 84.3153C75.5829 83.7942 75.5828 83.2732 75.5823 82.7522C75.5816 81.998 75.5822 81.2439 75.5831 80.4898C75.5847 79.2651 75.5856 78.0404 75.5858 76.8156C75.5859 76.7058 75.5859 76.7058 75.5859 76.5938C75.5861 75.7767 75.5861 74.9596 75.586 74.1426C75.586 73.8461 75.586 73.5496 75.586 73.2531C75.586 73.18 75.586 73.1068 75.5859 73.0314C75.5859 71.811 75.5869 70.5905 75.5886 69.37C75.5897 68.6179 75.5898 67.8657 75.5888 67.1136C75.5882 66.5983 75.5885 66.083 75.5896 65.5678C75.5901 65.2706 75.5903 64.9735 75.5893 64.6764C75.5883 64.4041 75.5886 64.1319 75.5899 63.8596C75.5901 63.7614 75.5899 63.6632 75.5892 63.565C75.5842 62.8025 75.6666 62.1313 76.2127 61.5582C76.7269 61.1153 77.2139 61.0273 77.8766 61.0342C78.3959 61.0735 78.7995 61.2838 79.1775 61.6373C79.5219 62.0429 79.6938 62.5135 79.6946 63.0394C79.6948 63.0818 79.6949 63.1242 79.6951 63.168C79.6955 63.3111 79.6955 63.4543 79.6955 63.5975C79.6957 63.7008 79.6959 63.8041 79.6962 63.9074C79.6969 64.192 79.6971 64.4767 79.6973 64.7614C79.6976 65.0682 79.6982 65.375 79.6988 65.6817C79.7001 66.4233 79.7007 67.1649 79.7013 67.9065C79.7016 68.256 79.7019 68.6054 79.7023 68.9548C79.7034 70.1171 79.7043 71.2793 79.7048 72.4416C79.7049 72.7433 79.7051 73.0451 79.7052 73.3468C79.7052 73.4218 79.7053 73.4968 79.7053 73.5741C79.7058 74.787 79.7075 76 79.7096 77.2129C79.7118 78.4591 79.713 79.7052 79.7132 80.9513C79.7133 81.6507 79.7139 82.35 79.7156 83.0493C79.717 83.6453 79.7175 84.2414 79.7169 84.8374C79.7166 85.1411 79.7167 85.4448 79.718 85.7485C79.7273 88.0874 79.7273 88.0874 79.4237 89.1648C79.4051 89.2323 79.4051 89.2323 79.3861 89.3011C79.0267 90.59 78.3035 91.6715 77.3923 92.6379C77.3488 92.6864 77.3054 92.7348 77.2607 92.7846C75.9484 94.1893 73.9677 94.9291 72.0843 95.0626C71.7712 95.0717 71.4583 95.0715 71.145 95.071C71.0505 95.0711 70.956 95.0712 70.8615 95.0714C70.602 95.0717 70.3426 95.0716 70.0832 95.0714C69.8009 95.0713 69.5185 95.0716 69.2361 95.0718C68.7414 95.0721 68.2466 95.0722 67.7518 95.0722C67.016 95.0721 66.2803 95.0723 65.5445 95.0727C64.1539 95.0733 62.7633 95.0735 61.3727 95.0735C60.2987 95.0736 59.2248 95.0737 58.1508 95.0739C57.8417 95.074 57.5326 95.074 57.2235 95.0741C57.1467 95.0741 57.0698 95.0741 56.9906 95.0741C54.829 95.0745 52.6673 95.0748 50.5056 95.0748C50.4241 95.0748 50.3426 95.0748 50.2586 95.0748C49.8455 95.0747 49.4324 95.0747 49.0193 95.0747C48.8963 95.0747 48.8963 95.0747 48.7707 95.0747C48.6048 95.0747 48.4389 95.0747 48.273 95.0747C45.6918 95.0747 43.1107 95.0752 40.5295 95.0761C37.6296 95.0771 34.7298 95.0776 31.8299 95.0776C31.5207 95.0776 31.2114 95.0776 30.9021 95.0776C30.826 95.0776 30.7499 95.0776 30.6714 95.0776C29.4463 95.0776 28.2212 95.078 26.9961 95.0785C25.7647 95.0791 24.5332 95.0792 23.3018 95.0787C22.5704 95.0785 21.839 95.0786 21.1076 95.0793C20.6187 95.0797 20.1298 95.0796 19.6409 95.0791C19.3626 95.0788 19.0842 95.0788 18.8059 95.0793C16.3678 95.0837 14.0321 94.8423 12.1236 93.1622C12.0708 93.118 12.018 93.0738 11.9636 93.0283C10.3785 91.6665 9.43391 89.6882 9.25353 87.6154C9.22552 87.152 9.23111 86.6878 9.23162 86.2238C9.23152 86.1046 9.23138 85.9855 9.23122 85.8664C9.23085 85.5391 9.2309 85.2117 9.23101 84.8843C9.23105 84.5282 9.23072 84.172 9.23044 83.8159C9.22995 83.1095 9.2298 82.4031 9.22977 81.6967C9.22971 80.8506 9.22927 80.0045 9.22883 79.1584C9.2278 77.162 9.2274 75.1656 9.2271 73.1692C9.22694 72.1533 9.2267 71.1373 9.22644 70.1213C9.22561 66.8614 9.2249 63.6015 9.22468 60.3416C9.22467 60.1858 9.22466 60.03 9.22465 59.8743C9.22463 59.5619 9.2246 59.2495 9.22458 58.9372C9.22456 58.5714 9.22453 58.2057 9.22451 57.84C9.2245 57.7354 9.22449 57.6307 9.22448 57.526C9.22425 54.165 9.22326 50.8039 9.22174 47.4428C9.22064 45.0272 9.21962 42.6117 9.21933 40.1961C9.21932 40.1464 9.21932 40.0967 9.21931 40.0455C9.21918 38.9543 9.2191 37.863 9.21908 36.7718C9.21907 36.3813 9.21906 35.9908 9.21904 35.6004C9.21904 35.5032 9.21903 35.4061 9.21903 35.3089C9.21897 33.7626 9.21832 32.2163 9.21736 30.67C9.21637 29.0686 9.2161 27.4672 9.21665 25.8658C9.21694 24.943 9.21668 24.0202 9.21565 23.0974C9.21501 22.4806 9.21509 21.8637 9.21574 21.2469C9.21609 20.8957 9.21614 20.5446 9.21531 20.1934C9.21457 19.8731 9.21474 19.5529 9.21562 19.2327C9.21578 19.1183 9.21562 19.0039 9.21507 18.8895C9.21035 17.8303 9.27911 16.7253 9.64161 15.7212C9.66118 15.665 9.68075 15.6089 9.7009 15.5511C10.426 13.5496 11.911 11.9043 13.831 10.9881C15.0462 10.4298 16.2661 10.189 17.6001 10.1916Z" fill="white"/>
<path d="M72.3669 18.0967C72.6723 18.2692 72.9272 18.4703 73.1811 18.7111C73.3395 18.8599 73.5044 18.9963 73.6734 19.1329C73.9401 19.3492 74.2028 19.5693 74.4639 19.7923C74.7545 20.0402 75.0506 20.2792 75.3526 20.5132C75.7305 20.8061 76.0926 21.1143 76.4523 21.4294C76.7357 21.6773 77.0245 21.9163 77.3203 22.1494C77.5002 22.2914 77.6757 22.438 77.851 22.5856C77.8527 22.523 77.8544 22.4604 77.8561 22.3959C77.8874 21.6835 77.9644 21.0053 78.5063 20.4886C78.8213 20.2687 79.1121 20.1536 79.4951 20.1513C79.5479 20.1508 79.6007 20.1504 79.6551 20.1499C79.7125 20.1497 79.7698 20.1495 79.829 20.1493C79.8898 20.1489 79.9507 20.1485 80.0134 20.148C80.2149 20.1467 80.4164 20.146 80.6179 20.1453C80.6869 20.1451 80.7558 20.1448 80.8269 20.1445C81.1923 20.1431 81.5577 20.1422 81.9231 20.1416C82.2993 20.1409 82.6755 20.1386 83.0516 20.136C83.3419 20.1343 83.6322 20.1338 83.9224 20.1335C84.061 20.1332 84.1996 20.1324 84.3382 20.1312C85.2416 20.1238 85.9687 20.1438 86.7202 20.7011C86.9728 20.9692 87.05 21.2462 87.0457 21.6072C87.0451 21.7246 87.0451 21.7246 87.0444 21.8443C87.043 21.9293 87.0416 22.0143 87.0401 22.1018C87.0393 22.1929 87.0386 22.284 87.038 22.3751C87.0365 22.5709 87.0345 22.7667 87.0322 22.9624C87.0286 23.2726 87.0272 23.5828 87.0263 23.893C87.026 23.9995 87.0257 24.1059 87.0253 24.2123C87.0251 24.2923 87.0251 24.2923 87.0248 24.3738C87.0224 25.0956 87.0182 25.8172 87.0094 26.5389C87.0034 27.0264 87.0005 27.5138 87.001 28.0013C87.0012 28.2588 86.9998 28.5162 86.9946 28.7738C86.9127 29.9647 86.9127 29.9647 87.3837 30.9894C87.5606 31.138 87.7428 31.2504 87.9427 31.3667C88.0685 31.4672 88.193 31.5693 88.3154 31.6739C88.403 31.7442 88.403 31.7442 88.4923 31.8159C88.7195 32.0024 88.9352 32.2002 89.1522 32.3983C89.3279 32.5543 89.5086 32.702 89.6916 32.8493C90.6136 33.6034 90.6136 33.6034 90.7605 34.2501C90.7908 34.7501 90.6413 35.1649 90.3343 35.5548C89.981 35.9409 89.5796 36.1582 89.0527 36.1832C88.4219 36.1493 88.0576 35.7704 87.6199 35.3551C87.4397 35.1849 87.2516 35.0276 87.0581 34.8726C86.7975 34.6629 86.5491 34.445 86.3045 34.2173C86.0027 33.9365 85.6906 33.6737 85.3694 33.4151C85.1161 33.2057 84.8751 32.9841 84.6342 32.7608C84.4972 32.6368 84.3577 32.5239 84.2116 32.4111C83.9163 32.1542 83.7736 31.8278 83.7254 31.4412C83.7166 31.2243 83.7163 31.0089 83.719 30.7919C83.719 30.71 83.7189 30.6281 83.7189 30.5437C83.719 30.3209 83.7203 30.0981 83.7222 29.8753C83.7238 29.6417 83.724 29.4082 83.7243 29.1747C83.7251 28.7333 83.7272 28.2919 83.7299 27.8505C83.7328 27.3477 83.7342 26.8448 83.7356 26.3419C83.7383 25.3082 83.7431 24.2746 83.7488 23.2409C82.927 23.2409 82.1052 23.2409 81.2586 23.2409C81.2624 23.4509 81.2662 23.6609 81.2701 23.8773C81.2727 24.0824 81.2746 24.2876 81.2766 24.4928C81.2782 24.6345 81.2804 24.7763 81.2833 24.918C81.2873 25.1226 81.2891 25.3272 81.2906 25.5319C81.2923 25.5945 81.294 25.657 81.2957 25.7215C81.2959 26.2389 81.1516 26.6585 80.8076 27.0515C80.4173 27.438 79.9594 27.5696 79.4196 27.5905C78.709 27.5606 78.3082 27.2387 77.7854 26.7795C77.6799 26.6895 77.574 26.6001 77.468 26.5106C77.3954 26.4494 77.3229 26.3881 77.2505 26.3266C77.0267 26.1365 76.8009 25.9492 76.5731 25.7638C76.2713 25.5182 75.974 25.2677 75.6776 25.0157C75.4552 24.827 75.2309 24.6411 75.0045 24.4573C74.6858 24.198 74.3741 23.9313 74.0629 23.6632C73.7739 23.4147 73.4805 23.1723 73.1845 22.9322C72.9753 22.7605 72.7694 22.5851 72.5635 22.4095C72.2591 22.1501 71.9493 21.903 71.6256 21.6681C71.354 21.7796 71.1509 21.9723 70.9334 22.1637C70.8511 22.2353 70.7688 22.3068 70.6864 22.3782C70.6457 22.4135 70.605 22.4488 70.5631 22.4852C70.401 22.6242 70.2353 22.7586 70.0692 22.8928C69.7821 23.1257 69.5078 23.3698 69.2344 23.6187C69.0119 23.8167 68.7805 24.0027 68.5489 24.1901C68.3149 24.383 68.0861 24.5815 67.8575 24.7809C67.5769 25.0256 67.2951 25.2674 67.0056 25.5017C66.5907 25.838 66.1896 26.1897 65.7868 26.5403C65.2662 26.9924 64.7409 27.4391 64.2139 27.8838C63.95 28.1068 63.6879 28.3317 63.426 28.5571C63.1599 28.786 62.8919 29.0118 62.6192 29.2329C62.2031 29.5708 61.8005 29.9237 61.3963 30.2756C60.8759 30.7275 60.3509 31.1739 59.8242 31.6184C59.5135 31.8809 59.2047 32.1457 58.8966 32.4114C58.6868 32.5918 58.4746 32.768 58.2573 32.9394C58.3475 32.9669 58.3475 32.9669 58.4395 32.995C59.0106 33.1816 59.5095 33.3645 59.8021 33.9226C59.9279 34.2255 59.9223 34.5153 59.9192 34.8393C59.9194 34.9363 59.9194 34.9363 59.9197 35.0354C59.92 35.2524 59.9189 35.4694 59.9179 35.6863C59.9178 35.8445 59.9178 36.0027 59.9179 36.1609C59.918 36.5843 59.9168 37.0078 59.9155 37.4312C59.9143 37.8286 59.9143 38.226 59.9141 38.6234C59.9131 39.7855 59.9104 40.9476 59.9078 42.1097C59.9038 44.706 59.8997 47.3024 59.8955 49.9774C67.7887 49.9774 75.6819 49.9774 83.8143 49.9774C83.8143 47.5554 83.8143 45.1334 83.8143 42.638C84.0648 42.0744 84.2103 41.7745 84.7573 41.5153C85.2462 41.3446 85.7143 41.3561 86.1898 41.5649C86.5627 41.7736 86.8185 42.0908 86.9828 42.4839C87.0793 42.8336 87.0537 43.2037 87.0528 43.564C87.0533 43.6579 87.0539 43.7518 87.0545 43.8457C87.0559 44.0998 87.0561 44.354 87.056 44.6081C87.056 44.8208 87.0566 45.0334 87.0571 45.2461C87.0584 45.7482 87.0586 46.2502 87.0581 46.7523C87.0577 47.269 87.0592 47.7857 87.0616 48.3024C87.0636 48.7471 87.0644 49.1917 87.0641 49.6364C87.064 49.9015 87.0643 50.1666 87.0659 50.4318C87.0674 50.6813 87.0673 50.9308 87.066 51.1803C87.0657 51.2715 87.0661 51.3626 87.067 51.4537C87.0728 52.0557 87.0152 52.5637 86.6054 53.0317C86.2317 53.3704 85.8406 53.4751 85.3498 53.4755C85.2778 53.476 85.2778 53.476 85.2043 53.4764C85.0436 53.4772 84.883 53.4766 84.7223 53.476C84.6058 53.4763 84.4893 53.4766 84.3729 53.4771C84.053 53.478 83.7332 53.4777 83.4133 53.4772C83.0683 53.4769 82.7233 53.4778 82.3782 53.4784C81.7023 53.4796 81.0265 53.4796 80.3506 53.4793C79.8013 53.479 79.2519 53.4791 78.7026 53.4794C78.5854 53.4795 78.5854 53.4795 78.4658 53.4796C78.307 53.4797 78.1482 53.4798 77.9895 53.4799C76.5002 53.4808 75.011 53.4804 73.5218 53.4797C72.1592 53.479 70.7966 53.4799 69.434 53.4814C68.0351 53.483 66.6362 53.4837 65.2373 53.4832C64.4518 53.483 63.6664 53.4832 62.8809 53.4843C62.2123 53.4853 61.5436 53.4853 60.8749 53.4842C60.5338 53.4836 60.1926 53.4835 59.8515 53.4845C59.5391 53.4854 59.2267 53.4851 58.9143 53.4838C58.8014 53.4836 58.6885 53.4838 58.5755 53.4844C57.3315 53.4914 57.3315 53.4914 56.9073 53.089C56.7032 52.8546 56.6108 52.6957 56.6109 52.3902C56.6108 52.3324 56.6107 52.2746 56.6105 52.2151C56.6107 52.1512 56.6109 52.0873 56.6111 52.0215C56.6111 51.954 56.611 51.8864 56.611 51.8168C56.6108 51.589 56.6112 51.3612 56.6116 51.1334C56.6116 50.9707 56.6116 50.808 56.6115 50.6453C56.6115 50.2942 56.6117 49.9431 56.6121 49.5921C56.6126 49.0845 56.6128 48.5769 56.6129 48.0693C56.613 47.2458 56.6134 46.4224 56.6141 45.5989C56.6147 44.7988 56.6151 43.9988 56.6154 43.1987C56.6154 43.1494 56.6154 43.1001 56.6155 43.0493C56.6155 42.802 56.6156 42.5548 56.6157 42.3075C56.6164 40.2551 56.6175 38.2028 56.619 36.1505C56.5387 36.1515 56.4584 36.1525 56.3757 36.1536C56.0756 36.1571 55.7756 36.1594 55.4755 36.1613C55.346 36.1622 55.2166 36.1636 55.0871 36.1653C54.9002 36.1677 54.7133 36.1688 54.5264 36.1696C54.4692 36.1707 54.412 36.1717 54.3532 36.1727C53.6944 36.1729 53.2396 35.9863 52.7642 35.5294C52.4334 35.1458 52.3083 34.7119 52.3357 34.2086C52.4608 33.3931 53.2853 32.9159 53.8831 32.4336C54.0686 32.2797 54.2464 32.1197 54.4237 31.9565C54.7166 31.6869 55.0194 31.4341 55.3291 31.1842C55.5015 31.0419 55.6675 30.8947 55.8326 30.7442C56.0552 30.5413 56.2823 30.3476 56.5166 30.1585C56.7658 29.9569 57.0057 29.7489 57.2415 29.5318C57.5345 29.2623 57.8372 29.0095 58.1469 28.7596C58.3193 28.6173 58.4853 28.4701 58.6505 28.3195C58.9322 28.0627 59.2245 27.822 59.5208 27.5823C59.75 27.3926 59.9688 27.1927 60.1886 26.9923C60.3588 26.841 60.5334 26.6973 60.7106 26.5543C60.9598 26.3527 61.1997 26.1447 61.4355 25.9276C61.7284 25.6581 62.0312 25.4053 62.3409 25.1554C62.5133 25.0131 62.6793 24.8659 62.8444 24.7153C63.067 24.5125 63.2941 24.3188 63.5284 24.1296C63.7776 23.9281 64.0175 23.7201 64.2533 23.503C64.5463 23.2334 64.849 22.9807 65.1587 22.7307C65.3311 22.5884 65.4971 22.4413 65.6623 22.2907C65.8848 22.0878 66.1119 21.8941 66.3462 21.705C66.5955 21.5034 66.8353 21.2954 67.0712 21.0784C67.3641 20.8088 67.6669 20.556 67.9766 20.3061C68.149 20.1638 68.3149 20.0166 68.4801 19.866C68.7601 19.6108 69.0505 19.3718 69.3455 19.1342C69.5362 18.975 69.7163 18.8076 69.8972 18.6373C70.5987 17.9911 71.4462 17.66 72.3669 18.0967Z" fill="white"/>
<path d="M22.7005 78.8522C22.8193 78.8518 22.8193 78.8518 22.9405 78.8514C23.1593 78.8509 23.3781 78.8512 23.5969 78.8519C23.8353 78.8525 24.0737 78.8519 24.3122 78.8515C24.7297 78.8509 25.1473 78.851 25.5648 78.8516C26.1857 78.8525 26.8066 78.8522 27.4275 78.8518C28.5364 78.851 29.6454 78.8513 30.7543 78.8521C31.7247 78.8528 32.6951 78.8531 33.6654 78.853C33.762 78.853 33.762 78.853 33.8605 78.853C34.1218 78.853 34.3831 78.853 34.6444 78.8529C37.0953 78.8527 39.5462 78.8535 41.9971 78.8549C44.1748 78.8561 46.3526 78.8565 48.5303 78.8561C48.6702 78.8561 48.81 78.8561 48.9499 78.856C49.0536 78.856 49.0536 78.856 49.1594 78.856C49.5074 78.8559 49.8555 78.8559 50.2035 78.8558C50.2722 78.8558 50.3408 78.8558 50.4116 78.8558C52.2311 78.8555 54.0507 78.8559 55.8702 78.8565C56.066 78.8565 56.2617 78.8566 56.4575 78.8566C56.5874 78.8567 56.7172 78.8567 56.8471 78.8568C57.7527 78.857 58.6583 78.8571 59.5639 78.8569C60.7308 78.8568 61.8977 78.8571 63.0646 78.8581C63.6818 78.8586 64.299 78.8588 64.9162 78.8584C65.3284 78.8582 65.7405 78.8585 66.1526 78.8592C66.3875 78.8596 66.6224 78.8597 66.8573 78.8593C67.1104 78.8589 67.3634 78.8594 67.6165 78.8601C67.6894 78.8598 67.7622 78.8595 67.8373 78.8592C68.5615 78.8629 69.1303 78.961 69.67 79.4696C70.188 80.0179 70.289 80.4416 70.271 81.1949C70.2175 81.7596 69.9368 82.1649 69.5277 82.5465C68.9652 82.9907 68.3825 83.0246 67.689 83.0219C67.5705 83.0222 67.5705 83.0222 67.4495 83.0225C67.2302 83.023 67.0109 83.0229 66.7917 83.0225C66.553 83.0222 66.3144 83.0227 66.0758 83.0231C65.6576 83.0237 65.2395 83.0237 64.8213 83.0235C64.1994 83.0232 63.5776 83.0236 62.9558 83.0241C61.7806 83.0251 60.6053 83.0252 59.4301 83.025C58.5227 83.0249 57.6152 83.025 56.7077 83.0253C56.5774 83.0254 56.4471 83.0254 56.3167 83.0254C56.1203 83.0255 55.9239 83.0256 55.7275 83.0256C53.9013 83.0262 52.075 83.0265 50.2488 83.0262C50.1799 83.0262 50.1111 83.0262 50.0401 83.0262C49.6911 83.0261 49.3421 83.026 48.9931 83.026C48.9237 83.026 48.8544 83.026 48.783 83.026C48.6428 83.0259 48.5027 83.0259 48.3625 83.0259C46.1812 83.0255 44 83.0261 41.8188 83.0273C39.3686 83.0286 36.9184 83.0293 34.4682 83.0291C34.207 83.029 33.9457 83.029 33.6845 83.029C33.6202 83.029 33.5559 83.029 33.4896 83.029C32.5183 83.0289 31.547 83.0293 30.5757 83.03C29.4711 83.0308 28.3666 83.0309 27.262 83.0301C26.6438 83.0297 26.0256 83.0298 25.4074 83.0307C24.9944 83.0312 24.5815 83.031 24.1685 83.0303C23.9332 83.0299 23.6979 83.0298 23.4627 83.0305C23.209 83.0313 22.9553 83.0306 22.7017 83.0298C22.629 83.0303 22.5563 83.0307 22.4813 83.0312C21.7272 83.026 21.1259 82.8819 20.5762 82.3499C20.2018 81.9606 20.0838 81.4675 20.0273 80.941C20.1046 80.2199 20.3477 79.675 20.9202 79.2126C21.46 78.8745 22.0814 78.8481 22.7005 78.8522Z" fill="white"/>
<path d="M21.9031 68.7026C21.9713 68.7022 22.0395 68.7019 22.1098 68.7015C22.1845 68.7018 22.2592 68.702 22.3361 68.7023C22.416 68.7021 22.4958 68.7018 22.5781 68.7016C22.8006 68.7011 23.023 68.7012 23.2455 68.7015C23.4872 68.7017 23.7289 68.7012 23.9707 68.7007C24.3946 68.7001 24.8185 68.6999 25.2424 68.7C25.8728 68.7002 26.5032 68.6997 27.1336 68.699C28.3249 68.6977 29.5162 68.6973 30.7076 68.6973C31.6274 68.6972 32.5473 68.6969 33.4672 68.6965C33.7318 68.6964 33.9964 68.6963 34.261 68.6962C34.3267 68.6961 34.3925 68.6961 34.4603 68.6961C36.311 68.6953 38.1616 68.6948 40.0123 68.6948C40.0821 68.6948 40.1519 68.6948 40.2238 68.6948C40.5776 68.6948 40.9314 68.6948 41.2852 68.6949C41.3555 68.6949 41.4258 68.6949 41.4982 68.6949C41.6403 68.6949 41.7824 68.6949 41.9245 68.6949C44.1356 68.695 46.3467 68.694 48.5578 68.6922C51.0409 68.6902 53.524 68.689 56.007 68.6892C56.2717 68.6892 56.5364 68.6892 56.801 68.6892C56.8988 68.6892 56.8988 68.6892 56.9985 68.6892C58.0482 68.6892 59.0979 68.6884 60.1476 68.6872C61.2022 68.6861 62.2568 68.686 63.3114 68.6869C63.9382 68.6873 64.5651 68.6871 65.1919 68.6858C65.6104 68.685 66.029 68.6852 66.4475 68.6861C66.6861 68.6866 66.9247 68.6867 67.1632 68.6857C67.4202 68.6846 67.6772 68.6854 67.9342 68.6865C68.0083 68.6859 68.0823 68.6852 68.1586 68.6846C68.8007 68.6904 69.2676 68.8721 69.7393 69.3089C70.1916 69.8135 70.2738 70.3141 70.2684 70.9723C70.2243 71.5397 69.9792 71.9715 69.5603 72.3474C69.0235 72.7734 68.3979 72.811 67.7368 72.807C67.6573 72.8073 67.5777 72.8076 67.4958 72.8079C67.2757 72.8086 67.0558 72.8083 66.8357 72.8077C66.5961 72.8073 66.3564 72.808 66.1168 72.8085C65.697 72.8094 65.2772 72.8094 64.8574 72.809C64.2332 72.8084 63.6089 72.809 62.9847 72.8097C61.8698 72.811 60.7548 72.8111 59.6399 72.8108C58.6642 72.8105 57.6884 72.8105 56.7127 72.8109C56.5818 72.811 56.451 72.811 56.3201 72.8111C56.1229 72.8111 55.9257 72.8112 55.7285 72.8113C53.895 72.812 52.0616 72.8123 50.2281 72.8118C50.159 72.8118 50.0899 72.8118 50.0186 72.8117C49.4574 72.8116 48.8961 72.8114 48.3348 72.8112C46.1452 72.8106 43.9556 72.8111 41.766 72.8126C39.306 72.8143 36.8461 72.8152 34.3861 72.8147C34.1239 72.8147 33.8616 72.8146 33.5994 72.8146C33.5348 72.8146 33.4702 72.8146 33.4037 72.8146C32.4286 72.8144 31.4535 72.8149 30.4785 72.8158C29.3697 72.8168 28.2609 72.8168 27.1522 72.8157C26.5317 72.815 25.9111 72.8151 25.2906 72.8163C24.8761 72.8169 24.4616 72.8167 24.047 72.8156C23.8109 72.8151 23.5747 72.8149 23.3386 72.8159C23.084 72.817 22.8294 72.816 22.5747 72.8149C22.5018 72.8155 22.4288 72.8161 22.3536 72.8168C21.6576 72.8103 21.081 72.6316 20.574 72.1454C20.2026 71.7092 20.0288 71.2064 20.0395 70.6349C20.089 70.1113 20.2948 69.6368 20.6431 69.2434C21.0188 68.934 21.4074 68.7029 21.9031 68.7026Z" fill="white"/>
<path d="M21.8875 59.0692C21.9316 59.069 21.9757 59.0688 22.0212 59.0685C22.1686 59.0679 22.3159 59.0682 22.4633 59.0686C22.5702 59.0683 22.6771 59.068 22.784 59.0677C23.0775 59.0668 23.3709 59.0669 23.6644 59.067C23.981 59.067 24.2976 59.0663 24.6142 59.0657C25.2344 59.0646 25.8547 59.0643 26.4749 59.0642C26.979 59.0641 27.4832 59.0638 27.9874 59.0634C29.4171 59.0623 30.8467 59.0617 32.2764 59.0618C32.3534 59.0618 32.4305 59.0618 32.5099 59.0618C32.6256 59.0618 32.6256 59.0618 32.7437 59.0618C33.9941 59.0619 35.2445 59.0606 36.495 59.0588C37.7791 59.0569 39.0632 59.056 40.3473 59.0561C41.0682 59.0561 41.789 59.0558 42.5099 59.0544C43.1237 59.0532 43.7374 59.0529 44.3512 59.0538C44.6642 59.0542 44.9773 59.0542 45.2903 59.0531C45.5771 59.052 45.864 59.0522 46.1508 59.0534C46.2543 59.0536 46.3578 59.0533 46.4613 59.0526C47.1848 59.0478 47.8337 59.0851 48.3896 59.5939C48.875 60.1261 48.9819 60.6732 48.9686 61.3738C48.944 61.9056 48.7269 62.3215 48.3648 62.7061C47.8816 63.1187 47.3562 63.2226 46.7355 63.2229C46.6921 63.2231 46.6486 63.2232 46.6039 63.2233C46.4585 63.2236 46.3132 63.2234 46.1678 63.2233C46.0625 63.2234 45.9571 63.2235 45.8518 63.2237C45.5624 63.2241 45.2731 63.2241 44.9837 63.224C44.6716 63.224 44.3595 63.2244 44.0474 63.2247C43.4359 63.2252 42.8245 63.2254 42.213 63.2255C41.716 63.2255 41.219 63.2256 40.722 63.2258C39.3131 63.2264 37.9041 63.2267 36.4952 63.2267C36.4192 63.2267 36.3432 63.2267 36.265 63.2267C36.1509 63.2267 36.1509 63.2267 36.0345 63.2266C34.8018 63.2266 33.5691 63.2272 32.3364 63.2282C31.0708 63.2291 29.8052 63.2296 28.5395 63.2295C27.8289 63.2295 27.1184 63.2297 26.4078 63.2304C25.8028 63.231 25.1978 63.2311 24.5928 63.2307C24.2841 63.2305 23.9755 63.2305 23.6669 63.231C23.3842 63.2315 23.1015 63.2314 22.8188 63.2309C22.7167 63.2308 22.6146 63.2309 22.5125 63.2313C21.7131 63.2339 21.018 63.2154 20.3995 62.6555C19.9883 62.2185 19.8402 61.7441 19.8223 61.1503C19.8443 60.4461 20.064 59.9621 20.5759 59.4793C20.9784 59.1606 21.3799 59.0698 21.8875 59.0692Z" fill="white"/>
<path d="M22.0062 49.4853C22.0982 49.485 22.1902 49.4846 22.2821 49.484C22.534 49.483 22.7858 49.4835 23.0376 49.4843C23.3096 49.4849 23.5816 49.484 23.8535 49.4833C24.3859 49.4821 24.9183 49.4823 25.4507 49.4831C25.8834 49.4837 26.3162 49.4838 26.7489 49.4835C26.8105 49.4835 26.8721 49.4834 26.9356 49.4834C27.0608 49.4833 27.1859 49.4832 27.3111 49.4831C28.4845 49.4824 29.658 49.4832 30.8314 49.4846C31.8381 49.4858 32.8447 49.4856 33.8513 49.4844C35.0206 49.483 36.1898 49.4824 37.3591 49.4832C37.4838 49.4833 37.6085 49.4834 37.7332 49.4835C37.8253 49.4836 37.8253 49.4836 37.9192 49.4836C38.3513 49.4838 38.7835 49.4835 39.2156 49.4828C39.7424 49.4821 40.2691 49.4823 40.7958 49.4837C41.0645 49.4844 41.3332 49.4847 41.6019 49.4838C41.848 49.483 42.0941 49.4834 42.3401 49.4848C42.4711 49.4853 42.602 49.4844 42.7329 49.4835C43.2694 49.4882 43.6218 49.5516 44.0479 49.8956C44.5466 50.4672 44.685 51.0738 44.651 51.8206C44.5933 52.416 44.3855 52.8187 43.9903 53.262C43.5285 53.6396 43.0567 53.6095 42.4838 53.6069C42.3919 53.6072 42.3 53.6075 42.208 53.608C41.956 53.6089 41.7041 53.6086 41.4521 53.6081C41.1801 53.6078 40.9081 53.6086 40.6361 53.6093C40.1035 53.6104 39.5708 53.6105 39.0382 53.6102C38.6053 53.6099 38.1724 53.61 37.7395 53.6103C37.6778 53.6104 37.6162 53.6104 37.5527 53.6105C37.4275 53.6106 37.3023 53.6107 37.1772 53.6108C36.0033 53.6117 34.8294 53.6113 33.6555 53.6106C32.5817 53.6099 31.5079 53.6108 30.434 53.6123C29.3312 53.6139 28.2285 53.6146 27.1257 53.6141C26.5066 53.6139 25.8876 53.6141 25.2685 53.6152C24.7415 53.6162 24.2145 53.6162 23.6876 53.6151C23.4187 53.6145 23.1499 53.6144 22.8811 53.6154C22.6349 53.6163 22.3887 53.616 22.1425 53.6147C22.0115 53.6143 21.8805 53.6153 21.7495 53.6162C21.2128 53.6118 20.8605 53.5486 20.4343 53.2044C19.9355 52.6328 19.7974 52.0264 19.8309 51.2797C19.8852 50.7244 20.069 50.3142 20.4343 49.8956C20.9361 49.4903 21.3813 49.481 22.0062 49.4853Z" fill="white"/>
<path d="M33.8598 23.6546C35.143 24.7457 35.9414 26.2496 36.0917 27.929C36.167 29.0297 35.9845 30.0768 35.5091 31.075C35.4449 31.259 35.4549 31.3176 35.5186 31.4978C35.6504 31.6467 35.7829 31.7849 35.9249 31.9234C35.9885 31.9865 35.9885 31.9865 36.0534 32.051C36.1456 32.1424 36.238 32.2336 36.3306 32.3246C36.4773 32.4688 36.6234 32.6137 36.7693 32.7586C37.1321 33.1188 37.4959 33.4778 37.8596 33.8369C38.1667 34.1401 38.4734 34.4437 38.7796 34.7479C38.9232 34.8902 39.0674 35.032 39.2117 35.1737C39.3003 35.2616 39.3888 35.3495 39.4774 35.4374C39.5174 35.4764 39.5574 35.5154 39.5986 35.5556C39.8859 35.8429 40.1338 36.1338 40.2061 36.5455C40.199 37.2011 40.0484 37.5254 39.6019 38.0018C39.2299 38.3564 38.8856 38.5776 38.365 38.6079C37.8146 38.5713 37.4464 38.2478 37.0754 37.8682C37.0312 37.8241 36.9871 37.7799 36.9415 37.7345C36.797 37.5897 36.6533 37.444 36.5097 37.2983C36.4091 37.1973 36.3085 37.0963 36.2078 36.9953C35.9439 36.7305 35.6809 36.4648 35.418 36.199C35.1491 35.9275 34.8796 35.6567 34.6101 35.3859C34.0821 34.8551 33.555 34.3235 33.0284 33.7914C32.9609 33.8187 32.8934 33.846 32.8239 33.8741C32.7344 33.9101 32.645 33.946 32.5556 33.982C32.5112 34 32.4668 34.0179 32.4211 34.0364C30.9113 34.643 29.2036 34.6359 27.6956 34.0255C26.8659 33.6693 26.1983 33.1777 25.5579 32.5463C25.4859 32.4756 25.4859 32.4756 25.4125 32.4035C24.4524 31.3939 23.9267 29.9937 23.8541 28.6145C23.85 28.5395 23.85 28.5395 23.8459 28.4629C23.8035 26.8517 24.3967 25.377 25.4268 24.1584C25.4636 24.1148 25.5005 24.0712 25.5384 24.0263C27.7236 21.6645 31.4556 21.7689 33.8598 23.6546ZM26.5731 25.4595C25.8158 26.4255 25.4835 27.5228 25.5579 28.7455C25.7388 30.0335 26.334 31.0528 27.3272 31.891C28.4388 32.6794 29.6371 32.872 30.9721 32.715C31.766 32.5394 32.5018 32.112 33.0939 31.5634C33.1623 31.5003 33.1623 31.5003 33.2321 31.4359C33.992 30.6613 34.3882 29.5181 34.4209 28.4507C34.4038 27.3022 33.995 26.2573 33.225 25.4035C33.1925 25.365 33.1601 25.3266 33.1267 25.287C32.4615 24.5536 31.4017 24.0242 30.4121 23.9527C28.926 23.8855 27.5834 24.3092 26.5731 25.4595Z" fill="white"/>
<path d="M72.8421 28.3281C73.0014 28.3525 73.0014 28.3525 73.1325 28.4836C73.1801 28.8626 73.1181 29.2526 73.0593 29.6274C73.0476 29.7052 73.0476 29.7052 73.0357 29.7845C73.0189 29.896 73.002 30.0075 72.9849 30.1189C72.9577 30.2954 72.9312 30.472 72.9048 30.6487C72.8297 31.1505 72.7535 31.6522 72.6771 32.1538C72.6303 32.4616 72.5841 32.7695 72.5382 33.0775C72.5121 33.2511 72.4854 33.4247 72.4586 33.5982C72.4426 33.7049 72.4267 33.8116 72.4109 33.9184C72.3995 33.9902 72.3995 33.9902 72.3879 34.0635C72.3479 34.3385 72.3506 34.5689 72.4116 34.8401C72.6459 34.9182 72.8598 34.9161 73.1037 34.917C73.1792 34.9177 73.1792 34.9177 73.2562 34.9183C73.3654 34.9192 73.4746 34.92 73.5838 34.9207C73.7564 34.9218 73.9291 34.9233 74.1017 34.9249C74.5926 34.9296 75.0834 34.9335 75.5743 34.9369C75.8745 34.9389 76.1747 34.9416 76.4749 34.9447C76.5894 34.9458 76.704 34.9466 76.8186 34.9472C76.9785 34.948 77.1383 34.9495 77.2982 34.9513C77.3458 34.9513 77.3934 34.9514 77.4425 34.9514C77.7702 34.9562 77.7702 34.9562 77.9162 35.1022C77.9455 35.3936 77.9049 35.5625 77.7501 35.8082C77.7138 35.8668 77.6775 35.9254 77.6401 35.9858C77.6001 36.0483 77.5601 36.1109 77.519 36.1753C77.4776 36.2415 77.4363 36.3077 77.3937 36.3759C77.2629 36.5853 77.1308 36.7939 76.9988 37.0026C76.9177 37.1321 76.8367 37.2618 76.7559 37.3914C76.5938 37.6513 76.4314 37.9109 76.2687 38.1704C75.9598 38.6641 75.6549 39.1603 75.3501 39.6566C75.0472 40.1495 74.7432 40.6416 74.4384 41.1333C74.2024 41.5143 73.9674 41.8959 73.7328 42.2778C73.3099 42.966 72.8845 43.6525 72.4555 44.3369C72.094 44.9142 71.737 45.4943 71.3813 46.0753C71.2666 46.2624 71.1512 46.4491 71.0355 46.6356C71.0085 46.68 70.9814 46.7244 70.9536 46.7701C70.8852 46.8788 70.8852 46.8788 70.7734 47.0288C70.6014 47.0616 70.6014 47.0616 70.4457 47.0288C70.3147 46.8978 70.3147 46.8978 70.3105 46.7791C70.3605 46.3935 70.4424 46.0239 70.5428 45.6485C70.5593 45.5853 70.5758 45.5221 70.5929 45.457C70.6473 45.2492 70.7024 45.0415 70.7575 44.8338C70.796 44.6874 70.8345 44.541 70.8729 44.3946C70.9743 44.0089 71.0762 43.6234 71.1781 43.2379C71.2601 42.9279 71.3416 42.6179 71.4232 42.3078C71.5762 41.7259 71.7294 41.1441 71.8831 40.5624C71.9181 40.4299 71.953 40.2975 71.9879 40.165C72.0826 39.8058 72.1801 39.4475 72.2806 39.0899C72.3022 39.0123 72.3237 38.9348 72.3459 38.8549C72.3876 38.7053 72.4299 38.5558 72.4728 38.4065C72.4914 38.3391 72.5101 38.2717 72.5294 38.2022C72.5462 38.1428 72.563 38.0835 72.5804 38.0224C72.6113 37.8363 72.5943 37.7073 72.5427 37.5268C72.4115 37.3956 72.1464 37.4505 71.9665 37.4499C71.913 37.4495 71.8595 37.4491 71.8044 37.4486C71.6879 37.4477 71.5714 37.4469 71.4548 37.4463C71.2706 37.4452 71.0864 37.4437 70.9022 37.442C70.3784 37.4374 69.8545 37.4334 69.3307 37.4301C69.0107 37.428 68.6906 37.4253 68.3706 37.4222C68.2484 37.4211 68.1261 37.4203 68.0039 37.4198C67.8331 37.419 67.6624 37.4174 67.4917 37.4156C67.4408 37.4156 67.3899 37.4156 67.3375 37.4155C66.9875 37.4107 66.9875 37.4107 66.8415 37.2647C66.8117 37.0591 66.8273 36.9612 66.9336 36.7812C66.9979 36.6996 66.9979 36.6996 67.0635 36.6163C67.2754 36.3378 67.4771 36.0567 67.6701 35.7649C67.6968 35.7247 67.7235 35.6845 67.751 35.6431C67.8075 35.558 67.8638 35.4729 67.9201 35.3877C68.0776 35.1497 68.2357 34.9121 68.3938 34.6745C68.4272 34.6242 68.4606 34.574 68.495 34.5223C68.8873 33.9329 69.2834 33.3461 69.6798 32.7595C69.7166 32.7051 69.7533 32.6508 69.7912 32.5947C69.9402 32.3741 70.0894 32.1535 70.2385 31.9329C70.505 31.5388 70.7712 31.1444 71.0373 30.75C71.1485 30.5853 71.2597 30.4205 71.371 30.2557C71.4412 30.1516 71.5114 30.0476 71.5815 29.9435C71.6147 29.8943 71.648 29.845 71.6822 29.7943C71.7144 29.7466 71.7465 29.6988 71.7797 29.6497C71.8706 29.5152 71.962 29.3811 72.0534 29.247C72.1551 29.0975 72.2537 28.9473 72.3511 28.7948C72.3903 28.7345 72.4296 28.6742 72.47 28.6121C72.5021 28.5611 72.5343 28.5101 72.5673 28.4576C72.6738 28.3525 72.6738 28.3525 72.8421 28.3281Z" fill="white"/>
</svg>
