<svg width="81" height="81" viewBox="0 0 81 81" fill="none" xmlns="http://www.w3.org/2000/svg">
<path d="M18.1512 0.652419C19.1901 0.503364 20.8336 1.10384 21.6852 1.70858C23.5671 3.04582 27.5737 9.69367 28.9362 11.9721C30.2987 14.2505 33.6241 19.7996 33.8668 22.3847C34.2542 26.4773 29.6515 28.6918 27.1096 31.1448C26.8329 31.5835 27.9527 34.0961 28.2209 34.7051C31.7677 42.7328 38.7207 49.6788 46.7637 53.1922C47.364 53.4562 49.7782 54.5252 50.2082 54.2526C52.7246 51.6846 54.9003 46.9745 59.1198 47.5068C62.326 47.9114 69.6068 52.5406 72.5447 54.4315C75.7296 56.4799 82.3547 59.8358 80.2599 64.4565C78.3226 68.7323 67.1458 77.7224 62.8284 79.8858C60.2822 81.1592 58.3832 80.5417 55.7093 79.9412C33.2025 74.8861 6.56143 48.2776 1.46057 25.7746C1.14975 24.4075 0.477017 21.5457 0.719712 20.2553C1.14975 17.9811 6.17822 11.5505 7.8558 9.54462C9.76756 7.26621 15.3155 1.057 18.1512 0.652419ZM18.611 6.12487C13.7869 10.5156 9.45248 15.5111 6.04197 21.09C6.2208 22.7679 6.58697 24.4203 7.02979 26.0429C12.4457 45.8246 35.3187 68.7195 55.0494 74.2686C56.2628 74.6093 58.8346 75.3418 59.9927 75.3418C60.5973 75.3418 62.9476 73.6213 63.6076 73.1528C67.8313 70.1845 71.7485 66.5603 75.2271 62.7573C70.0752 58.8648 64.4889 55.526 58.6046 52.8558C57.9404 52.7961 53.5506 59.346 51.6857 59.8912C50.3147 60.2915 47.8196 59.3375 46.4571 58.8393C35.6423 54.8787 24.9424 44.1084 21.8555 32.8994C20.8932 29.3988 21.5021 29.0368 24.0227 26.72C24.6273 26.1664 28.5402 23.1853 28.5019 22.7509C25.8323 16.8696 22.4984 11.2737 18.6068 6.12487H18.611Z" fill="white"/>
<path d="M67.8394 13.3519C73.0552 18.5348 76.6659 25.6043 77.7133 32.9207C77.9262 34.4113 78.2327 36.7877 78.0709 38.2356C77.709 41.451 73.1532 41.3956 72.7487 38.3889C72.4719 36.3362 72.5698 34.3006 72.1568 32.1414C69.8193 19.9274 59.1322 10.192 46.7973 8.79511C44.4981 8.53532 40.2829 9.25931 40.7257 5.55422C41.0791 2.61145 44.8685 3.246 46.9634 3.45467C54.7424 4.23402 62.317 7.87096 67.8394 13.3519Z" fill="white"/>
<path d="M42.8345 16.6694C46.79 16.005 53.0532 18.5176 56.2083 20.8983C60.977 24.4969 65.4307 32.103 64.7281 38.2355C64.3577 41.4594 59.8061 41.387 59.4059 38.3888C59.2143 36.9494 59.3079 35.7058 58.946 34.1769C57.5026 28.1168 52.2527 23.1809 46.0832 22.1844C44.8399 21.9842 42.8217 22.1546 41.885 21.5456C39.9221 20.268 40.5438 17.0569 42.8345 16.6736V16.6694Z" fill="white"/>
</svg>
