<svg width="549" height="371" viewBox="0 0 549 371" fill="none" xmlns="http://www.w3.org/2000/svg">
<g clip-path="url(#clip0_113_6508)">
<path d="M525.466 172.216V181.392C525.466 237.787 525.466 294.2 525.466 350.594C525.466 364.669 522.037 368.249 508.565 368.249C476.194 368.249 444.804 368.286 412.075 368.286C409.192 368.249 406.366 367.326 404.048 365.611C401.938 363.614 401.994 361.88 400.789 359.468C395.833 349.482 386.601 348.427 376.916 355.813C368.719 362.087 362.294 360.957 357.207 352.384C347.579 336.123 333.786 328.869 318.732 332.129C302.546 335.652 293.54 343.17 290.638 362.295C290.582 363.896 289.96 365.422 288.867 366.591C287.51 367.514 285.909 367.985 284.269 367.947L103.744 367.872C101.935 368.023 100.108 367.665 98.4871 366.854C96.8102 365.422 95.8493 363.331 95.8304 361.126C95.4159 339.157 79.2683 327.362 58.3913 332.524C53.9069 333.636 54.849 341.116 54.4345 348.936C53.9258 358.3 55.3578 363.425 51.7024 367.118C48.047 370.811 46.3136 370.472 41.8292 370.416C38.0608 370.491 34.5185 368.663 32.3516 365.573C31.3342 363.425 30.9008 361.032 31.0704 358.658C31.0704 358.658 31.3719 319.278 31.2211 310.272C30.4486 263.581 30.8631 216.872 30.8631 168.504L14.7343 181.487L-0.0566406 162.814C4.91765 158.537 9.53395 154.524 14.2068 150.586C70.9589 102.652 127.655 54.6798 184.331 6.68918C188.929 2.58161 194.902 0.377097 201.063 0.546675C252.332 0.753937 303.583 0.753937 354.852 0.546675C361.258 0.339413 367.495 2.56277 372.299 6.78338C428.298 53.6247 484.372 100.353 540.559 146.949C545.966 151.434 551.091 155.937 548.152 164.114C545.401 171.783 539.089 172.555 532.362 172.197C530.422 172.084 528.462 172.197 525.466 172.197M261 343.735C263.279 343.867 265.578 343.811 267.839 343.585C269.874 343.283 271.683 342.096 272.757 340.344C286.926 314.605 308.368 304.431 336.518 307.728C336.763 306.541 336.933 305.335 337.008 304.129C337.046 255.404 337.121 206.66 336.839 157.934C336.424 154.618 334.804 151.547 332.26 149.361C301.152 121.663 269.95 94.0973 238.615 66.6633C224.446 54.1899 210.22 41.7353 195.844 29.1112C193.093 31.4288 190.813 33.2941 188.59 35.2537C145.555 73.145 102.482 111.017 59.3899 148.852C55.9042 151.679 54.0011 156.031 54.3214 160.515C54.491 206.942 54.4156 253.388 54.4156 299.815V307.766C83.0555 304.544 104.347 314.511 118.46 339.948C119.439 341.776 121.173 343.076 123.189 343.547C126.694 343.792 130.217 343.848 133.741 343.716V233.641C129.784 233.396 97.6769 233.811 97.6769 233.811L199.386 121.87L295.556 233.811H260.962V343.698L261 343.735ZM501.386 343.735V172.197C462.609 172.197 424.36 172.348 386.129 172.084C377.688 172.028 369.266 170.464 360.617 169.56C360.617 217.023 360.561 266.276 360.674 315.529C360.674 322.708 370.773 329.999 377.368 328.228C392.686 324.14 405.857 328.153 417.257 339.477C419.178 341.399 421.967 343.528 424.379 343.547C449.853 343.848 475.346 343.735 501.367 343.735M148.061 343.566L248.451 343.735V223.354H272.776L199.424 140.317L121.569 223.354H148.042V343.547L148.061 343.566ZM301.924 49.6678L302.358 48.1039C297.591 44.1283 292.372 40.6048 288.151 36.0827C279.672 27.0009 269.799 23.8166 257.815 25.0225C249.054 25.8892 240.16 25.192 229.439 25.192C239.614 33.6898 247.961 40.7556 256.44 47.6894C257.721 48.7823 259.323 49.4606 261.018 49.5925C274.66 49.7432 288.302 49.6678 301.943 49.6678M363.048 98.6759C357.565 94.0785 353.552 91.4218 350.424 87.936C339.948 76.3105 327.399 71.9768 312.231 74.0117C305.015 74.9727 297.572 74.1813 288.321 74.1813C298.514 82.7167 306.88 89.7825 315.34 96.6975C316.64 97.7904 318.242 98.4498 319.919 98.5817C333.541 98.7325 347.183 98.6571 363.048 98.6571M419.555 147.684C419.762 147.194 419.97 146.685 420.177 146.196C411.623 139.054 403.087 131.913 394.514 124.829C393.61 124 392.479 123.453 391.273 123.302C377.236 123.208 363.199 123.227 347.258 123.227C357.433 131.725 365.95 138.922 374.579 145.951C375.917 146.987 377.556 147.552 379.233 147.609C392.668 147.741 406.121 147.684 419.555 147.684ZM312.608 25.2109C323.254 34.0101 332.128 41.3773 341.078 48.688C341.851 49.2721 342.793 49.5925 343.773 49.6113C357.113 49.6678 370.472 49.649 385.885 49.649C375.39 40.9251 366.496 33.5202 357.565 26.1718C356.792 25.5877 355.85 25.2674 354.871 25.2486C341.53 25.192 328.19 25.2109 312.589 25.2109M444.728 98.6948C434.082 89.839 424.925 82.208 415.711 74.6335C415.052 74.2944 414.317 74.1436 413.582 74.2378C400.28 74.219 386.977 74.2378 371.565 74.2378C382.022 82.924 390.708 90.2347 399.526 97.3382C400.939 98.2614 402.597 98.7136 404.293 98.6383C417.012 98.7325 429.73 98.6948 444.747 98.6948M503.609 147.703C494.829 140.354 487.82 134.419 480.735 128.578C478.455 126.694 476.044 123.66 473.613 123.566C459.896 123.076 446.16 123.34 430.559 123.34C440.658 131.744 449.005 138.791 457.484 145.63C458.992 146.817 460.838 147.514 462.76 147.609C475.667 147.778 488.574 147.703 503.628 147.703" fill="#1D5056"/>
<path d="M202.682 206.207C206.62 206.716 204.98 212.048 205.357 214.856C205.564 216.42 206.299 216.627 207.618 216.966C210.671 217.739 213.422 217.984 216.53 219.095C218.509 219.811 221.392 220.546 221.09 223.184C220.902 224.899 219.281 229.986 218.603 231.738C218.358 232.379 217.925 233.717 217.19 233.943C215.871 234.339 213.139 232.718 211.763 232.228C206.714 230.438 194.372 228.234 191.96 234.81C190.152 239.746 195.616 242.742 199.29 244.494C207.034 248.169 214.948 249.789 220.242 257.232C228.514 268.838 223.464 284.232 210.595 289.583C209.031 290.224 206.017 290.695 205.169 292.146C204.264 293.672 204.961 298.759 204.754 300.87C204.585 302.509 203.831 303.413 202.173 303.602C200.515 303.79 197.085 303.753 195.333 303.639C190.698 303.3 192.488 298.364 192.205 294.972C192.055 293.201 191.998 292.598 190.265 292.146C185.874 290.978 178.319 290.356 174.777 287.266C173.156 285.834 173.91 284.308 174.343 282.48C174.72 280.954 176.265 275.113 177.056 274.152C178.262 272.701 181.447 275 182.86 275.565C188.87 277.977 202.738 281.293 206.318 273.699C210.576 264.674 195.39 260.981 189.775 258.381C182.577 255.046 175.116 249.582 174.475 240.952C173.797 231.738 177.697 224.22 185.969 220.075C187.608 219.246 192.658 217.984 192.94 216.194C193.336 213.65 192.79 210.466 193.185 208.073C193.411 206.716 194.127 206.678 195.239 206.226C197.575 206.433 200.402 205.944 202.663 206.226L202.682 206.207Z" fill="#82C672"/>
</g>
<defs>
<clipPath id="clip0_113_6508">
<rect width="549" height="369.907" fill="white" transform="translate(0 0.546692)"/>
</clipPath>
</defs>
</svg>
