<svg width="81" height="80" viewBox="0 0 81 80" fill="none" xmlns="http://www.w3.org/2000/svg">
<g clip-path="url(#clip0_161_820)">
<path d="M80.5004 37.8781C80.2026 38.4217 79.9587 39.0047 79.5981 39.5033C78.3371 41.2469 76.606 41.4209 75.0203 39.9715C72.6417 37.7992 70.3457 35.5319 67.8917 33.4528C66.4459 32.2277 65.9616 30.8375 65.9885 29.0024C66.0674 23.725 66.0118 18.4459 66.0083 13.1667C66.0083 12.9353 65.9778 12.7021 65.958 12.4241H60.7686C60.7506 12.7757 60.7219 13.0914 60.7201 13.4089C60.7147 14.9587 60.7452 16.5104 60.7094 18.0602C60.6717 19.6047 60.0457 20.846 58.5801 21.5007C57.059 22.1824 55.6688 22.0245 54.3701 20.8586C50.0219 16.9534 45.636 13.0896 41.2645 9.21139C41.0439 9.01587 40.8143 8.83111 40.5255 8.58894C31.1583 17.0503 21.8143 25.4901 12.3987 33.9946C12.9243 34.1542 13.3189 34.2547 13.6992 34.3946C15.3638 35.0099 16.0813 35.9929 16.0831 37.7651C16.0867 48.6194 16.076 59.4755 16.0706 70.3298C16.0706 70.7693 16.0706 71.2088 16.0706 71.7308C18.4223 71.7308 20.686 71.833 22.9373 71.6985C24.749 71.5909 25.9921 71.9622 27.1348 73.6179C28.9931 76.3122 31.8291 77.8656 34.9414 78.8576C35.3055 78.9742 35.6715 79.0908 36.0213 79.3078H25.2118C21.0968 79.3078 16.98 79.3078 12.8651 79.3078C12.6265 79.3078 12.3879 79.315 12.1493 79.3042C10.2927 79.2199 9.37432 78.2818 9.37253 76.4288C9.35997 68.3764 9.35638 60.3258 9.34921 52.2734C9.34562 48.8437 9.34383 45.4139 9.34024 41.9842C9.34024 41.6631 9.34024 41.3402 9.34024 40.9168C7.65765 40.9168 6.05579 40.9204 4.45213 40.9168C2.41796 40.9097 1.06005 39.8298 0.602629 37.8692C0.328177 36.6942 0.60801 35.7292 1.52644 34.8915C13.6167 23.8578 25.6943 12.8044 37.7935 1.77788C38.3263 1.29175 39.0546 1.02268 39.6932 0.651367C40.1703 0.651367 40.6475 0.651367 41.1246 0.651367C41.7776 1.05139 42.4987 1.37248 43.0709 1.86577C45.4872 3.94658 47.855 6.083 50.2461 8.19251C51.3977 9.2078 52.5583 10.2123 53.8983 11.3837C53.8983 10.5209 53.8857 9.88048 53.9001 9.24189C53.9521 7.09471 55.3871 5.67222 57.5272 5.66684C61.3426 5.65787 65.158 5.65249 68.9734 5.66684C71.3502 5.67581 72.796 7.15211 72.7978 9.51993C72.7978 15.6906 72.8068 21.8613 72.7852 28.0302C72.7834 28.6167 72.9521 29.0186 73.3933 29.4078C75.1154 30.9254 76.789 32.4967 78.5111 34.0125C79.399 34.7946 80.1524 35.6467 80.5004 36.8019V37.8764V37.8781Z" fill="white"/>
<path d="M53.2367 71.4939C51.8931 70.5037 50.7092 69.6265 49.5217 68.7547C48.1764 67.7681 46.822 66.7923 45.4803 65.7985C44.2766 64.907 44.2174 64.4263 45.1018 63.237C46.1673 61.8019 47.2113 60.349 48.2858 58.9211C48.7934 58.2466 48.7845 57.6887 48.2015 57.025C45.57 54.0204 42.9761 50.9799 40.3715 47.952C40.1132 47.6524 39.8693 47.3385 39.6199 47.0318C39.6701 46.978 39.7186 46.9241 39.7688 46.8685C39.9679 46.9654 40.1688 47.0605 40.3679 47.1609C45.7583 49.8965 51.1487 52.632 56.5391 55.3694C57.6494 55.9344 57.7858 56.469 57.0413 57.4663C55.8825 59.0198 54.6986 60.5535 53.5344 62.1015C52.677 63.2424 52.7362 63.7464 53.8304 64.6523C59.2495 69.1404 64.6686 73.6285 70.0966 78.1058C70.4105 78.3641 70.7926 78.5381 71.1442 78.7516C71.0563 78.8897 70.9684 79.026 70.8805 79.1642C70.5845 79.2126 70.2868 79.3041 69.9908 79.3041C60.6863 79.3112 51.3783 79.4243 42.0774 79.261C37.4584 79.1803 33.6376 76.9219 30.4267 73.6841C26.9987 70.2274 25.196 65.9564 25.0542 61.1633C24.8515 54.3433 24.9771 47.5125 24.9646 40.6853C24.961 38.3892 24.9807 36.0932 24.9556 33.7971C24.9484 33.0832 25.2013 32.7692 25.9386 32.7639C34.5578 32.6885 43.2003 32.1522 51.7873 32.6275C61.768 33.18 69.4509 39.3399 71.189 49.7135C71.424 51.1163 71.503 52.5603 71.5101 53.9845C71.5424 59.4108 71.5209 64.8388 71.5012 70.2651C71.5012 70.5001 71.3864 70.8624 71.2231 70.936C71.0527 71.0131 70.7011 70.8786 70.5218 70.7261C68.6383 69.1207 66.7566 67.5134 64.9233 65.8523C64.6453 65.6012 64.4982 65.0828 64.482 64.681C64.3277 60.8369 64.2452 56.991 64.0856 53.1486C63.8004 46.2855 59.6387 41.4943 52.9066 40.2386C52.4115 40.1472 51.8985 40.122 51.3944 40.122C45.5789 40.1149 39.7634 40.1167 33.9479 40.1185C32.4375 40.1185 32.346 40.2153 32.346 41.74C32.346 47.1089 32.2277 52.4795 32.3801 57.843C32.5254 63.0038 35.2682 68.5 40.7877 70.5808C42.212 71.1172 43.7815 71.4167 45.3027 71.5118C47.7387 71.6643 50.1908 71.5548 52.6357 71.553C52.7703 71.553 52.9048 71.5279 53.2385 71.4939H53.2367Z" fill="white"/>
</g>
<defs>
<clipPath id="clip0_161_820">
<rect width="80" height="78.6977" fill="white" transform="translate(0.5 0.651367)"/>
</clipPath>
</defs>
</svg>
