<svg width="121" height="28" viewBox="0 0 121 28" fill="none" xmlns="http://www.w3.org/2000/svg">
<path d="M59.0806 1.5L58.7334 0.562191L59.0725 0.436686L59.4134 0.557005L59.0806 1.5ZM120.902 22.5685C121.14 23.0668 120.93 23.6638 120.431 23.9021L112.312 27.7853C111.814 28.0236 111.217 27.8129 110.979 27.3147C110.74 26.8165 110.951 26.2194 111.449 25.9811L118.666 22.5293L115.215 15.3123C114.976 14.8141 115.187 14.217 115.685 13.9787C116.184 13.7404 116.781 13.9511 117.019 14.4494L120.902 22.5685ZM1 23L0.652847 22.0622L2.10486 21.5247L2.45201 22.4625L2.79917 23.4003L1.34715 23.9378L1 23ZM5.35605 21.3875L5.00889 20.4497L7.91292 19.3747L8.26008 20.3125L8.60723 21.2503L5.7032 22.3253L5.35605 21.3875ZM11.1641 19.2375L10.817 18.2997L13.721 17.2247L14.0681 18.1625L14.4153 19.1003L11.5113 20.1753L11.1641 19.2375ZM16.9722 17.0875L16.625 16.1497L19.529 15.0747L19.8762 16.0125L20.2233 16.9503L17.3193 18.0253L16.9722 17.0875ZM22.7802 14.9375L22.4331 13.9997L25.3371 12.9247L25.6843 13.8625L26.0314 14.8003L23.1274 15.8753L22.7802 14.9375ZM28.5883 12.7875L28.2411 11.8497L31.1452 10.7747L31.4923 11.7125L31.8395 12.6503L28.9354 13.7253L28.5883 12.7875ZM34.3963 10.6375L34.0492 9.69969L36.9532 8.62469L37.3004 9.5625L37.6475 10.5003L34.7435 11.5753L34.3963 10.6375ZM40.2044 8.4875L39.8573 7.54969L42.7613 6.47469L43.1084 7.4125L43.4556 8.35031L40.5516 9.42531L40.2044 8.4875ZM46.0125 6.3375L45.6653 5.39969L48.5693 4.32469L48.9165 5.2625L49.2637 6.20031L46.3596 7.27531L46.0125 6.3375ZM51.8205 4.1875L51.4734 3.24969L54.3774 2.17469L54.7246 3.1125L55.0717 4.05031L52.1677 5.12531L51.8205 4.1875ZM57.6286 2.0375L57.2814 1.09969L58.7334 0.562191L59.0806 1.5L59.4278 2.43781L57.9757 2.97531L57.6286 2.0375ZM59.0806 1.5L59.4134 0.557005L60.7979 1.04564L60.4651 1.98864L60.1323 2.93163L58.7478 2.443L59.0806 1.5ZM63.2342 2.96591L63.567 2.02291L66.3361 3.00019L66.0033 3.94318L65.6704 4.88618L62.9014 3.9089L63.2342 2.96591ZM68.7723 4.92045L69.1051 3.97746L71.8742 4.95473L71.5414 5.89773L71.2086 6.84072L68.4395 5.86345L68.7723 4.92045ZM74.3104 6.875L74.6433 5.932L77.4123 6.90928L77.0795 7.85227L76.7467 8.79527L73.9776 7.818L74.3104 6.875ZM79.8486 8.82955L80.1814 7.88655L82.9504 8.86382L82.6176 9.80682L82.2848 10.7498L79.5158 9.77254L79.8486 8.82955ZM85.3867 10.7841L85.7195 9.8411L88.4886 10.8184L88.1558 11.7614L87.823 12.7044L85.0539 11.7271L85.3867 10.7841ZM90.9248 12.7386L91.2576 11.7956L94.0267 12.7729L93.6939 13.7159L93.3611 14.6589L90.592 13.6816L90.9248 12.7386ZM96.463 14.6932L96.7958 13.7502L99.5648 14.7275L99.232 15.6705L98.8992 16.6134L96.1301 15.6362L96.463 14.6932ZM102.001 16.6477L102.334 15.7047L105.103 16.682L104.77 17.625L104.437 18.568L101.668 17.5907L102.001 16.6477ZM107.539 18.6023L107.872 17.6593L110.641 18.6365L110.308 19.5795L109.975 20.5225L107.206 19.5453L107.539 18.6023ZM113.077 20.5568L113.41 19.6138L116.179 20.5911L115.846 21.5341L115.514 22.4771L112.745 21.4998L113.077 20.5568ZM118.615 22.5114L118.948 21.5684L120.333 22.057L120 23L119.667 23.943L118.283 23.4544L118.615 22.5114Z" fill="#56CD45"/>
</svg>
