<svg width="121" height="28" viewBox="0 0 121 28" fill="none" xmlns="http://www.w3.org/2000/svg">
<path d="M59.0806 26.5L58.7334 27.4378L59.0725 27.5633L59.4134 27.443L59.0806 26.5ZM120.902 5.43147C121.14 4.93324 120.93 4.33617 120.431 4.09787L112.312 0.214658C111.814 -0.0236354 111.217 0.187086 110.979 0.685318C110.74 1.18355 110.951 1.78062 111.449 2.01891L118.666 5.47066L115.215 12.6877C114.976 13.1859 115.187 13.783 115.685 14.0213C116.184 14.2596 116.781 14.0489 117.019 13.5506L120.902 5.43147ZM1 5L0.652847 5.93781L2.10486 6.47531L2.45201 5.5375L2.79917 4.59969L1.34715 4.06219L1 5ZM5.35605 6.6125L5.00889 7.55031L7.91292 8.62531L8.26008 7.6875L8.60723 6.74969L5.7032 5.67469L5.35605 6.6125ZM11.1641 8.7625L10.817 9.70031L13.721 10.7753L14.0681 9.8375L14.4153 8.89969L11.5113 7.82469L11.1641 8.7625ZM16.9722 10.9125L16.625 11.8503L19.529 12.9253L19.8762 11.9875L20.2233 11.0497L17.3193 9.97469L16.9722 10.9125ZM22.7802 13.0625L22.4331 14.0003L25.3371 15.0753L25.6843 14.1375L26.0314 13.1997L23.1274 12.1247L22.7802 13.0625ZM28.5883 15.2125L28.2411 16.1503L31.1452 17.2253L31.4923 16.2875L31.8395 15.3497L28.9354 14.2747L28.5883 15.2125ZM34.3963 17.3625L34.0492 18.3003L36.9532 19.3753L37.3004 18.4375L37.6475 17.4997L34.7435 16.4247L34.3963 17.3625ZM40.2044 19.5125L39.8573 20.4503L42.7613 21.5253L43.1084 20.5875L43.4556 19.6497L40.5516 18.5747L40.2044 19.5125ZM46.0125 21.6625L45.6653 22.6003L48.5693 23.6753L48.9165 22.7375L49.2637 21.7997L46.3596 20.7247L46.0125 21.6625ZM51.8205 23.8125L51.4734 24.7503L54.3774 25.8253L54.7246 24.8875L55.0717 23.9497L52.1677 22.8747L51.8205 23.8125ZM57.6286 25.9625L57.2814 26.9003L58.7334 27.4378L59.0806 26.5L59.4278 25.5622L57.9757 25.0247L57.6286 25.9625ZM59.0806 26.5L59.4134 27.443L60.7979 26.9544L60.4651 26.0114L60.1323 25.0684L58.7478 25.557L59.0806 26.5ZM63.2342 25.0341L63.567 25.9771L66.3361 24.9998L66.0033 24.0568L65.6704 23.1138L62.9014 24.0911L63.2342 25.0341ZM68.7723 23.0795L69.1051 24.0225L71.8742 23.0453L71.5414 22.1023L71.2086 21.1593L68.4395 22.1366L68.7723 23.0795ZM74.3104 21.125L74.6433 22.068L77.4123 21.0907L77.0795 20.1477L76.7467 19.2047L73.9776 20.182L74.3104 21.125ZM79.8486 19.1705L80.1814 20.1134L82.9504 19.1362L82.6176 18.1932L82.2848 17.2502L79.5158 18.2275L79.8486 19.1705ZM85.3867 17.2159L85.7195 18.1589L88.4886 17.1816L88.1558 16.2386L87.823 15.2956L85.0539 16.2729L85.3867 17.2159ZM90.9248 15.2614L91.2576 16.2044L94.0267 15.2271L93.6939 14.2841L93.3611 13.3411L90.592 14.3184L90.9248 15.2614ZM96.463 13.3068L96.7958 14.2498L99.5648 13.2725L99.232 12.3295L98.8992 11.3866L96.1301 12.3638L96.463 13.3068ZM102.001 11.3523L102.334 12.2953L105.103 11.318L104.77 10.375L104.437 9.43201L101.668 10.4093L102.001 11.3523ZM107.539 9.39773L107.872 10.3407L110.641 9.36345L110.308 8.42046L109.975 7.47746L107.206 8.45474L107.539 9.39773ZM113.077 7.44319L113.41 8.38618L116.179 7.40891L115.846 6.46591L115.514 5.52292L112.745 6.50019L113.077 7.44319ZM118.615 5.48864L118.948 6.43164L120.333 5.943L120 5L119.667 4.057L118.283 4.54565L118.615 5.48864Z" fill="#56CD45"/>
</svg>
