<svg width="91" height="90" viewBox="0 0 91 90" fill="none" xmlns="http://www.w3.org/2000/svg">
<g clip-path="url(#clip0_161_699)">
<path d="M30.471 5.54708C30.516 5.54739 30.561 5.54769 30.606 5.54799C30.775 5.54911 30.944 5.55033 31.113 5.5517C31.1632 5.5521 31.2134 5.55247 31.2636 5.55282C32.2026 5.55951 32.2026 5.55951 32.6263 5.60363C32.6517 5.60623 32.6771 5.60883 32.7033 5.61151C33.9315 5.7411 35.1181 6.0908 36.217 6.65631C36.2473 6.67183 36.2776 6.68724 36.3079 6.70257C36.5811 6.84068 36.8425 6.99275 37.1 7.15828C37.1123 7.16614 37.1245 7.17401 37.1371 7.18211C37.5168 7.42744 37.8788 7.70188 38.22 7.9981C38.2347 8.01078 38.2494 8.02346 38.2646 8.03652C38.3033 8.07014 38.3417 8.10402 38.38 8.13806C38.3963 8.15245 38.4125 8.16683 38.4293 8.18165C38.5174 8.26028 38.6032 8.3401 38.6858 8.42449C38.7225 8.46042 38.7609 8.4935 38.8 8.52673C38.8682 8.58547 38.9263 8.64868 38.9844 8.71723C39.0213 8.7594 39.0601 8.79864 39.1 8.83791C39.1776 8.91461 39.2492 8.99488 39.32 9.07786C39.3356 9.09562 39.3511 9.11337 39.3671 9.13167C39.5355 9.32549 39.6881 9.5309 39.84 9.73771C39.8497 9.75084 39.8594 9.76397 39.8694 9.7775C40.8261 11.0801 41.4155 12.5968 41.645 14.1905C41.6481 14.211 41.6511 14.2316 41.6542 14.2528C41.7201 14.7414 41.729 15.2358 41.7402 15.728C41.7416 15.7897 41.7432 15.8515 41.7448 15.9132C41.7502 16.1258 41.7546 16.3384 41.7588 16.551C41.7596 16.5939 41.7604 16.6368 41.7613 16.6797C41.7831 17.7688 41.7833 18.8579 41.784 19.9472C41.7842 20.2598 41.7846 20.5723 41.785 20.8849C41.7852 21.0114 41.7854 21.1379 41.7855 21.2643C41.7856 21.2854 41.7856 21.2854 41.7856 21.3069C41.786 21.6377 41.7864 21.9685 41.7868 22.2993C41.7868 22.3137 41.7868 22.3281 41.7868 22.343C41.7872 22.6802 41.7876 23.0175 41.7878 23.3548C41.7878 23.3694 41.7878 23.384 41.7878 23.3991C41.7879 23.5169 41.788 23.6347 41.7881 23.7525C41.7884 24.2387 41.789 24.725 41.7898 25.2112C41.7899 25.2798 41.79 25.3484 41.7901 25.4171C41.7901 25.4373 41.7901 25.4373 41.7901 25.458C41.7904 25.6609 41.7906 25.8638 41.7906 26.0668C41.7906 26.2969 41.7909 26.5271 41.7913 26.7572C41.7916 26.8744 41.7917 26.9916 41.7916 27.1088C41.7915 27.2162 41.7917 27.3236 41.7921 27.4309C41.7921 27.4696 41.7921 27.5083 41.792 27.547C41.7905 28.0891 41.936 28.5648 42.28 28.9934C43.001 29.8948 43.5123 30.9392 43.5063 32.114C43.5062 32.1292 43.5062 32.1444 43.5062 32.16C43.5002 33.4748 42.9261 34.7305 42.0029 35.6541C40.8055 36.8255 39.1163 36.8969 37.5413 36.893C37.4461 36.8928 37.3509 36.8927 37.2557 36.8926C37.0704 36.8924 36.8852 36.8921 36.7 36.8917C36.6717 37.0097 36.6434 37.1278 36.6152 37.2459C36.6 37.3093 36.5848 37.3727 36.5696 37.436C36.5244 37.6246 36.4793 37.8131 36.4361 38.0021C36.0916 39.5071 35.495 40.9394 34.58 42.1905C34.5703 42.2038 34.5606 42.2172 34.5505 42.2309C34.4002 42.436 34.2427 42.6349 34.08 42.8304C34.0652 42.8482 34.0652 42.8482 34.0501 42.8664C33.8207 43.141 33.5737 43.3981 33.3213 43.6514C33.3038 43.669 33.2863 43.6866 33.2682 43.7048C33.1687 43.804 33.0667 43.8986 32.96 43.9901C32.9279 44.0192 32.8958 44.0483 32.8638 44.0776C32.7588 44.1722 32.6501 44.2614 32.54 44.35C32.5174 44.3685 32.4947 44.387 32.4721 44.4055C32.2476 44.5881 32.0145 44.7578 31.776 44.9215C31.3951 45.1829 31.3951 45.1829 31.12 45.5497C31.1126 45.5626 31.1052 45.5754 31.0976 45.5886C31.0535 45.6918 31.0562 45.8058 31.0541 45.9163C31.0537 45.9335 31.0533 45.9507 31.0529 45.9685C31.0517 46.0283 31.0506 46.0882 31.0495 46.1481C31.0491 46.1697 31.0487 46.1913 31.0483 46.2136C31.0333 47.0241 31.0331 47.8349 31.0297 48.6455C31.0287 48.8798 31.0276 49.114 31.0265 49.3483C31.0242 49.8284 31.0221 50.3085 31.02 50.7886C31.105 50.7949 31.1899 50.8012 31.2748 50.8076C31.3104 50.8102 31.3104 50.8102 31.3466 50.8129C31.5588 50.8287 31.7709 50.843 31.9832 50.8561C32.0226 50.8586 32.0619 50.8611 32.1012 50.8636C32.6866 50.9016 33.2723 50.9131 33.8588 50.9135C33.8926 50.9135 33.9263 50.9136 33.9601 50.9136C34.6948 50.9146 35.429 50.898 36.1635 50.8807C39.1815 50.8095 39.1815 50.8095 40.48 50.8886C40.5008 50.8898 40.5215 50.8911 40.5429 50.8924C41.8511 50.9736 43.1641 51.1436 44.426 51.5085C44.4969 51.531 44.4969 51.531 44.56 51.5284C44.5973 51.4847 44.6306 51.4414 44.6638 51.3947C44.6853 51.3652 44.7069 51.3356 44.7285 51.3061C44.7401 51.2903 44.7516 51.2744 44.7635 51.2581C44.827 51.1719 44.8924 51.0872 44.9575 51.0023C45.0597 50.8687 45.1606 50.7343 45.26 50.5986C45.4238 50.3752 45.5924 50.1554 45.7609 49.9355C45.9138 49.7356 46.0655 49.5351 46.2143 49.3321C46.3144 49.1959 46.4167 49.0614 46.5194 48.9271C46.6103 48.8083 46.7004 48.6889 46.79 48.5691C46.893 48.4314 46.9968 48.2945 47.1013 48.1579C47.2031 48.0248 47.3035 47.8908 47.4025 47.7555C47.5043 47.6165 47.6088 47.4801 47.7151 47.3446C47.8099 47.2234 47.9013 47.1 47.9921 46.9759C48.0942 46.8368 48.1985 46.6995 48.3033 46.5624C48.4141 46.4175 48.5239 46.2717 48.6331 46.1255C48.6602 46.0894 48.6875 46.0533 48.7148 46.0173C48.7233 46.0061 48.7318 45.9948 48.7406 45.9832C48.7634 45.9531 48.7862 45.923 48.8091 45.8929C48.842 45.8558 48.842 45.8558 48.84 45.8297C48.8093 45.8228 48.8093 45.8228 48.7779 45.8157C47.4682 45.5197 47.4682 45.5197 46.96 45.1298C46.9469 45.1203 46.9337 45.1108 46.9201 45.101C46.5257 44.796 46.358 44.2376 46.294 43.7658C46.246 43.3818 46.2371 42.9979 46.2376 42.6113C46.2376 42.5656 46.2375 42.5199 46.2375 42.4742C46.2374 42.349 46.2375 42.2237 46.2376 42.0985C46.2376 41.9762 46.2376 41.8539 46.2376 41.7317C46.2375 41.4787 46.2376 41.2257 46.2377 40.9728C46.2377 40.7166 46.2378 40.4604 46.2378 40.2042C46.2378 40.1799 46.2378 40.1799 46.2378 40.1551C46.2378 40.0724 46.2378 39.9898 46.2378 39.9072C46.2377 39.3096 46.2378 38.7121 46.2379 38.1145C46.238 37.5229 46.2381 36.9313 46.2381 36.3397C46.2381 36.3213 46.2381 36.3029 46.2381 36.284C46.2381 36.1161 46.2381 35.9481 46.2382 35.7802C46.2382 35.3628 46.2382 34.9454 46.2382 34.528C46.2382 34.509 46.2382 34.49 46.2382 34.4704C46.2383 33.5463 46.2384 32.6222 46.2385 31.698C46.2386 31.3774 46.2386 31.0567 46.2387 30.7361C46.2387 30.7162 46.2387 30.6963 46.2387 30.6759C46.2388 29.7511 46.2389 28.8264 46.2389 27.9016C46.2389 27.8416 46.2389 27.7815 46.2389 27.7215C46.239 27.3235 46.239 26.9256 46.239 26.5277C46.2391 25.7359 46.2391 24.9441 46.2392 24.1523C46.2392 24.1146 46.2392 24.0769 46.2392 24.0392C46.2393 22.3422 46.2395 20.6451 46.2397 18.9481C46.2397 18.9322 46.2397 18.9163 46.2397 18.8999C46.2398 18.1054 46.2399 17.3108 46.24 16.5162C46.2264 16.5149 46.2127 16.5136 46.1987 16.5122C46.1717 16.5096 46.1717 16.5096 46.1443 16.5069C46.1265 16.5052 46.1087 16.5035 46.0904 16.5017C45.3974 16.4262 44.5624 16.1762 44.0981 15.6275C43.6938 15.0847 43.6416 14.3776 43.633 13.7242C43.6325 13.6923 43.6321 13.6603 43.6316 13.6283C43.6306 13.5614 43.6297 13.4944 43.6289 13.4274C43.628 13.3604 43.627 13.2934 43.626 13.2264C43.6202 12.8648 43.6182 12.5038 43.6281 12.1423C43.6285 12.1273 43.6289 12.1124 43.6293 12.0971C43.648 11.4076 43.8109 10.7466 44.3187 10.2496C44.9198 9.68304 45.7063 9.62803 46.4895 9.63014C46.5779 9.63031 46.6663 9.63013 46.7547 9.62999C46.9099 9.6298 47.0651 9.62983 47.2202 9.63001C47.4526 9.63028 47.6849 9.6302 47.9172 9.63005C48.3132 9.62981 48.7093 9.62985 49.1053 9.63004C49.5065 9.63024 49.9077 9.63031 50.3089 9.63021C50.3343 9.63021 50.3597 9.6302 50.3858 9.6302C50.4891 9.63017 50.5924 9.63015 50.6957 9.63012C50.9868 9.63005 51.2779 9.63 51.569 9.62996C51.5824 9.62996 51.5957 9.62995 51.6094 9.62995C52.2665 9.62987 52.9236 9.63001 53.5807 9.63017C53.812 9.63022 54.0432 9.63028 54.2745 9.63033C54.2889 9.63034 54.3032 9.63034 54.318 9.63034C54.9846 9.63049 55.6511 9.63051 56.3177 9.63048C56.3759 9.63048 56.434 9.63048 56.4922 9.63048C56.7407 9.63047 56.9892 9.63046 57.2376 9.63045C57.8915 9.63043 58.5454 9.63043 59.1993 9.63044C59.2142 9.63044 59.2291 9.63044 59.2444 9.63044C60.2084 9.63046 61.1723 9.63056 62.1362 9.63073C62.1516 9.63074 62.1669 9.63074 62.1828 9.63074C62.6981 9.63083 63.2135 9.63093 63.7288 9.63103C64.2 9.63112 64.6712 9.6312 65.1424 9.63128C65.158 9.63128 65.1736 9.63129 65.1897 9.63129C66.6691 9.63154 68.1485 9.6315 69.6279 9.63142C69.7062 9.63142 69.7845 9.63141 69.8628 9.63141C69.886 9.63141 69.886 9.63141 69.9097 9.63141C69.941 9.6314 69.9723 9.6314 70.0036 9.6314C70.0349 9.6314 70.0662 9.6314 70.0975 9.6314C70.4405 9.63138 70.7835 9.63136 71.1266 9.63134C71.1732 9.63134 71.2198 9.63134 71.2664 9.63133C72.2142 9.63129 73.162 9.63129 74.1098 9.63135C74.1321 9.63135 74.1321 9.63135 74.1549 9.63135C74.8378 9.63139 75.5207 9.63145 76.2036 9.63152C76.2768 9.63153 76.35 9.63154 76.4232 9.63155C76.4449 9.63155 76.4449 9.63155 76.467 9.63155C76.54 9.63156 76.613 9.63157 76.686 9.63157C76.7151 9.63158 76.7443 9.63158 76.7735 9.63158C76.7879 9.63158 76.8023 9.63159 76.8171 9.63159C76.9044 9.6316 76.9916 9.63161 77.0788 9.63162C77.7308 9.63168 78.3828 9.63173 79.0348 9.6317C79.0492 9.6317 79.0636 9.6317 79.0784 9.6317C79.2375 9.63169 79.3966 9.63169 79.5557 9.63168C79.6133 9.63168 79.6709 9.63167 79.7284 9.63167C79.7427 9.63167 79.7569 9.63167 79.7715 9.63167C80.4277 9.63164 81.0839 9.63163 81.7401 9.63178C81.7534 9.63178 81.7667 9.63178 81.7804 9.63178C82.0842 9.63185 82.3879 9.63193 82.6916 9.63202C82.7946 9.63205 82.8976 9.63208 83.0006 9.63211C83.0259 9.63212 83.0512 9.63212 83.0772 9.63213C83.4773 9.63224 83.8774 9.63222 84.2775 9.63214C84.671 9.63207 85.0645 9.63214 85.458 9.63236C85.6886 9.63249 85.9193 9.6325 86.1499 9.63236C86.3032 9.63227 86.4566 9.63233 86.6099 9.63251C86.6967 9.63261 86.7835 9.63265 86.8703 9.6325C87.7445 9.63116 88.7303 9.6344 89.4105 10.267C90.0095 10.8782 90.0431 11.8327 90.0434 12.6371C90.0435 12.675 90.0435 12.7129 90.0436 12.7508C90.0437 12.8298 90.0437 12.9088 90.0437 12.9878C90.0437 13.0678 90.0439 13.1478 90.0442 13.2279C90.0506 15.1522 90.0506 15.1522 89.4506 15.7666C89.2642 15.9481 89.0568 16.0716 88.82 16.1763C88.8001 16.1855 88.7801 16.1946 88.7596 16.2041C88.3599 16.3733 87.8532 16.4794 87.42 16.4762C87.4201 16.5112 87.42 16.5112 87.4201 16.547C87.4204 17.3463 87.4207 18.1457 87.421 18.945C87.421 18.9611 87.421 18.9773 87.421 18.9938C87.4216 20.7198 87.4222 22.4457 87.4226 24.1716C87.4226 24.2099 87.4226 24.2483 87.4226 24.2866C87.4228 25.0916 87.4229 25.8965 87.4231 26.7014C87.4232 27.1058 87.4232 27.5101 87.4233 27.9145C87.4233 27.9755 87.4233 28.0365 87.4233 28.0975C87.4235 29.0365 87.4238 29.9755 87.4241 30.9145C87.4242 30.9347 87.4242 30.9549 87.4242 30.9757C87.4243 31.3011 87.4245 31.6265 87.4246 31.9519C87.425 32.8893 87.4253 33.8268 87.4255 34.7643C87.4255 34.7836 87.4255 34.8029 87.4255 34.8227C87.4256 35.2462 87.4256 35.6696 87.4257 36.0931C87.4257 36.2634 87.4257 36.4338 87.4257 36.6042C87.4257 36.6229 87.4257 36.6415 87.4257 36.6607C87.4258 37.2611 87.4261 37.8615 87.4264 38.4619C87.4268 39.067 87.4269 39.672 87.4269 40.277C87.4268 40.3607 87.4268 40.4444 87.4268 40.5281C87.4268 40.5445 87.4268 40.5609 87.4268 40.5778C87.4268 40.8371 87.427 41.0964 87.4272 41.3557C87.4275 41.611 87.4275 41.8663 87.4273 42.1215C87.4272 42.258 87.4273 42.3944 87.4275 42.5308C87.4278 42.6552 87.4277 42.7795 87.4275 42.9038C87.4274 42.9483 87.4275 42.9928 87.4277 43.0373C87.4301 43.7198 87.3335 44.4488 86.88 44.9899C86.8675 45.0062 86.855 45.0226 86.8421 45.0395C86.4623 45.4947 85.8035 45.6505 85.24 45.7097C85.0411 45.7262 84.8438 45.7326 84.6442 45.7322C84.6156 45.7322 84.5869 45.7322 84.5583 45.7322C84.4802 45.7323 84.4021 45.7322 84.3241 45.7322C84.2389 45.7321 84.1537 45.7321 84.0686 45.7322C83.9195 45.7322 83.7704 45.7322 83.6214 45.7321C83.3997 45.732 83.1781 45.732 82.9564 45.732C82.5835 45.732 82.2107 45.7319 81.8378 45.7318C81.4686 45.7317 81.0995 45.7316 80.7304 45.7316C80.7074 45.7316 80.6845 45.7316 80.6608 45.7316C80.5442 45.7316 80.4275 45.7316 80.3109 45.7316C79.4852 45.7315 78.6594 45.7314 77.8337 45.7312C77.0315 45.731 76.2294 45.7309 75.4273 45.7308C75.4026 45.7308 75.3778 45.7308 75.3523 45.7308C75.104 45.7308 74.8556 45.7307 74.6072 45.7307C74.1013 45.7307 73.5953 45.7306 73.0894 45.7306C73.0545 45.7306 73.0545 45.7306 73.0189 45.7305C71.4659 45.7304 69.913 45.73 68.36 45.7297C68.3601 45.747 68.3602 45.7644 68.3604 45.7822C68.3607 45.8472 68.3609 45.9121 68.3611 45.9771C68.3612 46.0051 68.3614 46.033 68.3615 46.061C68.3626 46.23 68.3564 46.3913 68.3293 46.5583C68.2819 46.9239 68.3315 47.2339 68.5535 47.5346C68.7074 47.7227 68.9182 47.847 69.1263 47.9667C70.0405 48.4933 70.7066 49.3286 70.9935 50.3471C71.1382 50.8933 71.1713 51.4478 71.1 52.0083C71.0979 52.0255 71.0957 52.0427 71.0934 52.0604C70.9544 53.0723 70.376 54.0665 69.5664 54.6896C69.4349 54.7883 69.2994 54.8804 69.16 54.9677C69.148 54.9752 69.1361 54.9828 69.1237 54.9906C68.546 55.3502 67.8561 55.5232 67.18 55.5475C67.159 55.5484 67.1379 55.5492 67.1162 55.55C66.4362 55.5631 65.7134 55.4218 65.1165 55.0879C65.0783 55.0667 65.0396 55.0463 65.0009 55.0261C64.0734 54.5331 63.4046 53.6504 63.0921 52.6582C63.0579 52.5443 63.0296 52.4294 63.0038 52.3132C62.9999 52.2958 62.996 52.2783 62.992 52.2604C62.9328 51.9772 62.9123 51.6945 62.9138 51.4059C62.9138 51.3908 62.9139 51.3757 62.9139 51.3601C62.9176 50.4526 63.1976 49.5598 63.8 48.869C63.8085 48.8592 63.817 48.8494 63.8257 48.8393C63.9521 48.6937 64.0858 48.5655 64.24 48.4491C64.261 48.4331 64.2819 48.4171 64.3035 48.4006C64.4454 48.2944 64.593 48.207 64.7489 48.1229C64.883 48.0498 65.0016 47.966 65.12 47.8692C65.1417 47.8525 65.1417 47.8525 65.1639 47.8353C65.469 47.5882 65.6325 47.2119 65.68 46.8295C65.6838 46.7432 65.6837 46.6571 65.6837 46.5708C65.6838 46.5307 65.6842 46.4907 65.6845 46.4506C65.6852 46.2821 65.6751 46.1162 65.6597 45.9484C65.6579 45.9273 65.656 45.9062 65.654 45.8844C65.6494 45.8328 65.6447 45.7813 65.64 45.7297C64.5281 45.7313 63.4162 45.7329 62.3043 45.7346C62.2878 45.7346 62.2712 45.7346 62.2542 45.7347C61.8951 45.7352 61.5359 45.7358 61.1768 45.7363C61.0006 45.7366 60.8244 45.7369 60.6482 45.7372C60.6307 45.7372 60.6132 45.7372 60.5951 45.7372C60.0292 45.7381 59.4633 45.7389 58.8974 45.7397C58.3148 45.7405 57.7322 45.7414 57.1496 45.7424C57.0668 45.7425 56.9841 45.7426 56.9014 45.7428C56.877 45.7428 56.877 45.7428 56.8521 45.7428C56.5924 45.7433 56.3328 45.7436 56.0732 45.7439C55.8107 45.7443 55.5483 45.7447 55.2858 45.7452C55.1442 45.7454 55.0026 45.7456 54.861 45.7458C54.538 45.7461 54.2151 45.747 53.8922 45.7492C53.8433 45.7495 53.7944 45.7499 53.7456 45.7501C53.598 45.751 53.4504 45.7523 53.3028 45.7542C53.2574 45.7547 53.212 45.7551 53.1666 45.7554C52.8567 45.7573 52.5738 45.7766 52.2938 45.9234C52.2805 45.9303 52.2671 45.9372 52.2534 45.9443C52.0374 46.0606 51.8959 46.2369 51.7505 46.4294C51.7069 46.4868 51.6625 46.5435 51.6181 46.6003C51.4815 46.775 51.3467 46.9509 51.2122 47.1272C51.1582 47.198 51.1041 47.2687 51.05 47.3394C51.0283 47.3678 51.0065 47.3962 50.9848 47.4246C50.9423 47.4803 50.8997 47.5359 50.8571 47.5915C50.712 47.7811 50.5672 47.971 50.4225 48.161C50.3673 48.2333 50.3122 48.3056 50.257 48.3779C50.1279 48.5471 49.9991 48.7165 49.8717 48.8869C49.7734 49.0182 49.6738 49.1486 49.5743 49.279C49.492 49.3869 49.4102 49.4951 49.329 49.6038C49.2758 49.6748 49.2218 49.7452 49.1678 49.8157C49.0388 49.9844 48.9114 50.154 48.7858 50.3254C48.6854 50.4622 48.5824 50.5971 48.4793 50.7319C48.3916 50.8465 48.3053 50.9621 48.22 51.0785C48.0562 51.302 47.8876 51.5217 47.7192 51.7417C47.5664 51.9414 47.4147 52.1417 47.2661 52.3446C47.1763 52.4669 47.0847 52.5877 46.9925 52.7082C46.979 52.7259 46.9655 52.7437 46.9516 52.762C46.8961 52.8351 46.8405 52.9079 46.7828 52.9793C46.7679 52.9983 46.7529 53.0173 46.7375 53.0368C46.7251 53.0521 46.7127 53.0673 46.6999 53.083C46.6745 53.129 46.6745 53.129 46.6915 53.1856C46.7226 53.2536 46.758 53.3167 46.7988 53.3793C46.8067 53.3914 46.8145 53.4036 46.8227 53.4161C46.8867 53.5127 46.9583 53.6002 47.0342 53.6876C47.3559 54.0588 47.6227 54.4788 47.86 54.9077C47.8725 54.93 47.8725 54.93 47.8853 54.9527C48.5732 56.1847 48.8243 57.6015 48.8226 58.9986C48.8226 59.0386 48.8227 59.0787 48.8227 59.1187C48.8228 59.2281 48.8228 59.3374 48.8227 59.4468C48.8227 59.566 48.8228 59.6853 48.8228 59.8045C48.8229 60.0133 48.823 60.222 48.823 60.4308C48.8229 60.6546 48.823 60.8784 48.823 61.1023C48.823 61.1164 48.823 61.1306 48.823 61.1452C48.8231 61.203 48.8231 61.2607 48.8231 61.3184C48.8233 61.9197 48.8234 62.521 48.8234 63.1222C48.8234 63.1869 48.8234 63.2515 48.8234 63.3162C48.8234 63.3322 48.8234 63.3482 48.8234 63.3648C48.8234 63.7208 48.8234 64.0767 48.8235 64.4327C48.8235 64.5794 48.8235 64.7261 48.8235 64.8728C48.8235 64.8972 48.8235 64.8972 48.8235 64.922C48.8237 65.8505 48.8238 66.7791 48.8237 67.7077C48.8237 67.7424 48.8237 67.7771 48.8237 67.8118C48.8237 67.9686 48.8237 68.1254 48.8237 68.2822C48.8237 68.3521 48.8237 68.422 48.8237 68.4919C48.8237 68.5269 48.8237 68.5619 48.8237 68.5969C48.8237 69.7034 48.8239 70.8098 48.8242 71.9163C48.8242 72.1952 48.8243 72.474 48.8244 72.7528C48.8244 72.7786 48.8244 72.7786 48.8244 72.8048C48.8245 73.3342 48.8246 73.8636 48.8246 74.393C48.8246 74.4096 48.8246 74.4263 48.8246 74.4434C48.8246 74.8084 48.8246 75.1734 48.8246 75.5385C48.8246 75.6691 48.8246 75.7997 48.8246 75.9303C48.8246 75.9628 48.8246 75.9953 48.8246 76.0278C48.8246 76.5449 48.8247 77.0621 48.8249 77.5792C48.8251 78.1002 48.8251 78.6211 48.825 79.1421C48.825 79.2142 48.8249 79.2863 48.8249 79.3584C48.8249 79.3796 48.8249 79.3796 48.8249 79.4012C48.8249 79.6243 48.825 79.8475 48.8251 80.0706C48.8252 80.2904 48.8252 80.5101 48.8251 80.7299C48.825 80.8473 48.825 80.9647 48.8251 81.0821C48.8253 81.1892 48.8252 81.2963 48.8251 81.4033C48.825 81.4416 48.8251 81.4798 48.8252 81.518C48.8257 81.7213 48.8194 81.9226 48.8025 82.1252C48.8009 82.1438 48.7994 82.1624 48.7979 82.1816C48.7676 82.5126 48.6766 82.8895 48.42 83.1214C47.9165 83.5306 47.2102 83.4875 46.5976 83.4865C46.542 83.4865 46.4865 83.4866 46.431 83.4867C46.3107 83.4869 46.1904 83.4869 46.0701 83.4868C45.8899 83.4867 45.7098 83.4868 45.5297 83.487C45.2226 83.4873 44.9155 83.4874 44.6084 83.4874C44.2973 83.4873 43.9863 83.4874 43.6753 83.4876C43.6458 83.4876 43.6458 83.4876 43.6157 83.4876C43.5153 83.4877 43.4149 83.4878 43.3145 83.4878C42.5887 83.4883 41.8628 83.4885 41.137 83.4886C40.4176 83.4888 39.6982 83.489 38.9789 83.4894C38.9453 83.4894 38.9453 83.4894 38.9111 83.4894C38.6839 83.4895 38.4567 83.4896 38.2295 83.4897C37.7442 83.49 37.2589 83.4902 36.7736 83.4905C36.7505 83.4905 36.7273 83.4905 36.7035 83.4905C35.6026 83.491 34.5016 83.4914 33.4007 83.4918C33.3033 83.4918 33.2059 83.4918 33.1085 83.4919C33.0354 83.4919 32.9623 83.4919 32.8892 83.4919C32.6695 83.492 32.4498 83.4921 32.2301 83.4921C32.1812 83.4922 32.1323 83.4922 32.0834 83.4922C30.9602 83.4926 29.8371 83.493 28.7139 83.4934C28.6411 83.4935 28.5682 83.4935 28.4954 83.4935C27.3967 83.4939 26.2981 83.4944 25.1995 83.4949C25.1528 83.4949 25.1061 83.4949 25.0594 83.495C24.6433 83.4952 24.2272 83.4954 23.8111 83.4955C23.5381 83.4957 23.2651 83.4958 22.9922 83.4959C22.9586 83.4959 22.9586 83.4959 22.9244 83.496C22.1838 83.4963 21.4432 83.4966 20.7026 83.4967C20.2271 83.4969 19.7517 83.497 19.2762 83.4972C19.2555 83.4972 19.2348 83.4972 19.2134 83.4973C19.0075 83.4973 18.8016 83.4974 18.5957 83.4975C18.4952 83.4976 18.3946 83.4976 18.2941 83.4977C18.2744 83.4977 18.2547 83.4977 18.2344 83.4977C17.9248 83.4978 17.6151 83.4979 17.3055 83.4979C16.9996 83.498 16.6938 83.4981 16.3879 83.4983C16.2249 83.4984 16.0618 83.4984 15.8988 83.4984C15.3167 83.4983 14.7346 83.499 14.1526 83.5068C14.1032 83.5074 14.0539 83.5079 14.0045 83.5084C13.6555 83.5117 13.3238 83.5365 12.9875 83.6363C12.9701 83.6414 12.9526 83.6465 12.9346 83.6518C12.6198 83.7469 12.3375 83.902 12.0536 84.0654C11.2748 84.5131 10.4586 84.8622 9.58004 85.061C9.55179 85.0675 9.55179 85.0675 9.52297 85.0741C9.04742 85.1819 8.54827 85.2532 8.06004 85.2609C8.03697 85.2613 8.0139 85.2617 7.99013 85.2622C6.28918 85.2877 4.63628 84.8325 3.32004 83.7213C3.29921 83.7042 3.27838 83.6871 3.25754 83.67C2.99083 83.4492 2.73182 83.2053 2.51902 82.9315C2.47616 82.8765 2.43069 82.8242 2.38504 82.7715C2.08617 82.4126 1.83747 81.9999 1.63754 81.5784C1.62101 81.5438 1.60397 81.5094 1.58691 81.475C1.52965 81.3571 1.47822 81.2385 1.43152 81.1161C1.42262 81.0928 1.41372 81.0695 1.40455 81.0456C1.38741 81.0004 1.37053 80.9551 1.354 80.9097C1.31017 80.7939 1.26849 80.6915 1.19763 80.5898C0.934372 80.1922 0.962868 79.7757 0.96651 79.3154C0.967157 79.1969 0.966285 79.0785 0.965614 78.96C0.964648 78.7528 0.964631 78.5456 0.965275 78.3384C0.96596 78.1163 0.966074 77.8942 0.965507 77.672C0.965471 77.658 0.965433 77.6439 0.965397 77.6294C0.96525 77.572 0.965101 77.5146 0.964945 77.4573C0.963498 76.9242 0.963327 76.3912 0.963988 75.8581C0.964008 75.8424 0.964026 75.8266 0.964047 75.8103C0.964066 75.7946 0.964085 75.7788 0.964105 75.7625C0.964702 75.2807 0.964819 74.799 0.964464 74.3172C0.964441 74.2849 0.964419 74.2526 0.964396 74.2203C0.964303 74.0904 0.96421 73.9606 0.964112 73.8307C0.963843 73.4678 0.963663 73.1048 0.963556 72.7419C0.963551 72.7254 0.963546 72.7089 0.963541 72.6918C0.963392 72.1655 0.963646 71.6392 0.964174 71.1129C0.964191 71.0959 0.964207 71.0788 0.964225 71.0612C0.964502 70.7842 0.964799 70.5072 0.965096 70.2302C0.966275 69.1317 0.966075 68.0333 0.96463 66.9348C0.964267 66.658 0.963908 66.3812 0.963568 66.1043C0.963547 66.0873 0.963526 66.0702 0.963505 66.0527C0.962862 65.527 0.962569 65.0013 0.962648 64.4755C0.96265 64.459 0.962652 64.4425 0.962655 64.4255C0.962713 64.0629 0.96286 63.7003 0.963087 63.3378C0.963168 63.208 0.963242 63.0783 0.963317 62.9485C0.963335 62.9163 0.963356 62.884 0.963375 62.8517C0.963684 62.3383 0.963229 61.825 0.962408 61.3116C0.961567 60.78 0.961784 60.2484 0.963182 59.7167C0.963329 59.6595 0.963471 59.6023 0.96361 59.5451C0.963644 59.531 0.963679 59.517 0.963715 59.5025C0.964233 59.2812 0.96382 59.0598 0.963011 58.8384C0.962235 58.6201 0.962497 58.4019 0.963758 58.1837C0.964404 58.0672 0.964625 57.9507 0.963592 57.8342C0.959489 57.3355 0.975203 56.9561 1.24598 56.5282C1.30843 56.4166 1.34493 56.2964 1.38379 56.1749C1.39221 56.1492 1.40066 56.1235 1.40914 56.0978C1.41661 56.0752 1.42407 56.0527 1.43175 56.0294C1.6168 55.474 1.88709 54.9415 2.20004 54.4478C2.21347 54.4265 2.2269 54.4051 2.24074 54.3832C2.42681 54.0968 2.63481 53.8245 2.86004 53.568C2.87269 53.5533 2.88535 53.5387 2.89839 53.5236C2.93202 53.4848 2.96599 53.4464 3.00004 53.408C3.01233 53.3939 3.02463 53.3797 3.0373 53.3651C3.13488 53.2543 3.2371 53.1489 3.34129 53.0443C3.3545 53.031 3.36771 53.0177 3.38132 53.004C3.47096 52.9147 3.5637 52.8302 3.66004 52.7481C3.67279 52.7373 3.68555 52.7264 3.69869 52.7152C4.13234 52.3478 4.59798 52.0346 5.10004 51.7684C5.11303 51.7615 5.12602 51.7546 5.13941 51.7475C5.23191 51.6989 5.32553 51.653 5.42004 51.6084C5.4359 51.6009 5.45177 51.5934 5.46812 51.5856C6.43125 51.135 7.47145 50.9389 8.53015 50.9133C8.56113 50.9125 8.5921 50.9117 8.62308 50.911C8.6391 50.9106 8.65511 50.9102 8.67161 50.9098C8.71847 50.9086 8.76533 50.9073 8.81219 50.906C9.74443 50.8803 10.6771 50.8859 11.6096 50.8865C11.8581 50.8866 12.1066 50.8867 12.3551 50.8867C12.7979 50.8867 13.2408 50.8869 13.6837 50.8871C14.1131 50.8872 14.5425 50.8874 14.9719 50.8875C14.9853 50.8875 14.9986 50.8875 15.0123 50.8875C15.1593 50.8875 15.3062 50.8875 15.4532 50.8876C16.5555 50.8878 17.6578 50.8881 18.76 50.8886C18.7589 50.2159 18.7574 49.5432 18.7555 48.8706C18.7552 48.7912 18.755 48.7118 18.7548 48.6324C18.7547 48.6165 18.7547 48.6007 18.7547 48.5844C18.7539 48.3285 18.7534 48.0725 18.753 47.8165C18.7526 47.5538 18.7519 47.2911 18.7511 47.0285C18.7505 46.8664 18.7502 46.7043 18.75 46.5422C18.7499 46.4179 18.7495 46.2937 18.7489 46.1694C18.7488 46.1184 18.7487 46.0674 18.7487 46.0164C18.7488 45.9469 18.7484 45.8773 18.748 45.8077C18.7481 45.7875 18.7482 45.7673 18.7483 45.7465C18.7463 45.5477 18.6754 45.4151 18.54 45.2698C18.4838 45.2226 18.4243 45.183 18.3625 45.1436C18.3287 45.1212 18.2948 45.0988 18.261 45.0763C18.244 45.0652 18.2271 45.0541 18.2097 45.0427C18.1347 44.9931 18.061 44.9418 17.9875 44.8899C17.9738 44.8802 17.96 44.8705 17.9459 44.8605C17.6376 44.6413 17.3422 44.4049 17.0546 44.1595C17.0195 44.1296 16.9842 44.1 16.9489 44.0704C16.816 43.9584 16.6902 43.8431 16.5687 43.7188C16.5284 43.6785 16.4876 43.6416 16.4438 43.6052C16.3249 43.5035 16.2221 43.3847 16.1165 43.2697C16.0814 43.2317 16.046 43.194 16.0105 43.1563C15.881 43.0187 15.7577 42.8783 15.64 42.7304C15.6216 42.7078 15.6032 42.6853 15.5848 42.6627C14.5539 41.3974 13.839 39.8897 13.44 38.3114C13.4341 38.288 13.4282 38.2647 13.422 38.2407C13.3426 37.9251 13.2786 37.608 13.2213 37.2878C13.2166 37.2618 13.2166 37.2618 13.2118 37.2352C13.2031 37.1858 13.1944 37.1364 13.1857 37.087C13.1831 37.0722 13.1805 37.0573 13.1778 37.042C13.1679 36.9844 13.16 36.9303 13.16 36.8717C13.1489 36.8717 13.1378 36.8718 13.1263 36.8718C12.8535 36.8727 12.5806 36.8733 12.3077 36.8737C12.1757 36.874 12.0437 36.8742 11.9118 36.8747C11.784 36.8751 11.6563 36.8754 11.5286 36.8755C11.4802 36.8755 11.4319 36.8757 11.3835 36.8759C10.9941 36.8776 10.6056 36.8643 10.2213 36.7967C10.192 36.7916 10.192 36.7916 10.162 36.7864C9.39704 36.6489 8.66336 36.3712 8.06004 35.8719C8.04849 35.8624 8.03694 35.8529 8.02504 35.8431C7.79368 35.6513 7.58632 35.4486 7.40004 35.212C7.38444 35.193 7.36884 35.174 7.35277 35.1544C7.20152 34.9658 7.07982 34.7618 6.96004 34.5522C6.95181 34.538 6.94358 34.5237 6.9351 34.5091C6.67348 34.0532 6.49284 33.5394 6.38379 33.0263C6.37988 33.0079 6.37598 32.9896 6.37196 32.9707C6.31479 32.6845 6.29228 32.4003 6.29379 32.109C6.29383 32.0938 6.29387 32.0786 6.29392 32.063C6.29507 31.8092 6.30885 31.5622 6.36004 31.3129C6.3639 31.2941 6.36777 31.2752 6.37175 31.2558C6.55181 30.4117 6.97243 29.6247 7.55504 28.9884C7.9337 28.5728 7.99955 28.1191 8.01136 27.5757C8.01179 27.5569 8.01222 27.5381 8.01265 27.5188C8.02019 27.1771 8.02132 26.8356 8.02058 26.4939C8.0205 26.4566 8.02051 26.4566 8.02043 26.4186C8.0199 26.1876 8.01911 25.9567 8.01812 25.7257C8.01758 25.5975 8.01724 25.4693 8.01702 25.3411C8.0169 25.2931 8.0167 25.2452 8.01642 25.1972C8.01237 24.5029 8.01237 24.5029 8.10379 24.1782C8.10806 24.1627 8.11233 24.1471 8.11673 24.1311C8.2113 23.8048 8.40112 23.499 8.69707 23.3202C8.90617 23.2103 9.1031 23.1639 9.33879 23.1672C9.35991 23.1674 9.38103 23.1677 9.40279 23.1679C9.72511 23.1745 9.99652 23.2757 10.2331 23.5018C10.6708 23.9941 10.6665 24.6334 10.6641 25.2541C10.6638 25.3317 10.6638 25.4092 10.6638 25.4868C10.6636 25.6331 10.6633 25.7794 10.6629 25.9257C10.6624 26.1238 10.6622 26.3218 10.6619 26.5199C10.6616 26.8312 10.6608 27.1425 10.66 27.4538C11.4718 27.4538 12.2836 27.4538 13.12 27.4538C13.1199 27.2332 13.1198 27.0125 13.1197 26.7852C13.1194 26.0758 13.1192 25.3664 13.119 24.6569C13.119 24.5463 13.119 24.4358 13.1189 24.3252C13.1189 24.3032 13.1189 24.2812 13.1189 24.2585C13.1188 23.9042 13.1187 23.5498 13.1185 23.1955C13.1183 22.8308 13.1182 22.466 13.1182 22.1012C13.1181 21.8969 13.1181 21.6925 13.1179 21.4881C13.1169 20.008 13.1169 20.008 13.1287 19.4743C13.129 19.4567 13.1294 19.4391 13.1298 19.421C13.1356 19.1634 13.1489 18.9088 13.2 18.6557C13.2041 18.6357 13.2081 18.6156 13.2123 18.595C13.349 17.9411 13.6096 17.299 14.06 16.7961C14.0687 16.7864 14.0773 16.7767 14.0862 16.7667C14.1498 16.6955 14.2146 16.6257 14.28 16.5562C14.2939 16.541 14.3078 16.5258 14.3221 16.5102C14.8874 15.9133 15.7224 15.5663 16.52 15.4364C16.5437 15.4324 16.5674 15.4284 16.5918 15.4243C17.0369 15.357 17.4902 15.3493 17.9395 15.3501C17.9941 15.3502 18.0486 15.3501 18.1032 15.3497C18.5795 15.3466 19.0476 15.377 19.515 15.4727C19.5278 15.4752 19.5406 15.4778 19.5537 15.4804C20.3221 15.6343 21.0387 15.8986 21.735 16.2544C21.9963 16.3868 22.2648 16.5031 22.533 16.6204C22.6195 16.6583 22.7058 16.6966 22.7918 16.7355C23.8987 17.2345 25.0676 17.6245 26.24 17.9359C26.2669 17.943 26.2668 17.943 26.2942 17.9503C28.0409 18.4148 29.8342 18.6823 31.64 18.7557C31.6541 18.7563 31.6681 18.7569 31.6825 18.7575C32.054 18.7727 32.4253 18.7764 32.7971 18.775C32.8499 18.7748 32.9028 18.7746 32.9557 18.7744C33.1697 18.7738 33.1697 18.7738 33.3838 18.7723C34.2927 18.7644 35.2535 18.8199 35.9477 19.4829C36.5343 20.0752 36.6845 20.97 36.6824 21.771C36.6825 21.7954 36.6825 21.8198 36.6825 21.845C36.6825 21.9119 36.6825 21.9788 36.6824 22.0456C36.6823 22.1181 36.6823 22.1905 36.6823 22.263C36.6823 22.3882 36.6823 22.5135 36.6822 22.6387C36.682 22.8198 36.6819 23.0008 36.6819 23.1819C36.6819 23.4758 36.6817 23.7696 36.6815 24.0634C36.6814 24.3487 36.6812 24.634 36.6811 24.9193C36.6811 24.9457 36.6811 24.9457 36.6811 24.9727C36.6811 25.061 36.6811 25.1494 36.681 25.2378C36.6808 25.9698 36.6805 26.7018 36.68 27.4338C37.4852 27.4338 38.2904 27.4338 39.12 27.4338C39.1203 26.6382 39.1203 26.6382 39.1205 25.8426C39.1206 25.8292 39.1206 25.8158 39.1206 25.8019C39.1207 25.3491 39.1208 24.8962 39.1209 24.4434C39.1209 24.4286 39.1209 24.4138 39.1209 24.3985C39.1209 24.0765 39.121 23.7545 39.1211 23.4326C39.1211 23.2746 39.1211 23.1166 39.1211 22.9587C39.1211 22.943 39.1211 22.9273 39.1211 22.9111C39.1212 22.4038 39.1214 21.8965 39.1216 21.3892C39.1217 20.8669 39.1219 20.3445 39.1219 19.8222C39.1219 19.7481 39.1219 19.6739 39.1219 19.5997C39.1219 19.5778 39.1219 19.5778 39.1219 19.5555C39.122 19.3228 39.1221 19.09 39.1222 18.8573C39.1223 18.622 39.1223 18.3867 39.1223 18.1514C39.1223 18.0244 39.1223 17.8975 39.1224 17.7705C39.1229 17.1389 39.1163 16.5078 39.1 15.8763C39.0996 15.8604 39.0992 15.8446 39.0988 15.8282C39.0577 14.2153 38.6929 12.6473 37.7057 11.3317C37.6771 11.2935 37.6489 11.2549 37.6207 11.2164C37.5077 11.0626 37.3904 10.9172 37.26 10.7775C37.2378 10.7522 37.2158 10.7268 37.1938 10.7012C36.9371 10.4082 36.6653 10.1404 36.36 9.89767C36.3389 9.88004 36.3178 9.86236 36.2967 9.84464C35.972 9.57453 35.6125 9.3459 35.2432 9.14175C35.2153 9.12632 35.1875 9.11076 35.1598 9.09504C33.9053 8.38406 32.5173 8.22312 31.1019 8.20696C31.0844 8.20675 31.0668 8.20654 31.0487 8.20633C29.8877 8.19265 28.7266 8.19502 27.5656 8.19546C27.3268 8.19555 27.088 8.19554 26.8491 8.19544C25.6336 8.195 24.4181 8.19478 23.2027 8.20349C23.1105 8.20415 23.0183 8.20469 22.9261 8.20511C21.4844 8.21211 20.1952 8.48249 19.1338 9.51901C19.0354 9.61975 18.947 9.72708 18.86 9.83769C18.8444 9.85694 18.8288 9.8762 18.8128 9.89603C18.6029 10.16 18.4348 10.446 18.2775 10.7437C18.1773 10.9333 18.0741 11.1097 17.94 11.2774C17.928 11.2927 17.9161 11.3081 17.9037 11.3239C17.6319 11.6543 17.236 11.8215 16.82 11.8772C16.6932 11.8875 16.5658 11.8861 16.4386 11.8861C16.4022 11.8863 16.3659 11.8866 16.3295 11.8869C16.2344 11.8876 16.1392 11.888 16.044 11.8883C15.8747 11.8888 15.7054 11.8898 15.5361 11.8911C15.5179 11.8912 15.4997 11.8913 15.481 11.8915C15.1727 11.8941 14.8671 11.9072 14.56 11.9372C14.5368 11.9395 14.5368 11.9395 14.5131 11.9418C14.4305 11.9501 14.3484 11.9604 14.2663 11.9722C14.2426 11.9756 14.2189 11.9789 14.1945 11.9824C13.4317 12.0963 12.7092 12.368 12.12 12.877C12.104 12.8909 12.0879 12.9047 12.0714 12.919C12.0202 12.9642 11.97 13.0103 11.92 13.057C11.8941 13.0809 11.8941 13.0809 11.8677 13.1053C10.9327 14.0008 10.7138 15.2601 10.6854 16.4967C10.6812 16.6984 10.6793 16.9001 10.6775 17.1019C10.6764 17.2172 10.6752 17.3326 10.674 17.448C10.6731 17.5309 10.6724 17.6138 10.672 17.6966C10.665 18.9539 10.665 18.9539 10.2538 19.3731C9.9631 19.6479 9.6261 19.7059 9.23933 19.701C8.89725 19.6901 8.61849 19.5605 8.38004 19.3156C8.12016 19.0314 8.03695 18.645 8.03713 18.2694C8.03703 18.2389 8.03703 18.2389 8.03693 18.2078C8.03674 18.1406 8.0367 18.0735 8.03668 18.0063C8.03661 17.9589 8.03654 17.9115 8.03647 17.8641C8.03635 17.7644 8.03632 17.6647 8.03633 17.565C8.03633 17.4642 8.03619 17.3634 8.03592 17.2626C8.03331 16.2942 8.03331 16.2942 8.05808 15.8671C8.05928 15.8464 8.05928 15.8464 8.06051 15.8253C8.15927 14.1837 8.69361 12.6336 9.82605 11.4158C9.87613 11.3616 9.92502 11.3065 9.97379 11.2511C10.0374 11.1803 10.1031 11.1166 10.1758 11.0554C10.2195 11.0179 10.2615 10.9789 10.3035 10.9395C10.4354 10.8162 10.5743 10.7041 10.72 10.5975C10.7332 10.5879 10.7463 10.5783 10.7598 10.5684C10.9538 10.4271 11.1513 10.2961 11.36 10.1776C11.376 10.1684 11.392 10.1593 11.4085 10.1498C11.6844 9.99243 11.9654 9.85624 12.26 9.73771C12.2865 9.72705 12.2865 9.72705 12.3134 9.71617C13.0869 9.40881 13.9192 9.26754 14.7489 9.25201C15.4467 9.23887 15.994 9.10787 16.4935 8.59046C16.5912 8.48621 16.6754 8.37289 16.76 8.25804C17.036 7.9017 17.3364 7.55088 17.68 7.25826C17.7011 7.23975 17.7221 7.22121 17.7432 7.20265C18.4022 6.62434 19.1685 6.19377 20 5.91856C20.0173 5.91282 20.0345 5.90708 20.0523 5.90116C20.7077 5.68579 21.394 5.586 22.0823 5.56809C22.1052 5.56748 22.1052 5.56748 22.1286 5.56685C22.6906 5.55223 23.2531 5.55115 23.8153 5.54769C23.8641 5.54739 23.913 5.54708 23.9618 5.54676C25.7075 5.53556 27.4533 5.53221 30.471 5.54708ZM46.32 12.3171C46.32 12.7922 46.32 13.2673 46.32 13.7568C59.8698 13.7568 73.4196 13.7568 87.38 13.7568C87.38 13.2817 87.38 12.8066 87.38 12.3171C73.8302 12.3171 60.2804 12.3171 46.32 12.3171ZM48.92 16.4962C48.92 25.2327 48.92 33.9691 48.92 42.9703C49.5976 43.1696 50.2128 43.2343 50.86 42.9103C51.2909 42.6585 51.6197 42.2962 51.8918 41.8842C51.9021 41.8686 51.9124 41.853 51.923 41.837C51.9446 41.8044 51.9662 41.7719 51.9878 41.7393C52.0691 41.6165 52.1507 41.4939 52.2322 41.3713C52.2525 41.3408 52.2728 41.3102 52.293 41.2797C52.4251 41.0806 52.5596 40.884 52.7 40.6908C52.7187 40.6652 52.7187 40.6652 52.7377 40.639C52.7704 40.5941 52.8033 40.5493 52.8363 40.5046C52.854 40.4807 52.854 40.4807 52.872 40.4562C53.0832 40.1708 53.3014 39.8908 53.52 39.6111C53.5348 39.5922 53.5348 39.5922 53.5499 39.5729C53.6624 39.4289 53.7761 39.2859 53.8904 39.1433C53.9853 39.0248 54.0792 38.9055 54.1729 38.7859C54.2276 38.7161 54.2825 38.6463 54.3374 38.5766C54.3843 38.5168 54.4312 38.4571 54.4778 38.3971C54.5315 38.3282 54.5857 38.2597 54.64 38.1914C54.6521 38.1759 54.6641 38.1605 54.6765 38.1446C54.8992 37.8723 55.2336 37.6957 55.58 37.6515C55.9135 37.619 56.2431 37.7257 56.5063 37.9302C56.5378 37.9569 56.5691 37.984 56.6 38.0114C56.6125 38.022 56.625 38.0327 56.6379 38.0436C56.8564 38.2428 56.9688 38.5206 56.9975 38.81C57.0206 39.3456 56.744 39.7417 56.4326 40.1481C56.3741 40.225 56.3172 40.303 56.26 40.3809C56.0687 40.641 55.8744 40.8986 55.6785 41.1552C55.5889 41.2726 55.4999 41.3905 55.4115 41.5088C55.3428 41.6007 55.2733 41.692 55.2036 41.7831C54.9618 42.0994 54.7248 42.4167 54.5067 42.7499C54.4812 42.7886 54.4555 42.8271 54.4296 42.8655C54.4149 42.8873 54.4002 42.9091 54.385 42.9316C54.3723 42.9504 54.3597 42.9692 54.3466 42.9885C54.3182 43.0249 54.3182 43.0249 54.32 43.0503C64.3652 43.0503 74.4104 43.0503 84.76 43.0503C84.76 34.2875 84.76 25.5246 84.76 16.4962C72.9328 16.4962 61.1056 16.4962 48.92 16.4962ZM17.4214 17.9967C16.9296 18.0054 16.4943 18.096 16.125 18.4408C15.822 18.7562 15.7565 19.1851 15.7575 19.6045C15.7575 19.6246 15.7575 19.6448 15.7574 19.6656C15.7574 19.733 15.7574 19.8005 15.7575 19.8679C15.7575 19.9169 15.7574 19.9658 15.7574 20.0148C15.7573 20.1212 15.7573 20.2277 15.7574 20.3341C15.7575 20.4926 15.7574 20.6511 15.7574 20.8096C15.7573 21.0938 15.7573 21.378 15.7573 21.6622C15.7574 21.9132 15.7574 22.1643 15.7574 22.4154C15.7574 22.4322 15.7574 22.4489 15.7574 22.4662C15.7573 22.5343 15.7573 22.6024 15.7573 22.6705C15.7573 23.3116 15.7573 23.9527 15.7574 24.5938C15.7575 25.1362 15.7575 25.6786 15.7574 26.2209C15.7571 27.9071 15.7569 29.5932 15.7686 34.2139C15.7689 34.2767 15.7692 34.3395 15.7695 34.4023C15.7706 34.6339 15.7718 34.8655 15.7732 35.0971C15.7736 35.1645 15.774 35.2318 15.7743 35.2991C15.7759 35.6224 15.7796 35.9455 15.7888 36.2686C15.7895 36.295 15.7902 36.3214 15.7909 36.3485C15.8219 37.339 16.0736 38.3182 16.5 39.2112C16.5138 39.2401 16.5138 39.2401 16.5279 39.2696C16.8341 39.9083 17.225 40.5178 17.6902 41.0529C17.7361 41.1062 17.7801 41.1606 17.8238 41.2157C18.0844 41.5353 18.3832 41.8462 18.7 42.1105C18.7183 42.1263 18.7366 42.1422 18.7554 42.1585C19.188 42.5321 19.6595 42.8545 20.16 43.1303C20.1746 43.1385 20.1892 43.1466 20.2042 43.1551C21.8634 44.0829 23.849 44.2953 27.7423 43.9125C28.2233 43.7757 28.6871 43.6014 29.14 43.3902C29.1597 43.3811 29.1795 43.372 29.1998 43.3625C29.9801 42.997 30.7164 42.4936 31.3439 41.9031C31.388 41.8618 31.4327 41.8221 31.4788 41.7831C31.646 41.6384 31.8048 41.4774 31.9476 41.3087C31.9857 41.2641 32.0254 41.2213 32.065 41.1782C32.2755 40.9443 32.4591 40.6879 32.64 40.4309C32.649 40.4182 32.6579 40.4055 32.6671 40.3924C32.8197 40.174 32.9516 39.9443 33.08 39.711C33.0901 39.6929 33.1002 39.6747 33.1105 39.656C33.7868 38.4282 33.9831 37.1225 34.0175 35.7438C34.0195 35.6642 34.0216 35.5847 34.0237 35.5052C34.053 34.3943 34.0632 33.2839 34.0627 32.1726C34.0627 32.043 34.0627 31.9133 34.0627 31.7836C34.0627 31.7647 34.0627 31.7458 34.0627 31.7263C34.0627 31.6878 34.0627 31.6493 34.0627 31.6108C34.0628 31.2528 34.0627 30.8947 34.0626 30.5367C34.0625 30.2376 34.0625 29.9384 34.0626 29.6393C34.0631 27.9797 34.0616 26.32 34.0506 24.6604C34.0505 24.6441 34.0504 24.6279 34.0503 24.6111C34.0433 23.5591 34.034 22.5071 34.02 21.4551C33.9071 21.3978 33.8193 21.3869 33.6936 21.3889C33.6754 21.389 33.6572 21.3891 33.6384 21.3891C33.5989 21.3893 33.5594 21.3896 33.5199 21.39C33.4563 21.3907 33.3926 21.391 33.329 21.3912C33.1927 21.3918 33.0564 21.3928 32.92 21.3939C32.252 21.3988 31.5871 21.3925 30.92 21.3551C30.899 21.354 30.899 21.354 30.8776 21.3528C30.7203 21.3438 30.5633 21.3328 30.4063 21.3201C30.3854 21.3185 30.3645 21.3168 30.3429 21.3151C28.3299 21.1554 26.3363 20.7787 20.6347 18.6036C19.6136 18.1018 18.5483 17.9804 17.4214 17.9967ZM9.54004 30.733C9.51985 30.751 9.51985 30.751 9.49925 30.7694C9.13 31.1099 8.96307 31.6287 8.94046 32.119C8.92589 32.698 9.13977 33.2183 9.53504 33.6361C10.095 34.1734 10.8084 34.2559 11.5511 34.2549C11.5877 34.2549 11.6244 34.2549 11.6611 34.255C11.7374 34.255 11.8136 34.255 11.8899 34.2549C11.987 34.2548 12.0842 34.2548 12.1814 34.2549C12.2569 34.255 12.3324 34.255 12.408 34.2549C12.4438 34.2549 12.4796 34.2549 12.5154 34.255C12.5656 34.255 12.6158 34.255 12.6659 34.2548C12.6875 34.2549 12.6875 34.2549 12.7096 34.255C12.8284 34.2545 12.9403 34.2431 13.06 34.2323C13.06 32.873 13.06 31.5137 13.06 30.1132C11.1729 29.9734 11.1729 29.9734 9.54004 30.733ZM36.72 30.1332C36.72 31.4859 36.72 32.8386 36.72 34.2323C37.3624 34.2495 37.3624 34.2495 38.0047 34.256C38.0687 34.256 38.1326 34.2564 38.1966 34.2568C38.4186 34.2574 38.639 34.2509 38.8604 34.2343C38.8817 34.2327 38.9029 34.2311 38.9249 34.2295C39.4362 34.1872 39.8971 33.9958 40.26 33.6324C40.2818 33.6128 40.2818 33.6128 40.304 33.5927C40.6211 33.3012 40.8205 32.8042 40.8428 32.379C40.8566 31.9549 40.8138 31.5927 40.62 31.2129C40.6093 31.1918 40.5986 31.1707 40.5876 31.1489C40.3368 30.6895 39.9111 30.366 39.4128 30.2175C38.994 30.1025 38.5553 30.1098 38.1247 30.1106C38.0565 30.1107 37.9884 30.1106 37.9203 30.1104C37.5196 30.1107 37.1209 30.1226 36.72 30.1332ZM21.44 46.6695C21.44 48.042 21.44 49.4145 21.44 50.8286C23.7236 50.8286 26.0072 50.8286 28.36 50.8286C28.36 49.4561 28.36 48.0836 28.36 46.6695C26.0764 46.6695 23.7928 46.6695 21.44 46.6695ZM65.9163 50.4936C65.6626 50.7935 65.5248 51.1531 65.5425 51.5472C65.5835 51.9636 65.7686 52.3192 66.0889 52.5901C66.4372 52.8495 66.8444 52.9546 67.276 52.8982C67.6671 52.8213 68.0131 52.6209 68.2379 52.2881C68.4551 51.9535 68.5364 51.5496 68.4585 51.1574C68.3709 50.7727 68.1434 50.4308 67.8113 50.2125C67.1627 49.8254 66.4311 49.9481 65.9163 50.4936ZM8.75714 53.5245C8.73512 53.5252 8.71309 53.5258 8.69039 53.5266C8.29904 53.5393 7.90422 53.5682 7.52254 53.6604C7.50123 53.6655 7.47992 53.6706 7.45796 53.6759C6.7621 53.8485 6.08327 54.1592 5.53139 54.6216C5.50078 54.6471 5.46967 54.672 5.43855 54.6969C5.1395 54.9387 4.86584 55.2162 4.64004 55.5275C4.62294 55.5505 4.60583 55.5735 4.58871 55.5964C4.46785 55.7602 4.36061 55.9305 4.26004 56.1074C4.25264 56.1202 4.24524 56.1331 4.23762 56.1463C3.77412 56.9579 3.63896 57.8533 3.63593 58.7737C3.63574 58.8119 3.63554 58.85 3.63533 58.8881C3.63479 58.9933 3.63436 59.0984 3.63397 59.2035C3.63361 59.296 3.63319 59.3885 3.63277 59.4809C3.63141 59.7829 3.63029 60.0848 3.62923 60.3867C3.62889 60.4859 3.62853 60.585 3.62816 60.6841C3.62106 62.6031 3.61863 64.522 3.62004 72.9437C3.62006 72.9653 3.62008 72.987 3.6201 73.0093C3.62115 74.0736 3.62274 75.1378 3.62545 76.2021C3.62608 76.4471 3.62656 76.6921 3.62695 76.9372C3.6274 77.2089 3.62805 77.4807 3.629 77.7524C3.62948 77.8877 3.62986 78.023 3.62999 78.1583C3.63011 78.2805 3.63051 78.4027 3.63112 78.525C3.63129 78.5685 3.63137 78.612 3.63134 78.6555C3.63112 79.0349 3.6558 79.419 3.75379 79.7871C3.75887 79.8067 3.76395 79.8263 3.76919 79.8465C3.95687 80.541 4.37381 81.2292 4.94004 81.6817C4.96792 81.7044 4.96792 81.7044 4.99636 81.7275C5.92683 82.4711 7.19183 82.7393 8.36256 82.6251C9.16493 82.5348 9.88968 82.2531 10.58 81.8417C10.6227 81.8164 10.6653 81.7912 10.708 81.7659C10.7763 81.7255 10.8445 81.685 10.9127 81.6445C11.0906 81.5388 11.2695 81.435 11.4488 81.3319C11.5929 81.2491 11.7366 81.1657 11.88 81.0818C12.0451 80.9854 12.2106 80.8897 12.3763 80.7944C12.5542 80.6921 12.7312 80.5882 12.9075 80.4832C13.1489 80.3396 13.3924 80.1999 13.6365 80.0611C13.9454 79.8853 14.2526 79.7068 14.5594 79.5275C14.7706 79.4042 14.9825 79.2822 15.1944 79.1601C15.303 79.0976 15.4115 79.0349 15.52 78.9723C15.5634 78.9473 15.6067 78.9223 15.65 78.8973C15.6715 78.885 15.6929 78.8726 15.715 78.8598C16.1267 78.6224 16.5384 78.3849 16.95 78.1475C16.9715 78.1351 16.9929 78.1228 17.015 78.11C17.0584 78.085 17.1018 78.06 17.1451 78.035C17.253 77.9728 17.3608 77.9106 17.4686 77.8483C17.7048 77.7119 17.9412 77.5762 18.1781 77.4411C18.3393 77.3492 18.4999 77.2564 18.66 77.1627C18.8311 77.0626 19.0028 76.9635 19.175 76.8653C19.1867 76.8586 19.1984 76.852 19.2104 76.8451C19.3055 76.7908 19.4007 76.7366 19.4959 76.6824C19.5789 76.6351 19.662 76.5877 19.745 76.5404C19.7567 76.5337 19.7684 76.527 19.7804 76.5202C19.9604 76.4174 20.1397 76.3134 20.3186 76.2087C20.4944 76.1059 20.6712 76.0047 20.8483 75.904C20.9659 75.8371 21.0832 75.7697 21.1999 75.701C21.704 75.405 22.214 75.1418 22.8138 75.2852C23.1065 75.3646 23.347 75.5344 23.5013 75.7996C23.6796 76.1208 23.7564 76.4413 23.68 76.8078C23.6006 77.071 23.4539 77.2733 23.26 77.4627C23.2466 77.4765 23.2332 77.4903 23.2193 77.5046C22.9573 77.7582 22.5946 77.9261 22.2815 78.107C22.2015 78.1533 22.1217 78.1999 22.0419 78.2466C21.7904 78.3935 21.5381 78.5392 21.2857 78.6846C21.1771 78.7471 21.0686 78.8097 20.96 78.8723C20.9167 78.8973 20.8734 78.9223 20.83 78.9473C20.8086 78.9597 20.7871 78.9721 20.765 78.9848C20.18 79.3222 19.595 79.6597 19.01 79.9971C18.9886 80.0095 18.9671 80.0218 18.945 80.0346C18.9017 80.0596 18.8585 80.0845 18.8152 80.1095C18.7061 80.1724 18.597 80.2354 18.4879 80.2984C18.2062 80.4613 17.9237 80.6225 17.64 80.7819C17.64 80.7885 17.64 80.7951 17.64 80.8019C24.4182 80.8019 31.1964 80.8019 38.18 80.8019C38.1866 78.3934 38.1932 75.985 38.2 73.5035C38.2672 73.1232 38.3587 72.7629 38.6877 72.53C39.0274 72.317 39.4349 72.2635 39.8285 72.3375C40.1423 72.4212 40.4055 72.6062 40.5703 72.8885C40.5801 72.9067 40.5899 72.9249 40.6 72.9437C40.6092 72.9602 40.6184 72.9768 40.6279 72.9938C40.6841 73.1047 40.7171 73.218 40.745 73.3386C40.7483 73.3524 40.7516 73.3662 40.7549 73.3804C40.8068 73.623 40.803 73.8776 40.8024 74.1245C40.8024 74.1535 40.8025 74.1825 40.8025 74.2116C40.8025 74.2905 40.8025 74.3694 40.8024 74.4482C40.8023 74.5337 40.8023 74.6191 40.8023 74.7045C40.8023 74.8522 40.8023 74.9999 40.8021 75.1476C40.802 75.3611 40.8019 75.5746 40.8019 75.7881C40.8019 76.1346 40.8017 76.4811 40.8015 76.8276C40.8014 77.164 40.8012 77.5005 40.8011 77.8369C40.8011 77.8576 40.8011 77.8784 40.8011 77.8998C40.8011 78.004 40.8011 78.1082 40.801 78.2123C40.8008 79.0755 40.8005 79.9387 40.8 80.8019C41.4713 80.8037 42.1426 80.8051 42.8139 80.806C42.8931 80.8061 42.9723 80.8062 43.0515 80.8063C43.0673 80.8063 43.083 80.8064 43.0993 80.8064C43.3548 80.8067 43.6103 80.8074 43.8658 80.8081C44.1279 80.8088 44.3899 80.8093 44.652 80.8094C44.8138 80.8095 44.9756 80.8099 45.1373 80.8105C45.2613 80.811 45.3852 80.8111 45.5092 80.811C45.5601 80.811 45.611 80.8111 45.662 80.8114C45.7313 80.8118 45.8006 80.8117 45.87 80.8115C45.8903 80.8118 45.9106 80.812 45.9315 80.8122C45.9501 80.8121 45.9686 80.8119 45.9877 80.8118C46.0037 80.8118 46.0197 80.8118 46.0362 80.8118C46.0977 80.7979 46.1202 80.77 46.16 80.7219C46.1722 80.6734 46.1722 80.6734 46.1709 80.6197C46.1713 80.5989 46.1717 80.5782 46.1721 80.5568C46.1721 80.534 46.1721 80.5112 46.1721 80.4877C46.1725 80.4636 46.1728 80.4394 46.1731 80.4144C46.1739 80.3472 46.1744 80.28 46.1746 80.2128C46.175 80.155 46.1755 80.0971 46.1761 80.0392C46.1781 79.8498 46.1791 79.6603 46.1798 79.4708C46.18 79.4229 46.1802 79.375 46.1805 79.3271C46.1825 78.8669 46.1828 78.4066 46.1827 77.9464C46.1826 77.7481 46.1827 77.5498 46.1827 77.3515C46.1828 76.9624 46.1828 76.5732 46.1827 76.1841C46.1827 75.8417 46.1827 75.4993 46.1827 75.1569C46.1827 75.1224 46.1827 75.1224 46.1827 75.0873C46.1827 74.9939 46.1827 74.9006 46.1827 74.8072C46.1828 73.9333 46.1827 73.0595 46.1826 72.1856C46.1825 71.42 46.1825 70.6543 46.1826 69.8886C46.1828 69.0205 46.1828 68.1523 46.1827 67.2842C46.1827 67.1901 46.1827 67.0961 46.1827 67.002C46.1827 66.9673 46.1827 66.9673 46.1827 66.9319C46.1827 66.6148 46.1827 66.2977 46.1827 65.9806C46.1829 64.7691 46.1823 63.5575 46.18 62.346C46.18 62.3229 46.18 62.2998 46.1799 62.276C46.1788 61.6639 46.1773 61.0517 46.1751 60.4395C46.1749 60.3917 46.1748 60.3439 46.1746 60.296C46.1745 60.2725 46.1744 60.2489 46.1743 60.2247C46.1738 60.0612 46.1733 59.8978 46.173 59.7343C46.1725 59.5365 46.1719 59.3386 46.171 59.1408C46.1705 59.04 46.1701 58.9392 46.17 58.8385C46.1707 58.0878 46.1707 58.0878 46.045 57.3496C46.0399 57.3293 46.0348 57.309 46.0295 57.288C45.9473 56.9709 45.8362 56.6751 45.68 56.3873C45.673 56.374 45.6659 56.3608 45.6586 56.3471C45.5079 56.064 45.3274 55.8121 45.12 55.5675C45.1065 55.5513 45.093 55.5351 45.0791 55.5184C45.0314 55.4613 45.0314 55.4613 44.98 55.4076C44.9668 55.4076 44.9536 55.4076 44.94 55.4076C44.9042 55.4514 44.8707 55.4955 44.8375 55.5413C44.8158 55.5708 44.794 55.6003 44.7722 55.6299C44.7606 55.6457 44.7489 55.6615 44.7369 55.6779C44.673 55.7639 44.6077 55.8487 44.5425 55.9337C44.4391 56.069 44.337 56.205 44.2363 56.3424C44.1179 56.5038 43.997 56.6631 43.875 56.8218C43.7081 57.0389 43.5419 57.2563 43.38 57.4771C43.2162 57.7005 43.0476 57.9203 42.8792 58.1403C42.7263 58.3401 42.5745 58.5406 42.4258 58.7435C42.3386 58.8623 42.2496 58.9797 42.16 59.0967C42.0227 59.2763 41.8879 59.4575 41.7543 59.6399C41.5882 59.8665 41.421 60.0922 41.2522 60.3168C41.1323 60.4764 41.0138 60.6371 40.8956 60.798C40.8582 60.8489 40.8206 60.8996 40.7831 60.9504C40.7704 60.9675 40.7578 60.9846 40.7448 61.0022C40.7207 61.0348 40.6965 61.0674 40.6724 61.1C40.6414 61.1419 40.6107 61.184 40.58 61.2263C40.565 61.2469 40.5499 61.2676 40.5343 61.2889C40.4298 61.4636 40.419 61.6907 40.46 61.8861C40.483 61.9631 40.5107 62.0383 40.5385 62.1136C40.7791 62.7696 40.9373 63.4661 40.96 64.1656C40.9607 64.1856 40.9607 64.1856 40.9614 64.206C40.9859 65.0786 40.7906 65.9352 40.38 66.705C40.3732 66.718 40.3664 66.731 40.3594 66.7444C40.1716 67.0994 39.9337 67.4208 39.6632 67.7172C39.624 67.7605 39.5856 67.8043 39.5475 67.8485C39.4344 67.9781 39.3109 68.0933 39.18 68.2047C39.1635 68.219 39.1469 68.2334 39.1299 68.2481C38.6971 68.617 38.2161 68.9023 37.7256 69.1864C37.6566 69.2265 37.5877 69.2668 37.5189 69.3072C37.507 69.3142 37.495 69.3213 37.4827 69.3285C37.4583 69.3428 37.4338 69.3572 37.4094 69.3715C37.1913 69.4996 36.9726 69.6265 36.7533 69.7525C36.5989 69.8414 36.4456 69.9319 36.2925 70.0231C36.0848 70.1467 35.8756 70.2675 35.6655 70.387C35.5157 70.4723 35.3664 70.5584 35.2175 70.6454C34.9875 70.78 34.7567 70.9132 34.5257 71.0463C34.4171 71.1088 34.3086 71.1714 34.2 71.234C34.1567 71.259 34.1134 71.284 34.07 71.309C34.0379 71.3276 34.0379 71.3276 34.005 71.3465C33.7667 71.484 33.5284 71.6215 33.29 71.7589C33.2686 71.7713 33.2471 71.7837 33.225 71.7964C33.1817 71.8214 33.1383 71.8464 33.0949 71.8714C32.9871 71.9336 32.8793 71.9959 32.7714 72.0582C32.5362 72.194 32.3006 72.3293 32.0647 72.4639C31.8093 72.6097 31.5546 72.7566 31.3 72.9037C31.0219 73.0643 30.7436 73.2246 30.4646 73.3838C30.2747 73.4921 30.0852 73.6012 29.8959 73.7106C29.784 73.7751 29.6721 73.8395 29.5599 73.9035C29.5481 73.9102 29.5364 73.9169 29.5243 73.9238C29.477 73.9508 29.4296 73.9778 29.3822 74.0048C29.2573 74.0758 29.1327 74.1474 29.0093 74.2209C28.5421 74.4987 28.0109 74.7741 27.4485 74.6383C27.0833 74.5252 26.834 74.3105 26.6546 73.9742C26.5182 73.6948 26.4716 73.3876 26.558 73.085C26.6312 72.8811 26.7349 72.7049 26.88 72.5437C26.8902 72.532 26.9003 72.5202 26.9107 72.5081C27.1516 72.247 27.4882 72.081 27.7924 71.9059C27.9022 71.8428 28.0112 71.7785 28.12 71.7139C28.3 71.6074 28.4804 71.5016 28.6609 71.396C28.861 71.2789 29.0607 71.161 29.2598 71.0422C29.3754 70.9735 29.4915 70.906 29.6087 70.8402C29.6331 70.8265 29.6574 70.8127 29.6817 70.799C29.728 70.7729 29.7743 70.7471 29.8209 70.7216C29.8415 70.7099 29.8621 70.6983 29.8833 70.6863C29.9016 70.6762 29.9198 70.6661 29.9386 70.6557C29.9815 70.6276 29.9815 70.6276 29.9997 70.5874C30.0002 70.5232 29.9742 70.4859 29.9418 70.4308C29.9288 70.4082 29.9157 70.3857 29.9023 70.3625C29.8878 70.3381 29.8733 70.3137 29.8588 70.2892C29.844 70.2639 29.8292 70.2386 29.8145 70.2133C29.777 70.1489 29.7392 70.0847 29.7014 70.0206C29.6697 69.9668 29.6383 69.9128 29.6069 69.8589C29.5614 69.7806 29.5157 69.7024 29.47 69.6242C29.3961 69.498 29.3231 69.3712 29.25 69.2445C29.1539 69.0776 29.0573 68.9109 28.96 68.7446C28.85 68.5564 28.7409 68.3678 28.6321 68.1789C28.5486 68.034 28.4645 67.8893 28.38 67.7448C28.27 67.5567 28.1609 67.368 28.0521 67.1792C27.9574 67.0147 27.8618 66.8507 27.766 66.6869C27.6297 66.4535 27.4949 66.2194 27.36 65.9852C27.2845 65.9852 27.2359 66.0149 27.1711 66.0497C27.1582 66.0565 27.1454 66.0633 27.1322 66.0703C27.0902 66.0926 27.0482 66.1151 27.0063 66.1377C26.9919 66.1454 26.9775 66.153 26.9627 66.161C26.7365 66.2818 26.5139 66.4079 26.2931 66.5385C26.1796 66.6056 26.065 66.6705 25.95 66.735C25.7736 66.8342 25.5985 66.9354 25.4238 67.0376C25.2116 67.1617 24.9987 67.2844 24.7857 67.4071C24.6771 67.4696 24.5686 67.5322 24.46 67.5948C24.4167 67.6198 24.3734 67.6448 24.33 67.6698C24.2979 67.6884 24.2979 67.6884 24.265 67.7073C23.55 68.1197 23.55 68.1197 23.485 68.1572C23.4417 68.1822 23.3984 68.2072 23.3551 68.2322C23.2463 68.2949 23.1375 68.3577 23.0286 68.4204C22.8188 68.5412 22.6091 68.6624 22.4 68.7846C22.1691 68.9195 21.9375 69.0532 21.7057 69.1867C21.5971 69.2492 21.4886 69.3118 21.38 69.3745C21.3367 69.3994 21.2934 69.4244 21.25 69.4494C21.2179 69.468 21.2179 69.468 21.185 69.4869C20.99 69.5994 20.99 69.5994 20.925 69.6369C20.8817 69.6619 20.8384 69.6869 20.7951 69.7118C20.6863 69.7746 20.5775 69.8373 20.4686 69.9C20.2588 70.0209 20.0491 70.1421 19.84 70.2643C19.6091 70.3992 19.3775 70.5329 19.1457 70.6663C19.0371 70.7289 18.9286 70.7915 18.82 70.8541C18.7767 70.8791 18.7334 70.9041 18.69 70.9291C18.6579 70.9477 18.6579 70.9477 18.625 70.9666C17.39 71.6789 17.39 71.6789 17.325 71.7164C17.2817 71.7414 17.2384 71.7664 17.1951 71.7914C17.0863 71.8541 16.9775 71.9169 16.8686 71.9796C16.6596 72.1 16.4508 72.2208 16.2425 72.3425C16.0571 72.451 15.8708 72.5578 15.6842 72.6641C15.5223 72.7564 15.3609 72.8495 15.2 72.9437C15.0155 73.0517 14.83 73.1581 14.6442 73.264C14.4823 73.3563 14.3209 73.4494 14.16 73.5435C13.9755 73.6516 13.79 73.758 13.6042 73.8639C13.4423 73.9561 13.2809 74.0492 13.12 74.1434C12.9481 74.244 12.7756 74.3434 12.6025 74.4421C12.4206 74.5458 12.2389 74.6498 12.0575 74.7545C12.0364 74.7667 12.0152 74.7789 11.9935 74.7915C11.8832 74.8551 11.7731 74.9189 11.6632 74.983C10.7547 75.5123 10.7547 75.5123 10.2625 75.5093C10.2431 75.5092 10.2236 75.5091 10.2036 75.509C10.0677 75.5067 9.94631 75.4967 9.82003 75.4431C9.80023 75.4348 9.78044 75.4266 9.76004 75.418C9.45366 75.2775 9.27112 75.0347 9.15254 74.7258C9.07563 74.5113 9.03949 74.2933 9.02873 74.0665C9.02791 74.0494 9.02708 74.0322 9.02623 74.0145C9.01602 73.7795 9.01708 73.5443 9.01713 73.3091C9.01707 73.2566 9.017 73.204 9.01693 73.1514C9.01676 73.0244 9.01671 72.8975 9.0167 72.7705C9.01669 72.6671 9.01664 72.5638 9.01658 72.4604C9.01641 72.1661 9.01631 71.8718 9.01633 71.5776C9.01633 71.5539 9.01633 71.5539 9.01633 71.5297C9.01633 71.5139 9.01633 71.4981 9.01633 71.4818C9.01634 71.2256 9.01615 70.9694 9.01587 70.7132C9.01558 70.4489 9.01544 70.1846 9.01546 69.9204C9.01546 69.7725 9.01541 69.6246 9.01519 69.4767C9.01501 69.3508 9.01497 69.2249 9.01511 69.0991C9.01517 69.0351 9.01515 68.9711 9.015 68.9071C9.01365 68.3043 9.01386 67.6293 9.46004 67.1649C9.66264 66.9778 9.92376 66.8615 10.2 66.845C10.2258 66.8434 10.2258 66.8434 10.2521 66.8418C10.6074 66.8308 10.9333 66.9248 11.2 67.1649C11.2616 67.234 11.312 67.306 11.36 67.3849C11.3709 67.4027 11.3817 67.4205 11.3929 67.4389C11.4582 67.5572 11.4996 67.6788 11.535 67.8086C11.539 67.8229 11.543 67.8372 11.5471 67.852C11.6185 68.1335 11.6261 68.4232 11.6264 68.7118C11.6266 68.7471 11.6268 68.7825 11.627 68.8178C11.6276 68.9125 11.6279 69.0072 11.6281 69.1019C11.6284 69.2013 11.629 69.3007 11.6295 69.4001C11.6304 69.5878 11.6312 69.7756 11.6318 69.9633C11.6326 70.1772 11.6336 70.3911 11.6346 70.6051C11.6366 71.0447 11.6384 71.4843 11.64 71.9239C11.691 71.8984 11.7419 71.873 11.7928 71.8475C11.8071 71.8404 11.8214 71.8333 11.8362 71.8259C12.1549 71.6666 12.4671 71.4992 12.774 71.3181C12.9086 71.2387 13.0443 71.1613 13.18 71.0841C13.3539 70.985 13.5273 70.8852 13.7 70.7841C13.8955 70.6697 14.092 70.557 14.2888 70.4448C14.4461 70.3551 14.6032 70.2649 14.76 70.1743C14.9515 70.0637 15.1434 69.9537 15.3354 69.8441C15.5254 69.7358 15.7149 69.6267 15.9042 69.5174C16.0751 69.4186 16.2465 69.3207 16.418 69.223C16.6012 69.1185 16.7835 69.0127 16.9655 68.9061C17.1185 68.8167 17.2727 68.7293 17.4272 68.6425C17.5656 68.5645 17.703 68.485 17.84 68.4047C18.0148 68.3023 18.1906 68.2019 18.3671 68.1026C18.5056 68.0247 18.643 67.9451 18.78 67.8648C18.936 67.7734 19.0925 67.6834 19.25 67.5948C19.4054 67.5075 19.5599 67.4187 19.7138 67.3287C19.887 67.2273 20.0607 67.1269 20.235 67.0275C20.2467 67.0208 20.2583 67.0142 20.2704 67.0073C20.3655 66.953 20.4607 66.8988 20.5559 66.8446C20.6389 66.7973 20.722 66.7499 20.805 66.7025C20.8167 66.6959 20.8284 66.6892 20.8404 66.6824C21.0204 66.5796 21.1997 66.4756 21.3786 66.3708C21.531 66.2818 21.6841 66.1939 21.8375 66.1064C22.084 65.9659 22.33 65.8244 22.5757 65.6824C22.6838 65.62 22.7919 65.5577 22.9 65.4953C22.9434 65.4703 22.9867 65.4453 23.03 65.4203C24.85 64.3706 24.85 64.3706 24.915 64.3331C24.9583 64.3081 25.0016 64.2831 25.0449 64.2581C25.1538 64.1954 25.2626 64.1326 25.3714 64.0699C25.6011 63.9376 25.8304 63.8048 26.0593 63.6711C26.2059 63.5855 26.3529 63.5005 26.5 63.4158C26.7274 63.2848 26.9541 63.1529 27.1807 63.0205C27.3005 62.9506 27.4203 62.8807 27.5401 62.8109C27.6397 62.7528 27.7392 62.6948 27.8386 62.6367C28.0462 62.5154 28.2542 62.3947 28.4625 62.2748C28.6412 62.1719 28.8192 62.0679 28.9966 61.9628C29.1278 61.885 29.2595 61.8079 29.3913 61.7312C29.5689 61.6277 29.7464 61.524 29.9238 61.42C29.9359 61.4129 29.948 61.4057 29.9605 61.3984C30.0223 61.3622 30.0841 61.326 30.1459 61.2897C30.2552 61.2256 30.3646 61.1615 30.4739 61.0975C30.51 61.0763 30.5461 61.0552 30.5822 61.034C30.6923 60.9695 30.8023 60.905 30.9124 60.8405C30.9745 60.8042 31.0367 60.7678 31.0988 60.7314C31.1109 60.7243 31.1231 60.7172 31.1356 60.7098C31.2758 60.6277 31.4158 60.5453 31.5556 60.4625C31.7824 60.3281 32.0098 60.195 32.24 60.0665C32.2712 60.0491 32.2712 60.0491 32.303 60.0314C33.38 59.4335 34.5559 58.9751 35.8038 58.9805C35.8217 58.9806 35.8397 58.9806 35.8582 58.9806C36.136 58.9817 36.4068 58.9923 36.68 59.0467C36.7004 59.0507 36.7208 59.0547 36.7418 59.0588C37.2694 59.1643 37.7581 59.3499 38.2358 59.5944C38.3029 59.6287 38.3699 59.6592 38.44 59.6866C38.595 59.4845 38.7495 59.2822 38.9 59.0767C39.0118 58.9242 39.1259 58.7737 39.2408 58.6236C39.3284 58.5089 39.4147 58.3933 39.5 58.2769C39.6118 58.1244 39.7259 57.9739 39.8408 57.8237C39.9284 57.7091 40.0147 57.5935 40.1 57.4771C40.2117 57.3247 40.3257 57.1743 40.4406 57.0243C40.5308 56.9062 40.6196 56.7871 40.7075 56.6673C40.8069 56.5317 40.9081 56.3979 41.011 56.265C41.1881 56.0356 41.363 55.8046 41.5342 55.5708C41.6347 55.434 41.7376 55.2991 41.8408 55.1643C41.9284 55.0497 42.0147 54.9341 42.1 54.8177C42.1985 54.6832 42.2987 54.5501 42.4 54.4178C42.5065 54.2786 42.6121 54.1388 42.7163 53.9979C42.7279 53.9822 42.7395 53.9666 42.7515 53.9504C42.7623 53.9358 42.7731 53.9211 42.7842 53.906C42.7936 53.8933 42.8029 53.8806 42.8126 53.8675C42.844 53.8222 42.8719 53.7753 42.9 53.7279C42.7257 53.6969 42.5512 53.6738 42.3752 53.6541C42.3484 53.6511 42.3216 53.6481 42.2948 53.645C42.2391 53.6387 42.1833 53.6325 42.1275 53.6262C42.0569 53.6183 41.9863 53.6103 41.9156 53.6023C41.8604 53.596 41.8052 53.5898 41.75 53.5836C41.7115 53.5793 41.6731 53.5749 41.6347 53.5705C41.3443 53.5383 41.0552 53.5233 40.7633 53.5169C40.7448 53.5165 40.7264 53.516 40.7073 53.5156C40.1699 53.5038 39.6324 53.5049 39.0949 53.5054C38.9955 53.5055 38.8961 53.5055 38.7967 53.5054C37.14 53.3993 37.14 53.3993 35.69 54.0415C35.6384 54.0894 35.5849 54.1337 35.53 54.1778C35.4581 54.236 35.3884 54.2955 35.32 54.3578C35.234 54.4361 35.1449 54.5096 35.0544 54.5827C34.9845 54.6406 34.9177 54.7016 34.8506 54.7628C34.7986 54.8089 34.7454 54.8528 34.6913 54.8964C34.5957 54.9737 34.5052 55.0552 34.4149 55.1384C34.362 55.1858 34.3079 55.2306 34.2525 55.2751C34.1566 55.3524 34.0666 55.4345 33.9768 55.5187C33.893 55.5967 33.8056 55.669 33.7163 55.7406C33.6521 55.7941 33.591 55.8503 33.53 55.9074C33.4521 55.9804 33.3734 56.0506 33.29 56.1174C33.1819 56.2042 33.081 56.2974 32.9797 56.3919C32.8878 56.4775 32.7929 56.5594 32.6972 56.6406C32.5667 56.7516 32.4388 56.8645 32.3136 56.9815C32.2486 57.042 32.182 57.0992 32.1125 57.1547C32.0069 57.2393 31.9093 57.3311 31.811 57.4241C31.723 57.5068 31.632 57.5836 31.5375 57.6589C31.4658 57.719 31.398 57.7827 31.33 57.847C31.2286 57.9429 31.1252 58.0333 31.016 58.1203C30.9494 58.1758 30.8867 58.2348 30.8238 58.2944C30.6892 58.4212 30.548 58.5361 30.4 58.6468C30.3888 58.6553 30.3776 58.6638 30.366 58.6725C29.8143 59.0865 29.188 59.3821 28.4826 59.2974C27.8594 59.1779 27.3572 58.7328 27 58.2269C26.9853 58.2061 26.9705 58.1852 26.9553 58.1637C26.7063 57.8034 26.4894 57.419 26.2688 57.0408C26.1651 56.8631 26.0597 56.6866 25.9525 56.5111C25.8295 56.3094 25.7079 56.1069 25.5875 55.9037C25.5557 55.8499 25.5238 55.7961 25.4919 55.7423C25.4803 55.7227 25.4803 55.7227 25.4684 55.7027C25.357 55.5149 25.2445 55.3277 25.1319 55.1406C25.085 55.0626 25.0381 54.9845 24.9913 54.9064C24.9771 54.8829 24.963 54.8593 24.9489 54.8357C24.9393 54.8199 24.9298 54.804 24.92 54.7877C24.8595 54.8441 24.8172 54.8998 24.7756 54.9711C24.7633 54.9919 24.7511 55.0127 24.7385 55.0342C24.7188 55.0681 24.7188 55.0681 24.6988 55.1026C24.6848 55.1264 24.6709 55.1502 24.6569 55.174C24.627 55.225 24.5972 55.2759 24.5674 55.3269C24.494 55.452 24.4198 55.5767 24.3457 55.7014C24.322 55.7412 24.2984 55.781 24.2748 55.8209C24.2001 55.9466 24.1253 56.0722 24.05 56.1975C23.9901 56.2971 23.9305 56.3969 23.8713 56.4969C23.8639 56.5094 23.8565 56.5218 23.849 56.5346C23.8338 56.5602 23.8187 56.5858 23.8035 56.6114C23.6582 56.8568 23.5116 57.1013 23.363 57.3447C23.2945 57.4572 23.2263 57.5699 23.1592 57.6832C23.028 57.9047 22.8971 58.1227 22.74 58.3269C22.7263 58.3451 22.7126 58.3633 22.6984 58.382C22.3248 58.858 21.8378 59.2181 21.2263 59.3004C20.5671 59.3626 19.9334 59.0844 19.43 58.6743C19.3266 58.5885 19.2259 58.4998 19.1269 58.4088C19.0772 58.3643 19.0258 58.3225 18.9738 58.2807C18.8775 58.2029 18.787 58.1203 18.6967 58.0358C18.6302 57.9738 18.5623 57.9151 18.4913 57.8583C18.3909 57.7777 18.2975 57.6912 18.2039 57.603C18.1346 57.5382 18.0642 57.4764 17.99 57.4171C17.8899 57.3371 17.7971 57.2509 17.7039 57.1631C17.6346 57.0983 17.5642 57.0365 17.49 56.9772C17.4029 56.9075 17.3212 56.8337 17.24 56.7573C17.1418 56.6648 17.041 56.5778 16.9356 56.4935C16.8599 56.4306 16.7885 56.3634 16.7167 56.2961C16.6502 56.2342 16.5823 56.1755 16.5113 56.1186C16.4238 56.0485 16.3416 55.9743 16.26 55.8974C16.1613 55.8045 16.0601 55.7171 15.9543 55.6324C15.8943 55.5827 15.837 55.5306 15.78 55.4775C15.7059 55.4085 15.6303 55.3423 15.5513 55.2788C15.4557 55.202 15.3662 55.1203 15.2768 55.0365C15.1925 54.9581 15.1048 54.8853 15.015 54.8132C14.9548 54.7633 14.8972 54.711 14.84 54.6577C14.7478 54.5719 14.6525 54.4917 14.5543 54.4127C14.4979 54.366 14.4439 54.3174 14.39 54.2678C14.3008 54.1858 14.2092 54.108 14.1146 54.0322C14.0788 54.0031 14.0434 53.9733 14.0086 53.943C13.571 53.5657 13.1207 53.5274 12.5659 53.517C12.5445 53.5165 12.5232 53.5161 12.5012 53.5157C11.939 53.505 11.3767 53.5042 10.8144 53.5043C10.7149 53.5043 10.6155 53.5041 10.516 53.5039C9.92948 53.5025 9.34342 53.5045 8.75714 53.5245ZM27.24 53.528C27.3042 53.6564 27.368 53.7787 27.4425 53.9004C27.4636 53.9351 27.4846 53.9698 27.5056 54.0045C27.5172 54.0238 27.5289 54.043 27.5409 54.0628C27.6192 54.1928 27.6964 54.3235 27.7738 54.454C27.8654 54.6086 27.9572 54.7632 28.0498 54.9173C28.1519 55.0871 28.2529 55.2575 28.354 55.428C28.3779 55.4682 28.4018 55.5085 28.4257 55.5488C28.4335 55.562 28.4413 55.5751 28.4493 55.5887C28.5114 55.6932 28.5739 55.7973 28.6366 55.9014C28.681 55.9753 28.7248 56.0496 28.768 56.1242C28.783 56.1498 28.783 56.1498 28.7982 56.1759C28.8184 56.2105 28.8384 56.2451 28.8582 56.2798C28.8681 56.2965 28.8779 56.3132 28.888 56.3304C28.9009 56.3527 28.9009 56.3527 28.914 56.3754C28.9226 56.3859 28.9312 56.3965 28.94 56.4073C29.0234 56.4073 29.0439 56.3727 29.1038 56.3161C29.1237 56.2975 29.1437 56.2789 29.1636 56.2603C29.1822 56.2428 29.2009 56.2254 29.22 56.2074C29.2936 56.1415 29.3685 56.0772 29.4437 56.0132C29.5805 55.8967 29.7149 55.7783 29.8469 55.6564C29.9373 55.5732 30.0301 55.493 30.1236 55.4134C30.2605 55.2969 30.3949 55.1785 30.5269 55.0565C30.6173 54.9734 30.7101 54.8931 30.8036 54.8135C30.9188 54.7155 31.033 54.6169 31.1438 54.514C31.2163 54.4467 31.2903 54.3822 31.3675 54.3203C31.4821 54.2281 31.5887 54.1283 31.6959 54.0278C31.7915 53.9382 31.8905 53.8529 31.9905 53.7683C32.0032 53.7576 32.0158 53.7468 32.0289 53.7357C32.0542 53.7142 32.0796 53.6928 32.1051 53.6714C32.1586 53.6261 32.2009 53.5867 32.24 53.528C30.59 53.528 28.94 53.528 27.24 53.528ZM17.62 53.588C17.77 53.7378 17.9232 53.884 18.0888 54.0166C18.1892 54.0971 18.2826 54.1837 18.3762 54.2719C18.4454 54.3367 18.5159 54.3985 18.59 54.4578C18.6901 54.5378 18.783 54.624 18.8762 54.7118C18.9455 54.7766 19.0159 54.8384 19.09 54.8977C19.1901 54.9777 19.283 55.0639 19.3762 55.1517C19.4455 55.2165 19.5159 55.2783 19.59 55.3376C19.6901 55.4176 19.783 55.5038 19.8762 55.5916C19.9455 55.6564 20.0159 55.7182 20.09 55.7775C20.1772 55.8472 20.2589 55.921 20.34 55.9974C20.4408 56.0922 20.5436 56.1819 20.6516 56.2685C20.7157 56.32 20.7779 56.3735 20.84 56.4273C20.9245 56.3312 20.9841 56.2216 21.0475 56.1111C21.0728 56.0676 21.098 56.024 21.1232 55.9804C21.1361 55.9582 21.1489 55.936 21.1621 55.9131C21.2199 55.8132 21.2781 55.7135 21.3363 55.6138C21.3477 55.5943 21.359 55.5747 21.3708 55.5546C21.4709 55.3831 21.5714 55.2117 21.6719 55.0404C21.7682 54.8763 21.8642 54.7121 21.96 54.5477C22.0677 54.3631 22.1757 54.1785 22.2838 53.9941C22.2912 53.9815 22.2986 53.9688 22.3062 53.9558C22.3274 53.9198 22.3485 53.8837 22.3696 53.8477C22.3818 53.827 22.3939 53.8062 22.4065 53.7849C22.4286 53.7473 22.4513 53.71 22.4744 53.673C22.5033 53.6308 22.5033 53.6308 22.5 53.588C20.8896 53.588 19.2792 53.588 17.62 53.588ZM33.9349 62.1404C33.8183 62.2076 33.6999 62.2713 33.5813 62.3348C33.4 62.4321 33.2218 62.5339 33.0446 62.6383C32.8915 62.7283 32.7368 62.8151 32.5813 62.9009C32.3942 63.0042 32.2089 63.1097 32.0253 63.219C31.9334 63.2734 31.8411 63.327 31.7488 63.3808C31.7075 63.4048 31.6662 63.4289 31.625 63.453C31.6043 63.465 31.5836 63.4771 31.5623 63.4895C31.4814 63.5366 31.4006 63.5837 31.3197 63.6309C31.2798 63.6542 31.2399 63.6775 31.2 63.7007C31.1004 63.7588 31.0009 63.8168 30.9014 63.875C30.7151 63.9838 30.5286 64.0923 30.3415 64.1999C30.0994 64.3391 29.8589 64.4807 29.62 64.6255C29.8171 64.9882 30.02 65.3474 30.2288 65.7035C30.3027 65.8296 30.3758 65.9561 30.4488 66.0827C30.4612 66.1043 30.4737 66.1258 30.4865 66.148C30.537 66.2357 30.5875 66.3233 30.6379 66.4109C30.7714 66.6426 30.9051 66.8741 31.04 67.105C31.175 67.3358 31.3087 67.5674 31.4422 67.7992C31.5048 67.9077 31.5674 68.0162 31.63 68.1247C31.706 68.2563 31.7819 68.3879 31.8578 68.5196C32.005 68.7747 32.1523 69.0297 32.3 69.2845C32.3753 69.2563 32.4431 69.2219 32.5126 69.1818C32.5347 69.1692 32.5567 69.1565 32.5795 69.1435C32.6034 69.1297 32.6273 69.1158 32.6513 69.102C32.6763 69.0876 32.7014 69.0732 32.7265 69.0588C32.7785 69.0289 32.8306 68.999 32.8826 68.9691C33.0016 68.9006 33.1208 68.8326 33.24 68.7646C33.2867 68.7379 33.3334 68.7113 33.38 68.6846C33.4034 68.6713 33.4267 68.6579 33.45 68.6446C33.4616 68.638 33.4731 68.6314 33.485 68.6246C33.52 68.6046 33.555 68.5846 33.59 68.5646C33.6016 68.558 33.6131 68.5514 33.625 68.5446C33.6484 68.5313 33.6717 68.518 33.695 68.5046C33.7533 68.4714 33.8116 68.4381 33.8699 68.4048C33.9756 68.3443 34.0813 68.284 34.1871 68.2237C34.4392 68.08 34.6909 67.9357 34.9413 67.7891C35.065 67.7168 35.189 67.6451 35.3132 67.5738C35.5716 67.4254 35.8276 67.2735 36.0827 67.1195C36.1357 67.0876 36.1888 67.0558 36.242 67.024C36.9694 66.6074 36.9694 66.6074 37.62 66.0852C37.6326 66.0738 37.6452 66.0625 37.6582 66.0508C38.0811 65.6599 38.3322 65.0344 38.3632 64.4671C38.3908 63.7349 38.1846 63.0447 37.7 62.486C37.6853 62.4684 37.6706 62.4508 37.6555 62.4327C37.5254 62.2823 37.3808 62.1618 37.22 62.0461C37.2088 62.038 37.1976 62.0299 37.186 62.0215C36.1282 61.2732 34.9783 61.5388 33.9349 62.1404Z" fill="white"/>
<path d="M53.514 31.9677C53.5427 31.9676 53.5427 31.9676 53.5719 31.9675C53.6359 31.9673 53.7 31.9675 53.764 31.9676C53.8106 31.9676 53.8571 31.9675 53.9036 31.9674C54.0186 31.9673 54.1336 31.9673 54.2485 31.9674C54.3872 31.9675 54.5258 31.9674 54.6645 31.9673C54.9236 31.9671 55.1828 31.967 55.4419 31.9671C55.7046 31.9672 55.9672 31.9672 56.2299 31.9671C56.2464 31.9671 56.263 31.9671 56.2801 31.9671C56.3477 31.967 56.4152 31.967 56.4827 31.967C57.1686 31.9666 57.8545 31.9666 58.5403 31.9666C58.6351 31.9667 58.7299 31.9667 58.8247 31.9667C58.8436 31.9667 58.8624 31.9667 58.8818 31.9667C59.2989 31.9667 59.716 31.9666 60.1331 31.9666C60.2284 31.9666 60.3236 31.9665 60.4188 31.9665C60.457 31.9665 60.4952 31.9665 60.5334 31.9665C60.5524 31.9665 60.5713 31.9665 60.5908 31.9665C60.6291 31.9665 60.6675 31.9665 60.7058 31.9665C61.7931 31.9663 62.8804 31.9662 63.9678 31.9663C63.9879 31.9663 64.008 31.9663 64.0288 31.9663C64.2534 31.9663 64.4779 31.9663 64.7025 31.9664C64.7228 31.9664 64.7431 31.9664 64.764 31.9664C64.9325 31.9664 64.9325 31.9664 65.01 31.9664C66.307 31.9665 67.604 31.9663 68.901 31.966C69.2278 31.9659 69.5545 31.9658 69.8813 31.9657C69.9015 31.9657 69.9216 31.9657 69.9423 31.9657C70.5624 31.9655 71.1824 31.9654 71.8025 31.9654C71.822 31.9654 71.8414 31.9654 71.8615 31.9654C72.2887 31.9654 72.716 31.9654 73.1433 31.9654C73.2961 31.9654 73.449 31.9654 73.6019 31.9654C73.6399 31.9654 73.678 31.9654 73.716 31.9654C74.3223 31.9655 74.9285 31.9653 75.5348 31.9651C76.1623 31.9649 76.7898 31.9649 77.4173 31.9651C77.4847 31.9651 77.5521 31.9652 77.6194 31.9652C77.636 31.9652 77.6525 31.9652 77.6695 31.9652C77.9315 31.9653 78.1934 31.9652 78.4553 31.965C78.7128 31.9648 78.9703 31.9648 79.2277 31.9651C79.3655 31.9652 79.5033 31.9652 79.641 31.965C79.7663 31.9648 79.8916 31.9648 80.0169 31.9651C80.062 31.9652 80.107 31.9651 80.1521 31.965C80.5696 31.9636 80.8971 32.0172 81.2112 32.3193C81.2882 32.4035 81.3466 32.4919 81.3999 32.5926C81.4096 32.6106 81.4192 32.6286 81.4292 32.6472C81.5594 32.9207 81.5716 33.2486 81.4798 33.5352C81.341 33.893 81.1168 34.1189 80.7691 34.2757C80.6274 34.3232 80.4921 34.338 80.3433 34.3372C80.3242 34.3373 80.3051 34.3374 80.2854 34.3374C80.2214 34.3376 80.1574 34.3374 80.0934 34.3373C80.0468 34.3374 80.0003 34.3374 79.9537 34.3375C79.8388 34.3377 79.7239 34.3377 79.609 34.3376C79.4703 34.3375 79.3317 34.3376 79.1931 34.3378C78.934 34.338 78.6749 34.3381 78.4158 34.338C78.1532 34.338 77.8906 34.338 77.6281 34.3382C77.6032 34.3382 77.6032 34.3382 77.5778 34.3382C77.5103 34.3382 77.4427 34.3383 77.3752 34.3383C76.6706 34.3387 75.9659 34.3388 75.2613 34.3389C75.1854 34.3389 75.1096 34.3389 75.0337 34.3389C75.0055 34.3389 75.0055 34.3389 74.9767 34.3389C74.5596 34.3389 74.1426 34.339 73.7256 34.3391C73.5539 34.3391 73.3822 34.3391 73.2105 34.3392C73.1915 34.3392 73.1725 34.3392 73.153 34.3392C72.0658 34.3395 70.9786 34.3396 69.8915 34.3396C69.8508 34.3396 69.8101 34.3396 69.7694 34.3396C69.5857 34.3396 69.402 34.3396 69.2182 34.3396C69.1363 34.3396 69.0544 34.3396 68.9725 34.3396C68.9315 34.3396 68.8905 34.3396 68.8495 34.3396C67.5527 34.3396 66.256 34.3398 64.9593 34.3404C64.6325 34.3405 64.3058 34.3407 63.9791 34.3408C63.959 34.3408 63.9388 34.3408 63.9181 34.3408C63.2982 34.3411 62.6782 34.3412 62.0582 34.3413C62.0388 34.3413 62.0193 34.3413 61.9993 34.3413C61.5721 34.3413 61.1448 34.3413 60.7176 34.3413C60.5648 34.3413 60.4119 34.3413 60.259 34.3413C60.221 34.3413 60.183 34.3413 60.145 34.3413C59.5388 34.3413 58.9327 34.3415 58.3266 34.3419C57.7161 34.3422 57.1057 34.3423 56.4953 34.3421C56.4109 34.342 56.3266 34.342 56.2423 34.342C56.2175 34.3419 56.2175 34.3419 56.1922 34.3419C55.9303 34.3418 55.6685 34.342 55.4066 34.3423C55.1492 34.3426 54.8918 34.3426 54.6343 34.3422C54.4966 34.3421 54.3589 34.3421 54.2212 34.3424C54.0959 34.3427 53.9706 34.3426 53.8454 34.3422C53.8003 34.3422 53.7552 34.3422 53.7102 34.3424C53.2953 34.3443 52.9626 34.2757 52.6559 33.9733C52.4171 33.7228 52.3372 33.4094 52.3399 33.0725C52.3616 32.752 52.5029 32.482 52.7299 32.2589C52.9527 32.0671 53.222 31.9661 53.514 31.9677Z" fill="white"/>
<path d="M53.5364 26.0892C53.5555 26.0892 53.5746 26.0891 53.5942 26.0891C53.6582 26.0889 53.7222 26.0891 53.7862 26.0892C53.8327 26.0891 53.8792 26.0891 53.9258 26.089C54.0406 26.0888 54.1555 26.0889 54.2703 26.089C54.4089 26.0891 54.5474 26.089 54.686 26.0889C54.9449 26.0887 55.2038 26.0886 55.4627 26.0887C55.7252 26.0888 55.9876 26.0888 56.25 26.0887C56.2749 26.0886 56.2749 26.0886 56.3002 26.0886C56.3677 26.0886 56.4352 26.0886 56.5027 26.0885C57.188 26.0882 57.8733 26.0882 58.5586 26.0882C58.6533 26.0882 58.748 26.0882 58.8427 26.0882C58.8615 26.0882 58.8804 26.0882 58.8997 26.0883C59.3165 26.0883 59.7333 26.0882 60.15 26.0882C60.2452 26.0881 60.3403 26.0881 60.4355 26.0881C60.4737 26.0881 60.5118 26.0881 60.55 26.0881C60.5689 26.0881 60.5879 26.0881 60.6074 26.0881C60.6457 26.0881 60.6839 26.0881 60.7222 26.0881C61.8087 26.0879 62.8951 26.0878 63.9816 26.0879C64.0017 26.0879 64.0218 26.0879 64.0426 26.0879C64.2669 26.0879 64.4913 26.0879 64.7157 26.0879C64.736 26.0879 64.7562 26.0879 64.7771 26.0879C64.9454 26.088 64.9454 26.088 65.0229 26.088C66.3188 26.0881 67.6147 26.0879 68.9106 26.0876C69.2371 26.0875 69.5637 26.0874 69.8902 26.0873C69.9103 26.0873 69.9304 26.0873 69.9511 26.0873C70.5707 26.0871 71.1903 26.087 71.8098 26.087C71.8293 26.087 71.8487 26.087 71.8687 26.087C72.2957 26.087 72.7226 26.087 73.1495 26.087C73.3023 26.087 73.455 26.087 73.6078 26.087C73.6458 26.087 73.6838 26.087 73.7218 26.087C74.3275 26.0871 74.9333 26.0869 75.5391 26.0867C76.166 26.0865 76.793 26.0864 77.42 26.0867C77.4873 26.0867 77.5546 26.0867 77.6219 26.0868C77.6385 26.0868 77.655 26.0868 77.672 26.0868C77.9337 26.0869 78.1954 26.0868 78.4571 26.0866C78.7143 26.0864 78.9716 26.0864 79.2289 26.0866C79.3665 26.0868 79.5041 26.0868 79.6418 26.0866C79.767 26.0863 79.8921 26.0864 80.0173 26.0867C80.0623 26.0868 80.1074 26.0867 80.1524 26.0866C80.5698 26.0852 80.8972 26.1388 81.2112 26.4409C81.2882 26.5251 81.3466 26.6135 81.3999 26.7141C81.4096 26.7322 81.4192 26.7502 81.4292 26.7687C81.5594 27.0423 81.5716 27.3701 81.4798 27.6568C81.3411 28.0145 81.1162 28.2427 80.7672 28.3973C80.6306 28.4449 80.5093 28.4596 80.3657 28.4588C80.337 28.4589 80.337 28.4589 80.3078 28.459C80.2437 28.4592 80.1796 28.459 80.1155 28.4589C80.069 28.459 80.0224 28.459 79.9758 28.4591C79.8608 28.4593 79.7458 28.4593 79.6308 28.4592C79.492 28.4591 79.3533 28.4592 79.2145 28.4593C78.9552 28.4596 78.6959 28.4596 78.4366 28.4596C78.1738 28.4596 77.911 28.4596 77.6482 28.4597C77.6316 28.4597 77.615 28.4598 77.5979 28.4598C77.5303 28.4598 77.4627 28.4598 77.3952 28.4599C76.6899 28.4603 75.9847 28.4604 75.2795 28.4604C75.2036 28.4604 75.1276 28.4604 75.0517 28.4604C75.0234 28.4604 75.0234 28.4604 74.9946 28.4604C74.5772 28.4605 74.1598 28.4605 73.7425 28.4606C73.5706 28.4607 73.3988 28.4607 73.227 28.4608C73.208 28.4608 73.189 28.4608 73.1694 28.4608C72.0814 28.461 70.9933 28.4612 69.9053 28.4612C69.8645 28.4612 69.8238 28.4612 69.7831 28.4612C69.5992 28.4612 69.4153 28.4612 69.2315 28.4612C69.1495 28.4612 69.0675 28.4612 68.9855 28.4612C68.9445 28.4612 68.9034 28.4612 68.8624 28.4612C67.5646 28.4611 66.2667 28.4614 64.9689 28.462C64.6419 28.4621 64.3149 28.4623 63.9879 28.4624C63.9577 28.4624 63.9577 28.4624 63.9269 28.4624C63.3065 28.4627 62.686 28.4628 62.0656 28.4629C62.0461 28.4629 62.0266 28.4629 62.0065 28.4629C61.579 28.4629 61.1514 28.4629 60.7239 28.4629C60.5709 28.4629 60.4179 28.4629 60.2649 28.4629C60.2269 28.4629 60.1888 28.4629 60.1507 28.4629C59.5441 28.4629 58.9375 28.4631 58.3308 28.4635C57.7199 28.4638 57.1089 28.4639 56.498 28.4636C56.4136 28.4636 56.3292 28.4636 56.2448 28.4635C56.2199 28.4635 56.2199 28.4635 56.1946 28.4635C55.9326 28.4634 55.6705 28.4636 55.4084 28.4639C55.1508 28.4642 54.8931 28.4641 54.6355 28.4638C54.4976 28.4637 54.3598 28.4636 54.2219 28.464C54.0965 28.4643 53.9712 28.4642 53.8458 28.4638C53.8007 28.4637 53.7556 28.4638 53.7105 28.464C53.2955 28.4659 52.9627 28.3974 52.6559 28.0948C52.4171 27.8444 52.3372 27.531 52.3399 27.194C52.3621 26.8673 52.5095 26.5964 52.7412 26.3692C52.8209 26.3022 52.9076 26.2539 52.9999 26.2068C53.013 26.2001 53.026 26.1934 53.0394 26.1865C53.2008 26.1085 53.3587 26.0883 53.5364 26.0892Z" fill="white"/>
<path d="M53.5364 20.2105C53.5555 20.2105 53.5746 20.2104 53.5943 20.2104C53.6583 20.2102 53.7222 20.2104 53.7862 20.2105C53.8328 20.2104 53.8793 20.2104 53.9258 20.2103C54.0407 20.2101 54.1556 20.2102 54.2704 20.2103C54.409 20.2104 54.5476 20.2103 54.6861 20.2102C54.9451 20.21 55.2041 20.2099 55.463 20.21C55.7255 20.2101 55.9879 20.2101 56.2504 20.21C56.2752 20.2099 56.2752 20.2099 56.3006 20.2099C56.3681 20.2099 56.4356 20.2099 56.5031 20.2098C57.1885 20.2095 57.8738 20.2095 58.5592 20.2095C58.6539 20.2095 58.7487 20.2095 58.8434 20.2095C58.8622 20.2095 58.881 20.2095 58.9004 20.2096C59.3172 20.2096 59.734 20.2095 60.1508 20.2095C60.246 20.2094 60.3411 20.2094 60.4363 20.2094C60.4745 20.2094 60.5126 20.2094 60.5508 20.2094C60.5698 20.2094 60.5887 20.2094 60.6082 20.2094C60.6465 20.2094 60.6848 20.2094 60.723 20.2094C61.8096 20.2092 62.8961 20.2091 63.9826 20.2092C64.0027 20.2092 64.0229 20.2092 64.0436 20.2092C64.268 20.2092 64.4924 20.2092 64.7168 20.2092C64.7472 20.2092 64.7472 20.2092 64.7782 20.2092C64.9465 20.2093 64.9465 20.2093 65.024 20.2093C66.32 20.2094 67.6161 20.2092 68.9121 20.2089C69.2387 20.2088 69.5653 20.2087 69.8918 20.2086C69.912 20.2086 69.9321 20.2086 69.9528 20.2086C70.5724 20.2084 71.192 20.2083 71.8116 20.2083C71.8408 20.2083 71.8408 20.2083 71.8706 20.2083C72.2975 20.2083 72.7244 20.2083 73.1514 20.2083C73.3041 20.2083 73.4569 20.2083 73.6097 20.2083C73.6477 20.2083 73.6857 20.2083 73.7237 20.2083C74.3295 20.2084 74.9353 20.2082 75.5412 20.208C76.1682 20.2078 76.7952 20.2077 77.4223 20.208C77.4896 20.208 77.5569 20.208 77.6242 20.2081C77.6407 20.2081 77.6572 20.2081 77.6743 20.2081C77.936 20.2082 78.1977 20.2081 78.4595 20.2079C78.7168 20.2077 78.974 20.2077 79.2313 20.2079C79.369 20.2081 79.5066 20.2081 79.6443 20.2079C79.7695 20.2076 79.8946 20.2077 80.0198 20.208C80.0649 20.2081 80.1099 20.208 80.155 20.2079C80.586 20.2064 80.586 20.2064 80.7599 20.2756C80.7727 20.2804 80.7855 20.2853 80.7987 20.2903C81.0656 20.3991 81.2648 20.5804 81.3999 20.8354C81.4096 20.8535 81.4192 20.8715 81.4292 20.89C81.5594 21.1636 81.5716 21.4914 81.4798 21.7781C81.3411 22.1358 81.1162 22.364 80.7672 22.5186C80.6306 22.5662 80.5093 22.5809 80.3657 22.5801C80.337 22.5802 80.337 22.5802 80.3078 22.5803C80.2437 22.5805 80.1796 22.5803 80.1155 22.5802C80.069 22.5803 80.0224 22.5803 79.9758 22.5804C79.8608 22.5806 79.7458 22.5806 79.6308 22.5805C79.492 22.5804 79.3533 22.5805 79.2145 22.5806C78.9552 22.5809 78.6959 22.5809 78.4366 22.5809C78.1738 22.5809 77.911 22.5809 77.6482 22.581C77.6316 22.581 77.615 22.5811 77.5979 22.5811C77.5303 22.5811 77.4627 22.5811 77.3952 22.5812C76.6899 22.5816 75.9847 22.5817 75.2795 22.5817C75.2036 22.5817 75.1276 22.5817 75.0517 22.5817C75.0234 22.5817 75.0234 22.5817 74.9946 22.5817C74.5772 22.5818 74.1598 22.5818 73.7425 22.5819C73.5706 22.582 73.3988 22.582 73.227 22.5821C73.208 22.5821 73.189 22.5821 73.1694 22.5821C72.0814 22.5823 70.9933 22.5825 69.9053 22.5825C69.8645 22.5825 69.8238 22.5825 69.7831 22.5825C69.5992 22.5825 69.4153 22.5825 69.2315 22.5825C69.1495 22.5825 69.0675 22.5825 68.9855 22.5825C68.9445 22.5825 68.9034 22.5825 68.8624 22.5825C67.5646 22.5824 66.2667 22.5827 64.9689 22.5833C64.6419 22.5834 64.3149 22.5836 63.9879 22.5837C63.9577 22.5837 63.9577 22.5837 63.9269 22.5837C63.3065 22.584 62.686 22.5841 62.0656 22.5842C62.0461 22.5842 62.0266 22.5842 62.0065 22.5842C61.579 22.5842 61.1514 22.5842 60.7239 22.5842C60.5709 22.5842 60.4179 22.5842 60.2649 22.5842C60.2269 22.5842 60.1888 22.5842 60.1507 22.5842C59.5441 22.5842 58.9375 22.5844 58.3308 22.5848C57.7199 22.5851 57.1089 22.5852 56.498 22.5849C56.4136 22.5849 56.3292 22.5849 56.2448 22.5848C56.2199 22.5848 56.2199 22.5848 56.1946 22.5848C55.9326 22.5847 55.6705 22.5849 55.4084 22.5852C55.1508 22.5855 54.8931 22.5854 54.6355 22.5851C54.4976 22.585 54.3598 22.5849 54.2219 22.5853C54.0965 22.5856 53.9712 22.5855 53.8458 22.5851C53.8007 22.585 53.7556 22.5851 53.7105 22.5853C53.2955 22.5872 52.9627 22.5187 52.6559 22.2161C52.4171 21.9657 52.3372 21.6523 52.3399 21.3153C52.3621 20.9886 52.5095 20.7177 52.7412 20.4905C52.8209 20.4235 52.9076 20.3752 52.9999 20.3281C53.013 20.3214 53.026 20.3147 53.0394 20.3078C53.2008 20.2298 53.3587 20.2096 53.5364 20.2105Z" fill="white"/>
<path d="M23.2476 37.0359C23.8694 37.4607 24.5833 37.7189 25.3404 37.5915C25.4425 37.5718 25.5414 37.5435 25.6404 37.5116C25.6529 37.5075 25.6653 37.5035 25.6782 37.4994C25.9947 37.3952 26.2796 37.2363 26.5541 37.0492C26.9622 36.7714 27.3491 36.6176 27.8501 36.6805C28.2021 36.755 28.4703 36.9934 28.6622 37.2861C28.8426 37.5958 28.8997 37.9495 28.8104 38.2989C28.6655 38.7324 28.3371 39.0442 27.9804 39.3112C27.9676 39.3208 27.9548 39.3305 27.9416 39.3405C27.0848 39.9842 26.0671 40.2654 25.0043 40.2577C24.9351 40.2572 24.866 40.2573 24.7968 40.2574C24.4376 40.257 24.0814 40.2405 23.7291 40.166C23.6978 40.1595 23.6978 40.1595 23.6659 40.1529C22.871 39.9828 22.1774 39.6173 21.5604 39.0912C21.5482 39.0811 21.5361 39.071 21.5236 39.0606C21.1938 38.7846 20.9941 38.4078 20.9559 37.9817C20.9438 37.6589 21.0643 37.3791 21.2604 37.1316C21.271 37.1174 21.2817 37.1032 21.2927 37.0885C21.8078 36.4429 22.6582 36.6319 23.2476 37.0359Z" fill="white"/>
</g>
<defs>
<clipPath id="clip0_161_699">
<rect width="90" height="90" fill="white" transform="translate(0.5)"/>
</clipPath>
</defs>
</svg>
