<svg width="91" height="90" viewBox="0 0 91 90" fill="none" xmlns="http://www.w3.org/2000/svg">
<g clip-path="url(#clip0_161_677)">
<path d="M15.9034 9.11024C15.946 9.11018 15.9886 9.11009 16.0312 9.10999C16.1474 9.10977 16.2636 9.10992 16.3797 9.11014C16.5069 9.11031 16.6341 9.11013 16.7613 9.10999C16.9848 9.1098 17.2083 9.10983 17.4319 9.11001C17.6728 9.11021 17.9137 9.11027 18.1546 9.11017C18.1776 9.11016 18.1776 9.11016 18.201 9.11015C18.2792 9.11012 18.3574 9.11008 18.4356 9.11005C19.0059 9.1098 19.5762 9.10985 20.1466 9.11004C20.7245 9.11024 21.3024 9.11031 21.8803 9.11021C21.8985 9.11021 21.9167 9.11021 21.9355 9.11021C22.1027 9.11018 22.2698 9.11015 22.4369 9.11012C22.856 9.11005 23.2751 9.11 23.6942 9.10996C23.7134 9.10996 23.7326 9.10995 23.7524 9.10995C24.6987 9.10987 25.645 9.11001 26.5913 9.11017C26.9244 9.11022 27.2575 9.11028 27.5906 9.11033C27.6113 9.11034 27.632 9.11034 27.6533 9.11034C28.613 9.11049 29.5727 9.11051 30.5323 9.11048C30.6161 9.11048 30.6998 9.11048 30.7836 9.11048C31.1412 9.11047 31.4989 9.11046 31.8565 9.11045C32.7977 9.11043 33.739 9.11043 34.6802 9.11044C34.7016 9.11044 34.723 9.11044 34.7451 9.11044C36.1327 9.11046 37.5203 9.11056 38.9078 9.11073C38.9411 9.11074 38.9411 9.11074 38.975 9.11074C39.7169 9.11083 40.4588 9.11093 41.2007 9.11103C41.8792 9.11112 42.5576 9.1112 43.236 9.11128C43.2585 9.11128 43.2809 9.11129 43.304 9.11129C45.4344 9.11154 47.5648 9.1115 49.6952 9.11142C49.8079 9.11142 49.9207 9.11141 50.0335 9.11141C50.0558 9.11141 50.0781 9.11141 50.1011 9.11141C50.1462 9.1114 50.1913 9.1114 50.2363 9.1114C50.2814 9.1114 50.3264 9.1114 50.3715 9.1114C50.8655 9.11138 51.3595 9.11136 51.8535 9.11134C51.9206 9.11134 51.9877 9.11134 52.0548 9.11133C53.4193 9.11129 54.7839 9.11129 56.1484 9.11135C56.1698 9.11135 56.1913 9.11135 56.2133 9.11135C57.1962 9.11139 58.179 9.11145 59.1619 9.11152C59.2672 9.11153 59.3725 9.11154 59.4779 9.11155C59.5091 9.11155 59.5091 9.11155 59.541 9.11155C59.646 9.11156 59.7511 9.11157 59.8561 9.11157C59.8981 9.11158 59.94 9.11158 59.982 9.11158C60.0131 9.11159 60.0131 9.11159 60.0449 9.11159C60.1704 9.1116 60.2959 9.11161 60.4215 9.11162C61.3603 9.11168 62.2991 9.11173 63.2379 9.1117C63.2586 9.1117 63.2793 9.1117 63.3006 9.1117C63.5298 9.11169 63.7591 9.11169 63.9883 9.11168C64.0713 9.11168 64.1543 9.11167 64.2372 9.11167C64.2577 9.11167 64.2782 9.11167 64.2993 9.11167C65.2443 9.11164 66.1894 9.11163 67.1344 9.11178C67.1536 9.11178 67.1727 9.11178 67.1925 9.11178C67.6108 9.11185 68.0292 9.11192 68.4475 9.11201C68.6143 9.11204 68.7812 9.11208 68.948 9.11211C68.9662 9.11211 68.9844 9.11212 69.0032 9.11212C69.5804 9.11224 70.1575 9.11223 70.7347 9.11215C71.3031 9.11207 71.8715 9.11212 72.4398 9.11234C72.5177 9.11237 72.5956 9.1124 72.6735 9.11243C72.6964 9.11244 72.6964 9.11244 72.7197 9.11245C72.9599 9.11253 73.2 9.11248 73.4402 9.11238C73.6753 9.11228 73.9104 9.11232 74.1456 9.11251C74.2707 9.11261 74.3958 9.11264 74.5209 9.1125C74.6346 9.11237 74.7483 9.11243 74.8619 9.11263C74.9025 9.11267 74.9432 9.11265 74.9838 9.11255C75.3446 9.1117 75.7011 9.13652 76.0564 9.20146C76.0799 9.20573 76.1034 9.21 76.1276 9.2144C76.6123 9.30653 77.0863 9.46615 77.5224 9.6976C77.5608 9.71793 77.5995 9.73779 77.6382 9.75759C78.2256 10.0607 78.7751 10.5144 79.1802 11.0373C79.1959 11.0569 79.2116 11.0765 79.2278 11.0967C80.1553 12.262 80.3633 13.608 80.3632 15.0489C80.3632 15.1462 80.3634 15.2434 80.3635 15.3407C80.3637 15.5109 80.3638 15.6811 80.3639 15.8512C80.364 16.1045 80.3642 16.3577 80.3644 16.6109C80.3648 17.0376 80.3651 17.4644 80.3654 17.8911C80.3657 18.3153 80.366 18.7395 80.3664 19.1637C80.3664 19.1769 80.3664 19.1902 80.3664 19.2038C80.3665 19.3517 80.3667 19.4997 80.3668 19.6476C80.367 19.9214 80.3673 20.1952 80.3675 20.4689C80.3675 20.4826 80.3675 20.4963 80.3675 20.5105C80.3681 21.1625 80.3686 21.8145 80.3691 22.4665C80.3691 22.5098 80.3692 22.553 80.3692 22.5962C80.3695 22.914 80.3697 23.2317 80.3699 23.5494C80.3704 24.1083 80.3708 24.6673 80.3712 25.2262C80.3712 25.2689 80.3713 25.3115 80.3713 25.3542C80.3718 26.0009 80.3723 26.6477 80.3729 27.2944C80.3729 27.3081 80.3729 27.3218 80.3729 27.336C80.3732 27.6107 80.3734 27.8855 80.3736 28.1602C80.3738 28.309 80.3739 28.4579 80.374 28.6067C80.374 28.6267 80.374 28.6267 80.3741 28.6471C80.3744 29.0558 80.3747 29.4646 80.375 29.8734C80.3761 32.5751 80.3761 32.5751 80.3861 35.2767C80.3867 35.3805 80.3871 35.4843 80.3874 35.5881C80.3879 35.7225 80.3887 35.8569 80.3897 35.9913C80.39 36.039 80.3902 36.0866 80.3903 36.1343C80.3921 36.8143 80.5682 37.3821 80.9498 37.9458C81.0069 38.0312 81.0615 38.1182 81.1164 38.205C81.1404 38.2427 81.1643 38.2803 81.1882 38.318C81.2002 38.3367 81.2121 38.3555 81.2244 38.3749C81.4222 38.6862 81.6206 38.997 81.8195 39.3076C81.8732 39.3912 81.9267 39.4749 81.9803 39.5586C82.0069 39.6001 82.0334 39.6416 82.06 39.6831C82.1279 39.7892 82.1958 39.8953 82.2637 40.0015C82.3873 40.1947 82.5109 40.3878 82.6358 40.5802C82.7319 40.7284 82.827 40.8774 82.9221 41.0263C82.9978 41.1446 83.0737 41.2627 83.1502 41.3806C83.2408 41.5202 83.3305 41.6603 83.4202 41.8005C83.5462 41.9975 83.6729 42.1941 83.8002 42.3903C83.9267 42.5853 84.0525 42.7806 84.1777 42.9765C84.2849 43.1442 84.3928 43.3114 84.5015 43.4781C84.6024 43.633 84.7019 43.7887 84.8014 43.9444C84.8838 44.0733 84.9666 44.2018 85.0502 44.3299C85.1624 44.502 85.2733 44.675 85.384 44.8481C85.4954 45.0224 85.6076 45.1962 85.7202 45.3697C85.9156 45.6707 86.1089 45.9729 86.3022 46.2753C86.4956 46.5777 86.4956 46.5777 86.6902 46.8793C86.8205 47.0803 86.9494 47.2821 87.0784 47.4839C87.1196 47.5482 87.1608 47.6126 87.202 47.6769C87.3398 47.892 87.4773 48.1072 87.6143 48.3227C87.7035 48.4629 87.7931 48.6028 87.8827 48.7427C88.292 49.3818 88.292 49.3818 88.4602 49.6687C88.4689 49.6836 88.4777 49.6985 88.4867 49.7138C89.3383 51.1657 89.9128 52.7855 89.7107 58.3704C89.5776 58.8735 89.4117 59.3684 89.2214 59.8527C89.2163 59.8658 89.2112 59.879 89.2059 59.8925C89.0211 60.3611 88.7925 60.7769 88.3202 61.0062C87.9557 61.1501 87.6015 61.1416 87.2368 61.0019C86.9537 60.8754 86.7208 60.6266 86.6014 60.3423C86.3677 59.7272 86.6207 59.143 86.8177 58.5558C87.0129 57.9757 87.0129 57.9757 87.1802 57.387C87.1883 57.356 87.1883 57.356 87.1965 57.3243C87.644 55.5801 87.4991 53.6788 86.7202 52.0482C86.7133 52.0337 86.7064 52.0192 86.6993 52.0043C86.6611 51.9248 86.6215 51.8462 86.5807 51.768C86.5592 51.7263 86.5381 51.6844 86.5171 51.6425C86.3743 51.3613 86.2076 51.0955 86.0402 50.8285C86.0146 50.7875 85.989 50.7465 85.9635 50.7054C85.9017 50.6063 85.8397 50.5073 85.7776 50.4084C85.7394 50.3473 85.7013 50.2863 85.6632 50.2252C85.4518 49.8867 85.2389 49.5492 85.0244 49.2126C84.9494 49.0949 84.8747 48.977 84.8002 48.8589C84.5754 48.5027 84.3485 48.1479 84.1213 47.7933C84.0797 47.7283 84.0381 47.6633 83.9965 47.5983C83.8451 47.3615 83.6932 47.1251 83.5402 46.8893C83.4145 46.6957 83.2895 46.5015 83.1652 46.307C83.0345 46.1024 82.9023 45.8989 82.7695 45.6957C82.6813 45.5609 82.5938 45.4256 82.5064 45.2903C82.461 45.2201 82.4156 45.1499 82.3702 45.0797C82.3519 45.0514 82.3335 45.0231 82.3152 44.9948C82.3061 44.9807 82.297 44.9667 82.2877 44.9523C82.0402 44.5699 81.7927 44.1874 81.5452 43.805C81.5361 43.791 81.5271 43.777 81.5177 43.7626C81.4993 43.7341 81.4809 43.7057 81.4625 43.6772C81.4179 43.6083 81.3733 43.5395 81.3287 43.4707C81.2329 43.323 81.1376 43.1749 81.0429 43.0264C80.9883 42.9409 80.9336 42.8556 80.8787 42.7703C80.8541 42.7319 80.8295 42.6935 80.805 42.655C80.7737 42.6058 80.742 42.5568 80.7102 42.5078C80.7013 42.4938 80.6925 42.4797 80.6833 42.4652C80.603 42.3427 80.5019 42.2515 80.3802 42.1704C80.3802 42.1955 80.3802 42.2206 80.3801 42.2464C80.3793 43.3534 80.3783 44.4605 80.377 45.5675C80.377 45.5926 80.377 45.5926 80.377 45.6183C80.3765 45.9831 80.3761 46.3479 80.3756 46.7127C80.3754 46.8916 80.3752 47.0705 80.3749 47.2495C80.3749 47.2673 80.3749 47.2851 80.3749 47.3034C80.3742 47.8796 80.3736 48.4558 80.3732 49.0319C80.3728 49.6245 80.3722 50.217 80.3713 50.8095C80.3712 50.8934 80.3711 50.9772 80.3709 51.0611C80.3709 51.0776 80.3709 51.0941 80.3709 51.1111C80.3705 51.3758 80.3703 51.6405 80.3702 51.9053C80.3701 52.172 80.3698 52.4387 80.3693 52.7053C80.369 52.8634 80.3688 53.0215 80.3689 53.1796C80.369 53.2982 80.3687 53.4169 80.3683 53.5355C80.3682 53.5831 80.3682 53.6306 80.3683 53.6782C80.3706 54.8047 80.102 55.9405 79.4402 56.8671C79.4742 56.9457 79.526 57.0094 79.5789 57.0758C79.5887 57.0881 79.5984 57.1004 79.6084 57.1131C79.6745 57.1962 79.7424 57.2776 79.8114 57.3583C80.1377 57.7417 80.4601 58.1825 80.445 58.7123C80.4163 59.0348 80.2887 59.2803 80.0602 59.5065C80.0454 59.522 80.0307 59.5374 80.0155 59.5532C79.7937 59.7713 79.5054 59.895 79.1952 59.8927C78.6288 59.8879 78.2295 59.5363 77.8464 59.1554C77.8322 59.1412 77.8179 59.127 77.8032 59.1124C77.724 59.033 77.6484 58.9516 77.5752 58.8666C77.5138 58.7965 77.4493 58.7293 77.3852 58.6617C77.2735 58.5436 77.1626 58.4247 77.053 58.3046C76.9956 58.2418 76.9379 58.1793 76.8802 58.1168C76.7943 58.0239 76.7086 57.9307 76.6231 57.8373C76.5556 57.7637 76.488 57.6903 76.4202 57.617C76.2975 57.4841 76.1752 57.3508 76.0531 57.2175C75.9389 57.0928 75.8245 56.9684 75.7098 56.8442C75.634 56.7622 75.5585 56.6799 75.4831 56.5976C75.4156 56.524 75.348 56.4506 75.2802 56.3772C75.2033 56.2941 75.1267 56.2108 75.0502 56.1273C74.944 56.0113 74.8373 55.8957 74.7305 55.7802C74.6704 55.7151 74.6103 55.65 74.5502 55.585C74.5 55.5305 74.4498 55.4761 74.3995 55.4217C74.2938 55.3073 74.1883 55.1927 74.083 55.0779C73.9758 54.9608 73.868 54.8442 73.7602 54.7276C73.6342 54.5913 73.5084 54.4549 73.383 54.318C73.2858 54.2119 73.1882 54.1063 73.0905 54.0006C73.0304 53.9355 72.9703 53.8704 72.9102 53.8054C72.86 53.7509 72.8098 53.6965 72.7595 53.6421C72.6538 53.5277 72.5483 53.4131 72.443 53.2983C72.3358 53.1812 72.228 53.0646 72.1202 52.948C71.9942 52.8117 71.8684 52.6753 71.743 52.5384C71.6458 52.4323 71.5482 52.3267 71.4505 52.221C71.4004 52.1667 71.3503 52.1125 71.3002 52.0582C71.2802 52.0365 71.2602 52.0149 71.2402 51.9932C71.2002 51.9499 71.1602 51.9066 71.1202 51.8632C71.1103 51.8525 71.1004 51.8418 71.0902 51.8307C71.0702 51.8091 71.0502 51.7874 71.0302 51.7658C70.98 51.7114 70.9298 51.657 70.8795 51.6026C70.7738 51.4882 70.6683 51.3736 70.563 51.2587C70.4658 51.1526 70.3682 51.0469 70.2705 50.9413C70.2204 50.887 70.1703 50.8327 70.1202 50.7785C70.1002 50.7568 70.0802 50.7352 70.0602 50.7135C68.7402 49.2838 68.7402 49.2838 68.7102 49.2513C68.6902 49.2296 68.6701 49.2079 68.6501 49.1862C68.6006 49.1326 68.5511 49.079 68.5016 49.0253C68.3945 48.909 68.2869 48.7932 68.1789 48.6777C68.0767 48.5684 67.9752 48.4584 67.8742 48.348C67.7181 48.1775 67.5609 48.0082 67.403 47.8395C67.3137 47.7439 67.2253 47.6476 67.1371 47.5511C67.0719 47.48 67.0061 47.4096 66.9402 47.3392C66.8564 47.2497 66.773 47.1598 66.6902 47.0693C66.596 46.9663 66.501 46.8642 66.4056 46.7624C66.3382 46.6902 66.271 46.6178 66.2043 46.545C65.8624 46.1464 65.8624 46.1464 65.3984 45.9463C64.8639 45.937 64.2844 46.0232 63.8637 46.3858C63.658 46.5922 63.5406 46.8427 63.5339 47.1343C63.5397 47.6853 63.8555 48.1674 64.1196 48.6309C64.1983 48.7693 64.2748 48.9087 64.3502 49.0489C64.4442 49.2235 64.5405 49.3966 64.6386 49.569C64.7261 49.7232 64.8122 49.8783 64.8977 50.0336C64.9044 50.0459 64.9112 50.0581 64.9181 50.0707C64.9248 50.0829 64.9316 50.0952 64.9385 50.1078C64.9522 50.1326 64.9658 50.1573 64.9794 50.182C64.9862 50.1943 64.9929 50.2065 64.9998 50.2192C65.0696 50.3458 65.1399 50.4722 65.2102 50.5985C65.3139 50.7849 65.4172 50.9716 65.5202 51.1584C65.6606 51.413 65.8017 51.6673 65.943 51.9214C66.018 52.0561 66.0928 52.1909 66.1677 52.3257C66.23 52.4377 66.2922 52.5497 66.3545 52.6617C66.4902 52.9057 66.6255 53.15 66.7604 53.3945C66.9064 53.6593 67.0532 53.9235 67.2002 54.1877C67.3607 54.4763 67.521 54.765 67.6804 55.0542C67.7767 55.2288 67.8733 55.4032 67.9702 55.5774C68.0746 55.7652 68.1788 55.953 68.2827 56.141C68.2894 56.1532 68.2961 56.1653 68.303 56.1779C68.405 56.3625 68.5056 56.5479 68.6057 56.7336C68.6792 56.8695 68.7549 57.0041 68.8314 57.1383C68.9287 57.309 69.0212 57.4816 69.1114 57.6561C69.2177 57.8615 69.3286 58.0643 69.4402 58.2668C69.4523 58.2887 69.4643 58.3106 69.4768 58.3332C69.5504 58.4668 69.6242 58.6004 69.698 58.734C69.746 58.821 69.794 58.908 69.8419 58.995C70.1654 59.5829 70.1654 59.5829 70.4989 60.1651C70.5104 60.1847 70.5218 60.2042 70.5335 60.2243C70.582 60.3071 70.6304 60.3898 70.6791 60.4724C71.1694 61.3062 71.4951 62.1604 71.2596 63.1352C71.1276 63.6361 70.8513 64.0699 70.5444 64.4802C69.5739 65.7796 69.1201 67.3558 69.3388 68.9687C69.394 69.3411 69.4876 69.6997 69.5884 70.0617C69.9448 71.3426 70.1664 72.655 70.2402 73.9833C70.241 73.9963 70.2418 74.0093 70.2426 74.0227C70.2631 74.3586 70.2648 74.6946 70.268 75.0309C70.2731 75.5746 70.2813 76.118 70.2977 76.6615C70.2981 76.675 70.2985 76.6885 70.2989 76.7025C70.3096 77.0566 70.3218 77.4108 70.334 77.7649C70.3361 77.8249 70.3382 77.885 70.3403 77.945C70.3464 78.1214 70.3525 78.2977 70.3589 78.474C70.3826 79.1312 70.3826 79.1312 70.3829 79.3723C70.3829 79.3954 70.3829 79.3954 70.3829 79.419C70.3798 79.8838 70.2716 80.3561 69.9334 80.6921C69.6508 80.9563 69.3377 81.0378 68.9564 81.0274C68.6136 81.0113 68.3521 80.8693 68.1216 80.6201C67.7802 80.212 67.7366 79.666 67.7196 79.157C67.7182 79.1181 67.7167 79.0791 67.7152 79.0401C67.712 78.9569 67.709 78.8736 67.7061 78.7904C67.7014 78.6571 67.6964 78.5238 67.6913 78.3905C67.6834 78.1788 67.6756 77.9672 67.6679 77.7556C67.6523 77.3255 67.6364 76.8954 67.6202 76.4653C67.6194 76.4433 67.6185 76.4214 67.6177 76.3987C67.5764 75.3035 67.5259 74.2092 67.4521 73.1156C67.449 73.0696 67.4459 73.0236 67.4429 72.9776C67.3859 72.1269 67.248 71.3234 67.0462 70.496C66.7744 69.3816 66.7744 69.3816 66.7202 68.9244C66.7185 68.9106 66.7168 68.8968 66.7151 68.8826C66.6784 68.5729 66.673 68.265 66.6739 67.9534C66.674 67.9287 66.674 67.9039 66.6741 67.8784C66.6749 67.5232 66.6825 67.176 66.7402 66.8249C66.7453 66.7915 66.7453 66.7915 66.7506 66.7574C66.8722 65.9755 67.0999 65.22 67.4402 64.5054C67.4494 64.486 67.4585 64.4665 67.468 64.4464C67.7097 63.9359 68.0072 63.4631 68.3313 63.0014C68.5124 62.7426 68.6151 62.5279 68.5802 62.2059C68.5394 62.0274 68.441 61.8741 68.3487 61.7183C68.173 61.4207 68.0307 61.1071 67.8889 60.7925C67.6039 60.1602 67.2909 59.4836 66.6072 59.2099C66.3674 59.1266 66.1258 59.0839 65.872 59.0826C65.8444 59.0824 65.8444 59.0824 65.8162 59.0822C65.7769 59.082 65.7375 59.0819 65.6981 59.0818C65.6418 59.0816 65.5855 59.081 65.5291 59.0804C65.333 59.0794 65.1382 59.084 64.9428 59.1002C64.2101 59.1595 63.4779 59.1549 62.7435 59.1537C62.5423 59.1533 62.3411 59.1534 62.1399 59.1534C61.7641 59.1535 61.3883 59.1533 61.0125 59.153C60.6323 59.1526 60.2521 59.1524 59.8719 59.1523C59.8478 59.1523 59.8236 59.1523 59.7988 59.1523C59.6758 59.1523 59.5528 59.1522 59.4298 59.1522C58.5557 59.1521 57.6816 59.1517 56.8075 59.1511C55.9152 59.1506 55.0229 59.1502 54.1306 59.15C54.117 59.15 54.1033 59.15 54.0892 59.15C53.7838 59.1499 53.4785 59.1498 53.1731 59.1498C52.6085 59.1496 52.0438 59.1495 51.4792 59.1494C51.4364 59.1493 51.3936 59.1493 51.3508 59.1493C50.0073 59.149 48.6639 59.1484 47.3204 59.1479C47.2313 59.1478 47.1422 59.1478 47.0532 59.1478C46.1883 59.1474 45.3235 59.147 44.4586 59.1467C43.518 59.1462 42.5775 59.1458 41.6369 59.1454C41.5476 59.1454 41.4584 59.1454 41.3692 59.1453C40.025 59.1448 38.6807 59.1442 37.3365 59.1439C37.2937 59.1439 37.2509 59.1439 37.2081 59.1439C36.6442 59.1437 36.0802 59.1436 35.5163 59.1435C35.2113 59.1434 34.9064 59.1433 34.6014 59.1433C34.5878 59.1433 34.5741 59.1433 34.5601 59.1432C33.6674 59.143 32.7747 59.1426 31.882 59.1421C30.9974 59.1415 30.1128 59.1411 29.2282 59.141C29.1061 59.141 28.9839 59.1409 28.8618 59.1409C28.8259 59.1409 28.8259 59.1409 28.7892 59.1409C28.4097 59.1408 28.0302 59.1406 27.6507 59.1402C27.2778 59.1399 26.9049 59.1397 26.532 59.1398C26.3133 59.1399 26.0945 59.1397 25.8758 59.1394C25.7306 59.1391 25.5854 59.1391 25.4402 59.1393C25.3578 59.1394 25.2755 59.1394 25.1931 59.1391C25.1183 59.1389 25.0434 59.1389 24.9686 59.1392C24.9294 59.1392 24.8901 59.139 24.8509 59.1388C24.4993 59.1407 24.1823 59.2286 23.9258 59.4784C23.744 59.6702 23.6102 59.8823 23.4749 60.1084C23.4519 60.1469 23.4287 60.1853 23.4054 60.2237C22.888 61.076 22.4579 62.0327 22.6951 63.0502C22.8242 63.5555 23.0605 64.0043 23.3689 64.4229C24.3154 65.7117 24.5767 67.363 24.3427 68.9215C24.2725 69.3755 24.1623 69.8173 24.0299 70.2567C23.5388 71.8906 23.4186 73.6049 23.339 75.92C23.3381 75.9482 23.3381 75.9482 23.3371 75.977C23.3359 76.0151 23.3347 76.0531 23.3334 76.0912C23.3247 76.3557 23.3152 76.6202 23.3045 76.8846C23.3038 76.9007 23.3032 76.9168 23.3025 76.9334C23.2993 77.0138 23.2961 77.0943 23.2928 77.1747C23.2915 77.2065 23.2902 77.2383 23.2889 77.2701C23.288 77.2936 23.288 77.2936 23.287 77.3175C23.2713 77.7081 23.258 78.0985 23.2489 78.4893C23.2485 78.5079 23.2481 78.5264 23.2476 78.5456C23.2434 78.7265 23.2394 78.9074 23.2359 79.0883C23.2346 79.1544 23.2332 79.2205 23.2317 79.2867C23.2311 79.3171 23.2305 79.3475 23.23 79.3778C23.2221 79.8566 23.146 80.3221 22.8002 80.6818C22.6609 80.804 22.5146 80.8985 22.3402 80.9618C22.3227 80.9681 22.3052 80.9745 22.2872 80.9811C21.9492 81.0839 21.5792 81.0347 21.2664 80.8805C20.9251 80.6835 20.7245 80.3843 20.6193 80.0069C20.5899 79.8717 20.5945 79.7348 20.5949 79.5972C20.5948 79.567 20.5948 79.5369 20.5947 79.5067C20.5946 79.4258 20.5948 79.3449 20.595 79.264C20.5952 79.213 20.5953 79.1619 20.5953 79.1109C20.596 78.645 20.6042 78.18 20.6231 77.7144C20.6356 77.402 20.6441 77.0897 20.6504 76.7771C20.6508 76.7563 20.6512 76.7356 20.6516 76.7143C20.6554 76.5255 20.659 76.3367 20.6624 76.1479C20.676 75.3813 20.6963 74.6143 20.7552 73.8496C20.7569 73.8277 20.7585 73.8059 20.7602 73.7833C20.8713 72.3301 21.1171 70.91 21.4981 69.504C21.8237 68.2992 21.7329 67.0792 21.2602 65.9251C21.2531 65.9079 21.2461 65.8906 21.2388 65.8728C21.0284 65.3666 20.7356 64.8962 20.403 64.4615C19.8546 63.7432 19.5313 62.9567 19.6519 62.0411C19.7143 61.6258 19.8637 61.2347 20.0597 60.865C20.0804 60.8258 20.1008 60.7865 20.1211 60.7471C20.2263 60.5448 20.3384 60.3465 20.4511 60.1483C20.5213 60.0246 20.5908 59.9006 20.6602 59.7765C20.7493 59.6171 20.8389 59.458 20.9289 59.2991C21.0365 59.1092 21.1427 58.9185 21.2485 58.7277C21.3284 58.5837 21.409 58.4401 21.4902 58.2968C21.6222 58.0639 21.7522 57.8299 21.8821 57.5958C21.9447 57.4828 22.0075 57.3699 22.0702 57.257C22.0952 57.212 22.1202 57.1671 22.1452 57.1221C22.2952 56.8521 22.2952 56.8521 22.3327 56.7847C22.3577 56.7396 22.3827 56.6946 22.4077 56.6496C22.47 56.5376 22.5322 56.4256 22.5945 56.3137C22.7636 56.0096 22.9319 55.7052 23.0999 55.4006C23.16 55.2916 23.2201 55.1827 23.2802 55.0737C23.3135 55.0133 23.3469 54.953 23.3802 54.8926C23.3935 54.8684 23.4069 54.8442 23.4202 54.8201C23.4268 54.8081 23.4334 54.7962 23.4402 54.7838C23.4602 54.7476 23.4802 54.7114 23.5002 54.6751C23.5101 54.6572 23.5101 54.6572 23.5202 54.6389C23.5335 54.6147 23.5469 54.5905 23.5602 54.5664C23.5935 54.506 23.6268 54.4457 23.6601 54.3854C23.7206 54.2757 23.7811 54.166 23.8417 54.0564C23.8758 53.9948 23.9099 53.9332 23.9439 53.8715C23.9506 53.8595 23.9573 53.8474 23.9642 53.8349C24.0658 53.6509 24.1661 53.4662 24.2659 53.2811C24.3377 53.1483 24.4116 53.0167 24.4864 52.8855C24.5949 52.6953 24.6983 52.5027 24.8008 52.3092C24.8878 52.145 24.9766 51.982 25.0689 51.8207C25.1891 51.6108 25.3025 51.3976 25.4155 51.1838C25.4299 51.1566 25.4443 51.1293 25.4587 51.1021C25.4657 51.0888 25.4728 51.0755 25.48 51.0618C25.5687 50.8943 25.6598 50.7282 25.7509 50.562C25.8039 50.4652 25.8564 50.3681 25.9089 50.2711C25.9252 50.2411 25.9252 50.2411 25.9417 50.2106C25.9636 50.1702 25.9855 50.1297 26.0074 50.0893C26.0616 49.9891 26.1159 49.8889 26.1702 49.7887C26.1809 49.7689 26.1917 49.7491 26.2027 49.7286C26.2566 49.6291 26.3105 49.5296 26.3645 49.4302C26.386 49.3906 26.4075 49.3509 26.4289 49.3113C26.4396 49.2917 26.4502 49.272 26.4612 49.2518C26.518 49.147 26.5746 49.0421 26.6311 48.9372C26.6429 48.9152 26.6547 48.8932 26.6669 48.8705C26.6907 48.8263 26.7144 48.7822 26.738 48.738C26.7919 48.6376 26.8463 48.5376 26.9025 48.4385C27.2012 47.9119 27.3801 47.2974 27.2277 46.6894C27.1365 46.3915 26.9716 46.1338 26.7002 45.9695C26.3514 45.8114 25.9818 45.7994 25.6202 45.9296C25.5991 45.937 25.578 45.9445 25.5563 45.9522C25.1337 46.1154 24.8053 46.4533 24.5145 46.7902C24.4568 46.8561 24.3966 46.9195 24.3364 46.9831C24.31 47.0112 24.2835 47.0393 24.2571 47.0674C24.2376 47.0881 24.2376 47.0881 24.2177 47.1093C24.1343 47.1982 24.0518 47.288 23.9692 47.3777C23.9196 47.4316 23.8699 47.4854 23.8202 47.5392C23.8002 47.5609 23.7802 47.5825 23.7602 47.6042C21.7202 49.8137 21.7202 49.8137 21.6902 49.8462C21.6702 49.8678 21.6502 49.8895 21.6302 49.9111C21.58 49.9655 21.5298 50.0199 21.4795 50.0743C21.3829 50.1789 21.2864 50.2836 21.1902 50.3886C21.084 50.5046 20.9773 50.6201 20.8705 50.7357C20.8204 50.7899 20.7703 50.8442 20.7202 50.8984C20.7002 50.9201 20.6802 50.9418 20.6602 50.9634C20.6503 50.9742 20.6404 50.9849 20.6302 50.9959C20.5402 51.0934 20.5402 51.0934 20.5102 51.1259C20.4902 51.1475 20.4702 51.1692 20.4502 51.1908C20.4 51.2453 20.3498 51.2997 20.2995 51.3541C20.2029 51.4586 20.1064 51.5633 20.0102 51.6683C19.8838 51.8063 19.7568 51.9437 19.6298 52.0811C19.5231 52.1966 19.4164 52.3121 19.3102 52.4281C19.1838 52.5661 19.0568 52.7035 18.9298 52.8409C18.8231 52.9564 18.7164 53.072 18.6102 53.1879C18.4838 53.3259 18.3568 53.4633 18.2298 53.6008C18.1231 53.7162 18.0164 53.8318 17.9102 53.9478C17.7838 54.0858 17.6568 54.2232 17.5298 54.3606C17.4231 54.4761 17.3164 54.5916 17.2102 54.7076C17.0838 54.8456 16.9568 54.983 16.8298 55.1204C16.7231 55.2359 16.6164 55.3515 16.5102 55.4674C16.404 55.5834 16.2973 55.699 16.1905 55.8145C16.1404 55.8688 16.0903 55.9231 16.0402 55.9773C15.98 56.0426 15.9198 56.1078 15.8595 56.173C15.7538 56.2874 15.6483 56.4019 15.5431 56.5168C15.4656 56.6014 15.3877 56.6858 15.3098 56.77C15.2431 56.8422 15.1766 56.9146 15.1102 56.9871C15.0337 57.0706 14.957 57.1539 14.8802 57.237C14.7665 57.36 14.6533 57.4834 14.5402 57.607C14.417 57.7415 14.2936 57.8758 14.1698 58.0098C14.1031 58.082 14.0366 58.1543 13.9702 58.2268C13.864 58.3428 13.7573 58.4584 13.6505 58.5739C13.6104 58.6173 13.5703 58.6608 13.5302 58.7042C13.5101 58.726 13.4901 58.7477 13.47 58.7694C13.421 58.8223 13.3722 58.8754 13.3237 58.9289C12.4795 59.8571 12.4795 59.8571 11.87 59.8926C11.5239 59.9053 11.2403 59.8107 10.9764 59.5803C10.944 59.5494 10.9119 59.5182 10.8802 59.4865C10.8563 59.463 10.8563 59.463 10.832 59.4391C10.6164 59.2145 10.5088 58.9409 10.5118 58.6304C10.532 58.0916 10.8992 57.6401 11.2486 57.2628C11.2921 57.2158 11.3352 57.1687 11.3777 57.1208C11.3875 57.1098 11.3974 57.0987 11.4075 57.0873C11.4546 57.0293 11.4973 56.9682 11.5402 56.9071C11.5257 56.8865 11.5111 56.8658 11.4961 56.8445C11.2421 56.4776 11.0433 56.0901 10.9002 55.6674C10.8947 55.6513 10.8892 55.6352 10.8835 55.6187C10.6478 54.9186 10.5973 54.1756 10.597 53.4423C10.5969 53.3932 10.5968 53.3441 10.5967 53.2951C10.5965 53.1887 10.5964 53.0824 10.5963 52.9761C10.5961 52.818 10.5959 52.6599 10.5956 52.5018C10.5951 52.2358 10.5947 51.9698 10.5944 51.7038C10.594 51.4406 10.5937 51.1774 10.5933 50.9141C10.5932 50.8978 10.5932 50.8814 10.5932 50.8645C10.593 50.7812 10.5929 50.698 10.5928 50.6147C10.5918 50.0257 10.591 49.4367 10.5901 48.8477C10.5894 48.2756 10.5885 47.7035 10.5876 47.1314C10.5876 47.1138 10.5876 47.0961 10.5876 47.0779C10.5873 46.9007 10.587 46.7235 10.5867 46.5463C10.5862 46.1853 10.5856 45.8243 10.5851 45.4633C10.585 45.4467 10.585 45.4301 10.585 45.413C10.5833 44.3055 10.5817 43.1979 10.5802 42.0904C10.5426 42.1404 10.505 42.1904 10.4674 42.2404C10.4569 42.2544 10.4464 42.2683 10.4356 42.2827C10.2154 42.5758 10.0155 42.8796 9.81908 43.1891C9.76129 43.2798 9.70269 43.37 9.64395 43.4601C9.63338 43.4763 9.62282 43.4925 9.61193 43.5092C9.59129 43.5409 9.57065 43.5726 9.55001 43.6043C9.50244 43.6773 9.45506 43.7505 9.4077 43.8238C9.39877 43.8376 9.38984 43.8514 9.38064 43.8656C9.36278 43.8932 9.34492 43.9208 9.32705 43.9485C9.28145 44.019 9.23582 44.0895 9.1902 44.1599C9.17186 44.1883 9.15353 44.2166 9.1352 44.2449C8.8052 44.7548 8.8052 44.7548 8.77772 44.7973C8.75931 44.8257 8.74089 44.8542 8.72248 44.8826C8.67793 44.9515 8.63335 45.0203 8.58871 45.0891C8.48023 45.2564 8.37254 45.4241 8.2652 45.5921C8.12266 45.8151 7.97833 46.037 7.8335 46.2585C7.69531 46.47 7.55881 46.6827 7.4227 46.8956C7.29262 47.0991 7.16143 47.3018 7.02957 47.5041C6.87888 47.7354 6.72978 47.9678 6.58107 48.2004C6.48769 48.3464 6.39354 48.4918 6.29888 48.637C6.21193 48.7705 6.12598 48.9046 6.0402 49.0389C5.94413 49.1892 5.84767 49.3393 5.7502 49.4888C5.61199 49.7008 5.4756 49.9139 5.33945 50.1273C5.30226 50.1854 5.2649 50.2434 5.22746 50.3013C4.94651 50.7373 4.69298 51.1848 4.4602 51.6483C4.45167 51.6651 4.44315 51.682 4.43437 51.6994C3.70347 53.1541 3.35726 54.8619 3.93691 58.0971C4.05912 58.4628 4.1995 58.8161 4.3602 59.1666C4.36793 59.1837 4.37566 59.2007 4.38363 59.2183C4.5031 59.4813 4.6378 59.7352 4.7802 59.9864C4.78912 60.0022 4.79804 60.018 4.80724 60.0342C5.08323 60.5173 5.40897 60.9735 5.72324 61.4321C5.79161 61.532 5.85963 61.6322 5.9277 61.7323C5.9564 61.7745 5.98509 61.8167 6.01379 61.8589C6.02807 61.8799 6.04234 61.9009 6.05705 61.9225C6.11395 62.0062 6.17086 62.0899 6.22778 62.1736C6.2703 62.2361 6.31283 62.2986 6.35535 62.3611C6.41149 62.4437 6.46764 62.5262 6.52379 62.6087C6.67272 62.8276 6.82154 63.0466 6.9702 63.2657C7.23403 63.6545 7.49834 64.043 7.76317 64.4311C7.80094 64.4865 7.8387 64.5419 7.87645 64.5973C8.02679 64.8178 8.17735 65.0382 8.32817 65.2585C8.36094 65.3063 8.3937 65.3542 8.42645 65.4021C8.491 65.4965 8.55558 65.5908 8.6202 65.6852C8.62931 65.6985 8.63842 65.7118 8.64781 65.7255C8.7774 65.9146 8.90823 66.1029 9.03932 66.291C9.12352 66.412 9.20716 66.5332 9.2902 66.6549C9.38576 66.795 9.48211 66.9345 9.57895 67.0736C9.59916 67.1027 9.59916 67.1027 9.61979 67.1323C9.68431 67.225 9.74904 67.3174 9.81434 67.4095C10.062 67.7593 10.2847 68.1188 10.4921 68.4939C10.5155 68.536 10.5392 68.578 10.563 68.62C11.3499 70.038 11.6684 71.6853 11.7117 73.2909C11.7147 73.4038 11.718 73.5166 11.7213 73.6294C11.722 73.6542 11.7227 73.6789 11.7234 73.7044C11.7522 74.7085 11.7865 75.7124 11.824 76.7162C11.8255 76.7572 11.827 76.7982 11.8286 76.8392C11.8491 77.391 11.8699 77.9428 11.891 78.4946C11.8991 78.7068 11.9071 78.919 11.9151 79.1312C11.9198 79.2555 11.9245 79.3798 11.9293 79.5041C11.9633 80.3814 11.9633 80.3814 11.964 80.7041C11.9641 80.7346 11.9641 80.7346 11.9642 80.7656C11.9625 81.033 11.912 81.2773 11.8002 81.5216C11.7918 81.5403 11.7834 81.5589 11.7748 81.5781C11.6259 81.8788 11.3603 82.1077 11.0461 82.221C10.6748 82.3297 10.3071 82.2459 9.97364 82.0657C9.86872 82.0052 9.78367 81.9287 9.7002 81.8416C9.68125 81.8236 9.68125 81.8236 9.66192 81.8052C9.30251 81.4395 9.32129 80.8466 9.30204 80.3726C9.30033 80.3314 9.29862 80.2903 9.2969 80.2492C9.29227 80.1377 9.2877 80.0262 9.28314 79.9147C9.27929 79.8206 9.2754 79.7265 9.27152 79.6324C9.26229 79.4089 9.25312 79.1854 9.24398 78.962C9.23571 78.7598 9.22739 78.5577 9.21902 78.3556C9.15925 76.9124 9.10125 75.47 9.07962 74.0257C9.07362 73.6313 9.06717 73.2379 9.03168 72.8449C9.02987 72.8248 9.02987 72.8248 9.02802 72.8043C8.88268 71.23 8.28384 69.7865 7.35668 68.5179C7.27907 68.4115 7.20412 68.3036 7.1302 68.1946C7.04633 68.071 6.96072 67.9491 6.8727 67.8284C6.73563 67.6404 6.60507 67.4481 6.47455 67.2554C6.42675 67.185 6.37851 67.1149 6.3302 67.0449C5.8739 66.3823 5.42484 65.7148 4.97459 65.0481C4.63118 64.5397 4.28721 64.0316 3.9402 63.5256C3.9312 63.5125 3.92221 63.4994 3.91294 63.4859C3.79812 63.3183 3.68249 63.1513 3.56645 62.9845C3.54618 62.9554 3.54618 62.9554 3.52551 62.9257C3.45593 62.8257 3.38621 62.7258 3.31629 62.6261C3.15954 62.4022 3.00587 62.1772 2.8602 61.946C2.85018 61.9302 2.84017 61.9144 2.82986 61.8981C2.10343 60.7497 1.49028 59.4863 1.17973 58.1579C1.17638 58.1438 1.17304 58.1297 1.16959 58.1151C1.15362 58.0476 1.1382 57.98 1.12374 57.9121C1.09465 57.7859 1.06377 57.6866 0.993352 57.5787C0.869904 57.3865 0.853871 57.224 0.855637 57C0.855261 56.9644 0.85481 56.9288 0.854292 56.8933C0.85314 56.7975 0.853117 56.7018 0.853385 56.606C0.853512 56.5255 0.853094 56.445 0.852688 56.3645C0.851744 56.174 0.851743 55.9836 0.852336 55.7932C0.852926 55.5982 0.851913 55.4034 0.850095 55.2085C0.848582 55.0399 0.848104 54.8713 0.848414 54.7027C0.848588 54.6026 0.848403 54.5025 0.847207 54.4023C0.842109 53.9348 0.870016 53.5746 1.10848 53.165C1.15929 53.0736 1.19831 52.9777 1.23746 52.8809C1.25226 52.8451 1.26707 52.8092 1.28189 52.7734C1.29675 52.737 1.3116 52.7007 1.32645 52.6643C1.3427 52.6248 1.35896 52.5852 1.37523 52.5456C1.48051 52.2888 1.58248 52.0308 1.6827 51.772C2.08547 50.7319 2.51552 49.7015 3.1002 48.7489C3.12713 48.7048 3.15405 48.6607 3.18098 48.6165C3.34649 48.346 3.51462 48.0772 3.68302 47.8085C3.73296 47.7288 3.78281 47.649 3.83266 47.5693C3.87014 47.5093 3.90763 47.4493 3.94512 47.3894C3.99543 47.3089 4.04568 47.2284 4.0959 47.1479C4.25115 46.899 4.40769 46.651 4.56552 46.4038C4.62383 46.3124 4.68201 46.221 4.7402 46.1295C4.76353 46.0928 4.78686 46.0562 4.8102 46.0195C4.82175 46.0014 4.8333 45.9832 4.8452 45.9645C4.8802 45.9096 4.9152 45.8546 4.9502 45.7996C4.96175 45.7814 4.97331 45.7633 4.98521 45.7446C5.00849 45.708 5.03178 45.6714 5.05507 45.6348C5.11419 45.542 5.17327 45.4491 5.23231 45.3562C5.34544 45.1781 5.45887 45.0004 5.57373 44.8234C5.65643 44.6959 5.73833 44.5679 5.8202 44.4399C5.93767 44.2562 6.05562 44.0728 6.17431 43.8899C6.21966 43.82 6.26492 43.75 6.3102 43.6801C6.32853 43.6517 6.34686 43.6234 6.3652 43.5951C6.37427 43.581 6.38335 43.567 6.3927 43.5526C8.2352 40.7057 8.2352 40.7057 8.26267 40.6633C8.28109 40.6348 8.2995 40.6063 8.31792 40.5779C8.36247 40.509 8.40704 40.4402 8.45168 40.3714C8.57592 40.1799 8.69913 39.9877 8.82213 39.7953C8.89782 39.677 8.97373 39.5588 9.0502 39.441C9.18054 39.2401 9.3094 39.0382 9.43841 38.8365C9.49306 38.751 9.54777 38.6656 9.60248 38.5802C9.65551 38.4974 9.7085 38.4146 9.76148 38.3318C9.78715 38.2917 9.81283 38.2515 9.83853 38.2114C9.91952 38.085 10.0001 37.9584 10.0802 37.8314C10.0939 37.8098 10.0939 37.8098 10.1078 37.7878C10.4185 37.2949 10.5547 36.7657 10.5715 36.1872C10.5719 36.1738 10.5723 36.1604 10.5727 36.1465C10.5814 35.8582 10.5834 35.5699 10.5836 35.2814C10.5837 35.2094 10.5839 35.1375 10.5841 35.0655C10.5844 34.9416 10.5846 34.8177 10.5848 34.6937C10.5851 34.5142 10.5855 34.3346 10.586 34.1551C10.5867 33.863 10.5874 33.571 10.5881 33.279C10.5881 33.2616 10.5881 33.2442 10.5882 33.2263C10.5887 32.9792 10.5892 32.7321 10.5896 32.4849C10.5897 32.4587 10.5897 32.4587 10.5897 32.432C10.5898 32.4146 10.5898 32.3972 10.5898 32.3792C10.5904 32.0878 10.5911 31.7963 10.5919 31.5048C10.5924 31.3259 10.5927 31.1469 10.5929 30.9679C10.5931 30.8453 10.5934 30.7227 10.5938 30.6001C10.594 30.5297 10.5942 30.4592 10.5942 30.3887C10.5944 29.6568 10.5944 29.6568 10.6877 29.3332C10.6921 29.3173 10.6966 29.3015 10.7012 29.2851C10.7137 29.241 10.7268 29.1971 10.7402 29.1533C10.7461 29.1337 10.7521 29.1142 10.7582 29.0941C10.8486 28.8379 11.039 28.6042 11.2789 28.4772C11.6099 28.3246 12.0129 28.3005 12.3602 28.4134C12.6855 28.5428 12.9063 28.7598 13.0564 29.0742C13.2226 29.4867 13.2433 29.9114 13.2427 30.3505C13.2428 30.3909 13.2428 30.4314 13.2428 30.4718C13.2429 30.5831 13.2429 30.6943 13.2428 30.8055C13.2428 30.9264 13.2429 31.0474 13.243 31.1684C13.243 31.3805 13.2431 31.5926 13.2431 31.8047C13.243 32.0322 13.243 32.2598 13.2431 32.4873C13.2431 32.5017 13.2431 32.5161 13.2431 32.5309C13.2432 32.6042 13.2432 32.6776 13.2432 32.7509C13.2433 32.9013 13.2433 33.0517 13.2434 33.2021C13.2434 33.2248 13.2434 33.2248 13.2434 33.2479C13.2434 33.4836 13.2435 33.7192 13.2435 33.9549C13.2435 33.9788 13.2435 33.9788 13.2435 34.0031C13.2435 34.0678 13.2435 34.1324 13.2436 34.1971C13.2437 34.9885 13.2439 35.7799 13.2443 36.5713C13.2444 36.7567 13.2445 36.9421 13.2446 37.1275C13.2446 37.1614 13.2446 37.1954 13.2446 37.2293C13.2447 37.2975 13.2447 37.3656 13.2447 37.4337C13.2448 37.5021 13.2448 37.5705 13.2448 37.6389C13.2452 38.4277 13.2455 39.2165 13.2458 40.0053C13.2459 40.0588 13.2459 40.1123 13.2459 40.1658C13.2462 40.9882 13.2465 41.8107 13.2466 42.6331C13.2466 42.6508 13.2466 42.6685 13.2466 42.6866C13.2466 42.9713 13.2467 43.256 13.2467 43.5407C13.2468 44.3619 13.247 45.1831 13.2474 46.0043C13.2474 46.0297 13.2474 46.0297 13.2474 46.0557C13.2476 46.4108 13.2478 46.766 13.248 47.1212C13.2481 47.2876 13.2482 47.454 13.2483 47.6204C13.2484 47.6368 13.2484 47.6532 13.2484 47.6701C13.2487 48.1954 13.2487 48.7208 13.2486 49.2462C13.2485 49.7764 13.2487 50.3066 13.2492 50.8369C13.2493 50.9106 13.2493 50.9843 13.2494 51.058C13.2494 51.0725 13.2494 51.0869 13.2494 51.1018C13.2496 51.3281 13.2495 51.5544 13.2493 51.7807C13.2492 52.0047 13.2493 52.2287 13.2497 52.4526C13.2499 52.5719 13.25 52.6911 13.2497 52.8103C13.2484 53.4111 13.2738 54.0063 13.3211 54.6053C13.3235 54.6361 13.3235 54.6361 13.326 54.6674C13.3343 54.7681 13.3445 54.8677 13.3602 54.9675C13.3798 54.9461 13.3798 54.9461 13.3999 54.9242C13.598 54.7079 13.797 54.4923 13.9974 54.278C14.0867 54.1825 14.1751 54.0862 14.2633 53.9896C14.3404 53.9056 14.4185 53.8224 14.4964 53.7391C14.5681 53.6624 14.6393 53.5854 14.7102 53.5079C14.793 53.4173 14.8764 53.3275 14.9602 53.2379C15.0628 53.1282 15.1647 53.018 15.2661 52.9071C15.3235 52.8444 15.3812 52.7818 15.4389 52.7193C15.4539 52.7031 15.4539 52.7031 15.4691 52.6866C15.5096 52.6428 15.5501 52.599 15.5906 52.5552C15.7251 52.4097 15.8592 52.2639 15.993 52.1179C16.0296 52.078 16.0661 52.0381 16.1027 51.9982C16.121 51.9783 16.1392 51.9583 16.1575 51.9384C16.2043 51.8874 16.2511 51.8364 16.298 51.7854C16.4148 51.6587 16.4148 51.6587 16.5289 51.5296C16.5912 51.4577 16.6556 51.388 16.7202 51.3184C16.7968 51.2357 16.8724 51.1526 16.9462 51.0674C16.9862 51.0215 17.0269 50.9762 17.0677 50.9309C17.0828 50.9141 17.098 50.8973 17.1136 50.88C17.1447 50.8455 17.176 50.8112 17.2075 50.7769C17.4848 50.4731 17.567 50.2357 17.5652 49.821C17.5653 49.7973 17.5654 49.7737 17.5654 49.7493C17.5656 49.684 17.5655 49.6188 17.5654 49.5535C17.5653 49.4821 17.5654 49.4107 17.5655 49.3393C17.5657 49.2138 17.5657 49.0883 17.5656 48.9628C17.5655 48.7749 17.5656 48.587 17.5657 48.3991C17.566 48.0789 17.566 47.7587 17.566 47.4384C17.5659 47.1139 17.566 46.7894 17.5661 46.4648C17.5661 46.4443 17.5661 46.4238 17.5661 46.4027C17.5662 46.2982 17.5662 46.1937 17.5663 46.0891C17.5666 45.3557 17.5668 44.6223 17.5669 43.8889C17.567 43.116 17.5672 42.3431 17.5675 41.5703C17.5675 41.547 17.5675 41.5237 17.5675 41.4997C17.5676 41.2395 17.5677 40.9793 17.5678 40.7191C17.568 40.2379 17.5682 39.7566 17.5684 39.2753C17.5684 39.2512 17.5684 39.2272 17.5685 39.2024C17.5689 38.0562 17.5692 36.91 17.5695 35.7639C17.5696 35.6878 17.5696 35.6118 17.5696 35.5357C17.5698 34.7721 17.57 34.0085 17.5702 33.2449C17.5704 32.4562 17.5706 31.6676 17.5708 30.879C17.5708 30.803 17.5709 30.727 17.5709 30.651C17.5712 29.5063 17.5715 28.3615 17.572 27.2168C17.572 27.1927 17.572 27.1686 17.572 27.1438C17.5722 26.663 17.5724 26.1822 17.5726 25.7014C17.5727 25.4413 17.5728 25.1813 17.5729 24.9212C17.5729 24.898 17.5729 24.8747 17.5729 24.8507C17.5733 24.0784 17.5734 23.306 17.5735 22.5336C17.5736 21.8021 17.5738 21.0707 17.5741 20.3392C17.5742 20.2349 17.5742 20.1305 17.5743 20.0262C17.5743 20.0057 17.5743 19.9853 17.5743 19.9642C17.5744 19.6407 17.5745 19.3171 17.5744 18.9936C17.5744 18.6753 17.5745 18.357 17.5747 18.0387C17.5749 17.8522 17.5749 17.6657 17.5748 17.4792C17.5747 17.3551 17.5748 17.2311 17.5749 17.107C17.575 17.0368 17.5751 16.9666 17.5749 16.8964C17.5728 15.4835 17.5728 15.4835 17.9802 15.0564C17.9931 15.0428 18.0059 15.0291 18.0192 15.015C18.5431 14.5057 19.4604 14.5934 20.1302 14.5939C20.2135 14.594 20.2968 14.5939 20.3801 14.5938C20.5263 14.5938 20.6726 14.5937 20.8188 14.5938C21.0378 14.5939 21.2567 14.5938 21.4756 14.5937C21.8488 14.5936 22.222 14.5936 22.5952 14.5936C22.9734 14.5936 23.3515 14.5936 23.7296 14.5935C23.7654 14.5935 23.7654 14.5935 23.802 14.5935C23.8993 14.5935 23.9967 14.5935 24.094 14.5934C25.0954 14.5932 26.0967 14.5932 27.0981 14.5932C27.2072 14.5932 27.3164 14.5932 27.4256 14.5932C27.4529 14.5932 27.4803 14.5932 27.5077 14.5932C28.1221 14.5932 28.7366 14.5931 29.3511 14.5931C29.4882 14.5931 29.6254 14.593 29.7626 14.593C29.7762 14.593 29.7899 14.593 29.8039 14.593C29.8866 14.593 29.9692 14.593 30.0519 14.593C30.0933 14.593 30.1347 14.593 30.1761 14.593C30.82 14.5929 31.4638 14.5929 32.1077 14.5929C32.1217 14.5929 32.1357 14.5929 32.1502 14.5929C33.0439 14.5928 33.9377 14.5928 34.8314 14.5928C34.8753 14.5928 34.9193 14.5928 34.9632 14.5928C35.2719 14.5928 35.5806 14.5928 35.8893 14.5928C35.9778 14.5928 36.0663 14.5928 36.1548 14.5928C36.2286 14.5928 36.3024 14.5928 36.3762 14.5928C37.7706 14.5928 39.1649 14.5928 40.5592 14.5926C40.5739 14.5926 40.5886 14.5926 40.6037 14.5926C41.0624 14.5925 41.521 14.5925 41.9797 14.5924C42.4504 14.5923 42.921 14.5923 43.3917 14.5922C43.4062 14.5922 43.4207 14.5922 43.4356 14.5922C44.3434 14.5921 45.2512 14.592 46.159 14.592C46.1731 14.592 46.1871 14.592 46.2015 14.592C46.8175 14.5919 47.4334 14.5919 48.0493 14.5919C48.2971 14.5919 48.5449 14.5919 48.7927 14.5919C48.8338 14.5919 48.8749 14.5919 48.916 14.5919C49.5441 14.5919 50.1722 14.5919 50.8003 14.5918C50.8139 14.5918 50.8274 14.5918 50.8414 14.5918C51.0591 14.5918 51.2768 14.5917 51.4946 14.5917C52.3874 14.5915 53.2802 14.5914 54.1731 14.5916C54.2946 14.5916 54.4161 14.5916 54.5377 14.5916C54.5615 14.5916 54.5853 14.5916 54.6099 14.5916C54.9869 14.5917 55.3639 14.5916 55.741 14.5915C56.1118 14.5913 56.4827 14.5913 56.8535 14.5915C57.0708 14.5916 57.2882 14.5915 57.5055 14.5914C57.65 14.5912 57.7945 14.5913 57.9391 14.5914C58.0209 14.5915 58.1027 14.5915 58.1845 14.5914C59.7703 14.5885 59.7703 14.5885 60.2744 15.0669C60.5416 15.3559 60.5757 15.7032 60.5638 16.0785C60.5448 16.3843 60.4214 16.6362 60.1997 16.8459C59.7072 17.2607 58.9889 17.2422 58.3817 17.2409C58.2994 17.2408 58.2171 17.2409 58.1348 17.241C57.9902 17.2411 57.8456 17.2411 57.7011 17.2409C57.4847 17.2407 57.2683 17.2407 57.0518 17.2408C56.683 17.2409 56.3141 17.2409 55.9452 17.2407C55.5715 17.2405 55.1977 17.2404 54.824 17.2405C54.7886 17.2405 54.7886 17.2405 54.7524 17.2405C54.632 17.2405 54.5116 17.2405 54.3912 17.2405C53.5199 17.2405 52.6485 17.2404 51.7772 17.2402C51.5618 17.2401 51.3464 17.24 51.1311 17.24C51.1177 17.24 51.1043 17.24 51.0905 17.24C50.47 17.2398 49.8495 17.2398 49.2291 17.2397C49.1885 17.2397 49.1479 17.2397 49.1073 17.2397C48.8625 17.2397 48.6177 17.2397 48.373 17.2397C47.7645 17.2397 47.156 17.2396 46.5475 17.2396C46.5337 17.2396 46.5198 17.2396 46.5055 17.2396C45.6086 17.2395 44.7117 17.2394 43.8147 17.2392C43.8004 17.2392 43.7861 17.2392 43.7713 17.2392C43.3355 17.2391 42.8997 17.239 42.4639 17.239C41.9816 17.2389 41.4993 17.2388 41.017 17.2387C41.0025 17.2387 40.988 17.2387 40.9731 17.2387C39.61 17.2384 38.247 17.2383 36.884 17.2381C36.7957 17.2381 36.7075 17.2381 36.6193 17.2381C35.6999 17.238 34.7804 17.2379 33.861 17.2379C33.8216 17.2379 33.8216 17.2379 33.7814 17.2379C33.7336 17.2379 33.6858 17.2379 33.638 17.2378C29.1854 17.2375 24.7328 17.2367 20.2802 17.2359C20.2868 27.1997 20.2934 37.1635 20.3002 47.4292C20.4693 47.2615 20.4693 47.2615 20.6276 47.087C20.6855 47.02 20.7468 46.9562 20.8077 46.8918C20.9041 46.7896 20.9993 46.6865 21.0929 46.5817C21.1657 46.5012 21.2401 46.4221 21.3143 46.3429C21.4055 46.2454 21.4959 46.1472 21.5861 46.0487C21.6737 45.9529 21.7619 45.8576 21.8501 45.7622C21.8797 45.7302 21.9093 45.6981 21.9389 45.6659C22.0574 45.5373 22.1765 45.4092 22.296 45.2814C22.3706 45.2015 22.4449 45.1214 22.5189 45.041C23.0584 44.4559 23.0584 44.4559 23.2802 44.2699C23.2958 44.2566 23.2958 44.2566 23.3116 44.2431C24.1556 43.5244 25.1788 43.0787 26.3014 43.1627C26.8561 43.2125 27.512 43.3835 27.9667 43.7167C28.0314 43.757 28.072 43.7593 28.1477 43.76C28.7087 43.7877 29.1444 44.1297 29.5802 44.4499C29.6035 44.4669 29.6035 44.4669 29.6272 44.4844C29.7224 44.5543 29.8175 44.6244 29.9125 44.6946C29.9598 44.7295 30.0072 44.7644 30.0546 44.7992C30.086 44.8223 30.1175 44.8454 30.1489 44.8685C30.1644 44.8799 30.1798 44.8912 30.1958 44.9029C30.2803 44.9652 30.3644 45.0279 30.4481 45.0912C30.466 45.1047 30.4839 45.1183 30.5023 45.1322C30.5366 45.1581 30.5708 45.1842 30.605 45.2103C30.6938 45.2774 30.7821 45.3369 30.8802 45.3897C30.8947 45.3727 30.9093 45.3558 30.9243 45.3383C31.0099 45.2384 31.0955 45.1385 31.1811 45.0387C31.1958 45.0216 31.1958 45.0216 31.2107 45.0041C31.2305 44.981 31.2504 44.9579 31.2702 44.9348C31.32 44.8767 31.3698 44.8186 31.4195 44.7605C31.5335 44.6273 31.6481 44.4945 31.763 44.3621C31.866 44.2433 31.9683 44.1241 32.0705 44.0047C32.1304 43.9347 32.1903 43.8649 32.2502 43.795C32.3 43.7369 32.3498 43.6789 32.3995 43.6208C32.5136 43.4875 32.6281 43.3547 32.7431 43.2223C32.8158 43.1385 32.8881 43.0545 32.9602 42.9702C33.054 42.8606 33.1483 42.7515 33.2429 42.6426C33.3174 42.5568 33.3914 42.4705 33.4652 42.3841C33.5477 42.2875 33.632 42.1927 33.7175 42.0988C33.7623 42.0481 33.8043 41.9958 33.8464 41.9429C34.1031 41.6287 34.4092 41.3563 34.8264 41.2943C34.8508 41.2931 34.8751 41.2919 34.9002 41.2906C34.9195 41.2891 34.9195 41.2891 34.9393 41.2875C35.3235 41.2697 35.6873 41.4465 35.9694 41.6936C36.1904 41.9021 36.3041 42.1682 36.3243 42.4713C36.3317 42.9877 36.1429 43.3365 35.8086 43.7173C35.7684 43.7636 35.7299 43.8111 35.6914 43.8588C35.5884 43.9856 35.4807 44.1085 35.3734 44.2317C35.2492 44.3746 35.1256 44.5178 35.0064 44.6648C34.9353 44.7524 34.8608 44.8361 34.7849 44.9195C34.7402 44.9698 34.6975 45.0212 34.6552 45.0735C34.5509 45.2023 34.4419 45.3268 34.3331 45.4517C34.2815 45.5112 34.2302 45.571 34.1789 45.6309C34.1691 45.6423 34.1593 45.6538 34.1492 45.6656C34.1294 45.6887 34.1096 45.7118 34.0899 45.7349C34.04 45.7932 33.9901 45.8514 33.9402 45.9096C33.9202 45.9329 33.9002 45.9562 33.8802 45.9795C33.7602 46.1195 33.6402 46.2595 33.5202 46.3994C33.5103 46.411 33.5004 46.4226 33.4902 46.4345C33.4702 46.4577 33.4503 46.481 33.4303 46.5042C33.3795 46.5635 33.3287 46.6228 33.2781 46.6822C33.1887 46.7869 33.0991 46.8912 33.0064 46.9931C32.9462 47.0593 32.8889 47.1271 32.8327 47.1968C32.759 47.2879 32.6815 47.3741 32.6017 47.4598C32.5435 47.5227 32.4886 47.5871 32.4352 47.6542C32.3122 47.8068 32.1762 47.948 32.0402 48.0891C32.0226 48.1075 32.0226 48.1075 32.0047 48.1263C31.7761 48.3617 31.4889 48.5271 31.156 48.5386C30.9188 48.5402 30.7229 48.4923 30.5077 48.394C30.4941 48.3878 30.4805 48.3816 30.4664 48.3752C30.349 48.3187 30.2453 48.2457 30.1402 48.1691C29.9342 48.5085 29.7406 48.8525 29.5557 49.2038C29.497 49.3152 29.437 49.4258 29.3764 49.5362C29.3572 49.5714 29.338 49.6065 29.3187 49.6417C29.3044 49.6678 29.3044 49.6678 29.2899 49.6944C29.2364 49.7923 29.1833 49.8905 29.1302 49.9886C29.0453 50.1454 28.9604 50.302 28.8752 50.4585C28.8663 50.475 28.8573 50.4914 28.8481 50.5084C28.7604 50.6693 28.6701 50.8286 28.5802 50.9884C39.6814 50.9884 50.7826 50.9884 62.2202 50.9884C62.075 50.6189 61.9298 50.2494 61.7802 49.8687C61.6634 49.571 61.5466 49.2733 61.4299 48.9756C61.3706 48.8243 61.3112 48.673 61.2518 48.5217C61.2096 48.4143 61.1675 48.3069 61.1255 48.1995C61.0532 48.0148 60.9808 47.8301 60.9071 47.6459C60.8764 47.5693 60.8459 47.4926 60.8155 47.4158C60.8013 47.3801 60.787 47.3444 60.7725 47.3088C60.7529 47.2601 60.7335 47.2114 60.7142 47.1626C60.7054 47.1413 60.7054 47.1413 60.6965 47.1196C60.6752 47.0649 60.6605 47.0161 60.6581 46.9572C60.6827 46.9039 60.7068 46.8835 60.7516 46.8464C60.7644 46.8356 60.7772 46.8249 60.7903 46.8139C60.8002 46.8058 60.81 46.7977 60.8202 46.7894C60.8034 46.7893 60.7866 46.7893 60.7694 46.7893C58.9981 46.7881 57.2268 46.7869 55.2909 46.7853C55.2633 46.7853 55.2358 46.7853 55.2082 46.7853C54.6299 46.7848 54.0515 46.7843 53.4732 46.7838C53.1826 46.7835 52.8921 46.7833 52.6016 46.7831C52.5577 46.783 52.5139 46.783 52.4701 46.7829C51.7954 46.7824 51.1207 46.7818 50.446 46.7814C50.4315 46.7814 50.417 46.7814 50.4021 46.7814C50.1682 46.7812 49.9344 46.781 49.7006 46.7809C49.027 46.7805 48.3534 46.78 47.6798 46.7794C47.659 46.7794 47.659 46.7794 47.6378 46.7794C47.3336 46.7791 47.0294 46.7788 46.7251 46.7785C46.6027 46.7784 46.4803 46.7783 46.3578 46.7782C46.3444 46.7782 46.331 46.7782 46.3172 46.7782C45.8858 46.7778 45.4544 46.7775 45.023 46.7773C44.5762 46.7771 44.1294 46.7767 43.6825 46.7762C43.425 46.7759 43.1674 46.7757 42.9098 46.7757C42.7377 46.7756 42.5656 46.7755 42.3935 46.7752C42.2955 46.775 42.1975 46.7749 42.0994 46.775C42.0101 46.7751 41.9208 46.775 41.8315 46.7747C41.7995 46.7746 41.7675 46.7746 41.7355 46.7747C41.2897 46.7757 40.8164 46.7302 40.4756 46.4081C40.2048 46.1123 40.1115 45.7402 40.1161 45.3482C40.1326 45.0301 40.252 44.7321 40.4834 44.5105C40.816 44.213 41.2371 44.1235 41.6712 44.1248C41.7025 44.1247 41.7337 44.1246 41.765 44.1245C41.8508 44.1243 41.9366 44.1244 42.0224 44.1245C42.1158 44.1245 42.2092 44.1244 42.3026 44.1242C42.4664 44.124 42.6301 44.1239 42.7938 44.1239C43.0374 44.1239 43.281 44.1237 43.5245 44.1235C43.9348 44.123 44.345 44.1228 44.7552 44.1226C45.1626 44.1225 45.5701 44.1222 45.9775 44.1219C46.0156 44.1219 46.0156 44.1219 46.0544 44.1218C46.1834 44.1217 46.3123 44.1216 46.4413 44.1215C47.3421 44.1207 48.2428 44.12 49.1436 44.1195C49.1989 44.1195 49.2542 44.1194 49.3095 44.1194C49.351 44.1194 49.3925 44.1194 49.434 44.1193C49.5587 44.1193 49.6834 44.1192 49.8081 44.1191C49.8359 44.1191 49.8636 44.1191 49.8913 44.1191C50.526 44.1187 51.1606 44.1183 51.7953 44.1178C51.8363 44.1178 51.8774 44.1178 51.9185 44.1178C52.5397 44.1173 53.161 44.1169 53.7822 44.1164C53.8216 44.1163 53.8216 44.1163 53.8618 44.1163C54.0985 44.1161 54.3352 44.1159 54.5719 44.1157C55.1582 44.1152 55.7446 44.1148 56.3309 44.1145C56.7408 44.1143 57.1508 44.114 57.5607 44.1137C57.7817 44.1135 58.0027 44.1134 58.2237 44.1133C58.7355 44.1132 59.2472 44.1124 59.759 44.1104C59.8422 44.1101 59.9254 44.1098 60.0087 44.1095C60.2505 44.1088 60.4924 44.1077 60.7343 44.106C60.8387 44.1053 60.9432 44.1046 61.0476 44.1043C61.1446 44.1041 61.2416 44.1034 61.3385 44.1025C61.3738 44.1022 61.409 44.102 61.4442 44.102C61.9956 44.1017 62.4778 43.9354 62.959 43.6756C63.5267 43.3698 64.1533 43.189 64.8002 43.1702C64.8212 43.1694 64.8421 43.1686 64.8637 43.1677C65.4917 43.1552 66.117 43.2945 66.6802 43.5701C66.6946 43.5771 66.7089 43.584 66.7237 43.5912C67.2767 43.8636 67.7649 44.2788 68.1628 44.748C68.223 44.8153 68.2878 44.8778 68.352 44.9412C68.42 45.0087 68.4839 45.0782 68.5461 45.1512C68.6 45.212 68.6584 45.2681 68.7163 45.3252C68.769 45.3786 68.8177 45.4347 68.8666 45.4917C68.9106 45.5414 68.9578 45.5875 69.0052 45.634C69.0543 45.684 69.0995 45.7371 69.1452 45.7902C69.1892 45.8397 69.2361 45.8857 69.2833 45.932C69.319 45.9683 69.3524 46.0057 69.3856 46.0443C69.4565 46.1258 69.5297 46.2047 69.6039 46.2832C69.6304 46.3113 69.6568 46.3394 69.6832 46.3675C69.6962 46.3813 69.7092 46.3951 69.7226 46.4094C69.8621 46.5581 69.9996 46.7086 70.1373 46.859C70.2048 46.9326 70.2724 47.006 70.3402 47.0793C70.4261 47.1723 70.5118 47.2655 70.5973 47.3588C70.6648 47.4325 70.7324 47.5059 70.8002 47.5792C70.9229 47.712 71.0451 47.8453 71.1673 47.9787C71.2814 48.1033 71.3959 48.2278 71.5106 48.3519C71.5954 48.4437 71.6798 48.5358 71.7642 48.6279C71.8037 48.671 71.8433 48.714 71.8831 48.7568C71.8937 48.7682 71.9042 48.7796 71.9151 48.7914C71.9352 48.8131 71.9554 48.8347 71.9755 48.8564C72.0459 48.9323 72.1126 49.01 72.1802 49.0888C72.1868 38.5774 72.1934 28.0659 72.2002 17.2359C69.6526 17.2359 67.105 17.2359 64.4802 17.2359C64.0481 17.1742 63.7094 17.0804 63.4202 16.736C63.1932 16.4209 63.1415 16.0372 63.1901 15.659C63.237 15.4212 63.3179 15.218 63.4802 15.0364C63.4911 15.0239 63.502 15.0114 63.5132 14.9985C63.753 14.7401 64.1139 14.6375 64.4555 14.6106C64.5327 14.6078 64.6098 14.6067 64.687 14.6064C64.717 14.606 64.7471 14.6057 64.7771 14.6053C64.86 14.6043 64.9429 14.6038 65.0259 14.6033C65.0986 14.6028 65.1713 14.6021 65.244 14.6014C66.3298 14.5916 67.4157 14.5935 68.5016 14.5939C68.7289 14.594 68.9561 14.594 69.1834 14.5939C71.4811 14.593 71.4811 14.593 72.6054 14.6036C72.6643 14.6042 72.7233 14.6046 72.7823 14.6051C72.8727 14.6058 72.9631 14.6067 73.0535 14.6078C73.0857 14.6081 73.1179 14.6084 73.1501 14.6087C73.629 14.6122 74.0765 14.6889 74.4354 15.0306C74.7984 15.4023 74.9075 15.9103 74.9051 16.4161C74.9052 16.4408 74.9052 16.4655 74.9053 16.491C74.9053 16.5592 74.9053 16.6274 74.9051 16.6956C74.9049 16.7703 74.905 16.8449 74.9051 16.9196C74.9052 17.0508 74.9051 17.1819 74.905 17.3131C74.9047 17.5095 74.9047 17.7059 74.9047 17.9023C74.9048 18.237 74.9047 18.5717 74.9044 18.9064C74.9042 19.2456 74.904 19.5848 74.904 19.924C74.904 19.9561 74.904 19.9561 74.904 19.9889C74.904 20.0982 74.904 20.2074 74.9039 20.3167C74.9039 21.0832 74.9036 21.8497 74.9032 22.6163C74.9029 23.4239 74.9026 24.2316 74.9024 25.0393C74.9024 25.0636 74.9024 25.0879 74.9024 25.113C74.9024 25.3849 74.9023 25.6568 74.9023 25.9287C74.9022 26.4316 74.9021 26.9345 74.902 27.4374C74.902 27.4625 74.902 27.4877 74.902 27.5136C74.9018 28.7112 74.9014 29.9088 74.901 31.1063C74.901 31.1858 74.901 31.2653 74.901 31.3447C74.9007 32.1693 74.9004 32.9939 74.9002 33.8185C74.8999 34.6161 74.8996 35.4138 74.8994 36.2115C74.8994 36.2909 74.8993 36.3703 74.8993 36.4497C74.8989 37.6461 74.8986 38.8426 74.8984 40.039C74.8984 40.0641 74.8984 40.0893 74.8984 40.1152C74.8983 40.6175 74.8982 41.1199 74.8981 41.6222C74.8981 41.8939 74.898 42.1655 74.898 42.4372C74.898 42.4737 74.8979 42.4737 74.8979 42.5109C74.8978 43.3182 74.8975 44.1255 74.8971 44.9328C74.8968 45.6971 74.8965 46.4614 74.8964 47.2258C74.8964 47.3347 74.8964 47.4437 74.8964 47.5527C74.8964 47.574 74.8964 47.5954 74.8964 47.6174C74.8963 47.9556 74.8962 48.2939 74.8959 48.6321C74.8957 48.9647 74.8956 49.2973 74.8957 49.6298C74.8957 49.8248 74.8956 50.0198 74.8954 50.2148C74.8952 50.3443 74.8952 50.4739 74.8953 50.6034C74.8954 50.6769 74.8954 50.7503 74.8952 50.8237C74.8934 51.6 75.0039 52.2091 75.5708 52.7789C75.6479 52.856 75.725 52.9331 75.8026 53.0097C75.8956 53.1018 75.9858 53.1947 76.071 53.2942C76.1086 53.3377 76.1489 53.3779 76.1902 53.4179C76.2584 53.4841 76.3208 53.5539 76.383 53.6256C76.4429 53.6937 76.5053 53.7594 76.5677 53.8253C76.6653 53.9289 76.762 54.0331 76.8568 54.1393C76.9075 54.1958 76.9588 54.2518 77.0102 54.3077C77.0773 54.3807 77.144 54.4539 77.2102 54.5276C77.279 54.6042 77.3482 54.6804 77.4177 54.7563C77.427 54.7665 77.4363 54.7767 77.4459 54.7872C77.4897 54.835 77.5341 54.8819 77.5802 54.9276C77.7045 54.0821 77.7175 53.2491 77.7154 52.3965C77.7149 52.1958 77.7151 51.995 77.7154 51.7943C77.7158 51.4194 77.7157 51.0445 77.7153 50.6696C77.7149 50.2905 77.7147 49.9113 77.7149 49.5322C77.7149 49.5081 77.7149 49.484 77.7149 49.4592C77.7149 49.3364 77.715 49.2137 77.7151 49.0909C77.7154 48.2053 77.7152 47.3197 77.7147 46.4341C77.7146 46.2157 77.7145 45.9974 77.7143 45.779C77.7143 45.7587 77.7143 45.7587 77.7143 45.7379C77.714 45.1071 77.7139 44.4764 77.7139 43.8456C77.7139 43.8043 77.7139 43.7629 77.7139 43.7216C77.7139 43.4723 77.7139 43.223 77.7139 42.9738C77.7139 42.3542 77.7139 41.7347 77.7139 41.1151C77.7139 41.101 77.7139 41.0869 77.7139 41.0724C77.7138 40.1602 77.7135 39.2481 77.7132 38.3359C77.7132 38.3213 77.7131 38.3068 77.7131 38.2918C77.7129 37.8194 77.7127 37.3471 77.7125 36.8747C77.7123 36.4144 77.7121 35.9541 77.7119 35.4938C77.7119 35.4791 77.7119 35.4644 77.7119 35.4492C77.7113 34.0491 77.7113 32.649 77.7113 31.2489C77.7113 31.1748 77.7113 31.1006 77.7113 31.0265C77.7113 30.9376 77.7113 30.8486 77.7113 30.7598C77.7113 30.4497 77.7113 30.1396 77.7113 29.8296C77.7113 29.7855 77.7113 29.7413 77.7113 29.6972C77.7114 28.7996 77.7113 27.902 77.7111 27.0044C77.7111 26.9904 77.7111 26.9763 77.7111 26.9617C77.711 26.3152 77.7109 25.6686 77.7107 25.022C77.7107 24.9804 77.7107 24.9388 77.7107 24.8972C77.7107 24.8142 77.7107 24.7311 77.7106 24.6481C77.7106 24.6345 77.7106 24.6208 77.7106 24.6067C77.7106 24.4689 77.7106 24.3312 77.7105 24.1934C77.7104 23.5763 77.7103 22.9592 77.7102 22.3421C77.7102 22.3146 77.7102 22.2872 77.7102 22.2597C77.7102 22.1502 77.7102 22.0407 77.7102 21.9311C77.7102 20.9151 77.71 19.899 77.7093 18.883C77.7093 18.7856 77.7092 18.6882 77.7092 18.5908C77.7092 18.5549 77.7092 18.5549 77.7091 18.5183C77.7089 18.1399 77.7089 17.7616 77.709 17.3832C77.709 17.0111 77.7089 16.6389 77.7085 16.2668C77.7083 16.0487 77.7082 15.8307 77.7084 15.6126C77.7085 15.4676 77.7084 15.3226 77.7081 15.1776C77.708 15.0956 77.7079 15.0135 77.7081 14.9314C77.7101 14.0403 77.5826 13.1842 76.9464 12.5145C76.7327 12.3091 76.4915 12.1545 76.2202 12.0371C76.206 12.0309 76.1918 12.0247 76.1771 12.0183C75.8038 11.86 75.3878 11.7734 74.9819 11.7746C74.9562 11.7746 74.9562 11.7746 74.9299 11.7745C74.8726 11.7745 74.8152 11.7745 74.7579 11.7746C74.7161 11.7746 74.6743 11.7745 74.6325 11.7745C74.517 11.7744 74.4016 11.7744 74.2862 11.7745C74.1604 11.7745 74.0345 11.7745 73.9087 11.7744C73.6871 11.7743 73.4656 11.7743 73.244 11.7743C73.005 11.7743 72.7659 11.7743 72.5269 11.7743C72.5117 11.7743 72.4966 11.7742 72.481 11.7742C72.4036 11.7742 72.3263 11.7742 72.2489 11.7742C71.6837 11.774 71.1184 11.774 70.5532 11.7739C69.9801 11.7739 69.4071 11.7739 68.834 11.7738C68.7975 11.7738 68.761 11.7738 68.7245 11.7738C68.5772 11.7737 68.43 11.7737 68.2827 11.7737C66.6627 11.7734 65.0426 11.7732 63.4226 11.7732C63.4021 11.7732 63.3816 11.7731 63.3605 11.7731C63.2568 11.7731 63.1531 11.7731 63.0495 11.7731C62.1811 11.7731 61.3127 11.773 60.4443 11.7729C60.0284 11.7729 59.6126 11.7729 59.1967 11.7728C59.1761 11.7728 59.1554 11.7728 59.1341 11.7728C58.1387 11.7727 57.1433 11.7726 56.1479 11.7726C56.1267 11.7726 56.1055 11.7726 56.0836 11.7726C54.7303 11.7725 53.3771 11.7724 52.0238 11.7724C51.9129 11.7724 51.8019 11.7724 51.691 11.7724C51.5131 11.7724 51.3352 11.7724 51.1573 11.7724C51.1352 11.7724 51.1132 11.7724 51.0905 11.7724C51.0459 11.7724 51.0014 11.7724 50.9568 11.7724C50.6443 11.7724 50.3318 11.7723 50.0193 11.7723C49.9074 11.7723 49.7956 11.7723 49.6838 11.7723C47.5718 11.7723 45.4597 11.7722 43.3477 11.7719C43.3255 11.7719 43.3032 11.7718 43.2803 11.7718C42.5856 11.7717 41.891 11.7716 41.1963 11.7715C40.4835 11.7714 39.7707 11.7713 39.0579 11.7712C39.025 11.7712 39.025 11.7712 38.9914 11.7712C37.617 11.771 36.2425 11.7708 34.868 11.7708C34.8468 11.7708 34.8256 11.7708 34.8037 11.7708C33.8714 11.7707 32.9391 11.7707 32.0068 11.7707C31.6318 11.7707 31.2567 11.7707 30.8816 11.7707C30.8195 11.7707 30.7573 11.7707 30.6951 11.7707C29.7438 11.7707 28.7926 11.7706 27.8414 11.7704C27.8208 11.7704 27.8003 11.7704 27.7792 11.7704C27.4492 11.7703 27.1192 11.7702 26.7892 11.7702C25.8524 11.77 24.9155 11.7698 23.9787 11.7698C23.9597 11.7698 23.9407 11.7698 23.9211 11.7698C23.5063 11.7699 23.0916 11.7699 22.6768 11.7699C22.5114 11.77 22.346 11.77 22.1805 11.77C22.1535 11.77 22.1535 11.77 22.1259 11.77C21.5536 11.7701 20.9814 11.7699 20.4092 11.7697C19.8457 11.7695 19.2822 11.7694 18.7187 11.7696C18.6414 11.7697 18.5642 11.7697 18.487 11.7697C18.4719 11.7697 18.4567 11.7697 18.4412 11.7697C18.2031 11.7698 17.965 11.7697 17.7269 11.7695C17.4937 11.7693 17.2606 11.7693 17.0275 11.7696C16.9035 11.7697 16.7794 11.7697 16.6554 11.7695C16.5427 11.7692 16.4299 11.7693 16.3172 11.7696C16.277 11.7696 16.2367 11.7696 16.1965 11.7694C15.3863 11.7664 14.5958 11.9625 13.9964 12.532C13.6406 12.9022 13.4419 13.3742 13.3339 13.8704C13.331 13.8839 13.3281 13.8974 13.325 13.9113C13.2645 14.2151 13.2543 14.5203 13.2549 14.829C13.2548 14.8694 13.2547 14.9098 13.2546 14.9502C13.2544 15.0603 13.2544 15.1704 13.2545 15.2805C13.2545 15.3996 13.2542 15.5187 13.254 15.6379C13.2537 15.844 13.2536 16.0501 13.2535 16.2563C13.2534 16.5548 13.253 16.8533 13.2526 17.1518C13.2524 17.2912 13.2522 17.4306 13.252 17.57C13.2519 17.5839 13.2519 17.5979 13.2519 17.6122C13.2515 17.9437 13.2511 18.2752 13.2508 18.6067C13.2508 18.6212 13.2508 18.6357 13.2508 18.6506C13.2506 18.871 13.2504 19.0914 13.2502 19.3117C13.25 19.5466 13.2498 19.7815 13.2496 20.0164C13.2495 20.0309 13.2495 20.0453 13.2495 20.0602C13.2492 20.3911 13.2489 20.7219 13.2484 21.0528C13.2484 21.0667 13.2484 21.0806 13.2484 21.095C13.2482 21.2341 13.248 21.3732 13.2478 21.5123C13.2473 21.8237 13.247 22.135 13.2469 22.4463C13.2468 22.6504 13.2466 22.8544 13.2462 23.0585C13.246 23.176 13.2459 23.2935 13.246 23.4111C13.246 23.5189 13.2459 23.6268 13.2456 23.7346C13.2455 23.7734 13.2455 23.8121 13.2456 23.8509C13.2466 24.4124 13.2154 25.0075 12.8002 25.4341C12.5384 25.6771 12.1978 25.7501 11.8508 25.7397C11.5009 25.7219 11.1438 25.6105 10.8952 25.3529C10.6304 25.0322 10.6112 24.6679 10.6101 24.2716C10.6098 24.2289 10.6094 24.1861 10.609 24.1433C10.6081 24.0259 10.6075 23.9084 10.607 23.791C10.6066 23.6896 10.6059 23.5882 10.6052 23.4868C10.6028 23.1161 10.6014 22.7455 10.6002 22.3748C10.6002 22.3597 10.6001 22.3445 10.6001 22.3289C10.5974 21.4889 10.5965 20.6489 10.5965 19.8089C10.5965 19.7918 10.5965 19.7748 10.5965 19.7572C10.5965 19.7402 10.5965 19.7231 10.5965 19.7056C10.5965 19.6885 10.5965 19.6714 10.5965 19.6539C10.5965 19.6194 10.5965 19.5848 10.5965 19.5503C10.5965 19.2896 10.5963 19.0288 10.5961 18.768C10.5932 15.7876 10.5932 15.7876 10.6377 14.4528C10.6402 14.3755 10.6427 14.2982 10.645 14.2209C10.6466 14.1721 10.6481 14.1233 10.6496 14.0744C10.6506 14.0421 10.6506 14.0421 10.6516 14.0091C10.6951 12.6499 11.1871 11.5116 12.1752 10.5642C12.8772 9.90731 13.7719 9.4469 14.7064 9.23271C14.7266 9.22802 14.7467 9.22334 14.7674 9.21851C15.1425 9.13694 15.5204 9.10872 15.9034 9.11024ZM27.1802 53.7878C27.1656 53.7933 27.1509 53.7988 27.1358 53.8045C26.9546 53.8836 26.8651 54.0569 26.7677 54.2202C26.7555 54.2404 26.7434 54.2606 26.7308 54.2814C26.4467 54.7555 26.185 55.2416 25.9265 55.7299C25.8289 55.9142 25.7298 56.0977 25.6282 56.2798C25.6146 56.3045 25.6146 56.3045 25.6007 56.3296C25.5929 56.3437 25.585 56.3579 25.5768 56.3725C25.5573 56.4068 25.5573 56.4068 25.5602 56.4472C38.6876 56.4472 51.815 56.4472 65.3402 56.4472C65.3264 56.378 65.3168 56.3328 65.2893 56.2717C65.283 56.2575 65.2767 56.2434 65.2702 56.2288C65.2633 56.2136 65.2564 56.1985 65.2493 56.1829C65.2421 56.1669 65.2349 56.1508 65.2275 56.1343C65.2039 56.0819 65.1802 56.0296 65.1564 55.9773C65.1483 55.9594 65.1403 55.9416 65.1319 55.9231C64.7732 55.0965 64.7732 55.0965 64.2802 54.3477C64.2612 54.3238 64.2612 54.3238 64.2419 54.2995C63.9229 53.9169 63.4566 53.7748 62.9777 53.7228C62.6107 53.6896 62.245 53.6849 61.8767 53.6852C61.8032 53.6853 61.7297 53.6852 61.6563 53.6851C61.5273 53.6851 61.3984 53.6851 61.2695 53.6851C61.0765 53.6852 60.8835 53.6851 60.6904 53.685C60.3614 53.6849 60.0324 53.6849 59.7034 53.6849C59.37 53.6849 59.0367 53.6849 58.7034 53.6848C58.6718 53.6848 58.6718 53.6848 58.6395 53.6848C58.5537 53.6848 58.4679 53.6848 58.3821 53.6848C57.4872 53.6846 56.5924 53.6845 55.6976 53.6845C55.6013 53.6845 55.505 53.6845 55.4087 53.6845C55.3849 53.6845 55.361 53.6845 55.3364 53.6845C54.8067 53.6845 54.2771 53.6844 53.7474 53.6844C53.5293 53.6844 53.3111 53.6843 53.093 53.6843C53.0568 53.6843 53.0568 53.6843 53.0199 53.6843C51.6389 53.6842 50.2579 53.6841 48.8769 53.6841C48.8252 53.6841 48.7736 53.6841 48.7219 53.6841C48.4886 53.6841 48.2553 53.6841 48.022 53.6841C47.918 53.6841 47.814 53.6841 47.71 53.6841C47.6579 53.6841 47.6058 53.6841 47.5538 53.6841C45.9071 53.6841 44.2604 53.684 42.6137 53.6837C42.1988 53.6836 41.7838 53.6836 41.3688 53.6835C41.3433 53.6835 41.3177 53.6835 41.2914 53.6835C40.5039 53.6834 39.7164 53.6833 38.929 53.6833C38.9042 53.6833 38.8795 53.6833 38.854 53.6833C38.3113 53.6832 37.7686 53.6832 37.2258 53.6833C37.0317 53.6833 36.8375 53.6833 36.6433 53.6833C36.5949 53.6833 36.5466 53.6833 36.4983 53.6833C35.7286 53.6833 34.9589 53.6831 34.1892 53.683C33.414 53.6828 32.6388 53.6828 31.8637 53.6829C31.7565 53.6829 31.6494 53.6829 31.5422 53.6829C31.5212 53.6829 31.5002 53.6829 31.4786 53.6829C31.1462 53.683 30.8138 53.6829 30.4814 53.6828C30.1545 53.6826 29.8276 53.6826 29.5006 53.6828C29.3091 53.6829 29.1175 53.6829 28.9259 53.6827C28.7985 53.6826 28.6711 53.6826 28.5437 53.6827C28.4716 53.6828 28.3994 53.6829 28.3273 53.6827C27.7451 53.668 27.7451 53.668 27.1802 53.7878Z" fill="#D9D9D9"/>
<path d="M41.8204 33.7676C41.8626 33.7675 41.9049 33.7675 41.9471 33.7674C42.063 33.7672 42.1789 33.7673 42.2948 33.7675C42.421 33.7676 42.5472 33.7674 42.6733 33.7673C42.8944 33.7672 43.1154 33.7672 43.3365 33.7673C43.5736 33.7674 43.8107 33.7674 44.0479 33.7674C44.0703 33.7673 44.0703 33.7673 44.0933 33.7673C44.1544 33.7673 44.2154 33.7673 44.2765 33.7673C44.845 33.7671 45.4134 33.767 45.9819 33.7672C46.0071 33.7672 46.0071 33.7672 46.0329 33.7672C46.0497 33.7672 46.0666 33.7672 46.084 33.7672C46.5978 33.7673 47.1115 33.7673 47.6253 33.7673C47.6597 33.7673 47.6941 33.7673 47.7285 33.7672C47.8668 33.7672 48.0051 33.7672 48.1434 33.7672C48.53 33.7672 48.9165 33.7672 49.3031 33.7671C49.3295 33.7671 49.3295 33.7671 49.3565 33.7671C49.9173 33.7671 50.4782 33.7672 51.039 33.7673C51.0663 33.7673 51.0663 33.7673 51.0942 33.7673C51.3896 33.7673 51.6849 33.7674 51.9803 33.7674C53.1518 33.7676 54.3233 33.7676 55.4949 33.7674C55.7901 33.7673 56.0853 33.7673 56.3806 33.7673C56.3987 33.7673 56.4169 33.7672 56.4356 33.7672C56.9959 33.7672 57.5562 33.7671 58.1165 33.7671C58.1341 33.7671 58.1517 33.7671 58.1698 33.7671C58.5559 33.7672 58.9421 33.7672 59.3282 33.7672C59.4664 33.7672 59.6045 33.7672 59.7427 33.7673C59.7771 33.7673 59.8115 33.7673 59.8458 33.7673C60.3595 33.7673 60.8731 33.7673 61.3867 33.7672C61.4036 33.7672 61.4204 33.7672 61.4377 33.7672C61.4545 33.7672 61.4713 33.7672 61.4886 33.7671C62.0555 33.767 62.6223 33.7671 63.1891 33.7673C63.25 33.7673 63.3109 33.7673 63.3718 33.7674C63.3867 33.7674 63.4016 33.7674 63.417 33.7674C63.6535 33.7674 63.89 33.7674 64.1264 33.7673C64.359 33.7672 64.5916 33.7672 64.8242 33.7674C64.9486 33.7675 65.0729 33.7675 65.1973 33.7674C65.3105 33.7673 65.4237 33.7673 65.5369 33.7675C65.5776 33.7676 65.6182 33.7675 65.6589 33.7674C66.1323 33.7663 66.6143 33.8059 66.9785 34.1472C67.2709 34.4678 67.3202 34.8644 67.3031 35.2804C67.284 35.5828 67.1524 35.8218 66.9398 36.0321C66.9239 36.049 66.9239 36.049 66.9077 36.0662C66.5249 36.4391 65.8489 36.4183 65.3557 36.4171C65.3143 36.4171 65.2729 36.4172 65.2315 36.4172C65.1184 36.4174 65.0053 36.4173 64.8922 36.4172C64.7689 36.4171 64.6456 36.4172 64.5222 36.4173C64.3064 36.4174 64.0905 36.4174 63.8746 36.4173C63.6431 36.4172 63.4116 36.4172 63.1801 36.4173C63.1654 36.4173 63.1508 36.4173 63.1357 36.4173C63.076 36.4173 63.0163 36.4173 62.9566 36.4174C62.4013 36.4176 61.8461 36.4176 61.2908 36.4175C61.2744 36.4175 61.258 36.4175 61.241 36.4175C61.2163 36.4175 61.2163 36.4175 61.1912 36.4175C60.6893 36.4174 60.1875 36.4173 59.6857 36.4174C59.652 36.4174 59.6184 36.4174 59.5848 36.4174C59.4496 36.4174 59.3145 36.4174 59.1793 36.4174C58.8015 36.4175 58.4237 36.4175 58.0459 36.4175C58.0201 36.4175 58.0201 36.4175 57.9938 36.4175C57.4458 36.4175 56.8978 36.4175 56.3498 36.4174C56.3231 36.4174 56.3231 36.4174 56.2959 36.4174C56.0074 36.4173 55.7189 36.4173 55.4303 36.4172C54.2861 36.417 53.1418 36.417 51.9976 36.4172C51.7092 36.4173 51.4209 36.4173 51.1325 36.4174C51.1147 36.4174 51.097 36.4174 51.0787 36.4174C50.5313 36.4175 49.9839 36.4175 49.4364 36.4175C49.4107 36.4175 49.4107 36.4175 49.3843 36.4175C49.007 36.4175 48.6296 36.4175 48.2522 36.4174C48.1171 36.4174 47.9821 36.4174 47.847 36.4174C47.8134 36.4174 47.7799 36.4174 47.7463 36.4174C47.2446 36.4173 46.7429 36.4174 46.2413 36.4175C46.2166 36.4175 46.2166 36.4175 46.1915 36.4175C46.1751 36.4175 46.1587 36.4175 46.1418 36.4175C45.5881 36.4176 45.0344 36.4176 44.4807 36.4173C44.4212 36.4173 44.3617 36.4173 44.3021 36.4173C44.2875 36.4173 44.2729 36.4173 44.2579 36.4173C44.0271 36.4172 43.7963 36.4172 43.5655 36.4173C43.3382 36.4175 43.111 36.4174 42.8837 36.4172C42.7623 36.4171 42.6409 36.4171 42.5195 36.4172C42.4088 36.4174 42.2981 36.4173 42.1874 36.4171C42.1479 36.4171 42.1083 36.4171 42.0687 36.4172C41.5212 36.4185 40.9196 36.4022 40.4789 36.0314C40.2303 35.7814 40.1201 35.4629 40.1123 35.1148C40.1162 34.7464 40.2196 34.4029 40.4786 34.1319C40.8556 33.7847 41.3365 33.7664 41.8204 33.7676Z" fill="#D9D9D9"/>
<path d="M41.6425 23.3721C41.6599 23.3721 41.6772 23.3721 41.6951 23.3721C41.7531 23.372 41.811 23.3721 41.869 23.3722C41.9112 23.3722 41.9534 23.3722 41.9956 23.3722C42.1119 23.3722 42.2283 23.3722 42.3446 23.3724C42.471 23.3725 42.5974 23.3724 42.7239 23.3724C42.9456 23.3725 43.1673 23.3725 43.389 23.3727C43.6268 23.3728 43.8647 23.3729 44.1026 23.373C44.1251 23.373 44.1251 23.373 44.1481 23.373C44.2093 23.373 44.2705 23.373 44.3317 23.3731C45.0733 23.3732 45.8149 23.3736 46.5565 23.374C46.797 23.3742 47.0375 23.3743 47.278 23.3744C47.3034 23.3744 47.3034 23.3744 47.3294 23.3744C47.398 23.3745 47.4667 23.3745 47.5353 23.3745C48.7096 23.3751 49.8838 23.3758 51.058 23.3766C51.1502 23.3767 51.2424 23.3767 51.3346 23.3768C51.3529 23.3768 51.3712 23.3768 51.3901 23.3768C51.5754 23.3769 51.7607 23.3771 51.946 23.3772C51.9832 23.3772 52.0203 23.3772 52.0575 23.3773C53.251 23.3781 54.4444 23.3786 55.6379 23.3789C56.4956 23.3792 57.3532 23.3794 58.2109 23.38C58.2285 23.38 58.2462 23.38 58.2643 23.38C58.6515 23.3803 59.0388 23.3805 59.426 23.3808C59.5818 23.381 59.7376 23.3811 59.8934 23.3812C59.9104 23.3812 59.9275 23.3812 59.945 23.3812C60.4942 23.3816 61.0434 23.3818 61.5925 23.3818C62.1456 23.3819 62.6988 23.3822 63.2519 23.3828C63.3284 23.3829 63.4048 23.383 63.4813 23.3831C63.4963 23.3831 63.5113 23.3831 63.5267 23.3831C63.7639 23.3834 64.001 23.3833 64.2382 23.3832C64.4715 23.3831 64.7048 23.3833 64.9381 23.3837C65.0628 23.384 65.1876 23.3841 65.3123 23.3839C65.4259 23.3836 65.5395 23.3838 65.653 23.3842C65.6938 23.3843 65.7346 23.3843 65.7753 23.3841C66.0733 23.3828 66.3584 23.4055 66.6273 23.5483C66.6405 23.5551 66.6536 23.5619 66.6672 23.5689C66.7876 23.6338 66.8854 23.7156 66.9798 23.8145C66.991 23.8253 67.0021 23.836 67.0136 23.8471C67.2507 24.0935 67.3101 24.4338 67.3082 24.7614C67.2997 25.0967 67.1871 25.4015 66.9528 25.6471C66.6108 25.9506 66.2045 26.0212 65.7619 26.0276C65.7289 26.0282 65.696 26.0289 65.6631 26.0296C65.2477 26.0375 64.8322 26.0369 64.4167 26.0367C64.2946 26.0367 64.1725 26.0367 64.0504 26.0368C63.8372 26.0369 63.6239 26.0369 63.4107 26.0369C63.1823 26.0369 62.954 26.0369 62.7256 26.037C62.7111 26.037 62.6965 26.037 62.6816 26.037C62.6224 26.037 62.5633 26.0371 62.5042 26.0371C61.89 26.0373 61.2759 26.0373 60.6617 26.0373C60.5958 26.0373 60.5299 26.0373 60.464 26.0373C60.4476 26.0373 60.4313 26.0374 60.4144 26.0374C60.0509 26.0374 59.6873 26.0374 59.3238 26.0375C59.1738 26.0375 59.0238 26.0375 58.8738 26.0375C58.8572 26.0375 58.8406 26.0375 58.8235 26.0375C57.8749 26.0376 56.9264 26.0377 55.9778 26.0377C55.9423 26.0377 55.9069 26.0377 55.8715 26.0377C55.7115 26.0377 55.5516 26.0377 55.3916 26.0377C55.3203 26.0377 55.249 26.0377 55.1777 26.0377C55.142 26.0377 55.1063 26.0377 55.0706 26.0377C53.9406 26.0377 52.8107 26.0378 51.6807 26.0381C51.3957 26.0382 51.1106 26.0383 50.8256 26.0383C50.808 26.0383 50.7905 26.0383 50.7724 26.0383C50.2314 26.0385 49.6904 26.0385 49.1494 26.0386C49.1239 26.0386 49.1239 26.0386 49.0979 26.0386C48.7251 26.0386 48.3523 26.0386 47.9794 26.0386C47.846 26.0386 47.7126 26.0386 47.5792 26.0386C47.5461 26.0386 47.5129 26.0386 47.4797 26.0386C46.9514 26.0386 46.4231 26.0387 45.8948 26.0389C45.363 26.039 44.8312 26.0391 44.2994 26.0389C44.2259 26.0389 44.1524 26.0389 44.0788 26.0389C44.0644 26.0389 44.05 26.0389 44.0352 26.0389C43.8073 26.0388 43.5794 26.0389 43.3515 26.0391C43.1272 26.0392 42.903 26.0392 42.6787 26.039C42.5589 26.039 42.439 26.039 42.3191 26.0391C42.21 26.0393 42.1008 26.0392 41.9916 26.039C41.9525 26.039 41.9134 26.039 41.8742 26.0391C41.3535 26.0405 40.8609 25.9966 40.4648 25.6203C40.2211 25.3703 40.1214 25.0632 40.1123 24.7155C40.1218 24.3522 40.2258 24.0215 40.4798 23.7545C40.7985 23.4661 41.2241 23.3707 41.6425 23.3721Z" fill="#D9D9D9"/>
<path d="M85.7602 63.1296C86.0156 63.3317 86.2094 63.5759 86.2599 63.906C86.3028 64.3061 86.1963 64.6607 85.9999 65.0057C85.9926 65.0187 85.9853 65.0317 85.9777 65.0451C85.8939 65.1923 85.8027 65.3301 85.7025 65.4666C85.6308 65.566 85.5637 65.6683 85.4962 65.7706C85.4645 65.8183 85.4328 65.8661 85.401 65.9138C85.3929 65.9261 85.3847 65.9384 85.3762 65.9511C85.2812 66.0939 85.185 66.236 85.0887 66.3779C85.0799 66.3909 85.0711 66.4039 85.062 66.4173C85.0096 66.4945 84.9573 66.5716 84.9049 66.6487C84.8807 66.6842 84.8566 66.7198 84.8325 66.7553C84.5937 67.1068 84.3541 67.4577 84.1132 67.8078C84.0783 67.8585 84.0434 67.9092 84.0086 67.9599C83.8225 68.2312 83.635 68.5016 83.4457 68.7706C83.2184 69.0935 82.9973 69.4164 82.8043 69.7613C82.7826 69.8 82.7605 69.8385 82.7384 69.877C82.3533 70.5671 82.1299 71.3508 82.0049 72.1266C82.001 72.1511 81.997 72.1756 81.9929 72.2009C81.9191 72.685 81.9089 73.1737 81.8949 73.6623C81.8921 73.7593 81.8892 73.8562 81.8862 73.9532C81.8812 74.1185 81.8763 74.2838 81.8714 74.4491C81.8585 74.8808 81.8451 75.3125 81.8315 75.7442C81.8308 75.7656 81.8302 75.7869 81.8295 75.8089C81.7952 76.9006 81.7534 77.9917 81.6999 79.0826C81.6984 79.1146 81.6984 79.1146 81.6968 79.1473C81.6826 79.4392 81.6676 79.7312 81.6518 80.023C81.6488 80.0788 81.6459 80.1345 81.643 80.1902C81.6386 80.2756 81.6338 80.361 81.6288 80.4464C81.6271 80.4769 81.6254 80.5074 81.6239 80.538C81.5958 81.0919 81.3901 81.6057 80.9874 81.9957C80.7639 82.1894 80.4759 82.2968 80.1799 82.2875C79.8621 82.2577 79.582 82.1048 79.3711 81.8669C79.2134 81.6666 79.1085 81.4543 79.0424 81.2096C79.0384 81.1946 79.0343 81.1796 79.0301 81.1641C78.9656 80.9051 78.9772 80.6362 78.9777 80.3714C78.9777 80.3301 78.9777 80.2889 78.9777 80.2477C78.9777 80.1365 78.9778 80.0253 78.9779 79.914C78.978 79.7975 78.9781 79.681 78.9781 79.5646C78.9781 79.3443 78.9783 79.124 78.9785 78.9037C78.9787 78.6527 78.9788 78.4018 78.9789 78.1509C78.9791 77.635 78.9795 77.1191 78.9799 76.6032C79.0261 76.6032 79.0723 76.6032 79.1199 76.6032C79.1204 76.5888 79.1208 76.5744 79.1212 76.5595C79.1232 76.4887 79.1253 76.4179 79.1273 76.347C79.1277 76.3336 79.1281 76.3203 79.1285 76.3065C79.1332 76.1397 79.1381 75.973 79.143 75.8063C79.1444 75.7582 79.1458 75.7101 79.1472 75.662C79.1481 75.6294 79.1491 75.5968 79.1501 75.5642C79.1556 75.3769 79.1609 75.1895 79.166 75.0022C79.2119 73.2946 79.3297 71.6348 80.4558 68.7365C80.4781 68.6888 80.5002 68.641 80.5221 68.5931C80.9205 67.7289 81.4281 66.909 81.9702 66.1284C81.9991 66.0867 82.0279 66.0448 82.0565 66.0029C82.2414 65.7326 82.4306 65.4655 82.6228 65.2003C82.706 65.0854 82.788 64.9696 82.8696 64.8535C82.9414 64.7516 83.0142 64.6505 83.0874 64.5496C83.1799 64.4221 83.271 64.2938 83.3612 64.1647C83.3728 64.148 83.3845 64.1314 83.3965 64.1142C83.442 64.049 83.4876 63.9837 83.533 63.9185C83.8522 63.4608 84.179 63.0208 84.7468 62.8741C85.1182 62.819 85.456 62.9103 85.7602 63.1296Z" fill="#D9D9D9"/>
<path d="M29.3602 31.5132C29.3771 31.5188 29.3941 31.5244 29.4115 31.5301C29.8242 31.6799 30.1459 32.0378 30.4502 32.3405C30.4631 32.3534 30.4761 32.3662 30.4894 32.3794C30.6272 32.5177 30.7525 32.666 30.8765 32.8167C30.8946 32.8387 30.8946 32.8387 30.9131 32.8611C31.0036 32.9714 31.0911 33.0838 31.1765 33.1982C31.2211 33.2539 31.2688 33.3034 31.3202 33.3528C31.4112 33.2537 31.5005 33.1537 31.5852 33.0491C31.6681 32.9469 31.7536 32.8473 31.8401 32.7481C31.8937 32.6867 31.9471 32.6251 31.9997 32.5628C32.143 32.3933 32.292 32.23 32.4454 32.0695C32.4766 32.0369 32.5075 32.004 32.5383 31.971C32.7275 31.7738 32.942 31.6084 33.2002 31.5132C33.216 31.5069 33.2317 31.5005 33.2479 31.494C33.5119 31.4037 33.8471 31.422 34.1002 31.5332C34.1185 31.5412 34.1368 31.5493 34.1557 31.5575C34.4998 31.7276 34.7493 32.0247 34.8752 32.3855C34.9812 32.7713 34.8916 33.1547 34.6971 33.4966C34.534 33.7451 34.3079 33.9642 34.0825 34.156C34.0391 34.1936 33.9969 34.2324 33.9548 34.2715C33.8511 34.3677 33.7448 34.4589 33.6345 34.5476C33.5591 34.61 33.4877 34.6764 33.4158 34.7427C33.3422 34.8087 33.2657 34.8707 33.1884 34.9323C33.1429 34.9702 33.1013 35.0099 33.0602 35.0524C33.0917 35.1333 33.1492 35.1825 33.2127 35.2386C33.2236 35.2484 33.2345 35.2582 33.2457 35.2683C33.2771 35.2964 33.3086 35.3244 33.3402 35.3524C33.3608 35.3707 33.3608 35.3707 33.3818 35.3894C33.4409 35.4416 33.5007 35.4928 33.561 35.5437C33.7207 35.6788 33.8744 35.819 34.0263 35.9627C34.0859 36.019 34.1464 36.0741 34.2077 36.1284C34.5852 36.4673 34.8907 36.8405 34.92 37.3668C34.9299 37.7026 34.8176 38.0166 34.589 38.2642C34.5534 38.3009 34.5171 38.3363 34.4802 38.3717C34.4681 38.3837 34.456 38.3958 34.4435 38.4082C34.2032 38.6314 33.9034 38.7246 33.5811 38.7211C33.1073 38.7035 32.7518 38.4151 32.4347 38.0918C32.4025 38.059 32.37 38.0264 32.3376 37.9938C32.2277 37.8832 32.1215 37.7704 32.0202 37.6519C31.9911 37.6197 31.962 37.5876 31.9327 37.5556C31.8709 37.4873 31.8117 37.4175 31.754 37.3457C31.6749 37.2479 31.5913 37.1554 31.5052 37.0638C31.4408 36.9952 31.3798 36.9248 31.3202 36.852C31.2976 36.8746 31.2751 36.8972 31.2526 36.9198C31.2294 36.9428 31.2062 36.9658 31.1829 36.9886C31.1051 37.0654 31.0311 37.1438 30.9598 37.2266C30.9109 37.2826 30.8606 37.3373 30.8102 37.3919C30.7506 37.4566 30.6913 37.5215 30.634 37.5881C29.6943 38.6675 29.6943 38.6675 29.0971 38.7151C28.8854 38.7274 28.6983 38.7142 28.5002 38.6316C28.4829 38.6246 28.4655 38.6176 28.4476 38.6104C28.1306 38.4675 27.8864 38.1902 27.7558 37.8725C27.6368 37.5559 27.642 37.2057 27.7768 36.8936C27.9141 36.5961 28.1314 36.3747 28.3613 36.1469C28.4016 36.1071 28.4416 36.0671 28.4817 36.0271C28.5934 35.9157 28.7046 35.8048 28.8249 35.7027C28.8935 35.6437 28.9584 35.5808 29.024 35.5186C29.1412 35.4077 29.259 35.2975 29.378 35.1885C29.4334 35.1377 29.4875 35.086 29.5402 35.0324C29.5128 34.969 29.4834 34.9329 29.4297 34.8897C29.4156 34.8783 29.4015 34.8668 29.387 34.855C29.372 34.8431 29.3569 34.8311 29.3415 34.8187C29.3261 34.8063 29.3107 34.7938 29.2948 34.781C29.2641 34.7561 29.2333 34.7312 29.2024 34.7064C29.1489 34.6634 29.0958 34.6199 29.0427 34.5763C28.9911 34.5341 28.9395 34.492 28.8878 34.4501C27.7643 33.5371 27.7643 33.5371 27.6802 32.9529C27.654 32.5505 27.7143 32.2211 27.9877 31.9081C28.0182 31.8762 28.049 31.8445 28.0802 31.8132C28.0935 31.7992 28.1068 31.7852 28.1204 31.7708C28.4477 31.4505 28.9329 31.3677 29.3602 31.5132Z" fill="#D9D9D9"/>
<path d="M35.5198 21.1952C35.5326 21.2007 35.5455 21.2063 35.5587 21.2121C35.8901 21.3616 36.1251 21.5935 36.2591 21.9343C36.3732 22.2687 36.3395 22.6751 36.1922 22.9959C36.0765 23.206 35.9198 23.3854 35.7616 23.5643C35.7095 23.6232 35.6592 23.6834 35.6098 23.7446C35.5072 23.8712 35.3998 23.9936 35.2928 24.1165C35.1548 24.2754 35.0185 24.4358 34.8826 24.5966C34.8158 24.6757 34.7485 24.7545 34.6811 24.8331C34.6711 24.8447 34.6612 24.8563 34.651 24.8682C34.5999 24.9277 34.5488 24.9871 34.4976 25.0465C34.4058 25.1531 34.3146 25.2599 34.2261 25.3692C34.1551 25.4567 34.0807 25.5403 34.0048 25.6236C33.9582 25.6759 33.9139 25.7297 33.8698 25.7842C33.7976 25.8734 33.7221 25.9587 33.6447 26.0435C33.5986 26.0955 33.5547 26.1488 33.5111 26.2028C33.4338 26.2983 33.3523 26.3888 33.2691 26.4791C33.2213 26.5324 33.176 26.5869 33.1311 26.6427C33.0579 26.7334 32.9809 26.8191 32.9015 26.9043C32.8417 26.9689 32.785 27.0352 32.7298 27.1039C32.6572 27.1941 32.5806 27.2793 32.5017 27.364C32.44 27.4306 32.3818 27.4992 32.3248 27.57C32.2546 27.6572 32.1806 27.7364 32.0998 27.8137C32.0769 27.8372 32.0769 27.8372 32.0536 27.8612C32.0269 27.8872 32.0269 27.8872 31.9998 27.9137C31.9863 27.9271 31.9729 27.9404 31.959 27.9542C31.7047 28.1965 31.4146 28.3332 31.0598 28.3336C30.6515 28.3064 30.3182 28.0975 29.9982 27.8618C29.9574 27.832 29.9165 27.8025 29.8755 27.773C29.6716 27.6266 29.4693 27.4781 29.2675 27.329C29.2204 27.2943 29.1733 27.2597 29.1261 27.2252C28.9414 27.0898 28.7584 26.9523 28.5765 26.8132C28.4618 26.7255 28.3463 26.6393 28.2298 26.554C28.0917 26.4528 27.9548 26.3502 27.8186 26.2465C27.8017 26.2337 27.7848 26.2209 27.7674 26.2077C27.3678 25.9027 26.9516 25.5813 26.8598 25.0543C26.8187 24.6585 26.9143 24.3303 27.1645 24.0189C27.2081 23.969 27.2531 23.9215 27.2998 23.8746C27.3118 23.8619 27.3238 23.8492 27.3362 23.8361C27.5415 23.6357 27.8256 23.5559 28.1048 23.5484C28.6665 23.558 29.0875 23.8754 29.5198 24.1945C29.5511 24.2175 29.5824 24.2405 29.6137 24.2635C29.6773 24.3102 29.7408 24.357 29.8043 24.4039C29.8672 24.4504 29.9303 24.4968 29.9935 24.5431C30.183 24.6821 30.371 24.823 30.5575 24.966C30.6504 25.0372 30.7441 25.1069 30.8398 25.1743C30.9161 25.144 30.9524 25.0997 31.0023 25.0356C31.0657 24.9559 31.1307 24.8792 31.1998 24.8044C31.2821 24.715 31.3592 24.6226 31.4355 24.5281C31.4931 24.4583 31.5539 24.3919 31.6149 24.325C31.661 24.2731 31.7049 24.2198 31.7486 24.1658C31.8257 24.0703 31.9072 23.9799 31.9904 23.8897C32.0547 23.8179 32.115 23.7433 32.1755 23.6683C32.2189 23.6157 32.2639 23.5651 32.3098 23.5147C32.3721 23.4463 32.4316 23.3766 32.4898 23.3047C32.562 23.2154 32.6375 23.1301 32.7149 23.0453C32.761 22.9934 32.8049 22.9401 32.8486 22.886C32.9258 22.7906 33.0073 22.7002 33.0904 22.6099C33.1387 22.5561 33.1845 22.5011 33.2298 22.4449C33.3066 22.3498 33.3877 22.2598 33.4705 22.1699C33.5183 22.1166 33.5637 22.062 33.6086 22.0062C33.6913 21.9038 33.779 21.8072 33.8686 21.7108C33.911 21.6647 33.9519 21.6179 33.9923 21.5701C34.3837 21.1244 34.9671 20.955 35.5198 21.1952Z" fill="#D9D9D9"/>
<path d="M34.9391 41.2879C35.3234 41.2701 35.6872 41.4468 35.9693 41.6939C36.1902 41.9024 36.3039 42.1685 36.3241 42.4717C36.3315 42.9881 36.1427 43.3368 35.8084 43.7176C35.7683 43.7639 35.7298 43.8114 35.6913 43.8591C35.5882 43.986 35.4806 44.1088 35.3732 44.2321C35.2491 44.3749 35.1255 44.5181 35.0063 44.6651C34.9352 44.7528 34.8607 44.8365 34.7847 44.9199C34.74 44.9701 34.6974 45.0215 34.655 45.0738C34.5507 45.2026 34.4418 45.3271 34.333 45.452C34.2813 45.5115 34.23 45.5713 34.1788 45.6312C34.169 45.6426 34.1592 45.6541 34.149 45.6659C34.1293 45.689 34.1095 45.7121 34.0897 45.7352C34.0399 45.7935 33.9899 45.8517 33.94 45.9099C33.92 45.9332 33.9 45.9565 33.88 45.9799C33.76 46.1198 33.64 46.2598 33.52 46.3998C33.5052 46.4171 33.5052 46.4171 33.49 46.4348C33.4701 46.458 33.4501 46.4813 33.4302 46.5046C33.3793 46.5638 33.3286 46.6231 33.2779 46.6825C33.1885 46.7872 33.099 46.8915 33.0063 46.9934C32.9461 47.0596 32.8887 47.1274 32.8325 47.1971C32.7589 47.2882 32.6814 47.3744 32.6016 47.4601C32.5434 47.523 32.4884 47.5875 32.435 47.6545C32.3121 47.8072 32.176 47.9483 32.04 48.0894C32.0283 48.1017 32.0166 48.1139 32.0046 48.1266C31.7759 48.362 31.4887 48.5274 31.1559 48.539C30.7657 48.5415 30.4209 48.3937 30.12 48.1494C30.1246 48.1372 30.1291 48.125 30.1338 48.1125C30.1547 48.0561 30.1755 47.9996 30.1963 47.9432C30.2034 47.924 30.2105 47.9049 30.2179 47.8852C30.4562 47.2358 30.4277 46.5735 30.1417 45.9428C30.104 45.8636 30.0628 45.7865 30.02 45.7099C30.0131 45.6973 30.0061 45.6847 29.999 45.6717C29.7732 45.2663 29.4545 44.9088 29.1031 44.6076C29.0524 44.5636 29.0032 44.5181 28.9538 44.4727C28.7861 44.3203 28.6105 44.1816 28.4288 44.0465C28.4054 44.0291 28.4054 44.0291 28.3816 44.0113C28.2834 43.939 28.1829 43.8744 28.0772 43.8138C28.0649 43.806 28.0527 43.7983 28.04 43.7903C28.04 43.7837 28.04 43.7771 28.04 43.7703C28.6455 43.733 29.1175 44.1103 29.58 44.4502C29.5955 44.4616 29.6111 44.473 29.627 44.4847C29.7222 44.5546 29.8173 44.6247 29.9123 44.6949C29.9596 44.7298 30.007 44.7647 30.0544 44.7995C30.0859 44.8226 30.1173 44.8457 30.1488 44.8689C30.1642 44.8802 30.1797 44.8916 30.1956 44.9032C30.2801 44.9655 30.3642 45.0282 30.4479 45.0915C30.4658 45.1051 30.4837 45.1186 30.5022 45.1325C30.5364 45.1585 30.5707 45.1845 30.6048 45.2106C30.6936 45.2778 30.7819 45.3373 30.88 45.39C30.8946 45.373 30.9091 45.3561 30.9241 45.3386C31.0097 45.2387 31.0954 45.1388 31.181 45.039C31.1907 45.0276 31.2005 45.0162 31.2106 45.0045C31.2304 44.9813 31.2502 44.9582 31.27 44.9351C31.3198 44.877 31.3696 44.819 31.4193 44.7608C31.5334 44.6276 31.6479 44.4948 31.7629 44.3624C31.8659 44.2437 31.9682 44.1244 32.0704 44.005C32.1302 43.935 32.1902 43.8652 32.2501 43.7953C32.2999 43.7372 32.3496 43.6792 32.3993 43.6211C32.5134 43.4878 32.6279 43.355 32.7429 43.2226C32.8156 43.1388 32.8879 43.0548 32.96 42.9705C33.0538 42.8609 33.1482 42.7518 33.2428 42.6429C33.3173 42.5571 33.3912 42.4708 33.465 42.3844C33.5476 42.2878 33.6318 42.193 33.7174 42.0991C33.7621 42.0484 33.8042 41.9961 33.8463 41.9433C34.1029 41.629 34.4091 41.3566 34.8263 41.2946C34.8639 41.2927 34.9015 41.2908 34.9391 41.2879Z" fill="#D9D9D9"/>
</g>
<defs>
<clipPath id="clip0_161_677">
<rect width="90" height="90" fill="white" transform="translate(0.5)"/>
</clipPath>
</defs>
</svg>
