<svg width="91" height="84" viewBox="0 0 91 84" fill="none" xmlns="http://www.w3.org/2000/svg">
<g clip-path="url(#clip0_161_914)">
<mask id="mask0_161_914" style="mask-type:luminance" maskUnits="userSpaceOnUse" x="0" y="0" width="91" height="84">
<path d="M90.498 0.0683594H0.498047V83.932H90.498V0.0683594Z" fill="white"/>
</mask>
<g mask="url(#mask0_161_914)">
<path d="M59.7519 80.4498C59.7519 80.7792 59.7519 81.118 59.7519 81.4473C59.7139 82.9247 65.5581 83.894 64.1327 83.9128C61.9946 83.941 41.1362 83.9128 38.9981 83.9128C30.1225 83.9128 21.247 83.9128 12.381 83.9128C10.3379 83.9128 9.50169 83.0565 9.50169 80.9486C9.50169 65.3465 9.50169 49.735 9.50169 34.1329V32.8531C9.14059 33.1072 8.89352 33.2671 8.65595 33.4459C7.22105 34.5375 5.78614 35.6479 4.34173 36.7301C3.07787 37.6805 1.72849 37.5394 0.939768 36.3819C0.151044 35.2433 0.445627 33.8788 1.69998 32.9284C15.707 22.2478 29.7329 11.5578 43.7494 0.867852C45.1558 -0.20491 45.8875 -0.20491 47.3034 0.877262C61.2058 11.4731 75.1083 22.069 88.9917 32.6837C89.5619 33.1166 89.9895 33.7471 90.4836 34.2834V35.742C89.1913 37.6805 88.146 37.8499 86.2835 36.429C84.7535 35.2621 83.2236 34.0952 81.5131 32.7966V80.7039C81.5131 83.1882 80.8004 83.9128 78.3677 83.9128H57.6328C57.3668 83.9128 57.1007 83.9128 56.8441 83.9128C55.4662 83.8563 54.4494 82.8212 54.4874 81.5132C54.516 80.224 55.5137 79.2265 56.8536 79.2171C59.866 79.1983 62.8878 79.2171 65.9002 79.2171C69.2356 79.2171 72.5806 79.2171 75.916 79.2171H76.9708V78.1726C76.9708 62.2035 76.9708 46.2344 76.9708 30.2653C76.9708 29.7477 76.9708 29.3243 76.4672 28.9385C66.2708 21.2033 56.1029 13.4305 45.916 5.66705C45.802 5.57295 45.6784 5.49767 45.4979 5.37533C43.4168 6.96566 41.3167 8.55598 39.2261 10.1463C31.0918 16.3382 22.9765 22.5489 14.8327 28.722C14.2625 29.1549 14.0155 29.5972 14.0155 30.35C14.0345 46.2626 14.0345 62.1658 14.0345 78.0785V79.1512H62.0136" fill="white"/>
<path d="M46.7902 38.0943C46.7902 41.5478 43.9584 44.3615 40.4804 44.3709H40.4614C38.7509 44.3709 37.1449 43.7122 35.9381 42.5171C34.7407 41.3314 34.0756 39.7599 34.0756 38.1037C34.0756 36.4099 34.7407 34.8196 35.9476 33.6245C37.1544 32.4388 38.7604 31.7801 40.4709 31.7801C43.9489 31.7801 46.7807 34.6125 46.7807 38.0943M64.1421 26.9809C62.8497 26.9809 61.5668 26.9809 60.2745 26.9809C59.2102 26.9809 58.735 27.6584 58.735 28.3265C58.735 29.0041 59.2102 29.6816 60.2745 29.691C60.5216 29.691 60.7686 29.691 61.0157 29.691C60.5786 30.1239 60.1414 30.5567 59.7043 30.9896C57.5472 33.1257 55.3046 35.3277 53.138 37.5203C52.6533 38.019 52.2732 38.179 51.6935 38.1225C51.0284 38.0661 50.3537 38.0849 49.7075 38.0943C49.66 38.0943 49.6125 38.0943 49.5649 38.0943C49.5269 33.3798 45.9444 29.484 41.1361 29.0793C36.8408 28.7123 32.7547 31.5919 31.6429 35.77C31.0822 37.8685 31.2628 39.9105 32.194 41.8584C33.3058 44.1827 35.1113 45.7824 37.5915 46.6199C36.9264 47.2787 36.2992 47.9091 35.653 48.5302C35.634 48.5302 35.6055 48.5302 35.577 48.5302C34.0756 48.5302 32.4696 48.549 30.8922 48.5302C30.3315 48.5302 29.8469 48.7184 29.4382 49.123C27.9463 50.6099 26.4544 52.0873 24.9625 53.5647C24.2403 54.2798 23.5276 54.995 22.8054 55.7008C22.6628 55.8419 22.5108 56.0019 22.3967 56.1995C22.0832 56.7359 22.1782 57.3381 22.6248 57.7898C22.9004 58.0627 23.233 58.2039 23.5751 58.2039C23.7936 58.2039 24.0217 58.1474 24.2308 58.0251C24.4493 57.9028 24.6204 57.7428 24.7724 57.5922L24.915 57.4511C26.939 55.4561 29.0201 53.3953 31.0632 51.3533C31.1677 51.2498 31.2057 51.2403 31.3103 51.2498C32.061 51.2498 32.8117 51.2498 33.5624 51.2498C34.3416 51.2498 35.1304 51.2498 35.9191 51.2498C36.5272 51.2498 37.0024 51.0615 37.411 50.6475C38.5608 49.4806 39.7487 48.3044 40.946 47.1563C40.9935 47.1093 41.0885 47.0622 41.1551 47.0622C45.1082 46.5823 47.7784 44.4744 49.0898 40.8138C49.6125 40.8138 50.1351 40.8138 50.6673 40.8138C51.3514 40.8138 52.0642 40.8138 52.7674 40.8138C53.366 40.8138 53.8507 40.6256 54.2973 40.1834C56.8915 37.5956 59.4953 35.0266 62.099 32.4482L62.9542 31.5919C62.9542 31.8365 62.9542 32.0718 62.9542 32.3164C62.9542 33.3704 63.6384 33.8409 64.3131 33.8409C64.6837 33.8409 65.0068 33.7186 65.2539 33.4739C65.4534 33.2763 65.6815 32.9281 65.6815 32.3164C65.6815 31.0461 65.6815 29.7663 65.6815 28.4865C65.6815 27.4984 65.1304 26.962 64.1421 26.9526" fill="white"/>
<path d="M55.5339 72.5917H60.7509V45.0198H55.5339V72.5917ZM63.4592 58.8151C63.4592 63.699 63.4592 68.5923 63.4592 73.4762C63.4592 74.8783 63.041 75.283 61.6251 75.2924C59.24 75.2924 56.8548 75.2924 54.4696 75.2924C53.2723 75.2924 52.8066 74.8313 52.8066 73.6456C52.8066 63.7649 52.8066 53.8748 52.8066 43.9847C52.8066 42.799 53.2723 42.3473 54.4696 42.3379C56.9118 42.3379 59.3445 42.3379 61.7867 42.3379C62.984 42.3379 63.4497 42.799 63.4497 43.9847C63.4497 48.925 63.4497 53.8748 63.4497 58.8151" fill="white"/>
<path d="M47.4126 55.5879H42.1956V72.6204H47.4126V55.5879ZM39.4873 64.0947C39.4873 60.9329 39.4873 57.7805 39.4873 54.6187C39.4873 53.3201 39.9244 52.8872 41.2358 52.8872C43.6495 52.8872 46.0632 52.8872 48.4769 52.8872C49.6742 52.8872 50.1398 53.3483 50.1398 54.534C50.1398 60.9047 50.1398 67.2754 50.1398 73.6461C50.1398 74.8318 49.6742 75.2929 48.4769 75.2929C46.0347 75.2929 43.5925 75.2929 41.1598 75.2929C39.9624 75.2929 39.4968 74.8318 39.4968 73.6461C39.4968 70.4654 39.4968 67.2754 39.4968 64.0947" fill="white"/>
<path d="M28.8902 72.6108H34.1071V60.8386H28.8902V72.6108ZM36.8344 66.7859C36.8344 69.0349 36.8344 71.2934 36.8344 73.5424C36.8344 74.8692 36.3973 75.2927 35.0289 75.2927C32.6722 75.2927 30.3156 75.2927 27.9589 75.2927C26.638 75.2927 26.1914 74.8598 26.1914 73.58C26.1914 69.0255 26.1914 64.4616 26.1914 59.907C26.1914 58.5708 26.6285 58.1567 27.9969 58.1567C30.3251 58.1567 32.6532 58.1567 34.9814 58.1567C36.4353 58.1567 36.8344 58.5614 36.8344 60.0294C36.8344 62.2784 36.8344 64.5274 36.8344 66.7859Z" fill="white"/>
<path d="M41.1255 34.5933C41.4105 34.5933 41.6291 34.5838 41.8477 34.5933C42.2563 34.6215 42.5414 34.9226 42.5319 35.299C42.5319 35.6566 42.2468 35.9483 41.8572 35.9671C41.42 35.986 40.9829 35.9671 40.5458 35.9671C40.0517 35.9671 39.7476 36.2306 39.7286 36.6353C39.7096 37.0399 40.0041 37.3222 40.4888 37.3599C41.5436 37.4445 42.2848 38.075 42.4938 39.0537C42.6839 39.9382 42.2373 40.804 41.382 41.3121C41.2585 41.3874 41.173 41.585 41.135 41.7356C41.0969 41.9144 41.135 42.112 41.116 42.3002C41.0589 42.6766 40.8214 42.893 40.4413 42.9213C40.0802 42.9401 39.7666 42.6672 39.7286 42.2908C39.7096 42.0649 39.7286 41.8297 39.7286 41.538C39.4815 41.538 39.2534 41.5474 39.0254 41.538C38.6072 41.5097 38.3222 41.2274 38.3222 40.851C38.3222 40.4746 38.5977 40.1735 39.0159 40.1547C39.453 40.1359 39.8901 40.1547 40.3272 40.1547C40.8119 40.1547 41.116 39.8724 41.116 39.4677C41.116 39.0725 40.8404 38.809 40.3842 38.7714C39.3009 38.6773 38.5787 38.075 38.3602 37.0964C38.1606 36.193 38.5977 35.3273 39.4815 34.8097C39.5955 34.7438 39.681 34.5838 39.7096 34.4615C39.7476 34.2827 39.7096 34.0851 39.7286 33.8969C39.7571 33.4829 40.0516 33.21 40.4318 33.21C40.8119 33.21 41.0969 33.4923 41.1255 33.9063C41.135 34.1227 41.1255 34.3298 41.1255 34.6027" fill="white"/>
</g>
</g>
<defs>
<clipPath id="clip0_161_914">
<rect width="90" height="83.8636" fill="white" transform="translate(0.5 0.0683594)"/>
</clipPath>
</defs>
</svg>
