<svg width="24" height="24" viewBox="0 0 24 24" fill="none" xmlns="http://www.w3.org/2000/svg">
<path d="M7.4831 5.25948C6.33867 5.38738 5.42262 6.29063 5.29021 7.42274C4.93451 10.4639 4.93451 13.5361 5.29021 16.5773C5.42262 17.7094 6.33867 18.6126 7.4831 18.7405C10.4599 19.0732 13.5396 19.0732 16.5164 18.7405C17.6608 18.6126 18.5769 17.7094 18.7093 16.5773C18.9648 14.3921 19.0368 12.1909 18.9251 9.99674C18.9222 9.94008 18.9434 9.88481 18.9835 9.84469L20.0223 8.80591C20.1425 8.68568 20.3479 8.76086 20.3607 8.93042C20.5567 11.5353 20.5029 14.1544 20.1991 16.7515C19.9843 18.5885 18.5094 20.0271 16.683 20.2313C13.5954 20.5763 10.404 20.5763 7.31649 20.2313C5.49011 20.0271 4.01521 18.5885 3.80036 16.7515C3.43113 13.5946 3.43113 10.4054 3.80036 7.24849C4.01521 5.41153 5.49011 3.97288 7.31649 3.76876C10.404 3.42368 13.5954 3.42368 16.683 3.76876C17.3262 3.84065 17.9259 4.06568 18.4423 4.40732C18.5439 4.47454 18.5539 4.61738 18.4678 4.70353L17.6649 5.50641C17.5992 5.57208 17.4974 5.58313 17.4155 5.53926C17.1421 5.39277 16.8383 5.29545 16.5164 5.25948C13.5396 4.92677 10.4599 4.92677 7.4831 5.25948Z" fill="#115056"/>
<path d="M21.0301 6.03034C21.3229 5.73744 21.3229 5.26257 21.0301 4.96968C20.7372 4.67678 20.2623 4.67678 19.9694 4.96968L11.4997 13.4393L9.03006 10.9697C8.73716 10.6768 8.26229 10.6768 7.9694 10.9697C7.6765 11.2626 7.6765 11.7374 7.9694 12.0303L10.9694 15.0303C11.2623 15.3232 11.7372 15.3232 12.0301 15.0303L21.0301 6.03034Z" fill="#115056"/>
</svg>
