<svg preserveAspectRatio="none" width="100%" height="100%" overflow="visible" style="display: block;" viewBox="0 0 70 73" fill="none" xmlns="http://www.w3.org/2000/svg">
<g id="Group">
<path id="Vector" d="M34.4299 39.4259C35.3257 39.6419 36.1761 39.851 37.0287 40.0489C38.7635 40.4536 40.5006 40.8446 42.2355 41.2516C46.726 42.3044 49.434 45.6762 49.4544 50.2986C49.4749 55.4053 49.4703 60.5098 49.4544 65.6165C49.443 69.9501 46.5918 72.8081 42.2446 72.8127C31.5514 72.8263 20.8583 72.8172 10.1651 72.8172C8.97369 72.8172 7.78228 72.8377 6.59087 72.7945C2.94842 72.6604 0.0835727 69.8251 0.04492 66.169C-0.0141958 60.6666 -0.0187432 55.1621 0.0540148 49.662C0.104036 45.7103 2.8893 42.2543 6.73411 41.3085C9.51255 40.6241 12.3228 40.0648 15.1286 39.5077C15.8084 39.3713 15.988 39.0894 15.963 38.4368C15.9153 37.134 15.9835 35.8266 15.9266 34.5238C15.9107 34.1532 15.722 33.6962 15.456 33.4415C12.3933 30.5267 10.9063 26.9638 10.8063 22.7484C10.7563 20.6293 10.5039 18.5148 10.3652 16.3957C10.1947 13.765 10.4607 11.173 11.3497 8.68561C12.9526 4.2019 16.1836 1.51213 20.7809 0.473055C25.3783 -0.56602 29.637 -0.0203349 33.2112 3.38792C33.3567 3.52662 33.6045 3.59937 33.8137 3.62439C37.0287 4.01546 38.8749 5.60931 39.723 8.74018C40.296 10.8593 40.3437 13.0261 39.9913 15.1565C39.5093 18.0714 39.3411 20.9931 39.2342 23.9398C39.1023 27.5549 37.5562 30.6085 34.9779 33.1255C34.5777 33.5166 34.4049 33.894 34.4162 34.4488C34.4481 36.0904 34.4276 37.7342 34.4276 39.4236L34.4299 39.4259ZM19.1439 49.8848C18.9165 50.0122 18.7915 50.0735 18.6755 50.1463C17.2545 51.0194 16.9998 50.9671 16.0812 49.5938C14.6625 47.4724 13.2346 45.3556 11.8454 43.2161C11.5293 42.7295 11.2246 42.5977 10.663 42.7545C9.76266 43.0046 8.83727 43.1502 7.92097 43.3457C4.45587 44.0824 2.29587 46.7039 2.2845 50.2372C2.26859 55.4008 2.27313 60.5621 2.2845 65.7256C2.29132 68.6132 4.20577 70.539 7.08426 70.5549C10.3743 70.5708 13.6643 70.5458 16.9566 70.5708C17.5137 70.5754 17.7365 70.4049 17.8661 69.8592C19.0143 65.064 20.2148 60.2801 21.3425 55.4804C21.4835 54.8824 21.4767 54.1252 21.2266 53.5841C20.6354 52.3108 19.8578 51.1263 19.1439 49.8826V49.8848ZM18.5846 14.047C17.1999 15.3566 15.8857 16.6003 14.5715 17.8395C13.4574 18.8899 12.8685 20.1268 13.1186 21.7025C13.1891 22.1458 13.1277 22.6074 13.1323 23.0621C13.1914 28.6941 17.234 33.5939 22.684 34.6443C28.4137 35.747 33.982 32.7389 36.1693 27.4253C37.1424 25.0607 37.1742 22.596 36.981 20.1404C36.8059 17.9009 34.9005 16.4071 32.6519 16.6026C31.7992 16.6776 30.9398 16.9778 30.1417 17.3143C26.0309 19.0514 22.2361 18.2146 19.2917 14.8655C19.1052 14.654 18.9233 14.4403 18.5823 14.047H18.5846ZM30.4964 49.5688C29.7029 50.8671 28.8389 52.0721 28.2136 53.3886C27.9135 54.0207 27.8771 54.9119 28.0431 55.61C29.1822 60.3779 30.41 65.1231 31.5923 69.8774C31.7106 70.3548 31.8856 70.5777 32.4336 70.5731C35.8077 70.5458 39.1819 70.5822 42.556 70.5504C45.2185 70.5254 47.1739 68.5654 47.1853 65.9007C47.208 60.6257 47.2126 55.3508 47.1853 50.0781C47.1694 46.8358 45.0798 44.2756 41.9194 43.5185C41.0645 43.3139 40.1914 43.1774 39.3547 42.916C38.7681 42.7318 38.493 42.9319 38.1883 43.398C36.7468 45.6057 35.2802 47.7953 33.8069 49.9826C33.2362 50.8307 32.7519 50.9262 31.8674 50.4078C31.4332 50.1531 31.0057 49.8848 30.4896 49.5711L30.4964 49.5688ZM37.5608 16.207C37.6426 15.6567 37.7245 15.252 37.7608 14.8405C37.945 12.7737 38.0541 10.7069 37.3243 8.70608C36.8309 7.35551 35.9828 6.35054 34.5117 6.00721C32.645 5.56839 32.1744 5.31601 30.6578 4.2019C30.0462 3.75399 29.3846 3.31289 28.6752 3.06961C24.2802 1.55988 20.1466 2.14422 16.4973 5.02725C13.7734 7.18043 12.9276 10.309 12.673 13.6241C12.6048 14.5222 12.6616 15.4316 12.6616 16.2297C14.4328 14.7791 16.129 13.3262 17.8956 11.9643C19.0757 11.0548 19.4713 11.1776 20.2785 12.3963C22.5408 15.8159 25.7126 16.7322 29.5028 15.1042C30.2509 14.7836 31.0466 14.5199 31.8447 14.388C33.9774 14.0333 35.876 14.6017 37.5585 16.2047L37.5608 16.207ZM29.3869 70.4935C29.3141 70.1684 29.2595 69.9001 29.1936 69.6341C28.0931 65.2413 27.0268 60.8372 25.8717 56.4581C25.3715 54.5618 25.6807 52.8861 26.7335 51.2831C27.3314 50.3714 27.8976 49.4392 28.5024 48.4751C27.3564 47.7771 26.3015 47.1155 25.2237 46.4948C25.0487 46.3947 24.7122 46.3833 24.5439 46.4857C23.3866 47.1882 22.252 47.9295 21.0538 48.6957C21.6631 49.6938 22.2361 50.6351 22.8091 51.5719C23.7117 53.0475 23.9527 54.6095 23.5298 56.3012C22.4203 60.7508 21.3403 65.2095 20.2512 69.6636C20.1875 69.9206 20.1511 70.1843 20.0943 70.4935H29.3823H29.3869ZM32.138 35.3287C27.4497 37.7183 22.9023 37.7479 18.2572 35.4628C18.2572 36.8066 18.239 38.0457 18.2753 39.2803C18.2822 39.4736 18.5027 39.7237 18.6892 39.8374C20.5854 40.972 22.4862 42.0997 24.4075 43.1865C24.6462 43.3207 25.0805 43.3412 25.3147 43.2138C27.436 42.077 29.5369 40.9015 31.631 39.7146C31.8447 39.5941 32.1039 39.319 32.1107 39.1075C32.1562 37.8957 32.1335 36.6815 32.1335 35.3287H32.138ZM32.3745 48.0386C33.6909 46.0628 34.9506 44.1733 36.2511 42.2202C35.3621 42.0065 34.6277 41.7632 33.8774 41.6745C33.4181 41.62 32.877 41.6927 32.4654 41.8974C31.2013 42.5294 29.9803 43.2502 28.7457 43.9391C28.2455 44.2188 27.7498 44.5098 27.145 44.8554C28.9503 45.9536 30.6124 46.9654 32.3768 48.0386H32.3745ZM22.6772 44.8418C21.0129 43.8641 19.419 43.0524 17.9707 42.0383C16.5041 41.0106 15.2786 41.9792 13.8257 42.1065C15.1945 44.1574 16.4632 46.0582 17.7683 48.0136C19.3963 46.9609 20.956 45.9536 22.6772 44.8418Z" fill="var(--fill-0, #115056)"/>
<path id="Vector_2" d="M54.1041 25.727C54.0222 25.7952 53.9313 25.8612 53.8517 25.9385C53.4402 26.3273 53.0332 26.7206 52.5534 27.1776C53.422 28.3372 52.7331 29.0921 51.9282 29.8788C50.041 31.7182 48.1948 33.6031 46.3281 35.4629C45.355 36.4338 44.7024 36.4315 43.7224 35.4629C43.1768 34.9263 42.6243 34.3966 42.1013 33.8372C41.4124 33.1028 41.3965 32.3866 42.1081 31.6636C44.2181 29.5241 46.3304 27.3845 48.4995 25.3064C48.82 24.9994 49.5249 24.8153 49.9387 24.9449C50.5094 25.1222 50.805 25.0176 51.1551 24.6174C51.4325 24.2991 51.7758 24.0399 52.1237 23.7216C50.2866 21.0546 49.6545 18.2079 50.473 15.118C51.1006 12.7511 52.4557 10.8685 54.4724 9.48834C58.5014 6.73263 63.9423 7.33061 67.2824 10.873C70.6634 14.4586 70.9157 19.8973 67.9145 23.8103C65.2838 27.239 59.5928 29.4127 54.1041 25.7247V25.727ZM67.1596 17.6668C67.1414 13.747 63.9787 10.6024 60.0566 10.607C56.1049 10.6093 52.9786 13.8015 52.9536 17.7691C52.9286 21.4502 56.3801 24.8926 60.1294 24.8107C64.0515 24.7243 67.1801 21.598 67.1619 17.6691L67.1596 17.6668Z" fill="var(--fill-0, #115056)"/>
<path id="Vector_3" d="M60.3908 11.762C60.8524 11.8712 61.6004 12.0076 62.3235 12.2304C62.8737 12.4009 63.1784 12.8375 62.9874 13.4195C62.7873 14.0312 62.3121 14.1926 61.6937 14.0334C59.088 13.3581 57.7716 13.8925 56.3755 16.1912C56.0527 16.7232 55.6207 17.0029 55.0386 16.6846C54.4702 16.3731 54.4111 15.8615 54.6907 15.2953C55.798 13.0603 57.6169 11.928 60.3908 11.762Z" fill="var(--fill-0, #115056)"/>
<path id="Vector_4" d="M40.5984 60.5303C40.296 60.3075 40.03 60.1097 39.7617 59.9142C39.4593 59.6913 39.1546 59.4731 38.8522 59.248C38.5816 59.0479 38.568 58.9388 38.7658 58.6705C39.0068 58.3476 39.241 58.0202 39.482 57.6996C39.5957 57.5473 39.5934 57.4222 39.4638 57.2721C38.8704 56.5946 38.2883 55.9102 37.7017 55.2281C37.6426 55.1599 37.588 55.0894 37.5335 55.0212C37.5448 55.0098 37.5562 54.9962 37.5676 54.9848C37.6131 55.0075 37.6585 55.028 37.7017 55.0507C38.9159 55.6669 40.13 56.2831 41.3419 56.8993C41.592 57.0266 41.6216 57.1471 41.4556 57.3722C41.1941 57.7223 40.9281 58.0679 40.6666 58.4158C40.4733 58.6727 40.487 58.7864 40.7325 58.991C41.9535 60.0006 43.1722 61.0124 44.3955 62.0196C44.4659 62.0787 44.5523 62.1174 44.6319 62.1651C44.6115 62.1969 44.5933 62.2265 44.5728 62.2583C44.5069 62.2697 44.4387 62.2902 44.3727 62.2902C42.2787 62.2902 40.1823 62.3175 38.0883 62.2811C37.0492 62.2629 36.1874 61.7536 35.4644 61.026C34.6936 60.2484 34.2866 59.2866 34.2548 58.2066C34.2093 56.6719 34.2366 55.1326 34.2344 53.5956C34.2344 53.0795 34.2389 52.5611 34.2344 52.0449C34.2344 51.8835 34.2889 51.813 34.4549 51.813C36.3966 51.7971 38.3406 51.6743 40.2755 51.7835C42.5219 51.9085 44.2522 53.2955 44.6433 55.6305C44.6956 55.9466 44.7138 56.2717 44.716 56.5923C44.7229 57.8133 44.716 59.0365 44.716 60.2575C44.716 60.3098 44.691 60.3916 44.6524 60.4076C44.6137 60.4257 44.5342 60.3939 44.4955 60.3598C44.0703 59.9983 43.6474 59.6368 43.2336 59.2616C43.1699 59.2048 43.1381 59.0888 43.1336 58.9979C43.0995 58.1316 43.079 57.2653 43.0449 56.4013C42.9812 54.8552 42.0445 53.7775 40.5279 53.4933C40.4165 53.4728 40.3005 53.4683 40.1869 53.466C38.8772 53.466 37.5676 53.466 36.2579 53.466C35.9169 53.466 35.8964 53.4887 35.8964 53.8321C35.8964 55.0417 35.8691 56.2513 35.9032 57.4586C35.9351 58.6204 36.5535 59.8573 37.7972 60.328C38.1178 60.4485 38.4702 60.5167 38.8136 60.5372C39.3615 60.5713 39.914 60.5462 40.4643 60.5462C40.4938 60.5462 40.5256 60.5417 40.6007 60.5326L40.5984 60.5303Z" fill="var(--fill-0, #115056)"/>
</g>
</svg>
