<svg width="110" height="109" viewBox="0 0 110 109" fill="none" xmlns="http://www.w3.org/2000/svg">
<rect x="0.5" y="0.5" width="109" height="108" rx="9.5" fill="#F1FAFA"/>
<rect x="0.5" y="0.5" width="109" height="108" rx="9.5" stroke="#115056"/>
<g clip-path="url(#clip0_174_332)">
<path d="M46.2229 88.9999C38.0203 88.9999 29.8155 88.9999 21.6129 88.9999C20.2805 88.9999 19.9854 88.7179 20.0005 87.3959C20.0722 81.2962 20.2848 75.2094 21.5825 69.2109C22.8042 63.5634 25.8422 59.3218 31.3106 57.0826C32.758 56.4905 34.3877 56.3118 35.9501 56.0254C36.4297 55.9371 36.7248 55.8467 36.881 55.3515C37.1414 54.5333 37.7664 53.7087 37.6883 52.9422C37.6145 52.2381 36.8051 51.6159 36.3363 50.9441C34.6915 48.5822 33.7475 45.9554 33.7779 43.0961C33.8126 39.9203 33.5826 36.7854 33.0727 33.657C32.3804 29.4154 34.1468 26.1707 37.5212 23.7915C42.0391 20.6136 47.08 19.3648 52.6027 20.3057C54.6685 20.6588 56.0877 21.6987 56.8451 23.7097C57.1076 24.4095 57.7456 25.0317 58.3467 25.5312C59.5597 26.5432 60.4668 27.7424 61.0831 29.1742C61.7688 30.7589 61.7948 32.3544 61.1178 33.9476C60.9399 34.3675 60.7858 34.8132 60.5254 35.1814C59.4143 36.751 59.206 38.4842 59.2451 40.3617C59.282 42.2284 59.1496 44.1231 58.8393 45.964C58.4292 48.3949 57.227 50.5092 55.5517 52.3329C55.2306 52.6817 55.2219 52.9637 55.3304 53.4051C55.7362 55.0457 56.2917 56.4646 58.4205 56.2235C64.8111 57.7414 68.7931 61.7311 70.5248 67.9535C71.792 72.5137 72.0937 77.2096 72.3063 81.9077C72.391 83.7593 72.4083 85.6131 72.4344 87.4648C72.4517 88.6877 72.1284 88.9978 70.9154 88.9978C62.6845 88.9978 54.4537 88.9978 46.2229 88.9978V88.9999ZM42.3711 67.5358C42.2453 67.6176 42.1129 67.6994 41.9849 67.7856C40.6742 68.6619 40.5006 68.6468 39.4047 67.4691C37.0373 64.9241 34.6676 62.3813 32.324 59.8148C31.9356 59.3885 31.6535 59.2852 31.1045 59.5758C27.1681 61.6622 24.8852 64.9456 23.887 69.198C22.789 73.8766 22.5156 78.6457 22.3051 83.4213C22.2574 84.5129 22.2986 85.6088 22.2986 86.7349H29.7808C29.7808 86.3452 29.7808 86.0244 29.7808 85.7036C29.7808 82.2931 29.7808 78.8847 29.7829 75.4742C29.7829 75.1814 29.7742 74.8757 29.8437 74.5958C29.9847 74.0295 30.3905 73.7195 30.9699 73.7539C31.5406 73.7862 31.9269 74.1135 32.0072 74.7034C32.0441 74.9683 32.0332 75.2395 32.0332 75.5065C32.0332 78.9967 32.0528 82.4868 32.018 85.977C32.0115 86.6638 32.2307 86.8275 32.8904 86.8189C35.4336 86.7844 37.9769 86.8059 40.5223 86.8038C40.7588 86.8038 40.9953 86.7758 41.2427 86.7607C41.3013 86.4421 41.3621 86.1815 41.399 85.9189C42.0608 81.1067 42.6532 76.2838 43.4214 71.4889C43.6688 69.9451 43.3563 68.7265 42.369 67.5401L42.3711 67.5358ZM70.004 86.7693C70.004 84.6615 70.0864 82.6505 69.9866 80.646C69.7826 76.5938 69.4224 72.5547 68.3916 68.608C67.337 64.5732 65.0216 61.5201 61.2827 59.5543C60.8097 59.3067 60.5471 59.367 60.1934 59.7545C57.8823 62.2801 55.5496 64.7863 53.2146 67.2904C51.8627 68.7394 51.8562 68.7329 50.2005 67.6607C50.1636 67.637 50.1029 67.6521 49.9987 67.6456C49.7947 67.9901 49.6189 68.3927 49.3499 68.7179C48.816 69.3638 48.8377 70.0786 48.9506 70.8343C49.2023 72.531 49.441 74.2319 49.6775 75.9307C50.1745 79.5134 50.6692 83.0983 51.1705 86.737H60.4017V85.7983C60.4017 82.3598 60.4017 78.9213 60.4017 75.4828C60.4017 75.2137 60.3887 74.9424 60.4299 74.6798C60.521 74.092 60.9355 73.6915 61.4802 73.7776C61.8795 73.84 62.2766 74.2211 62.5608 74.557C62.7171 74.74 62.652 75.1233 62.652 75.4161C62.6563 78.8804 62.6542 82.3469 62.6542 85.8112C62.6542 86.1213 62.6542 86.4313 62.6542 86.7672H70.0061L70.004 86.7693ZM35.9783 40.9775C35.9957 40.9775 36.013 40.9775 36.0325 40.9775C36.0325 41.8366 35.9891 42.6956 36.0412 43.5526C36.1779 45.7702 36.8593 47.8264 38.1657 49.6307C40.5592 52.9357 43.7512 54.6862 47.9263 54.0812C52.2056 53.4589 55.734 50.0269 56.6411 45.5097C57.01 43.6645 56.8429 41.7181 57.049 39.832C57.2096 38.355 56.806 37.272 55.5127 36.4689C55.1069 36.217 54.8421 36.0921 54.3669 36.2773C49.0656 38.3378 43.7795 38.4088 38.5129 36.1201C38.3045 36.0297 37.9204 36.0663 37.749 36.2041C35.9718 37.6423 35.9783 37.651 35.9783 39.9311V40.9775ZM57.8042 35.5452C58.0993 34.994 58.3228 34.5376 58.5789 34.1005C59.8071 32.0099 59.7051 30.0936 57.4201 27.7145C57.1792 27.4625 56.895 27.2494 56.6129 27.0405C55.7036 26.358 55.0027 25.5161 54.6664 24.4267C54.3257 23.32 53.5727 22.7688 52.4638 22.5578C47.1256 21.5415 42.3646 22.8722 38.144 26.1384C35.1559 28.4508 34.737 31.6029 35.6007 35.3407C36.026 34.8433 36.3342 34.445 36.6835 34.0854C37.5233 33.2177 37.7382 33.1962 38.7906 33.7474C40.6568 34.7271 42.6532 35.2739 44.7451 35.5C48.1455 35.8682 51.3723 35.218 54.458 33.8206C55.1807 33.4933 55.7318 33.5665 56.2765 34.1393C56.7192 34.6065 57.2226 35.0156 57.8042 35.5474V35.5452ZM46.2207 62.1079C48.8768 60.2821 51.4917 58.4842 54.1282 56.6713C53.8331 55.8639 53.564 55.1211 53.2884 54.3654C48.6967 57.1644 44.1918 57.1278 39.6586 54.3288C39.3939 55.0242 39.1226 55.6658 38.9165 56.3268C38.8622 56.4969 38.9447 56.822 39.0792 56.9211C41.4424 58.6586 43.825 60.3725 46.2207 62.1057V62.1079ZM45.7694 70.6729C45.0316 76.0147 44.2959 81.3479 43.5559 86.7155H48.7661C48.7661 86.498 48.7813 86.3624 48.764 86.2311C48.0804 81.2101 47.3882 76.1912 46.7111 71.1702C46.6395 70.6341 46.3704 70.4963 45.7694 70.6729ZM44.2677 63.4557C42.1281 61.9076 40.0319 60.5189 38.0897 58.9407C36.8268 57.9137 35.6072 58.2904 34.1403 58.4907C36.4774 61.0098 38.6973 63.4062 40.9172 65.8004C42.0695 64.9952 43.1263 64.2545 44.2655 63.4557H44.2677ZM58.2078 58.5337C56.8299 58.1419 55.6581 58.0536 54.6143 59.0354C54.1868 59.4359 53.6465 59.7179 53.1582 60.0538C51.5242 61.1777 49.888 62.3017 48.1607 63.4902C49.3303 64.2803 50.4088 65.0102 51.5112 65.7552C53.7528 63.3373 55.9445 60.9753 58.2078 58.5359V58.5337ZM48.1281 66.2074C47.5726 65.809 47.067 65.415 46.5245 65.0813C46.3683 64.9866 46.0558 64.9822 45.8996 65.077C45.3527 65.4042 44.8449 65.7918 44.2916 66.1772C44.6366 66.8038 44.9339 67.37 45.2594 67.9212C45.5719 68.4487 46.7806 68.5047 47.1104 67.9944C47.4706 67.4368 47.7723 66.8425 48.1281 66.2095V66.2074Z" fill="#115056"/>
<path d="M78.5142 47.6112C78.6488 48.1624 78.716 48.6425 78.894 49.0774C78.9656 49.2497 79.2781 49.4069 79.4929 49.4241C81.5653 49.5856 82.8065 50.6191 83.3121 52.6473C83.477 53.3061 83.1125 53.7733 82.3443 53.8013C81.4264 53.8336 80.5041 53.8099 79.584 53.8099C76.3095 53.8099 73.035 53.8121 69.7604 53.8099C68.4519 53.8099 68.172 53.3492 68.6147 52.1607C69.2678 50.4102 70.4158 49.4026 72.3688 49.4198C72.538 49.4198 72.8028 49.2152 72.8657 49.0451C73.0241 48.6253 73.0914 48.1731 73.2259 47.6112C72.8679 47.6112 72.5836 47.6112 72.2993 47.6112C69.1876 47.6112 66.0758 47.6112 62.9618 47.6112C61.892 47.6112 61.6034 47.2796 61.7813 46.2268C62.6298 41.1735 63.4848 36.1223 64.3289 31.0669C64.4461 30.3693 64.7998 30.0377 65.5268 30.0377C72.4274 30.0463 79.3302 30.0441 86.2308 30.0377C86.9577 30.0377 87.2897 30.3843 87.4069 31.0862C88.2445 36.1417 89.1038 41.1928 89.9523 46.2461C90.1259 47.2796 89.8417 47.6069 88.7415 47.6069C85.6557 47.6112 82.57 47.6069 79.4864 47.6069C79.1934 47.6069 78.9005 47.6069 78.5142 47.6069V47.6112ZM82.8976 45.9038C82.7479 44.4225 82.6069 43.0208 82.4636 41.6041H79.3519V45.9038H82.8955H82.8976ZM72.4165 41.5847H69.2765C69.1355 43.038 68.9966 44.4505 68.8599 45.8715H72.4165V41.5847ZM74.2176 41.5653V45.8693H77.5052V41.5653H74.2176ZM84.1866 41.5459C84.3407 43.0617 84.4839 44.4612 84.6315 45.8952H88.1469C87.9234 44.543 87.715 43.2297 87.472 41.9227C87.4438 41.7763 87.2051 41.5675 87.0575 41.561C86.1244 41.5287 85.1892 41.5438 84.1888 41.5438L84.1866 41.5459ZM67.5557 41.5459C66.5445 41.5459 65.607 41.533 64.6696 41.561C64.5372 41.5653 64.3202 41.7462 64.2985 41.8732C64.0512 43.2017 63.8363 44.5366 63.6063 45.8973H67.1109C67.2562 44.4634 67.3995 43.0617 67.5557 41.5459ZM83.6593 36.3592C83.783 37.5412 83.9024 38.6694 84.0174 39.7718H87.1248C86.9208 38.5833 86.7277 37.4637 86.5389 36.3592H83.6593ZM77.3337 39.8041V36.3742H74.3825V39.8041H77.3337ZM68.083 36.3592H65.2034C65.0103 37.5197 64.8258 38.635 64.6349 39.7847H67.7271C67.8465 38.6328 67.9615 37.524 68.0809 36.3592H68.083ZM81.9385 36.3742H79.1565V39.7804H82.2727C82.1577 38.6156 82.0492 37.5046 81.9385 36.3742ZM69.8038 36.3527C69.6953 37.5046 69.5868 38.6307 69.4783 39.7761H72.6075V36.3527H69.8038ZM70.585 52.0143H81.0813C81.1117 51.9195 81.1443 51.8248 81.1747 51.7322C80.6625 51.5341 80.1548 51.1767 79.6383 51.1638C77.1276 51.1035 74.6147 51.1336 72.1019 51.1401C71.4747 51.1401 70.9626 51.3726 70.585 52.0164V52.0143ZM83.4944 34.5613H86.2525C86.0832 33.6054 85.9291 32.7204 85.7729 31.8398H83.2058C83.3056 32.7786 83.3989 33.6699 83.4944 34.5613ZM81.754 34.5786C81.6564 33.6312 81.5653 32.7377 81.4741 31.8506H79.009V34.5786H81.7519H81.754ZM70.2617 31.8506C70.1727 32.7807 70.0881 33.6527 69.9991 34.5721H72.7681V31.8506H70.2617ZM65.5072 34.5893H68.2501C68.3478 33.6699 68.4411 32.7764 68.5387 31.8506H65.9694C65.8154 32.757 65.67 33.6226 65.5072 34.5893ZM74.5757 34.5699H77.145V31.8506H74.5757V34.5699ZM77.1276 49.3638C76.878 47.5961 76.8325 47.5186 75.5326 47.6263C74.3674 47.721 75.0075 48.7889 74.4715 49.3638H77.1276Z" fill="#115056"/>
</g>
<defs>
<clipPath id="clip0_174_332">
<rect width="70" height="69" fill="white" transform="translate(20 20)"/>
</clipPath>
</defs>
</svg>
