<svg width="100" height="100" viewBox="0 0 100 100" fill="none" xmlns="http://www.w3.org/2000/svg">
<g clip-path="url(#clip0_248_5316)">
<path d="M37.4613 100C25.7432 100 14.0221 100 2.30409 100C0.400683 100 -0.020918 99.5914 0.000782073 97.6755C0.103082 88.8353 0.406883 80.0139 2.26069 71.3204C4.00599 63.1356 8.346 56.9883 16.158 53.7431C18.2257 52.885 20.5538 52.626 22.7858 52.211C23.4709 52.0831 23.8925 51.952 24.1157 51.2343C24.4877 50.0485 25.3805 48.8534 25.2689 47.7426C25.1635 46.7222 24.0072 45.8204 23.3376 44.8468C20.9878 41.4237 19.6393 37.6168 19.6827 33.4729C19.7323 28.8703 19.4037 24.3269 18.6752 19.793C17.6863 13.6458 20.2097 8.94329 25.0302 5.49523C31.4844 0.889494 38.6858 -0.920348 46.5753 0.443275C49.5265 0.955023 51.5539 2.46218 52.6358 5.37665C53.0109 6.39079 53.9223 7.29259 54.781 8.01653C56.5139 9.48312 57.8097 11.2212 58.6901 13.2963C59.6697 15.5929 59.7069 17.9051 58.7397 20.2142C58.4855 20.8227 58.2654 21.4686 57.8934 22.0022C56.3062 24.277 56.0086 26.789 56.0644 29.51C56.1171 32.2154 55.928 34.9613 55.4847 37.6293C54.8988 41.1522 53.1814 44.2165 50.7882 46.8595C50.3294 47.365 50.317 47.7738 50.472 48.4134C51.0517 50.7912 51.8453 52.8476 54.8864 52.4981C64.0159 54.698 69.7044 60.4801 72.1782 69.4981C73.9886 76.1071 74.4195 82.9128 74.7233 89.7215C74.8442 92.4051 74.869 95.0917 74.9062 97.7753C74.931 99.5477 74.4691 99.997 72.7362 99.997C60.9779 99.997 49.2196 99.997 37.4613 99.997V100ZM31.9587 68.8927C31.7789 69.0113 31.5898 69.1299 31.4069 69.2547C29.5345 70.5247 29.2865 70.5029 27.721 68.796C24.3389 65.1077 20.9537 61.4225 17.6057 57.7029C17.0508 57.0851 16.6478 56.9353 15.8635 57.3566C10.2401 60.3802 6.9789 65.1389 5.55289 71.3017C3.98429 78.0824 3.59369 84.9941 3.29299 91.9152C3.22479 93.4972 3.28369 95.0855 3.28369 96.7175H13.9725C13.9725 96.1527 13.9725 95.6878 13.9725 95.2228C13.9725 90.2801 13.9725 85.3404 13.9756 80.3977C13.9756 79.9733 13.9632 79.5302 14.0624 79.1246C14.2639 78.3039 14.8436 77.8546 15.6713 77.9045C16.4866 77.9513 17.0384 78.4256 17.1531 79.2806C17.2058 79.6644 17.1903 80.0576 17.1903 80.4445C17.1903 85.5027 17.2182 90.5609 17.1686 95.6191C17.1593 96.6145 17.4724 96.8517 18.4148 96.8392C22.048 96.7893 25.6812 96.8205 29.3175 96.8173C29.6554 96.8173 29.9933 96.7768 30.3467 96.7549C30.4304 96.2931 30.5172 95.9155 30.5699 95.5349C31.5154 88.5607 32.3617 81.571 33.4592 74.6218C33.8126 72.3845 33.3662 70.6183 31.9556 68.899L31.9587 68.8927ZM71.4342 96.7674C71.4342 93.7125 71.552 90.7981 71.4094 87.893C71.118 82.0203 70.6034 76.1664 69.1309 70.4467C67.6243 64.599 64.3166 60.1743 58.9753 57.3254C58.2995 56.9665 57.9244 57.0539 57.4191 57.6155C54.1176 61.2758 50.7851 64.908 47.4495 68.537C45.5182 70.637 45.5089 70.6277 43.1436 69.0737C43.0909 69.0394 43.0041 69.0612 42.8553 69.0519C42.5639 69.5511 42.3128 70.1347 41.9284 70.6058C41.1658 71.542 41.1968 72.578 41.358 73.6732C41.7176 76.1321 42.0586 78.5972 42.3965 81.0592C43.1064 86.2516 43.8132 91.4471 44.5293 96.7206H57.7167V95.3601C57.7167 90.3768 57.7167 85.3935 57.7167 80.4102C57.7167 80.0201 57.6981 79.627 57.757 79.2463C57.8872 78.3944 58.4793 77.814 59.2574 77.9388C59.8278 78.0293 60.3951 78.5816 60.8012 79.0684C61.0244 79.3337 60.9314 79.8891 60.9314 80.3135C60.9376 85.3342 60.9345 90.3581 60.9345 95.3788C60.9345 95.8282 60.9345 96.2775 60.9345 96.7643H71.4373L71.4342 96.7674ZM22.8261 30.4024C22.8509 30.4024 22.8757 30.4024 22.9036 30.4024C22.9036 31.6474 22.8416 32.8925 22.916 34.1344C23.1113 37.3484 24.0847 40.3284 25.9509 42.9433C29.3702 47.7332 33.9304 50.2701 39.8948 49.3933C46.008 48.4914 51.0486 43.5175 52.3444 36.9709C52.8714 34.2967 52.6327 31.4758 52.9272 28.7423C53.1566 26.6017 52.58 25.0322 50.7324 23.8682C50.1527 23.5032 49.7745 23.3222 49.0956 23.5905C41.5223 26.5768 33.9707 26.6797 26.4469 23.3627C26.1493 23.2317 25.6006 23.2847 25.3557 23.4844C22.8168 25.5689 22.8261 25.5814 22.8261 28.8859V30.4024ZM54.006 22.5296C54.4276 21.7308 54.7469 21.0692 55.1127 20.4358C56.8673 17.4059 56.7216 14.6287 53.4573 11.1806C53.1132 10.8155 52.7071 10.5066 52.3041 10.2039C51.0052 9.21477 50.0039 7.99468 49.5234 6.41575C49.0367 4.81186 47.961 4.01303 46.3769 3.70723C38.7509 2.23439 31.9494 4.16281 25.9199 8.89648C21.6512 12.2478 21.0529 16.8161 22.2867 22.2331C22.8943 21.5123 23.3345 20.9351 23.8336 20.4139C25.0333 19.1564 25.3402 19.1252 26.8437 19.924C29.5097 21.3438 32.3617 22.1364 35.3502 22.4641C40.2079 22.9976 44.8176 22.0553 49.2258 20.0301C50.2581 19.5558 51.0455 19.6619 51.8236 20.492C52.456 21.1691 53.1752 21.762 54.006 22.5327V22.5296ZM37.4582 61.0262C41.2526 58.3801 44.9881 55.7745 48.7546 53.1471C48.333 51.977 47.9486 50.9004 47.5549 49.8051C40.9953 53.8617 34.5597 53.8086 28.0837 49.7521C27.7055 50.76 27.318 51.6899 27.0235 52.6478C26.946 52.8944 27.0638 53.3655 27.256 53.5091C30.6319 56.0273 34.0358 58.5111 37.4582 61.023V61.0262ZM36.8134 73.4392C35.7594 81.1809 34.7085 88.9102 33.6514 96.6894H41.0945C41.0945 96.3742 41.1162 96.1777 41.0914 95.9873C40.1149 88.7105 39.126 81.4368 38.1588 74.16C38.0565 73.383 37.6721 73.1833 36.8134 73.4392ZM34.6682 62.9795C31.6115 60.736 28.6169 58.7233 25.8424 56.436C24.0382 54.9476 22.296 55.4937 20.2004 55.7839C23.5391 59.4348 26.7104 62.9078 29.8817 66.3777C31.5278 65.2106 33.0375 64.1372 34.6651 62.9795H34.6682ZM54.5826 55.8463C52.6141 55.2784 50.9401 55.1504 49.449 56.5733C48.8383 57.1537 48.0664 57.5625 47.3689 58.0493C45.0346 59.6781 42.6972 61.307 40.2296 63.0295C41.9005 64.1747 43.4412 65.2325 45.016 66.3121C48.2183 62.8079 51.3493 59.3848 54.5826 55.8494V55.8463ZM40.1831 66.9674C39.3895 66.3902 38.6672 65.8191 37.8922 65.3355C37.669 65.1982 37.2226 65.1919 36.9994 65.3292C36.2182 65.8035 35.4928 66.3652 34.7023 66.9238C35.1952 67.8318 35.6199 68.6525 36.0849 69.4513C36.5313 70.2158 38.258 70.2969 38.7292 69.5574C39.2438 68.7492 39.6747 67.888 40.1831 66.9706V66.9674Z" fill="white"/>
<path d="M83.5932 40.0167C83.7854 40.8155 83.8815 41.5114 84.1357 42.1417C84.238 42.3913 84.6844 42.6191 84.9913 42.6441C87.9518 42.8781 89.725 44.3759 90.4473 47.3154C90.6829 48.2702 90.1621 48.9473 89.0647 48.9879C87.7534 49.0347 86.4359 49.0004 85.1215 49.0004C80.4435 49.0004 75.7656 49.0035 71.0877 49.0004C69.2184 49.0004 68.8185 48.3326 69.4509 46.6101C70.384 44.0732 72.0239 42.6129 74.8139 42.6378C75.0557 42.6378 75.4339 42.3414 75.5238 42.0949C75.7501 41.4864 75.8462 40.8311 76.0384 40.0167C75.5269 40.0167 75.1208 40.0167 74.7147 40.0167C70.2693 40.0167 65.8239 40.0167 61.3754 40.0167C59.8471 40.0167 59.4348 39.5361 59.689 38.0103C60.9011 30.6866 62.1225 23.3661 63.3284 16.0394C63.4958 15.0284 64.0011 14.5479 65.0396 14.5479C74.8976 14.5603 84.7588 14.5572 94.6168 14.5479C95.6553 14.5479 96.1296 15.0502 96.297 16.0675C97.4936 23.3942 98.7212 30.7147 99.9333 38.0383C100.181 39.5361 99.7752 40.0105 98.2035 40.0105C93.7953 40.0167 89.3871 40.0105 84.982 40.0105C84.5635 40.0105 84.145 40.0105 83.5932 40.0105V40.0167ZM89.8552 37.5422C89.6413 35.3954 89.4398 33.364 89.2352 31.3107H84.7898V37.5422H89.8521H89.8552ZM74.8821 31.2826H70.3964C70.1949 33.3889 69.9965 35.4359 69.8012 37.4954H74.8821V31.2826ZM77.4551 31.2546V37.4923H82.1517V31.2546H77.4551ZM91.6966 31.2265C91.9167 33.4233 92.1213 35.4515 92.3321 37.5297H97.3541C97.0348 35.5701 96.7372 33.6666 96.39 31.7726C96.3497 31.5604 96.0087 31.2577 95.7979 31.2483C94.4649 31.2015 93.1288 31.2234 91.6997 31.2234L91.6966 31.2265ZM67.9381 31.2265C66.4935 31.2265 65.1543 31.2078 63.8151 31.2483C63.626 31.2546 63.316 31.5167 63.285 31.7008C62.9316 33.6261 62.6247 35.5607 62.2961 37.5328H67.3026C67.5103 35.4546 67.7149 33.4233 67.9381 31.2265ZM90.9433 23.7094C91.12 25.4225 91.2905 27.0576 91.4548 28.6553H95.894C95.6026 26.9328 95.3267 25.3102 95.057 23.7094H90.9433ZM81.9067 28.7021V23.7312H77.6907V28.7021H81.9067ZM68.6914 23.7094H64.5777C64.3018 25.3913 64.0383 27.0077 63.7655 28.674H68.183C68.3535 27.0046 68.5178 25.3975 68.6883 23.7094H68.6914ZM88.485 23.7312H84.5108V28.6677H88.9624C88.7981 26.9796 88.6431 25.3695 88.485 23.7312ZM71.1497 23.7C70.9947 25.3695 70.8397 27.0014 70.6847 28.6615H75.1549V23.7H71.1497ZM72.2657 46.3979H87.2605C87.3039 46.2606 87.3504 46.1234 87.3938 45.9892C86.6622 45.7021 85.9368 45.1841 85.199 45.1654C81.6122 45.078 78.0224 45.1217 74.4326 45.1311C73.5367 45.1311 72.8051 45.4681 72.2657 46.4011V46.3979ZM90.7077 21.1038H94.6478C94.406 19.7184 94.1859 18.4359 93.9627 17.1596H90.2954C90.438 18.5201 90.5713 19.812 90.7077 21.1038ZM88.2215 21.1288C88.082 19.7558 87.9518 18.4609 87.8216 17.1752H84.3V21.1288H88.2184H88.2215ZM71.8038 17.1752C71.6767 18.5233 71.5558 19.787 71.4287 21.1194H75.3843V17.1752H71.8038ZM65.0117 21.1444H68.9301C69.0696 19.812 69.2029 18.517 69.3424 17.1752H65.672C65.4519 18.4889 65.2442 19.7433 65.0117 21.1444ZM77.9666 21.1163H81.637V17.1752H77.9666V21.1163ZM81.6123 42.5567C81.2558 39.9949 81.1907 39.8825 79.3337 40.0385C77.669 40.1758 78.5835 41.7236 77.8178 42.5567H81.6123Z" fill="white"/>
</g>
<defs>
<clipPath id="clip0_248_5316">
<rect width="100" height="100" fill="white"/>
</clipPath>
</defs>
</svg>
