<svg width="100" height="108" viewBox="0 0 100 108" fill="none" xmlns="http://www.w3.org/2000/svg">
<path d="M18.0622 10.4474C18.164 10.4472 18.164 10.4472 18.2678 10.447C18.4943 10.4466 18.7207 10.4467 18.9471 10.4468C19.1115 10.4466 19.2759 10.4464 19.4402 10.4462C19.844 10.4457 20.2477 10.4455 20.6514 10.4455C21.1352 10.4454 21.6191 10.445 22.1029 10.4445C23.2718 10.4435 24.4407 10.4431 25.6095 10.4427C26.1626 10.4426 26.7156 10.4423 27.2687 10.4421C29.1623 10.4412 31.056 10.4405 32.9496 10.4403C33.0684 10.4403 33.1871 10.4402 33.3059 10.4402C33.425 10.4402 33.544 10.4402 33.6631 10.4402C33.9019 10.4402 34.1407 10.4401 34.3795 10.4401C34.4388 10.4401 34.498 10.4401 34.559 10.4401C36.4803 10.4398 38.4016 10.4388 40.3229 10.4372C42.355 10.4355 44.387 10.4346 46.4191 10.4345C46.6421 10.4345 46.8652 10.4345 47.0882 10.4345C47.1431 10.4345 47.198 10.4345 47.2546 10.4345C48.1383 10.4344 49.022 10.4337 49.9057 10.4327C50.7936 10.4317 51.6814 10.4315 52.5693 10.432C53.0968 10.4323 53.6242 10.4321 54.1516 10.431C54.5454 10.4303 54.9392 10.4306 55.333 10.4313C55.4924 10.4315 55.6517 10.4313 55.811 10.4307C56.0275 10.4299 56.244 10.4304 56.4605 10.4312C56.5224 10.4307 56.5843 10.4302 56.6481 10.4297C57.3149 10.4351 57.8834 10.5957 58.3735 11.0615C58.8301 11.5523 59.025 12.0844 59.0016 12.7543C58.9254 13.3881 58.65 13.8705 58.1717 14.2895C57.637 14.6542 57.0381 14.7131 56.4083 14.7098C56.3066 14.7101 56.3066 14.7101 56.2029 14.7104C55.9755 14.7109 55.7482 14.7104 55.5209 14.7099C55.3563 14.71 55.1917 14.7102 55.0272 14.7105C54.6692 14.7109 54.3113 14.7109 53.9534 14.7106C53.4212 14.7101 52.8889 14.7103 52.3566 14.7108C51.461 14.7115 50.5654 14.7116 49.6698 14.7114C48.3898 14.7112 47.1099 14.7121 45.83 14.7132C45.3162 14.7137 44.8024 14.7141 44.2886 14.7145C44.203 14.7146 44.203 14.7146 44.1157 14.7146C42.7571 14.7157 41.3986 14.7164 40.04 14.7171C39.9806 14.7171 39.9211 14.7171 39.8599 14.7172C38.4734 14.7178 37.0869 14.7182 35.7004 14.7184C35.6109 14.7184 35.6109 14.7184 35.5197 14.7184C35.2191 14.7185 34.9185 14.7185 34.6178 14.7185C34.5584 14.7185 34.499 14.7186 34.4378 14.7186C34.3179 14.7186 34.198 14.7186 34.078 14.7186C32.0959 14.7188 30.1138 14.72 28.1317 14.7221C27.8517 14.7224 27.5716 14.7227 27.2916 14.723C27.2365 14.723 27.1814 14.7231 27.1246 14.7231C26.2384 14.724 25.3522 14.7239 24.466 14.7233C23.575 14.7228 22.684 14.7232 21.793 14.7247C21.2639 14.7255 20.7349 14.7255 20.2059 14.7245C19.8104 14.7238 19.415 14.7245 19.0195 14.7258C18.8598 14.7261 18.7002 14.7259 18.5405 14.7252C17.0883 14.7196 15.9218 14.9178 14.8449 15.9762C14.17 16.6975 13.7755 17.6361 13.7784 18.6235C13.7782 18.6987 13.7782 18.6987 13.778 18.7754C13.7777 18.9443 13.7779 19.1132 13.778 19.2821C13.7779 19.4045 13.7777 19.527 13.7776 19.6495C13.7771 19.988 13.7771 20.3265 13.7772 20.665C13.7772 21.0326 13.7768 21.4001 13.7764 21.7677C13.7758 22.4975 13.7755 23.2274 13.7754 23.9573C13.7752 24.8312 13.7746 25.705 13.774 26.5789C13.7726 28.6913 13.7719 30.8037 13.7713 32.9161C13.7711 33.6156 13.7709 34.3151 13.7706 35.0147C13.7706 35.0887 13.7706 35.0887 13.7706 35.1642C13.7705 35.3638 13.7704 35.5635 13.7704 35.7631C13.7692 39.178 13.7681 42.593 13.7676 46.0079C13.7676 46.2762 13.7675 46.5444 13.7675 46.8127C13.7675 46.8925 13.7675 46.8925 13.7675 46.9739C13.7674 47.5131 13.7673 48.0522 13.7672 48.5913C13.7672 48.6994 13.7672 48.8075 13.7672 48.9156C13.7667 52.3872 13.7652 55.8587 13.763 59.3302C13.7614 61.8245 13.7599 64.3187 13.7595 66.813C13.7595 66.8643 13.7595 66.9155 13.7594 66.9684C13.7592 68.0946 13.7591 69.2207 13.759 70.3469C13.759 70.8 13.759 71.2532 13.7589 71.7063C13.7589 71.7559 13.7589 71.8055 13.7589 71.8566C13.7588 73.4538 13.7578 75.0511 13.7564 76.6484C13.755 78.2574 13.7545 79.8664 13.7552 81.4754C13.7556 82.4737 13.7552 83.4719 13.7537 84.4702C13.7528 85.107 13.7529 85.7438 13.7537 86.3806C13.7542 86.7435 13.7542 87.1064 13.7531 87.4693C13.752 87.7997 13.7523 88.1301 13.7534 88.4605C13.7537 88.5791 13.7534 88.6976 13.7527 88.8162C13.7449 90.1327 14.0571 91.2201 15.0031 92.1825C15.6882 92.8236 16.6107 93.2482 17.5557 93.2491C17.6379 93.2493 17.7202 93.2496 17.8049 93.2498C17.8961 93.2498 17.9873 93.2497 18.0785 93.2496C18.1758 93.2497 18.2732 93.2499 18.3705 93.2501C18.6392 93.2506 18.9078 93.2507 19.1765 93.2507C19.4683 93.2508 19.7601 93.2512 20.052 93.2516C20.6313 93.2524 21.2107 93.2527 21.7901 93.253C22.4839 93.2533 23.1776 93.2541 23.8714 93.2548C25.5484 93.2565 27.2255 93.2575 28.9025 93.2584C29.458 93.2587 30.0134 93.259 30.5689 93.2593C33.5219 93.261 36.4748 93.2625 39.4278 93.2633C40.1121 93.2635 40.7963 93.2637 41.4806 93.2639C41.5656 93.2639 41.6506 93.264 41.7382 93.264C44.4944 93.2648 47.2506 93.2669 50.0067 93.2697C52.8399 93.2726 55.6731 93.2744 58.5063 93.2747C58.9065 93.2748 59.3066 93.2748 59.7068 93.2749C59.7855 93.2749 59.8643 93.2749 59.9454 93.2749C61.2129 93.2752 62.4803 93.2765 63.7478 93.2783C65.0219 93.2801 66.296 93.2806 67.5701 93.2799C68.3269 93.2795 69.0838 93.28 69.8406 93.2819C70.3465 93.283 70.8524 93.283 71.3582 93.2819C71.6463 93.2813 71.9343 93.2813 72.2223 93.2827C72.485 93.2841 72.7475 93.2838 73.0102 93.2823C73.1479 93.282 73.2857 93.2832 73.4234 93.2846C74.3753 93.2758 75.229 93.0113 75.9928 92.4334C76.0417 92.3967 76.0906 92.36 76.141 92.3223C76.9575 91.66 77.3695 90.6921 77.5396 89.6762C77.5661 89.3216 77.5665 88.9687 77.5646 88.6135C77.5648 88.5087 77.565 88.4039 77.5654 88.2991C77.566 88.0134 77.5655 87.7278 77.5647 87.4421C77.5641 87.1331 77.5647 86.8242 77.5651 86.5152C77.5658 85.9805 77.5657 85.4458 77.5651 84.911C77.5644 84.1371 77.565 83.3633 77.566 82.5894C77.5676 81.3325 77.5685 80.0757 77.5687 78.8188C77.5688 78.7061 77.5688 78.7061 77.5688 78.5912C77.569 77.7527 77.569 76.9141 77.5689 76.0756C77.5689 75.7714 77.5689 75.4671 77.5689 75.1629C77.5689 75.0878 77.5689 75.0127 77.5689 74.9354C77.5688 73.6829 77.5698 72.4304 77.5716 71.1779C77.5727 70.4061 77.5728 69.6342 77.5718 68.8623C77.5712 68.3335 77.5715 67.8047 77.5726 67.2759C77.5732 66.971 77.5733 66.6661 77.5723 66.3612C77.5713 66.0818 77.5716 65.8024 77.5729 65.523C77.5732 65.4222 77.5729 65.3214 77.5722 65.2207C77.567 64.4382 77.6517 63.7494 78.2121 63.1612C78.7398 62.7067 79.2395 62.6164 79.9196 62.6235C80.4525 62.6638 80.8667 62.8796 81.2546 63.2424C81.608 63.6586 81.7845 64.1416 81.7853 64.6813C81.7855 64.7248 81.7856 64.7683 81.7858 64.8132C81.7862 64.9601 81.7862 65.1071 81.7862 65.254C81.7864 65.36 81.7867 65.466 81.7869 65.572C81.7876 65.8642 81.7879 66.1563 81.788 66.4484C81.7883 66.7633 81.789 67.0781 81.7895 67.3929C81.7909 68.1539 81.7915 68.915 81.7921 69.676C81.7924 70.0346 81.7928 70.3933 81.7932 70.7519C81.7943 71.9446 81.7953 73.1373 81.7958 74.33C81.7959 74.6397 81.796 74.9494 81.7961 75.259C81.7962 75.336 81.7962 75.413 81.7962 75.4923C81.7968 76.737 81.7985 77.9818 81.8007 79.2265C81.8029 80.5054 81.8041 81.7842 81.8043 83.063C81.8045 83.7807 81.8051 84.4983 81.8068 85.2159C81.8083 85.8276 81.8088 86.4393 81.8081 87.051C81.8078 87.3627 81.808 87.6743 81.8093 87.986C81.8188 90.3862 81.8188 90.3862 81.5073 91.4919C81.4882 91.5611 81.4882 91.5611 81.4686 91.6317C81.0999 92.9545 80.3577 94.0643 79.4226 95.0561C79.378 95.1058 79.3334 95.1555 79.2875 95.2066C77.9408 96.6481 75.9082 97.4073 73.9753 97.5443C73.654 97.5537 73.3329 97.5535 73.0115 97.553C72.9145 97.5531 72.8175 97.5532 72.7205 97.5533C72.4542 97.5537 72.188 97.5536 71.9218 97.5534C71.6321 97.5533 71.3423 97.5536 71.0525 97.5538C70.5448 97.5541 70.037 97.5542 69.5293 97.5542C68.7742 97.5541 68.0191 97.5543 67.2641 97.5547C65.837 97.5553 64.4099 97.5555 62.9828 97.5556C61.8807 97.5556 60.7786 97.5557 59.6765 97.556C59.3593 97.556 59.0421 97.5561 58.7248 97.5561C58.646 97.5562 58.5671 97.5562 58.4859 97.5562C56.2675 97.5566 54.0491 97.5569 51.8308 97.5568C51.7471 97.5568 51.6635 97.5568 51.5773 97.5568C51.1534 97.5568 50.7294 97.5568 50.3055 97.5568C50.1792 97.5568 50.1792 97.5568 50.0503 97.5568C49.8801 97.5568 49.7098 97.5568 49.5395 97.5568C46.8907 97.5568 44.2418 97.5573 41.593 97.5582C38.6171 97.5592 35.6412 97.5598 32.6652 97.5597C32.3479 97.5597 32.0305 97.5597 31.7131 97.5597C31.635 97.5597 31.5568 97.5597 31.4763 97.5597C30.2191 97.5597 28.9619 97.5601 27.7046 97.5607C26.4409 97.5613 25.1772 97.5614 23.9134 97.5609C23.1629 97.5607 22.4123 97.5608 21.6617 97.5615C21.16 97.5619 20.6583 97.5618 20.1565 97.5613C19.8709 97.561 19.5853 97.561 19.2996 97.5615C16.7976 97.566 14.4006 97.3183 12.4421 95.5941C12.3879 95.5488 12.3337 95.5034 12.2779 95.4567C10.6512 94.0591 9.68184 92.029 9.49673 89.9018C9.46799 89.4263 9.47372 88.9499 9.47425 88.4737C9.47414 88.3515 9.474 88.2292 9.47383 88.107C9.47346 87.771 9.4735 87.4351 9.47362 87.0991C9.47367 86.7337 9.47333 86.3682 9.47304 86.0027C9.47253 85.2778 9.47238 84.5529 9.47235 83.8279C9.47228 82.9596 9.47184 82.0913 9.47138 81.223C9.47033 79.1743 9.46992 77.1255 9.46961 75.0768C9.46944 74.0342 9.4692 72.9916 9.46893 71.9489C9.46808 68.6035 9.46735 65.2581 9.46713 61.9127C9.46711 61.7528 9.4671 61.593 9.46709 61.4331C9.46707 61.1126 9.46705 60.792 9.46703 60.4714C9.467 60.0961 9.46697 59.7208 9.46695 59.3455C9.46694 59.2381 9.46693 59.1307 9.46692 59.0233C9.46669 55.5741 9.46567 52.1249 9.4641 48.6756C9.46298 46.1967 9.46194 43.7178 9.46163 41.2389C9.46163 41.1879 9.46162 41.1369 9.46161 41.0843C9.46148 39.9645 9.4614 38.8446 9.46138 37.7248C9.46137 37.324 9.46135 36.9233 9.46134 36.5226C9.46133 36.4229 9.46133 36.3232 9.46133 36.2235C9.46126 34.6367 9.46059 33.0498 9.45961 31.463C9.4586 29.8195 9.45832 28.1761 9.45888 26.5327C9.45918 25.5857 9.45892 24.6387 9.45785 23.6917C9.4572 23.0587 9.45728 22.4257 9.45795 21.7927C9.45831 21.4323 9.45836 21.0719 9.45751 20.7115C9.45675 20.3829 9.45693 20.0543 9.45783 19.7256C9.45799 19.6082 9.45782 19.4908 9.45726 19.3735C9.45242 18.2865 9.52298 17.1524 9.89499 16.122C9.91507 16.0644 9.93515 16.0068 9.95584 15.9475C10.6999 13.8935 12.2239 12.2051 14.1942 11.2648C15.4413 10.6919 16.6932 10.4448 18.0622 10.4474Z" fill="white"/>
<path d="M60.0709 21.6589C60.1763 21.6576 60.1763 21.6576 60.2838 21.6563C60.3593 21.6565 60.4348 21.6567 60.5126 21.6569C60.5906 21.6565 60.6685 21.6562 60.7488 21.6558C60.9136 21.6554 61.0784 21.6555 61.2431 21.656C61.4952 21.6566 61.7472 21.6547 61.9993 21.6525C62.1595 21.6524 62.3196 21.6525 62.4797 21.6527C62.5551 21.6519 62.6304 21.6512 62.7081 21.6504C63.231 21.6551 63.231 21.6551 63.4968 21.8142C63.7155 22.0663 63.6934 22.2391 63.6904 22.5687C63.6898 22.6549 63.6892 22.741 63.6886 22.8298C63.6878 22.8962 63.687 22.9626 63.6862 23.031C63.7416 23.031 63.797 23.0309 63.854 23.0308C67.1336 23.0263 70.4131 23.0228 73.6927 23.0207C74.0862 23.0205 74.4797 23.0202 74.8733 23.0199C74.9516 23.0199 75.03 23.0198 75.1107 23.0198C76.3803 23.0189 77.6499 23.0173 78.9195 23.0155C80.2216 23.0136 81.5237 23.0125 82.8259 23.012C83.6298 23.0118 84.4336 23.0109 85.2375 23.0093C85.7883 23.0082 86.3391 23.0079 86.8899 23.0081C87.208 23.0083 87.526 23.0081 87.8441 23.007C88.1351 23.006 88.4261 23.0059 88.7171 23.0066C88.8226 23.0067 88.928 23.0065 89.0335 23.0058C89.1765 23.005 89.3195 23.0055 89.4626 23.0062C89.5421 23.0061 89.6216 23.0061 89.7036 23.006C89.9978 23.0411 90.1741 23.1482 90.37 23.3671C90.4955 23.678 90.4803 23.9787 90.4783 24.3109C90.4785 24.3827 90.4787 24.4546 90.4789 24.5287C90.479 24.6804 90.4787 24.8321 90.4778 24.9838C90.4767 25.2158 90.4778 25.4478 90.4791 25.6798C90.479 25.8273 90.4787 25.9749 90.4783 26.1224C90.4787 26.1917 90.4791 26.261 90.4796 26.3324C90.4735 26.9495 90.4735 26.9495 90.2498 27.2005C90.0148 27.3537 89.8135 27.3517 89.537 27.3515C89.4923 27.3517 89.4476 27.3519 89.4016 27.352C89.2511 27.3524 89.1007 27.3518 88.9502 27.3512C88.8415 27.3512 88.7328 27.3514 88.6241 27.3515C88.3249 27.3518 88.0257 27.3513 87.7265 27.3506C87.4041 27.35 87.0816 27.3502 86.7592 27.3503C86.2004 27.3504 85.6415 27.35 85.0827 27.3492C84.2747 27.3481 83.4667 27.3478 82.6587 27.3476C81.3479 27.3473 80.0371 27.3464 78.7262 27.3451C77.4527 27.3439 76.1792 27.343 74.9057 27.3424C74.8272 27.3424 74.7488 27.3423 74.6679 27.3423C74.2742 27.3421 73.8806 27.3419 73.4869 27.3418C70.22 27.3404 66.9531 27.338 63.6862 27.335C63.6863 27.3939 63.6864 27.4529 63.6865 27.5136C63.6926 31.0037 63.6972 34.4938 63.7 37.984C63.7003 38.4028 63.7006 38.8216 63.701 39.2403C63.7011 39.3237 63.7011 39.4071 63.7012 39.493C63.7024 40.8441 63.7045 42.1953 63.707 43.5464C63.7095 44.9321 63.711 46.3179 63.7115 47.7036C63.7119 48.5591 63.7131 49.4146 63.7153 50.2701C63.7167 50.8563 63.7171 51.4424 63.7168 52.0285C63.7166 52.367 63.7169 52.7055 63.7183 53.044C63.7196 53.3537 63.7197 53.6633 63.7187 53.973C63.7186 54.0853 63.719 54.1975 63.7198 54.3097C63.7209 54.462 63.7203 54.6141 63.7193 54.7663C63.7194 54.851 63.7195 54.9356 63.7196 55.0228C63.6802 55.2835 63.6007 55.3941 63.4172 55.5798C63.2481 55.6644 63.1288 55.6574 62.9394 55.66C62.832 55.6616 62.832 55.6616 62.7224 55.6633C62.3948 55.6663 62.0672 55.669 61.7395 55.6706C61.5666 55.6717 61.3937 55.6735 61.2208 55.6761C60.9717 55.6798 60.7228 55.6813 60.4738 55.6822C60.3965 55.6838 60.3192 55.6853 60.2396 55.6869C59.7037 55.6854 59.7037 55.6854 59.4359 55.4893C59.2418 55.2026 59.2394 54.9899 59.2395 54.6505C59.2394 54.6033 59.2393 54.5562 59.2393 54.5077C59.2391 54.3486 59.2394 54.1895 59.2397 54.0304C59.2396 53.9156 59.2396 53.8009 59.2395 53.6862C59.2393 53.3699 59.2396 53.0537 59.24 52.7375C59.2402 52.3969 59.2401 52.0562 59.2401 51.7156C59.2401 51.1251 59.2403 50.5346 59.2407 49.9441C59.2412 49.0903 59.2414 48.2365 59.2415 47.3827C59.2416 45.9977 59.2421 44.6126 59.2427 43.2275C59.2433 41.8817 59.2438 40.536 59.2441 39.1903C59.2441 39.1074 59.2441 39.0245 59.2441 38.939C59.2442 38.5231 59.2443 38.1072 59.2444 37.6913C59.2451 34.2392 59.2463 30.7871 59.2478 27.335C59.1771 27.3371 59.1771 27.3371 59.1049 27.3393C58.8906 27.3449 58.6762 27.3484 58.4618 27.3518C58.3876 27.3541 58.3135 27.3563 58.237 27.3586C57.6851 27.3653 57.6851 27.3653 57.4193 27.2083C57.1141 26.8518 57.1424 26.4831 57.1428 26.0344C57.1425 25.9672 57.1422 25.8999 57.1419 25.8307C57.1415 25.6887 57.1415 25.5468 57.1418 25.4049C57.142 25.1882 57.1404 24.9716 57.1387 24.755C57.1386 24.6168 57.1385 24.4787 57.1386 24.3406C57.138 24.276 57.1374 24.2115 57.1367 24.145C57.1391 23.7935 57.155 23.5297 57.3648 23.2328C57.6009 23.0456 57.7745 23.0063 58.0722 23.0113C58.1409 23.012 58.2096 23.0126 58.2804 23.0133C58.3868 23.0158 58.3868 23.0158 58.4954 23.0184C58.6038 23.0198 58.6038 23.0198 58.7144 23.0212C58.8922 23.0236 59.07 23.0269 59.2478 23.031C59.2442 22.9495 59.2442 22.9495 59.2407 22.8663C59.2388 22.7945 59.237 22.7226 59.2352 22.6486C59.2316 22.5421 59.2316 22.5421 59.2281 22.4334C59.2554 22.1424 59.3541 21.9744 59.5693 21.779C59.7505 21.6661 59.8585 21.6601 60.0709 21.6589Z" fill="white"/>
<path d="M23.296 80.9084C23.4179 80.908 23.4179 80.908 23.5423 80.9076C23.7668 80.907 23.9913 80.9074 24.2159 80.9081C24.4606 80.9087 24.7053 80.9081 24.95 80.9076C25.3784 80.907 25.8069 80.9071 26.2354 80.9078C26.8726 80.9087 27.5098 80.9084 28.147 80.908C29.285 80.9072 30.423 80.9075 31.5611 80.9083C32.5569 80.909 33.5527 80.9093 34.5485 80.9092C34.6476 80.9092 34.6476 80.9092 34.7487 80.9092C35.0168 80.9092 35.285 80.9092 35.5531 80.9091C38.0683 80.9089 40.5835 80.9097 43.0987 80.9111C45.3336 80.9124 47.5684 80.9128 49.8033 80.9124C49.9468 80.9124 50.0903 80.9123 50.2338 80.9123C50.3403 80.9123 50.3403 80.9123 50.4488 80.9123C50.806 80.9122 51.1632 80.9122 51.5203 80.9121C51.5908 80.9121 51.6613 80.9121 51.7339 80.9121C53.6011 80.9118 55.4684 80.9122 57.3357 80.9128C57.5366 80.9128 57.7375 80.9129 57.9384 80.9129C58.0716 80.913 58.2049 80.913 58.3382 80.9131C59.2675 80.9133 60.1969 80.9134 61.1262 80.9133C62.3237 80.9131 63.5212 80.9134 64.7188 80.9144C65.3521 80.915 65.9855 80.9151 66.6189 80.9148C67.0419 80.9146 67.4648 80.9149 67.8878 80.9155C68.1288 80.9159 68.3699 80.9161 68.6109 80.9157C68.8706 80.9152 69.1303 80.9158 69.39 80.9165C69.4648 80.9162 69.5396 80.9159 69.6167 80.9156C70.3598 80.9194 70.9435 81.02 71.4974 81.542C72.0289 82.1046 72.1326 82.5395 72.1142 83.3126C72.0592 83.8921 71.7712 84.3079 71.3513 84.6996C70.7741 85.1554 70.1761 85.1902 69.4645 85.1874C69.3428 85.1878 69.3428 85.1878 69.2186 85.1881C68.9936 85.1886 68.7686 85.1884 68.5435 85.188C68.2987 85.1877 68.0538 85.1882 67.8089 85.1886C67.3798 85.1892 66.9506 85.1893 66.5215 85.1891C65.8833 85.1887 65.2452 85.1891 64.6071 85.1897C63.401 85.1907 62.195 85.1908 60.989 85.1907C60.0577 85.1905 59.1264 85.1907 58.1952 85.1909C58.0614 85.191 57.9277 85.191 57.7939 85.1911C57.5924 85.1911 57.3908 85.1912 57.1893 85.1913C55.3151 85.1918 53.441 85.1921 51.5668 85.1918C51.4961 85.1918 51.4255 85.1918 51.3527 85.1918C50.9945 85.1917 50.6363 85.1917 50.2782 85.1916C50.207 85.1916 50.1359 85.1916 50.0626 85.1916C49.9187 85.1916 49.7749 85.1915 49.631 85.1915C47.3926 85.1912 45.1541 85.1917 42.9157 85.1929C40.4012 85.1943 37.8868 85.1951 35.3723 85.1948C35.1042 85.1948 34.8362 85.1947 34.5681 85.1947C34.5021 85.1947 34.4361 85.1947 34.3681 85.1947C33.3713 85.1946 32.3745 85.1951 31.3777 85.1958C30.2442 85.1966 29.1107 85.1967 27.9771 85.1959C27.3427 85.1954 26.7083 85.1955 26.0739 85.1964C25.6501 85.197 25.2263 85.1968 24.8025 85.196C24.561 85.1956 24.3196 85.1955 24.0782 85.1963C23.8178 85.1971 23.5575 85.1964 23.2972 85.1955C23.2226 85.196 23.148 85.1965 23.0711 85.197C22.2972 85.1916 21.6801 85.0438 21.1159 84.4978C20.7318 84.0983 20.6106 83.5923 20.5527 83.052C20.632 82.3119 20.8815 81.7528 21.469 81.2783C22.0229 80.9313 22.6607 80.9042 23.296 80.9084Z" fill="white"/>
<path d="M22.4774 70.4921C22.5474 70.4917 22.6174 70.4914 22.6895 70.491C22.7662 70.4913 22.8428 70.4915 22.9217 70.4918C23.0037 70.4916 23.0856 70.4914 23.1701 70.4911C23.3984 70.4906 23.6267 70.4907 23.855 70.491C24.103 70.4912 24.3511 70.4907 24.5992 70.4902C25.0342 70.4895 25.4692 70.4893 25.9043 70.4895C26.5512 70.4897 27.1981 70.4891 27.8451 70.4884C29.0676 70.4871 30.2902 70.4867 31.5128 70.4867C32.4568 70.4866 33.4008 70.4863 34.3448 70.4859C34.6163 70.4858 34.8878 70.4857 35.1594 70.4855C35.2269 70.4855 35.2944 70.4855 35.3639 70.4854C37.2631 70.4846 39.1623 70.4841 41.0615 70.4841C41.1332 70.4842 41.2048 70.4842 41.2786 70.4842C41.6417 70.4842 42.0048 70.4842 42.3679 70.4842C42.44 70.4842 42.5121 70.4842 42.5864 70.4842C42.7322 70.4842 42.8781 70.4842 43.0239 70.4842C45.293 70.4843 47.5621 70.4833 49.8312 70.4815C52.3794 70.4794 54.9276 70.4782 57.4757 70.4784C57.7474 70.4784 58.019 70.4784 58.2906 70.4784C58.3909 70.4784 58.3909 70.4784 58.4933 70.4784C59.5705 70.4784 60.6477 70.4775 61.7249 70.4764C62.8072 70.4752 63.8895 70.4751 64.9717 70.476C65.615 70.4765 66.2582 70.4762 66.9015 70.4749C67.331 70.4741 67.7606 70.4743 68.1901 70.4752C68.4349 70.4758 68.6797 70.4759 68.9246 70.4748C69.1883 70.4736 69.452 70.4745 69.7158 70.4757C69.7918 70.475 69.8678 70.4743 69.9461 70.4736C70.605 70.4796 71.0842 70.6661 71.5682 71.1144C72.0324 71.6322 72.1168 72.1459 72.1111 72.8214C72.0659 73.4036 71.8144 73.8468 71.3845 74.2326C70.8336 74.6697 70.1916 74.7083 69.5132 74.7042C69.4315 74.7045 69.3499 74.7048 69.2658 74.7051C69.04 74.7058 68.8143 74.7056 68.5885 74.7049C68.3425 74.7045 68.0966 74.7052 67.8506 74.7058C67.4198 74.7066 66.9891 74.7067 66.5583 74.7063C65.9177 74.7057 65.277 74.7062 64.6364 74.707C63.4923 74.7083 62.3481 74.7084 61.2039 74.7081C60.2026 74.7078 59.2013 74.7078 58.1999 74.7082C58.0656 74.7083 57.9313 74.7083 57.797 74.7084C57.5947 74.7084 57.3923 74.7085 57.1899 74.7086C55.3084 74.7093 53.4268 74.7096 51.5453 74.7091C51.4743 74.7091 51.4034 74.7091 51.3303 74.7091C50.7543 74.7089 50.1783 74.7087 49.6023 74.7085C47.3553 74.7079 45.1082 74.7084 42.8612 74.71C40.3367 74.7117 37.8122 74.7126 35.2878 74.7121C35.0187 74.7121 34.7495 74.712 34.4804 74.712C34.4141 74.712 34.3479 74.712 34.2796 74.7119C33.279 74.7118 32.2783 74.7123 31.2777 74.7132C30.1398 74.7142 29.002 74.7143 27.8641 74.7131C27.2273 74.7124 26.5905 74.7125 25.9537 74.7137C25.5283 74.7144 25.103 74.7141 24.6776 74.7131C24.4352 74.7125 24.1929 74.7123 23.9505 74.7133C23.6892 74.7144 23.4279 74.7135 23.1666 74.7123C23.0917 74.7129 23.0168 74.7136 22.9397 74.7142C22.2254 74.7076 21.6338 74.5242 21.1134 74.0253C20.7323 73.5776 20.5539 73.0616 20.5649 72.4751C20.6157 71.9378 20.8269 71.4509 21.1844 71.0471C21.5699 70.7296 21.9687 70.4925 22.4774 70.4921Z" fill="white"/>
<path d="M22.4631 60.6063C22.5084 60.606 22.5537 60.6058 22.6003 60.6056C22.7516 60.6049 22.9028 60.6053 23.054 60.6056C23.1637 60.6053 23.2735 60.605 23.3832 60.6047C23.6843 60.6039 23.9855 60.6039 24.2866 60.604C24.6115 60.6041 24.9365 60.6033 25.2614 60.6027C25.8979 60.6016 26.5343 60.6012 27.1708 60.6011C27.6882 60.6011 28.2056 60.6008 28.723 60.6003C30.1902 60.5992 31.6573 60.5985 33.1245 60.5986C33.2036 60.5986 33.2827 60.5987 33.3641 60.5987C33.4829 60.5987 33.4829 60.5987 33.6041 60.5987C34.8873 60.5987 36.1705 60.5974 37.4537 60.5955C38.7715 60.5936 40.0893 60.5927 41.4071 60.5928C42.1469 60.5928 42.8867 60.5925 43.6264 60.591C44.2563 60.5898 44.8861 60.5895 45.516 60.5904C45.8373 60.5909 46.1585 60.5909 46.4797 60.5897C46.7741 60.5886 47.0685 60.5888 47.3628 60.59C47.469 60.5902 47.5753 60.59 47.6815 60.5892C48.4239 60.5843 49.0899 60.6226 49.6603 61.1448C50.1585 61.6909 50.2682 62.2523 50.2545 62.9713C50.2293 63.517 50.0064 63.9438 49.6348 64.3386C49.139 64.762 48.5999 64.8686 47.9629 64.869C47.9183 64.8691 47.8737 64.8692 47.8278 64.8693C47.6786 64.8696 47.5295 64.8695 47.3803 64.8693C47.2722 64.8694 47.1641 64.8696 47.056 64.8698C46.759 64.8702 46.4621 64.8702 46.1651 64.8701C45.8448 64.8701 45.5245 64.8704 45.2042 64.8708C44.5767 64.8713 43.9492 64.8715 43.3217 64.8715C42.8117 64.8716 42.3017 64.8717 41.7916 64.8719C40.3457 64.8725 38.8998 64.8728 37.4539 64.8728C37.376 64.8728 37.298 64.8728 37.2177 64.8728C37.1006 64.8728 37.1006 64.8728 36.9812 64.8728C35.7162 64.8727 34.4511 64.8734 33.1861 64.8743C31.8873 64.8753 30.5885 64.8758 29.2897 64.8757C28.5604 64.8757 27.8312 64.8759 27.102 64.8766C26.4811 64.8772 25.8603 64.8773 25.2394 64.8769C24.9227 64.8767 24.6059 64.8767 24.2892 64.8772C23.9991 64.8778 23.709 64.8777 23.4189 64.8771C23.3141 64.877 23.2093 64.8771 23.1045 64.8775C22.2842 64.8802 21.5709 64.8612 20.9361 64.2866C20.5141 63.8382 20.3622 63.3514 20.3438 62.7419C20.3663 62.0193 20.5918 61.5226 21.1171 61.0271C21.5303 60.7 21.9423 60.6069 22.4631 60.6063Z" fill="white"/>
<path d="M22.5829 50.7715C22.6773 50.7712 22.7717 50.7708 22.8661 50.7702C23.1245 50.7691 23.383 50.7696 23.6414 50.7705C23.9205 50.7711 24.1996 50.7702 24.4787 50.7694C25.025 50.7682 25.5714 50.7685 26.1177 50.7693C26.5618 50.7699 27.0059 50.7699 27.45 50.7697C27.5132 50.7696 27.5764 50.7696 27.6416 50.7695C27.77 50.7694 27.8985 50.7694 28.027 50.7693C29.2312 50.7685 30.4354 50.7694 31.6396 50.7708C32.6726 50.772 33.7056 50.7718 34.7387 50.7706C35.9386 50.7691 37.1385 50.7686 38.3385 50.7694C38.4665 50.7695 38.5944 50.7696 38.7224 50.7697C38.8169 50.7697 38.8169 50.7697 38.9132 50.7698C39.3567 50.77 39.8002 50.7696 40.2437 50.769C40.7843 50.7682 41.3248 50.7684 41.8653 50.7699C42.1411 50.7706 42.4168 50.7709 42.6925 50.77C42.9451 50.7692 43.1976 50.7696 43.4502 50.771C43.5845 50.7715 43.7189 50.7706 43.8532 50.7697C44.4038 50.7745 44.7655 50.8395 45.2027 51.1926C45.7145 51.7792 45.8566 52.4017 45.8216 53.168C45.7624 53.7791 45.5492 54.1923 45.1436 54.6473C44.6697 55.0347 44.1855 55.0039 43.5976 55.0012C43.5033 55.0015 43.4089 55.0018 43.3146 55.0023C43.056 55.0033 42.7974 55.003 42.5388 55.0025C42.2597 55.0022 41.9805 55.003 41.7014 55.0037C41.1548 55.0048 40.6082 55.0049 40.0616 55.0045C39.6174 55.0043 39.1731 55.0044 38.7288 55.0047C38.6656 55.0048 38.6023 55.0048 38.5372 55.0049C38.4087 55.005 38.2802 55.0051 38.1518 55.0052C36.9471 55.0061 35.7424 55.0058 34.5378 55.005C33.4358 55.0043 32.3338 55.0052 31.2318 55.0068C30.1001 55.0084 28.9684 55.0091 27.8367 55.0086C27.2014 55.0084 26.5661 55.0085 25.9308 55.0097C25.39 55.0107 24.8492 55.0108 24.3084 55.0096C24.0325 55.009 23.7566 55.0089 23.4808 55.0099C23.2281 55.0108 22.9754 55.0105 22.7228 55.0092C22.5883 55.0088 22.4539 55.0098 22.3195 55.0108C21.7687 55.0063 21.4071 54.9414 20.9697 54.5882C20.4579 54.0016 20.3162 53.3793 20.3506 52.613C20.4063 52.0432 20.5949 51.6222 20.9697 51.1926C21.4848 50.7767 21.9417 50.7671 22.5829 50.7715Z" fill="white"/>
<path d="M67.4167 29.0742C67.5323 29.0737 67.5323 29.0737 67.6503 29.0731C67.7354 29.073 67.8205 29.0729 67.9081 29.0728C67.9991 29.0725 68.0901 29.0722 68.1812 29.0718C68.4318 29.0709 68.6824 29.0704 68.9331 29.0699C69.1479 29.0695 69.3627 29.0688 69.5776 29.0681C70.2855 29.0659 70.9934 29.0645 71.7013 29.0632C71.8856 29.0629 72.0699 29.0626 72.2542 29.0622C73.3986 29.0601 74.543 29.0583 75.6875 29.0572C75.9526 29.057 76.2177 29.0567 76.4828 29.0564C76.5487 29.0563 76.6146 29.0563 76.6825 29.0562C77.7499 29.0551 78.8173 29.0523 79.8847 29.0489C80.9805 29.0454 82.0762 29.0434 83.172 29.0429C83.7872 29.0426 84.4025 29.0416 85.0178 29.0389C85.5418 29.0366 86.0658 29.0357 86.5898 29.0365C86.8571 29.0369 87.1244 29.0367 87.3917 29.0346C87.6367 29.0328 87.8815 29.0328 88.1265 29.0343C88.2566 29.0347 88.3867 29.033 88.5168 29.0312C89.0429 29.0369 89.3843 29.1288 89.7783 29.4871C90.168 29.9568 90.2018 30.4401 90.1994 31.0246C90.1996 31.0902 90.1999 31.1559 90.2001 31.2235C90.2008 31.4429 90.2006 31.6623 90.2003 31.8817C90.2006 32.0393 90.2009 32.1968 90.2013 32.3543C90.2022 32.7819 90.2023 33.2094 90.2021 33.6369C90.202 34.0391 90.2024 34.4412 90.2028 34.8434C90.2035 35.6885 90.2034 36.5336 90.203 37.3787C90.2026 38.1513 90.2034 38.9239 90.2047 39.6965C90.206 40.4905 90.2065 41.2845 90.2063 42.0785C90.2062 42.524 90.2063 42.9694 90.2073 43.4149C90.2081 43.8338 90.208 44.2527 90.2071 44.6716C90.2069 44.8253 90.2071 44.9789 90.2077 45.1326C90.2084 45.3425 90.2078 45.5524 90.207 45.7623C90.2075 45.823 90.208 45.8836 90.2085 45.9461C90.2038 46.4942 90.058 46.9393 89.7111 47.3755C89.3811 47.6247 89.1477 47.72 88.738 47.721C88.6611 47.7213 88.5842 47.7217 88.505 47.722C88.4201 47.722 88.3352 47.7221 88.2478 47.7221C88.157 47.7224 88.0662 47.7227 87.9755 47.723C87.7255 47.7238 87.4755 47.7242 87.2255 47.7245C86.956 47.7249 86.6866 47.7257 86.4172 47.7264C85.7663 47.728 85.1154 47.729 84.4644 47.7299C84.2806 47.7301 84.0968 47.7304 83.913 47.7307C82.7717 47.7324 81.6304 47.7339 80.4892 47.7347C80.2248 47.7349 79.9604 47.7351 79.696 47.7353C79.6303 47.7353 79.5646 47.7354 79.4969 47.7354C78.4323 47.7363 77.3677 47.7385 76.3031 47.7413C75.2103 47.7442 74.1175 47.7458 73.0247 47.7461C72.411 47.7464 71.7974 47.7471 71.1837 47.7494C70.6611 47.7512 70.1386 47.752 69.616 47.7512C69.3494 47.7509 69.0828 47.7511 68.8161 47.7527C68.5719 47.7543 68.3277 47.7542 68.0835 47.7529C67.9536 47.7527 67.8237 47.754 67.6938 47.7555C67.1486 47.7505 66.8015 47.6601 66.4082 47.2761C66.0402 46.8647 66.0195 46.4997 66.0213 45.9735C66.021 45.9063 66.0207 45.8391 66.0203 45.7698C66.0195 45.5445 66.0196 45.3191 66.0197 45.0937C66.0193 44.9322 66.0189 44.7707 66.0183 44.6092C66.0173 44.2158 66.0169 43.8225 66.0168 43.4292C66.0167 43.1094 66.0164 42.7896 66.016 42.4698C66.0148 41.5628 66.0142 40.6558 66.0143 39.7487C66.0143 39.6998 66.0143 39.651 66.0143 39.6006C66.0143 39.5516 66.0143 39.5027 66.0143 39.4523C66.0144 38.6592 66.0131 37.8662 66.0112 37.0732C66.0093 36.2585 66.0084 35.4439 66.0085 34.6292C66.0085 34.172 66.0082 33.7148 66.0067 33.2576C66.0053 32.8275 66.0054 32.3975 66.0064 31.9674C66.0065 31.8096 66.0062 31.6519 66.0054 31.4941C66.0043 31.2786 66.005 31.0631 66.006 30.8476C66.0053 30.7853 66.0046 30.7229 66.0039 30.6587C66.009 30.183 66.1254 29.8263 66.4451 29.4685C66.4901 29.4317 66.5351 29.3948 66.5815 29.3568C66.6266 29.3188 66.6718 29.2807 66.7183 29.2415C66.9475 29.0792 67.1445 29.075 67.4167 29.0742ZM67.3154 30.4888C67.2704 30.5526 67.2704 30.5526 67.2245 30.6178C67.1935 30.6598 67.1625 30.7019 67.1305 30.7452C66.9198 31.139 66.8938 31.5189 66.8955 31.9558C66.8952 32.0131 66.8949 32.0704 66.8946 32.1295C66.8937 32.3207 66.8939 32.5119 66.894 32.7031C66.8936 32.8406 66.8931 32.978 66.8926 33.1155C66.8914 33.4883 66.8911 33.8611 66.891 34.2339C66.8909 34.4669 66.8906 34.7 66.8903 34.9331C66.889 35.7466 66.8885 36.5602 66.8886 37.3737C66.8887 38.1313 66.8872 38.8889 66.8851 39.6466C66.8834 40.2977 66.8826 40.9488 66.8827 41.5998C66.8828 41.9884 66.8824 42.377 66.8809 42.7656C66.8796 43.1312 66.8796 43.4967 66.8806 43.8623C66.8808 43.9962 66.8804 44.1301 66.8796 44.2639C66.8578 45.3532 66.8578 45.3532 67.3506 46.2953C67.6827 46.5693 67.8874 46.7112 68.3279 46.712C68.3982 46.7123 68.4686 46.7126 68.5411 46.7129C68.6186 46.7129 68.6962 46.7129 68.776 46.7129C68.8582 46.7132 68.9404 46.7134 69.0251 46.7137C69.2536 46.7143 69.4821 46.7146 69.7107 46.7148C69.957 46.715 70.2033 46.7157 70.4496 46.7163C71.0447 46.7176 71.6397 46.7183 72.2348 46.7189C72.515 46.7192 72.7952 46.7195 73.0754 46.7199C74.0068 46.721 74.9382 46.722 75.8696 46.7225C76.1113 46.7226 76.3531 46.7227 76.5948 46.7229C76.6549 46.7229 76.7149 46.7229 76.7768 46.723C77.7501 46.7235 78.7234 46.7252 79.6967 46.7274C80.6959 46.7296 81.6951 46.7308 82.6942 46.7311C83.2553 46.7312 83.8163 46.7318 84.3773 46.7335C84.8551 46.735 85.3329 46.7355 85.8107 46.7349C86.0544 46.7345 86.2982 46.7347 86.5419 46.736C86.8063 46.7374 87.0707 46.7367 87.3351 46.7358C87.4119 46.7366 87.4887 46.7373 87.5678 46.738C88.0754 46.7339 88.457 46.668 88.8384 46.3042C88.8684 46.2611 88.8984 46.2179 88.9293 46.1734C88.9603 46.1306 88.9914 46.0878 89.0233 46.0437C89.2327 45.6689 89.2599 45.328 89.2583 44.9098C89.2588 44.8231 89.2588 44.8231 89.2592 44.7346C89.2601 44.5414 89.26 44.3481 89.2599 44.1548C89.2603 44.0161 89.2607 43.8773 89.2612 43.7385C89.2624 43.3618 89.2627 42.9851 89.2628 42.6085C89.2629 42.373 89.2632 42.1375 89.2636 41.9021C89.2648 41.0802 89.2654 40.2584 89.2653 39.4366C89.2652 38.6711 89.2666 37.9057 89.2687 37.1402C89.2705 36.4825 89.2712 35.8249 89.2711 35.1672C89.2711 34.7747 89.2715 34.3821 89.2729 33.9895C89.2742 33.6201 89.2742 33.2508 89.2732 32.8814C89.2731 32.7461 89.2734 32.6108 89.2742 32.4755C89.3142 31.4158 89.3142 31.4158 88.8517 30.5018C88.5547 30.2278 88.2936 30.0757 87.8839 30.0751C87.8132 30.0747 87.7424 30.0742 87.6696 30.0738C87.592 30.074 87.5144 30.0742 87.4344 30.0744C87.3106 30.0739 87.3106 30.0739 87.1844 30.0735C86.9552 30.0728 86.7261 30.0727 86.4969 30.0728C86.2498 30.0729 86.0027 30.0721 85.7556 30.0715C85.2715 30.0704 84.7873 30.07 84.3031 30.0699C83.9095 30.0699 83.5159 30.0696 83.1223 30.0692C82.0065 30.068 80.8907 30.0673 79.7748 30.0675C79.7147 30.0675 79.6545 30.0675 79.5925 30.0675C79.5322 30.0675 79.472 30.0675 79.4099 30.0675C78.4338 30.0675 77.4577 30.0663 76.4816 30.0644C75.4794 30.0624 74.4772 30.0615 73.475 30.0616C72.9123 30.0617 72.3496 30.0613 71.7869 30.0598C71.3078 30.0586 70.8286 30.0583 70.3495 30.0592C70.1051 30.0597 69.8607 30.0597 69.6162 30.0585C69.3511 30.0573 69.086 30.0581 68.8208 30.0591C68.7438 30.0584 68.6668 30.0578 68.5875 30.057C68.0789 30.0614 67.7003 30.1285 67.3154 30.4888Z" fill="white"/>
<path d="M33.5973 22.1973C33.7587 22.2244 33.7587 22.2244 33.8932 22.3589C33.897 22.5541 33.897 22.5541 33.8774 22.803C33.8722 22.8702 33.8722 22.8702 33.8668 22.9389C33.8238 23.4511 33.7504 23.9588 33.6747 24.467C33.6598 24.5686 33.645 24.6703 33.6302 24.7719C33.5916 25.0361 33.5526 25.3003 33.5135 25.5644C33.4738 25.8336 33.4345 26.1029 33.3951 26.3722C33.3376 26.7655 33.2799 27.1589 33.2218 27.5521C33.2044 27.6698 33.2044 27.6698 33.1866 27.79C33.1644 27.9357 33.1409 28.0813 33.1161 28.2266C33.0864 28.4104 33.0772 28.5826 33.0778 28.7686C33.0776 28.8266 33.0775 28.8846 33.0773 28.9444C33.0708 29.0832 33.0708 29.0832 33.1535 29.1511C33.326 29.1581 33.4967 29.1608 33.6692 29.1606C33.7232 29.1609 33.7773 29.1611 33.8329 29.1614C33.9506 29.1618 34.0683 29.1622 34.1861 29.1624C34.3723 29.1629 34.5585 29.164 34.7448 29.1652C35.2745 29.1688 35.8041 29.172 36.3338 29.173C36.6574 29.1737 36.981 29.1757 37.3047 29.1785C37.4281 29.1793 37.5516 29.1797 37.6751 29.1795C37.8479 29.1794 38.0206 29.1808 38.1933 29.1827C38.27 29.182 38.27 29.182 38.3482 29.1814C38.5828 29.1855 38.7127 29.2016 38.9032 29.3437C39.0042 29.4874 39.0042 29.4874 39.0094 29.6699C38.9114 29.9685 38.7568 30.2059 38.5839 30.4667C38.5095 30.5815 38.4353 30.6964 38.3611 30.8113C38.3227 30.8704 38.2843 30.9296 38.2447 30.9905C38.0626 31.2731 37.886 31.5591 37.7096 31.8453C37.6738 31.9033 37.6379 31.9612 37.601 32.021C37.3991 32.3478 37.1978 32.6749 36.9967 33.0022C36.5177 33.7816 36.0366 34.5597 35.5509 35.3349C35.1483 35.9781 34.7509 36.6245 34.3537 37.271C34.1183 37.6541 33.882 38.0367 33.6452 38.4189C33.61 38.4757 33.5748 38.5326 33.5386 38.5911C33.3958 38.8216 33.253 39.052 33.1102 39.2823C32.657 40.0131 32.2054 40.7447 31.7575 41.4788C31.7312 41.5215 31.7049 41.5643 31.6778 41.6084C31.6151 41.7129 31.5566 41.8199 31.4988 41.9272C31.4678 41.972 31.4369 42.0168 31.405 42.063C31.1906 42.084 31.1906 42.084 31.0015 42.063C30.83 41.7749 30.8802 41.5747 30.9575 41.2673C30.9741 41.2058 30.9907 41.1444 31.0078 41.0811C31.0249 41.0146 31.042 40.948 31.0596 40.8795C31.1177 40.6545 31.1773 40.4299 31.2369 40.2052C31.2784 40.0455 31.3198 39.8857 31.3611 39.726C31.6193 38.7322 31.885 37.7404 32.1499 36.7485C32.2008 36.5579 32.2517 36.3672 32.3025 36.1766C32.3364 36.0495 32.3702 35.9224 32.4041 35.7953C32.4209 35.7325 32.4376 35.6696 32.4549 35.6048C32.5559 35.2263 32.6575 34.848 32.7597 34.4698C32.8241 34.2309 32.8881 33.992 32.9519 33.753C32.9819 33.641 33.0122 33.5291 33.0426 33.4172C33.0847 33.2627 33.126 33.1081 33.1671 32.9535C33.1795 32.9088 33.1918 32.8641 33.2045 32.818C33.2797 32.5317 33.3047 32.2711 33.288 31.9756C33.1513 31.8389 32.8669 31.898 32.6792 31.8977C32.6225 31.8974 32.5657 31.897 32.5072 31.8967C32.3836 31.896 32.2599 31.8954 32.1362 31.8949C31.9407 31.8941 31.7452 31.8928 31.5496 31.8914C30.9935 31.8872 30.4374 31.8836 29.8812 31.8813C29.5415 31.8799 29.2017 31.8776 28.862 31.8746C28.7323 31.8736 28.6025 31.873 28.4728 31.8728C28.2915 31.8725 28.1102 31.8709 27.9289 31.8691C27.8481 31.8694 27.8481 31.8694 27.7657 31.8697C27.4039 31.8642 27.4039 31.8642 27.2341 31.7481C27.1683 31.6393 27.1683 31.6393 27.1706 31.4854C27.2539 31.2513 27.3858 31.07 27.5342 30.8738C27.5961 30.7897 27.6578 30.7054 27.7194 30.6211C27.751 30.578 27.7825 30.535 27.815 30.4906C27.9596 30.29 28.0969 30.0849 28.2335 29.8788C28.2608 29.8377 28.2881 29.7965 28.3162 29.7542C28.3732 29.6682 28.4302 29.5822 28.4871 29.4962C28.6469 29.2546 28.8073 29.0135 28.9677 28.7723C29.0016 28.7214 29.0354 28.6705 29.0703 28.618C29.6609 27.7307 30.2593 26.8486 30.8564 25.9656C31.0901 25.6199 31.3236 25.274 31.5567 24.9278C31.7092 24.7013 31.8619 24.4748 32.0145 24.2484C32.0862 24.1421 32.1577 24.0358 32.2293 23.9294C32.4186 23.648 32.6088 23.3671 32.8006 23.0873C32.8812 22.9689 32.9603 22.8497 33.0394 22.7303C33.0858 22.6622 33.1322 22.5942 33.18 22.5241C33.2387 22.4363 33.2387 22.4363 33.2987 22.3468C33.4225 22.2244 33.4225 22.2244 33.5973 22.1973Z" fill="white"/>
<path d="M78.3449 32.3794C78.519 32.4667 78.6571 32.5833 78.803 32.7114C78.8429 32.7446 78.8828 32.7778 78.9239 32.812C79.0056 32.8801 79.0868 32.9487 79.1676 33.0178C79.3475 33.1712 79.5315 33.3192 79.7151 33.468C79.8188 33.5533 79.9226 33.6387 80.0261 33.7243C80.0317 33.6508 80.0372 33.5773 80.0429 33.5016C80.0934 33.2536 80.0934 33.2536 80.2007 33.1389C80.4228 33.0193 80.596 33.0257 80.8476 33.0251C80.9174 33.0248 80.9174 33.0248 80.9887 33.0245C81.087 33.0243 81.1853 33.0247 81.2836 33.0256C81.4334 33.0266 81.5831 33.0256 81.733 33.0243C81.8287 33.0244 81.9245 33.0247 82.0202 33.0251C82.1069 33.0253 82.1936 33.0255 82.2829 33.0257C82.5281 33.0534 82.6557 33.1053 82.8506 33.2536C82.9289 33.4103 82.926 33.5006 82.9255 33.675C82.9255 33.7342 82.9255 33.7935 82.9255 33.8545C82.9251 33.9185 82.9248 33.9825 82.9244 34.0485C82.9243 34.1467 82.9243 34.1467 82.9241 34.247C82.9237 34.4566 82.9229 34.6663 82.922 34.876C82.9217 35.0179 82.9214 35.1599 82.9211 35.3018C82.9204 35.6502 82.9193 35.9987 82.9178 36.3471C82.9581 36.3659 82.9983 36.3847 83.0398 36.4041C83.2545 36.5172 83.4246 36.6768 83.6029 36.8388C83.6397 36.8707 83.6764 36.9026 83.7142 36.9354C83.8758 37.0818 83.9844 37.1946 84.0574 37.4021C84.0625 37.6168 83.9841 37.7228 83.8593 37.8938C83.7248 38.0283 83.7248 38.0283 83.5365 38.053C83.27 38.0224 83.1731 37.9431 82.9725 37.7677C82.916 37.7194 82.8596 37.671 82.8015 37.6211C82.7697 37.591 82.738 37.5609 82.7053 37.5299C82.5761 37.4136 82.5761 37.4136 82.3939 37.3002C81.8905 36.9339 81.8905 36.9339 81.8032 36.6051C81.7495 36.1918 81.7744 35.7784 81.7956 35.3636C81.7993 35.237 81.8027 35.1105 81.8057 34.984C81.8138 34.6759 81.8266 34.3684 81.8419 34.0606C81.5977 34.0606 81.3536 34.0606 81.1021 34.0606C81.1052 34.1303 81.1083 34.2 81.1116 34.2718C81.1141 34.3639 81.1165 34.456 81.1189 34.5482C81.1212 34.594 81.1234 34.6399 81.1257 34.6871C81.1303 34.9199 81.121 35.0444 80.9786 35.2325C80.788 35.3712 80.6654 35.4009 80.4296 35.4056C80.0759 35.2622 79.8225 35.0435 79.5428 34.7919C79.4539 34.7136 79.3649 34.6353 79.2759 34.5571C79.2323 34.5186 79.1887 34.4801 79.1437 34.4405C78.9648 34.2834 78.7839 34.1292 78.6013 33.9765C78.5448 33.929 78.4884 33.8815 78.4303 33.8326C78.2775 33.7242 78.1924 33.6796 78.0086 33.6571C77.8405 33.7805 77.6941 33.9027 77.5421 34.0438C77.4512 34.1254 77.3603 34.2069 77.2694 34.2884C77.224 34.3295 77.1786 34.3706 77.1318 34.413C76.9442 34.5813 76.7518 34.7436 76.5586 34.9054C76.2935 35.1286 76.0297 35.3532 75.7671 35.5792C75.2226 36.0478 74.6695 36.5041 74.1082 36.9523C74.1738 36.9976 74.2394 37.0429 74.307 37.0895C74.4858 37.2396 74.5091 37.2762 74.5602 37.5179C74.5593 37.6056 74.5584 37.6933 74.5575 37.7836C74.5575 37.8329 74.5576 37.8823 74.5576 37.9332C74.5573 38.0922 74.5542 38.251 74.5511 38.41C74.5505 38.5085 74.5501 38.607 74.5498 38.7054C74.5477 39.0696 74.5421 39.4337 74.5369 39.7978C74.5286 40.612 74.5202 41.4262 74.5117 42.265C76.9306 42.265 79.3496 42.265 81.8419 42.265C81.8419 41.4883 81.8419 40.7116 81.8419 39.9113C82.1108 39.6423 82.1108 39.6423 82.2477 39.6089C82.6153 39.6196 82.6153 39.6196 82.7791 39.7306C82.9038 39.9286 82.9266 40.101 82.9287 40.3288C82.9293 40.3856 82.93 40.4424 82.9306 40.5009C82.9311 40.5927 82.9311 40.5927 82.9315 40.6862C82.9319 40.7493 82.9323 40.8124 82.9327 40.8775C82.9333 41.011 82.9337 41.1445 82.934 41.278C82.9347 41.482 82.9367 41.6859 82.9389 41.8899C82.9393 42.0197 82.9397 42.1494 82.9399 42.2792C82.9407 42.3401 82.9416 42.401 82.9424 42.4637C82.9412 42.8214 82.9148 43.075 82.6488 43.341C82.5327 43.3479 82.4163 43.3501 82.3 43.3505C82.2244 43.3509 82.1488 43.3512 82.0708 43.3516C81.9453 43.3517 81.9453 43.3517 81.8172 43.3519C81.7296 43.3522 81.642 43.3525 81.5518 43.3529C81.3109 43.3538 81.0699 43.3542 80.829 43.3545C80.6786 43.3547 80.5282 43.355 80.3778 43.3553C79.9076 43.3562 79.4374 43.3568 78.9672 43.3571C78.4237 43.3574 77.8803 43.3586 77.3368 43.3605C76.9172 43.362 76.4976 43.3627 76.078 43.3627C75.8272 43.3628 75.5764 43.3632 75.3256 43.3644C75.0459 43.3657 74.7662 43.3654 74.4865 43.365C74.403 43.3656 74.3196 43.3662 74.2336 43.3669C74.1576 43.3665 74.0816 43.3661 74.0033 43.3657C73.9372 43.3658 73.871 43.3659 73.8028 43.366C73.6374 43.341 73.6374 43.341 73.5152 43.2522C73.3851 43.0675 73.4094 42.8647 73.4128 42.6472C73.4127 42.5724 73.4127 42.5724 73.4127 42.4961C73.4128 42.3312 73.4144 42.1664 73.416 42.0016C73.4163 41.8873 73.4166 41.7729 73.4168 41.6586C73.4176 41.3578 73.4196 41.057 73.4218 40.7562C73.4239 40.4492 73.4248 40.1422 73.4258 39.8353C73.428 39.2329 73.4314 38.6306 73.4357 38.0283C73.3703 38.0299 73.305 38.0315 73.2377 38.0332C73.1097 38.0351 73.1097 38.0351 72.9791 38.037C72.852 38.0394 72.852 38.0394 72.7223 38.0419C72.4942 38.0283 72.4942 38.0283 72.2672 37.8896C72.1292 37.6402 72.1244 37.5037 72.1579 37.2213C72.2761 37.075 72.3725 36.976 72.5152 36.8599C72.5517 36.8283 72.5883 36.7968 72.6259 36.7643C72.7377 36.6684 72.8509 36.5748 72.9649 36.4816C73.0601 36.4032 73.0601 36.4032 73.1572 36.3232C73.2785 36.2241 73.4001 36.1256 73.5221 36.0274C73.7118 35.8704 73.8934 35.7069 74.0745 35.5401C74.3751 35.2634 74.6859 35.004 75.0037 34.7475C75.1806 34.6015 75.3509 34.4505 75.5204 34.296C75.7488 34.0878 75.9818 33.889 76.2223 33.6949C76.4845 33.4832 76.7355 33.2636 76.9831 33.035C77.8076 32.2842 77.8076 32.2842 78.3449 32.3794Z" fill="white"/>
</svg>
