<svg width="100" height="100" viewBox="0 0 100 100" fill="none" xmlns="http://www.w3.org/2000/svg">
<path d="M17.1145 10.1225C17.1618 10.1224 17.2091 10.1223 17.2564 10.1222C17.3855 10.122 17.5146 10.1221 17.6437 10.1224C17.7851 10.1226 17.9264 10.1224 18.0677 10.1222C18.3161 10.122 18.5644 10.122 18.8127 10.1222C19.0804 10.1225 19.3481 10.1225 19.6158 10.1224C19.6413 10.1224 19.6413 10.1224 19.6674 10.1224C19.7543 10.1224 19.8412 10.1223 19.9281 10.1223C20.5617 10.122 21.1954 10.1221 21.8291 10.1223C22.4712 10.1225 23.1133 10.1226 23.7554 10.1225C23.7757 10.1225 23.7959 10.1225 23.8168 10.1225C24.0025 10.1224 24.1882 10.1224 24.3739 10.1224C24.8396 10.1223 25.3053 10.1222 25.7709 10.1222C25.7923 10.1222 25.8136 10.1222 25.8356 10.1222C26.887 10.1221 27.9385 10.1222 28.9899 10.1224C29.36 10.1225 29.7301 10.1225 30.1002 10.1226C30.1232 10.1226 30.1462 10.1226 30.1699 10.1226C31.2362 10.1228 32.3025 10.1228 33.3688 10.1228C33.4619 10.1228 33.5549 10.1228 33.648 10.1228C34.0454 10.1227 34.4428 10.1227 34.8401 10.1227C35.8859 10.1227 36.9317 10.1227 37.9775 10.1227C38.0013 10.1227 38.0251 10.1227 38.0497 10.1227C39.5914 10.1227 41.1332 10.1228 42.6749 10.123C42.7118 10.123 42.7118 10.123 42.7495 10.123C43.5739 10.1231 44.3982 10.1233 45.2226 10.1234C45.9764 10.1235 46.7302 10.1236 47.4841 10.1236C47.509 10.1236 47.5339 10.1237 47.5596 10.1237C49.9267 10.1239 52.2938 10.1239 54.6608 10.1238C54.7862 10.1238 54.9115 10.1238 55.0368 10.1238C55.0616 10.1238 55.0864 10.1238 55.1119 10.1238C55.162 10.1238 55.2121 10.1238 55.2622 10.1238C55.3122 10.1238 55.3623 10.1238 55.4123 10.1238C55.9612 10.1238 56.5101 10.1237 57.059 10.1237C57.1335 10.1237 57.2081 10.1237 57.2827 10.1237C58.7988 10.1237 60.315 10.1237 61.8312 10.1237C61.8549 10.1237 61.8787 10.1237 61.9033 10.1237C62.9953 10.1238 64.0874 10.1238 65.1794 10.1239C65.2965 10.1239 65.4135 10.1239 65.5305 10.1239C65.5652 10.1239 65.5652 10.1239 65.6007 10.1239C65.7174 10.124 65.8341 10.124 65.9508 10.124C65.9974 10.124 66.0441 10.124 66.0907 10.124C66.1253 10.124 66.1253 10.124 66.1605 10.124C66.3 10.124 66.4395 10.124 66.579 10.124C67.6221 10.1241 68.6652 10.1241 69.7083 10.1241C69.7313 10.1241 69.7543 10.1241 69.778 10.1241C70.0327 10.1241 70.2874 10.1241 70.5421 10.1241C70.6343 10.1241 70.7265 10.1241 70.8187 10.1241C70.8415 10.1241 70.8642 10.1241 70.8877 10.1241C71.9377 10.124 72.9877 10.124 74.0378 10.1242C74.0591 10.1242 74.0804 10.1242 74.1023 10.1242C74.5672 10.1243 75.032 10.1244 75.4968 10.1245C75.6822 10.1245 75.8675 10.1245 76.0529 10.1246C76.0731 10.1246 76.0934 10.1246 76.1142 10.1246C76.7555 10.1247 77.3968 10.1247 78.0381 10.1246C78.6697 10.1245 79.3012 10.1246 79.9327 10.1248C80.0193 10.1249 80.1058 10.1249 80.1923 10.1249C80.2177 10.1249 80.2177 10.1249 80.2437 10.1249C80.5105 10.125 80.7774 10.125 81.0442 10.1249C81.3055 10.1248 81.5667 10.1248 81.828 10.125C81.967 10.1251 82.106 10.1252 82.245 10.125C82.3713 10.1249 82.4976 10.1249 82.6239 10.1251C82.6691 10.1252 82.7142 10.1252 82.7593 10.1251C83.1602 10.1241 83.5564 10.1517 83.9512 10.2238C83.9772 10.2286 84.0033 10.2333 84.0302 10.2382C84.5688 10.3406 85.0954 10.5179 85.58 10.7751C85.6227 10.7977 85.6656 10.8198 85.7086 10.8418C86.3614 11.1786 86.9719 11.6826 87.422 12.2637C87.4395 12.2855 87.4569 12.3073 87.475 12.3297C88.5055 13.6244 88.7366 15.12 88.7365 16.721C88.7365 16.8291 88.7366 16.9371 88.7368 17.0452C88.737 17.2343 88.7371 17.4234 88.7372 17.6125C88.7373 17.8938 88.7375 18.1752 88.7378 18.4565C88.7383 18.9307 88.7386 19.4049 88.7389 19.879C88.7392 20.3503 88.7395 20.8217 88.74 21.293C88.74 21.3077 88.74 21.3224 88.74 21.3375C88.7401 21.5019 88.7403 21.6663 88.7404 21.8307C88.7407 22.1349 88.741 22.4391 88.7412 22.7433C88.7413 22.7585 88.7413 22.7737 88.7413 22.7894C88.7419 23.5139 88.7425 24.2383 88.743 24.9628C88.7431 25.0108 88.7431 25.0589 88.7431 25.1069C88.7434 25.46 88.7437 25.813 88.7439 26.166C88.7444 26.7871 88.7449 27.4081 88.7453 28.0291C88.7454 28.0765 88.7454 28.1239 88.7455 28.1713C88.746 28.8899 88.7466 29.6085 88.7472 30.3271C88.7472 30.3423 88.7472 30.3576 88.7472 30.3733C88.7475 30.6786 88.7478 30.9838 88.748 31.2891C88.7482 31.4545 88.7483 31.6199 88.7485 31.7852C88.7485 31.8074 88.7485 31.8074 88.7485 31.8301C88.7489 32.2843 88.7493 32.7385 88.7495 33.1927C88.7508 36.1945 88.7508 36.1945 88.7619 39.1963C88.7625 39.3116 88.763 39.427 88.7634 39.5423C88.7639 39.6917 88.7648 39.841 88.7659 39.9903C88.7662 40.0433 88.7665 40.0963 88.7666 40.1492C88.7685 40.9048 88.9642 41.5357 89.3882 42.162C89.4516 42.2569 89.5123 42.3536 89.5734 42.45C89.6 42.4919 89.6266 42.5337 89.6532 42.5755C89.6664 42.5964 89.6797 42.6173 89.6933 42.6388C89.9131 42.9846 90.1336 43.33 90.3546 43.6751C90.4142 43.768 90.4737 43.861 90.5332 43.954C90.5627 44.0001 90.5922 44.0462 90.6217 44.0923C90.6972 44.2102 90.7727 44.3281 90.8481 44.4461C90.9854 44.6608 91.1228 44.8753 91.2615 45.0891C91.3683 45.2538 91.474 45.4193 91.5797 45.5847C91.6638 45.7162 91.7482 45.8475 91.8331 45.9784C91.9338 46.1335 92.0335 46.2892 92.1331 46.445C92.2731 46.6639 92.4138 46.8824 92.5553 47.1004C92.6959 47.317 92.8357 47.534 92.9748 47.7516C93.0939 47.938 93.2138 48.1238 93.3346 48.309C93.4466 48.4811 93.5572 48.6541 93.6677 48.8272C93.7593 48.9703 93.8514 49.1131 93.9442 49.2555C94.0689 49.4467 94.1921 49.6389 94.3151 49.8312C94.4389 50.0249 94.5635 50.218 94.6887 50.4107C94.9057 50.7452 95.1206 51.081 95.3354 51.417C95.5502 51.753 95.5502 51.753 95.7664 52.0882C95.9113 52.3114 96.0544 52.5357 96.1978 52.7598C96.2435 52.8314 96.2893 52.9028 96.3351 52.9743C96.4882 53.2133 96.641 53.4524 96.7933 53.6919C96.8923 53.8477 96.9918 54.0031 97.0914 54.1585C97.5462 54.8686 97.5462 54.8686 97.7331 55.1875C97.7428 55.204 97.7526 55.2205 97.7626 55.2375C98.7088 56.8508 99.3471 58.6506 99.1226 64.856C98.9747 65.415 98.7903 65.9649 98.5789 66.503C98.5732 66.5176 98.5675 66.5322 98.5616 66.5472C98.3564 67.0679 98.1024 67.5299 97.5776 67.7847C97.1726 67.9446 96.779 67.9351 96.3737 67.7799C96.0592 67.6394 95.8005 67.3629 95.6678 67.047C95.4081 66.3635 95.6892 65.7144 95.9082 65.062C96.125 64.4174 96.125 64.4174 96.3109 63.7633C96.3199 63.7289 96.3199 63.7289 96.329 63.6937C96.8263 61.7557 96.6652 59.6431 95.7998 57.8313C95.7921 57.8152 95.7845 57.7991 95.7766 57.7826C95.7341 57.6942 95.6901 57.6069 95.6448 57.52C95.6209 57.4737 95.5975 57.4271 95.5741 57.3806C95.4154 57.0681 95.2302 56.7728 95.0442 56.4761C95.0158 56.4305 94.9874 56.385 94.959 56.3394C94.8903 56.2293 94.8214 56.1193 94.7525 56.0093C94.71 55.9415 94.6677 55.8737 94.6253 55.8058C94.3904 55.4297 94.1538 55.0547 93.9156 54.6807C93.8322 54.5499 93.7492 54.4189 93.6664 54.2877C93.4167 53.8919 93.1645 53.4977 92.9121 53.1037C92.8659 53.0315 92.8197 52.9593 92.7735 52.887C92.6052 52.6239 92.4365 52.3612 92.2664 52.0993C92.1268 51.8841 91.9879 51.6684 91.8498 51.4522C91.7045 51.2249 91.5577 50.9987 91.4101 50.773C91.3121 50.6232 91.2149 50.4729 91.1178 50.3225C91.0674 50.2445 91.0169 50.1666 90.9664 50.0886C90.9461 50.0571 90.9257 50.0257 90.9053 49.9942C90.8952 49.9786 90.8852 49.963 90.8748 49.947C90.5998 49.5221 90.3248 49.0972 90.0498 48.6722C90.0397 48.6567 90.0296 48.6411 90.0192 48.6251C89.9988 48.5935 89.9783 48.5618 89.9579 48.5302C89.9084 48.4537 89.8588 48.3772 89.8092 48.3008C89.7028 48.1366 89.5969 47.9721 89.4917 47.8071C89.431 47.7121 89.3702 47.6173 89.3092 47.5225C89.2819 47.4799 89.2546 47.4372 89.2274 47.3945C89.1925 47.3398 89.1573 47.2853 89.122 47.2309C89.1121 47.2153 89.1023 47.1997 89.0921 47.1836C89.0028 47.0474 88.8905 46.9461 88.7553 46.856C88.7553 46.8839 88.7553 46.9118 88.7553 46.9405C88.7543 48.1705 88.7533 49.4005 88.7518 50.6305C88.7518 50.6585 88.7518 50.6585 88.7517 50.687C88.7513 51.0923 88.7508 51.4977 88.7502 51.903C88.75 52.1018 88.7497 52.3006 88.7495 52.4994C88.7495 52.5192 88.7495 52.539 88.7494 52.5593C88.7486 53.1995 88.7481 53.8397 88.7476 54.4799C88.7471 55.1383 88.7464 55.7967 88.7454 56.455C88.7453 56.5482 88.7452 56.6414 88.745 56.7345C88.745 56.7529 88.745 56.7712 88.745 56.7901C88.7445 57.0842 88.7444 57.3784 88.7443 57.6725C88.7441 57.9688 88.7438 58.2652 88.7432 58.5615C88.7429 58.7371 88.7427 58.9128 88.7428 59.0885C88.7429 59.2203 88.7426 59.3521 88.7421 59.4839C88.742 59.5368 88.742 59.5896 88.7421 59.6425C88.7447 60.8941 88.4463 62.1561 87.7109 63.1857C87.7487 63.273 87.8062 63.3438 87.8651 63.4176C87.8759 63.4313 87.8867 63.4449 87.8978 63.459C87.9713 63.5513 88.0467 63.6418 88.1234 63.7314C88.4859 64.1575 88.8442 64.6472 88.8274 65.2359C88.7955 65.5943 88.6537 65.867 88.3998 66.1184C88.3834 66.1355 88.367 66.1526 88.3501 66.1703C88.1037 66.4126 87.7834 66.55 87.4387 66.5474C86.8094 66.5421 86.3657 66.1514 85.9401 65.7282C85.9242 65.7124 85.9084 65.6967 85.892 65.6805C85.804 65.5922 85.7201 65.5018 85.6386 65.4074C85.5704 65.3295 85.4988 65.2548 85.4276 65.1797C85.3034 65.0484 85.1803 64.9164 85.0585 64.7829C84.9947 64.7131 84.9306 64.6437 84.8664 64.5743C84.771 64.471 84.6758 64.3674 84.5808 64.2637C84.5058 64.1819 84.4306 64.1003 84.3553 64.0188C84.219 63.8713 84.0832 63.7231 83.9475 63.5749C83.8206 63.4364 83.6935 63.2982 83.566 63.1603C83.4818 63.0691 83.3979 62.9777 83.3141 62.8862C83.2392 62.8044 83.164 62.7228 83.0887 62.6414C83.0033 62.549 82.9181 62.4564 82.8331 62.3637C82.7151 62.2348 82.5965 62.1063 82.4779 61.978C82.4111 61.9057 82.3444 61.8334 82.2776 61.7611C82.2218 61.7006 82.166 61.6401 82.1101 61.5797C81.9926 61.4526 81.8754 61.3253 81.7585 61.1976C81.6393 61.0675 81.5195 60.938 81.3998 60.8084C81.2598 60.657 81.12 60.5054 80.9807 60.3534C80.8727 60.2355 80.7642 60.1181 80.6557 60.0006C80.5889 59.9284 80.5221 59.856 80.4554 59.7837C80.3996 59.7233 80.3437 59.6628 80.2879 59.6024C80.1704 59.4752 80.0532 59.3479 79.9363 59.2203C79.8171 59.0902 79.6973 58.9607 79.5776 58.8311C79.4376 58.6797 79.2978 58.5281 79.1585 58.376C79.0505 58.2581 78.942 58.1407 78.8335 58.0233C78.7778 57.963 78.7221 57.9027 78.6664 57.8424C78.6442 57.8184 78.622 57.7943 78.5998 57.7702C78.5553 57.7221 78.5109 57.674 78.4664 57.6258C78.4554 57.6139 78.4444 57.602 78.4331 57.5897C78.4109 57.5657 78.3887 57.5416 78.3665 57.5176C78.3107 57.4571 78.2548 57.3966 78.199 57.3362C78.0815 57.2091 77.9643 57.0818 77.8474 56.9541C77.7394 56.8362 77.6309 56.7188 77.5224 56.6014C77.4667 56.5411 77.411 56.4808 77.3553 56.4205C77.3331 56.3965 77.3109 56.3724 77.2887 56.3483C75.822 54.7598 75.822 54.7598 75.7887 54.7237C75.7664 54.6996 75.7442 54.6755 75.7219 54.6514C75.6669 54.5918 75.6119 54.5322 75.5569 54.4725C75.4378 54.3434 75.3184 54.2146 75.1984 54.0863C75.0848 53.9648 74.972 53.8427 74.8598 53.72C74.6864 53.5306 74.5116 53.3425 74.3363 53.1549C74.2371 53.0488 74.1388 52.9418 74.0407 52.8345C73.9684 52.7556 73.8952 52.6774 73.822 52.5992C73.7289 52.4996 73.6362 52.3998 73.5442 52.2992C73.4396 52.1848 73.334 52.0714 73.2281 51.9582C73.1531 51.878 73.0785 51.7975 73.0043 51.7166C72.6245 51.2738 72.6245 51.2738 72.1089 51.0515C71.515 51.0412 70.8711 51.1369 70.4037 51.5398C70.1751 51.7691 70.0447 52.0475 70.0373 52.3714C70.0437 52.9837 70.3946 53.5193 70.688 54.0344C70.7755 54.1881 70.8604 54.343 70.9442 54.4987C71.0487 54.6927 71.1557 54.8851 71.2646 55.0767C71.3619 55.248 71.4575 55.4203 71.5526 55.5929C71.56 55.6065 71.5675 55.6201 71.5752 55.6341C71.5827 55.6477 71.5902 55.6613 71.5979 55.6754C71.6131 55.7028 71.6282 55.7303 71.6434 55.7578C71.6508 55.7714 71.6583 55.785 71.6661 55.7991C71.7436 55.9398 71.8217 56.0802 71.8998 56.2206C72.015 56.4277 72.1298 56.6351 72.2442 56.8427C72.4002 57.1256 72.557 57.4081 72.714 57.6904C72.7973 57.8401 72.8805 57.9899 72.9637 58.1397C73.0329 58.2641 73.102 58.3885 73.1712 58.5129C73.322 58.7841 73.4724 59.0555 73.6222 59.3272C73.7844 59.6214 73.9476 59.915 74.1109 60.2086C74.2893 60.5292 74.4673 60.85 74.6444 61.1713C74.7514 61.3653 74.8587 61.5591 74.9664 61.7527C75.0825 61.9613 75.1983 62.17 75.3137 62.3789C75.3211 62.3924 75.3286 62.4059 75.3363 62.4198C75.4496 62.625 75.5614 62.831 75.6726 63.0373C75.7542 63.1884 75.8383 63.3379 75.9234 63.487C76.0315 63.6766 76.1342 63.8685 76.2344 64.0624C76.3526 64.2906 76.4758 64.5159 76.5998 64.7409C76.6132 64.7652 76.6266 64.7896 76.6404 64.8147C76.7222 64.9632 76.8042 65.1116 76.8862 65.26C76.9396 65.3566 76.9929 65.4533 77.0461 65.55C77.4056 66.2032 77.4056 66.2032 77.7762 66.8502C77.7888 66.8718 77.8015 66.8935 77.8146 66.9159C77.8684 67.0078 77.9223 67.0998 77.9763 67.1916C78.5211 68.118 78.883 69.0671 78.6213 70.1502C78.4747 70.7067 78.1677 71.1887 77.8267 71.6447C76.7484 73.0884 76.2442 74.8398 76.4871 76.6319C76.5485 77.0456 76.6525 77.4441 76.7644 77.8463C77.1605 79.2696 77.4067 80.7278 77.4887 82.2037C77.4896 82.2181 77.4904 82.2326 77.4914 82.2475C77.5141 82.6206 77.516 82.994 77.5195 83.3677C77.5253 83.9717 77.5344 84.5756 77.5526 85.1794C77.553 85.1944 77.5535 85.2095 77.5539 85.225C77.5658 85.6185 77.5793 86.012 77.5929 86.4054C77.5953 86.4722 77.5976 86.5389 77.5999 86.6056C77.6066 86.8015 77.6135 86.9974 77.6205 87.1934C77.6469 87.9235 77.6469 87.9236 77.6472 88.1914C77.6472 88.2171 77.6472 88.2171 77.6472 88.2433C77.6437 88.7597 77.5235 89.2845 77.1478 89.6578C76.8338 89.9515 76.4858 90.042 76.0623 90.0304C75.6813 90.0125 75.3908 89.8547 75.1347 89.5779C74.7553 89.1245 74.7069 88.5178 74.6881 87.9522C74.6864 87.909 74.6848 87.8657 74.6831 87.8224C74.6796 87.7299 74.6762 87.6374 74.673 87.5449C74.6678 87.3967 74.6622 87.2486 74.6566 87.1005C74.6477 86.8654 74.6391 86.6302 74.6306 86.3951C74.6133 85.9172 74.5956 85.4393 74.5776 84.9614C74.5766 84.937 74.5757 84.9126 74.5748 84.8875C74.5289 83.6706 74.4728 82.4546 74.3908 81.2396C74.3874 81.1885 74.3839 81.1374 74.3805 81.0862C74.3172 80.141 74.1641 79.2483 73.9398 78.3289C73.6377 77.0907 73.6377 77.0907 73.5776 76.5827C73.5757 76.5674 73.5738 76.552 73.5719 76.5362C73.5311 76.1921 73.5251 75.85 73.5262 75.5038C73.5262 75.4763 73.5263 75.4488 73.5263 75.4205C73.5273 75.0258 73.5357 74.64 73.5998 74.2499C73.6055 74.2128 73.6055 74.2128 73.6113 74.1749C73.7465 73.3061 73.9995 72.4667 74.3776 71.6727C74.3877 71.6511 74.3979 71.6294 74.4084 71.6071C74.677 71.0399 75.0075 70.5145 75.3677 70.0015C75.5689 69.714 75.683 69.4755 75.6442 69.1177C75.5989 68.9193 75.4895 68.7491 75.387 68.5758C75.1918 68.2452 75.0337 67.8968 74.8762 67.5472C74.5594 66.8447 74.2117 66.0929 73.452 65.7888C73.1855 65.6962 72.9171 65.6487 72.6351 65.6473C72.6044 65.6471 72.6044 65.6471 72.5731 65.6469C72.5294 65.6467 72.4857 65.6466 72.4419 65.6465C72.3793 65.6463 72.3168 65.6456 72.2542 65.6449C72.0362 65.6437 71.8198 65.6489 71.6026 65.6668C70.7886 65.7327 69.975 65.7277 69.159 65.7263C68.9354 65.7259 68.7119 65.726 68.4883 65.726C68.0708 65.7261 67.6532 65.7259 67.2357 65.7255C66.8132 65.7251 66.3908 65.7249 65.9683 65.7248C65.9415 65.7248 65.9147 65.7248 65.8871 65.7248C65.7505 65.7247 65.6138 65.7247 65.4771 65.7247C64.5059 65.7246 63.5347 65.7241 62.5635 65.7235C61.572 65.7229 60.5806 65.7224 59.5892 65.7222C59.574 65.7222 59.5588 65.7222 59.5431 65.7222C59.2038 65.7221 58.8645 65.722 58.5252 65.7219C57.8979 65.7218 57.2705 65.7217 56.6431 65.7215C56.5956 65.7215 56.548 65.7215 56.5004 65.7215C55.0077 65.7211 53.515 65.7205 52.0222 65.7199C51.9233 65.7198 51.8243 65.7198 51.7253 65.7197C50.7644 65.7193 49.8034 65.7189 48.8425 65.7185C47.7974 65.718 46.7523 65.7176 45.7072 65.7172C45.608 65.7171 45.5089 65.7171 45.4098 65.717C43.9162 65.7164 42.4226 65.7158 40.929 65.7154C40.8815 65.7154 40.8339 65.7154 40.7864 65.7154C40.1598 65.7152 39.5331 65.7151 38.9065 65.715C38.5677 65.7149 38.2289 65.7148 37.89 65.7147C37.8749 65.7147 37.8597 65.7147 37.8441 65.7147C36.8522 65.7145 35.8603 65.714 34.8684 65.7134C33.8856 65.7128 32.9027 65.7124 31.9198 65.7122C31.7841 65.7122 31.6484 65.7122 31.5127 65.7121C31.4728 65.7121 31.4728 65.7121 31.432 65.7121C31.0104 65.712 30.5887 65.7117 30.1671 65.7113C29.7527 65.7109 29.3384 65.7108 28.924 65.7109C28.681 65.7109 28.4379 65.7108 28.1949 65.7104C28.0335 65.7102 27.8722 65.7102 27.7108 65.7103C27.6193 65.7104 27.5278 65.7104 27.4363 65.7101C27.3532 65.7099 27.2701 65.7099 27.1869 65.7102C27.1433 65.7103 27.0997 65.71 27.0561 65.7097C26.6655 65.7119 26.3133 65.8096 26.0283 66.0871C25.8262 66.3002 25.6776 66.5359 25.5273 66.7871C25.5016 66.8299 25.4759 66.8726 25.45 66.9152C24.8751 67.8622 24.3972 68.9252 24.6608 70.0558C24.8042 70.6172 25.0668 71.1159 25.4095 71.581C26.4611 73.013 26.7515 74.8478 26.4915 76.5794C26.4135 77.0838 26.2911 77.5747 26.1439 78.0629C25.5982 79.8784 25.4646 81.7833 25.3762 84.3555C25.3752 84.3869 25.3752 84.3869 25.3742 84.4189C25.3728 84.4612 25.3714 84.5035 25.37 84.5458C25.3604 84.8397 25.3497 85.1335 25.3379 85.4274C25.3372 85.4452 25.3365 85.4631 25.3357 85.4816C25.3321 85.5709 25.3285 85.6603 25.3249 85.7497C25.3235 85.785 25.322 85.8203 25.3206 85.8557C25.3196 85.8817 25.3196 85.8817 25.3185 85.9084C25.301 86.3423 25.2863 86.7761 25.2762 87.2103C25.2757 87.2309 25.2752 87.2516 25.2747 87.2729C25.27 87.4739 25.2655 87.6749 25.2617 87.8759C25.2602 87.9493 25.2586 88.0228 25.257 88.0963C25.2563 88.1301 25.2557 88.1638 25.2551 88.1976C25.2463 88.7296 25.1618 89.2468 24.7776 89.6465C24.6227 89.7822 24.4602 89.8873 24.2665 89.9575C24.247 89.9646 24.2276 89.9717 24.2075 89.979C23.832 90.0932 23.4209 90.0385 23.0734 89.8673C22.6942 89.6483 22.4712 89.3159 22.3543 88.8966C22.3217 88.7463 22.3267 88.5943 22.3272 88.4413C22.3272 88.4078 22.3271 88.3743 22.327 88.3408C22.3269 88.2509 22.3271 88.161 22.3274 88.0711C22.3276 88.0144 22.3277 87.9577 22.3277 87.901C22.3285 87.3833 22.3376 86.8666 22.3586 86.3493C22.3725 86.0022 22.3819 85.6552 22.3888 85.3079C22.3893 85.2848 22.3898 85.2618 22.3902 85.2381C22.3944 85.0283 22.3985 84.8186 22.4022 84.6088C22.4173 83.757 22.4399 82.9047 22.5053 82.0551C22.5072 82.0308 22.509 82.0065 22.5109 81.9815C22.6343 80.3667 22.9074 78.7888 23.3308 77.2267C23.6926 75.888 23.5917 74.5324 23.0665 73.2501C23.0586 73.2309 23.0508 73.2118 23.0427 73.192C22.8089 72.6296 22.4835 72.1069 22.114 71.6239C21.5047 70.8257 21.1454 69.9519 21.2795 68.9345C21.3488 68.4731 21.5148 68.0386 21.7326 67.6277C21.7556 67.5842 21.7782 67.5405 21.8008 67.4968C21.9176 67.272 22.0422 67.0517 22.1674 66.8314C22.2455 66.694 22.3227 66.5562 22.3998 66.4183C22.4988 66.2412 22.5983 66.0644 22.6984 65.8879C22.8179 65.6769 22.9358 65.465 23.0534 65.2529C23.1422 65.0929 23.2317 64.9334 23.322 64.7742C23.4687 64.5154 23.6132 64.2554 23.7574 63.9953C23.827 63.8698 23.8967 63.7444 23.9665 63.6189C23.9942 63.5689 24.022 63.519 24.0498 63.469C24.2165 63.169 24.2165 63.169 24.2581 63.0941C24.2859 63.044 24.3137 62.994 24.3415 62.944C24.4106 62.8195 24.4798 62.6951 24.549 62.5707C24.7369 62.2329 24.9239 61.8947 25.1105 61.5562C25.1773 61.4351 25.2441 61.3141 25.3109 61.193C25.3479 61.1259 25.385 61.0588 25.422 60.9917C25.4368 60.9649 25.4516 60.938 25.4665 60.9112C25.4738 60.8979 25.4811 60.8846 25.4887 60.8709C25.5109 60.8307 25.5331 60.7904 25.5553 60.7501C25.5663 60.7302 25.5663 60.7302 25.5776 60.7099C25.5924 60.683 25.6072 60.6562 25.622 60.6293C25.659 60.5623 25.696 60.4952 25.733 60.4282C25.8002 60.3063 25.8675 60.1845 25.9348 60.0627C25.9727 59.9942 26.0105 59.9257 26.0484 59.8573C26.0558 59.8438 26.0632 59.8304 26.0709 59.8166C26.1838 59.6121 26.2953 59.4069 26.4061 59.2013C26.4859 59.0536 26.568 58.9074 26.6512 58.7617C26.7717 58.5503 26.8866 58.3363 27.0005 58.1213C27.0972 57.9388 27.1957 57.7578 27.2984 57.5786C27.4319 57.3454 27.5579 57.1085 27.6834 56.8709C27.6994 56.8406 27.7155 56.8104 27.7315 56.7801C27.7393 56.7653 27.7471 56.7506 27.7551 56.7354C27.8537 56.5493 27.9549 56.3647 28.0562 56.18C28.115 56.0724 28.1734 55.9646 28.2317 55.8568C28.2497 55.8235 28.2497 55.8235 28.2681 55.7895C28.2924 55.7446 28.3168 55.6997 28.3411 55.6547C28.4014 55.5434 28.4617 55.4321 28.522 55.3208C28.5339 55.2987 28.5459 55.2767 28.5582 55.254C28.618 55.1435 28.678 55.0329 28.7379 54.9224C28.7618 54.8784 28.7856 54.8344 28.8095 54.7903C28.8213 54.7685 28.8332 54.7467 28.8453 54.7242C28.9084 54.6078 28.9714 54.4913 29.0341 54.3746C29.0472 54.3502 29.0604 54.3257 29.0739 54.3005C29.1003 54.2515 29.1266 54.2024 29.1529 54.1533C29.2128 54.0418 29.2732 53.9307 29.3357 53.8206C29.6676 53.2354 29.8664 52.5526 29.697 51.8771C29.5957 51.5461 29.4124 51.2598 29.1109 51.0773C28.7234 50.9016 28.3126 50.8882 27.9109 51.0328C27.8875 51.0411 27.864 51.0494 27.8399 51.058C27.3703 51.2393 27.0054 51.6148 26.6823 51.9891C26.6183 52.0623 26.5513 52.1327 26.4845 52.2034C26.4551 52.2346 26.4257 52.2659 26.3963 52.2971C26.3747 52.3202 26.3747 52.3202 26.3526 52.3437C26.2599 52.4425 26.1682 52.5422 26.0765 52.6419C26.0214 52.7018 25.9661 52.7615 25.9109 52.8213C25.8887 52.8454 25.8665 52.8695 25.8442 52.8935C23.5776 55.3485 23.5776 55.3485 23.5442 55.3846C23.522 55.4087 23.4998 55.4328 23.4776 55.4568C23.4218 55.5173 23.366 55.5777 23.3101 55.6381C23.2028 55.7543 23.0955 55.8706 22.9887 55.9873C22.8706 56.1162 22.7521 56.2446 22.6335 56.373C22.5778 56.4332 22.5221 56.4935 22.4665 56.5538C22.4442 56.5779 22.422 56.602 22.3998 56.626C22.3888 56.638 22.3778 56.6499 22.3665 56.6621C22.2665 56.7705 22.2665 56.7705 22.2331 56.8066C22.2109 56.8306 22.1887 56.8547 22.1665 56.8787C22.1107 56.9392 22.0549 56.9996 21.999 57.0601C21.8916 57.1762 21.7844 57.2925 21.6776 57.4092C21.5371 57.5625 21.396 57.7152 21.2549 57.8679C21.1363 57.9962 21.0178 58.1246 20.8998 58.2535C20.7594 58.4068 20.6182 58.5595 20.4771 58.7121C20.3585 58.8405 20.24 58.9689 20.122 59.0977C19.9816 59.251 19.8404 59.4037 19.6993 59.5564C19.5807 59.6847 19.4622 59.8131 19.3442 59.942C19.2038 60.0953 19.0627 60.248 18.9216 60.4007C18.803 60.529 18.6845 60.6574 18.5665 60.7862C18.426 60.9395 18.2849 61.0922 18.1438 61.2449C18.0252 61.3732 17.9067 61.5016 17.7887 61.6305C17.6706 61.7594 17.5521 61.8878 17.4335 62.0161C17.3778 62.0764 17.3221 62.1367 17.2665 62.197C17.1995 62.2695 17.1326 62.342 17.0657 62.4144C16.9482 62.5415 16.831 62.6688 16.7141 62.7965C16.628 62.8905 16.5415 62.9842 16.4549 63.0778C16.3808 63.158 16.3069 63.2384 16.2331 63.319C16.1482 63.4118 16.0629 63.5043 15.9776 63.5967C15.8513 63.7334 15.7255 63.8705 15.5998 64.0077C15.4629 64.1572 15.3258 64.3064 15.1882 64.4553C15.1141 64.5355 15.0402 64.6159 14.9665 64.6965C14.8484 64.8253 14.7299 64.9538 14.6113 65.0821C14.5667 65.1304 14.5221 65.1787 14.4775 65.2269C14.4553 65.2511 14.433 65.2752 14.4107 65.2993C14.3562 65.3582 14.302 65.4171 14.2481 65.4765C13.3101 66.5079 13.3101 66.5079 12.6329 66.5474C12.2483 66.5615 11.9333 66.4564 11.6401 66.2003C11.604 66.166 11.5683 66.1313 11.5331 66.0962C11.5066 66.07 11.5066 66.07 11.4796 66.0434C11.24 65.7938 11.1205 65.4898 11.1238 65.1449C11.1462 64.5462 11.5542 64.0446 11.9425 63.6254C11.9908 63.5731 12.0387 63.5207 12.0859 63.4676C12.0968 63.4553 12.1078 63.443 12.1191 63.4303C12.1714 63.3659 12.2188 63.2981 12.2665 63.2301C12.2503 63.2072 12.2341 63.1842 12.2175 63.1606C11.9353 62.7529 11.7143 62.3224 11.5553 61.8527C11.5492 61.8348 11.5431 61.8169 11.5368 61.7985C11.2749 61.0207 11.2188 60.1951 11.2185 59.3803C11.2184 59.3258 11.2183 59.2713 11.2182 59.2167C11.2179 59.0986 11.2178 58.9805 11.2176 58.8623C11.2175 58.6867 11.2172 58.511 11.2169 58.3354C11.2163 58.0398 11.2159 57.7443 11.2155 57.4487C11.2152 57.1562 11.2148 56.8637 11.2143 56.5713C11.2143 56.5531 11.2142 56.5348 11.2142 56.5161C11.2141 56.4236 11.2139 56.3311 11.2138 56.2386C11.2127 55.5841 11.2117 54.9297 11.2108 54.2752C11.21 53.6395 11.209 53.0039 11.2081 52.3682C11.208 52.3486 11.208 52.329 11.208 52.3088C11.2077 52.1119 11.2074 51.915 11.2071 51.7181C11.2064 51.317 11.2058 50.9159 11.2052 50.5148C11.2052 50.4964 11.2051 50.4779 11.2051 50.4589C11.2032 49.2283 11.2015 47.9977 11.1998 46.7671C11.158 46.8227 11.1162 46.8782 11.0744 46.9338C11.0628 46.9493 11.0511 46.9648 11.0391 46.9807C10.7945 47.3065 10.5724 47.644 10.3541 47.9879C10.2899 48.0887 10.2248 48.1889 10.1595 48.289C10.1478 48.307 10.136 48.325 10.1239 48.3436C10.101 48.3788 10.0781 48.414 10.0551 48.4492C10.0023 48.5304 9.94963 48.6117 9.89701 48.6931C9.88709 48.7084 9.87717 48.7237 9.86695 48.7395C9.8471 48.7702 9.82725 48.8009 9.8074 48.8316C9.75674 48.91 9.70604 48.9883 9.65534 49.0666C9.63497 49.0981 9.6146 49.1296 9.59423 49.161C9.22756 49.7276 9.22756 49.7276 9.19703 49.7747C9.17657 49.8064 9.15611 49.838 9.13565 49.8696C9.08615 49.9461 9.03662 50.0226 8.98703 50.099C8.86649 50.2849 8.74683 50.4712 8.62756 50.6579C8.46919 50.9057 8.30882 51.1522 8.1479 51.3983C7.99436 51.6334 7.84269 51.8696 7.69145 52.1062C7.54692 52.3323 7.40115 52.5575 7.25465 52.7823C7.08721 53.0394 6.92154 53.2976 6.75631 53.556C6.65255 53.7182 6.54794 53.8798 6.44277 54.0411C6.34615 54.1894 6.25065 54.3384 6.15534 54.4876C6.0486 54.6547 5.94142 54.8214 5.83312 54.9875C5.67955 55.2231 5.52801 55.4599 5.37673 55.697C5.33541 55.7615 5.29389 55.826 5.2523 55.8904C4.94013 56.3748 4.65843 56.872 4.39979 57.387C4.39031 57.4057 4.38084 57.4244 4.37108 57.4437C3.55897 59.0601 3.1743 60.9577 3.81835 64.5524C3.95415 64.9587 4.11012 65.3512 4.28867 65.7407C4.29726 65.7596 4.30585 65.7786 4.3147 65.7981C4.44746 66.0903 4.59712 66.3724 4.75534 66.6516C4.76526 66.6691 4.77517 66.6866 4.78539 66.7047C5.09204 67.2414 5.45398 67.7483 5.80316 68.2579C5.87913 68.3689 5.95471 68.4802 6.03034 68.5914C6.06223 68.6383 6.09411 68.6852 6.126 68.7321C6.14186 68.7554 6.15773 68.7788 6.17407 68.8028C6.23729 68.8958 6.30053 68.9888 6.36376 69.0817C6.41101 69.1512 6.45826 69.2207 6.50552 69.2901C6.56789 69.3819 6.63028 69.4736 6.69267 69.5653C6.85815 69.8085 7.0235 70.0518 7.18867 70.2952C7.48182 70.7272 7.7755 71.1589 8.06975 71.5902C8.11172 71.6517 8.15367 71.7132 8.19562 71.7748C8.36267 72.0198 8.52996 72.2647 8.69753 72.5094C8.73394 72.5626 8.77034 72.6158 8.80673 72.669C8.87845 72.7739 8.95021 72.8787 9.02201 72.9835C9.03213 72.9983 9.04225 73.0131 9.05268 73.0283C9.19668 73.2385 9.34204 73.4477 9.4877 73.6567C9.58125 73.7911 9.67419 73.9258 9.76645 74.0611C9.87263 74.2166 9.97968 74.3716 10.0873 74.5262C10.1097 74.5585 10.1097 74.5585 10.1327 74.5915C10.2043 74.6944 10.2763 74.7972 10.3488 74.8995C10.624 75.2881 10.8715 75.6876 11.1019 76.1043C11.1279 76.1512 11.1542 76.1978 11.1807 76.2444C12.055 77.82 12.4089 79.6503 12.457 81.4343C12.4604 81.5597 12.464 81.6851 12.4676 81.8105C12.4684 81.838 12.4692 81.8655 12.47 81.8938C12.502 83.0095 12.5401 84.1249 12.5818 85.2402C12.5835 85.2858 12.5852 85.3313 12.5869 85.3768C12.6097 85.99 12.6328 86.6031 12.6562 87.2162C12.6652 87.452 12.6741 87.6878 12.683 87.9236C12.6882 88.0617 12.6934 88.1998 12.6988 88.3379C12.7366 89.3126 12.7366 89.3126 12.7373 89.6713C12.7374 89.7051 12.7374 89.7051 12.7375 89.7395C12.7356 90.0367 12.6795 90.3082 12.5553 90.5796C12.546 90.6003 12.5367 90.621 12.5271 90.6423C12.3617 90.9764 12.0666 91.2308 11.7174 91.3567C11.3049 91.4774 10.8964 91.3843 10.5258 91.1841C10.4093 91.1169 10.3148 91.0319 10.222 90.9351C10.201 90.9151 10.201 90.9151 10.1795 90.8946C9.78013 90.4883 9.801 89.8296 9.77961 89.3029C9.77771 89.2572 9.77581 89.2114 9.7739 89.1657C9.76875 89.0419 9.76367 88.918 9.75861 88.7941C9.75433 88.6895 9.75001 88.585 9.7457 88.4804C9.73545 88.2321 9.72526 87.9838 9.7151 87.7355C9.70592 87.5109 9.69667 87.2863 9.68737 87.0617C9.62096 85.4583 9.55651 83.8555 9.53247 82.2508C9.52581 81.8126 9.51864 81.3755 9.47921 80.9388C9.4772 80.9164 9.4772 80.9164 9.47515 80.8936C9.31365 79.1445 8.64828 77.5406 7.6181 76.131C7.53186 76.0128 7.44859 75.8929 7.36645 75.7718C7.27327 75.6345 7.17815 75.499 7.08034 75.3649C6.92804 75.156 6.78298 74.9423 6.63796 74.7282C6.58484 74.65 6.53124 74.5721 6.47756 74.4943C5.97056 73.7581 5.47161 73.0164 4.97133 72.2757C4.58977 71.7108 4.20758 71.1463 3.82201 70.584C3.81201 70.5695 3.80202 70.5549 3.79172 70.5398C3.66415 70.3536 3.53566 70.1681 3.40673 69.9828C3.38421 69.9504 3.38421 69.9504 3.36124 69.9174C3.28393 69.8063 3.20647 69.6953 3.12878 69.5845C2.95462 69.3358 2.78387 69.0858 2.62201 68.8289C2.61088 68.8113 2.59976 68.7938 2.58829 68.7757C1.78115 67.4996 1.09988 66.0958 0.75482 64.6199C0.751104 64.6042 0.747389 64.5885 0.74356 64.5724C0.725814 64.4973 0.708679 64.4222 0.692613 64.3467C0.660284 64.2065 0.625974 64.0962 0.547735 63.9763C0.410571 63.7628 0.392756 63.5822 0.394718 63.3333C0.3943 63.2938 0.3938 63.2543 0.393223 63.2147C0.391943 63.1083 0.391919 63.002 0.392216 62.8956C0.392357 62.8061 0.391893 62.7167 0.391441 62.6272C0.390393 62.4156 0.390392 62.204 0.391051 61.9924C0.391706 61.7758 0.39058 61.5593 0.38856 61.3427C0.386879 61.1554 0.386348 60.9681 0.386693 60.7808C0.386886 60.6695 0.386681 60.5583 0.385351 60.447C0.379687 59.9275 0.410695 59.5273 0.675656 59.0722C0.732109 58.9707 0.775469 58.8642 0.818969 58.7566C0.835415 58.7167 0.851868 58.6769 0.868329 58.6371C0.884841 58.5967 0.901345 58.5563 0.917841 58.5159C0.935905 58.4719 0.953971 58.428 0.97204 58.384C1.08903 58.0987 1.20232 57.812 1.31367 57.5244C1.7612 56.3688 2.23903 55.2238 2.88867 54.1655C2.91859 54.1164 2.94851 54.0674 2.97843 54.0184C3.16233 53.7178 3.34914 53.4191 3.53625 53.1205C3.59174 53.032 3.64713 52.9434 3.70252 52.8547C3.74416 52.7881 3.78582 52.7215 3.82748 52.6549C3.88338 52.5655 3.93921 52.476 3.99501 52.3865C4.16751 52.11 4.34144 51.8345 4.51681 51.5598C4.5816 51.4582 4.64624 51.3566 4.7109 51.255C4.73682 51.2143 4.76275 51.1735 4.78867 51.1328C4.80151 51.1126 4.81434 51.0925 4.82756 51.0717C4.86645 51.0106 4.90534 50.9495 4.94423 50.8884C4.95707 50.8682 4.96991 50.8481 4.98313 50.8273C5.009 50.7867 5.03488 50.746 5.06075 50.7054C5.12644 50.6022 5.19209 50.499 5.25768 50.3957C5.38338 50.1979 5.50942 50.0004 5.63704 49.8038C5.72894 49.6622 5.81993 49.5199 5.9109 49.3776C6.04142 49.1735 6.17248 48.9698 6.30435 48.7666C6.35475 48.6889 6.40504 48.6111 6.45534 48.5334C6.47571 48.5019 6.49608 48.4704 6.51645 48.439C6.52654 48.4234 6.53662 48.4078 6.54701 48.3918C8.59423 45.2286 8.59423 45.2286 8.62476 45.1814C8.64522 45.1498 8.66568 45.1182 8.68614 45.0865C8.73564 45.01 8.78517 44.9336 8.83477 44.8571C8.97281 44.6443 9.10971 44.4307 9.24637 44.217C9.33048 44.0856 9.41483 43.9542 9.49979 43.8233C9.64461 43.6001 9.78779 43.3758 9.93113 43.1516C9.99186 43.0567 10.0526 42.9618 10.1134 42.8669C10.1724 42.7749 10.2312 42.6829 10.2901 42.5909C10.3186 42.5463 10.3472 42.5017 10.3757 42.4571C10.4657 42.3167 10.5553 42.1759 10.6442 42.0348C10.6594 42.0109 10.6594 42.0109 10.6749 41.9864C11.0201 41.4387 11.1714 40.8508 11.1901 40.208C11.1905 40.1931 11.191 40.1782 11.1915 40.1628C11.2012 39.8424 11.2033 39.5221 11.2036 39.2015C11.2037 39.1216 11.2039 39.0416 11.2041 38.9617C11.2044 38.824 11.2047 38.6863 11.2049 38.5486C11.2052 38.3491 11.2057 38.1496 11.2062 37.9501C11.207 37.6256 11.2078 37.3011 11.2085 36.9766C11.2086 36.9573 11.2086 36.938 11.2086 36.9181C11.2092 36.6435 11.2098 36.369 11.2103 36.0944C11.2103 36.0653 11.2103 36.0653 11.2104 36.0356C11.2104 36.0162 11.2105 35.9969 11.2105 35.9769C11.2111 35.6531 11.2118 35.3292 11.2128 35.0054C11.2133 34.8065 11.2137 34.6076 11.2139 34.4088C11.2141 34.2726 11.2144 34.1364 11.2149 34.0002C11.2151 33.9219 11.2153 33.8436 11.2153 33.7653C11.2155 32.952 11.2155 32.952 11.3192 32.5925C11.3242 32.5748 11.3291 32.5572 11.3342 32.539C11.3482 32.49 11.3627 32.4412 11.3776 32.3925C11.3842 32.3708 11.3907 32.3491 11.3975 32.3267C11.498 32.0421 11.7096 31.7825 11.9762 31.6413C12.3439 31.4718 12.7917 31.445 13.1776 31.5705C13.539 31.7142 13.7844 31.9553 13.9511 32.3046C14.1358 32.763 14.1588 33.2349 14.1582 33.7228C14.1582 33.7677 14.1582 33.8127 14.1583 33.8576C14.1584 33.9812 14.1583 34.1047 14.1583 34.2283C14.1582 34.3627 14.1583 34.4971 14.1584 34.6316C14.1585 34.8672 14.1585 35.1029 14.1585 35.3385C14.1585 35.5913 14.1585 35.8442 14.1586 36.097C14.1586 36.113 14.1586 36.129 14.1586 36.1454C14.1586 36.2269 14.1587 36.3084 14.1587 36.3899C14.1588 36.557 14.1588 36.7241 14.1589 36.8912C14.1589 36.9164 14.1589 36.9164 14.1589 36.9422C14.1589 37.204 14.159 37.4658 14.159 37.7277C14.159 37.7542 14.159 37.7542 14.159 37.7813C14.159 37.8531 14.1591 37.9249 14.1591 37.9968C14.1592 38.8761 14.1595 39.7554 14.1599 40.6348C14.16 40.8408 14.1601 41.0468 14.1602 41.2527C14.1602 41.2905 14.1603 41.3282 14.1603 41.3659C14.1603 41.4416 14.1603 41.5173 14.1604 41.593C14.1604 41.669 14.1604 41.745 14.1605 41.821C14.1609 42.6975 14.1613 43.5739 14.1616 44.4504C14.1616 44.5098 14.1617 44.5692 14.1617 44.6286C14.162 45.5425 14.1623 46.4563 14.1625 47.3701C14.1625 47.3898 14.1625 47.4094 14.1625 47.4296C14.1625 47.7459 14.1625 48.0622 14.1626 48.3785C14.1627 49.291 14.1629 50.2035 14.1634 51.1159C14.1634 51.1442 14.1634 51.1442 14.1634 51.1729C14.1636 51.5676 14.1638 51.9622 14.1641 52.3569C14.1642 52.5418 14.1643 52.7267 14.1644 52.9116C14.1644 52.9298 14.1644 52.948 14.1644 52.9667C14.1648 53.5505 14.1648 54.1342 14.1647 54.718C14.1646 55.3071 14.1648 55.8963 14.1653 56.4854C14.1654 56.5673 14.1655 56.6492 14.1656 56.7311C14.1656 56.7472 14.1656 56.7632 14.1656 56.7798C14.1658 57.0312 14.1657 57.2827 14.1655 57.5341C14.1653 57.783 14.1654 58.0318 14.1659 58.2807C14.1661 58.4132 14.1662 58.5456 14.1659 58.6781C14.1644 59.3457 14.1927 60.007 14.2452 60.6726C14.2479 60.7067 14.2479 60.7067 14.2507 60.7416C14.2598 60.8535 14.2713 60.9641 14.2887 61.075C14.3105 61.0512 14.3105 61.0512 14.3328 61.0269C14.5529 60.7865 14.774 60.547 14.9966 60.3089C15.0958 60.2027 15.1941 60.0957 15.2921 59.9885C15.3778 59.8951 15.4645 59.8027 15.5511 59.7102C15.6308 59.6249 15.71 59.5393 15.7887 59.4532C15.8806 59.3526 15.9733 59.2528 16.0665 59.1533C16.1805 59.0314 16.2937 58.9089 16.4063 58.7857C16.4701 58.7159 16.5342 58.6464 16.5984 58.577C16.615 58.559 16.615 58.559 16.632 58.5407C16.6769 58.492 16.7219 58.4433 16.7669 58.3946C16.9163 58.233 17.0654 58.0711 17.214 57.9087C17.2546 57.8644 17.2952 57.8201 17.3359 57.7758C17.3562 57.7536 17.3765 57.7315 17.3968 57.7093C17.4488 57.6526 17.5008 57.596 17.5529 57.5394C17.6826 57.3985 17.6826 57.3985 17.8095 57.2551C17.8787 57.1753 17.9502 57.0978 18.022 57.0204C18.1071 56.9286 18.1912 56.8362 18.2731 56.7416C18.3176 56.6905 18.3628 56.6402 18.4081 56.5899C18.4249 56.5713 18.4417 56.5526 18.4591 56.5333C18.4937 56.495 18.5285 56.4569 18.5634 56.4188C18.8716 56.0812 18.9629 55.8175 18.961 55.3566C18.961 55.3303 18.9611 55.3041 18.9612 55.277C18.9613 55.2045 18.9612 55.132 18.9611 55.0595C18.961 54.9801 18.9611 54.9008 18.9613 54.8214C18.9614 54.682 18.9614 54.5425 18.9613 54.4031C18.9612 54.1943 18.9613 53.9856 18.9615 53.7768C18.9618 53.421 18.9618 53.0652 18.9618 52.7093C18.9617 52.3488 18.9618 51.9882 18.9619 51.6276C18.9619 51.6048 18.9619 51.582 18.962 51.5586C18.962 51.4424 18.9621 51.3263 18.9621 51.2101C18.9625 50.3952 18.9627 49.5803 18.9628 48.7654C18.9629 47.9067 18.9631 47.0479 18.9634 46.1892C18.9634 46.1633 18.9635 46.1374 18.9635 46.1108C18.9636 45.8217 18.9637 45.5326 18.9638 45.2435C18.9641 44.7087 18.9643 44.174 18.9645 43.6393C18.9645 43.6125 18.9645 43.5857 18.9645 43.5582C18.965 42.2847 18.9654 41.0111 18.9657 39.7376C18.9657 39.6531 18.9658 39.5686 18.9658 39.4841C18.966 38.6357 18.9662 37.7872 18.9665 36.9387C18.9667 36.0625 18.9669 35.1862 18.9671 34.31C18.9672 34.2256 18.9672 34.1411 18.9672 34.0567C18.9675 32.7847 18.9679 31.5128 18.9684 30.2409C18.9684 30.2141 18.9684 30.1874 18.9685 30.1598C18.9687 29.6256 18.9689 29.0913 18.9691 28.5571C18.9692 28.2681 18.9694 27.9792 18.9695 27.6903C18.9695 27.6644 18.9695 27.6386 18.9695 27.6119C18.9699 26.7537 18.97 25.8955 18.9701 25.0374C18.9702 24.2246 18.9704 23.4118 18.9708 22.5991C18.9709 22.4832 18.9709 22.3672 18.971 22.2513C18.971 22.2286 18.971 22.2059 18.971 22.1825C18.9712 21.823 18.9712 21.4635 18.9711 21.104C18.9711 20.7503 18.9712 20.3966 18.9715 20.043C18.9716 19.8358 18.9717 19.6285 18.9715 19.4213C18.9714 19.2835 18.9715 19.1456 18.9717 19.0078C18.9718 18.9298 18.9719 18.8518 18.9717 18.7738C18.9693 17.2039 18.9693 17.2039 19.422 16.7293C19.4363 16.7142 19.4506 16.699 19.4653 16.6833C20.0475 16.1174 21.0666 16.2148 21.8109 16.2155C21.9035 16.2155 21.996 16.2154 22.0886 16.2154C22.2511 16.2153 22.4136 16.2153 22.576 16.2153C22.8193 16.2154 23.0626 16.2153 23.3058 16.2152C23.7205 16.2151 24.1352 16.2151 24.5498 16.2151C24.97 16.2151 25.3901 16.2151 25.8102 16.215C25.85 16.215 25.85 16.215 25.8907 16.215C25.9988 16.215 26.107 16.215 26.2151 16.2149C27.3277 16.2147 28.4404 16.2147 29.553 16.2146C29.6743 16.2146 29.7956 16.2146 29.9169 16.2146C29.9473 16.2146 29.9777 16.2146 30.0081 16.2146C30.6908 16.2146 31.3736 16.2146 32.0563 16.2145C32.2087 16.2145 32.3612 16.2145 32.5136 16.2145C32.5287 16.2145 32.5438 16.2145 32.5594 16.2145C32.6513 16.2145 32.7431 16.2145 32.835 16.2145C32.881 16.2145 32.927 16.2144 32.973 16.2144C33.6884 16.2144 34.4038 16.2143 35.1192 16.2143C35.1348 16.2143 35.1504 16.2143 35.1664 16.2143C36.1595 16.2142 37.1525 16.2142 38.1456 16.2142C38.1944 16.2142 38.2432 16.2142 38.292 16.2142C38.635 16.2142 38.978 16.2142 39.321 16.2142C39.4193 16.2142 39.5176 16.2142 39.616 16.2142C39.698 16.2142 39.78 16.2142 39.862 16.2142C41.4113 16.2142 42.9606 16.2142 44.5098 16.214C44.5261 16.214 44.5424 16.214 44.5592 16.214C45.0689 16.2139 45.5785 16.2139 46.0881 16.2138C46.6111 16.2137 47.134 16.2136 47.657 16.2135C47.6731 16.2135 47.6892 16.2135 47.7058 16.2135C48.7145 16.2134 49.7232 16.2133 50.7318 16.2133C50.7474 16.2133 50.763 16.2133 50.7791 16.2133C51.4634 16.2133 52.1478 16.2133 52.8322 16.2133C53.1075 16.2133 53.3828 16.2133 53.6581 16.2133C53.7038 16.2133 53.7494 16.2133 53.7951 16.2133C54.493 16.2133 55.1909 16.2132 55.8888 16.2131C55.9039 16.2131 55.9189 16.2131 55.9344 16.2131C56.1763 16.2131 56.4183 16.213 56.6602 16.213C57.6522 16.2128 58.6443 16.2127 59.6363 16.2129C59.7713 16.2129 59.9064 16.2129 60.0414 16.2129C60.0679 16.2129 60.0944 16.2129 60.1216 16.2129C60.5406 16.213 60.9595 16.2129 61.3784 16.2127C61.7905 16.2126 62.2025 16.2126 62.6146 16.2127C62.8561 16.2128 63.0975 16.2128 63.339 16.2126C63.4996 16.2125 63.6602 16.2125 63.8207 16.2127C63.9116 16.2128 64.0025 16.2128 64.0934 16.2126C65.8555 16.2095 65.8555 16.2095 66.4156 16.741C66.7125 17.0622 66.7504 17.448 66.7371 17.865C66.716 18.2048 66.5789 18.4846 66.3326 18.7176C65.7853 19.1786 64.9872 19.158 64.3125 19.1566C64.2211 19.1564 64.1296 19.1566 64.0382 19.1567C63.8776 19.1568 63.7169 19.1567 63.5563 19.1566C63.3159 19.1564 63.0754 19.1564 62.8349 19.1565C62.4251 19.1566 62.0152 19.1565 61.6054 19.1563C61.1901 19.1561 60.7748 19.156 60.3596 19.1561C60.3202 19.1561 60.3202 19.1561 60.2801 19.1561C60.1463 19.1561 60.0125 19.1561 59.8787 19.1561C58.9105 19.1561 57.9424 19.156 56.9742 19.1557C56.7349 19.1557 56.4956 19.1556 56.2563 19.1555C56.2414 19.1555 56.2266 19.1555 56.2112 19.1555C55.5218 19.1553 54.8324 19.1553 54.143 19.1552C54.0979 19.1552 54.0528 19.1552 54.0077 19.1552C53.7357 19.1552 53.4637 19.1552 53.1917 19.1552C52.5156 19.1552 51.8396 19.1551 51.1635 19.1551C51.1481 19.1551 51.1327 19.1551 51.1168 19.1551C50.1202 19.155 49.1236 19.1549 48.127 19.1547C48.1111 19.1547 48.0952 19.1547 48.0788 19.1547C47.5946 19.1546 47.1103 19.1545 46.6261 19.1544C46.0902 19.1543 45.5543 19.1542 45.0185 19.1541C45.0023 19.1541 44.9862 19.1541 44.9696 19.1541C43.4551 19.1538 41.9407 19.1536 40.4262 19.1535C40.3282 19.1535 40.2301 19.1535 40.1321 19.1535C39.1105 19.1534 38.0889 19.1533 37.0673 19.1532C37.0236 19.1532 37.0236 19.1532 36.9789 19.1532C36.9258 19.1532 36.8727 19.1532 36.8196 19.1532C31.8722 19.1527 26.9249 19.1519 21.9776 19.151C21.9849 30.2219 21.9922 41.2928 21.9998 52.6991C22.1876 52.5128 22.1876 52.5128 22.3635 52.3189C22.4279 52.2445 22.496 52.1735 22.5637 52.102C22.6708 51.9884 22.7766 51.8739 22.8806 51.7574C22.9615 51.668 23.0441 51.5801 23.1265 51.4921C23.2279 51.3838 23.3284 51.2747 23.4285 51.1652C23.5259 51.0587 23.6239 50.9529 23.7218 50.8469C23.7548 50.8113 23.7877 50.7756 23.8205 50.7399C23.9523 50.597 24.0846 50.4546 24.2174 50.3126C24.3003 50.2239 24.3828 50.1349 24.4651 50.0456C25.0644 49.3955 25.0644 49.3955 25.3109 49.1888C25.3282 49.174 25.3282 49.174 25.3458 49.159C26.2835 48.3604 27.4204 47.8652 28.6678 47.9585C29.2842 48.0139 30.0129 48.2039 30.5181 48.5741C30.59 48.6189 30.6351 48.6215 30.7192 48.6223C31.3425 48.653 31.8266 49.033 32.3109 49.3888C32.3367 49.4077 32.3367 49.4077 32.3631 49.4271C32.4689 49.5047 32.5745 49.5827 32.6801 49.6607C32.7327 49.6995 32.7853 49.7382 32.838 49.7769C32.8729 49.8025 32.9079 49.8282 32.9428 49.8539C32.96 49.8665 32.9772 49.8792 32.9949 49.8921C33.0888 49.9613 33.1822 50.031 33.2752 50.1014C33.2951 50.1164 33.315 50.1314 33.3355 50.1469C33.3736 50.1757 33.4116 50.2046 33.4496 50.2336C33.5482 50.3083 33.6463 50.3744 33.7553 50.433C33.7715 50.4141 33.7877 50.3953 33.8043 50.3759C33.8994 50.2649 33.9946 50.1539 34.0897 50.0429C34.106 50.024 34.106 50.024 34.1226 50.0046C34.1446 49.9789 34.1666 49.9532 34.1887 49.9276C34.244 49.863 34.2993 49.7985 34.3546 49.7339C34.4813 49.5859 34.6085 49.4383 34.7363 49.2912C34.8507 49.1593 34.9644 49.0267 35.0779 48.8941C35.1444 48.8164 35.211 48.7387 35.2776 48.6611C35.3329 48.5966 35.3882 48.5321 35.4434 48.4675C35.5702 48.3195 35.6974 48.1719 35.8252 48.0247C35.906 47.9317 35.9863 47.8383 36.0665 47.7447C36.1707 47.6229 36.2755 47.5017 36.3806 47.3807C36.4634 47.2853 36.5456 47.1895 36.6276 47.0934C36.7192 46.9861 36.8129 46.8808 36.9079 46.7764C36.9576 46.7201 37.0044 46.662 37.0512 46.6033C37.3363 46.2541 37.6765 45.9514 38.1401 45.8826C38.1671 45.8812 38.1941 45.8798 38.222 45.8784C38.2435 45.8767 38.2435 45.8767 38.2654 45.875C38.6924 45.8553 39.0966 46.0517 39.41 46.3262C39.6556 46.5579 39.7819 46.8536 39.8043 47.1904C39.8125 47.7641 39.6027 48.1516 39.2313 48.5748C39.1867 48.6262 39.1439 48.679 39.1012 48.732C38.9866 48.8729 38.867 49.0094 38.7478 49.1464C38.6098 49.3051 38.4725 49.4642 38.3401 49.6276C38.2611 49.7249 38.1783 49.8179 38.0939 49.9106C38.0442 49.9664 37.9968 50.0236 37.9498 50.0817C37.8339 50.2247 37.7128 50.3631 37.5919 50.5019C37.5345 50.568 37.4776 50.6345 37.4206 50.701C37.4097 50.7137 37.3988 50.7264 37.3876 50.7396C37.3656 50.7652 37.3436 50.7909 37.3216 50.8166C37.2663 50.8813 37.2108 50.9459 37.1553 51.0106C37.1331 51.0365 37.1109 51.0625 37.0887 51.0884C36.9553 51.2439 36.822 51.3994 36.6887 51.5549C36.6777 51.5678 36.6667 51.5806 36.6553 51.5938C36.6332 51.6197 36.611 51.6455 36.5888 51.6714C36.5323 51.7372 36.4759 51.8031 36.4197 51.8691C36.3203 51.9855 36.2208 52.1014 36.1178 52.2145C36.0509 52.2881 35.9872 52.3634 35.9248 52.4409C35.8429 52.5421 35.7568 52.6379 35.6682 52.7331C35.6035 52.803 35.5424 52.8746 35.4831 52.9491C35.3465 53.1187 35.1953 53.2755 35.0442 53.4323C35.0247 53.4528 35.0247 53.4528 35.0048 53.4736C34.7508 53.7352 34.4317 53.919 34.0618 53.9318C33.7982 53.9335 33.5806 53.8804 33.3414 53.7711C33.3263 53.7642 33.3112 53.7573 33.2956 53.7502C33.1651 53.6875 33.0498 53.6064 32.9331 53.5212C32.7043 53.8983 32.4891 54.2805 32.2837 54.6709C32.2185 54.7947 32.1518 54.9176 32.0845 55.0403C32.0631 55.0793 32.0417 55.1184 32.0204 55.1574C32.0045 55.1864 32.0045 55.1864 31.9883 55.216C31.9289 55.3248 31.8699 55.4339 31.8109 55.5429C31.7166 55.7171 31.6222 55.8911 31.5276 56.0651C31.5176 56.0833 31.5077 56.1016 31.4975 56.1204C31.4 56.2993 31.2997 56.4762 31.1998 56.6538C43.5345 56.6538 55.8691 56.6538 68.5776 56.6538C68.4162 56.2432 68.2549 55.8327 68.0887 55.4096C67.9589 55.0789 67.8292 54.7481 67.6995 54.4174C67.6335 54.2492 67.5676 54.0811 67.5016 53.913C67.4547 53.7937 67.4079 53.6744 67.3612 53.555C67.2809 53.3497 67.2004 53.1446 67.1185 52.9399C67.0845 52.8548 67.0506 52.7695 67.0168 52.6843C67.001 52.6446 66.9851 52.6049 66.969 52.5653C66.9472 52.5113 66.9257 52.4571 66.9042 52.4028C66.8945 52.3792 66.8945 52.3792 66.8846 52.3551C66.8609 52.2944 66.8445 52.2401 66.8419 52.1747C66.8692 52.1154 66.896 52.0928 66.9458 52.0515C66.96 52.0396 66.9742 52.0277 66.9888 52.0155C66.9998 52.0065 67.0107 51.9975 67.022 51.9882C67.0034 51.9882 66.9847 51.9882 66.9655 51.9881C64.9974 51.9868 63.0293 51.9855 60.8783 51.9837C60.8477 51.9837 60.8171 51.9837 60.7865 51.9836C60.1438 51.9831 59.5012 51.9825 58.8586 51.982C58.5358 51.9817 58.213 51.9814 57.8902 51.9812C57.8415 51.9811 57.7928 51.9811 57.7441 51.981C56.9944 51.9804 56.2448 51.9798 55.4951 51.9793C55.479 51.9793 55.4629 51.9793 55.4463 51.9793C55.1865 51.9791 54.9267 51.9789 54.6669 51.9788C53.9185 51.9783 53.17 51.9778 52.4216 51.9771C52.3985 51.9771 52.3985 51.9771 52.3749 51.9771C52.0369 51.9768 51.6988 51.9765 51.3608 51.9762C51.2248 51.976 51.0888 51.9759 50.9527 51.9758C50.9378 51.9758 50.9229 51.9757 50.9076 51.9757C50.4283 51.9753 49.9489 51.975 49.4696 51.9748C48.9731 51.9745 48.4766 51.9741 47.9802 51.9735C47.694 51.9732 47.4078 51.973 47.1216 51.973C46.9304 51.9729 46.7392 51.9727 46.5479 51.9724C46.439 51.9722 46.3301 51.9721 46.2212 51.9722C46.1219 51.9723 46.0227 51.9722 45.9234 51.9719C45.8879 51.9718 45.8524 51.9718 45.8168 51.9719C45.3214 51.973 44.7956 51.9225 44.4169 51.5646C44.116 51.2359 44.0123 50.8224 44.0175 50.3869C44.0358 50.0334 44.1684 49.7024 44.4255 49.4561C44.7952 49.1256 45.263 49.0261 45.7453 49.0275C45.7801 49.0275 45.8148 49.0274 45.8496 49.0273C45.9449 49.0271 46.0402 49.0271 46.1356 49.0272C46.2393 49.0273 46.3431 49.0271 46.4469 49.0269C46.6289 49.0266 46.8108 49.0265 46.9927 49.0266C47.2634 49.0266 47.534 49.0263 47.8046 49.0261C48.2604 49.0256 48.7162 49.0253 49.172 49.0251C49.6247 49.025 50.0774 49.0247 50.5301 49.0243C50.5724 49.0243 50.5724 49.0243 50.6156 49.0243C50.7589 49.0241 50.9022 49.024 51.0455 49.0239C52.0463 49.023 53.0471 49.0223 54.048 49.0217C54.1094 49.0216 54.1709 49.0216 54.2323 49.0216C54.2784 49.0215 54.3246 49.0215 54.3707 49.0215C54.5092 49.0214 54.6478 49.0213 54.7864 49.0212C54.8172 49.0212 54.848 49.0212 54.8788 49.0212C55.584 49.0208 56.2891 49.0203 56.9943 49.0198C57.0399 49.0198 57.0856 49.0198 57.1312 49.0197C57.8215 49.0192 58.5117 49.0187 59.202 49.0182C59.2458 49.0181 59.2458 49.0181 59.2905 49.0181C59.5535 49.0179 59.8164 49.0177 60.0794 49.0175C60.7309 49.0169 61.3824 49.0164 62.0339 49.0161C62.4894 49.0159 62.9449 49.0156 63.4003 49.0152C63.6459 49.0151 63.8914 49.0149 64.137 49.0148C64.7056 49.0147 65.2743 49.0138 65.8429 49.0116C65.9354 49.0112 66.0278 49.0109 66.1203 49.0106C66.389 49.0098 66.6578 49.0086 66.9265 49.0067C67.0426 49.0059 67.1586 49.0052 67.2747 49.0048C67.3824 49.0045 67.4902 49.0038 67.598 49.0027C67.6371 49.0024 67.6762 49.0022 67.7153 49.0022C68.328 49.0018 68.8638 48.8171 69.3985 48.5284C70.0292 48.1887 70.7254 47.9878 71.4442 47.9668C71.4675 47.966 71.4908 47.9651 71.5148 47.9642C72.2125 47.9502 72.9073 48.105 73.5331 48.4112C73.5491 48.419 73.565 48.4267 73.5815 48.4347C74.1958 48.7373 74.7383 49.1987 75.1804 49.72C75.2473 49.7947 75.3194 49.8642 75.3907 49.9347C75.4662 50.0096 75.5373 50.0869 75.6063 50.168C75.6662 50.2356 75.7312 50.2979 75.7954 50.3613C75.854 50.4207 75.9082 50.483 75.9625 50.5463C76.0114 50.6016 76.0638 50.6527 76.1164 50.7044C76.171 50.76 76.2212 50.819 76.272 50.878C76.3209 50.933 76.373 50.9841 76.4254 51.0356C76.4651 51.0759 76.5022 51.1175 76.5391 51.1603C76.6179 51.2509 76.6993 51.3386 76.7817 51.4258C76.8111 51.457 76.8405 51.4882 76.8698 51.5194C76.8843 51.5348 76.8987 51.5501 76.9136 51.5659C77.0685 51.7312 77.2214 51.8985 77.3744 52.0655C77.4493 52.1473 77.5245 52.2289 77.5998 52.3103C77.6953 52.4136 77.7905 52.5172 77.8855 52.6209C77.9604 52.7027 78.0356 52.7843 78.1109 52.8658C78.2473 53.0133 78.3831 53.1614 78.5188 53.3097C78.6456 53.4482 78.7727 53.5864 78.9002 53.7243C78.9944 53.8263 79.0882 53.9286 79.182 54.031C79.2259 54.0789 79.2699 54.1266 79.3141 54.1742C79.3258 54.1869 79.3376 54.1996 79.3497 54.2126C79.372 54.2367 79.3944 54.2608 79.4168 54.2848C79.495 54.3692 79.5692 54.4556 79.6442 54.5432C79.6516 42.8638 79.6589 31.1844 79.6664 19.151C76.8358 19.151 74.0051 19.151 71.0887 19.151C70.6086 19.0825 70.2323 18.9782 69.9109 18.5956C69.6586 18.2454 69.6013 17.8191 69.6553 17.3989C69.7073 17.1346 69.7972 16.9089 69.9776 16.7071C69.9897 16.6932 70.0018 16.6793 70.0143 16.665C70.2807 16.3779 70.6817 16.2639 71.0612 16.234C71.147 16.2309 71.2326 16.2297 71.3184 16.2293C71.3518 16.2289 71.3852 16.2285 71.4186 16.2281C71.5107 16.227 71.6028 16.2264 71.695 16.2259C71.7758 16.2253 71.8565 16.2246 71.9373 16.2238C73.1438 16.2129 74.3504 16.215 75.5569 16.2155C75.8094 16.2156 76.0619 16.2156 76.3145 16.2155C78.8675 16.2145 78.8675 16.2145 80.1166 16.2262C80.1822 16.2268 80.2477 16.2274 80.3132 16.2279C80.4137 16.2287 80.5141 16.2297 80.6145 16.2309C80.6503 16.2313 80.6861 16.2316 80.7219 16.2318C81.254 16.2358 81.7513 16.321 82.15 16.7006C82.5534 17.1137 82.6745 17.6781 82.6719 18.2401C82.672 18.2676 82.672 18.2951 82.6721 18.3234C82.6722 18.3992 82.6721 18.4749 82.6719 18.5507C82.6717 18.6336 82.6718 18.7166 82.6719 18.7995C82.672 18.9453 82.6719 19.091 82.6717 19.2368C82.6715 19.455 82.6715 19.6732 82.6715 19.8914C82.6716 20.2633 82.6714 20.6352 82.6711 21.0071C82.6709 21.384 82.6707 21.7609 82.6707 22.1378C82.6707 22.1735 82.6707 22.1735 82.6706 22.2099C82.6706 22.3313 82.6706 22.4527 82.6706 22.5741C82.6705 23.4258 82.6702 24.2775 82.6698 25.1292C82.6694 26.0266 82.6691 26.924 82.6689 27.8214C82.6689 27.8485 82.6689 27.8755 82.6689 27.9034C82.6689 28.2055 82.6688 28.5076 82.6688 28.8097C82.6687 29.3684 82.6686 29.9272 82.6685 30.4859C82.6685 30.5139 82.6685 30.5419 82.6684 30.5707C82.6682 31.9013 82.6678 33.232 82.6674 34.5626C82.6674 34.6509 82.6673 34.7392 82.6673 34.8275C82.667 35.7437 82.6667 36.6599 82.6664 37.5761C82.6661 38.4624 82.6658 39.3487 82.6656 40.235C82.6655 40.3232 82.6655 40.4115 82.6655 40.4997C82.6651 41.8291 82.6647 43.1584 82.6644 44.4877C82.6644 44.5157 82.6644 44.5436 82.6644 44.5724C82.6643 45.1306 82.6642 45.6887 82.6641 46.2469C82.6641 46.5488 82.664 46.8506 82.664 47.1525C82.664 47.193 82.6639 47.193 82.6639 47.2343C82.6638 48.1313 82.6634 49.0283 82.663 49.9253C82.6626 50.7746 82.6624 51.6238 82.6623 52.4731C82.6623 52.5942 82.6622 52.7152 82.6622 52.8363C82.6622 52.86 82.6622 52.8837 82.6622 52.9082C82.6622 53.284 82.662 53.6599 82.6617 54.0357C82.6614 54.4052 82.6613 54.7747 82.6614 55.1443C82.6614 55.3609 82.6613 55.5776 82.6611 55.7942C82.6609 55.9382 82.6609 56.0821 82.661 56.2261C82.6611 56.3076 82.6611 56.3892 82.6609 56.4707C82.6589 57.3333 82.7817 58.0101 83.4116 58.6433C83.4972 58.7289 83.5829 58.8146 83.6691 58.8996C83.7725 59.002 83.8727 59.1053 83.9673 59.2158C84.0092 59.2641 84.0539 59.3087 84.0998 59.3532C84.1756 59.4267 84.2448 59.5043 84.314 59.584C84.3806 59.6596 84.4499 59.7327 84.5192 59.8059C84.6277 59.921 84.7351 60.0368 84.8404 60.1548C84.8968 60.2176 84.9538 60.2798 85.0109 60.3419C85.0854 60.423 85.1596 60.5043 85.2331 60.5863C85.3095 60.6714 85.3864 60.756 85.4637 60.8404C85.474 60.8517 85.4843 60.863 85.495 60.8746C85.5437 60.9277 85.593 60.9799 85.6442 61.0306C85.7823 60.0913 85.7968 59.1657 85.7944 58.2183C85.7939 57.9953 85.7942 57.7723 85.7944 57.5492C85.7949 57.1327 85.7948 56.7161 85.7943 56.2996C85.7939 55.8783 85.7937 55.457 85.7939 55.0357C85.7939 55.009 85.7939 54.9822 85.7939 54.9547C85.7939 54.8183 85.794 54.6818 85.7941 54.5454C85.7945 53.5614 85.7943 52.5774 85.7937 51.5934C85.7935 51.3508 85.7934 51.1082 85.7933 50.8656C85.7933 50.843 85.7933 50.843 85.7932 50.8199C85.7929 50.119 85.7928 49.4182 85.7928 48.7173C85.7928 48.6714 85.7928 48.6255 85.7928 48.5795C85.7928 48.3026 85.7928 48.0256 85.7928 47.7486C85.7928 47.0602 85.7928 46.3718 85.7928 45.6835C85.7927 45.6678 85.7927 45.6521 85.7927 45.636C85.7927 44.6225 85.7924 43.609 85.792 42.5954C85.792 42.5793 85.7919 42.5631 85.7919 42.5465C85.7917 42.0216 85.7915 41.4967 85.7913 40.9719C85.791 40.4604 85.7908 39.949 85.7906 39.4376C85.7906 39.4212 85.7906 39.4048 85.7906 39.388C85.7899 37.8323 85.7899 36.2767 85.7899 34.721C85.7899 34.6386 85.7899 34.5562 85.7899 34.4738C85.7899 34.3751 85.7899 34.2763 85.7899 34.1775C85.7899 33.833 85.7899 33.4885 85.7899 33.144C85.7899 33.0949 85.7899 33.0459 85.7899 32.9969C85.79 31.9996 85.7899 31.0023 85.7897 30.0049C85.7897 29.9893 85.7897 29.9736 85.7897 29.9575C85.7896 29.2391 85.7894 28.5206 85.7893 27.8022C85.7893 27.756 85.7892 27.7098 85.7892 27.6635C85.7892 27.5713 85.7892 27.4791 85.7892 27.3868C85.7892 27.3716 85.7892 27.3564 85.7891 27.3408C85.7891 27.1877 85.7891 27.0346 85.789 26.8815C85.7889 26.1959 85.7887 25.5102 85.7887 24.8245C85.7887 24.794 85.7887 24.7635 85.7887 24.733C85.7887 24.6113 85.7887 24.4896 85.7887 24.3679C85.7887 23.239 85.7884 22.11 85.7877 20.9811C85.7877 20.8729 85.7876 20.7646 85.7875 20.6564C85.7875 20.6166 85.7875 20.6166 85.7875 20.5759C85.7873 20.1555 85.7872 19.7351 85.7873 19.3146C85.7874 18.9012 85.7872 18.4877 85.7868 18.0742C85.7865 17.8319 85.7865 17.5896 85.7867 17.3473C85.7868 17.1862 85.7867 17.0251 85.7864 16.864C85.7862 16.7728 85.7861 16.6816 85.7863 16.5904C85.7886 15.6003 85.6469 14.6491 84.9401 13.905C84.7026 13.6768 84.4346 13.505 84.1331 13.3745C84.1173 13.3677 84.1015 13.3608 84.0853 13.3537C83.6705 13.1778 83.2082 13.0816 82.7572 13.0829C82.7286 13.0829 82.7286 13.0829 82.6995 13.0828C82.6358 13.0827 82.572 13.0828 82.5083 13.0829C82.4618 13.0828 82.4154 13.0828 82.369 13.0828C82.2407 13.0827 82.1125 13.0827 81.9842 13.0828C81.8444 13.0828 81.7046 13.0827 81.5648 13.0827C81.3186 13.0825 81.0724 13.0825 80.8262 13.0826C80.5606 13.0826 80.295 13.0826 80.0294 13.0825C80.0126 13.0825 79.9958 13.0825 79.9784 13.0825C79.8925 13.0825 79.8065 13.0824 79.7206 13.0824C79.0926 13.0822 78.4645 13.0822 77.8365 13.0822C77.1997 13.0822 76.563 13.0821 75.9263 13.082C75.8857 13.082 75.8451 13.082 75.8045 13.082C75.6409 13.0819 75.4773 13.0819 75.3137 13.0819C73.5136 13.0815 71.7136 13.0814 69.9135 13.0813C69.8907 13.0813 69.868 13.0813 69.8445 13.0813C69.7293 13.0813 69.6141 13.0813 69.499 13.0813C68.5341 13.0812 67.5692 13.0811 66.6043 13.081C66.1422 13.081 65.6802 13.081 65.2182 13.0809C65.1952 13.0809 65.1722 13.0809 65.1485 13.0809C64.0425 13.0808 62.9366 13.0807 61.8306 13.0806C61.807 13.0806 61.7834 13.0806 61.7591 13.0806C60.2555 13.0805 58.7519 13.0805 57.2482 13.0804C57.125 13.0804 57.0017 13.0804 56.8784 13.0804C56.6807 13.0804 56.4831 13.0804 56.2854 13.0804C56.2609 13.0804 56.2364 13.0804 56.2112 13.0804C56.1617 13.0804 56.1122 13.0804 56.0627 13.0804C55.7155 13.0804 55.3682 13.0804 55.021 13.0804C54.8967 13.0804 54.7725 13.0804 54.6482 13.0804C52.3015 13.0803 49.9548 13.0802 47.6081 13.0798C47.5834 13.0798 47.5587 13.0798 47.5332 13.0798C46.7614 13.0797 45.9895 13.0796 45.2177 13.0795C44.4257 13.0793 43.6337 13.0792 42.8417 13.0791C42.8051 13.0791 42.8051 13.0791 42.7678 13.0791C41.2406 13.0788 39.7134 13.0787 38.1863 13.0786C38.1627 13.0786 38.1391 13.0786 38.1148 13.0786C37.0789 13.0786 36.043 13.0785 35.0072 13.0785C34.5904 13.0785 34.1737 13.0785 33.7569 13.0785C33.6878 13.0785 33.6188 13.0785 33.5497 13.0785C32.4927 13.0785 31.4358 13.0784 30.3788 13.0782C30.3561 13.0782 30.3333 13.0782 30.3098 13.0782C29.9431 13.0781 29.5764 13.0781 29.2098 13.078C28.1688 13.0777 27.1279 13.0775 26.087 13.0776C26.0659 13.0776 26.0447 13.0776 26.023 13.0776C25.5621 13.0776 25.1013 13.0776 24.6404 13.0777C24.4566 13.0777 24.2728 13.0777 24.089 13.0778C24.059 13.0778 24.059 13.0778 24.0283 13.0778C23.3925 13.0778 22.7567 13.0777 22.1209 13.0774C21.4948 13.0772 20.8687 13.0771 20.2425 13.0774C20.1567 13.0774 20.0709 13.0775 19.9851 13.0775C19.9683 13.0775 19.9515 13.0775 19.9342 13.0775C19.6696 13.0776 19.4051 13.0775 19.1405 13.0772C18.8815 13.077 18.6225 13.077 18.3634 13.0773C18.2256 13.0774 18.0878 13.0774 17.95 13.0772C17.8247 13.0769 17.6995 13.077 17.5742 13.0773C17.5295 13.0774 17.4848 13.0773 17.4401 13.0771C16.5399 13.0738 15.6616 13.2917 14.9956 13.9244C14.6002 14.3357 14.3795 14.8602 14.2595 15.4116C14.2562 15.4266 14.253 15.4415 14.2496 15.457C14.1824 15.7946 14.171 16.1336 14.1717 16.4766C14.1716 16.5216 14.1715 16.5665 14.1714 16.6114C14.1711 16.7337 14.1711 16.856 14.1712 16.9783C14.1712 17.1107 14.1709 17.243 14.1707 17.3754C14.1704 17.6044 14.1702 17.8335 14.1701 18.0625C14.17 18.3942 14.1696 18.7259 14.1691 19.0575C14.1688 19.2124 14.1686 19.3673 14.1684 19.5222C14.1684 19.5377 14.1684 19.5532 14.1684 19.5692C14.1679 19.9375 14.1675 20.3058 14.1672 20.6741C14.1671 20.6902 14.1671 20.7063 14.1671 20.7229C14.1669 20.9678 14.1667 21.2126 14.1665 21.4575C14.1662 21.7185 14.166 21.9794 14.1657 22.2404C14.1657 22.2565 14.1657 22.2726 14.1657 22.2892C14.1654 22.6568 14.165 23.0244 14.1645 23.3919C14.1645 23.4074 14.1644 23.4229 14.1644 23.4388C14.1642 23.5934 14.164 23.748 14.1638 23.9026C14.1632 24.2485 14.1629 24.5945 14.1628 24.9404C14.1627 25.1671 14.1624 25.3938 14.162 25.6205C14.1618 25.7511 14.1617 25.8817 14.1618 26.0123C14.1618 26.1321 14.1617 26.252 14.1613 26.3718C14.1613 26.4149 14.1613 26.4579 14.1613 26.501C14.1624 27.1248 14.1278 27.7861 13.6665 28.2601C13.3756 28.5302 12.9972 28.6112 12.6116 28.5997C12.2228 28.5799 11.826 28.4561 11.5498 28.1699C11.2556 27.8135 11.2342 27.4088 11.233 26.9685C11.2326 26.921 11.2322 26.8734 11.2318 26.8259C11.2308 26.6954 11.2301 26.5649 11.2296 26.4344C11.2291 26.3218 11.2283 26.2091 11.2276 26.0965C11.2249 25.6846 11.2233 25.2727 11.222 24.8609C11.222 24.8441 11.2219 24.8273 11.2218 24.8099C11.2189 23.8766 11.2179 22.9432 11.2179 22.0099C11.2179 21.9909 11.2179 21.972 11.2179 21.9525C11.2179 21.9335 11.2179 21.9146 11.2179 21.8951C11.2179 21.8761 11.2179 21.8572 11.2179 21.8376C11.2179 21.7993 11.2179 21.7609 11.2179 21.7226C11.2179 21.4329 11.2177 21.1431 11.2174 20.8534C11.2142 17.5418 11.2142 17.5418 11.2636 16.0587C11.2665 15.9728 11.2692 15.8869 11.2718 15.801C11.2735 15.7468 11.2752 15.6925 11.2769 15.6382C11.278 15.6023 11.278 15.6023 11.2792 15.5656C11.3274 14.0554 11.8741 12.7907 12.972 11.738C13.7521 11.0081 14.7462 10.4966 15.7845 10.2586C15.8068 10.2534 15.8292 10.2482 15.8522 10.2428C16.269 10.1522 16.6889 10.1208 17.1145 10.1225ZM29.6442 59.7642C29.628 59.7704 29.6117 59.7765 29.5949 59.7828C29.3935 59.8707 29.2942 60.0632 29.1859 60.2447C29.1724 60.2671 29.1589 60.2896 29.1449 60.3127C28.8292 60.8394 28.5385 61.3795 28.2512 61.9221C28.1428 62.1269 28.0327 62.3307 27.9198 62.5331C27.9047 62.5605 27.9047 62.5605 27.8893 62.5884C27.8805 62.6041 27.8717 62.6199 27.8627 62.6361C27.841 62.6742 27.841 62.6742 27.8442 62.7191C42.4302 62.7191 57.0162 62.7191 72.0442 62.7191C72.0288 62.6422 72.0183 62.592 71.9877 62.5241C71.9807 62.5083 71.9737 62.4926 71.9664 62.4764C71.9588 62.4596 71.9511 62.4428 71.9433 62.4254C71.9353 62.4076 71.9273 62.3898 71.919 62.3714C71.8928 62.3132 71.8665 62.2551 71.8401 62.197C71.8311 62.1772 71.8221 62.1573 71.8128 62.1368C71.4142 61.2184 71.4142 61.2184 70.8664 60.3863C70.8454 60.3598 70.8454 60.3598 70.8239 60.3328C70.4695 59.9077 69.9514 59.7497 69.4192 59.692C69.0115 59.6551 68.6051 59.6499 68.1959 59.6502C68.1142 59.6503 68.0326 59.6502 67.951 59.6502C67.8077 59.6501 67.6645 59.6501 67.5212 59.6501C67.3068 59.6502 67.0923 59.6501 66.8778 59.65C66.5122 59.6499 66.1467 59.6499 65.7811 59.6499C65.4107 59.6499 65.0404 59.6499 64.67 59.6498C64.6349 59.6498 64.6349 59.6498 64.5991 59.6498C64.5037 59.6498 64.4083 59.6498 64.313 59.6497C63.3187 59.6495 62.3245 59.6494 61.3302 59.6494C61.2232 59.6494 61.1163 59.6494 61.0093 59.6494C60.9827 59.6494 60.9562 59.6494 60.9288 59.6494C60.3403 59.6494 59.7519 59.6494 59.1634 59.6493C58.921 59.6493 58.6786 59.6493 58.4362 59.6492C58.396 59.6492 58.396 59.6492 58.3551 59.6492C56.8206 59.6491 55.2861 59.649 53.7517 59.649C53.6943 59.649 53.6369 59.649 53.5795 59.649C53.3202 59.649 53.061 59.649 52.8018 59.649C52.6863 59.649 52.5707 59.649 52.4551 59.649C52.3972 59.649 52.3394 59.649 52.2815 59.649C50.4519 59.649 48.6222 59.6489 46.7926 59.6486C46.3315 59.6485 45.8705 59.6484 45.4094 59.6483C45.381 59.6483 45.3526 59.6483 45.3234 59.6483C44.4484 59.6482 43.5734 59.6481 42.6984 59.6481C42.6709 59.6481 42.6435 59.6481 42.6152 59.6481C42.0121 59.6481 41.4091 59.648 40.8061 59.6481C40.5903 59.6481 40.3745 59.6481 40.1587 59.6481C40.1051 59.6481 40.0514 59.6481 39.9977 59.6481C39.1425 59.6481 38.2872 59.6479 37.432 59.6477C36.5707 59.6476 35.7094 59.6475 34.8481 59.6477C34.729 59.6477 34.61 59.6477 34.4909 59.6477C34.4676 59.6477 34.4443 59.6477 34.4202 59.6477C34.0509 59.6478 33.6816 59.6477 33.3123 59.6475C32.949 59.6474 32.5858 59.6474 32.2225 59.6475C32.0096 59.6476 31.7968 59.6476 31.5839 59.6474C31.4423 59.6473 31.3008 59.6473 31.1592 59.6475C31.0791 59.6476 30.9989 59.6476 30.9188 59.6474C30.2719 59.6311 30.2719 59.6311 29.6442 59.7642Z" fill="white"/>
<path d="M45.9115 37.5191C45.9585 37.5191 46.0054 37.519 46.0524 37.5189C46.1811 37.5187 46.3099 37.5188 46.4387 37.519C46.5789 37.5191 46.7191 37.5189 46.8593 37.5188C47.1049 37.5187 47.3505 37.5187 47.5961 37.5188C47.8596 37.5189 48.123 37.5189 48.3865 37.5188C48.4115 37.5188 48.4115 37.5188 48.437 37.5188C48.5049 37.5188 48.5727 37.5188 48.6406 37.5188C49.2722 37.5185 49.9038 37.5185 50.5354 37.5186C50.5635 37.5186 50.5635 37.5186 50.5921 37.5186C50.6108 37.5186 50.6296 37.5187 50.6489 37.5187C51.2197 37.5188 51.7906 37.5188 52.3615 37.5187C52.3997 37.5187 52.4379 37.5187 52.4762 37.5187C52.6298 37.5187 52.7835 37.5187 52.9371 37.5187C53.3666 37.5186 53.7962 37.5186 54.2257 37.5186C54.255 37.5186 54.255 37.5186 54.285 37.5186C54.9081 37.5186 55.5313 37.5186 56.1545 37.5187C56.1848 37.5187 56.1848 37.5187 56.2157 37.5187C56.5439 37.5188 56.8722 37.5189 57.2004 37.5189C58.502 37.5191 59.8037 37.5191 61.1054 37.5189C61.4334 37.5188 61.7615 37.5188 62.0895 37.5187C62.1097 37.5187 62.1299 37.5187 62.1507 37.5187C62.7733 37.5186 63.3958 37.5186 64.0183 37.5186C64.0379 37.5186 64.0574 37.5186 64.0776 37.5186C64.5066 37.5186 64.9356 37.5187 65.3647 37.5187C65.5182 37.5187 65.6717 37.5187 65.8252 37.5187C65.8634 37.5187 65.9016 37.5187 65.9398 37.5187C66.5105 37.5188 67.0812 37.5188 67.6519 37.5186C67.6706 37.5186 67.6893 37.5186 67.7086 37.5186C67.7273 37.5186 67.7459 37.5186 67.7652 37.5186C68.395 37.5185 69.0248 37.5185 69.6546 37.5188C69.7222 37.5188 69.7899 37.5188 69.8575 37.5188C69.8741 37.5189 69.8907 37.5189 69.9078 37.5189C70.1706 37.519 70.4333 37.5189 70.696 37.5188C70.9544 37.5187 71.2129 37.5187 71.4713 37.5189C71.6095 37.519 71.7477 37.519 71.8859 37.5189C72.0117 37.5187 72.1375 37.5188 72.2633 37.519C72.3084 37.5191 72.3536 37.519 72.3988 37.5189C72.9248 37.5177 73.4603 37.5616 73.865 37.9409C74.1899 38.2971 74.2447 38.7377 74.2257 39.2C74.2044 39.536 74.0583 39.8016 73.822 40.0352C73.8043 40.054 73.8043 40.054 73.7863 40.0732C73.361 40.4875 72.6099 40.4644 72.0619 40.463C72.0159 40.463 71.9699 40.4631 71.9239 40.4632C71.7982 40.4633 71.6725 40.4632 71.5469 40.4631C71.4098 40.463 71.2728 40.4631 71.1358 40.4632C70.896 40.4634 70.6561 40.4634 70.4162 40.4633C70.159 40.4631 69.9018 40.4631 69.6446 40.4632C69.6283 40.4632 69.612 40.4632 69.5952 40.4632C69.5289 40.4632 69.4625 40.4633 69.3962 40.4633C68.7793 40.4635 68.1623 40.4636 67.5454 40.4634C67.5271 40.4634 67.5089 40.4634 67.49 40.4634C67.4626 40.4634 67.4626 40.4634 67.4346 40.4634C66.877 40.4633 66.3194 40.4633 65.7619 40.4633C65.7245 40.4633 65.6871 40.4633 65.6497 40.4633C65.4996 40.4633 65.3494 40.4634 65.1992 40.4634C64.7794 40.4634 64.3597 40.4634 63.9399 40.4634C63.9112 40.4634 63.9112 40.4634 63.882 40.4634C63.2731 40.4635 62.6642 40.4634 62.0553 40.4633C62.0257 40.4633 62.0257 40.4633 61.9955 40.4633C61.6749 40.4633 61.3543 40.4632 61.0337 40.4632C59.7623 40.4629 58.4909 40.4629 57.2196 40.4632C56.8992 40.4632 56.5787 40.4633 56.2583 40.4633C56.2386 40.4633 56.2189 40.4633 56.1985 40.4633C55.5903 40.4634 54.9821 40.4635 54.3738 40.4634C54.3452 40.4634 54.3452 40.4634 54.3159 40.4634C53.8966 40.4634 53.4773 40.4634 53.058 40.4634C52.9079 40.4633 52.7579 40.4633 52.6078 40.4633C52.5705 40.4633 52.5332 40.4633 52.4958 40.4633C51.9385 40.4633 51.3811 40.4633 50.8237 40.4634C50.7963 40.4634 50.7963 40.4634 50.7683 40.4634C50.7501 40.4634 50.7319 40.4634 50.7131 40.4634C50.0979 40.4636 49.4827 40.4635 48.8674 40.4633C48.8013 40.4633 48.7352 40.4632 48.669 40.4632C48.6528 40.4632 48.6366 40.4632 48.6199 40.4632C48.3634 40.4631 48.107 40.4632 47.8505 40.4633C47.598 40.4634 47.3455 40.4634 47.0931 40.4632C46.9581 40.463 46.8232 40.463 46.6883 40.4632C46.5653 40.4633 46.4424 40.4633 46.3194 40.463C46.2754 40.463 46.2314 40.463 46.1874 40.4631C45.5791 40.4646 44.9106 40.4465 44.421 40.0345C44.1448 39.7567 44.0224 39.4028 44.0137 39.016C44.018 38.6067 44.1329 38.225 44.4207 37.9239C44.8396 37.5381 45.3739 37.5177 45.9115 37.5191Z" fill="white"/>
<path d="M45.7139 25.9688C45.7332 25.9688 45.7525 25.9688 45.7723 25.9688C45.8367 25.9687 45.9011 25.9688 45.9655 25.9689C46.0124 25.9689 46.0593 25.9689 46.1063 25.9689C46.2355 25.9688 46.3647 25.9689 46.494 25.9691C46.6345 25.9692 46.7749 25.9692 46.9154 25.9692C47.1618 25.9692 47.4081 25.9693 47.6544 25.9694C47.9187 25.9696 48.183 25.9697 48.4473 25.9698C48.4723 25.9698 48.4723 25.9698 48.4979 25.9698C48.5659 25.9698 48.6339 25.9698 48.7019 25.9698C49.5259 25.97 50.3499 25.9705 51.1739 25.9709C51.4411 25.9711 51.7083 25.9712 51.9755 25.9714C52.0038 25.9714 52.0038 25.9714 52.0327 25.9714C52.1089 25.9714 52.1852 25.9715 52.2615 25.9715C53.5662 25.9722 54.8709 25.9729 56.1756 25.9738C56.278 25.9738 56.3805 25.9739 56.4829 25.974C56.5033 25.974 56.5236 25.974 56.5445 25.974C56.7504 25.9742 56.9563 25.9743 57.1622 25.9744C57.2035 25.9745 57.2448 25.9745 57.2861 25.9745C58.6122 25.9754 59.9383 25.976 61.2644 25.9764C62.2173 25.9766 63.1703 25.9769 64.1232 25.9775C64.1428 25.9776 64.1624 25.9776 64.1826 25.9776C64.6128 25.9779 65.0431 25.9782 65.4733 25.9785C65.6464 25.9786 65.8195 25.9787 65.9926 25.9789C66.0116 25.9789 66.0305 25.9789 66.0501 25.9789C66.6602 25.9794 67.2704 25.9795 67.8806 25.9796C68.4952 25.9796 69.1097 25.98 69.7243 25.9807C69.8093 25.9808 69.8942 25.9809 69.9792 25.981C69.9959 25.981 70.0125 25.981 70.0297 25.981C70.2932 25.9813 70.5567 25.9813 70.8202 25.9811C71.0794 25.981 71.3386 25.9812 71.5979 25.9817C71.7365 25.982 71.8751 25.9821 72.0137 25.9818C72.1399 25.9816 72.2661 25.9818 72.3923 25.9823C72.4376 25.9824 72.4828 25.9823 72.5281 25.9821C72.8592 25.9807 73.1761 26.0059 73.4748 26.1646C73.4894 26.1721 73.504 26.1797 73.5191 26.1874C73.6529 26.2595 73.7615 26.3504 73.8664 26.4603C73.8789 26.4723 73.8913 26.4843 73.904 26.4966C74.1675 26.7703 74.2334 27.1484 74.2313 27.5124C74.2219 27.885 74.0968 28.2237 73.8364 28.4965C73.4565 28.8338 73.005 28.9123 72.5132 28.9193C72.4766 28.9201 72.44 28.9208 72.4034 28.9216C71.9419 28.9304 71.4802 28.9297 71.0186 28.9294C70.8829 28.9294 70.7472 28.9295 70.6116 28.9296C70.3746 28.9297 70.1377 28.9297 69.9008 28.9297C69.647 28.9297 69.3933 28.9297 69.1395 28.9298C69.1234 28.9298 69.1073 28.9298 69.0907 28.9298C69.0249 28.9298 68.9592 28.9298 68.8935 28.9299C68.2111 28.9301 67.5287 28.9302 66.8463 28.9302C66.7731 28.9302 66.6999 28.9302 66.6267 28.9302C66.6085 28.9302 66.5903 28.9302 66.5716 28.9302C66.1676 28.9302 65.7637 28.9302 65.3597 28.9303C65.1931 28.9303 65.0264 28.9303 64.8597 28.9304C64.8413 28.9304 64.8229 28.9304 64.8039 28.9304C63.7499 28.9305 62.696 28.9306 61.642 28.9306C61.6026 28.9306 61.5632 28.9306 61.5239 28.9306C61.3461 28.9306 61.1684 28.9306 60.9907 28.9306C60.9115 28.9306 60.8322 28.9306 60.753 28.9306C60.7133 28.9306 60.6737 28.9306 60.634 28.9306C59.3785 28.9306 58.123 28.9307 56.8675 28.931C56.5507 28.9311 56.234 28.9312 55.9173 28.9313C55.8978 28.9313 55.8783 28.9313 55.8582 28.9313C55.2571 28.9314 54.656 28.9315 54.0549 28.9315C54.0266 28.9315 54.0266 28.9315 53.9977 28.9315C53.5834 28.9315 53.1692 28.9315 52.7549 28.9315C52.6067 28.9315 52.4585 28.9315 52.3103 28.9315C52.2734 28.9315 52.2365 28.9315 52.1997 28.9315C51.6127 28.9315 51.0257 28.9317 50.4387 28.9319C49.8478 28.932 49.2569 28.9321 48.666 28.9319C48.5843 28.9319 48.5026 28.9319 48.4209 28.9319C48.4049 28.9319 48.3889 28.9319 48.3724 28.9319C48.1192 28.9318 47.866 28.9319 47.6127 28.9321C47.3636 28.9322 47.1144 28.9322 46.8653 28.9321C46.7321 28.932 46.5989 28.932 46.4657 28.9321C46.3444 28.9323 46.2231 28.9322 46.1018 28.932C46.0583 28.932 46.0148 28.932 45.9714 28.9322C45.3927 28.9337 44.8454 28.8849 44.4053 28.4667C44.1346 28.189 44.0238 27.8477 44.0137 27.4615C44.0242 27.0577 44.1398 26.6904 44.422 26.3937C44.7761 26.0733 45.249 25.9672 45.7139 25.9688Z" fill="white"/>
<path d="M94.7327 70.1441C95.0165 70.3686 95.2318 70.64 95.288 71.0067C95.3356 71.4513 95.2172 71.8453 94.9991 72.2287C94.9909 72.2431 94.9828 72.2576 94.9744 72.2725C94.8812 72.436 94.78 72.5891 94.6686 72.7408C94.589 72.8512 94.5144 72.9649 94.4393 73.0785C94.4041 73.1316 94.3689 73.1846 94.3336 73.2377C94.3245 73.2514 94.3154 73.265 94.306 73.2791C94.2004 73.4378 94.0936 73.5956 93.9866 73.7534C93.9768 73.7678 93.967 73.7823 93.9569 73.7971C93.8987 73.8829 93.8405 73.9685 93.7823 74.0542C93.7555 74.0937 93.7287 74.1332 93.7019 74.1726C93.4366 74.5632 93.1703 74.9531 92.9026 75.3421C92.8639 75.3984 92.8251 75.4547 92.7865 75.5111C92.5797 75.8126 92.3713 76.113 92.161 76.4119C91.9085 76.7706 91.6627 77.1295 91.4483 77.5126C91.4242 77.5557 91.3997 77.5984 91.3751 77.6412C90.9473 78.408 90.699 79.2788 90.5602 80.1408C90.5558 80.168 90.5513 80.1952 90.5468 80.2233C90.4648 80.7612 90.4535 81.3042 90.438 81.8471C90.4348 81.9548 90.4316 82.0626 90.4283 82.1703C90.4227 82.354 90.4172 82.5377 90.4118 82.7214C90.3975 83.201 90.3825 83.6807 90.3675 84.1603C90.3667 84.1841 90.366 84.2078 90.3652 84.2323C90.3271 85.4452 90.2807 86.6576 90.2213 87.8697C90.2196 87.9052 90.2196 87.9052 90.2178 87.9415C90.202 88.2659 90.1854 88.5903 90.1677 88.9146C90.1644 88.9765 90.1612 89.0384 90.158 89.1003C90.1531 89.1952 90.1478 89.2901 90.1423 89.3849C90.1403 89.4189 90.1385 89.4528 90.1368 89.4868C90.1056 90.1022 89.877 90.6731 89.4296 91.1064C89.1812 91.3216 88.8613 91.441 88.5324 91.4307C88.1792 91.3976 87.868 91.2276 87.6337 90.9633C87.4585 90.7408 87.3419 90.5049 87.2685 90.233C87.264 90.2163 87.2595 90.1997 87.2548 90.1825C87.1832 89.8947 87.196 89.5959 87.1965 89.3016C87.1966 89.2558 87.1965 89.21 87.1965 89.1643C87.1965 89.0407 87.1967 88.9171 87.1968 88.7935C87.197 88.664 87.197 88.5346 87.197 88.4052C87.1971 88.1604 87.1972 87.9156 87.1975 87.6708C87.1977 87.392 87.1978 87.1132 87.198 86.8344C87.1982 86.2612 87.1986 85.688 87.1991 85.1147C87.2504 85.1147 87.3017 85.1147 87.3546 85.1147C87.3551 85.0987 87.3555 85.0827 87.356 85.0662C87.3583 84.9875 87.3605 84.9089 87.3628 84.8302C87.3632 84.8153 87.3636 84.8004 87.3641 84.7851C87.3694 84.5998 87.3748 84.4146 87.3802 84.2293C87.3818 84.1759 87.3833 84.1225 87.3849 84.069C87.386 84.0328 87.387 83.9966 87.3881 83.9604C87.3942 83.7522 87.4002 83.544 87.4058 83.3359C87.4568 81.4386 87.5877 79.5943 88.839 76.3739C88.8637 76.321 88.8882 76.2679 88.9126 76.2147C89.3552 75.2544 89.9193 74.3434 90.5216 73.4761C90.5537 73.4297 90.5856 73.3833 90.6175 73.3367C90.8229 73.0363 91.0332 72.7395 91.2467 72.4449C91.3392 72.3172 91.4303 72.1886 91.521 72.0596C91.6007 71.9463 91.6816 71.834 91.763 71.7219C91.8657 71.5802 91.9669 71.4376 92.0671 71.2942C92.0801 71.2757 92.093 71.2572 92.1063 71.2381C92.1569 71.1656 92.2075 71.0932 92.2581 71.0206C92.6127 70.5121 92.9758 70.0232 93.6067 69.8602C94.0193 69.7989 94.3947 69.9004 94.7327 70.1441Z" fill="white"/>
<path d="M32.0665 35.0149C32.0853 35.0211 32.1041 35.0273 32.1235 35.0337C32.582 35.2001 32.9394 35.5977 33.2776 35.9342C33.2919 35.9484 33.3063 35.9626 33.3211 35.9773C33.4742 36.131 33.6134 36.2958 33.7512 36.4632C33.7713 36.4876 33.7713 36.4876 33.7919 36.5125C33.8925 36.6352 33.9896 36.76 34.0846 36.8871C34.1341 36.949 34.1872 37.0039 34.2442 37.0589C34.3453 36.9487 34.4446 36.8377 34.5387 36.7215C34.6307 36.6078 34.7258 36.4972 34.8219 36.387C34.8814 36.3187 34.9408 36.2503 34.9992 36.1811C35.1584 35.9928 35.324 35.8113 35.4945 35.633C35.5291 35.5967 35.5634 35.5602 35.5977 35.5236C35.8079 35.3045 36.0463 35.1207 36.3331 35.0149C36.3506 35.0079 36.3681 35.0008 36.3862 34.9936C36.6794 34.8932 37.0519 34.9136 37.3331 35.0371C37.3535 35.046 37.3738 35.0549 37.3948 35.0641C37.7771 35.2531 38.0543 35.5832 38.1942 35.9841C38.312 36.4128 38.2125 36.8388 37.9963 37.2187C37.8151 37.4947 37.5639 37.7383 37.3134 37.9513C37.2652 37.9931 37.2184 38.0362 37.1716 38.0796C37.0563 38.1866 36.9382 38.2879 36.8157 38.3865C36.7319 38.4558 36.6526 38.5295 36.5726 38.6032C36.4909 38.6765 36.4059 38.7454 36.32 38.8139C36.2695 38.856 36.2233 38.9001 36.1776 38.9474C36.2125 39.0372 36.2765 39.0919 36.347 39.1543C36.3591 39.1651 36.3712 39.176 36.3837 39.1872C36.4185 39.2185 36.4536 39.2496 36.4887 39.2806C36.5115 39.301 36.5115 39.301 36.5349 39.3218C36.6006 39.3797 36.6671 39.4366 36.734 39.4932C36.9114 39.6433 37.0822 39.7991 37.251 39.9588C37.3172 40.0213 37.3844 40.0825 37.4526 40.1429C37.872 40.5195 38.2115 40.9341 38.244 41.5189C38.255 41.8919 38.1303 42.2409 37.8762 42.516C37.8367 42.5568 37.7964 42.5961 37.7554 42.6354C37.7419 42.6488 37.7284 42.6622 37.7146 42.676C37.4476 42.924 37.1145 43.0276 36.7563 43.0236C36.2299 43.0041 35.8349 42.6837 35.4825 42.3245C35.4467 42.288 35.4107 42.2518 35.3746 42.2156C35.2526 42.0926 35.1345 41.9674 35.022 41.8356C34.9897 41.7999 34.9573 41.7642 34.9248 41.7287C34.8561 41.6527 34.7904 41.5752 34.7262 41.4954C34.6383 41.3867 34.5455 41.284 34.4498 41.1822C34.3783 41.106 34.3105 41.0278 34.2442 40.9469C34.2192 40.972 34.1941 40.9971 34.1691 41.0222C34.1434 41.0478 34.1175 41.0733 34.0916 41.0987C34.0052 41.184 33.923 41.2711 33.8438 41.3632C33.7894 41.4253 33.7336 41.4861 33.6776 41.5468C33.6114 41.6187 33.5455 41.6907 33.4817 41.7648C32.4376 42.9641 32.4376 42.9641 31.7742 43.0169C31.539 43.0306 31.331 43.016 31.1109 42.9243C31.0916 42.9165 31.0724 42.9087 31.0525 42.9007C30.7002 42.7419 30.4289 42.4337 30.2838 42.0808C30.1516 41.729 30.1574 41.3399 30.3071 40.9931C30.4596 40.6625 30.7011 40.4165 30.9566 40.1635C31.0013 40.1192 31.0458 40.0748 31.0903 40.0303C31.2144 39.9066 31.338 39.7834 31.4717 39.6698C31.5479 39.6043 31.62 39.5344 31.6929 39.4653C31.8232 39.3421 31.954 39.2197 32.0862 39.0986C32.1478 39.0421 32.2079 38.9847 32.2665 38.9252C32.236 38.8546 32.2033 38.8146 32.1436 38.7666C32.128 38.7539 32.1123 38.7411 32.0962 38.728C32.0795 38.7147 32.0628 38.7014 32.0456 38.6877C32.0285 38.6739 32.0115 38.66 31.9938 38.6458C31.9596 38.6181 31.9254 38.5905 31.8911 38.5629C31.8316 38.5151 31.7727 38.4667 31.7137 38.4183C31.6564 38.3715 31.5991 38.3247 31.5416 38.2781C30.2932 37.2637 30.2932 37.2637 30.1998 36.6146C30.1706 36.1674 30.2377 35.8014 30.5415 35.4537C30.5754 35.4182 30.6096 35.383 30.6442 35.3482C30.659 35.3326 30.6738 35.3171 30.6889 35.3011C31.0526 34.9452 31.5917 34.8532 32.0665 35.0149Z" fill="white"/>
<path d="M38.9118 23.5501C38.926 23.5563 38.9403 23.5625 38.955 23.5689C39.3232 23.735 39.5843 23.9927 39.7332 24.3713C39.8599 24.7429 39.8225 25.1945 39.6589 25.5509C39.5303 25.7844 39.3562 25.9836 39.1804 26.1824C39.1225 26.2479 39.0667 26.3148 39.0118 26.3828C38.8977 26.5235 38.7785 26.6595 38.6596 26.796C38.5062 26.9726 38.3547 27.1508 38.2038 27.3294C38.1295 27.4173 38.0548 27.5049 37.9798 27.5922C37.9688 27.6051 37.9577 27.618 37.9464 27.6312C37.8896 27.6973 37.8329 27.7634 37.776 27.8293C37.674 27.9478 37.5727 28.0665 37.4743 28.1879C37.3954 28.2851 37.3127 28.378 37.2284 28.4705C37.1767 28.5287 37.1274 28.5884 37.0784 28.6489C36.9982 28.7481 36.9143 28.8429 36.8283 28.9372C36.7771 28.9949 36.7283 29.0541 36.6798 29.1141C36.594 29.2202 36.5034 29.3207 36.411 29.4211C36.3578 29.4803 36.3075 29.5409 36.2576 29.6029C36.1763 29.7037 36.0907 29.7988 36.0026 29.8935C35.9361 29.9654 35.8731 30.039 35.8118 30.1153C35.7311 30.2156 35.646 30.3102 35.5583 30.4043C35.4897 30.4784 35.4251 30.5546 35.3618 30.6332C35.2837 30.7301 35.2015 30.8181 35.1118 30.904C35.0863 30.9301 35.0863 30.9301 35.0604 30.9568C35.0308 30.9856 35.0308 30.9856 35.0006 31.0151C34.9857 31.03 34.9707 31.0448 34.9553 31.0601C34.6727 31.3294 34.3504 31.4812 33.9562 31.4817C33.5025 31.4515 33.1322 31.2194 32.7766 30.9575C32.7314 30.9243 32.6859 30.8915 32.6403 30.8588C32.4138 30.6961 32.189 30.5311 31.9647 30.3654C31.9124 30.3269 31.8601 30.2884 31.8077 30.2501C31.6024 30.0996 31.3991 29.9469 31.197 29.7923C31.0696 29.6949 30.9411 29.5991 30.8118 29.5043C30.6583 29.3919 30.5062 29.2779 30.3548 29.1627C30.3361 29.1485 30.3173 29.1342 30.298 29.1195C29.854 28.7806 29.3915 28.4236 29.2895 27.838C29.2438 27.3983 29.3501 27.0336 29.6281 26.6876C29.6765 26.6321 29.7265 26.5794 29.7784 26.5272C29.7918 26.5131 29.8051 26.499 29.8189 26.4844C30.047 26.2618 30.3627 26.1731 30.6729 26.1648C31.297 26.1754 31.7647 26.5282 32.2451 26.8827C32.2799 26.9082 32.3147 26.9338 32.3494 26.9593C32.4201 27.0112 32.4906 27.0632 32.5612 27.1153C32.6311 27.1671 32.7012 27.2186 32.7714 27.27C32.982 27.4244 33.1909 27.5809 33.3981 27.7399C33.5014 27.819 33.6054 27.8964 33.7118 27.9713C33.7965 27.9377 33.8369 27.8885 33.8923 27.8172C33.9628 27.7286 34.035 27.6434 34.1118 27.5603C34.2032 27.461 34.2889 27.3583 34.3737 27.2533C34.4376 27.1758 34.5052 27.102 34.573 27.0277C34.6242 26.97 34.673 26.9108 34.7215 26.8507C34.8073 26.7447 34.8978 26.6443 34.9901 26.5439C35.0617 26.4643 35.1286 26.3813 35.1959 26.298C35.2441 26.2395 35.294 26.1833 35.3451 26.1273C35.4143 26.0514 35.4805 25.9739 35.5451 25.894C35.6253 25.7948 35.7092 25.7 35.7952 25.6058C35.8465 25.5481 35.8952 25.4889 35.9437 25.4288C36.0295 25.3228 36.1201 25.2223 36.2125 25.122C36.2661 25.0622 36.3169 25.0011 36.3673 24.9387C36.4526 24.833 36.5428 24.733 36.6348 24.6331C36.6879 24.5739 36.7383 24.5132 36.7881 24.4513C36.8801 24.3374 36.9775 24.2301 37.077 24.123C37.1242 24.0718 37.1696 24.0198 37.2145 23.9667C37.6494 23.4715 38.2977 23.2833 38.9118 23.5501Z" fill="white"/>
<path d="M38.2652 45.8754C38.6922 45.8556 39.0964 46.052 39.4099 46.3266C39.6554 46.5582 39.7817 46.8539 39.8041 47.1907C39.8124 47.7645 39.6026 48.152 39.2311 48.5752C39.1865 48.6266 39.1437 48.6794 39.101 48.7323C38.9865 48.8733 38.8669 49.0097 38.7476 49.1467C38.6096 49.3054 38.4723 49.4646 38.3399 49.6279C38.2609 49.7253 38.1781 49.8183 38.0937 49.911C38.044 49.9668 37.9966 50.0239 37.9496 50.082C37.8337 50.2251 37.7126 50.3634 37.5918 50.5023C37.5344 50.5684 37.4774 50.6348 37.4204 50.7013C37.4095 50.7141 37.3986 50.7268 37.3874 50.7399C37.3654 50.7656 37.3434 50.7913 37.3215 50.8169C37.2661 50.8816 37.2106 50.9463 37.1552 51.011C37.1329 51.0369 37.1107 51.0628 37.0885 51.0887C36.9552 51.2443 36.8218 51.3998 36.6885 51.5553C36.672 51.5745 36.672 51.5746 36.6551 51.5942C36.633 51.62 36.6108 51.6459 36.5886 51.6717C36.5322 51.7376 36.4758 51.8035 36.4195 51.8695C36.3202 51.9858 36.2207 52.1017 36.1177 52.2149C36.0508 52.2885 35.987 52.3638 35.9246 52.4412C35.8427 52.5424 35.7567 52.6382 35.668 52.7334C35.6033 52.8033 35.5423 52.875 35.4829 52.9494C35.3463 53.1191 35.1951 53.2759 35.0441 53.4327C35.0311 53.4463 35.0181 53.4599 35.0047 53.474C34.7506 53.7356 34.4315 53.9194 34.0616 53.9322C33.6281 53.935 33.2451 53.7708 32.9107 53.4993C32.9158 53.4858 32.9208 53.4723 32.926 53.4583C32.9492 53.3956 32.9723 53.3329 32.9954 53.2702C33.0034 53.2489 33.0113 53.2277 33.0194 53.2058C33.2843 52.4843 33.2526 51.7484 32.9348 51.0476C32.8929 50.9595 32.8471 50.8739 32.7996 50.7888C32.7919 50.7748 32.7841 50.7608 32.7762 50.7463C32.5253 50.2959 32.1712 49.8987 31.7808 49.564C31.7245 49.5151 31.6698 49.4646 31.6149 49.4141C31.4285 49.2448 31.2335 49.0906 31.0316 48.9406C31.0056 48.9212 31.0056 48.9212 30.9791 48.9014C30.87 48.8211 30.7584 48.7494 30.6408 48.6819C30.6272 48.6734 30.6136 48.6648 30.5996 48.6559C30.5996 48.6486 30.5996 48.6413 30.5996 48.6337C31.2724 48.5923 31.7968 49.0115 32.3107 49.3891C32.328 49.4018 32.3452 49.4144 32.3629 49.4274C32.4687 49.5051 32.5743 49.583 32.6799 49.661C32.7325 49.6998 32.7851 49.7385 32.8378 49.7772C32.8728 49.8029 32.9077 49.8286 32.9427 49.8543C32.9598 49.8669 32.977 49.8795 32.9947 49.8925C33.0886 49.9616 33.182 50.0313 33.275 50.1017C33.2949 50.1167 33.3148 50.1318 33.3353 50.1472C33.3734 50.1761 33.4114 50.205 33.4494 50.234C33.5481 50.3086 33.6461 50.3747 33.7552 50.4333C33.7713 50.4145 33.7875 50.3956 33.8041 50.3762C33.8993 50.2652 33.9944 50.1543 34.0895 50.0433C34.1004 50.0306 34.1112 50.018 34.1224 50.005C34.1444 49.9793 34.1665 49.9536 34.1885 49.9279C34.2438 49.8634 34.2991 49.7988 34.3544 49.7343C34.4811 49.5862 34.6084 49.4387 34.7361 49.2915C34.8505 49.1596 34.9642 49.0271 35.0777 48.8944C35.1443 48.8167 35.2109 48.7391 35.2774 48.6614C35.3327 48.5969 35.388 48.5324 35.4433 48.4679C35.57 48.3198 35.6973 48.1723 35.825 48.0251C35.9058 47.932 35.9862 47.8386 36.0663 47.745C36.1705 47.6233 36.2753 47.502 36.3804 47.381C36.4632 47.2857 36.5454 47.1898 36.6274 47.0938C36.7191 46.9864 36.8127 46.8812 36.9078 46.7768C36.9575 46.7204 37.0042 46.6624 37.051 46.6036C37.3361 46.2544 37.6763 45.9518 38.1399 45.8829C38.1817 45.8808 38.2235 45.8786 38.2652 45.8754Z" fill="white"/>
</svg>
