<svg width="24" height="24" viewBox="0 0 24 24" fill="none" xmlns="http://www.w3.org/2000/svg">
<g clip-path="url(#clip0_12_26975)">
<path d="M3.14222 0C9.04792 0 14.9536 0 20.8593 0C20.9028 0.0145081 20.9464 0.0350612 20.9911 0.0423152C22.2339 0.247846 23.1358 0.920054 23.6677 2.05652C23.8261 2.39504 23.8914 2.7783 23.999 3.141V20.859C23.9844 20.9025 23.9651 20.9448 23.9566 20.9896C23.629 22.8236 22.2315 23.9964 20.3661 23.9988C18.601 24 16.8347 23.9988 15.0697 23.9988C14.9875 23.9988 14.9053 23.9988 14.8231 23.9988V15.5164H18.3725C18.6083 14.1055 18.8404 12.7127 19.0761 11.2958H14.8255V8.42678H19.064V4.21823C18.9758 4.21823 18.8996 4.21823 18.8235 4.21823C17.519 4.21823 16.2146 4.21581 14.9101 4.21823C12.4463 4.22306 10.599 6.06801 10.593 8.52955C10.5905 9.36497 10.593 10.2016 10.593 11.037C10.593 11.1192 10.593 11.2015 10.593 11.3006H7.79424V15.5224H10.5809V23.9891C10.5337 23.9927 10.4962 23.9976 10.4588 23.9976C8.11582 23.9976 5.77168 23.9988 3.42874 23.994C2.95483 23.994 2.49664 23.89 2.07109 23.6808C0.708609 23.011 0.00742024 21.9072 0.00500235 20.3899C-0.00346027 14.797 0.00137551 9.20417 0.00137551 3.6113C0.00137551 3.53272 0.00137551 3.45534 0.0062113 3.37676C0.102927 2.01179 0.747295 0.992595 1.96954 0.376001C2.33222 0.193441 2.74931 0.12211 3.14222 0Z" fill="black" fill-opacity="0.658824"/>
</g>
<defs>
<clipPath id="clip0_12_26975">
<rect width="24" height="24" fill="white"/>
</clipPath>
</defs>
</svg>
