<svg width="30" height="16" viewBox="0 0 30 16" fill="none" xmlns="http://www.w3.org/2000/svg">
<g clip-path="url(#clip0_12_26978)">
<path d="M0 7.2936C0.0740256 6.90268 0.129922 6.50723 0.225098 6.12083C1.01521 2.9376 3.93997 0.57998 7.22127 0.519605C9.05529 0.48489 10.8908 0.507531 12.7264 0.513568C13.3654 0.515077 13.8534 0.992034 13.873 1.60634C13.8926 2.19952 13.4379 2.71421 12.8125 2.74591C12.2097 2.77761 11.6024 2.75949 10.9981 2.76251C9.70944 2.76704 8.41928 2.72478 7.13365 2.78515C4.26327 2.9225 2.03797 5.50049 2.26609 8.36374C2.49119 11.1847 4.71951 13.2269 7.605 13.242C9.29399 13.251 10.9815 13.242 12.6705 13.245C13.2702 13.245 13.6947 13.559 13.8292 14.0797C14.0044 14.7544 13.5331 15.4713 12.8366 15.4743C10.7685 15.4834 8.69272 15.5513 6.6336 15.414C3.52452 15.2042 0.797663 12.6896 0.172223 9.64368C0.107262 9.32973 0.0574076 9.01427 0 8.69882C0 8.23092 0 7.76301 0 7.2936Z" fill="black" fill-opacity="0.658824"/>
<path d="M20.1554 13.2147C21.0634 13.2147 21.9713 13.2524 22.8762 13.2072C25.2148 13.0925 27.2422 11.2767 27.6471 8.97795C28.2333 5.6483 25.8131 2.77147 22.3973 2.75034C20.7098 2.73977 19.0209 2.75034 17.3334 2.74732C16.7548 2.74732 16.3333 2.46054 16.1762 1.98207C15.9329 1.23645 16.4708 0.508939 17.2835 0.50743C19.0979 0.502902 20.9138 0.486299 22.7282 0.519505C23.3264 0.53007 23.9352 0.628178 24.5169 0.770058C26.9945 1.37833 29.7183 3.85368 29.9812 7.42633C30.2335 10.8692 28.0444 14.1671 24.7284 15.1437C24.0365 15.3474 23.2932 15.4471 22.5696 15.4667C20.8247 15.512 19.0768 15.4833 17.3304 15.4803C16.6324 15.4803 16.1218 15.0078 16.1172 14.3648C16.1112 13.7219 16.6158 13.2419 17.3152 13.2389C18.2625 13.2343 19.2082 13.2389 20.1554 13.2389V13.2162V13.2147Z" fill="black" fill-opacity="0.658824"/>
<path d="M15.0263 6.87845C16.5763 6.87845 18.1279 6.87392 19.6779 6.87996C20.2595 6.88147 20.7263 7.29503 20.7928 7.8384C20.8623 8.40743 20.5359 8.91458 19.9891 9.07004C19.8788 9.10174 19.7594 9.1123 19.6431 9.11381C16.5416 9.11532 13.4416 9.11683 10.3401 9.11381C9.73577 9.11381 9.26291 8.70628 9.19644 8.15386C9.12846 7.58332 9.45326 7.07316 10.0001 6.92222C10.1467 6.88147 10.3083 6.87845 10.4624 6.87845C11.9837 6.87543 13.505 6.87694 15.0263 6.87845Z" fill="black" fill-opacity="0.658824"/>
</g>
<defs>
<clipPath id="clip0_12_26978">
<rect width="30" height="15" fill="white" transform="translate(0 0.5)"/>
</clipPath>
</defs>
</svg>
