<svg width="24" height="24" viewBox="0 0 24 24" fill="none" xmlns="http://www.w3.org/2000/svg">
<g clip-path="url(#clip0_12_26976)">
<path d="M0 21.9374C0 15.3121 0 8.68792 0 2.06257C0.0145081 2.02871 0.0362702 1.99486 0.0435243 1.9598C0.159589 1.38794 0.448542 0.922472 0.893456 0.54768C1.23561 0.257519 1.64304 0.118483 2.06257 0C8.68793 0 15.3121 0 21.9374 0C21.964 0.0132991 21.9894 0.0338522 22.0172 0.0398972C23.2214 0.296207 23.9988 1.24407 23.9988 2.47484C24 8.82575 24 15.1755 23.9964 21.5264C23.9964 21.7428 23.9746 21.9652 23.9214 22.1744C23.6446 23.2782 22.6846 23.9988 21.5022 23.9988C15.167 23.9988 8.83301 23.9988 2.49781 23.9988C2.42769 23.9988 2.35756 23.9988 2.28744 23.9952C1.61523 23.9541 1.06151 23.6736 0.608131 23.1779C0.282908 22.8236 0.123319 22.3908 0 21.9374ZM13.2024 20.3863V20.0792C13.2024 18.1424 13.2024 16.2043 13.2024 14.2675C13.2024 14.1188 13.2072 13.9701 13.2217 13.8226C13.3196 12.7804 14.4754 12.0091 15.4705 12.3186C16.3059 12.5785 16.7943 13.2556 16.7955 14.172C16.7992 16.1487 16.7955 18.1242 16.7955 20.101C16.7955 20.1928 16.7955 20.2835 16.7955 20.3814H20.3851C20.3887 20.3222 20.3935 20.2775 20.3935 20.2315C20.3935 17.9973 20.3935 15.763 20.3935 13.53C20.3935 13.0162 20.3041 12.5168 20.101 12.0465C19.436 10.5111 18.2766 9.58138 16.6105 9.39157C15.2915 9.24165 14.2312 9.8123 13.3777 10.7976C13.3317 10.8508 13.2894 10.9077 13.2459 10.9621C13.2277 10.9548 13.2096 10.9464 13.1903 10.9391V9.62128H9.62007V20.3851H13.2011L13.2024 20.3863ZM7.18513 20.3875V9.62128H3.62098V20.3875H7.18513ZM5.39096 7.55267C6.58546 7.55992 7.55146 6.59876 7.55388 5.40184C7.55509 4.21097 6.58184 3.2353 5.39701 3.23893C4.21823 3.24377 3.2619 4.19405 3.24014 5.38371C3.21959 6.56007 4.19525 7.5442 5.39096 7.55146V7.55267Z" fill="black" fill-opacity="0.658824"/>
</g>
<defs>
<clipPath id="clip0_12_26976">
<rect width="24" height="24" fill="white"/>
</clipPath>
</defs>
</svg>
