<svg width="24" height="26" viewBox="0 0 24 26" fill="none" xmlns="http://www.w3.org/2000/svg">
<g clip-path="url(#clip0_12_26977)">
<path d="M23.2211 0.5C21.8167 2.16591 20.4135 3.83308 19.0079 5.49773C17.4872 7.29838 15.9666 9.09902 14.446 10.8997C14.399 10.9551 14.3545 11.0117 14.2927 11.0873C17.5219 15.8747 20.7523 20.6622 24 25.4773C23.9135 25.4849 23.8541 25.495 23.796 25.495C21.5522 25.495 19.3071 25.4937 17.0632 25.5C16.905 25.5 16.8234 25.4421 16.7381 25.3162C14.6574 22.2248 12.5718 19.136 10.4874 16.0472C10.4342 15.9679 10.3786 15.8911 10.3119 15.7954C9.70113 16.5169 9.10771 17.2196 8.51429 17.9209C6.42621 20.394 4.33936 22.867 2.24509 25.335C2.17463 25.4182 2.03616 25.4849 1.9286 25.4874C1.30675 25.5013 0.684902 25.495 0 25.495C3.14264 21.7753 6.25189 18.0934 9.36857 14.4015C9.32282 14.3284 9.28203 14.2617 9.23876 14.1962C6.2247 9.72862 3.2094 5.25849 0.195333 0.788355C0.132282 0.696434 0.0791222 0.596958 0.0222531 0.5C2.40334 0.5 4.78319 0.5 7.16427 0.5C7.18282 0.535257 7.19889 0.573033 7.22114 0.605772C9.23258 3.58754 11.244 6.56931 13.2542 9.55107C13.2839 9.59514 13.3061 9.64551 13.3383 9.70218C15.9567 6.6033 18.5344 3.55102 21.112 0.5C21.8155 0.5 22.5177 0.5 23.2211 0.5ZM2.88302 2.12058C2.96461 2.24272 3.01654 2.32079 3.0697 2.39886C4.3134 4.21084 5.5571 6.02408 6.8008 7.83605C10.4367 13.1322 14.0726 18.4296 17.7073 23.7258C17.7901 23.8454 17.8569 23.9499 18.0386 23.9487C18.9893 23.9373 19.9388 23.9436 20.8895 23.9424C20.9464 23.9424 21.0045 23.9285 21.0885 23.9172C21.0168 23.8102 20.9637 23.7296 20.9093 23.6515C17.3191 18.4221 13.7302 13.1914 10.14 7.96197C8.85056 6.08326 7.56112 4.20328 6.26673 2.32835C6.20615 2.2402 6.09365 2.13191 6.00464 2.13065C4.98346 2.1168 3.96106 2.12184 2.88178 2.12184L2.88302 2.12058Z" fill="black" fill-opacity="0.658824"/>
</g>
<defs>
<clipPath id="clip0_12_26977">
<rect width="24" height="25" fill="white" transform="translate(0 0.5)"/>
</clipPath>
</defs>
</svg>
