<svg width="60" height="61" viewBox="0 0 60 61" fill="none" xmlns="http://www.w3.org/2000/svg">
<path d="M10.2753 5.39045C10.3332 5.39034 10.3332 5.39034 10.3923 5.39022C10.5211 5.39 10.65 5.39006 10.7788 5.39011C10.8723 5.39001 10.9659 5.3899 11.0594 5.38977C11.2891 5.38949 11.5188 5.38939 11.7486 5.38937C12.0239 5.38934 12.2992 5.38908 12.5745 5.38882C13.2396 5.38821 13.9047 5.38798 14.5698 5.3878C14.8844 5.38771 15.1991 5.38757 15.5138 5.38743C16.5913 5.38694 17.6688 5.38653 18.7463 5.38639C18.8139 5.38638 18.8815 5.38638 18.949 5.38637C19.0168 5.38636 19.0845 5.38635 19.1523 5.38634C19.2882 5.38633 19.424 5.38631 19.5599 5.38629C19.5936 5.38629 19.6273 5.38628 19.662 5.38628C20.7553 5.38614 21.8485 5.38553 22.9417 5.38464C24.098 5.3837 25.2543 5.38317 26.4105 5.38313C26.5374 5.38312 26.6643 5.38311 26.7912 5.3831C26.8225 5.3831 26.8537 5.3831 26.8859 5.3831C27.3887 5.38305 27.8916 5.38263 28.3944 5.38207C28.8996 5.38152 29.4048 5.3814 29.91 5.38171C30.2101 5.38188 30.5103 5.38173 30.8104 5.38112C31.0344 5.38071 31.2585 5.38089 31.4826 5.38131C31.5732 5.38138 31.6639 5.38126 31.7546 5.38093C31.8778 5.38051 32.0009 5.38079 32.1241 5.38125C32.1594 5.38096 32.1946 5.38067 32.2309 5.38037C32.6103 5.38343 32.9338 5.47483 33.2126 5.73987C33.4724 6.01915 33.5833 6.32191 33.57 6.70308C33.5267 7.0637 33.37 7.33822 33.0978 7.57661C32.7936 7.78415 32.4528 7.81764 32.0944 7.81578C32.0366 7.81595 32.0366 7.81595 31.9775 7.81611C31.8482 7.81638 31.7188 7.8161 31.5895 7.81582C31.4958 7.81591 31.4022 7.81602 31.3085 7.81617C31.1049 7.81641 30.9012 7.81642 30.6976 7.81622C30.3947 7.81593 30.0919 7.81608 29.789 7.81632C29.2794 7.81672 28.7698 7.8168 28.2602 7.8167C27.5319 7.81657 26.8036 7.81708 26.0753 7.81772C25.7829 7.81798 25.4906 7.81821 25.1983 7.81845C25.1495 7.81849 25.1495 7.81849 25.0998 7.81853C24.3268 7.81915 23.5538 7.81956 22.7808 7.81991C22.747 7.81993 22.7131 7.81994 22.6783 7.81996C21.8894 7.82032 21.1004 7.82058 20.3115 7.82068C20.2606 7.82068 20.2606 7.82068 20.2087 7.82069C20.0376 7.82071 19.8666 7.82073 19.6955 7.82075C19.6617 7.82075 19.6279 7.82076 19.5931 7.82076C19.5249 7.82077 19.4566 7.82078 19.3884 7.82078C18.2606 7.82091 17.1327 7.82156 16.0049 7.82278C15.8456 7.82295 15.6862 7.82311 15.5269 7.82327C15.4955 7.8233 15.4642 7.82333 15.4319 7.82337C14.9276 7.82385 14.4233 7.82378 13.9191 7.82348C13.4121 7.82318 12.9051 7.82343 12.3981 7.82423C12.0971 7.82469 11.7961 7.82472 11.4951 7.82413C11.27 7.82374 11.045 7.82415 10.82 7.82487C10.7292 7.82503 10.6383 7.82494 10.5475 7.82456C9.72112 7.82136 9.05737 7.93414 8.44465 8.53638C8.06062 8.94678 7.83613 9.48087 7.83779 10.0427C7.83768 10.0855 7.83768 10.0855 7.83758 10.1291C7.8374 10.2252 7.83749 10.3213 7.83758 10.4174C7.8375 10.4871 7.83741 10.5568 7.83731 10.6265C7.83706 10.8191 7.83705 11.0117 7.83709 11.2043C7.83708 11.4135 7.83685 11.6226 7.83666 11.8317C7.8363 12.247 7.83615 12.6623 7.83606 13.0776C7.83595 13.5749 7.83562 14.0721 7.83528 14.5694C7.83448 15.7713 7.83408 16.9733 7.83375 18.1752C7.83363 18.5733 7.8335 18.9713 7.83336 19.3693C7.83335 19.4115 7.83335 19.4115 7.83333 19.4544C7.83329 19.568 7.83325 19.6816 7.83321 19.7952C7.83253 21.7383 7.83194 23.6814 7.83165 25.6246C7.83163 25.7772 7.83161 25.9298 7.83159 26.0825C7.83158 26.1279 7.83158 26.1279 7.83157 26.1742C7.83153 26.481 7.83148 26.7878 7.83143 27.0945C7.83142 27.1561 7.83141 27.2176 7.83141 27.2791C7.83111 29.2544 7.83025 31.2297 7.82901 33.205C7.82811 34.6243 7.82729 36.0435 7.82702 37.4627C7.82701 37.4919 7.82701 37.5211 7.827 37.5512C7.82688 38.192 7.8268 38.8328 7.82676 39.4736C7.82675 39.7314 7.82672 39.9892 7.8267 40.2471C7.8267 40.2753 7.8267 40.3035 7.82669 40.3326C7.82662 41.2414 7.82607 42.1503 7.82529 43.0591C7.8245 43.9747 7.8242 44.8902 7.82456 45.8057C7.82479 46.3738 7.82461 46.9418 7.82373 47.5098C7.82322 47.8721 7.82326 48.2345 7.82375 48.5968C7.82401 48.8033 7.82403 49.0098 7.82338 49.2163C7.82279 49.4043 7.82291 49.5923 7.82359 49.7803C7.82371 49.8478 7.82357 49.9152 7.82315 49.9827C7.81873 50.7318 7.99636 51.3505 8.53463 51.8981C8.92446 52.2629 9.44936 52.5046 9.9871 52.505C10.0339 52.5052 10.0807 52.5053 10.1289 52.5055C10.1808 52.5054 10.2327 52.5054 10.2846 52.5053C10.34 52.5054 10.3953 52.5055 10.4507 52.5056C10.6036 52.5059 10.7564 52.5059 10.9093 52.5059C11.0754 52.506 11.2414 52.5062 11.4075 52.5065C11.7371 52.5069 12.0668 52.5071 12.3965 52.5073C12.7912 52.5075 13.186 52.5079 13.5807 52.5083C14.535 52.5093 15.4892 52.5098 16.4435 52.5103C16.7596 52.5105 17.0756 52.5107 17.3917 52.5108C19.0719 52.5118 20.7522 52.5127 22.4324 52.5131C22.8218 52.5132 23.2111 52.5134 23.6005 52.5135C23.6489 52.5135 23.6972 52.5135 23.7471 52.5135C25.3153 52.514 26.8836 52.5152 28.4519 52.5168C30.064 52.5184 31.6761 52.5194 33.2882 52.5196C33.5159 52.5196 33.7436 52.5197 33.9713 52.5197C34.0161 52.5197 34.0609 52.5197 34.1071 52.5197C34.8283 52.5199 35.5494 52.5206 36.2706 52.5217C36.9956 52.5227 37.7206 52.523 38.4455 52.5225C38.8762 52.5223 39.3068 52.5226 39.7375 52.5237C40.0253 52.5243 40.3132 52.5243 40.601 52.5237C40.7649 52.5234 40.9288 52.5234 41.0927 52.5242C41.2421 52.5249 41.3915 52.5248 41.541 52.5239C41.6193 52.5237 41.6977 52.5244 41.7761 52.5252C42.3178 52.5202 42.8035 52.3697 43.2381 52.0409C43.2659 52.02 43.2938 51.9992 43.3224 51.9777C43.787 51.6008 44.0215 51.0501 44.1182 50.472C44.1333 50.2703 44.1336 50.0695 44.1325 49.8674C44.1325 49.8077 44.1327 49.7481 44.1329 49.6885C44.1333 49.5259 44.133 49.3634 44.1325 49.2008C44.1322 49.025 44.1325 48.8492 44.1328 48.6734C44.1331 48.3691 44.1331 48.0649 44.1328 47.7606C44.1323 47.3203 44.1327 46.8799 44.1332 46.4396C44.1342 45.7244 44.1347 45.0093 44.1348 44.2941C44.1348 44.23 44.1348 44.23 44.1349 44.1646C44.135 43.6875 44.135 43.2104 44.1349 42.7333C44.1349 42.5601 44.1349 42.387 44.1349 42.2139C44.1349 42.1712 44.1349 42.1284 44.1349 42.0844C44.1349 41.3718 44.1354 40.6591 44.1365 39.9464C44.1371 39.5072 44.1372 39.068 44.1366 38.6288C44.1362 38.328 44.1364 38.0271 44.137 37.7262C44.1373 37.5527 44.1374 37.3792 44.1368 37.2057C44.1363 37.0467 44.1365 36.8877 44.1372 36.7287C44.1373 36.6714 44.1372 36.6141 44.1368 36.5567C44.1339 36.1115 44.182 35.7195 44.5009 35.3849C44.8011 35.1262 45.0855 35.0749 45.4725 35.0789C45.7757 35.1019 46.0114 35.2246 46.2321 35.4311C46.4332 35.6679 46.5336 35.9427 46.5341 36.2498C46.5342 36.2746 46.5343 36.2993 46.5343 36.3249C46.5346 36.4085 46.5346 36.4921 46.5346 36.5757C46.5347 36.636 46.5348 36.6963 46.535 36.7566C46.5354 36.9229 46.5355 37.0891 46.5356 37.2553C46.5358 37.4345 46.5361 37.6136 46.5365 37.7927C46.5372 38.2258 46.5376 38.6588 46.538 39.0918C46.5381 39.2959 46.5383 39.4999 46.5385 39.704C46.5392 40.3827 46.5397 41.0613 46.54 41.74C46.5401 41.9162 46.5402 42.0924 46.5402 42.2686C46.5402 42.3124 46.5403 42.3562 46.5403 42.4013C46.5406 43.1096 46.5416 43.8179 46.5428 44.5261C46.5441 45.2538 46.5448 45.9814 46.5449 46.7091C46.545 47.1174 46.5453 47.5258 46.5463 47.9341C46.5471 48.2822 46.5474 48.6302 46.5471 48.9783C46.5469 49.1556 46.547 49.3329 46.5477 49.5103C46.5531 50.876 46.5531 50.876 46.3759 51.5052C46.365 51.5446 46.365 51.5446 46.3539 51.5847C46.1441 52.3374 45.7218 52.9689 45.1897 53.5332C45.1643 53.5615 45.1389 53.5898 45.1128 53.6189C44.3465 54.4391 43.19 54.8711 42.0902 54.9491C41.9073 54.9544 41.7246 54.9543 41.5417 54.954C41.4865 54.954 41.4313 54.9541 41.3761 54.9542C41.2246 54.9544 41.0732 54.9543 40.9217 54.9542C40.7568 54.9541 40.5919 54.9543 40.4271 54.9544C40.1381 54.9546 39.8492 54.9547 39.5603 54.9546C39.1307 54.9546 38.701 54.9547 38.2714 54.9549C37.4594 54.9553 36.6474 54.9554 35.8354 54.9554C35.2082 54.9555 34.5811 54.9555 33.954 54.9557C33.7735 54.9557 33.593 54.9557 33.4125 54.9558C33.3677 54.9558 33.3228 54.9558 33.2766 54.9558C32.0143 54.956 30.752 54.9562 29.4898 54.9562C29.4422 54.9562 29.3946 54.9562 29.3456 54.9562C29.1043 54.9562 28.8631 54.9562 28.6219 54.9561C28.55 54.9561 28.55 54.9561 28.4767 54.9561C28.3798 54.9561 28.2829 54.9561 28.1861 54.9561C26.6789 54.9561 25.1716 54.9564 23.6644 54.9569C21.9711 54.9575 20.2778 54.9578 18.5845 54.9578C18.4039 54.9578 18.2233 54.9578 18.0427 54.9578C17.9983 54.9578 17.9538 54.9578 17.908 54.9578C17.1926 54.9578 16.4773 54.958 15.7619 54.9584C15.0428 54.9587 14.3238 54.9587 13.6047 54.9585C13.1776 54.9583 12.7505 54.9584 12.3235 54.9588C12.038 54.959 11.7525 54.959 11.467 54.9587C11.3044 54.9585 11.1419 54.9585 10.9794 54.9588C9.55575 54.9614 8.19183 54.8204 7.07741 53.8394C7.04658 53.8136 7.01575 53.7878 6.98399 53.7612C6.05839 52.966 5.50682 51.8108 5.40149 50.6004C5.38514 50.3299 5.3884 50.0588 5.38871 49.7878C5.38864 49.7183 5.38856 49.6487 5.38847 49.5792C5.38825 49.388 5.38828 49.1968 5.38834 49.0057C5.38837 48.7977 5.38818 48.5898 5.38802 48.3818C5.38773 47.9693 5.38764 47.5568 5.38762 47.1444C5.38759 46.6503 5.38733 46.1562 5.38707 45.6622C5.38647 44.4964 5.38624 43.3306 5.38606 42.1649C5.38597 41.5716 5.38583 40.9784 5.38568 40.3851C5.38519 38.4816 5.38478 36.578 5.38465 34.6745C5.38464 34.5835 5.38464 34.4926 5.38463 34.4016C5.38462 34.2192 5.38461 34.0368 5.38459 33.8544C5.38458 33.6408 5.38456 33.4273 5.38455 33.2137C5.38454 33.1526 5.38454 33.0915 5.38454 33.0304C5.3844 31.0678 5.38382 29.1051 5.38293 27.1425C5.38229 25.732 5.3817 24.3215 5.38152 22.911C5.38152 22.8819 5.38152 22.8529 5.38151 22.823C5.38144 22.1858 5.38139 21.5486 5.38138 20.9114C5.38137 20.6834 5.38137 20.4554 5.38136 20.2274C5.38135 20.1706 5.38135 20.1139 5.38135 20.0572C5.38131 19.1543 5.38093 18.2513 5.38038 17.3484C5.3798 16.4133 5.37964 15.4782 5.37996 14.5431C5.38013 14.0042 5.37998 13.4654 5.37937 12.9265C5.379 12.5663 5.37905 12.2062 5.37943 11.846C5.37964 11.6409 5.37966 11.4359 5.37918 11.2308C5.37874 11.0438 5.37885 10.8568 5.37936 10.6698C5.37945 10.603 5.37936 10.5362 5.37904 10.4694C5.37628 9.85095 5.41643 9.20565 5.62811 8.61934C5.63953 8.58656 5.65096 8.55379 5.66273 8.52002C6.08612 7.35132 6.95328 6.39058 8.0744 5.85556C8.78399 5.52955 9.49634 5.38895 10.2753 5.39045Z" fill="#165056"/>
<path d="M33.4637 10.7044C33.492 10.7043 33.5202 10.7042 33.5494 10.7041C33.6442 10.7038 33.739 10.704 33.8338 10.7042C33.9025 10.7041 33.9711 10.7039 34.0397 10.7038C34.2284 10.7034 34.4171 10.7035 34.6058 10.7036C34.8092 10.7037 35.0127 10.7034 35.2161 10.7031C35.6148 10.7026 36.0134 10.7025 36.412 10.7026C36.736 10.7027 37.0599 10.7026 37.3839 10.7025C37.453 10.7024 37.453 10.7024 37.5235 10.7024C37.6171 10.7023 37.7107 10.7023 37.8043 10.7022C38.6825 10.7018 39.5606 10.7019 40.4387 10.7021C41.2423 10.7023 42.0459 10.7019 42.8495 10.7012C43.6744 10.7004 44.4993 10.7001 45.3241 10.7003C45.7873 10.7003 46.2505 10.7002 46.7137 10.6997C47.1081 10.6993 47.5024 10.6992 47.8967 10.6997C48.098 10.6999 48.2992 10.6999 48.5004 10.6995C48.6846 10.6991 48.8688 10.6992 49.053 10.6997C49.1196 10.6998 49.1863 10.6997 49.2529 10.6994C49.3435 10.699 49.4341 10.6993 49.5248 10.6998C49.6002 10.6998 49.6002 10.6998 49.6773 10.6998C49.8991 10.7219 50.0696 10.7751 50.2342 10.9273C50.347 11.0813 50.3989 11.2562 50.4551 11.4367C50.4677 11.4761 50.4804 11.5154 50.4935 11.5559C50.5382 11.696 50.5819 11.8364 50.6253 11.9769C50.6337 12.0039 50.642 12.0308 50.6506 12.0585C50.7889 12.5047 50.9248 12.9517 51.0602 13.3988C51.1556 13.7137 51.2511 14.0286 51.3467 14.3434C51.357 14.3775 51.3673 14.4115 51.378 14.4466C51.5011 14.8523 51.6259 15.2573 51.755 15.6612C51.7732 15.7183 51.7732 15.7183 51.7918 15.7767C51.8441 15.9412 51.897 16.1054 51.9511 16.2694C52.0613 16.6102 52.1788 16.9748 52.0148 17.3149C51.9856 17.3465 51.9564 17.3781 51.9263 17.4106C51.9003 17.439 51.8743 17.4674 51.8474 17.4967C51.6804 17.5962 51.5049 17.6148 51.3141 17.6402C51.358 17.6634 51.402 17.6866 51.4473 17.7105C51.9848 17.9985 52.4377 18.3308 52.883 18.7499C52.9083 18.7728 52.9337 18.7957 52.9598 18.8193C53.6514 19.4688 54.1112 20.4147 54.3681 21.3161C54.3751 21.3403 54.3821 21.3646 54.3893 21.3896C54.413 21.4786 54.4323 21.5681 54.4518 21.6581C54.4614 21.6984 54.4709 21.7387 54.4806 21.7802C54.6078 22.3776 54.5822 22.9902 54.5795 23.5976C54.579 23.7597 54.579 23.9219 54.579 24.084C54.5788 24.3554 54.5783 24.6267 54.5774 24.898C54.5763 25.2467 54.5759 25.5953 54.5757 25.9439C54.5756 26.2442 54.5751 26.5446 54.5746 26.8449C54.5744 26.9413 54.5743 27.0377 54.5742 27.1342C54.574 27.285 54.5736 27.4359 54.5731 27.5868C54.5729 27.6422 54.5728 27.6977 54.5728 27.7531C54.5727 27.8285 54.5724 27.9038 54.572 27.9792C54.5719 28.0214 54.5718 28.0637 54.5717 28.1072C54.5666 28.2014 54.5666 28.2014 54.5284 28.2397C54.4456 28.2545 54.4456 28.2545 54.3371 28.2397C54.2486 28.1763 54.1727 28.1143 54.0931 28.0412C54.0453 27.9987 53.9975 27.9563 53.9498 27.9138C53.913 27.8807 53.913 27.8807 53.8755 27.847C53.7573 27.7411 53.6369 27.6378 53.5167 27.5342C53.4691 27.4929 53.4215 27.4516 53.3738 27.4103C53.35 27.3896 53.3261 27.3689 53.3016 27.3475C53.224 27.2801 53.1464 27.2126 53.0689 27.1451C53.043 27.1226 53.0171 27.1 52.9904 27.0768C52.9408 27.0337 52.8912 26.9905 52.8417 26.9473C52.8193 26.9278 52.7968 26.9083 52.7737 26.8882C52.7443 26.8625 52.7443 26.8625 52.7143 26.8364C52.6529 26.7826 52.6529 26.7826 52.5747 26.738C52.5003 26.6708 52.5003 26.6708 52.4779 26.5778C52.4763 26.5399 52.4748 26.502 52.4732 26.463C52.471 26.4183 52.4689 26.3736 52.4667 26.3276C52.4651 26.2762 52.4636 26.2248 52.4621 26.1734C52.4599 26.1162 52.4578 26.059 52.4556 26.0019C52.4496 25.8383 52.4448 25.6747 52.4403 25.5111C52.4372 25.4014 52.4339 25.2917 52.4305 25.182C52.421 24.8705 52.4115 24.559 52.4029 24.2474C52.3975 24.0558 52.3917 23.8642 52.3856 23.6726C52.3834 23.6004 52.3813 23.5282 52.3795 23.4561C52.3643 22.8729 52.3255 22.2799 52.1296 21.725C52.1198 21.6968 52.1101 21.6686 52.1 21.6395C51.7487 20.6699 51.0237 20.0459 50.1159 19.6037C49.7146 19.4273 49.254 19.2812 48.8146 19.2805C48.7414 19.2802 48.7414 19.2802 48.6668 19.28C48.613 19.28 48.5593 19.28 48.5055 19.2801C48.4487 19.2799 48.3919 19.2798 48.335 19.2797C48.181 19.2793 48.0269 19.2792 47.8728 19.2792C47.7442 19.2792 47.6156 19.279 47.4871 19.2789C47.1839 19.2786 46.8807 19.2785 46.5776 19.2785C46.2645 19.2785 45.9514 19.2781 45.6384 19.2775C45.3697 19.277 45.101 19.2768 44.8323 19.2769C44.6718 19.2769 44.5112 19.2768 44.3507 19.2764C44.1999 19.276 44.0491 19.276 43.8983 19.2763C43.8429 19.2763 43.7874 19.2762 43.732 19.276C43.6566 19.2757 43.5811 19.2759 43.5057 19.2762C43.4634 19.2761 43.4211 19.2761 43.3775 19.2761C43.2722 19.2756 43.2722 19.2756 43.2018 19.3621C43.19 19.4566 43.19 19.4566 43.1916 19.5684C43.1913 19.6122 43.191 19.656 43.1906 19.7011C43.1907 19.7494 43.1907 19.7978 43.1907 19.8475C43.1905 19.8988 43.1902 19.95 43.19 20.0012C43.1893 20.1408 43.1891 20.2804 43.189 20.42C43.189 20.5075 43.1888 20.5949 43.1886 20.6824C43.1879 20.9884 43.1876 21.2944 43.1877 21.6004C43.1877 21.8841 43.1869 22.1678 43.1857 22.4515C43.1847 22.6959 43.1843 22.9403 43.1843 23.1848C43.1844 23.3303 43.1841 23.4759 43.1833 23.6215C43.1794 24.3676 43.2034 25.0742 43.4769 25.7788C43.4881 25.8084 43.4994 25.8379 43.511 25.8684C43.702 26.353 43.9604 26.7823 44.3115 27.1683C44.3354 27.1952 44.3592 27.2221 44.3837 27.2499C44.9658 27.8722 45.8844 28.2902 46.7355 28.3208C46.7798 28.3207 46.8241 28.3207 46.8697 28.3206C46.9067 28.3206 46.9067 28.3206 46.9445 28.3206C47.025 28.3206 47.1055 28.3203 47.1861 28.32C47.2423 28.3199 47.2986 28.3198 47.3548 28.3198C47.5021 28.3197 47.6493 28.3193 47.7966 28.3189C47.9472 28.3185 48.0977 28.3183 48.2483 28.3181C48.5432 28.3177 48.8381 28.317 49.133 28.3162C49.0253 28.2384 48.9176 28.1607 48.81 28.0829C48.78 28.0612 48.75 28.0396 48.7191 28.0173C48.5398 27.8877 48.3603 27.7583 48.1808 27.6291C48.0388 27.5268 47.8971 27.4241 47.7554 27.3213C47.7237 27.2983 47.692 27.2754 47.6594 27.2517C47.5621 27.181 47.465 27.1101 47.368 27.0391C47.3385 27.0177 47.3091 26.9964 47.2788 26.9743C46.7269 26.5693 46.7269 26.5693 46.6457 26.3647C46.6447 26.1296 46.7835 25.9801 46.9208 25.8027C46.9694 25.7382 47.018 25.6737 47.0666 25.6093C47.1044 25.5597 47.1044 25.5597 47.1429 25.5091C47.2678 25.3448 47.3909 25.1792 47.5139 25.0134C47.5363 24.9835 47.5588 24.9536 47.582 24.9228C47.751 24.701 47.751 24.701 47.8702 24.4514C47.8379 24.273 47.7622 24.1712 47.6382 24.0425C47.5139 23.9098 47.3956 23.7755 47.2819 23.6335C47.141 23.4593 46.9929 23.2945 46.8404 23.1306C46.6949 22.9733 46.5599 22.809 46.4256 22.642C46.3362 22.5341 46.2432 22.4308 46.1483 22.3277C45.9912 22.157 45.8438 21.9808 45.6985 21.8001C45.583 21.6606 45.4598 21.5289 45.3351 21.3975C45.2691 21.3149 45.245 21.2639 45.2299 21.1606C45.4501 21.1808 45.618 21.2687 45.8111 21.3687C45.8452 21.386 45.8792 21.4034 45.9144 21.4212C46.1542 21.5437 46.3922 21.6698 46.6299 21.7964C46.9765 21.9795 47.328 22.153 47.6789 22.3277C48.4932 22.7332 48.4932 22.7332 48.861 22.9313C49.0529 23.0339 49.2474 23.1305 49.4428 23.226C49.499 23.2536 49.5552 23.2812 49.6114 23.3088C49.6956 23.3502 49.7798 23.3913 49.8644 23.432C49.9432 23.4699 50.0217 23.5084 50.1002 23.547C50.1239 23.5581 50.1476 23.5693 50.172 23.5809C50.3236 23.6562 50.4185 23.7351 50.5105 23.8774C50.5312 24.1356 50.3759 24.2982 50.223 24.4934C49.9968 24.783 49.7754 25.0765 49.5539 25.3698C49.5336 25.3966 49.5133 25.4235 49.4924 25.4511C49.4421 25.5184 49.3926 25.5862 49.3434 25.6544C49.3038 25.7088 49.3038 25.7088 49.2633 25.7643C49.1998 25.8859 49.1932 25.9614 49.2095 26.0968C49.2711 26.1728 49.3269 26.2257 49.4008 26.2882C49.4283 26.3134 49.4557 26.3386 49.4839 26.3645C49.6964 26.5597 49.9164 26.7438 50.1406 26.9252C50.2692 27.0295 50.397 27.1348 50.5249 27.24C50.5528 27.263 50.5807 27.286 50.6095 27.3096C50.8006 27.4672 50.9901 27.6264 51.1788 27.7867C51.3748 27.9532 51.5738 28.1158 51.7733 28.278C52.0198 28.4784 52.2642 28.681 52.5064 28.8867C52.7064 29.0563 52.9091 29.2223 53.1126 29.3877C53.3609 29.5895 53.6072 29.7933 53.8502 30.0015C53.9993 30.1285 54.153 30.2463 54.3137 30.3583C54.3933 30.4391 54.404 30.5007 54.4136 30.6121C54.3459 30.6798 54.2557 30.6553 54.1655 30.6558C54.1351 30.6557 54.1046 30.6557 54.0733 30.6557C54.0411 30.6558 54.0089 30.6559 53.9757 30.656C53.8664 30.6563 53.7572 30.6563 53.6479 30.6563C53.5693 30.6565 53.4907 30.6566 53.4122 30.6568C53.1951 30.6573 52.9781 30.6575 52.7611 30.6577C52.5274 30.6579 52.2938 30.6583 52.0601 30.6587C51.522 30.6596 50.9839 30.6602 50.4457 30.6607C50.2596 30.6608 50.0734 30.661 49.8873 30.6612C48.8979 30.6621 47.9086 30.663 46.9192 30.6635C46.6899 30.6636 46.4606 30.6637 46.2312 30.6638C46.2028 30.6638 46.1743 30.6638 46.1449 30.6638C45.2212 30.6643 44.2975 30.6655 43.3738 30.6671C42.4245 30.6687 41.4752 30.6697 40.5259 30.6699C40.3919 30.67 40.2578 30.67 40.1237 30.6701C40.0974 30.6701 40.071 30.6701 40.0438 30.6701C39.619 30.6702 39.1942 30.671 38.7694 30.672C38.3424 30.673 37.9154 30.6733 37.4884 30.6729C37.2571 30.6727 37.0257 30.6728 36.7943 30.6737C36.5826 30.6746 36.3708 30.6746 36.1591 30.6738C36.0824 30.6737 36.0058 30.6739 35.9291 30.6745C35.8249 30.6752 35.7209 30.6748 35.6167 30.6741C35.572 30.6748 35.572 30.6748 35.5263 30.6755C35.301 30.672 35.151 30.598 34.9748 30.4591C34.8321 30.298 34.8165 30.0941 34.8217 29.8851C34.8875 29.6624 34.9981 29.5059 35.1976 29.383C35.2996 29.3419 35.3781 29.3402 35.488 29.3407C35.5293 29.3407 35.5707 29.3407 35.6133 29.3407C35.6577 29.3411 35.7021 29.3415 35.7479 29.3419C35.8164 29.3421 35.8164 29.3421 35.8862 29.3422C36.032 29.3427 36.1778 29.3436 36.3237 29.3446C36.4225 29.345 36.5214 29.3453 36.6202 29.3456C36.8626 29.3465 37.1049 29.3478 37.3473 29.3494C37.3518 29.3141 37.3563 29.2789 37.361 29.2425C37.4638 28.4778 37.7202 27.8013 38.3422 27.307C38.5228 27.1795 38.7294 27.0535 38.9544 27.0535C38.9544 26.5231 38.9544 25.9928 38.9544 25.4463C38.7814 25.4469 38.6083 25.4475 38.4301 25.4481C37.8581 25.4501 37.2861 25.4513 36.7141 25.4523C36.3674 25.4529 36.0206 25.4537 35.6739 25.455C35.3715 25.4561 35.0692 25.4569 34.7668 25.4571C34.6068 25.4573 34.4469 25.4576 34.2869 25.4585C34.136 25.4592 33.9852 25.4595 33.8344 25.4593C33.7793 25.4593 33.7242 25.4596 33.669 25.46C33.1195 25.4642 32.7026 25.3605 32.2862 24.9858C31.8836 24.5633 31.7045 24 31.663 23.4275C31.6597 23.3828 31.6565 23.338 31.6531 23.2919C31.6506 23.2579 31.6482 23.2238 31.6457 23.1887C31.6072 23.1891 31.6072 23.1891 31.5679 23.1894C31.2997 23.192 31.0315 23.1937 30.7634 23.195C30.6634 23.1956 30.5634 23.1963 30.4634 23.1973C30.3194 23.1987 30.1754 23.1994 30.0314 23.1999C29.987 23.2005 29.9425 23.2011 29.8967 23.2017C29.5959 23.2017 29.3626 23.182 29.125 22.9806C28.9788 22.8043 28.9446 22.6709 28.9497 22.4441C28.9901 22.1301 29.1092 21.832 29.2111 21.5337C29.2382 21.4528 29.2652 21.372 29.2921 21.2911C29.353 21.1085 29.4142 20.9261 29.4756 20.7437C29.5901 20.4029 29.7024 20.0613 29.8147 19.7197C29.8249 19.6887 29.835 19.6577 29.8455 19.6257C29.8874 19.4983 29.9293 19.3709 29.9711 19.2434C30.0465 19.014 30.122 18.7846 30.1975 18.5552C30.2136 18.5063 30.2136 18.5063 30.23 18.4565C30.2516 18.3909 30.2732 18.3254 30.2948 18.2598C30.5177 17.5831 30.7399 16.9062 30.9617 16.2292C31.2276 15.4178 31.4938 14.6065 31.7603 13.7953C31.7994 13.6763 31.8385 13.5573 31.8776 13.4384C31.8915 13.3961 31.8915 13.3961 31.9056 13.353C31.9241 13.2967 31.9426 13.2405 31.961 13.1842C32.0061 13.047 32.0513 12.9098 32.0968 12.7727C32.1802 12.5212 32.2626 12.2696 32.3415 12.0167C32.3781 11.8999 32.4152 11.7833 32.4525 11.6668C32.47 11.6116 32.4871 11.5564 32.5039 11.5011C32.6594 10.9892 32.6594 10.9892 32.8728 10.8286C33.0693 10.7279 33.2443 10.7046 33.4637 10.7044ZM33.7503 12.0535C33.6487 12.3074 33.5542 12.5562 33.4729 12.8164C33.4626 12.8484 33.4524 12.8804 33.4418 12.9133C33.4321 12.944 33.4225 12.9747 33.4125 13.0064C33.4039 13.0338 33.3952 13.0612 33.3863 13.0895C33.363 13.169 33.363 13.169 33.3677 13.278C34.8072 13.278 36.2467 13.278 37.7299 13.278C37.8127 12.6673 37.8127 12.6673 37.8447 12.0535C36.4936 12.0535 35.1424 12.0535 33.7503 12.0535ZM39.184 12.0535C39.1012 12.6641 39.1012 12.6641 39.0692 13.278C40.6729 13.278 42.2766 13.278 43.9289 13.278C43.9033 12.8688 43.8649 12.4603 43.8141 12.0535C42.2862 12.0535 40.7582 12.0535 39.184 12.0535ZM45.1534 12.0535C45.1534 12.4634 45.2152 12.8714 45.2682 13.278C46.6951 13.278 48.122 13.278 49.5922 13.278C49.509 12.8622 49.3763 12.4575 49.2478 12.0535C47.8966 12.0535 46.5455 12.0535 45.1534 12.0535ZM32.9085 14.579C32.757 15.0336 32.6054 15.4882 32.4493 15.9565C32.4014 16.099 32.3534 16.2415 32.304 16.3884C32.2612 16.5155 32.2612 16.5155 32.2185 16.6427C32.1994 16.6993 32.1803 16.7559 32.1611 16.8125C32.132 16.8983 32.1032 16.9841 32.0744 17.07C32.0658 17.0952 32.0572 17.1204 32.0483 17.1464C32.0129 17.2527 31.9901 17.3359 31.9901 17.4489C33.7327 17.4489 35.4753 17.4489 37.2707 17.4489C37.3596 16.7779 37.3596 16.7779 37.4386 16.1059C37.4447 16.0499 37.4447 16.0499 37.451 15.9929C37.4593 15.9162 37.4677 15.8396 37.4759 15.763C37.4886 15.6458 37.5015 15.5286 37.5144 15.4115C37.5227 15.336 37.5308 15.2606 37.539 15.1851C37.5448 15.1333 37.5448 15.1333 37.5506 15.0804C37.5541 15.048 37.5575 15.0156 37.5611 14.9822C37.5642 14.9541 37.5672 14.926 37.5704 14.8971C37.5781 14.7913 37.5768 14.685 37.5768 14.579C36.0363 14.579 34.4957 14.579 32.9085 14.579ZM38.9161 14.579C38.865 14.9116 38.8182 15.2418 38.7819 15.576C38.7769 15.6213 38.7719 15.6667 38.7668 15.7135C38.7564 15.8084 38.746 15.9034 38.7357 15.9984C38.72 16.1435 38.7039 16.2886 38.6879 16.4337C38.6778 16.5264 38.6676 16.6192 38.6575 16.712C38.6528 16.7551 38.648 16.7982 38.6431 16.8426C38.6387 16.8831 38.6344 16.9236 38.6299 16.9653C38.6241 17.0182 38.6241 17.0182 38.6182 17.0723C38.6088 17.1975 38.61 17.3233 38.61 17.4489C39.3929 17.4489 40.1758 17.4489 40.9825 17.4489C40.9951 17.3479 41.0077 17.2468 41.0207 17.1428C41.0985 17.065 41.2585 17.0951 41.3654 17.0931C41.3975 17.0924 41.4296 17.0916 41.4627 17.0908C41.5693 17.0884 41.676 17.0862 41.7826 17.084C41.8563 17.0824 41.93 17.0807 42.0038 17.079C42.1982 17.0746 42.3927 17.0705 42.5871 17.0664C42.7854 17.0622 42.9836 17.0577 43.1819 17.0533C43.5712 17.0446 43.9605 17.0362 44.3498 17.028C44.3282 16.7046 44.3026 16.3824 44.2673 16.0603C44.2632 16.0223 44.2591 15.9844 44.2549 15.9453C44.2463 15.8662 44.2377 15.7872 44.229 15.7082C44.2158 15.5872 44.2027 15.4661 44.1897 15.345C44.1813 15.2678 44.1729 15.1905 44.1645 15.1132C44.1587 15.0592 44.1587 15.0592 44.1527 15.004C44.1472 14.9538 44.1472 14.9538 44.1415 14.9025C44.1383 14.8732 44.1351 14.8439 44.1318 14.8137C44.1198 14.7193 44.1198 14.7193 44.082 14.579C42.3772 14.579 40.6725 14.579 38.9161 14.579ZM45.4212 14.579C45.4537 15.1025 45.4537 15.1025 45.5037 15.6237C45.5078 15.6607 45.5119 15.6978 45.5162 15.736C45.5247 15.813 45.5333 15.8899 45.542 15.9668C45.5553 16.0848 45.5683 16.2028 45.5813 16.3209C45.5897 16.3962 45.5981 16.4715 45.6066 16.5468C45.6105 16.582 45.6143 16.6171 45.6183 16.6533C45.622 16.6858 45.6257 16.7183 45.6295 16.7518C45.6327 16.7803 45.6359 16.8088 45.6392 16.8381C45.6499 16.9211 45.6499 16.9211 45.6891 17.028C45.7296 17.0275 45.7702 17.0271 45.8119 17.0267C46.1985 17.0228 46.5851 17.0199 46.9716 17.018C47.1703 17.0171 47.3689 17.0157 47.5675 17.0135C49.2839 16.9951 49.2839 16.9951 50.0513 17.2193C50.0781 17.2268 50.1048 17.2342 50.1323 17.2419C50.2774 17.283 50.4192 17.3302 50.5607 17.3819C50.6363 17.4085 50.7119 17.435 50.7875 17.4614C50.8349 17.4785 50.8349 17.4785 50.8832 17.496C50.9625 17.523 51.0412 17.5447 51.1228 17.5637C51.088 17.5282 51.0533 17.4926 51.0175 17.4561C50.9226 17.3449 50.867 17.246 50.8191 17.1081C50.8062 17.0709 50.7933 17.0337 50.78 16.9954C50.7092 16.7814 50.642 16.5665 50.5758 16.351C50.5607 16.302 50.5456 16.253 50.5304 16.2041C50.4911 16.0766 50.4518 15.9491 50.4125 15.8216C50.3569 15.6409 50.3012 15.4602 50.2454 15.2796C50.2158 15.1837 50.1862 15.0877 50.1568 14.9918C50.1435 14.9487 50.1302 14.9056 50.1165 14.8613C50.1048 14.8233 50.0931 14.7853 50.0811 14.7461C50.054 14.6562 50.054 14.6562 50.0131 14.579C48.4978 14.579 46.9825 14.579 45.4212 14.579ZM31.5309 18.7499C30.9277 20.1756 30.9277 20.1756 30.536 21.8494C32.5943 21.8494 34.6526 21.8494 36.7733 21.8494C36.8283 21.7394 36.8306 21.6337 36.844 21.5114C36.847 21.4845 36.85 21.4576 36.8531 21.4299C36.8629 21.3408 36.8726 21.2516 36.8822 21.1624C36.889 21.1004 36.8959 21.0385 36.9027 20.9765C36.9169 20.8464 36.9311 20.7163 36.9452 20.5862C36.9633 20.4198 36.9815 20.2534 36.9999 20.087C37.014 19.9589 37.028 19.8308 37.042 19.7027C37.0486 19.6414 37.0554 19.5801 37.0621 19.5187C37.0716 19.4328 37.0809 19.3468 37.0902 19.2608C37.0955 19.2119 37.1008 19.163 37.1063 19.1126C37.1166 18.9921 37.1177 18.8709 37.1177 18.7499C35.274 18.7499 33.4304 18.7499 31.5309 18.7499ZM38.457 18.7499C38.3963 19.1378 38.3963 19.1378 38.3471 19.5262C38.3418 19.5747 38.3364 19.6232 38.3309 19.6732C38.3254 19.7242 38.3199 19.7752 38.3144 19.8263C38.3085 19.8801 38.3026 19.9339 38.2967 19.9877C38.2844 20.0994 38.2723 20.2111 38.2602 20.3228C38.2447 20.4657 38.2291 20.6087 38.2134 20.7516C38.2012 20.8623 38.1892 20.9729 38.1771 21.0836C38.1714 21.1363 38.1656 21.1891 38.1598 21.2418C38.1518 21.3152 38.1439 21.3886 38.1359 21.462C38.1314 21.5037 38.1269 21.5454 38.1222 21.5883C38.1103 21.7037 38.1103 21.7037 38.1126 21.8494C39.0596 21.8494 40.0067 21.8494 40.9825 21.8494C40.9825 20.8266 40.9825 19.8037 40.9825 18.7499C40.149 18.7499 39.3156 18.7499 38.457 18.7499ZM32.985 23.1887C32.985 23.4838 33.0195 23.8148 33.2385 24.0377C33.3868 24.1508 33.4702 24.1502 33.6562 24.1506C33.6822 24.1507 33.7082 24.1508 33.735 24.1509C33.8225 24.1512 33.91 24.1513 33.9976 24.1513C34.0602 24.1515 34.1228 24.1517 34.1854 24.1519C34.3204 24.1524 34.4554 24.1527 34.5905 24.1529C34.804 24.1533 35.0175 24.1541 35.2311 24.155C35.8383 24.1573 36.4456 24.1594 37.0529 24.1607C37.3881 24.1614 37.7233 24.1625 38.0585 24.164C38.236 24.1648 38.4134 24.1654 38.5908 24.1655C38.7578 24.1656 38.9248 24.1662 39.0917 24.1672C39.153 24.1675 39.2142 24.1676 39.2754 24.1674C39.3592 24.1673 39.4428 24.1678 39.5265 24.1686C39.5968 24.1688 39.5968 24.1688 39.6684 24.169C39.861 24.191 39.9848 24.253 40.1143 24.3964C40.226 24.5578 40.2233 24.682 40.2239 24.8734C40.2242 24.9051 40.2244 24.9368 40.2247 24.9695C40.2254 25.0749 40.2259 25.1802 40.2263 25.2855C40.2264 25.3214 40.2266 25.3574 40.2267 25.3944C40.2275 25.5847 40.2281 25.7751 40.2284 25.9654C40.2289 26.1619 40.2302 26.3584 40.2317 26.5549C40.2327 26.7061 40.233 26.8572 40.2332 27.0084C40.2334 27.0808 40.2338 27.1532 40.2345 27.2257C40.2354 27.3272 40.2354 27.4286 40.2351 27.5301C40.2359 27.5748 40.2359 27.5748 40.2366 27.6205C40.2347 27.8185 40.1929 27.9284 40.0641 28.0866C39.9162 28.2166 39.7907 28.2421 39.5977 28.2517C39.3574 28.2732 39.1765 28.3232 39.0034 28.4971C38.7916 28.7577 38.7334 29.0214 38.6865 29.3494C40.0629 29.3494 41.4393 29.3494 42.8575 29.3494C42.7217 29.191 42.5893 29.0401 42.4461 28.8902C40.9892 27.2869 41.0171 25.2659 40.9825 23.1887C38.3433 23.1887 35.7041 23.1887 32.985 23.1887Z" fill="#154F55"/>
<path d="M46.5901 16.9852C46.896 16.9818 47.202 16.9791 47.508 16.9774C47.6632 16.9765 47.8183 16.9753 47.9734 16.9733C48.686 16.9641 49.3576 16.9977 50.0516 17.1812C50.0778 17.1881 50.104 17.1949 50.131 17.202C50.2661 17.2382 50.3981 17.2803 50.5299 17.3271C50.5674 17.3401 50.605 17.3531 50.6436 17.3664C52.1233 17.8904 53.3164 18.9061 53.9961 20.3292C54.1442 20.6501 54.2715 20.9762 54.3684 21.3163C54.3789 21.3527 54.3789 21.3527 54.3896 21.3898C54.4132 21.4788 54.4325 21.5683 54.4521 21.6583C54.4664 21.7187 54.4664 21.7187 54.4809 21.7804C54.608 22.3778 54.5824 22.9905 54.5798 23.5978C54.5792 23.76 54.5793 23.9221 54.5792 24.0842C54.5791 24.3556 54.5785 24.6269 54.5777 24.8983C54.5765 25.2469 54.5762 25.5955 54.576 25.9442C54.5758 26.2445 54.5754 26.5448 54.5748 26.8451C54.5747 26.9415 54.5746 27.038 54.5745 27.1344C54.5743 27.2853 54.5739 27.4361 54.5733 27.587C54.5732 27.6424 54.573 27.6979 54.573 27.7534C54.5729 27.8287 54.5726 27.9041 54.5723 27.9794C54.5722 28.0217 54.572 28.0639 54.5719 28.1074C54.5669 28.2016 54.5669 28.2016 54.5286 28.2399C54.4458 28.2547 54.4458 28.2547 54.3373 28.2399C54.2489 28.1765 54.1729 28.1145 54.0934 28.0414C54.0456 27.999 53.9978 27.9565 53.95 27.9141C53.9133 27.8809 53.9133 27.8809 53.8757 27.8472C53.7576 27.7413 53.6372 27.638 53.517 27.5344C53.4693 27.4931 53.4217 27.4518 53.3741 27.4105C53.3502 27.3898 53.3264 27.3691 53.3018 27.3478C53.2242 27.2803 53.1467 27.2128 53.0692 27.1453C53.0303 27.1115 53.0303 27.1115 52.9906 27.077C52.941 27.0339 52.8915 26.9907 52.842 26.9475C52.8195 26.928 52.7971 26.9085 52.774 26.8884C52.7544 26.8713 52.7348 26.8542 52.7146 26.8366C52.6532 26.7829 52.6532 26.7829 52.575 26.7382C52.5006 26.671 52.5006 26.671 52.4781 26.5781C52.4766 26.5402 52.475 26.5023 52.4734 26.4632C52.4713 26.4185 52.4692 26.3738 52.467 26.3278C52.4654 26.2764 52.4638 26.225 52.4623 26.1736C52.4602 26.1164 52.458 26.0593 52.4558 26.0021C52.4499 25.8385 52.4451 25.6749 52.4405 25.5113C52.4374 25.4016 52.4341 25.2919 52.4308 25.1823C52.4212 24.8707 52.4118 24.5592 52.4031 24.2476C52.3978 24.056 52.392 23.8644 52.3859 23.6728C52.3836 23.6006 52.3816 23.5285 52.3797 23.4563C52.3646 22.8731 52.3257 22.2802 52.1299 21.7252C52.1201 21.697 52.1103 21.6688 52.1002 21.6397C51.749 20.6701 51.024 20.0461 50.1162 19.6039C49.7149 19.4275 49.2542 19.2814 48.8148 19.2807C48.7417 19.2805 48.7417 19.2805 48.6671 19.2802C48.6133 19.2802 48.5595 19.2802 48.5058 19.2803C48.4489 19.2802 48.3921 19.28 48.3353 19.2799C48.1812 19.2795 48.0271 19.2795 47.8731 19.2794C47.7445 19.2794 47.6159 19.2792 47.4873 19.2791C47.1841 19.2788 46.881 19.2787 46.5778 19.2787C46.2647 19.2788 45.9517 19.2784 45.6386 19.2778C45.3699 19.2773 45.1012 19.277 44.8325 19.2771C44.672 19.2771 44.5115 19.277 44.3509 19.2766C44.2002 19.2762 44.0494 19.2762 43.8986 19.2765C43.8431 19.2765 43.7877 19.2764 43.7323 19.2762C43.6568 19.2759 43.5814 19.2761 43.5059 19.2764C43.4636 19.2763 43.4213 19.2763 43.3778 19.2763C43.2724 19.2758 43.2724 19.2758 43.2021 19.3624C43.1902 19.4568 43.1902 19.4568 43.1919 19.5686C43.1914 19.6343 43.1914 19.6343 43.1909 19.7013C43.1909 19.7738 43.1909 19.7738 43.191 19.8478C43.1908 19.899 43.1905 19.9502 43.1902 20.0015C43.1895 20.141 43.1893 20.2806 43.1893 20.4202C43.1892 20.5077 43.1891 20.5952 43.1889 20.6826C43.1882 20.9886 43.1879 21.2947 43.1879 21.6007C43.188 21.8844 43.1872 22.168 43.1859 22.4517C43.1849 22.6961 43.1845 22.9406 43.1846 23.185C43.1846 23.3306 43.1844 23.4761 43.1836 23.6217C43.1797 24.3678 43.2037 25.0745 43.4771 25.779C43.4884 25.8086 43.4996 25.8382 43.5112 25.8687C43.7023 26.3533 43.9606 26.7825 44.3118 27.1685C44.3356 27.1954 44.3594 27.2223 44.384 27.2501C44.966 27.8724 45.8846 28.2905 46.7358 28.321C46.7801 28.321 46.8243 28.3209 46.87 28.3208C46.907 28.3208 46.907 28.3208 46.9447 28.3208C47.0253 28.3208 47.1058 28.3205 47.1863 28.3202C47.2426 28.3201 47.2988 28.3201 47.355 28.32C47.5023 28.3199 47.6496 28.3195 47.7968 28.3191C47.9474 28.3187 48.098 28.3185 48.2486 28.3183C48.5434 28.3179 48.8383 28.3172 49.1332 28.3164C49.0256 28.2387 48.9179 28.1609 48.8102 28.0831C48.7802 28.0614 48.7502 28.0398 48.7193 28.0175C48.54 27.8879 48.3606 27.7585 48.1811 27.6293C48.0391 27.527 47.8973 27.4243 47.7557 27.3215C47.724 27.2986 47.6923 27.2756 47.6597 27.2519C47.5624 27.1812 47.4653 27.1103 47.3682 27.0393C47.3388 27.018 47.3093 26.9966 47.279 26.9745C46.7271 26.5695 46.7271 26.5695 46.646 26.3649C46.645 26.1298 46.7838 25.9803 46.921 25.8029C46.9696 25.7384 47.0183 25.6739 47.0669 25.6095C47.0921 25.5764 47.1172 25.5434 47.1431 25.5094C47.268 25.345 47.3912 25.1794 47.5141 25.0137C47.5366 24.9838 47.5591 24.9539 47.5822 24.9231C47.7512 24.7012 47.7512 24.7012 47.8705 24.4516C47.8381 24.2732 47.7624 24.1714 47.6385 24.0427C47.5141 23.91 47.3958 23.7757 47.2821 23.6337C47.1413 23.4595 46.9932 23.2947 46.8407 23.1308C46.6952 22.9735 46.5602 22.8092 46.4258 22.6423C46.3365 22.5343 46.2434 22.431 46.1485 22.3279C45.9915 22.1573 45.844 21.981 45.6988 21.8003C45.5832 21.6608 45.46 21.5291 45.3354 21.3977C45.2694 21.3151 45.2452 21.2641 45.2302 21.1608C45.4503 21.181 45.6183 21.2689 45.8113 21.3689C45.8454 21.3862 45.8795 21.4036 45.9146 21.4214C46.1545 21.5439 46.3924 21.67 46.6302 21.7966C46.9768 21.9797 47.3283 22.1532 47.6791 22.3279C48.4935 22.7335 48.4935 22.7335 48.8613 22.9315C49.0532 23.0341 49.2476 23.1307 49.4431 23.2263C49.4993 23.2538 49.5555 23.2814 49.6116 23.309C49.6958 23.3504 49.7801 23.3916 49.8646 23.4322C49.9434 23.4701 50.022 23.5086 50.1005 23.5472C50.1242 23.5584 50.1478 23.5696 50.1722 23.5811C50.3239 23.6564 50.4187 23.7353 50.5108 23.8777C50.5314 24.1358 50.3761 24.2984 50.2233 24.4936C49.9971 24.7832 49.7756 25.0767 49.5541 25.37C49.5237 25.4103 49.5237 25.4103 49.4927 25.4513C49.4423 25.5186 49.3928 25.5864 49.3437 25.6546C49.3172 25.6909 49.2908 25.7271 49.2636 25.7645C49.2 25.8861 49.1935 25.9616 49.2098 26.0971C49.2713 26.173 49.3271 26.2259 49.4011 26.2884C49.4285 26.3136 49.4559 26.3388 49.4842 26.3648C49.6966 26.5599 49.9167 26.744 50.1409 26.9254C50.2694 27.0298 50.3973 27.135 50.5251 27.2402C50.5531 27.2632 50.581 27.2862 50.6098 27.3099C50.8008 27.4674 50.9904 27.6266 51.179 27.787C51.375 27.9534 51.574 28.116 51.7735 28.2782C52.0201 28.4786 52.2645 28.6813 52.5067 28.8869C52.7066 29.0565 52.9094 29.2225 53.1128 29.3879C53.3611 29.5897 53.6075 29.7935 53.8505 30.0017C53.9995 30.1287 54.1533 30.2465 54.314 30.3586C54.3936 30.4393 54.4043 30.5009 54.4138 30.6124C54.3425 30.6837 54.2403 30.6557 54.1453 30.6563C54.1119 30.6563 54.0785 30.6563 54.0441 30.6563C54.0089 30.6564 53.9737 30.6565 53.9375 30.6567C53.8185 30.6571 53.6996 30.6573 53.5807 30.6574C53.4958 30.6576 53.4109 30.6579 53.326 30.6582C53.0944 30.6588 52.8629 30.6592 52.6314 30.6595C52.4866 30.6597 52.3419 30.66 52.1971 30.6602C51.7959 30.6609 51.3947 30.6614 50.9935 30.6617C50.8893 30.6618 50.7851 30.6618 50.6809 30.6619C50.655 30.6619 50.6291 30.662 50.6024 30.662C50.1842 30.6623 49.766 30.6633 49.3477 30.6645C48.9178 30.6658 48.4878 30.6664 48.0579 30.6666C47.8167 30.6667 47.5756 30.667 47.3344 30.668C47.107 30.6689 46.8797 30.669 46.6523 30.6686C46.5692 30.6686 46.4862 30.6689 46.4032 30.6694C45.7815 30.6731 45.2262 30.5998 44.6418 30.378C44.6122 30.3668 44.5825 30.3557 44.5519 30.3442C44.0176 30.1362 43.5325 29.8637 43.0873 29.5027C43.0283 29.4588 42.9693 29.415 42.9103 29.3711C41.765 28.4668 41.1652 26.9863 40.991 25.5713C40.9769 25.4248 40.9773 25.2789 40.9776 25.1318C40.9775 25.0804 40.9775 25.0804 40.9773 25.028C40.9771 24.9138 40.9771 24.7997 40.9772 24.6855C40.977 24.6034 40.9769 24.5213 40.9768 24.4392C40.9764 24.2167 40.9763 23.9943 40.9763 23.7718C40.9763 23.5862 40.9761 23.4005 40.976 23.2149C40.9757 22.7772 40.9756 22.3396 40.9756 21.9019C40.9756 21.4499 40.9752 20.9978 40.9746 20.5458C40.9741 20.1579 40.9739 19.7699 40.974 19.3819C40.974 19.1502 40.9739 18.9184 40.9735 18.6866C40.9731 18.4689 40.9731 18.2513 40.9734 18.0336C40.9734 17.9535 40.9733 17.8735 40.9731 17.7934C40.9728 17.6845 40.973 17.5757 40.9733 17.4668C40.9731 17.4348 40.9729 17.4027 40.9727 17.3698C40.974 17.1517 40.974 17.1517 41.0592 17.0664C41.1703 17.0546 41.1703 17.0546 41.3152 17.0514C41.3418 17.0507 41.3683 17.05 41.3956 17.0493C41.4848 17.0471 41.5739 17.0455 41.6631 17.0439C41.7268 17.0425 41.7905 17.041 41.8542 17.0396C42.0612 17.0351 42.2681 17.0315 42.4751 17.0282C42.5092 17.0276 42.5434 17.0271 42.5786 17.0265C43.6509 17.0094 44.7233 17.0015 45.7957 16.9929C46.0605 16.9908 46.3253 16.9881 46.5901 16.9852Z" fill="#115056"/>
<path d="M13.2562 45.4831C13.3256 45.4829 13.3256 45.4829 13.3964 45.4826C13.5241 45.4823 13.6519 45.4825 13.7797 45.4829C13.9189 45.4833 14.0581 45.4829 14.1974 45.4827C14.4412 45.4823 14.685 45.4824 14.9288 45.4827C15.2914 45.4832 15.6539 45.4831 16.0165 45.4828C16.664 45.4824 17.3116 45.4826 17.9591 45.483C18.5257 45.4834 19.0924 45.4836 19.659 45.4836C19.7154 45.4836 19.7154 45.4836 19.7729 45.4836C19.9255 45.4835 20.078 45.4835 20.2306 45.4835C21.6618 45.4834 23.0929 45.4838 24.5241 45.4846C25.7957 45.4853 27.0674 45.4856 28.339 45.4854C28.4207 45.4853 28.5023 45.4853 28.584 45.4853C28.6446 45.4853 28.6446 45.4853 28.7064 45.4853C28.9096 45.4853 29.1128 45.4852 29.316 45.4852C29.3561 45.4852 29.3962 45.4852 29.4375 45.4852C30.5 45.485 31.5625 45.4852 32.625 45.4856C32.7393 45.4856 32.8536 45.4856 32.9679 45.4857C33.0438 45.4857 33.1196 45.4857 33.1954 45.4857C33.7242 45.4859 34.253 45.4859 34.7818 45.4859C35.4632 45.4858 36.1446 45.4859 36.826 45.4865C37.1864 45.4868 37.5468 45.4869 37.9072 45.4867C38.1479 45.4866 38.3885 45.4868 38.6292 45.4872C38.7664 45.4874 38.9035 45.4875 39.0407 45.4872C39.1884 45.487 39.3362 45.4873 39.484 45.4877C39.5265 45.4875 39.5691 45.4874 39.6129 45.4872C40.0358 45.4893 40.3679 45.5466 40.6831 45.8436C40.9855 46.1637 41.0445 46.4112 41.034 46.8511C41.0028 47.1808 40.8389 47.4174 40.6 47.6403C40.2715 47.8996 39.9313 47.9195 39.5263 47.9179C39.4571 47.9181 39.4571 47.9181 39.3865 47.9183C39.2584 47.9185 39.1304 47.9184 39.0023 47.9182C38.863 47.9181 38.7237 47.9183 38.5843 47.9186C38.3401 47.9189 38.096 47.919 37.8518 47.9188C37.4887 47.9186 37.1256 47.9188 36.7624 47.9192C36.0762 47.9197 35.39 47.9198 34.7037 47.9197C34.1738 47.9197 33.6439 47.9197 33.114 47.9199C33.0379 47.9199 32.9618 47.9199 32.8857 47.92C32.771 47.92 32.6564 47.92 32.5417 47.9201C31.4753 47.9204 30.4089 47.9205 29.3425 47.9204C29.3023 47.9204 29.2621 47.9204 29.2206 47.9204C29.0168 47.9203 28.813 47.9203 28.6092 47.9203C28.5687 47.9203 28.5283 47.9203 28.4866 47.9203C28.4047 47.9202 28.3229 47.9202 28.241 47.9202C26.9673 47.92 25.6936 47.9203 24.42 47.921C22.9892 47.9218 21.5585 47.9222 20.1277 47.9221C19.9752 47.922 19.8227 47.922 19.6701 47.922C19.6326 47.922 19.595 47.922 19.5563 47.922C18.9891 47.922 18.422 47.9222 17.8548 47.9226C17.2098 47.9231 16.5648 47.9231 15.9198 47.9227C15.5588 47.9224 15.1979 47.9225 14.8369 47.923C14.5957 47.9233 14.3546 47.9232 14.1134 47.9228C13.9761 47.9225 13.8387 47.9225 13.7013 47.9229C13.5532 47.9234 13.4051 47.923 13.2569 47.9225C13.2145 47.9228 13.172 47.923 13.1283 47.9233C12.6879 47.9203 12.3368 47.8362 12.0158 47.5255C11.7972 47.2982 11.7283 47.0102 11.6953 46.7028C11.7404 46.2817 11.8824 45.9635 12.2167 45.6935C12.5319 45.4961 12.8948 45.4807 13.2562 45.4831Z" fill="#165056"/>
<path d="M12.7877 39.5567C12.8275 39.5565 12.8674 39.5562 12.9084 39.556C12.952 39.5562 12.9956 39.5563 13.0405 39.5565C13.0872 39.5564 13.1338 39.5562 13.1818 39.5561C13.3117 39.5558 13.4416 39.5558 13.5715 39.556C13.7127 39.5562 13.8538 39.5558 13.995 39.5556C14.2425 39.5552 14.4901 39.5551 14.7376 39.5552C15.1057 39.5553 15.4738 39.555 15.8419 39.5546C16.5376 39.5538 17.2332 39.5536 17.9289 39.5536C18.466 39.5535 19.0031 39.5534 19.5403 39.5531C19.6948 39.5531 19.8493 39.553 20.0038 39.5529C20.0422 39.5529 20.0806 39.5529 20.1202 39.5529C21.2008 39.5524 22.2815 39.5521 23.3622 39.5521C23.4029 39.5521 23.4437 39.5521 23.4857 39.5521C23.6923 39.5521 23.8989 39.5521 24.1055 39.5522C24.1465 39.5522 24.1875 39.5522 24.2298 39.5522C24.3128 39.5522 24.3958 39.5522 24.4787 39.5522C25.7699 39.5522 27.061 39.5516 28.3521 39.5506C29.8021 39.5494 31.252 39.5488 32.7019 39.5488C32.8565 39.5488 33.011 39.5488 33.1656 39.5488C33.2227 39.5488 33.2227 39.5488 33.2809 39.5488C33.8938 39.5488 34.5068 39.5484 35.1197 39.5477C35.7355 39.547 36.3514 39.547 36.9672 39.5475C37.3332 39.5478 37.6992 39.5476 38.0652 39.5469C38.3096 39.5464 38.554 39.5465 38.7984 39.5471C38.9378 39.5474 39.0771 39.5474 39.2164 39.5468C39.3664 39.5461 39.5165 39.5467 39.6666 39.5473C39.7098 39.5469 39.7531 39.5465 39.7976 39.5461C40.1725 39.5495 40.4452 39.6557 40.7206 39.9107C40.9847 40.2054 41.0327 40.4977 41.0295 40.882C41.0038 41.2133 40.8607 41.4655 40.6161 41.685C40.3026 41.9337 39.9373 41.9557 39.5513 41.9533C39.5048 41.9535 39.4584 41.9537 39.4105 41.9539C39.2821 41.9543 39.1536 41.9541 39.0251 41.9538C38.8852 41.9535 38.7452 41.9539 38.6053 41.9543C38.3602 41.9547 38.1151 41.9548 37.8699 41.9545C37.5054 41.9542 37.1409 41.9545 36.7764 41.9549C36.1254 41.9557 35.4743 41.9558 34.8233 41.9556C34.2535 41.9554 33.6838 41.9554 33.114 41.9556C33.0376 41.9557 32.9612 41.9557 32.8847 41.9557C32.7696 41.9558 32.6544 41.9558 32.5393 41.9559C31.4687 41.9563 30.3981 41.9565 29.3275 41.9562C29.2871 41.9561 29.2467 41.9561 29.2052 41.9561C28.8774 41.956 28.5497 41.9559 28.2219 41.9558C26.9433 41.9554 25.6647 41.9558 24.3862 41.9566C22.9497 41.9576 21.5133 41.9581 20.0769 41.9579C19.9237 41.9578 19.7706 41.9578 19.6175 41.9578C19.5798 41.9578 19.5421 41.9578 19.5032 41.9578C18.9338 41.9577 18.3645 41.958 17.7951 41.9585C17.1476 41.9591 16.5002 41.9591 15.8528 41.9584C15.4904 41.958 15.1281 41.9581 14.7657 41.9588C14.5237 41.9592 14.2816 41.959 14.0396 41.9584C13.9017 41.9581 13.7638 41.958 13.6259 41.9586C13.4772 41.9592 13.3286 41.9586 13.1799 41.9579C13.1373 41.9583 13.0946 41.9587 13.0507 41.9591C12.6443 41.9553 12.3077 41.8509 12.0116 41.5671C11.7947 41.3123 11.6932 41.0187 11.6995 40.685C11.7284 40.3792 11.8486 40.1022 12.052 39.8725C12.2713 39.6918 12.4982 39.5568 12.7877 39.5567Z" fill="#165056"/>
<path d="M12.7802 33.9315C12.8059 33.9314 12.8317 33.9313 12.8582 33.9311C12.9443 33.9308 13.0303 33.931 13.1164 33.9312C13.1788 33.931 13.2412 33.9308 13.3037 33.9306C13.475 33.9302 13.6464 33.9302 13.8177 33.9303C14.0026 33.9303 14.1875 33.9299 14.3724 33.9295C14.7345 33.9289 15.0967 33.9286 15.4589 33.9286C15.7533 33.9286 16.0477 33.9284 16.3421 33.9282C17.1769 33.9275 18.0117 33.9271 18.8465 33.9272C18.8915 33.9272 18.9365 33.9272 18.9829 33.9272C19.0505 33.9272 19.0505 33.9272 19.1194 33.9272C19.8496 33.9272 20.5797 33.9265 21.3099 33.9254C22.0597 33.9243 22.8096 33.9238 23.5594 33.9239C23.9803 33.9239 24.4012 33.9237 24.8222 33.9229C25.1806 33.9222 25.539 33.922 25.8974 33.9225C26.0802 33.9228 26.2629 33.9228 26.4457 33.9221C26.6132 33.9215 26.7807 33.9216 26.9482 33.9223C27.0087 33.9224 27.0691 33.9223 27.1295 33.9218C27.552 33.919 27.9309 33.9408 28.2555 34.2379C28.5389 34.5487 28.6014 34.8681 28.5936 35.2772C28.5792 35.5878 28.4524 35.8306 28.241 36.0552C27.9589 36.2962 27.6521 36.3568 27.2896 36.357C27.2643 36.3571 27.2389 36.3572 27.2128 36.3572C27.1279 36.3574 27.043 36.3573 26.9581 36.3572C26.8966 36.3573 26.8351 36.3574 26.7736 36.3575C26.6046 36.3577 26.4357 36.3577 26.2667 36.3577C26.0845 36.3577 25.9022 36.3579 25.7199 36.358C25.3629 36.3584 25.0059 36.3585 24.6488 36.3585C24.3586 36.3585 24.0684 36.3586 23.7782 36.3587C22.9555 36.359 22.1327 36.3592 21.31 36.3592C21.2656 36.3592 21.2213 36.3592 21.1756 36.3592C21.109 36.3592 21.109 36.3592 21.041 36.3592C20.3212 36.3592 19.6014 36.3595 18.8816 36.3601C18.1425 36.3606 17.4035 36.3609 16.6645 36.3609C16.2495 36.3608 15.8346 36.3609 15.4197 36.3614C15.0664 36.3617 14.7131 36.3618 14.3599 36.3615C14.1796 36.3614 13.9994 36.3614 13.8192 36.3617C13.6541 36.362 13.4891 36.362 13.324 36.3616C13.2644 36.3616 13.2047 36.3617 13.1451 36.3619C12.6783 36.3634 12.2724 36.3526 11.9113 36.0256C11.6712 35.7705 11.5847 35.4935 11.5742 35.1467C11.5871 34.7355 11.7154 34.4529 12.0143 34.171C12.2493 33.9849 12.4838 33.9319 12.7802 33.9315Z" fill="#165056"/>
<path d="M12.8511 28.3352C12.9048 28.335 12.9585 28.3347 13.0122 28.3344C13.1593 28.3338 13.3063 28.3341 13.4534 28.3346C13.6122 28.3349 13.771 28.3344 13.9298 28.334C14.2407 28.3333 14.5516 28.3335 14.8624 28.3339C15.1151 28.3342 15.3678 28.3343 15.6205 28.3341C15.6565 28.3341 15.6925 28.3341 15.7295 28.334C15.8026 28.334 15.8757 28.334 15.9488 28.3339C16.634 28.3335 17.3192 28.334 18.0044 28.3348C18.5922 28.3355 19.18 28.3354 19.7678 28.3346C20.4506 28.3338 21.1333 28.3335 21.8161 28.334C21.8889 28.334 21.9618 28.3341 22.0346 28.3341C22.0883 28.3342 22.0883 28.3342 22.1431 28.3342C22.3955 28.3343 22.6478 28.3341 22.9002 28.3337C23.2078 28.3333 23.5153 28.3334 23.8229 28.3342C23.9798 28.3346 24.1367 28.3348 24.2936 28.3343C24.4373 28.3338 24.581 28.3341 24.7247 28.3349C24.8011 28.3352 24.8776 28.3347 24.954 28.3341C25.2673 28.3369 25.4731 28.3739 25.7219 28.5748C26.0131 28.9085 26.0939 29.2628 26.074 29.6988C26.0403 30.0465 25.919 30.2817 25.6882 30.5405C25.4186 30.761 25.1431 30.7434 24.8086 30.7419C24.7549 30.742 24.7012 30.7423 24.6475 30.7425C24.5004 30.7431 24.3533 30.7429 24.2061 30.7426C24.0473 30.7424 23.8885 30.7429 23.7296 30.7433C23.4186 30.744 23.1076 30.744 22.7966 30.7438C22.5438 30.7436 22.291 30.7437 22.0382 30.7439C22.0022 30.7439 21.9662 30.744 21.9292 30.744C21.8561 30.744 21.783 30.7441 21.7099 30.7442C21.0244 30.7447 20.3389 30.7445 19.6535 30.744C19.0264 30.7437 18.3994 30.7442 17.7723 30.7451C17.1284 30.746 16.4845 30.7464 15.8405 30.7461C15.479 30.746 15.1175 30.7461 14.756 30.7467C14.4483 30.7473 14.1406 30.7473 13.8329 30.7467C13.6759 30.7463 13.519 30.7463 13.362 30.7468C13.2182 30.7474 13.0745 30.7472 12.9307 30.7464C12.8542 30.7462 12.7777 30.7468 12.7012 30.7473C12.3878 30.7448 12.1821 30.7079 11.9332 30.5069C11.642 30.1731 11.5613 29.819 11.5809 29.383C11.6126 29.0588 11.7199 28.8192 11.9332 28.5748C12.2263 28.3381 12.4862 28.3327 12.8511 28.3352Z" fill="#165056"/>
<path d="M19.7705 13.2517C20.5198 13.8888 20.9861 14.767 21.0738 15.7476C21.1178 16.3904 21.0112 17.0018 20.7336 17.5846C20.6961 17.6921 20.7019 17.7263 20.7391 17.8316C20.8161 17.9185 20.8935 17.9992 20.9764 18.08C21.0135 18.1169 21.0135 18.1169 21.0514 18.1546C21.1053 18.208 21.1592 18.2612 21.2133 18.3144C21.299 18.3986 21.3843 18.4831 21.4695 18.5678C21.6813 18.7781 21.8937 18.9877 22.1062 19.1974C22.2855 19.3744 22.4646 19.5517 22.6433 19.7293C22.7272 19.8125 22.8114 19.8953 22.8957 19.978C22.9474 20.0293 22.9991 20.0807 23.0508 20.132C23.0741 20.1548 23.0975 20.1775 23.1216 20.201C23.2894 20.3687 23.4341 20.5386 23.4763 20.779C23.4722 21.1618 23.3843 21.3512 23.1235 21.6294C22.9063 21.8365 22.7052 21.9656 22.4013 21.9833C22.0798 21.9619 21.8648 21.7731 21.6482 21.5514C21.6224 21.5256 21.5966 21.4999 21.5701 21.4733C21.4856 21.3888 21.4018 21.3037 21.3179 21.2186C21.2592 21.1596 21.2004 21.1006 21.1416 21.0417C20.9875 20.887 20.8339 20.7319 20.6804 20.5767C20.5234 20.4182 20.366 20.2601 20.2086 20.1019C19.9003 19.792 19.5925 19.4816 19.285 19.1708C19.2456 19.1868 19.2062 19.2027 19.1656 19.2191C19.1134 19.2401 19.0612 19.2611 19.009 19.2821C18.983 19.2926 18.9571 19.3031 18.9304 19.3139C18.0488 19.6681 17.0516 19.664 16.1711 19.3075C15.6866 19.0995 15.2967 18.8125 14.9228 18.4438C14.8808 18.4025 14.8808 18.4025 14.8379 18.3604C14.2773 17.7709 13.9703 16.9533 13.9279 16.1479C13.9255 16.1041 13.9255 16.1041 13.9231 16.0594C13.8984 15.1186 14.2448 14.2574 14.8463 13.5458C14.8678 13.5204 14.8893 13.4949 14.9114 13.4687C16.1874 12.0896 18.3666 12.1506 19.7705 13.2517ZM15.5156 14.3056C15.0734 14.8697 14.8794 15.5104 14.9228 16.2244C15.0285 16.9765 15.376 17.5717 15.956 18.0611C16.605 18.5215 17.3048 18.634 18.0843 18.5423C18.5479 18.4398 18.9775 18.1902 19.3233 17.8698C19.3633 17.833 19.3633 17.833 19.404 17.7954C19.8477 17.3431 20.0791 16.6756 20.0982 16.0522C20.0882 15.3816 19.8495 14.7714 19.3998 14.2729C19.3809 14.2504 19.362 14.228 19.3424 14.2049C18.954 13.7766 18.3352 13.4675 17.7573 13.4257C16.8895 13.3865 16.1056 13.6339 15.5156 14.3056Z" fill="#115056"/>
<path d="M41.4414 29.3495C41.6448 29.3399 41.8481 29.3331 42.0517 29.3285C42.1207 29.3266 42.1897 29.324 42.2586 29.3206C42.6662 29.3014 42.9574 29.3061 43.2725 29.5842C43.3256 29.6333 43.3784 29.6827 43.4312 29.7322C43.5274 29.799 43.627 29.8561 43.7301 29.9115C43.7556 29.9254 43.781 29.9393 43.8071 29.9536C44.3919 30.2678 44.9992 30.482 45.6506 30.6123C45.6506 30.6249 45.6506 30.6375 45.6506 30.6505C45.4357 30.6563 45.2209 30.6604 45.006 30.6631C44.9333 30.6643 44.8605 30.6658 44.7878 30.6679C43.6231 30.6993 42.4588 30.1936 41.5562 29.4643C41.5176 29.4263 41.4793 29.3881 41.4414 29.3495Z" fill="#042B2B"/>
<path d="M40.3711 21.8496C40.5731 21.8496 40.7752 21.8496 40.9833 21.8496C40.9833 22.2789 40.9833 22.7083 40.9833 23.1506C40.7813 23.1506 40.5793 23.1506 40.3711 23.1506C40.3711 22.7213 40.3711 22.292 40.3711 21.8496Z" fill="#032B2B"/>
<path d="M40.3711 17.449C40.5731 17.449 40.7752 17.449 40.9833 17.449C40.9833 17.8783 40.9833 18.3076 40.9833 18.75C40.7813 18.75 40.5793 18.75 40.3711 18.75C40.3711 18.3207 40.3711 17.8913 40.3711 17.449Z" fill="#032B2B"/>
</svg>
