<svg width="226" height="36" viewBox="0 0 226 36" fill="none" xmlns="http://www.w3.org/2000/svg">
<path d="M225.865 29.6296C226.142 30.1073 225.979 30.7192 225.502 30.9964L217.716 35.5122C217.239 35.7893 216.627 35.6267 216.35 35.149C216.073 34.6713 216.235 34.0593 216.713 33.7822L223.633 29.7681L219.619 22.8481C219.342 22.3703 219.504 21.7584 219.982 21.4813C220.46 21.2042 221.072 21.3668 221.349 21.8445L225.865 29.6296ZM108.903 1.96209L108.65 0.994518L108.903 1.96209ZM119.092 1.9845L118.835 2.95095L119.092 1.9845ZM1 30.1313L0.747404 29.1638L2.16717 28.7931L2.41977 29.7607L2.67237 30.7283L1.2526 31.0989L1 30.1313ZM5.25931 29.0194L5.00672 28.0518L7.84626 27.3105L8.09885 28.2781L8.35145 29.2457L5.51191 29.987L5.25931 29.0194ZM10.9384 27.5368L10.6858 26.5692L13.5253 25.8279L13.7779 26.7955L14.0305 27.7631L11.191 28.5044L10.9384 27.5368ZM16.6175 26.0542L16.3649 25.0866L19.2044 24.3454L19.457 25.3129L19.7096 26.2805L16.8701 27.0218L16.6175 26.0542ZM22.2966 24.5716L22.044 23.6041L24.8835 22.8628L25.1361 23.8303L25.3887 24.7979L22.5492 25.5392L22.2966 24.5716ZM27.9756 23.089L27.7231 22.1215L30.5626 21.3802L30.8152 22.3477L31.0678 23.3153L28.2282 24.0566L27.9756 23.089ZM33.6547 21.6064L33.4021 20.6389L36.2417 19.8976L36.4943 20.8651L36.7469 21.8327L33.9073 22.574L33.6547 21.6064ZM39.3338 20.1238L39.0812 19.1563L41.9208 18.415L42.1734 19.3826L42.4259 20.3501L39.5864 21.0914L39.3338 20.1238ZM45.0129 18.6413L44.7603 17.6737L47.5998 16.9324L47.8524 17.9L48.105 18.8675L45.2655 19.6088L45.0129 18.6413ZM50.692 17.1587L50.4394 16.1911L53.2789 15.4498L53.5315 16.4174L53.7841 17.3849L50.9446 18.1262L50.692 17.1587ZM56.3711 15.6761L56.1185 14.7085L58.958 13.9672L59.2106 14.9348L59.4632 15.9023L56.6236 16.6436L56.3711 15.6761ZM62.0501 14.1935L61.7975 13.2259L64.6371 12.4846L64.8897 13.4522L65.1423 14.4198L62.3027 15.1611L62.0501 14.1935ZM67.7292 12.7109L67.4766 11.7433L70.3162 11.002L70.5688 11.9696L70.8214 12.9372L67.9818 13.6785L67.7292 12.7109ZM73.4083 11.2283L73.1557 10.2607L75.9952 9.51943L76.2478 10.487L76.5004 11.4546L73.6609 12.1959L73.4083 11.2283ZM79.0874 9.7457L78.8348 8.77813L81.6743 8.03684L81.9269 9.00441L82.1795 9.97198L79.34 10.7133L79.0874 9.7457ZM84.7665 8.26311L84.5139 7.29554L87.3534 6.55425L87.606 7.52182L87.8586 8.48939L85.0191 9.23068L84.7665 8.26311ZM90.4455 6.78052L90.1929 5.81295L93.0325 5.07166L93.2851 6.03923L93.5377 7.0068L90.6981 7.74809L90.4455 6.78052ZM96.1246 5.29793L95.872 4.33036L98.7116 3.58906L98.9642 4.55663L99.2168 5.52421L96.3772 6.2655L96.1246 5.29793ZM101.804 3.81534L101.551 2.84776L104.391 2.10647L104.643 3.07404L104.896 4.04161L102.056 4.78291L101.804 3.81534ZM107.483 2.33275L107.23 1.36517L108.65 0.994518L108.903 1.96209L109.155 2.92966L107.735 3.30032L107.483 2.33275ZM108.903 1.96209L108.65 0.994518C109.087 0.880445 109.527 0.780706 109.968 0.695297L110.158 1.67712L110.348 2.65894C109.948 2.73621 109.551 2.82645 109.155 2.92966L108.903 1.96209ZM112.711 1.35219L112.649 0.35412C113.549 0.298079 114.452 0.300064 115.352 0.360065L115.285 1.35785L115.219 2.35563C114.405 2.30135 113.588 2.29955 112.774 2.35025L112.711 1.35219ZM117.837 1.69401L118.031 0.71303C118.473 0.800383 118.912 0.902056 119.348 1.01805L119.092 1.9845L118.835 2.95095C118.44 2.846 118.042 2.75401 117.643 2.67498L117.837 1.69401ZM119.092 1.9845L119.348 1.01805L120.819 1.40898L120.562 2.37543L120.306 3.34188L118.835 2.95095L119.092 1.9845ZM123.504 3.15729L123.761 2.19083L126.703 2.97269L126.446 3.93914L126.189 4.90559L123.248 4.12374L123.504 3.15729ZM129.388 4.721L129.645 3.75455L132.587 4.53641L132.33 5.50286L132.073 6.46931L129.131 5.68745L129.388 4.721ZM135.272 6.28471L135.529 5.31826L138.471 6.10012L138.214 7.06657L137.957 8.03302L135.015 7.25116L135.272 6.28471ZM141.156 7.84843L141.413 6.88198L144.354 7.66383L144.098 8.63028L143.841 9.59673L140.899 8.81488L141.156 7.84843ZM147.04 9.41214L147.296 8.44569L150.238 9.22754L149.981 10.194L149.725 11.1604L146.783 10.3786L147.04 9.41214ZM152.923 10.9759L153.18 10.0094L156.122 10.7913L155.865 11.7577L155.608 12.7242L152.666 11.9423L152.923 10.9759ZM158.807 12.5396L159.064 11.5731L162.006 12.355L161.749 13.3214L161.492 14.2879L158.55 13.506L158.807 12.5396ZM164.691 14.1033L164.948 13.1368L167.89 13.9187L167.633 14.8851L167.376 15.8516L164.434 15.0697L164.691 14.1033ZM170.575 15.667L170.832 14.7005L173.773 15.4824L173.517 16.4488L173.26 17.4153L170.318 16.6334L170.575 15.667ZM176.458 17.2307L176.715 16.2643L179.657 17.0461L179.4 18.0126L179.144 18.979L176.202 18.1972L176.458 17.2307ZM182.342 18.7944L182.599 17.828L185.541 18.6098L185.284 19.5763L185.027 20.5427L182.085 19.7609L182.342 18.7944ZM188.226 20.3581L188.483 19.3917L191.425 20.1735L191.168 21.14L190.911 22.1064L187.969 21.3246L188.226 20.3581ZM194.11 21.9218L194.367 20.9554L197.309 21.7373L197.052 22.7037L196.795 23.6702L193.853 22.8883L194.11 21.9218ZM199.994 23.4856L200.25 22.5191L203.192 23.301L202.936 24.2674L202.679 25.2339L199.737 24.452L199.994 23.4856ZM205.877 25.0493L206.134 24.0828L209.076 24.8647L208.819 25.8311L208.562 26.7976L205.621 26.0157L205.877 25.0493ZM211.761 26.613L212.018 25.6465L214.96 26.4284L214.703 27.3949L214.446 28.3613L211.504 27.5794L211.761 26.613ZM217.645 28.1767L217.902 27.2103L220.844 27.9921L220.587 28.9586L220.33 29.925L217.388 29.1432L217.645 28.1767ZM223.529 29.7404L223.786 28.774L225.257 29.1649L225 30.1313L224.743 31.0978L223.272 30.7069L223.529 29.7404Z" fill="#56CD45"/>
</svg>
