<svg width="226" height="36" viewBox="0 0 226 36" fill="none" xmlns="http://www.w3.org/2000/svg">
<path d="M225.865 6.13311C226.142 5.65538 225.979 5.04346 225.502 4.76634L217.716 0.25047C217.239 -0.0266466 216.627 0.135982 216.35 0.613711C216.073 1.09144 216.235 1.70336 216.713 1.98048L223.633 5.99459L219.619 12.9146C219.342 13.3924 219.504 14.0043 219.982 14.2814C220.46 14.5585 221.072 14.3959 221.349 13.9182L225.865 6.13311ZM108.903 33.8006L108.65 34.7682L108.903 33.8006ZM119.092 33.7782L118.835 32.8117L119.092 33.7782ZM1 5.63135L0.747404 6.59892L2.16717 6.96957L2.41977 6.002L2.67237 5.03442L1.2526 4.66378L1 5.63135ZM5.25931 6.74329L5.00672 7.71086L7.84626 8.45216L8.09885 7.48459L8.35145 6.51702L5.51191 5.77572L5.25931 6.74329ZM10.9384 8.22588L10.6858 9.19346L13.5253 9.93475L13.7779 8.96718L14.0305 7.99961L11.191 7.25831L10.9384 8.22588ZM16.6175 9.70848L16.3649 10.676L19.2044 11.4173L19.457 10.4498L19.7096 9.4822L16.8701 8.74091L16.6175 9.70848ZM22.2966 11.1911L22.044 12.1586L24.8835 12.8999L25.1361 11.9324L25.3887 10.9648L22.5492 10.2235L22.2966 11.1911ZM27.9756 12.6737L27.7231 13.6412L30.5626 14.3825L30.8152 13.415L31.0678 12.4474L28.2282 11.7061L27.9756 12.6737ZM33.6547 14.1563L33.4021 15.1238L36.2417 15.8651L36.4943 14.8976L36.7469 13.93L33.9073 13.1887L33.6547 14.1563ZM39.3338 15.6388L39.0812 16.6064L41.9208 17.3477L42.1734 16.3801L42.4259 15.4126L39.5864 14.6713L39.3338 15.6388ZM45.0129 17.1214L44.7603 18.089L47.5998 18.8303L47.8524 17.8627L48.105 16.8952L45.2655 16.1539L45.0129 17.1214ZM50.692 18.604L50.4394 19.5716L53.2789 20.3129L53.5315 19.3453L53.7841 18.3778L50.9446 17.6365L50.692 18.604ZM56.3711 20.0866L56.1185 21.0542L58.958 21.7955L59.2106 20.8279L59.4632 19.8603L56.6236 19.1191L56.3711 20.0866ZM62.0501 21.5692L61.7975 22.5368L64.6371 23.2781L64.8897 22.3105L65.1423 21.3429L62.3027 20.6016L62.0501 21.5692ZM67.7292 23.0518L67.4766 24.0194L70.3162 24.7607L70.5688 23.7931L70.8214 22.8255L67.9818 22.0842L67.7292 23.0518ZM73.4083 24.5344L73.1557 25.502L75.9952 26.2433L76.2478 25.2757L76.5004 24.3081L73.6609 23.5668L73.4083 24.5344ZM79.0874 26.017L78.8348 26.9846L81.6743 27.7259L81.9269 26.7583L82.1795 25.7907L79.34 25.0494L79.0874 26.017ZM84.7665 27.4996L84.5139 28.4672L87.3534 29.2084L87.606 28.2409L87.8586 27.2733L85.0191 26.532L84.7665 27.4996ZM90.4455 28.9822L90.1929 29.9497L93.0325 30.691L93.2851 29.7235L93.5377 28.7559L90.6981 28.0146L90.4455 28.9822ZM96.1246 30.4648L95.872 31.4323L98.7116 32.1736L98.9642 31.2061L99.2168 30.2385L96.3772 29.4972L96.1246 30.4648ZM101.804 31.9474L101.551 32.9149L104.391 33.6562L104.643 32.6887L104.896 31.7211L102.056 30.9798L101.804 31.9474ZM107.483 33.4299L107.23 34.3975L108.65 34.7682L108.903 33.8006L109.155 32.833L107.735 32.4624L107.483 33.4299ZM108.903 33.8006L108.65 34.7682C109.087 34.8822 109.527 34.982 109.968 35.0674L110.158 34.0856L110.348 33.1038C109.948 33.0265 109.551 32.9362 109.155 32.833L108.903 33.8006ZM112.711 34.4105L112.649 35.4086C113.549 35.4646 114.452 35.4626 115.352 35.4026L115.285 34.4048L115.219 33.4071C114.405 33.4613 113.588 33.4631 112.774 33.4124L112.711 34.4105ZM117.837 34.0687L118.031 35.0497C118.473 34.9623 118.912 34.8606 119.348 34.7446L119.092 33.7782L118.835 32.8117C118.44 32.9167 118.042 33.0087 117.643 33.0877L117.837 34.0687ZM119.092 33.7782L119.348 34.7446L120.819 34.3537L120.562 33.3873L120.306 32.4208L118.835 32.8117L119.092 33.7782ZM123.504 32.6054L123.761 33.5719L126.703 32.79L126.446 31.8236L126.189 30.8571L123.248 31.639L123.504 32.6054ZM129.388 31.0417L129.645 32.0081L132.587 31.2263L132.33 30.2598L132.073 29.2934L129.131 30.0752L129.388 31.0417ZM135.272 29.478L135.529 30.4444L138.471 29.6626L138.214 28.6961L137.957 27.7297L135.015 28.5115L135.272 29.478ZM141.156 27.9143L141.413 28.8807L144.354 28.0989L144.098 27.1324L143.841 26.166L140.899 26.9478L141.156 27.9143ZM147.04 26.3506L147.296 27.317L150.238 26.5352L149.981 25.5687L149.725 24.6022L146.783 25.3841L147.04 26.3506ZM152.923 24.7868L153.18 25.7533L156.122 24.9714L155.865 24.005L155.608 23.0385L152.666 23.8204L152.923 24.7868ZM158.807 23.2231L159.064 24.1896L162.006 23.4077L161.749 22.4413L161.492 21.4748L158.55 22.2567L158.807 23.2231ZM164.691 21.6594L164.948 22.6259L167.89 21.844L167.633 20.8776L167.376 19.9111L164.434 20.693L164.691 21.6594ZM170.575 20.0957L170.832 21.0622L173.773 20.2803L173.517 19.3138L173.26 18.3474L170.318 19.1293L170.575 20.0957ZM176.458 18.532L176.715 19.4984L179.657 18.7166L179.4 17.7501L179.144 16.7837L176.202 17.5655L176.458 18.532ZM182.342 16.9683L182.599 17.9347L185.541 17.1529L185.284 16.1864L185.027 15.22L182.085 16.0018L182.342 16.9683ZM188.226 15.4046L188.483 16.371L191.425 15.5892L191.168 14.6227L190.911 13.6563L187.969 14.4381L188.226 15.4046ZM194.11 13.8408L194.367 14.8073L197.309 14.0254L197.052 13.059L196.795 12.0925L193.853 12.8744L194.11 13.8408ZM199.994 12.2771L200.25 13.2436L203.192 12.4617L202.936 11.4953L202.679 10.5288L199.737 11.3107L199.994 12.2771ZM205.877 10.7134L206.134 11.6799L209.076 10.898L208.819 9.93156L208.562 8.96511L205.621 9.74697L205.877 10.7134ZM211.761 9.1497L212.018 10.1162L214.96 9.33429L214.703 8.36784L214.446 7.40139L211.504 8.18325L211.761 9.1497ZM217.645 7.58599L217.902 8.55244L220.844 7.77058L220.587 6.80413L220.33 5.83768L217.388 6.61953L217.645 7.58599ZM223.529 6.02227L223.786 6.98872L225.257 6.5978L225 5.63135L224.743 4.6649L223.272 5.05582L223.529 6.02227Z" fill="#56CD45"/>
</svg>
