<svg width="91" height="85" viewBox="0 0 91 85" fill="none" xmlns="http://www.w3.org/2000/svg">
<g clip-path="url(#clip0_140_729)">
<mask id="mask0_140_729" style="mask-type:luminance" maskUnits="userSpaceOnUse" x="0" y="0" width="91" height="85">
<path d="M90.6641 0.699463H0.664062V84.5631H90.6641V0.699463Z" fill="white"/>
</mask>
<g mask="url(#mask0_140_729)">
<path d="M59.9179 81.0812C59.9179 81.4105 59.9179 81.7493 59.9179 82.0787C59.8799 83.5561 65.7241 84.5253 64.2987 84.5441C62.1606 84.5724 41.3022 84.5441 39.1641 84.5441C30.2886 84.5441 21.413 84.5441 12.547 84.5441C10.5039 84.5441 9.66771 83.6878 9.66771 81.5799C9.66771 65.9778 9.66771 50.3663 9.66771 34.7642V33.4844C9.30661 33.7385 9.05954 33.8985 8.82197 34.0773C7.38706 35.1689 5.95216 36.2793 4.50775 37.3614C3.24389 38.3119 1.89451 38.1707 1.10578 37.0133C0.31706 35.8746 0.611643 34.5101 1.866 33.5597C15.873 22.8792 29.8989 12.1892 43.9154 1.4992C45.3218 0.426438 46.0535 0.426438 47.4694 1.50861C61.3719 12.1045 75.2743 22.7004 89.1577 33.3151C89.7279 33.7479 90.1555 34.3784 90.6497 34.9148V36.3734C89.3573 38.3119 88.312 38.4813 86.4495 37.0603C84.9195 35.8934 83.3896 34.7266 81.6791 33.428V81.3353C81.6791 83.8196 80.9664 84.5441 78.5337 84.5441H57.7989C57.5328 84.5441 57.2667 84.5441 57.0101 84.5441C55.6322 84.4877 54.6154 83.4526 54.6535 82.1445C54.682 80.8553 55.6798 79.8579 57.0196 79.8484C60.032 79.8296 63.0538 79.8484 66.0662 79.8484C69.4016 79.8484 72.7466 79.8484 76.082 79.8484H77.1368V78.8039C77.1368 62.8348 77.1368 46.8657 77.1368 30.8966C77.1368 30.3791 77.1368 29.9556 76.6332 29.5698C66.4368 21.8346 56.2689 14.0618 46.082 6.2984C45.968 6.2043 45.8445 6.12901 45.6639 6.00668C43.5828 7.597 41.4827 9.18733 39.3921 10.7776C31.2578 16.9696 23.1425 23.1803 14.9987 29.3534C14.4286 29.7862 14.1815 30.2285 14.1815 30.9813C14.2005 46.894 14.2005 62.7972 14.2005 78.7098V79.7826H62.1796" fill="white"/>
<path d="M46.9562 38.7254C46.9562 42.1789 44.1244 44.9926 40.6464 45.002H40.6274C38.9169 45.002 37.3109 44.3433 36.1041 43.1482C34.9068 41.9625 34.2416 40.391 34.2416 38.7348C34.2416 37.041 34.9068 35.4507 36.1136 34.2556C37.3204 33.0699 38.9264 32.4112 40.6369 32.4112C44.1149 32.4112 46.9467 35.2436 46.9467 38.7254M64.3081 27.612C63.0157 27.612 61.7329 27.612 60.4405 27.612C59.3762 27.612 58.9011 28.2895 58.9011 28.9576C58.9011 29.6352 59.3762 30.3127 60.4405 30.3221C60.6876 30.3221 60.9346 30.3221 61.1817 30.3221C60.7446 30.755 60.3075 31.1878 59.8703 31.6207C57.7132 33.7568 55.4706 35.9588 53.304 38.1514C52.8193 38.6501 52.4392 38.8101 51.8596 38.7536C51.1944 38.6972 50.5197 38.716 49.8735 38.7254C49.826 38.7254 49.7785 38.7254 49.731 38.7254C49.6929 34.0109 46.1104 30.1151 41.3021 29.7104C37.0069 29.3434 32.9207 32.223 31.8089 36.4011C31.2482 38.4996 31.4288 40.5416 32.36 42.4895C33.4718 44.8138 35.2774 46.4135 37.7576 47.251C37.0924 47.9098 36.4652 48.5402 35.819 49.1613C35.8 49.1613 35.7715 49.1613 35.743 49.1613C34.2416 49.1613 32.6356 49.1801 31.0582 49.1613C30.4975 49.1613 30.0129 49.3495 29.6043 49.7542C28.1123 51.241 26.6204 52.7184 25.1285 54.1958C24.4063 54.9109 23.6936 55.6261 22.9714 56.3319C22.8288 56.473 22.6768 56.633 22.5628 56.8306C22.2492 57.367 22.3442 57.9692 22.7908 58.4209C23.0664 58.6938 23.399 58.835 23.7411 58.835C23.9597 58.835 24.1877 58.7785 24.3968 58.6562C24.6153 58.5339 24.7864 58.3739 24.9384 58.2233L25.081 58.0822C27.105 56.0872 29.1861 54.0264 31.2292 51.9844C31.3337 51.8809 31.3718 51.8714 31.4763 51.8809C32.227 51.8809 32.9777 51.8809 33.7284 51.8809C34.5076 51.8809 35.2964 51.8809 36.0851 51.8809C36.6933 51.8809 37.1684 51.6926 37.577 51.2786C38.7268 50.1117 39.9147 48.9355 41.112 47.7874C41.1595 47.7404 41.2546 47.6933 41.3211 47.6933C45.2742 47.2134 47.9445 45.1055 49.2558 41.445C49.7785 41.445 50.3011 41.445 50.8333 41.445C51.5175 41.445 52.2302 41.445 52.9334 41.445C53.532 41.445 54.0167 41.2567 54.4633 40.8145C57.0575 38.2267 59.6613 35.6577 62.265 33.0793L63.1203 32.223C63.1203 32.4676 63.1203 32.7029 63.1203 32.9475C63.1203 34.0015 63.8045 34.472 64.4791 34.472C64.8497 34.472 65.1728 34.3497 65.4199 34.105C65.6195 33.9074 65.8475 33.5592 65.8475 32.9475C65.8475 31.6772 65.8475 30.3974 65.8475 29.1176C65.8475 28.1295 65.2964 27.5932 64.3081 27.5837" fill="white"/>
<path d="M55.6999 73.223H60.9169V45.6511H55.6999V73.223ZM63.6252 59.4465C63.6252 64.3304 63.6252 69.2237 63.6252 74.1076C63.6252 75.5097 63.2071 75.9143 61.7912 75.9237C59.406 75.9237 57.0208 75.9237 54.6356 75.9237C53.4383 75.9237 52.9727 75.4626 52.9727 74.277C52.9727 64.3963 52.9727 54.5061 52.9727 44.616C52.9727 43.4303 53.4383 42.9786 54.6356 42.9692C57.0778 42.9692 59.5105 42.9692 61.9527 42.9692C63.15 42.9692 63.6157 43.4303 63.6157 44.616C63.6157 49.5564 63.6157 54.5061 63.6157 59.4465" fill="white"/>
<path d="M47.5786 56.2193H42.3616V73.2517H47.5786V56.2193ZM39.6533 64.7261C39.6533 61.5643 39.6533 58.4119 39.6533 55.25C39.6533 53.9514 40.0904 53.5186 41.4018 53.5186C43.8155 53.5186 46.2292 53.5186 48.6429 53.5186C49.8402 53.5186 50.3058 53.9797 50.3058 55.1653C50.3058 61.536 50.3058 67.9067 50.3058 74.2774C50.3058 75.4631 49.8402 75.9242 48.6429 75.9242C46.2007 75.9242 43.7585 75.9242 41.3258 75.9242C40.1285 75.9242 39.6628 75.4631 39.6628 74.2774C39.6628 71.0968 39.6628 67.9067 39.6628 64.7261" fill="white"/>
<path d="M29.0562 73.2421H34.2732V61.47H29.0562V73.2421ZM37.0004 67.4172C37.0004 69.6663 37.0004 71.9247 37.0004 74.1738C37.0004 75.5006 36.5633 75.924 35.1949 75.924C32.8383 75.924 30.4816 75.924 28.1249 75.924C26.804 75.924 26.3574 75.4912 26.3574 74.2114C26.3574 69.6569 26.3574 65.0929 26.3574 60.5384C26.3574 59.2021 26.7945 58.7881 28.1629 58.7881C30.4911 58.7881 32.8193 58.7881 35.1474 58.7881C36.6013 58.7881 37.0004 59.1927 37.0004 60.6607C37.0004 62.9098 37.0004 65.1588 37.0004 67.4172Z" fill="white"/>
<path d="M41.2915 35.2248C41.5765 35.2248 41.7951 35.2154 42.0137 35.2248C42.4223 35.2531 42.7074 35.5542 42.6979 35.9306C42.6979 36.2882 42.4128 36.5799 42.0232 36.5987C41.5861 36.6176 41.1489 36.5987 40.7118 36.5987C40.2177 36.5987 39.9136 36.8622 39.8946 37.2669C39.8756 37.6715 40.1702 37.9538 40.6548 37.9914C41.7096 38.0761 42.4508 38.7066 42.6599 39.6853C42.8499 40.5698 42.4033 41.4356 41.548 41.9437C41.4245 42.019 41.339 42.2166 41.301 42.3672C41.263 42.546 41.301 42.7436 41.282 42.9318C41.225 43.3082 40.9874 43.5246 40.6073 43.5529C40.2462 43.5717 39.9326 43.2988 39.8946 42.9224C39.8756 42.6965 39.8946 42.4613 39.8946 42.1696C39.6475 42.1696 39.4194 42.179 39.1914 42.1696C38.7733 42.1413 38.4882 41.859 38.4882 41.4826C38.4882 41.1062 38.7638 40.8051 39.1819 40.7863C39.619 40.7675 40.0561 40.7863 40.4932 40.7863C40.9779 40.7863 41.282 40.504 41.282 40.0993C41.282 39.7041 41.0064 39.4406 40.5503 39.403C39.467 39.3089 38.7447 38.7066 38.5262 37.728C38.3266 36.8246 38.7638 35.9588 39.6475 35.4413C39.7615 35.3754 39.8471 35.2154 39.8756 35.0931C39.9136 34.9143 39.8756 34.7167 39.8946 34.5285C39.9231 34.1144 40.2177 33.8416 40.5978 33.8416C40.9779 33.8416 41.263 34.1239 41.2915 34.5379C41.301 34.7543 41.2915 34.9614 41.2915 35.2343" fill="white"/>
</g>
</g>
<defs>
<clipPath id="clip0_140_729">
<rect width="90" height="83.8636" fill="white" transform="translate(0.666016 0.699463)"/>
</clipPath>
</defs>
</svg>
