<svg width="130" height="130" viewBox="0 0 130 130" fill="none" xmlns="http://www.w3.org/2000/svg">
<rect x="0.5" y="0.5" width="129" height="129" rx="9.5" fill="white"/>
<rect x="0.5" y="0.5" width="129" height="129" rx="9.5" stroke="#115056"/>
<g clip-path="url(#clip0_174_2709)">
<path d="M64.2611 68.8915C65.4129 69.1703 66.5062 69.4403 67.6025 69.6956C69.833 70.218 72.0664 70.7228 74.2969 71.2481C80.0704 72.6069 83.5521 76.9591 83.5784 82.9255C83.6047 89.5169 83.5989 96.1054 83.5784 102.697C83.5638 108.291 79.8979 111.979 74.3086 111.985C60.5602 112.003 46.8119 111.991 33.0636 111.991C31.5317 111.991 29.9999 112.018 28.4681 111.962C23.785 111.789 20.1016 108.129 20.0519 103.41C19.9759 96.3079 19.97 89.2029 20.0636 82.1038C20.1279 77.0032 23.709 72.5423 28.6523 71.3215C32.2246 70.4381 35.8378 69.7162 39.4451 68.9972C40.3192 68.8211 40.5502 68.4572 40.518 67.6149C40.4566 65.9333 40.5443 64.2458 40.4712 62.5642C40.4508 62.0858 40.2081 61.496 39.8661 61.1673C35.9284 57.4049 34.0166 52.8062 33.8879 47.3651C33.8236 44.6299 33.4991 41.9006 33.3208 39.1654C33.1016 35.7699 33.4436 32.4243 34.5866 29.2137C36.6475 23.4264 40.8016 19.9546 46.7125 18.6134C52.6234 17.2722 58.0988 17.9766 62.6943 22.3757C62.8813 22.5548 63.2 22.6487 63.4689 22.681C67.6025 23.1857 69.9762 25.243 71.0666 29.2841C71.8033 32.0193 71.8647 34.8161 71.4116 37.566C70.7918 41.3284 70.5755 45.0995 70.4381 48.9029C70.2686 53.5692 68.2807 57.5106 64.9657 60.7593C64.4512 61.2641 64.229 61.7513 64.2436 62.4674C64.2845 64.5862 64.2582 66.7081 64.2582 68.8886L64.2611 68.8915ZM44.6077 82.3914C44.3154 82.5557 44.1546 82.6349 44.0055 82.7289C42.1784 83.8558 41.851 83.7883 40.67 82.0157C38.8459 79.2776 37.01 76.5453 35.2239 73.7837C34.8175 73.1557 34.4258 72.9855 33.7038 73.188C32.5461 73.5108 31.3563 73.6986 30.1782 73.951C25.7231 74.9019 22.946 78.2857 22.9314 82.8463C22.9109 89.5111 22.9167 96.1729 22.9314 102.838C22.9401 106.565 25.4016 109.051 29.1025 109.071C33.3325 109.092 37.5625 109.059 41.7955 109.092C42.5117 109.098 42.7982 108.877 42.9648 108.173C44.4411 101.984 45.9846 95.809 47.4346 89.6138C47.6158 88.8419 47.607 87.8647 47.2855 87.1662C46.5254 85.5227 45.5256 83.9937 44.6077 82.3884V82.3914ZM43.8886 36.1339C42.1083 37.8243 40.4186 39.4296 38.7289 41.029C37.2965 42.3849 36.5394 43.9814 36.8609 46.0152C36.9516 46.5874 36.8726 47.1832 36.8785 47.7701C36.9545 55.0395 42.1521 61.3639 49.1593 62.7197C56.5261 64.1431 63.6853 60.2604 66.4975 53.4019C67.7487 50.3498 67.7896 47.1685 67.5411 43.999C67.316 41.1082 64.8663 39.1801 61.9751 39.4325C60.8789 39.5294 59.7739 39.9167 58.7478 40.3511C53.4624 42.5932 48.5834 41.5132 44.7977 37.1904C44.558 36.9174 44.3242 36.6416 43.8857 36.1339H43.8886ZM59.2038 81.9834C58.1836 83.6592 57.0727 85.2146 56.2688 86.9138C55.8829 87.7297 55.8362 88.8801 56.0496 89.7811C57.5141 95.9352 59.0927 102.06 60.6129 108.197C60.7649 108.813 60.99 109.101 61.6945 109.095C66.0327 109.059 70.3709 109.106 74.7091 109.065C78.1323 109.033 80.6463 106.503 80.6609 103.064C80.6902 96.2551 80.696 89.4465 80.6609 82.6408C80.6405 78.4559 77.9539 75.1513 73.8905 74.1741C72.7914 73.9099 71.6688 73.7339 70.593 73.3964C69.8388 73.1586 69.4851 73.4169 69.0934 74.0185C67.24 76.8682 65.3545 79.6943 63.4602 82.5176C62.7264 83.6122 62.1037 83.7355 60.9666 83.0664C60.4082 82.7377 59.8586 82.3914 59.195 81.9864L59.2038 81.9834ZM68.2865 38.9219C68.3918 38.2117 68.497 37.6893 68.5438 37.1581C68.7806 34.4904 68.9209 31.8227 67.9825 29.2401C67.3482 27.4969 66.2578 26.1997 64.3664 25.7566C61.9663 25.1902 61.3612 24.8644 59.4114 23.4264C58.625 22.8482 57.7743 22.2789 56.8622 21.9649C51.2115 20.0162 45.8969 20.7704 41.205 24.4917C37.7029 27.2709 36.6154 31.3091 36.288 35.588C36.2003 36.7472 36.2734 37.9211 36.2734 38.9512C38.5506 37.0788 40.7314 35.2035 43.0028 33.4456C44.52 32.2717 45.0287 32.4302 46.0664 34.0032C48.9751 38.4171 53.0532 39.5998 57.9263 37.4985C58.8881 37.0847 59.9113 36.7443 60.9373 36.5741C63.6794 36.1162 66.1204 36.8499 68.2836 38.9189L68.2865 38.9219ZM57.7772 108.992C57.6837 108.572 57.6135 108.226 57.5288 107.883C56.1139 102.213 54.7428 96.5281 53.2578 90.8757C52.6147 88.4281 53.0122 86.2652 54.3657 84.1962C55.1346 83.0194 55.8625 81.8162 56.6401 80.5718C55.1667 79.6709 53.8103 78.8168 52.4247 78.0157C52.1996 77.8865 51.7669 77.8719 51.5506 78.0039C50.0626 78.9108 48.6039 79.8675 47.0633 80.8565C47.8467 82.1448 48.5834 83.3598 49.3201 84.5689C50.4807 86.4736 50.7905 88.4898 50.2468 90.6732C48.8202 96.4165 47.4316 102.172 46.0314 107.921C45.9495 108.252 45.9027 108.593 45.8297 108.992H57.7714H57.7772ZM61.3144 63.6031C55.2866 66.6875 49.44 66.7257 43.4676 63.7763C43.4676 65.5107 43.4442 67.1101 43.491 68.7037C43.4998 68.9532 43.7833 69.276 44.0231 69.4227C46.4611 70.8871 48.905 72.3428 51.3752 73.7456C51.6821 73.9187 52.2405 73.9452 52.5416 73.7808C55.269 72.3134 57.9702 70.7962 60.6625 69.2642C60.9373 69.1087 61.2706 68.7536 61.2794 68.4807C61.3378 66.9164 61.3086 65.3493 61.3086 63.6031H61.3144ZM61.6185 80.0083C63.3111 77.458 64.9306 75.0193 66.6027 72.4983C65.4597 72.2225 64.5155 71.9084 63.5508 71.794C62.9603 71.7236 62.2645 71.8175 61.7354 72.0816C60.11 72.8974 58.5402 73.8278 56.9529 74.717C56.3097 75.078 55.6725 75.4536 54.8949 75.8997C57.216 77.3172 59.3529 78.6231 61.6214 80.0083H61.6185ZM49.1505 75.8821C47.0107 74.6201 44.9614 73.5724 43.0993 72.2635C41.2138 70.937 39.6381 72.1872 37.7701 72.3516C39.5299 74.9987 41.1611 77.4522 42.8391 79.9761C44.9322 78.6173 46.9376 77.3172 49.1505 75.8821Z" fill="#115056"/>
<path d="M89.5562 51.2096C89.451 51.2977 89.334 51.3828 89.2317 51.4825C88.7026 51.9844 88.1793 52.4921 87.5625 53.082C88.6792 54.5787 87.7934 55.553 86.7586 56.5685C84.3322 58.9427 81.9585 61.3756 79.5585 63.7762C78.3073 65.0293 77.4683 65.0264 76.2084 63.7762C75.5068 63.0836 74.7964 62.3998 74.124 61.6779C73.2383 60.7299 73.2178 59.8055 74.1328 58.8722C76.8456 56.1106 79.5614 53.349 82.3502 50.6667C82.7624 50.2705 83.6686 50.0328 84.2007 50.2001C84.9344 50.429 85.3145 50.294 85.7647 49.7775C86.1213 49.3666 86.5627 49.032 87.01 48.6212C84.648 45.1787 83.8353 41.5044 84.8877 37.5161C85.6945 34.461 87.4368 32.031 90.0298 30.2496C95.2099 26.6927 102.205 27.4646 106.5 32.0369C110.847 36.665 111.171 43.6849 107.312 48.7356C103.93 53.1612 96.6131 55.9668 89.5562 51.2067V51.2096ZM106.342 40.8059C106.318 35.7464 102.252 31.6877 97.2094 31.6935C92.1287 31.6965 88.1092 35.8169 88.077 40.938C88.0448 45.6894 92.4824 50.1326 97.303 50.0269C102.346 49.9154 106.368 45.8801 106.345 40.8089L106.342 40.8059Z" fill="#115056"/>
<path d="M97.6395 33.1844C98.2329 33.3253 99.1947 33.5014 100.124 33.789C100.832 34.0091 101.223 34.5726 100.978 35.3239C100.721 36.1133 100.11 36.3217 99.3146 36.1163C95.9645 35.2446 94.2718 35.9343 92.4769 38.9013C92.0618 39.5881 91.5064 39.949 90.758 39.5382C90.0272 39.1361 89.9512 38.4758 90.3108 37.745C91.7344 34.8602 94.0731 33.3987 97.6395 33.1844Z" fill="#115056"/>
<path d="M72.1921 96.1318C71.8033 95.8442 71.4613 95.5889 71.1163 95.3365C70.7275 95.0489 70.3358 94.7671 69.947 94.4766C69.5991 94.2183 69.5816 94.0775 69.8359 93.7312C70.1458 93.3144 70.4469 92.8918 70.7568 92.478C70.9029 92.2814 70.9 92.12 70.7334 91.9263C69.9704 91.0518 69.222 90.1684 68.4678 89.288C68.3918 89.1999 68.3216 89.109 68.2515 89.0209C68.2661 89.0062 68.2807 88.9886 68.2953 88.974C68.3538 89.0033 68.4123 89.0297 68.4678 89.0591C70.0288 89.8544 71.5899 90.6497 73.148 91.445C73.4696 91.6094 73.5076 91.7649 73.2942 92.0554C72.958 92.5074 72.616 92.9535 72.2798 93.4025C72.0313 93.7341 72.0489 93.8808 72.3646 94.145C73.9344 95.448 75.5013 96.754 77.074 98.0541C77.1647 98.1304 77.2757 98.1803 77.3781 98.2419C77.3517 98.283 77.3284 98.3211 77.302 98.3622C77.2173 98.3769 77.1296 98.4033 77.0448 98.4033C74.3524 98.4033 71.6571 98.4385 68.9648 98.3916C67.6288 98.3681 66.5209 97.7107 65.5913 96.7716C64.6003 95.7679 64.077 94.5265 64.0361 93.1325C63.9776 91.1515 64.0127 89.1647 64.0098 87.1808C64.0098 86.5146 64.0156 85.8455 64.0098 85.1793C64.0098 84.971 64.0799 84.88 64.2933 84.88C66.7898 84.8594 69.2892 84.701 71.777 84.8418C74.6652 85.0032 76.8899 86.7934 77.3927 89.8074C77.4599 90.2153 77.4833 90.635 77.4862 91.0488C77.495 92.6248 77.4862 94.2037 77.4862 95.7796C77.4862 95.8471 77.4541 95.9528 77.4044 95.9733C77.3547 95.9968 77.2523 95.9557 77.2027 95.9117C76.656 95.4451 76.1123 94.9784 75.5802 94.4942C75.4984 94.4208 75.4574 94.2712 75.4516 94.1538C75.4077 93.0356 75.3814 91.9175 75.3376 90.8023C75.2557 88.8067 74.0513 87.4156 72.1015 87.0488C71.9582 87.0223 71.8091 87.0165 71.663 87.0135C69.9792 87.0135 68.2953 87.0135 66.6115 87.0135C66.173 87.0135 66.1467 87.0429 66.1467 87.486C66.1467 89.0473 66.1116 90.6086 66.1555 92.167C66.1964 93.6666 66.9915 95.2631 68.5906 95.8706C69.0028 96.0262 69.4559 96.1142 69.8973 96.1406C70.6018 96.1846 71.3122 96.1523 72.0196 96.1523C72.0576 96.1523 72.0986 96.1465 72.195 96.1347L72.1921 96.1318Z" fill="#115056"/>
</g>
<defs>
<clipPath id="clip0_174_2709">
<rect width="90" height="94" fill="white" transform="translate(20 18)"/>
</clipPath>
</defs>
</svg>
