<svg width="90" height="94" viewBox="0 0 90 94" fill="none" xmlns="http://www.w3.org/2000/svg">
<g clip-path="url(#clip0_186_2710)">
<path d="M44.2611 50.8915C45.4129 51.1703 46.5062 51.4403 47.6025 51.6956C49.833 52.218 52.0664 52.7228 54.2969 53.2481C60.0704 54.6069 63.5521 58.9591 63.5784 64.9255C63.6047 71.5169 63.5989 78.1054 63.5784 84.6969C63.5638 90.2905 59.8979 93.9795 54.3086 93.9854C40.5602 94.003 26.8119 93.9912 13.0636 93.9912C11.5317 93.9912 9.99993 94.0177 8.46811 93.9619C3.78496 93.7887 0.101591 90.1291 0.051895 85.41C-0.0241112 78.3079 -0.0299578 71.2029 0.0635882 64.1038C0.127901 59.0032 3.70896 54.5423 8.65228 53.3215C12.2246 52.4381 15.8378 51.7162 19.4451 50.9972C20.3192 50.8211 20.5502 50.4572 20.518 49.6149C20.4566 47.9333 20.5443 46.2458 20.4712 44.5642C20.4508 44.0858 20.2081 43.496 19.8661 43.1673C15.9284 39.4049 14.0166 34.8062 13.8879 29.3651C13.8236 26.6299 13.4991 23.9006 13.3208 21.1654C13.1016 17.7699 13.4436 14.4243 14.5866 11.2137C16.6475 5.42639 20.8016 1.95458 26.7125 0.613401C32.6234 -0.727779 38.0988 -0.0234395 42.6943 4.37575C42.8813 4.55477 43.2 4.64868 43.4689 4.68096C47.6025 5.18574 49.9762 7.243 51.0666 11.2841C51.8033 14.0193 51.8647 16.8161 51.4116 19.566C50.7918 23.3284 50.5755 27.0995 50.4381 30.9029C50.2686 35.5692 48.2807 39.5106 44.9657 42.7593C44.4512 43.2641 44.229 43.7513 44.2436 44.4674C44.2845 46.5862 44.2582 48.7081 44.2582 50.8886L44.2611 50.8915ZM24.6077 64.3914C24.3154 64.5557 24.1546 64.6349 24.0055 64.7289C22.1784 65.8558 21.851 65.7883 20.67 64.0157C18.8459 61.2776 17.01 58.5453 15.2239 55.7837C14.8175 55.1557 14.4258 54.9855 13.7038 55.188C12.5461 55.5108 11.3563 55.6986 10.1782 55.951C5.72312 56.9019 2.94597 60.2857 2.93136 64.8463C2.91089 71.5111 2.91674 78.1729 2.93136 84.8378C2.94013 88.5649 5.40156 91.0506 9.10247 91.0712C13.3325 91.0917 17.5625 91.0594 21.7955 91.0917C22.5117 91.0976 22.7982 90.8775 22.9648 90.1731C24.4411 83.9837 25.9846 77.809 27.4346 71.6138C27.6158 70.8419 27.607 69.8647 27.2855 69.1662C26.5254 67.5227 25.5256 65.9937 24.6077 64.3884V64.3914ZM23.8886 18.1339C22.1083 19.8243 20.4186 21.4296 18.7289 23.029C17.2965 24.3849 16.5394 25.9814 16.8609 28.0152C16.9516 28.5874 16.8726 29.1832 16.8785 29.7701C16.9545 37.0395 22.1521 43.3639 29.1593 44.7197C36.5261 46.1431 43.6853 42.2604 46.4975 35.4019C47.7487 32.3498 47.7896 29.1685 47.5411 25.999C47.316 23.1082 44.8663 21.1801 41.9751 21.4325C40.8789 21.5294 39.7739 21.9167 38.7478 22.3511C33.4624 24.5932 28.5834 23.5132 24.7977 19.1904C24.558 18.9174 24.3242 18.6416 23.8857 18.1339H23.8886ZM39.2038 63.9834C38.1836 65.6592 37.0727 67.2146 36.2688 68.9138C35.8829 69.7297 35.8362 70.8801 36.0496 71.7811C37.5141 77.9352 39.0927 84.0601 40.6129 90.1966C40.7649 90.8129 40.99 91.1005 41.6945 91.0946C46.0327 91.0594 50.3709 91.1064 54.7091 91.0653C58.1323 91.033 60.6463 88.5033 60.6609 85.0637C60.6902 78.2551 60.696 71.4465 60.6609 64.6408C60.6405 60.4559 57.9539 57.1513 53.8905 56.1741C52.7914 55.9099 51.6688 55.7339 50.593 55.3964C49.8388 55.1586 49.4851 55.4169 49.0934 56.0185C47.24 58.8682 45.3545 61.6943 43.4602 64.5176C42.7264 65.6122 42.1037 65.7355 40.9666 65.0664C40.4082 64.7377 39.8586 64.3914 39.195 63.9864L39.2038 63.9834ZM48.2865 20.9219C48.3918 20.2117 48.497 19.6893 48.5438 19.1581C48.7806 16.4904 48.9209 13.8227 47.9825 11.2401C47.3482 9.49689 46.2578 8.19973 44.3664 7.75658C41.9663 7.19017 41.3612 6.86442 39.4114 5.42639C38.625 4.84824 37.7743 4.2789 36.8622 3.96488C31.2115 2.01621 25.8969 2.77044 21.205 6.4917C17.7029 9.27091 16.6154 13.3091 16.288 17.588C16.2003 18.7472 16.2734 19.9211 16.2734 20.9512C18.5506 19.0788 20.7314 17.2035 23.0028 15.4456C24.52 14.2717 25.0287 14.4302 26.0664 16.0032C28.9751 20.4171 33.0532 21.5998 37.9263 19.4985C38.8881 19.0847 39.9113 18.7443 40.9373 18.5741C43.6794 18.1162 46.1204 18.8499 48.2836 20.9189L48.2865 20.9219ZM37.7772 90.9919C37.6837 90.5723 37.6135 90.226 37.5288 89.8826C36.1139 84.2127 34.7428 78.5281 33.2578 72.8757C32.6147 70.4281 33.0122 68.2652 34.3657 66.1962C35.1346 65.0194 35.8625 63.8162 36.6401 62.5718C35.1667 61.6709 33.8103 60.8168 32.4247 60.0157C32.1996 59.8865 31.7669 59.8719 31.5506 60.0039C30.0626 60.9108 28.6039 61.8675 27.0633 62.8565C27.8467 64.1448 28.5834 65.3598 29.3201 66.5689C30.4807 68.4736 30.7905 70.4898 30.2468 72.6732C28.8202 78.4165 27.4316 84.1716 26.0314 89.9207C25.9495 90.2524 25.9027 90.5928 25.8297 90.9919H37.7714H37.7772ZM41.3144 45.6031C35.2866 48.6875 29.44 48.7257 23.4676 45.7763C23.4676 47.5107 23.4442 49.1101 23.491 50.7037C23.4998 50.9532 23.7833 51.276 24.0231 51.4227C26.4611 52.8871 28.905 54.3428 31.3752 55.7456C31.6821 55.9187 32.2405 55.9452 32.5416 55.7808C35.269 54.3134 37.9702 52.7962 40.6625 51.2642C40.9373 51.1087 41.2706 50.7536 41.2794 50.4807C41.3378 48.9164 41.3086 47.3493 41.3086 45.6031H41.3144ZM41.6185 62.0083C43.3111 59.458 44.9306 57.0193 46.6027 54.4983C45.4597 54.2225 44.5155 53.9084 43.5508 53.794C42.9603 53.7236 42.2645 53.8175 41.7354 54.0816C40.11 54.8974 38.5402 55.8278 36.9529 56.717C36.3097 57.078 35.6725 57.4536 34.8949 57.8997C37.216 59.3172 39.3529 60.6231 41.6214 62.0083H41.6185ZM29.1505 57.8821C27.0107 56.6201 24.9614 55.5724 23.0993 54.2635C21.2138 52.937 19.6381 54.1872 17.7701 54.3516C19.5299 56.9987 21.1611 59.4522 22.8391 61.9761C24.9322 60.6173 26.9376 59.3172 29.1505 57.8821Z" fill="#115056"/>
<path d="M69.5562 33.2096C69.451 33.2977 69.334 33.3828 69.2317 33.4825C68.7026 33.9844 68.1793 34.4921 67.5625 35.082C68.6792 36.5787 67.7934 37.553 66.7586 38.5685C64.3322 40.9427 61.9585 43.3756 59.5585 45.7762C58.3073 47.0293 57.4683 47.0264 56.2084 45.7762C55.5068 45.0836 54.7964 44.3998 54.124 43.6779C53.2383 42.7299 53.2178 41.8055 54.1328 40.8722C56.8456 38.1106 59.5614 35.349 62.3502 32.6667C62.7624 32.2705 63.6686 32.0328 64.2007 32.2001C64.9344 32.429 65.3145 32.294 65.7647 31.7775C66.1213 31.3666 66.5627 31.032 67.01 30.6212C64.648 27.1787 63.8353 23.5044 64.8877 19.5161C65.6945 16.461 67.4368 14.031 70.0298 12.2496C75.2099 8.69273 82.2054 9.46456 86.4997 14.0369C90.8467 18.665 91.1712 25.6849 87.3124 30.7356C83.9301 35.1612 76.6131 37.9668 69.5562 33.2067V33.2096ZM86.3419 22.8059C86.3185 17.7464 82.2521 13.6877 77.2094 13.6935C72.1287 13.6965 68.1092 17.8169 68.077 22.938C68.0448 27.6894 72.4824 32.1326 77.303 32.0269C82.3457 31.9154 86.3682 27.8801 86.3448 22.8089L86.3419 22.8059Z" fill="#115056"/>
<path d="M77.6395 15.1844C78.2329 15.3253 79.1947 15.5014 80.1243 15.789C80.8318 16.0091 81.2235 16.5726 80.9779 17.3239C80.7207 18.1133 80.1097 18.3217 79.3146 18.1163C75.9645 17.2446 74.2718 17.9343 72.4769 20.9013C72.0618 21.5881 71.5064 21.949 70.758 21.5382C70.0272 21.1361 69.9512 20.4758 70.3108 19.745C71.7344 16.8602 74.0731 15.3987 77.6395 15.1844Z" fill="#115056"/>
<path d="M52.1921 78.1318C51.8033 77.8442 51.4613 77.5889 51.1163 77.3365C50.7275 77.0489 50.3358 76.7671 49.947 76.4766C49.5991 76.2183 49.5816 76.0775 49.8359 75.7312C50.1458 75.3144 50.4469 74.8918 50.7568 74.478C50.9029 74.2814 50.9 74.12 50.7334 73.9263C49.9704 73.0518 49.222 72.1684 48.4678 71.288C48.3918 71.1999 48.3216 71.109 48.2515 71.0209C48.2661 71.0062 48.2807 70.9886 48.2953 70.974C48.3538 71.0033 48.4123 71.0297 48.4678 71.0591C50.0288 71.8544 51.5899 72.6497 53.148 73.445C53.4696 73.6094 53.5076 73.7649 53.2942 74.0554C52.958 74.5074 52.616 74.9535 52.2798 75.4025C52.0313 75.7341 52.0489 75.8808 52.3646 76.145C53.9344 77.448 55.5013 78.754 57.074 80.0541C57.1647 80.1304 57.2757 80.1803 57.3781 80.2419C57.3517 80.283 57.3284 80.3211 57.302 80.3622C57.2173 80.3769 57.1296 80.4033 57.0448 80.4033C54.3524 80.4033 51.6571 80.4385 48.9648 80.3916C47.6288 80.3681 46.5209 79.7107 45.5913 78.7716C44.6003 77.7679 44.077 76.5265 44.0361 75.1325C43.9776 73.1515 44.0127 71.1647 44.0098 69.1808C44.0098 68.5146 44.0156 67.8455 44.0098 67.1793C44.0098 66.971 44.0799 66.88 44.2933 66.88C46.7898 66.8594 49.2892 66.701 51.777 66.8418C54.6652 67.0032 56.8899 68.7934 57.3927 71.8074C57.4599 72.2153 57.4833 72.635 57.4862 73.0488C57.495 74.6248 57.4862 76.2037 57.4862 77.7796C57.4862 77.8471 57.4541 77.9528 57.4044 77.9733C57.3547 77.9968 57.2523 77.9557 57.2027 77.9117C56.656 77.4451 56.1123 76.9784 55.5802 76.4942C55.4984 76.4208 55.4574 76.2712 55.4516 76.1538C55.4077 75.0356 55.3814 73.9175 55.3376 72.8023C55.2557 70.8067 54.0513 69.4156 52.1015 69.0488C51.9582 69.0223 51.8091 69.0165 51.663 69.0135C49.9792 69.0135 48.2953 69.0135 46.6115 69.0135C46.173 69.0135 46.1467 69.0429 46.1467 69.486C46.1467 71.0473 46.1116 72.6086 46.1555 74.167C46.1964 75.6666 46.9915 77.2631 48.5906 77.8706C49.0028 78.0262 49.4559 78.1142 49.8973 78.1406C50.6018 78.1846 51.3122 78.1523 52.0196 78.1523C52.0576 78.1523 52.0986 78.1465 52.195 78.1347L52.1921 78.1318Z" fill="#115056"/>
</g>
<defs>
<clipPath id="clip0_186_2710">
<rect width="90" height="94" fill="white"/>
</clipPath>
</defs>
</svg>
