<svg width="130" height="130" viewBox="0 0 130 130" fill="none" xmlns="http://www.w3.org/2000/svg">
<rect x="0.5" y="0.5" width="129" height="129" rx="9.5" fill="white"/>
<rect x="0.5" y="0.5" width="129" height="129" rx="9.5" stroke="#115056"/>
<path d="M36.2544 25.8023C36.346 25.8021 36.346 25.8021 36.4395 25.802C36.6433 25.8016 36.8471 25.8017 37.0508 25.8018C37.1988 25.8016 37.3467 25.8014 37.4947 25.8012C37.858 25.8008 38.2214 25.8006 38.5847 25.8006C39.0202 25.8006 39.4556 25.8002 39.8911 25.7997C40.943 25.7988 41.995 25.7984 43.047 25.7981C43.5448 25.798 44.0425 25.7978 44.5402 25.7975C46.2445 25.7968 47.9488 25.7961 49.6531 25.7959C49.76 25.7959 49.8669 25.7959 49.9737 25.7959C50.0809 25.7958 50.188 25.7958 50.2952 25.7958C50.5101 25.7958 50.7251 25.7958 50.94 25.7957C50.9933 25.7957 51.0466 25.7957 51.1015 25.7957C52.8307 25.7955 54.5599 25.7945 56.289 25.7931C58.1179 25.7916 59.9468 25.7908 61.7757 25.7907C61.9764 25.7907 62.1771 25.7907 62.3778 25.7907C62.4272 25.7907 62.4766 25.7907 62.5276 25.7907C63.3229 25.7906 64.1182 25.79 64.9136 25.7891C65.7126 25.7882 66.5117 25.788 67.3108 25.7885C67.7855 25.7888 68.2602 25.7885 68.7349 25.7876C69.0893 25.7869 69.4437 25.7872 69.7982 25.7879C69.9416 25.788 70.085 25.7878 70.2284 25.7873C70.4232 25.7866 70.6181 25.787 70.8129 25.7878C70.8686 25.7873 70.9243 25.7869 70.9817 25.7864C71.5819 25.7912 72.0935 25.9358 72.5346 26.355C72.9455 26.7967 73.1209 27.2756 73.0998 27.8785C73.0313 28.4489 72.7835 28.8831 72.353 29.2602C71.8718 29.5885 71.3327 29.6414 70.7659 29.6385C70.6744 29.6387 70.6744 29.6387 70.581 29.639C70.3764 29.6394 70.1718 29.639 69.9672 29.6386C69.8191 29.6387 69.671 29.6389 69.5229 29.6391C69.2008 29.6395 68.8786 29.6395 68.5565 29.6392C68.0775 29.6387 67.5984 29.639 67.1194 29.6393C66.3133 29.64 65.5073 29.6401 64.7012 29.6399C63.5493 29.6397 62.3973 29.6405 61.2454 29.6416C60.783 29.642 60.3206 29.6423 59.8582 29.6427C59.7811 29.6428 59.7811 29.6428 59.7025 29.6428C58.4798 29.6438 57.2571 29.6445 56.0344 29.645C55.9809 29.645 55.9275 29.6451 55.8723 29.6451C54.6245 29.6457 53.3766 29.6461 52.1288 29.6462C52.0483 29.6462 52.0483 29.6462 51.9662 29.6462C51.6956 29.6463 51.425 29.6463 51.1545 29.6463C51.101 29.6463 51.0475 29.6464 50.9924 29.6464C50.8845 29.6464 50.7766 29.6464 50.6687 29.6464C48.8848 29.6466 47.1009 29.6476 45.317 29.6495C45.0649 29.6498 44.8129 29.6501 44.5609 29.6503C44.5113 29.6504 44.4617 29.6504 44.4106 29.6505C43.613 29.6513 42.8154 29.6511 42.0178 29.6507C41.2159 29.6502 40.414 29.6506 39.6121 29.6518C39.136 29.6526 38.6599 29.6526 38.1837 29.6517C37.8278 29.6511 37.4719 29.6517 37.116 29.6529C36.9723 29.6531 36.8286 29.653 36.6849 29.6524C35.3779 29.6473 34.328 29.8257 33.3589 30.7783C32.7514 31.4274 32.3964 32.2722 32.399 33.1608C32.3988 33.2285 32.3988 33.2285 32.3987 33.2975C32.3984 33.4495 32.3985 33.6015 32.3987 33.7535C32.3985 33.8637 32.3984 33.974 32.3982 34.0842C32.3978 34.3889 32.3978 34.6935 32.3979 34.9982C32.3979 35.329 32.3975 35.6598 32.3972 35.9906C32.3966 36.6474 32.3964 37.3043 32.3963 37.9612C32.3961 38.7477 32.3956 39.5342 32.395 40.3207C32.3938 42.2218 32.3931 44.123 32.3926 46.0241C32.3924 46.6537 32.3922 47.2833 32.392 47.9128C32.392 47.9795 32.392 47.9795 32.392 48.0474C32.3919 48.2271 32.3918 48.4068 32.3918 48.5864C32.3907 51.6599 32.3897 54.7333 32.3893 57.8068C32.3893 58.0482 32.3892 58.2896 32.3892 58.5311C32.3892 58.6029 32.3892 58.6029 32.3892 58.6762C32.3891 59.1614 32.389 59.6466 32.3889 60.1319C32.3889 60.2292 32.3889 60.3264 32.3889 60.4237C32.3884 63.5481 32.3871 66.6725 32.3851 69.7968C32.3837 72.0417 32.3824 74.2865 32.382 76.5313C32.382 76.5775 32.3819 76.6236 32.3819 76.6712C32.3817 77.6848 32.3816 78.6983 32.3816 79.7119C32.3815 80.1197 32.3815 80.5275 32.3815 80.9353C32.3815 80.9799 32.3815 81.0246 32.3815 81.0706C32.3813 82.5081 32.3805 83.9457 32.3792 85.3832C32.378 86.8313 32.3775 88.2794 32.3781 89.7275C32.3784 90.626 32.3782 91.5244 32.3768 92.4229C32.376 92.996 32.376 93.569 32.3768 94.1421C32.3772 94.4688 32.3772 94.7954 32.3762 95.122C32.3753 95.4194 32.3755 95.7167 32.3765 96.0141C32.3767 96.1208 32.3765 96.2275 32.3758 96.3342C32.3689 97.519 32.6498 98.4977 33.5012 99.3639C34.1178 99.9409 34.948 100.323 35.7986 100.324C35.8726 100.324 35.9466 100.324 36.0228 100.324C36.1049 100.324 36.187 100.324 36.2691 100.324C36.3567 100.324 36.4443 100.325 36.5319 100.325C36.7737 100.325 37.0155 100.325 37.2573 100.325C37.5199 100.325 37.7826 100.326 38.0452 100.326C38.5666 100.327 39.0881 100.327 39.6095 100.327C40.2339 100.328 40.8583 100.328 41.4827 100.329C42.992 100.331 44.5014 100.331 46.0107 100.332C46.5106 100.332 47.0105 100.333 47.5104 100.333C50.1681 100.335 52.8258 100.336 55.4835 100.337C56.0993 100.337 56.7151 100.337 57.331 100.337C57.4075 100.337 57.484 100.337 57.5628 100.337C60.0434 100.338 62.5239 100.34 65.0045 100.342C67.5544 100.345 70.1042 100.347 72.6541 100.347C73.0142 100.347 73.3744 100.347 73.7345 100.347C73.8054 100.347 73.8763 100.347 73.9493 100.347C75.09 100.347 76.2307 100.349 77.3715 100.35C78.5181 100.352 79.6648 100.352 80.8115 100.352C81.4927 100.351 82.1738 100.352 82.855 100.353C83.3103 100.354 83.7656 100.354 84.2208 100.353C84.4801 100.353 84.7393 100.353 84.9985 100.354C85.2349 100.355 85.4712 100.355 85.7076 100.354C85.8316 100.353 85.9555 100.355 86.0795 100.356C86.9362 100.348 87.7045 100.11 88.392 99.5897C88.436 99.5567 88.48 99.5237 88.5253 99.4897C89.2602 98.8937 89.631 98.0226 89.7841 97.1082C89.8079 96.7891 89.8083 96.4715 89.8066 96.1518C89.8067 96.0575 89.8069 95.9631 89.8073 95.8688C89.8079 95.6117 89.8074 95.3546 89.8067 95.0975C89.8062 94.8195 89.8067 94.5414 89.8071 94.2633C89.8076 93.7821 89.8075 93.3008 89.8071 92.8196C89.8064 92.1231 89.8069 91.4266 89.8078 90.7301C89.8093 89.5989 89.8101 88.4678 89.8103 87.3366C89.8103 87.2352 89.8103 87.2352 89.8104 87.1317C89.8105 86.377 89.8105 85.6224 89.8105 84.8677C89.8105 84.5939 89.8104 84.3201 89.8104 84.0462C89.8104 83.9787 89.8104 83.9111 89.8104 83.8415C89.8104 82.7142 89.8113 81.587 89.8129 80.4598C89.8139 79.7651 89.814 79.0704 89.8131 78.3758C89.8125 77.8998 89.8128 77.4239 89.8138 76.948C89.8143 76.6736 89.8144 76.3992 89.8135 76.1247C89.8126 75.8733 89.8129 75.6218 89.8141 75.3703C89.8143 75.2796 89.8141 75.1889 89.8134 75.0982C89.8088 74.394 89.8849 73.7741 90.3893 73.2447C90.8642 72.8357 91.314 72.7544 91.9261 72.7608C92.4057 72.7971 92.7785 72.9913 93.1276 73.3178C93.4457 73.6924 93.6045 74.1271 93.6052 74.6128C93.6054 74.652 93.6055 74.6912 93.6057 74.7315C93.6061 74.8638 93.606 74.996 93.606 75.1282C93.6062 75.2236 93.6064 75.319 93.6067 75.4145C93.6073 75.6774 93.6075 75.9403 93.6077 76.2033C93.6079 76.4866 93.6085 76.7699 93.609 77.0533C93.6102 77.7382 93.6108 78.4231 93.6114 79.1081C93.6116 79.4308 93.612 79.7536 93.6123 80.0763C93.6133 81.1498 93.6142 82.2232 93.6146 83.2967C93.6147 83.5754 93.6148 83.8541 93.615 84.1328C93.615 84.202 93.615 84.2713 93.6151 84.3427C93.6156 85.463 93.6171 86.5833 93.6191 87.7035C93.6211 88.8545 93.6222 90.0054 93.6223 91.1564C93.6225 91.8022 93.623 92.4481 93.6245 93.094C93.6259 93.6445 93.6264 94.195 93.6258 94.7455C93.6255 95.026 93.6256 95.3065 93.6268 95.587C93.6354 97.7472 93.6354 97.7472 93.355 98.7423C93.3378 98.8046 93.3378 98.8046 93.3202 98.8682C92.9884 100.059 92.3204 101.058 91.4787 101.95C91.4386 101.995 91.3985 102.04 91.3572 102.086C90.1451 103.383 88.3158 104.066 86.5763 104.19C86.2871 104.198 85.9981 104.198 85.7088 104.197C85.6215 104.197 85.5342 104.198 85.4469 104.198C85.2073 104.198 84.9677 104.198 84.7281 104.198C84.4673 104.198 84.2065 104.198 83.9457 104.198C83.4887 104.198 83.0317 104.198 82.5748 104.198C81.8952 104.198 81.2156 104.199 80.5361 104.199C79.2517 104.199 77.9673 104.2 76.683 104.2C75.6911 104.2 74.6992 104.2 73.7073 104.2C73.4218 104.2 73.1363 104.2 72.8508 104.2C72.7798 104.2 72.7088 104.2 72.6357 104.2C70.6392 104.201 68.6427 104.201 66.6461 104.201C66.5708 104.201 66.4956 104.201 66.418 104.201C66.0365 104.201 65.6549 104.201 65.2734 104.201C65.1597 104.201 65.1597 104.201 65.0437 104.201C64.8905 104.201 64.7373 104.201 64.584 104.201C62.2001 104.201 59.8161 104.201 57.4321 104.202C54.7538 104.203 52.0755 104.203 49.3972 104.203C49.1115 104.203 48.8259 104.203 48.5403 104.203C48.4699 104.203 48.3996 104.203 48.3271 104.203C47.1956 104.203 46.0641 104.204 44.9326 104.204C43.7953 104.205 42.6579 104.205 41.5205 104.204C40.845 104.204 40.1695 104.204 39.494 104.205C39.0424 104.205 38.5909 104.205 38.1393 104.205C37.8822 104.205 37.6252 104.205 37.3681 104.205C35.1163 104.209 32.959 103.986 31.1963 102.434C31.1475 102.394 31.0988 102.353 31.0485 102.311C29.5845 101.053 28.7121 99.2257 28.5455 97.3113C28.5196 96.8833 28.5248 96.4545 28.5253 96.026C28.5252 95.916 28.525 95.8059 28.5249 95.6959C28.5246 95.3936 28.5246 95.0912 28.5247 94.7889C28.5247 94.4599 28.5244 94.131 28.5242 93.8021C28.5237 93.1496 28.5236 92.4972 28.5235 91.8448C28.5235 91.0633 28.5231 90.2819 28.5227 89.5004C28.5217 87.6565 28.5214 85.8126 28.5211 83.9687C28.5209 83.0304 28.5207 82.092 28.5205 81.1537C28.5197 78.1428 28.5191 75.1319 28.5189 72.1211C28.5188 71.9772 28.5188 71.8333 28.5188 71.6895C28.5188 71.401 28.5188 71.1125 28.5188 70.8239C28.5187 70.4862 28.5187 70.1484 28.5187 69.8106C28.5187 69.714 28.5187 69.6173 28.5187 69.5206C28.5185 66.4163 28.5175 63.312 28.5161 60.2077C28.5151 57.9767 28.5142 55.7457 28.5139 53.5146C28.5139 53.4687 28.5139 53.4228 28.5139 53.3755C28.5138 52.3677 28.5137 51.3598 28.5137 50.3519C28.5137 49.9913 28.5137 49.6306 28.5136 49.27C28.5136 49.1803 28.5136 49.0905 28.5136 49.0008C28.5136 47.5726 28.513 46.1445 28.5121 44.7163C28.5112 43.2372 28.5109 41.7582 28.5114 40.2791C28.5117 39.4268 28.5115 38.5745 28.5105 37.7222C28.5099 37.1525 28.51 36.5828 28.5106 36.0131C28.5109 35.6887 28.511 35.3644 28.5102 35.04C28.5095 34.7443 28.5097 34.4485 28.5105 34.1527C28.5106 34.0471 28.5105 33.9414 28.51 33.8358C28.5056 32.8575 28.5691 31.8369 28.9039 30.9095C28.922 30.8576 28.9401 30.8058 28.9587 30.7524C29.6284 28.9038 31 27.3842 32.7732 26.538C33.8956 26.0223 35.0223 25.8 36.2544 25.8023Z" fill="#115056"/>
<path d="M74.0626 35.8934C74.1575 35.8922 74.1575 35.8922 74.2542 35.891C74.3222 35.8912 74.3902 35.8914 74.4602 35.8916C74.5303 35.8913 74.6005 35.891 74.6727 35.8906C74.821 35.8902 74.9693 35.8903 75.1176 35.8908C75.3445 35.8913 75.5713 35.8896 75.7982 35.8877C75.9423 35.8876 76.0864 35.8876 76.2305 35.8878C76.2984 35.8871 76.3662 35.8864 76.4361 35.8857C76.9067 35.89 76.9067 35.89 77.146 36.0332C77.3428 36.2601 77.3229 36.4155 77.3202 36.7122C77.3197 36.7898 77.3191 36.8673 77.3186 36.9472C77.3179 37.007 77.3172 37.0667 77.3164 37.1283C77.3663 37.1283 77.4161 37.1282 77.4674 37.1281C80.419 37.124 83.3706 37.1209 86.3222 37.119C86.6764 37.1188 87.0306 37.1186 87.3848 37.1183C87.4553 37.1183 87.5258 37.1182 87.5984 37.1182C88.7411 37.1174 89.8837 37.116 91.0264 37.1143C92.1983 37.1126 93.3702 37.1116 94.5421 37.1112C95.2656 37.111 95.9891 37.1102 96.7126 37.1087C97.2083 37.1078 97.704 37.1075 98.1997 37.1077C98.486 37.1078 98.7723 37.1076 99.0585 37.1067C99.3204 37.1058 99.5823 37.1057 99.8442 37.1064C99.9391 37.1064 100.034 37.1062 100.129 37.1056C100.258 37.1049 100.386 37.1053 100.515 37.106C100.587 37.1059 100.658 37.1058 100.732 37.1058C100.997 37.1374 101.156 37.2338 101.332 37.4308C101.445 37.7106 101.431 37.9812 101.429 38.2802C101.429 38.3449 101.43 38.4095 101.43 38.4762C101.43 38.6127 101.43 38.7493 101.429 38.8858C101.428 39.0946 101.429 39.3034 101.43 39.5122C101.43 39.645 101.43 39.7778 101.429 39.9106C101.43 39.9729 101.43 40.0353 101.43 40.0995C101.425 40.6549 101.425 40.6549 101.224 40.8808C101.012 41.0187 100.831 41.0169 100.582 41.0168C100.542 41.0169 100.502 41.0171 100.46 41.0172C100.325 41.0175 100.189 41.017 100.054 41.0164C99.9562 41.0165 99.8584 41.0166 99.7605 41.0168C99.4913 41.017 99.222 41.0165 98.9527 41.0159C98.6625 41.0154 98.3723 41.0156 98.0821 41.0157C97.5792 41.0157 97.0762 41.0154 96.5733 41.0147C95.8461 41.0137 95.1189 41.0134 94.3917 41.0132C93.2119 41.013 92.0322 41.0122 90.8524 41.011C89.7063 41.0099 88.5601 41.0091 87.414 41.0085C87.3433 41.0085 87.2727 41.0085 87.1999 41.0084C86.8457 41.0083 86.4914 41.0081 86.1371 41.008C83.1969 41.0067 80.2566 41.0046 77.3164 41.0019C77.3165 41.0549 77.3166 41.108 77.3167 41.1626C77.3221 44.3037 77.3263 47.4448 77.3288 50.586C77.3291 50.9629 77.3294 51.3398 77.3297 51.7167C77.3298 51.7917 77.3299 51.8668 77.3299 51.9441C77.331 53.1601 77.3329 54.3761 77.3351 55.5921C77.3374 56.8393 77.3387 58.0865 77.3392 59.3336C77.3395 60.1036 77.3406 60.8735 77.3426 61.6435C77.3438 62.171 77.3442 62.6985 77.3439 63.2261C77.3438 63.5307 77.344 63.8354 77.3453 64.14C77.3465 64.4187 77.3465 64.6974 77.3457 64.9761C77.3456 65.0771 77.3459 65.1781 77.3467 65.2791C77.3476 65.4161 77.3471 65.5531 77.3462 65.6901C77.3463 65.7663 77.3464 65.8424 77.3465 65.9209C77.311 66.1556 77.2395 66.2551 77.0743 66.4222C76.9221 66.4983 76.8147 66.4921 76.6443 66.4944C76.5477 66.4959 76.5477 66.4959 76.449 66.4973C76.1541 66.5 75.8593 66.5025 75.5644 66.5039C75.4088 66.5049 75.2531 66.5066 75.0975 66.5089C74.8734 66.5122 74.6493 66.5135 74.4252 66.5144C74.3557 66.5158 74.2861 66.5171 74.2144 66.5186C73.7321 66.5173 73.7321 66.5173 73.4912 66.3408C73.3164 66.0828 73.3143 65.8913 73.3144 65.5858C73.3143 65.5434 73.3142 65.501 73.3142 65.4573C73.314 65.3141 73.3143 65.1709 73.3145 65.0277C73.3145 64.9245 73.3145 64.8212 73.3144 64.7179C73.3142 64.4333 73.3145 64.1488 73.3148 63.8642C73.315 63.5576 73.315 63.251 73.3149 62.9444C73.3149 62.413 73.3151 61.8815 73.3154 61.3501C73.3159 60.5817 73.3161 59.8133 73.3161 59.0449C73.3163 57.7983 73.3167 56.5517 73.3172 55.3051C73.3178 54.094 73.3182 52.8828 73.3185 51.6716C73.3185 51.597 73.3185 51.5224 73.3185 51.4455C73.3186 51.0712 73.3187 50.6969 73.3188 50.3226C73.3194 47.2157 73.3205 44.1088 73.3218 41.0019C73.2582 41.0038 73.2582 41.0038 73.1933 41.0057C73.0003 41.0108 72.8074 41.0139 72.6144 41.017C72.5477 41.019 72.4809 41.0211 72.4122 41.0232C71.9154 41.0292 71.9154 41.0292 71.6762 40.8879C71.4016 40.567 71.427 40.2351 71.4273 39.8314C71.4271 39.7708 71.4268 39.7103 71.4266 39.648C71.4262 39.5203 71.4262 39.3925 71.4264 39.2648C71.4266 39.0698 71.4252 38.8748 71.4237 38.6799C71.4235 38.5555 71.4235 38.4312 71.4236 38.3069C71.423 38.2488 71.4224 38.1907 71.4219 38.1309C71.4241 37.8145 71.4383 37.5771 71.6271 37.3099C71.8396 37.1414 71.9959 37.1061 72.2638 37.1106C72.3256 37.1112 72.3875 37.1118 72.4512 37.1124C72.547 37.1146 72.547 37.1146 72.6447 37.117C72.7422 37.1182 72.7422 37.1182 72.8418 37.1195C73.0018 37.1216 73.1618 37.1246 73.3218 37.1283C73.3187 37.0549 73.3187 37.0549 73.3154 36.9801C73.3138 36.9154 73.3122 36.8507 73.3105 36.7841C73.3073 36.6882 73.3073 36.6882 73.3041 36.5905C73.3287 36.3285 73.4176 36.1774 73.6112 36.0015C73.7743 35.8999 73.8715 35.8945 74.0626 35.8934Z" fill="#115056"/>
<path d="M40.9669 89.2174C41.0767 89.217 41.0767 89.217 41.1886 89.2166C41.3907 89.2161 41.5928 89.2164 41.7949 89.2171C42.0151 89.2176 42.2353 89.2171 42.4555 89.2167C42.8412 89.2161 43.2268 89.2162 43.6125 89.2168C44.1859 89.2176 44.7594 89.2174 45.3329 89.217C46.3571 89.2162 47.3813 89.2166 48.4055 89.2173C49.3018 89.2179 50.198 89.2182 51.0943 89.2181C51.1834 89.2181 51.1834 89.2181 51.2744 89.2181C51.5157 89.2181 51.7571 89.2181 51.9984 89.218C54.2621 89.2178 56.5257 89.2186 58.7894 89.2198C60.8008 89.2209 62.8122 89.2213 64.8235 89.221C64.9527 89.2209 65.0819 89.2209 65.211 89.2209C65.3068 89.2209 65.3068 89.2209 65.4045 89.2209C65.726 89.2208 66.0474 89.2208 66.3689 89.2207C66.4323 89.2207 66.4957 89.2207 66.5611 89.2207C68.2416 89.2204 69.9221 89.2208 71.6027 89.2213C71.7835 89.2213 71.9643 89.2214 72.1451 89.2214C72.2651 89.2215 72.385 89.2215 72.5049 89.2216C73.3414 89.2218 74.1778 89.2218 75.0142 89.2217C76.092 89.2216 77.1697 89.2218 78.2475 89.2228C78.8175 89.2233 79.3876 89.2234 79.9576 89.2231C80.3383 89.2229 80.7189 89.2232 81.0996 89.2238C81.3165 89.2241 81.5335 89.2243 81.7504 89.2239C81.9842 89.2235 82.2179 89.224 82.4516 89.2247C82.5189 89.2244 82.5862 89.2241 82.6556 89.2238C83.3244 89.2272 83.8497 89.3178 84.3482 89.7876C84.8266 90.2939 84.9199 90.6853 84.9034 91.3811C84.8539 91.9027 84.5947 92.2769 84.2168 92.6294C83.6972 93.0396 83.1591 93.071 82.5186 93.0685C82.4091 93.0688 82.4091 93.0688 82.2974 93.0691C82.0948 93.0695 81.8923 93.0694 81.6898 93.069C81.4694 93.0688 81.249 93.0692 81.0286 93.0696C80.6424 93.0701 80.2562 93.0702 79.8699 93.07C79.2956 93.0697 78.7213 93.07 78.1469 93.0705C77.0615 93.0714 75.9761 93.0716 74.8907 93.0714C74.0525 93.0713 73.2144 93.0714 72.3762 93.0717C72.2559 93.0717 72.1355 93.0717 72.0151 93.0718C71.8337 93.0718 71.6523 93.0719 71.4709 93.0719C69.7842 93.0724 68.0974 93.0727 66.4107 93.0725C66.3471 93.0724 66.2835 93.0724 66.218 93.0724C65.8956 93.0724 65.5733 93.0723 65.2509 93.0723C65.1869 93.0723 65.1229 93.0723 65.0569 93.0722C64.9275 93.0722 64.798 93.0722 64.6685 93.0722C62.6539 93.0719 60.6393 93.0723 58.6247 93.0735C56.3617 93.0747 54.0987 93.0754 51.8357 93.0751C51.5944 93.0751 51.3531 93.0751 51.1119 93.075C51.0525 93.075 50.9931 93.075 50.9319 93.075C50.0348 93.075 49.1377 93.0754 48.2406 93.076C47.2204 93.0767 46.2002 93.0768 45.18 93.0761C44.609 93.0757 44.0381 93.0758 43.4671 93.0766C43.0857 93.0771 42.7043 93.0769 42.3228 93.0762C42.1055 93.0759 41.8882 93.0758 41.6709 93.0765C41.4366 93.0772 41.2024 93.0766 40.9681 93.0758C40.9009 93.0762 40.8338 93.0767 40.7646 93.0771C40.068 93.0723 39.5127 92.9392 39.0049 92.4479C38.6592 92.0883 38.5501 91.6328 38.498 91.1466C38.5694 90.4805 38.794 89.9773 39.3227 89.5502C39.8212 89.238 40.3952 89.2136 40.9669 89.2174Z" fill="#115056"/>
<path d="M40.2295 79.8435C40.2925 79.8432 40.3555 79.8429 40.4204 79.8425C40.4893 79.8428 40.5583 79.843 40.6294 79.8433C40.7031 79.8431 40.7769 79.8429 40.8529 79.8426C41.0583 79.8422 41.2638 79.8422 41.4693 79.8426C41.6925 79.8428 41.9158 79.8422 42.139 79.8418C42.5306 79.8412 42.9221 79.841 43.3137 79.8412C43.8959 79.8414 44.4781 79.8408 45.0604 79.8402C46.1607 79.839 47.261 79.8387 48.3613 79.8386C49.2109 79.8386 50.0605 79.8383 50.9101 79.8379C51.1545 79.8378 51.3988 79.8377 51.6432 79.8376C51.704 79.8376 51.7647 79.8376 51.8273 79.8375C53.5366 79.8368 55.2459 79.8363 56.9552 79.8364C57.0196 79.8364 57.0841 79.8364 57.1505 79.8364C57.4773 79.8364 57.8041 79.8364 58.1309 79.8364C58.1958 79.8364 58.2607 79.8364 58.3276 79.8364C58.4588 79.8364 58.5901 79.8364 58.7213 79.8364C60.7635 79.8365 62.8057 79.8356 64.8479 79.8339C67.1413 79.8321 69.4346 79.831 71.728 79.8312C71.9724 79.8312 72.2169 79.8312 72.4614 79.8312C72.5516 79.8312 72.5516 79.8312 72.6438 79.8312C73.6132 79.8312 74.5827 79.8304 75.5522 79.8294C76.5263 79.8283 77.5003 79.8282 78.4744 79.829C79.0533 79.8295 79.6322 79.8292 80.2112 79.8281C80.5977 79.8273 80.9843 79.8275 81.3709 79.8284C81.5912 79.8288 81.8116 79.8289 82.0319 79.8279C82.2693 79.8269 82.5066 79.8277 82.744 79.8287C82.8124 79.8281 82.8808 79.8275 82.9513 79.8269C83.5443 79.8323 83.9756 80.0002 84.4112 80.4036C84.829 80.8696 84.9049 81.332 84.8998 81.9399C84.8591 82.4639 84.6327 82.8628 84.2459 83.2099C83.7501 83.6033 83.1723 83.6381 82.5617 83.6344C82.4882 83.6347 82.4147 83.635 82.3391 83.6352C82.1358 83.6358 81.9326 83.6356 81.7294 83.6351C81.5081 83.6347 81.2867 83.6353 81.0654 83.6358C80.6777 83.6366 80.29 83.6366 79.9023 83.6363C79.3257 83.6357 78.7492 83.6362 78.1726 83.6369C77.1428 83.6381 76.1131 83.6382 75.0833 83.6379C74.1821 83.6376 73.2809 83.6377 72.3798 83.638C72.2589 83.6381 72.138 83.6381 72.0171 83.6382C71.835 83.6382 71.6529 83.6383 71.4707 83.6384C69.7773 83.639 68.0839 83.6393 66.3905 83.6388C66.3267 83.6388 66.2629 83.6388 66.1971 83.6388C65.6787 83.6386 65.1603 83.6385 64.6419 83.6383C62.6195 83.6377 60.5972 83.6382 58.5749 83.6396C56.3028 83.6412 54.0308 83.642 51.7588 83.6415C51.5166 83.6415 51.2744 83.6415 51.0322 83.6414C50.9725 83.6414 50.9129 83.6414 50.8515 83.6414C49.9509 83.6412 49.0503 83.6417 48.1497 83.6425C47.1256 83.6434 46.1016 83.6435 45.0775 83.6424C44.5044 83.6418 43.9313 83.6419 43.3582 83.643C42.9753 83.6436 42.5925 83.6433 42.2096 83.6424C41.9915 83.6419 41.7734 83.6417 41.5553 83.6426C41.3201 83.6436 41.085 83.6427 40.8498 83.6417C40.7824 83.6423 40.715 83.6428 40.6455 83.6434C40.0027 83.6374 39.4702 83.4724 39.0019 83.0234C38.6589 82.6204 38.4983 82.156 38.5082 81.6283C38.5539 81.1446 38.744 80.7064 39.0657 80.3431C39.4127 80.0573 39.7716 79.8438 40.2295 79.8435Z" fill="#115056"/>
<path d="M40.216 70.9461C40.2568 70.9459 40.2975 70.9457 40.3395 70.9455C40.4756 70.9449 40.6117 70.9452 40.7478 70.9455C40.8466 70.9453 40.9453 70.945 41.0441 70.9446C41.3151 70.9439 41.5861 70.9439 41.8572 70.9441C42.1496 70.9441 42.442 70.9434 42.7345 70.9428C43.3073 70.9418 43.8801 70.9415 44.453 70.9414C44.9186 70.9414 45.3843 70.9411 45.8499 70.9408C47.1704 70.9397 48.4908 70.9391 49.8113 70.9392C49.8824 70.9392 49.9536 70.9392 50.027 70.9392C50.1338 70.9392 50.1338 70.9392 50.2429 70.9392C51.3978 70.9393 52.5527 70.9381 53.7076 70.9364C54.8936 70.9347 56.0796 70.9339 57.2656 70.934C57.9314 70.934 58.5972 70.9337 59.263 70.9324C59.8299 70.9313 60.3967 70.931 60.9636 70.9318C61.2527 70.9322 61.5419 70.9322 61.831 70.9312C62.0959 70.9302 62.3608 70.9304 62.6258 70.9315C62.7214 70.9316 62.817 70.9314 62.9125 70.9307C63.5807 70.9263 64.1801 70.9608 64.6935 71.4307C65.1418 71.9222 65.2406 72.4275 65.2283 73.0746C65.2056 73.5658 65.005 73.9499 64.6706 74.3052C64.2243 74.6862 63.7391 74.7822 63.1658 74.7825C63.1257 74.7826 63.0856 74.7827 63.0442 74.7828C62.91 74.7831 62.7757 74.783 62.6415 74.7828C62.5442 74.7829 62.4469 74.7831 62.3496 74.7832C62.0823 74.7836 61.8151 74.7836 61.5478 74.7835C61.2596 74.7835 60.9713 74.7838 60.683 74.7841C60.1183 74.7846 59.5535 74.7848 58.9888 74.7848C58.5298 74.7849 58.0707 74.785 57.6117 74.7852C56.3104 74.7857 55.0091 74.786 53.7078 74.7859C53.6376 74.7859 53.5674 74.7859 53.4952 74.7859C53.3898 74.7859 53.3898 74.7859 53.2823 74.7859C52.1438 74.7859 51.0052 74.7865 49.8667 74.7873C48.6978 74.7882 47.5288 74.7886 46.3599 74.7886C45.7036 74.7885 45.0473 74.7887 44.391 74.7894C43.8322 74.7899 43.2734 74.79 42.7147 74.7896C42.4296 74.7894 42.1445 74.7894 41.8595 74.79C41.5984 74.7904 41.3373 74.7903 41.0762 74.7898C40.9819 74.7897 40.8876 74.7898 40.7933 74.7902C40.055 74.7926 39.413 74.7755 38.8417 74.2584C38.4619 73.8548 38.3252 73.4167 38.3086 72.8682C38.3289 72.2178 38.5319 71.7707 39.0046 71.3248C39.3765 71.0305 39.7473 70.9466 40.216 70.9461Z" fill="#115056"/>
<path d="M40.326 62.0942C40.4109 62.0939 40.4959 62.0935 40.5808 62.093C40.8134 62.092 41.046 62.0925 41.2786 62.0933C41.5298 62.0938 41.781 62.093 42.0322 62.0923C42.5239 62.0912 43.0156 62.0915 43.5073 62.0922C43.907 62.0927 44.3067 62.0928 44.7064 62.0925C44.7633 62.0925 44.8202 62.0925 44.8788 62.0924C44.9944 62.0924 45.11 62.0923 45.2256 62.0922C46.3094 62.0915 47.3932 62.0923 48.477 62.0936C49.4067 62.0947 50.3364 62.0945 51.2662 62.0934C52.3461 62.0921 53.4261 62.0916 54.506 62.0923C54.6212 62.0924 54.7364 62.0925 54.8515 62.0925C54.9366 62.0926 54.9366 62.0926 55.0233 62.0927C55.4224 62.0929 55.8216 62.0925 56.2207 62.0919C56.7072 62.0913 57.1937 62.0914 57.6802 62.0927C57.9283 62.0934 58.1765 62.0936 58.4247 62.0928C58.652 62.0921 58.8792 62.0925 59.1065 62.0938C59.2274 62.0942 59.3484 62.0934 59.4693 62.0926C59.9648 62.0969 60.2903 62.1554 60.6838 62.4732C61.1444 63.0011 61.2723 63.5614 61.2408 64.2511C61.1875 64.8011 60.9956 65.173 60.6306 65.5824C60.2041 65.9311 59.7683 65.9034 59.2392 65.9009C59.1543 65.9012 59.0694 65.9015 58.9845 65.9019C58.7518 65.9028 58.519 65.9025 58.2863 65.9021C58.0351 65.9018 57.7839 65.9026 57.5326 65.9032C57.0407 65.9042 56.5488 65.9043 56.0568 65.9039C55.657 65.9037 55.2571 65.9038 54.8573 65.9041C54.8004 65.9042 54.7435 65.9042 54.6848 65.9043C54.5692 65.9043 54.4536 65.9044 54.3379 65.9045C53.2538 65.9054 52.1696 65.905 51.0854 65.9043C50.0936 65.9037 49.1018 65.9045 48.11 65.906C47.0914 65.9074 46.0729 65.908 45.0544 65.9076C44.4826 65.9074 43.9108 65.9075 43.339 65.9086C42.8523 65.9095 42.3656 65.9095 41.8789 65.9085C41.6306 65.908 41.3823 65.9078 41.1341 65.9088C40.9066 65.9096 40.6793 65.9093 40.4519 65.9081C40.3309 65.9078 40.2099 65.9087 40.0889 65.9096C39.5932 65.9055 39.2678 65.8471 38.8741 65.5292C38.4135 65.0013 38.2859 64.4412 38.3169 63.7515C38.367 63.2387 38.5368 62.8598 38.8741 62.4732C39.3377 62.0989 39.7489 62.0902 40.326 62.0942Z" fill="#115056"/>
<path d="M80.6738 42.5673C80.7779 42.5667 80.7779 42.5667 80.8841 42.5662C80.9607 42.5661 81.0373 42.5661 81.1162 42.566C81.1981 42.5657 81.28 42.5654 81.3619 42.5651C81.5874 42.5642 81.813 42.5638 82.0386 42.5634C82.2319 42.563 82.4253 42.5624 82.6187 42.5618C83.2558 42.5597 83.8929 42.5584 84.53 42.5573C84.6958 42.557 84.8617 42.5567 85.0276 42.5564C86.0576 42.5546 87.0876 42.553 88.1176 42.5519C88.3562 42.5517 88.5948 42.5515 88.8334 42.5512C88.8927 42.5511 88.952 42.5511 89.0131 42.551C89.9738 42.55 90.9344 42.5475 91.8951 42.5444C92.8812 42.5413 93.8674 42.5395 94.8536 42.5391C95.4074 42.5388 95.9611 42.5379 96.5148 42.5355C96.9865 42.5334 97.458 42.5326 97.9297 42.5333C98.1703 42.5337 98.4108 42.5334 98.6514 42.5316C98.8718 42.53 99.0922 42.53 99.3127 42.5313C99.4298 42.5316 99.5469 42.5301 99.664 42.5286C100.137 42.5337 100.445 42.6164 100.799 42.9389C101.15 43.3615 101.18 43.7965 101.178 44.3225C101.178 44.3816 101.179 44.4407 101.179 44.5016C101.18 44.6991 101.179 44.8965 101.179 45.094C101.179 45.2358 101.18 45.3776 101.18 45.5194C101.181 45.9041 101.181 46.2889 101.181 46.6737C101.181 47.0356 101.181 47.3976 101.181 47.7595C101.182 48.5201 101.182 49.2807 101.182 50.0413C101.181 50.7366 101.182 51.432 101.183 52.1273C101.184 52.8419 101.185 53.5565 101.184 54.2711C101.184 54.672 101.185 55.0729 101.185 55.4739C101.186 55.8509 101.186 56.2279 101.185 56.6049C101.185 56.7432 101.185 56.8815 101.186 57.0198C101.186 57.2087 101.186 57.3976 101.185 57.5865C101.186 57.6411 101.186 57.6957 101.186 57.7519C101.182 58.2452 101.051 58.6458 100.739 59.0384C100.442 59.2626 100.232 59.3484 99.8631 59.3493C99.7938 59.3496 99.7246 59.3499 99.6533 59.3502C99.5769 59.3503 99.5005 59.3503 99.4218 59.3503C99.3401 59.3506 99.2585 59.3508 99.1768 59.3511C98.9518 59.3519 98.7268 59.3522 98.5018 59.3525C98.2593 59.3528 98.0168 59.3535 97.7743 59.3542C97.1885 59.3557 96.6027 59.3566 96.0168 59.3573C95.8514 59.3576 95.6859 59.3578 95.5205 59.3581C94.4934 59.3596 93.4662 59.3609 92.4391 59.3617C92.2012 59.3618 91.9632 59.362 91.7253 59.3622C91.6661 59.3623 91.607 59.3623 91.5461 59.3623C90.5879 59.3631 89.6297 59.3651 88.6716 59.3676C87.6881 59.3702 86.7046 59.3716 85.7211 59.372C85.1688 59.3722 84.6165 59.3729 84.0642 59.3749C83.5939 59.3766 83.1235 59.3772 82.6532 59.3766C82.4132 59.3762 82.1733 59.3764 81.9334 59.3779C81.7136 59.3793 81.4938 59.3792 81.274 59.3781C81.1571 59.3778 81.0402 59.3791 80.9233 59.3804C80.4325 59.3759 80.1201 59.2946 79.7662 58.9489C79.435 58.5787 79.4164 58.2502 79.418 57.7765C79.4177 57.7161 79.4174 57.6556 79.4171 57.5933C79.4164 57.3904 79.4165 57.1876 79.4166 56.9847C79.4162 56.8394 79.4158 56.694 79.4153 56.5487C79.4144 56.1947 79.414 55.8407 79.4139 55.4867C79.4139 55.1989 79.4136 54.9111 79.4132 54.6233C79.4122 53.807 79.4116 52.9906 79.4117 52.1743C79.4117 52.1303 79.4117 52.0863 79.4117 52.041C79.4117 51.9969 79.4117 51.9529 79.4117 51.9075C79.4118 51.1938 79.4106 50.48 79.4089 49.7663C79.4072 49.0331 79.4064 48.2999 79.4065 47.5667C79.4065 47.1552 79.4062 46.7437 79.4049 46.3322C79.4036 45.9452 79.4037 45.5582 79.4046 45.1711C79.4047 45.0291 79.4044 44.8871 79.4037 44.7451C79.4027 44.5511 79.4033 44.3572 79.4042 44.1633C79.4036 44.1072 79.403 44.0511 79.4023 43.9933C79.4069 43.5651 79.5117 43.2441 79.7994 42.9221C79.8399 42.8889 79.8804 42.8558 79.9221 42.8216C79.9628 42.7874 80.0034 42.7531 80.0453 42.7178C80.2515 42.5717 80.4289 42.568 80.6738 42.5673ZM80.5827 43.8404C80.5422 43.8978 80.5422 43.8978 80.5009 43.9564C80.473 43.9943 80.445 44.0321 80.4163 44.0711C80.2267 44.4256 80.2032 44.7674 80.2048 45.1607C80.2045 45.2123 80.2042 45.2638 80.204 45.317C80.2032 45.4891 80.2033 45.6612 80.2034 45.8332C80.203 45.957 80.2026 46.0807 80.2022 46.2044C80.2011 46.5399 80.2008 46.8754 80.2007 47.2109C80.2006 47.4207 80.2004 47.6304 80.2001 47.8402C80.1989 48.5724 80.1985 49.3046 80.1985 50.0368C80.1986 50.7186 80.1973 51.4005 80.1954 52.0824C80.1938 52.6683 80.1932 53.2543 80.1933 53.8403C80.1933 54.19 80.193 54.5398 80.1917 54.8895C80.1905 55.2185 80.1905 55.5475 80.1914 55.8765C80.1915 55.997 80.1912 56.1175 80.1905 56.238C80.1708 57.2183 80.1708 57.2183 80.6144 58.0662C80.9133 58.3128 81.0975 58.4405 81.4939 58.4413C81.5572 58.4415 81.6206 58.4418 81.6858 58.4421C81.7556 58.4421 81.8254 58.4421 81.8973 58.4421C81.9712 58.4423 82.0452 58.4425 82.1214 58.4427C82.3271 58.4433 82.5327 58.4436 82.7384 58.4437C82.9601 58.444 83.1818 58.4445 83.4035 58.4451C83.939 58.4463 84.4746 58.4469 85.0102 58.4474C85.2623 58.4477 85.5145 58.448 85.7667 58.4483C86.605 58.4494 87.4432 58.4502 88.2815 58.4507C88.499 58.4508 88.7166 58.4509 88.9341 58.451C88.9882 58.451 89.0423 58.4511 89.098 58.4511C89.974 58.4516 90.8499 58.4531 91.7259 58.4551C92.6251 58.4571 93.5244 58.4582 94.4236 58.4584C94.9286 58.4585 95.4335 58.4591 95.9384 58.4606C96.3684 58.4619 96.7984 58.4624 97.2285 58.4618C97.4478 58.4615 97.6672 58.4617 97.8865 58.4628C98.1245 58.4641 98.3624 58.4635 98.6004 58.4627C98.6695 58.4633 98.7386 58.464 98.8098 58.4647C99.2667 58.461 99.6101 58.4016 99.9534 58.0743C99.9804 58.0354 100.007 57.9966 100.035 57.9565C100.063 57.918 100.091 57.8794 100.12 57.8397C100.308 57.5024 100.333 57.1956 100.331 56.8193C100.332 56.7412 100.332 56.7412 100.332 56.6616C100.333 56.4877 100.333 56.3137 100.333 56.1398C100.333 56.0149 100.333 55.89 100.334 55.7651C100.335 55.4261 100.335 55.0871 100.335 54.7481C100.335 54.5361 100.336 54.3242 100.336 54.1123C100.337 53.3726 100.338 52.633 100.338 51.8933C100.337 51.2044 100.339 50.5155 100.341 49.8266C100.342 49.2347 100.343 48.6428 100.343 48.0509C100.343 47.6976 100.343 47.3443 100.344 46.991C100.346 46.6586 100.346 46.3261 100.345 45.9937C100.345 45.8719 100.345 45.7502 100.346 45.6284C100.382 44.6747 100.382 44.6747 99.9653 43.852C99.6981 43.6055 99.463 43.4686 99.0943 43.468C99.0307 43.4676 98.967 43.4672 98.9015 43.4668C98.8316 43.467 98.7618 43.4672 98.6898 43.4674C98.5784 43.467 98.5784 43.467 98.4648 43.4666C98.2585 43.4659 98.0523 43.4658 97.8461 43.466C97.6237 43.466 97.4013 43.4653 97.1789 43.4648C96.7431 43.4638 96.3074 43.4634 95.8716 43.4634C95.5174 43.4633 95.1632 43.4631 94.8089 43.4627C93.8047 43.4616 92.8004 43.4611 91.7962 43.4611C91.742 43.4611 91.6879 43.4612 91.6321 43.4612C91.5779 43.4612 91.5236 43.4612 91.4678 43.4612C90.5893 43.4612 89.7108 43.4601 88.8322 43.4584C87.9303 43.4566 87.0283 43.4558 86.1263 43.4559C85.6199 43.4559 85.1135 43.4556 84.607 43.4543C84.1758 43.4532 83.7446 43.4529 83.3133 43.4537C83.0934 43.4541 82.8734 43.4542 82.6534 43.4531C82.4148 43.452 82.1762 43.4527 81.9376 43.4537C81.8683 43.453 81.799 43.4524 81.7276 43.4518C81.2698 43.4557 80.9291 43.5161 80.5827 43.8404Z" fill="#115056"/>
<path d="M50.2378 36.3777C50.383 36.4021 50.383 36.4021 50.5041 36.5232C50.5075 36.6988 50.5075 36.6988 50.4899 36.9228C50.4852 36.9834 50.4852 36.9834 50.4803 37.0451C50.4416 37.5061 50.3755 37.9631 50.3074 38.4205C50.294 38.5119 50.2807 38.6034 50.2674 38.6949C50.2327 38.9327 50.1976 39.1704 50.1624 39.4081C50.1266 39.6504 50.0912 39.8928 50.0558 40.1351C50.004 40.4891 49.9521 40.8431 49.8998 41.197C49.8841 41.303 49.8841 41.303 49.8682 41.4111C49.8482 41.5423 49.827 41.6733 49.8047 41.8041C49.7779 41.9695 49.7697 42.1245 49.7702 42.2919C49.7701 42.3441 49.7699 42.3963 49.7698 42.4501C49.7639 42.575 49.7639 42.575 49.8383 42.6361C49.9936 42.6424 50.1472 42.6448 50.3025 42.6447C50.3511 42.6449 50.3997 42.6451 50.4498 42.6454C50.5558 42.6458 50.6617 42.6461 50.7677 42.6463C50.9353 42.6468 51.1029 42.6477 51.2705 42.6488C51.7472 42.652 52.2239 42.6549 52.7006 42.6559C52.9919 42.6565 53.2831 42.6582 53.5744 42.6608C53.6855 42.6615 53.7966 42.6618 53.9078 42.6617C54.0633 42.6616 54.2187 42.6629 54.3742 42.6646C54.4432 42.664 54.4432 42.664 54.5136 42.6634C54.7247 42.6671 54.8417 42.6816 55.0131 42.8094C55.1039 42.9388 55.1039 42.9388 55.1087 43.1031C55.0205 43.3718 54.8813 43.5854 54.7257 43.8202C54.6588 43.9235 54.592 44.0269 54.5252 44.1303C54.4906 44.1835 54.4561 44.2368 54.4204 44.2916C54.2565 44.5459 54.0976 44.8033 53.9389 45.0609C53.9066 45.1131 53.8743 45.1653 53.8411 45.219C53.6594 45.5131 53.4782 45.8076 53.2972 46.1021C52.8661 46.8036 52.4331 47.5038 51.996 48.2016C51.6337 48.7804 51.276 49.3622 50.9185 49.944C50.7067 50.2888 50.494 50.6331 50.2809 50.9772C50.2492 51.0283 50.2175 51.0795 50.1849 51.1322C50.0564 51.3395 49.9279 51.5469 49.7993 51.7542C49.3915 52.412 48.985 53.0704 48.582 53.731C48.5583 53.7695 48.5346 53.808 48.5102 53.8477C48.4538 53.9417 48.4011 54.038 48.3491 54.1346C48.3212 54.175 48.2934 54.2153 48.2647 54.2569C48.0718 54.2758 48.0718 54.2758 47.9015 54.2569C47.7472 53.9976 47.7924 53.8174 47.862 53.5407C47.8769 53.4854 47.8918 53.4301 47.9072 53.3731C47.9226 53.3132 47.938 53.2534 47.9538 53.1917C48.0061 52.9892 48.0597 52.787 48.1134 52.5849C48.1507 52.4411 48.188 52.2973 48.2252 52.1535C48.4576 51.2591 48.6967 50.3665 48.9351 49.4738C48.9809 49.3022 49.0267 49.1307 49.0724 48.9591C49.1029 48.8447 49.1334 48.7303 49.1639 48.6159C49.179 48.5594 49.1941 48.5028 49.2096 48.4445C49.3005 48.1038 49.392 47.7633 49.4839 47.4229C49.5419 47.208 49.5995 46.993 49.6569 46.7779C49.6839 46.6771 49.7112 46.5763 49.7386 46.4756C49.7764 46.3366 49.8136 46.1975 49.8506 46.0583C49.8617 46.018 49.8728 45.9778 49.8843 45.9364C49.9519 45.6786 49.9744 45.4442 49.9594 45.1782C49.8364 45.0552 49.5804 45.1083 49.4115 45.1081C49.3604 45.1078 49.3093 45.1075 49.2567 45.1072C49.1454 45.1065 49.0341 45.106 48.9228 45.1056C48.7468 45.1049 48.5708 45.1037 48.3948 45.1024C47.8943 45.0986 47.3938 45.0954 46.8933 45.0934C46.5875 45.0921 46.2817 45.09 45.976 45.0873C45.8592 45.0864 45.7425 45.0859 45.6257 45.0857C45.4625 45.0854 45.2994 45.084 45.1362 45.0823C45.0635 45.0826 45.0635 45.0826 44.9893 45.0829C44.6637 45.078 44.6637 45.078 44.5108 44.9734C44.4516 44.8755 44.4516 44.8755 44.4537 44.737C44.5287 44.5263 44.6474 44.3631 44.781 44.1866C44.8367 44.1109 44.8922 44.035 44.9477 43.9591C44.9761 43.9204 45.0044 43.8816 45.0337 43.8417C45.1638 43.6612 45.2874 43.4765 45.4103 43.291C45.4349 43.254 45.4595 43.217 45.4848 43.1789C45.5361 43.1015 45.5873 43.0241 45.6385 42.9467C45.7824 42.7293 45.9268 42.5123 46.0711 42.2952C46.1016 42.2494 46.1321 42.2036 46.1635 42.1563C46.695 41.3578 47.2336 40.5639 47.7709 39.7692C47.9813 39.4581 48.1914 39.1467 48.4012 38.8352C48.5385 38.6313 48.6759 38.4275 48.8133 38.2237C48.8777 38.128 48.9422 38.0324 49.0065 37.9366C49.1769 37.6833 49.3481 37.4306 49.5208 37.1787C49.5933 37.0722 49.6645 36.9649 49.7356 36.8574C49.7774 36.7962 49.8192 36.7349 49.8622 36.6719C49.9151 36.5929 49.9151 36.5929 49.969 36.5122C50.0804 36.4021 50.0804 36.4021 50.2378 36.3777Z" fill="#115056"/>
<path d="M90.5116 45.5413C90.6683 45.6199 90.7926 45.7248 90.9239 45.8401C90.9598 45.87 90.9957 45.8998 91.0327 45.9306C91.1062 45.9919 91.1793 46.0537 91.252 46.1159C91.4139 46.2539 91.5795 46.3871 91.7448 46.521C91.8381 46.5978 91.9315 46.6747 92.0247 46.7518C92.0297 46.6856 92.0347 46.6194 92.0398 46.5513C92.0852 46.3281 92.0852 46.3281 92.1818 46.2249C92.3817 46.1172 92.5375 46.123 92.764 46.1224C92.8269 46.1221 92.8269 46.1221 92.891 46.1219C92.9795 46.1218 93.068 46.1221 93.1564 46.1228C93.2913 46.1238 93.426 46.1229 93.5608 46.1217C93.647 46.1218 93.7332 46.122 93.8194 46.1224C93.8974 46.1226 93.9754 46.1228 94.0558 46.123C94.2765 46.1479 94.3913 46.1947 94.5667 46.3281C94.6372 46.4691 94.6346 46.5504 94.6341 46.7073C94.6341 46.7607 94.6341 46.814 94.6341 46.8689C94.6338 46.9265 94.6335 46.9841 94.6331 47.0435C94.633 47.1319 94.633 47.1319 94.6329 47.2221C94.6325 47.4108 94.6318 47.5995 94.631 47.7882C94.6307 47.916 94.6304 48.0437 94.6302 48.1715C94.6295 48.4851 94.6285 48.7986 94.6272 49.1122C94.6635 49.1292 94.6997 49.1461 94.737 49.1636C94.9302 49.2654 95.0833 49.409 95.2438 49.5548C95.2769 49.5835 95.3099 49.6122 95.344 49.6417C95.4894 49.7734 95.5872 49.875 95.6528 50.0617C95.6574 50.255 95.5869 50.3504 95.4746 50.5043C95.3535 50.6253 95.3535 50.6253 95.184 50.6476C94.9442 50.62 94.857 50.5487 94.6764 50.3908C94.6256 50.3473 94.5748 50.3037 94.5225 50.2589C94.4939 50.2318 94.4654 50.2047 94.436 50.1768C94.3197 50.0721 94.3197 50.0721 94.1557 49.9701C93.7026 49.6404 93.7026 49.6404 93.6241 49.3444C93.5757 48.9725 93.5981 48.6005 93.6172 48.2271C93.6206 48.1132 93.6236 47.9993 93.6263 47.8854C93.6336 47.6082 93.6451 47.3314 93.6588 47.0544C93.4391 47.0544 93.2194 47.0544 92.9931 47.0544C92.9959 47.1171 92.9987 47.1798 93.0016 47.2445C93.0039 47.3274 93.0061 47.4103 93.0082 47.4932C93.0102 47.5345 93.0123 47.5757 93.0144 47.6183C93.0184 47.8278 93.0101 47.9398 92.882 48.1091C92.7104 48.2339 92.6 48.2606 92.3878 48.2649C92.0695 48.1358 91.8414 47.939 91.5897 47.7126C91.5096 47.6421 91.4296 47.5716 91.3495 47.5012C91.3102 47.4666 91.271 47.432 91.2305 47.3963C91.0695 47.255 90.9067 47.1162 90.7423 46.9787C90.6915 46.936 90.6407 46.8932 90.5884 46.8492C90.4509 46.7517 90.3743 46.7115 90.2089 46.6912C90.0576 46.8023 89.9259 46.9123 89.7891 47.0393C89.7073 47.1127 89.6255 47.186 89.5436 47.2594C89.5028 47.2964 89.4619 47.3334 89.4198 47.3715C89.251 47.523 89.0778 47.6691 88.9039 47.8147C88.6653 48.0156 88.4279 48.2177 88.1915 48.4211C87.7016 48.8429 87.2037 49.2535 86.6985 49.6569C86.7576 49.6977 86.8167 49.7384 86.8775 49.7804C87.0384 49.9155 87.0593 49.9485 87.1053 50.166C87.1045 50.2449 87.1037 50.3238 87.1029 50.4051C87.1029 50.4495 87.103 50.4939 87.103 50.5397C87.1028 50.6828 87.1 50.8258 87.0971 50.9689C87.0966 51.0575 87.0962 51.1461 87.096 51.2347C87.0941 51.5625 87.0891 51.8902 87.0844 52.2179C87.0769 52.9507 87.0694 53.6834 87.0617 54.4384C89.2387 54.4384 91.4158 54.4384 93.6588 54.4384C93.6588 53.7393 93.6588 53.0403 93.6588 52.32C93.9009 52.0779 93.9009 52.0779 94.0241 52.0479C94.3549 52.0575 94.3549 52.0575 94.5024 52.1574C94.6146 52.3356 94.6351 52.4907 94.637 52.6958C94.6376 52.7469 94.6382 52.798 94.6388 52.8507C94.6391 52.9332 94.6391 52.9332 94.6395 53.0175C94.6399 53.0743 94.6402 53.1311 94.6406 53.1896C94.6411 53.3097 94.6415 53.4299 94.6418 53.5501C94.6424 53.7337 94.6442 53.9172 94.6461 54.1008C94.6465 54.2176 94.6469 54.3344 94.6471 54.4512C94.6478 54.5059 94.6486 54.5607 94.6494 54.6172C94.6482 54.9391 94.6245 55.1674 94.3851 55.4068C94.2806 55.413 94.1759 55.415 94.0712 55.4153C94.0031 55.4156 93.9351 55.416 93.8649 55.4163C93.7519 55.4164 93.7519 55.4164 93.6366 55.4165C93.5578 55.4168 93.479 55.4171 93.3978 55.4174C93.181 55.4182 92.9641 55.4186 92.7473 55.4189C92.6119 55.4191 92.4766 55.4193 92.3412 55.4196C91.918 55.4204 91.4948 55.421 91.0717 55.4212C90.5825 55.4215 90.0934 55.4226 89.6043 55.4243C89.2267 55.4256 88.849 55.4262 88.4714 55.4263C88.2457 55.4264 88.0199 55.4267 87.7942 55.4278C87.5425 55.429 87.2907 55.4287 87.039 55.4284C86.9639 55.4289 86.8888 55.4295 86.8115 55.43C86.7431 55.4297 86.6746 55.4294 86.6042 55.429C86.5446 55.4291 86.485 55.4292 86.4237 55.4293C86.2748 55.4068 86.2748 55.4068 86.1648 55.3269C86.0478 55.1606 86.0696 54.9781 86.0727 54.7823C86.0726 54.715 86.0726 54.715 86.0726 54.6463C86.0727 54.4979 86.0741 54.3496 86.0755 54.2013C86.0759 54.0984 86.0761 53.9955 86.0763 53.8926C86.077 53.6219 86.0788 53.3512 86.0808 53.0804C86.0827 52.8041 86.0835 52.5279 86.0844 52.2516C86.0864 51.7095 86.0895 51.1674 86.0933 50.6253C86.0345 50.6268 85.9757 50.6282 85.9151 50.6297C85.7999 50.6314 85.7999 50.6314 85.6824 50.6331C85.568 50.6353 85.568 50.6353 85.4512 50.6375C85.2459 50.6253 85.2459 50.6253 85.0417 50.5005C84.9175 50.276 84.9131 50.1532 84.9433 49.899C85.0496 49.7673 85.1364 49.6783 85.2648 49.5737C85.2977 49.5453 85.3306 49.5169 85.3645 49.4877C85.4651 49.4014 85.567 49.3171 85.6696 49.2333C85.7553 49.1627 85.7553 49.1627 85.8427 49.0907C85.9518 49.0016 86.0613 48.9129 86.1711 48.8245C86.3418 48.6832 86.5052 48.536 86.6683 48.3859C86.9388 48.1369 87.2185 47.9035 87.5045 47.6726C87.6637 47.5412 87.817 47.4053 87.9695 47.2662C88.1751 47.0789 88.3848 46.9 88.6013 46.7253C88.8372 46.5347 89.0631 46.3371 89.2859 46.1314C90.028 45.4556 90.028 45.4556 90.5116 45.5413Z" fill="#115056"/>
</svg>
