<svg width="130" height="130" viewBox="0 0 130 130" fill="none" xmlns="http://www.w3.org/2000/svg">
<rect x="0.5" y="0.5" width="129" height="129" rx="9.5" fill="white"/>
<rect x="0.5" y="0.5" width="129" height="129" rx="9.5" stroke="#115056"/>
<g clip-path="url(#clip0_174_1000)">
<path d="M53.7151 109.706C43.1689 109.706 32.6199 109.706 22.0737 109.706C20.3606 109.706 19.9812 109.34 20.0007 107.627C20.0928 99.723 20.3662 91.8357 22.0346 84.0627C23.6054 76.7445 27.5114 71.2482 34.5422 68.3466C36.4031 67.5794 38.4984 67.3478 40.5072 66.9767C41.1238 66.8623 41.5033 66.7451 41.7042 66.1034C42.039 65.0432 42.8425 63.9747 42.742 62.9814C42.6472 62.0691 41.6065 61.2628 41.0039 60.3923C38.889 57.3317 37.6754 53.9279 37.7144 50.2227C37.7591 46.1075 37.4633 42.0452 36.8077 37.9914C35.9177 32.495 38.1887 28.2905 42.5272 25.2075C48.336 21.0895 54.8172 19.4713 61.9177 20.6905C64.5738 21.1481 66.3985 22.4957 67.3722 25.1015C67.7098 26.0083 68.5301 26.8146 69.3029 27.4619C70.8625 28.7732 72.0287 30.3272 72.8211 32.1826C73.7027 34.236 73.7362 36.3034 72.8657 38.368C72.6369 38.9121 72.4389 39.4896 72.1041 39.9667C70.6756 42.0006 70.4077 44.2465 70.458 46.6794C70.5054 49.0984 70.3352 51.5536 69.9362 53.939C69.4089 57.0889 67.8632 59.8287 65.7094 62.1919C65.2964 62.6438 65.2853 63.0093 65.4248 63.5813C65.9465 65.7073 66.6608 67.5459 69.3978 67.2334C77.6143 69.2004 82.734 74.3702 84.9604 82.4333C86.5898 88.3426 86.9776 94.4276 87.251 100.515C87.3598 102.915 87.3821 105.317 87.4156 107.716C87.4379 109.301 87.0222 109.703 85.4626 109.703C74.8801 109.703 64.2976 109.703 53.7151 109.703V109.706ZM48.7629 81.8921C48.601 81.9981 48.4309 82.1041 48.2662 82.2157C46.5811 83.3513 46.3579 83.3317 44.9489 81.8056C41.905 78.5078 38.8584 75.2128 35.8451 71.8871C35.3457 71.3347 34.983 71.2008 34.2772 71.5774C29.2161 74.281 26.281 78.5357 24.9976 84.046C23.5859 90.1087 23.2343 96.2885 22.9637 102.477C22.9023 103.891 22.9553 105.311 22.9553 106.771H32.5753C32.5753 106.266 32.5753 105.85 32.5753 105.434C32.5753 101.015 32.5753 96.5982 32.578 92.1788C32.578 91.7994 32.5669 91.4032 32.6562 91.0405C32.8375 90.3067 33.3592 89.905 34.1042 89.9496C34.838 89.9915 35.3346 90.4156 35.4378 91.18C35.4852 91.5232 35.4713 91.8747 35.4713 92.2207C35.4713 96.7433 35.4964 101.266 35.4518 105.788C35.4434 106.678 35.7252 106.891 36.5733 106.879C39.8432 106.835 43.1131 106.863 46.3858 106.86C46.6899 106.86 46.994 106.824 47.3121 106.804C47.3874 106.391 47.4655 106.054 47.5129 105.713C48.3639 99.4775 49.1256 93.2279 50.1132 87.0145C50.4313 85.0141 50.0295 83.435 48.7601 81.8977L48.7629 81.8921ZM84.2908 106.815C84.2908 104.084 84.3968 101.478 84.2685 98.8804C84.0062 93.6296 83.5431 88.3956 82.2178 83.2815C80.8619 78.053 77.8849 74.0968 73.0778 71.5495C72.4695 71.2287 72.132 71.3068 71.6772 71.809C68.7058 75.0817 65.7066 78.3293 62.7045 81.574C60.9664 83.4517 60.958 83.4433 58.8292 82.0539C58.7818 82.0232 58.7037 82.0427 58.5697 82.0344C58.3075 82.4808 58.0815 83.0025 57.7355 83.4238C57.0492 84.2608 57.0771 85.1871 57.2222 86.1664C57.5458 88.3649 57.8527 90.569 58.1568 92.7703C58.7957 97.4129 59.4319 102.058 60.0763 106.773H71.945V105.557C71.945 101.101 71.945 96.6456 71.945 92.19C71.945 91.8412 71.9283 91.4897 71.9813 91.1493C72.0985 90.3877 72.6314 89.8687 73.3317 89.9803C73.845 90.0612 74.3556 90.5551 74.7211 90.9903C74.922 91.2274 74.8383 91.7241 74.8383 92.1035C74.8438 96.5926 74.841 101.085 74.841 105.574C74.841 105.975 74.841 106.377 74.841 106.812H84.2936L84.2908 106.815ZM40.5435 47.4774C40.5658 47.4774 40.5882 47.4774 40.6133 47.4774C40.6133 48.5906 40.5575 49.7038 40.6244 50.8142C40.8002 53.6879 41.6763 56.3524 43.3558 58.6904C46.4332 62.9731 50.5373 65.2413 55.9053 64.4573C61.4072 63.651 65.9437 59.2038 67.1099 53.3503C67.5842 50.9593 67.3694 48.4371 67.6345 45.9931C67.8409 44.0791 67.322 42.6758 65.6591 41.6351C65.1374 41.3087 64.797 41.1468 64.186 41.3868C57.37 44.0568 50.5736 44.1489 43.8022 41.1831C43.5344 41.0659 43.0406 41.1134 42.8202 41.2919C40.5351 43.1557 40.5435 43.1668 40.5435 46.1214V47.4774ZM68.6054 40.4382C68.9848 39.7239 69.2722 39.1325 69.6014 38.5661C71.1806 35.857 71.0494 33.3739 68.1116 30.2909C67.8019 29.9645 67.4364 29.6883 67.0737 29.4177C65.9047 28.5332 65.0035 27.4423 64.571 26.0306C64.133 24.5965 63.1649 23.8823 61.7392 23.6089C54.8758 22.292 48.7545 24.0162 43.3279 28.2487C39.4861 31.2451 38.9476 35.3297 40.0581 40.1731C40.6049 39.5286 41.0011 39.0125 41.4503 38.5466C42.53 37.4222 42.8062 37.3943 44.1594 38.1085C46.5588 39.378 49.1256 40.0866 51.8151 40.3796C56.1871 40.8567 60.3358 40.0141 64.3032 38.2034C65.2323 37.7793 65.9409 37.8742 66.6412 38.6163C67.2104 39.2217 67.8577 39.7518 68.6054 40.441V40.4382ZM53.7123 74.8585C57.1273 72.4926 60.4893 70.1629 63.8791 67.8137C63.4997 66.7675 63.1537 65.8049 62.7994 64.8256C56.8957 68.4526 51.1037 68.4052 45.2754 64.7782C44.935 65.6794 44.5862 66.5108 44.3212 67.3673C44.2514 67.5877 44.3575 68.009 44.5304 68.1374C47.5687 70.3889 50.6322 72.6097 53.7123 74.8557V74.8585ZM53.132 85.9571C52.1834 92.8791 51.2376 99.79 50.2862 106.745H56.985C56.985 106.464 57.0045 106.288 56.9822 106.118C56.1034 99.6114 55.2134 93.1079 54.3429 86.6016C54.2508 85.9069 53.9049 85.7283 53.132 85.9571ZM51.2013 76.605C48.4504 74.599 45.7552 72.7995 43.2582 70.7544C41.6344 69.4236 40.0664 69.9118 38.1804 70.1713C41.1852 73.4356 44.0394 76.5409 46.8936 79.6433C48.3751 78.5999 49.7338 77.6401 51.1985 76.605H51.2013ZM69.1243 70.2271C67.3527 69.7193 65.8461 69.6049 64.5041 70.8771C63.9544 71.3961 63.2597 71.7616 62.632 72.1968C60.5311 73.6532 58.4274 75.1096 56.2066 76.6497C57.7104 77.6736 59.0971 78.6194 60.5144 79.5848C63.3964 76.4516 66.2144 73.3909 69.1243 70.2299V70.2271ZM56.1648 80.1707C55.4505 79.6545 54.8004 79.1439 54.1029 78.7115C53.9021 78.5887 53.5003 78.5831 53.2994 78.7059C52.5963 79.13 51.9435 79.6322 51.232 80.1316C51.6756 80.9435 52.0579 81.6773 52.4764 82.3915C52.8781 83.0751 54.4322 83.1476 54.8562 82.4864C55.3194 81.7637 55.7072 80.9937 56.1648 80.1734V80.1707Z" fill="#115056"/>
<path d="M95.2329 56.0733C95.4058 56.7875 95.4923 57.4097 95.7211 57.9733C95.8132 58.1965 96.2149 58.4002 96.4912 58.4225C99.1556 58.6317 100.751 59.9709 101.402 62.5991C101.614 63.4529 101.145 64.0583 100.157 64.0946C98.977 64.1364 97.7913 64.1057 96.6083 64.1057C92.3982 64.1057 88.1881 64.1085 83.978 64.1057C82.2956 64.1057 81.9357 63.5087 82.5049 61.9686C83.3446 59.7003 84.8206 58.3946 87.3316 58.4169C87.5492 58.4169 87.8896 58.1518 87.9705 57.9314C88.1741 57.3874 88.2606 56.8015 88.4336 56.0733C87.9733 56.0733 87.6078 56.0733 87.2423 56.0733C83.2414 56.0733 79.2405 56.0733 75.2369 56.0733C73.8614 56.0733 73.4903 55.6436 73.7191 54.2793C74.81 47.7312 75.9093 41.1858 76.9946 34.6349C77.1453 33.7309 77.6 33.3013 78.5347 33.3013C87.4069 33.3124 96.2819 33.3096 105.154 33.3013C106.089 33.3013 106.516 33.7505 106.666 34.66C107.743 41.2109 108.848 47.7563 109.939 54.3044C110.162 55.6436 109.797 56.0677 108.382 56.0677C104.415 56.0733 100.447 56.0677 96.4828 56.0677C96.1061 56.0677 95.7295 56.0677 95.2329 56.0677V56.0733ZM100.869 53.8608C100.676 51.9413 100.495 50.125 100.311 48.2892H96.3098V53.8608H100.866H100.869ZM87.3929 48.2641H83.3558C83.1745 50.1473 82.9959 51.9776 82.8201 53.819H87.3929V48.2641ZM89.7087 48.239V53.8162H93.9355V48.239H89.7087ZM102.526 48.2138C102.724 50.178 102.908 51.9915 103.098 53.8497H107.618C107.33 52.0975 107.062 50.3956 106.75 48.7021C106.714 48.5124 106.407 48.2417 106.217 48.2334C105.017 48.1915 103.815 48.2111 102.529 48.2111L102.526 48.2138ZM81.1433 48.2138C79.8432 48.2138 78.6379 48.1971 77.4326 48.2334C77.2624 48.239 76.9834 48.4733 76.9555 48.6379C76.6375 50.3594 76.3613 52.0892 76.0655 53.8524H80.5714C80.7583 51.9943 80.9425 50.178 81.1433 48.2138ZM101.848 41.4927C102.007 43.0244 102.16 44.4864 102.308 45.9149H106.304C106.041 44.3748 105.793 42.924 105.55 41.4927H101.848ZM93.7151 45.9567V41.5123H89.9207V45.9567H93.7151ZM81.8213 41.4927H78.119C77.8707 42.9965 77.6335 44.4418 77.388 45.9316H81.3637C81.5172 44.439 81.6651 43.0021 81.8185 41.4927H81.8213ZM99.6355 41.5123H96.0587V45.926H100.065C99.9173 44.4167 99.7778 42.977 99.6355 41.5123ZM84.0338 41.4844C83.8943 42.977 83.7548 44.4362 83.6153 45.9205H87.6385V41.4844H84.0338ZM85.0382 61.7789H98.5334C98.5725 61.6561 98.6144 61.5333 98.6534 61.4134C97.995 61.1567 97.3421 60.6935 96.6781 60.6768C93.45 60.5987 90.2192 60.6377 86.9884 60.6461C86.1821 60.6461 85.5236 60.9474 85.0382 61.7816V61.7789ZM101.636 39.1631H105.182C104.964 37.9243 104.766 36.7776 104.565 35.6365H101.265C101.393 36.8529 101.513 38.008 101.636 39.1631ZM99.3983 39.1854C99.2728 37.9578 99.1556 36.7999 99.0384 35.6505H95.869V39.1854H99.3956H99.3983ZM84.6225 35.6505C84.5081 36.8557 84.3993 37.9857 84.2849 39.177H87.8449V35.6505H84.6225ZM78.5096 39.1993H82.0361C82.1617 38.008 82.2817 36.8502 82.4072 35.6505H79.1038C78.9057 36.825 78.7188 37.9466 78.5096 39.1993ZM90.169 39.1742H93.4724V35.6505H90.169V39.1742ZM93.4501 58.3444C93.1292 56.0538 93.0706 55.9533 91.3994 56.0928C89.9012 56.2156 90.7242 57.5994 90.0351 58.3444H93.4501Z" fill="#115056"/>
</g>
<defs>
<clipPath id="clip0_174_1000">
<rect width="90" height="89.4113" fill="white" transform="translate(20 20.2944)"/>
</clipPath>
</defs>
</svg>
