<svg width="90" height="90" viewBox="0 0 90 90" fill="none" xmlns="http://www.w3.org/2000/svg">
<path d="M15.4034 9.11048C15.446 9.11042 15.4886 9.11034 15.5312 9.11023C15.6474 9.11002 15.7636 9.11017 15.8797 9.11038C16.0069 9.11055 16.1341 9.11037 16.2613 9.11024C16.4848 9.11005 16.7083 9.11008 16.9319 9.11026C17.1728 9.11045 17.4137 9.11051 17.6546 9.11041C17.6776 9.1104 17.6776 9.1104 17.701 9.11039C17.7792 9.11036 17.8574 9.11033 17.9356 9.11029C18.5059 9.11004 19.0762 9.11009 19.6466 9.11029C20.2245 9.11048 20.8024 9.11055 21.3803 9.11046C21.3985 9.11046 21.4167 9.11045 21.4355 9.11045C21.6027 9.11042 21.7698 9.1104 21.9369 9.11037C22.356 9.11029 22.7751 9.11024 23.1942 9.1102C23.2134 9.1102 23.2326 9.1102 23.2524 9.1102C24.1987 9.11011 25.145 9.11025 26.0913 9.11041C26.4244 9.11047 26.7575 9.11052 27.0906 9.11058C27.1113 9.11058 27.132 9.11058 27.1533 9.11059C28.113 9.11074 29.0727 9.11075 30.0323 9.11073C30.1161 9.11073 30.1998 9.11072 30.2836 9.11072C30.6412 9.11072 30.9989 9.11071 31.3565 9.1107C32.2977 9.11067 33.239 9.11067 34.1802 9.11068C34.2016 9.11068 34.223 9.11068 34.2451 9.11068C35.6327 9.1107 37.0203 9.11081 38.4078 9.11098C38.4411 9.11098 38.4411 9.11098 38.475 9.11099C39.2169 9.11108 39.9588 9.11117 40.7007 9.11127C41.3792 9.11136 42.0576 9.11145 42.736 9.11153C42.7585 9.11153 42.7809 9.11153 42.804 9.11153C44.9344 9.11178 47.0648 9.11175 49.1952 9.11167C49.3079 9.11166 49.4207 9.11166 49.5335 9.11165C49.5558 9.11165 49.5781 9.11165 49.6011 9.11165C49.6462 9.11165 49.6913 9.11165 49.7363 9.11165C49.7814 9.11164 49.8264 9.11164 49.8715 9.11164C50.3655 9.11162 50.8595 9.1116 51.3535 9.11159C51.4206 9.11158 51.4877 9.11158 51.5548 9.11158C52.9193 9.11153 54.2839 9.11153 55.6484 9.11159C55.6698 9.11159 55.6913 9.11159 55.7133 9.1116C56.6962 9.11164 57.679 9.1117 58.6619 9.11177C58.7672 9.11178 58.8725 9.11178 58.9779 9.11179C59.0091 9.11179 59.0091 9.11179 59.041 9.1118C59.146 9.1118 59.2511 9.11181 59.3561 9.11182C59.3981 9.11182 59.44 9.11182 59.482 9.11183C59.5131 9.11183 59.5131 9.11183 59.5449 9.11183C59.6704 9.11184 59.7959 9.11185 59.9215 9.11186C60.8603 9.11193 61.7991 9.11197 62.7379 9.11195C62.7586 9.11194 62.7793 9.11194 62.8006 9.11194C63.0298 9.11194 63.2591 9.11193 63.4883 9.11192C63.5713 9.11192 63.6543 9.11192 63.7372 9.11191C63.7577 9.11191 63.7782 9.11191 63.7993 9.11191C64.7443 9.11188 65.6894 9.11188 66.6344 9.11202C66.6536 9.11202 66.6727 9.11203 66.6925 9.11203C67.1108 9.11209 67.5292 9.11217 67.9475 9.11225C68.1143 9.11229 68.2812 9.11232 68.448 9.11235C68.4662 9.11236 68.4844 9.11236 68.5032 9.11237C69.0804 9.11248 69.6575 9.11247 70.2347 9.11239C70.8031 9.11232 71.3715 9.11236 71.9398 9.11259C72.0177 9.11262 72.0956 9.11265 72.1735 9.11267C72.1964 9.11268 72.1964 9.11268 72.2197 9.11269C72.4599 9.11278 72.7 9.11273 72.9402 9.11262C73.1753 9.11252 73.4104 9.11257 73.6456 9.11276C73.7707 9.11285 73.8958 9.11289 74.0209 9.11275C74.1346 9.11262 74.2483 9.11268 74.3619 9.11288C74.4025 9.11292 74.4432 9.11289 74.4838 9.11279C74.8446 9.11195 75.2011 9.13677 75.5564 9.20171C75.5799 9.20598 75.6034 9.21025 75.6276 9.21465C76.1123 9.30678 76.5863 9.46639 77.0224 9.69785C77.0608 9.71818 77.0995 9.73803 77.1382 9.75783C77.7256 10.0609 78.2751 10.5146 78.6802 11.0375C78.6959 11.0572 78.7116 11.0768 78.7278 11.097C79.6553 12.2622 79.8633 13.6083 79.8632 15.0492C79.8632 15.1464 79.8634 15.2437 79.8635 15.3409C79.8637 15.5111 79.8638 15.6813 79.8639 15.8515C79.864 16.1047 79.8642 16.3579 79.8644 16.6111C79.8648 17.0379 79.8651 17.4646 79.8654 17.8914C79.8657 18.3155 79.866 18.7397 79.8664 19.1639C79.8664 19.1772 79.8664 19.1904 79.8664 19.204C79.8665 19.352 79.8667 19.4999 79.8668 19.6479C79.867 19.9217 79.8673 20.1954 79.8675 20.4692C79.8675 20.4829 79.8675 20.4966 79.8675 20.5107C79.8681 21.1627 79.8686 21.8148 79.8691 22.4668C79.8691 22.51 79.8692 22.5532 79.8692 22.5965C79.8695 22.9142 79.8697 23.2319 79.8699 23.5497C79.8704 24.1086 79.8708 24.6675 79.8712 25.2264C79.8712 25.2691 79.8713 25.3118 79.8713 25.3544C79.8718 26.0012 79.8723 26.6479 79.8729 27.2946C79.8729 27.3084 79.8729 27.3221 79.8729 27.3362C79.8732 27.611 79.8734 27.8857 79.8736 28.1604C79.8738 28.3093 79.8739 28.4581 79.874 28.607C79.874 28.6269 79.874 28.6269 79.8741 28.6473C79.8744 29.0561 79.8747 29.4649 79.875 29.8737C79.8761 32.5753 79.8761 32.5753 79.8861 35.2769C79.8867 35.3807 79.8871 35.4845 79.8874 35.5883C79.8879 35.7227 79.8887 35.8571 79.8897 35.9916C79.89 36.0392 79.8902 36.0869 79.8903 36.1346C79.8921 36.8145 80.0682 37.3823 80.4498 37.9461C80.5069 38.0315 80.5615 38.1185 80.6164 38.2053C80.6404 38.2429 80.6643 38.2806 80.6882 38.3182C80.7002 38.337 80.7121 38.3558 80.7244 38.3751C80.9222 38.6864 81.1206 38.9973 81.3195 39.3078C81.3732 39.3915 81.4267 39.4752 81.4803 39.5589C81.5069 39.6004 81.5334 39.6418 81.56 39.6833C81.6279 39.7894 81.6958 39.8956 81.7637 40.0017C81.8873 40.1949 82.0109 40.388 82.1358 40.5804C82.2319 40.7287 82.327 40.8776 82.4221 41.0265C82.4978 41.1448 82.5737 41.263 82.6502 41.3808C82.7408 41.5204 82.8305 41.6605 82.9202 41.8007C83.0462 41.9978 83.1729 42.1944 83.3002 42.3906C83.4267 42.5855 83.5525 42.7809 83.6777 42.9767C83.7849 43.1444 83.8928 43.3116 84.0015 43.4784C84.1024 43.6332 84.2019 43.789 84.3014 43.9447C84.3838 44.0735 84.4666 44.202 84.5502 44.3302C84.6624 44.5023 84.7733 44.6752 84.884 44.8484C84.9954 45.0226 85.1076 45.1964 85.2202 45.3699C85.4156 45.6709 85.6089 45.9732 85.8022 46.2755C85.9956 46.578 85.9956 46.578 86.1902 46.8796C86.3205 47.0805 86.4494 47.2823 86.5784 47.4841C86.6196 47.5485 86.6608 47.6128 86.702 47.6771C86.8398 47.8922 86.9773 48.1074 87.1143 48.323C87.2035 48.4631 87.2931 48.6031 87.3827 48.7429C87.792 49.382 87.792 49.382 87.9602 49.669C87.9689 49.6838 87.9777 49.6987 87.9867 49.714C88.8383 51.1659 89.4128 52.7857 89.2107 58.3706C89.0776 58.8737 88.9117 59.3686 88.7214 59.853C88.7163 59.8661 88.7112 59.8792 88.7059 59.8928C88.5211 60.3614 88.2925 60.7772 87.8202 61.0064C87.4557 61.1504 87.1015 61.1418 86.7368 61.0022C86.4537 60.8757 86.2208 60.6268 86.1014 60.3425C85.8677 59.7274 86.1207 59.1432 86.3177 58.5561C86.5129 57.9759 86.5129 57.9759 86.6802 57.3873C86.6883 57.3562 86.6883 57.3562 86.6965 57.3246C87.144 55.5804 86.9991 53.679 86.2202 52.0484C86.2133 52.034 86.2064 52.0195 86.1993 52.0045C86.1611 51.9251 86.1215 51.8464 86.0807 51.7682C86.0592 51.7266 86.0381 51.6847 86.0171 51.6427C85.8743 51.3616 85.7076 51.0958 85.5402 50.8287C85.5146 50.7877 85.489 50.7467 85.4635 50.7057C85.4017 50.6066 85.3397 50.5076 85.2776 50.4086C85.2394 50.3476 85.2013 50.2865 85.1632 50.2255C84.9518 49.887 84.7389 49.5495 84.5244 49.2129C84.4494 49.0951 84.3747 48.9772 84.3002 48.8591C84.0754 48.503 83.8485 48.1482 83.6213 47.7936C83.5797 47.7286 83.5381 47.6636 83.4965 47.5986C83.3451 47.3618 83.1932 47.1253 83.0402 46.8896C82.9145 46.6959 82.7895 46.5018 82.6652 46.3072C82.5345 46.1027 82.4023 45.8991 82.2695 45.6959C82.1813 45.5611 82.0938 45.4258 82.0064 45.2905C81.961 45.2203 81.9156 45.1501 81.8702 45.08C81.8519 45.0517 81.8335 45.0233 81.8152 44.995C81.8061 44.981 81.797 44.967 81.7877 44.9525C81.5402 44.5701 81.2927 44.1877 81.0452 43.8053C81.0361 43.7913 81.0271 43.7772 81.0177 43.7628C80.9993 43.7344 80.9809 43.7059 80.9625 43.6774C80.9179 43.6086 80.8733 43.5398 80.8287 43.471C80.7329 43.3232 80.6376 43.1751 80.5429 43.0266C80.4883 42.9412 80.4336 42.8558 80.3787 42.7705C80.3541 42.7321 80.3295 42.6937 80.305 42.6553C80.2737 42.606 80.242 42.557 80.2102 42.5081C80.2013 42.494 80.1925 42.4799 80.1833 42.4655C80.103 42.3429 80.0019 42.2517 79.8802 42.1706C79.8802 42.1957 79.8802 42.2208 79.8801 42.2467C79.8793 43.3537 79.8783 44.4607 79.877 45.5677C79.877 45.5929 79.877 45.5929 79.877 45.6186C79.8765 45.9834 79.8761 46.3481 79.8756 46.7129C79.8754 46.8919 79.8752 47.0708 79.8749 47.2497C79.8749 47.2675 79.8749 47.2853 79.8749 47.3037C79.8742 47.8798 79.8736 48.456 79.8732 49.0322C79.8728 49.6247 79.8722 50.2172 79.8713 50.8098C79.8712 50.8936 79.8711 50.9775 79.8709 51.0613C79.8709 51.0778 79.8709 51.0943 79.8709 51.1113C79.8705 51.3761 79.8703 51.6408 79.8702 51.9055C79.8701 52.1722 79.8698 52.4389 79.8693 52.7056C79.869 52.8637 79.8688 53.0218 79.8689 53.1799C79.869 53.2985 79.8687 53.4171 79.8683 53.5358C79.8682 53.5833 79.8682 53.6309 79.8683 53.6785C79.8706 54.805 79.602 55.9407 78.9402 56.8674C78.9742 56.9459 79.026 57.0097 79.0789 57.0761C79.0887 57.0884 79.0984 57.1007 79.1084 57.1134C79.1745 57.1965 79.2424 57.2778 79.3114 57.3585C79.6377 57.742 79.9601 58.1827 79.945 58.7126C79.9163 59.0351 79.7887 59.2806 79.5602 59.5068C79.5454 59.5222 79.5307 59.5376 79.5155 59.5535C79.2937 59.7715 79.0054 59.8952 78.6952 59.8929C78.1288 59.8881 77.7295 59.5365 77.3464 59.1556C77.3322 59.1414 77.3179 59.1273 77.3032 59.1127C77.224 59.0332 77.1484 58.9518 77.0752 58.8669C77.0138 58.7968 76.9493 58.7295 76.8852 58.662C76.7735 58.5438 76.6626 58.425 76.553 58.3049C76.4956 58.2421 76.4379 58.1795 76.3802 58.1171C76.2943 58.0241 76.2086 57.9309 76.1231 57.8375C76.0556 57.7639 75.988 57.6905 75.9202 57.6172C75.7975 57.4844 75.6752 57.3511 75.5531 57.2177C75.4389 57.093 75.3245 56.9686 75.2098 56.8445C75.134 56.7625 75.0585 56.6802 74.9831 56.5978C74.9156 56.5242 74.848 56.4508 74.7802 56.3775C74.7033 56.2943 74.6267 56.211 74.5502 56.1275C74.444 56.0115 74.3373 55.8959 74.2305 55.7804C74.1704 55.7154 74.1103 55.6503 74.0502 55.5852C74 55.5308 73.9498 55.4764 73.8995 55.422C73.7938 55.3076 73.6883 55.193 73.583 55.0781C73.4758 54.961 73.368 54.8445 73.2602 54.7278C73.1342 54.5915 73.0084 54.4551 72.883 54.3183C72.7858 54.2122 72.6882 54.1065 72.5905 54.0008C72.5304 53.9358 72.4703 53.8707 72.4102 53.8056C72.36 53.7512 72.3098 53.6968 72.2595 53.6424C72.1538 53.528 72.0483 53.4134 71.943 53.2985C71.8358 53.1814 71.728 53.0648 71.6202 52.9482C71.4942 52.8119 71.3684 52.6755 71.243 52.5387C71.1458 52.4326 71.0482 52.3269 70.9505 52.2212C70.9004 52.167 70.8503 52.1127 70.8002 52.0584C70.7802 52.0368 70.7602 52.0151 70.7402 51.9935C70.7002 51.9501 70.6602 51.9068 70.6202 51.8635C70.6103 51.8528 70.6004 51.842 70.5902 51.831C70.5702 51.8093 70.5502 51.7877 70.5302 51.766C70.48 51.7116 70.4298 51.6572 70.3795 51.6028C70.2738 51.4884 70.1683 51.3738 70.063 51.259C69.9658 51.1529 69.8682 51.0472 69.7705 50.9415C69.7204 50.8873 69.6703 50.833 69.6202 50.7787C69.6002 50.7571 69.5802 50.7354 69.5602 50.7137C68.2402 49.2841 68.2402 49.284 68.2102 49.2516C68.1902 49.2299 68.1701 49.2082 68.1501 49.1865C68.1006 49.1329 68.0511 49.0792 68.0016 49.0255C67.8945 48.9093 67.7869 48.7934 67.6789 48.6779C67.5767 48.5686 67.4752 48.4587 67.3742 48.3482C67.2181 48.1778 67.0609 48.0085 66.903 47.8397C66.8137 47.7441 66.7253 47.6478 66.6371 47.5513C66.5719 47.4803 66.5061 47.4099 66.4402 47.3395C66.3564 47.2499 66.273 47.1601 66.1902 47.0695C66.096 46.9666 66.001 46.8645 65.9056 46.7626C65.8382 46.6905 65.771 46.618 65.7043 46.5452C65.3624 46.1466 65.3624 46.1466 64.8984 45.9466C64.3639 45.9373 63.7844 46.0234 63.3637 46.386C63.158 46.5924 63.0406 46.843 63.0339 47.1345C63.0397 47.6856 63.3555 48.1676 63.6196 48.6312C63.6983 48.7695 63.7748 48.9089 63.8502 49.0491C63.9442 49.2237 64.0405 49.3968 64.1386 49.5692C64.2261 49.7235 64.3122 49.8785 64.3977 50.0339C64.4044 50.0461 64.4112 50.0583 64.4181 50.0709C64.4248 50.0832 64.4316 50.0954 64.4385 50.1081C64.4522 50.1328 64.4658 50.1575 64.4794 50.1823C64.4862 50.1945 64.4929 50.2068 64.4998 50.2194C64.5696 50.346 64.6399 50.4724 64.7102 50.5988C64.8139 50.7852 64.9172 50.9718 65.0202 51.1586C65.1606 51.4133 65.3017 51.6675 65.443 51.9216C65.518 52.0564 65.5928 52.1912 65.6677 52.326C65.73 52.438 65.7922 52.5499 65.8545 52.6619C65.9902 52.9059 66.1255 53.1502 66.2604 53.3947C66.4064 53.6595 66.5532 53.9238 66.7002 54.188C66.8607 54.4765 67.021 54.7652 67.1804 55.0544C67.2767 55.229 67.3733 55.4034 67.4702 55.5777C67.5746 55.7654 67.6788 55.9532 67.7827 56.1413C67.7894 56.1534 67.7961 56.1656 67.803 56.1781C67.905 56.3628 68.0056 56.5481 68.1057 56.7339C68.1792 56.8698 68.2549 57.0043 68.3314 57.1386C68.4287 57.3092 68.5212 57.4819 68.6114 57.6564C68.7177 57.8618 68.8286 58.0645 68.9402 58.2671C68.9523 58.289 68.9643 58.3109 68.9768 58.3334C69.0504 58.4671 69.1242 58.6007 69.198 58.7342C69.246 58.8212 69.294 58.9082 69.3419 58.9953C69.6654 59.5831 69.6654 59.5831 69.9989 60.1654C70.0104 60.1849 70.0218 60.2044 70.0335 60.2245C70.082 60.3073 70.1304 60.39 70.1791 60.4727C70.6694 61.3064 70.9951 62.1607 70.7596 63.1354C70.6276 63.6363 70.3513 64.0701 70.0444 64.4804C69.0739 65.7798 68.6201 67.356 68.8388 68.969C68.894 69.3413 68.9876 69.7 69.0884 70.0619C69.4448 71.3429 69.6664 72.6552 69.7402 73.9836C69.741 73.9966 69.7418 74.0096 69.7426 74.023C69.7631 74.3588 69.7648 74.6949 69.768 75.0312C69.7731 75.5748 69.7813 76.1183 69.7977 76.6617C69.7981 76.6752 69.7985 76.6888 69.7989 76.7027C69.8096 77.0569 69.8218 77.411 69.834 77.7651C69.8361 77.8252 69.8382 77.8852 69.8403 77.9453C69.8464 78.1216 69.8525 78.2979 69.8589 78.4743C69.8826 79.1314 69.8826 79.1314 69.8829 79.3725C69.8829 79.3956 69.8829 79.3956 69.8829 79.4192C69.8798 79.884 69.7716 80.3563 69.4334 80.6923C69.1508 80.9566 68.8377 81.038 68.4564 81.0276C68.1136 81.0115 67.8521 80.8695 67.6216 80.6204C67.2802 80.2123 67.2366 79.6663 67.2196 79.1573C67.2182 79.1183 67.2167 79.0793 67.2152 79.0404C67.212 78.9571 67.209 78.8739 67.2061 78.7906C67.2014 78.6573 67.1964 78.524 67.1913 78.3907C67.1834 78.1791 67.1756 77.9674 67.1679 77.7558C67.1523 77.3257 67.1364 76.8956 67.1202 76.4655C67.1194 76.4436 67.1185 76.4216 67.1177 76.399C67.0764 75.3038 67.0259 74.2094 66.9521 73.1159C66.949 73.0699 66.9459 73.0239 66.9429 72.9779C66.8859 72.1271 66.748 71.3237 66.5462 70.4963C66.2744 69.3819 66.2744 69.3819 66.2202 68.9247C66.2185 68.9109 66.2168 68.8971 66.2151 68.8828C66.1784 68.5731 66.173 68.2653 66.1739 67.9537C66.174 67.9289 66.174 67.9042 66.1741 67.8787C66.1749 67.5234 66.1825 67.1763 66.2402 66.8252C66.2453 66.7917 66.2453 66.7917 66.2506 66.7576C66.3722 65.9757 66.5999 65.2203 66.9402 64.5057C66.9494 64.4862 66.9585 64.4667 66.968 64.4467C67.2097 63.9361 67.5072 63.4633 67.8313 63.0016C68.0124 62.7428 68.1151 62.5282 68.0802 62.2062C68.0394 62.0277 67.941 61.8744 67.8487 61.7185C67.673 61.4209 67.5307 61.1074 67.3889 60.7927C67.1039 60.1605 66.7909 59.4839 66.1072 59.2101C65.8674 59.1268 65.6258 59.0841 65.372 59.0828C65.3444 59.0826 65.3444 59.0826 65.3162 59.0825C65.2769 59.0823 65.2375 59.0821 65.1981 59.0821C65.1418 59.0819 65.0855 59.0813 65.0291 59.0806C64.833 59.0796 64.6382 59.0843 64.4428 59.1004C63.7101 59.1597 62.9779 59.1551 62.2435 59.1539C62.0423 59.1536 61.8411 59.1536 61.6399 59.1537C61.2641 59.1538 60.8883 59.1536 60.5125 59.1532C60.1323 59.1528 59.7521 59.1526 59.3719 59.1525C59.3478 59.1525 59.3236 59.1525 59.2988 59.1525C59.1758 59.1525 59.0528 59.1525 58.9298 59.1525C58.0557 59.1523 57.1816 59.1519 56.3075 59.1514C55.4152 59.1508 54.5229 59.1504 53.6306 59.1502C53.617 59.1502 53.6033 59.1502 53.5892 59.1502C53.2838 59.1501 52.9785 59.1501 52.6731 59.15C52.1085 59.1499 51.5438 59.1497 50.9792 59.1496C50.9364 59.1496 50.8936 59.1496 50.8508 59.1496C49.5073 59.1492 48.1639 59.1487 46.8204 59.1481C46.7313 59.1481 46.6422 59.1481 46.5532 59.148C45.6883 59.1476 44.8235 59.1473 43.9586 59.1469C43.018 59.1465 42.0775 59.1461 41.1369 59.1457C41.0476 59.1456 40.9584 59.1456 40.8692 59.1456C39.525 59.145 38.1807 59.1445 36.8365 59.1441C36.7937 59.1441 36.7509 59.1441 36.7081 59.1441C36.1442 59.144 35.5802 59.1438 35.0163 59.1437C34.7113 59.1436 34.4064 59.1436 34.1014 59.1435C34.0878 59.1435 34.0741 59.1435 34.0601 59.1435C33.1674 59.1433 32.2747 59.1429 31.382 59.1423C30.4974 59.1417 29.6128 59.1414 28.7282 59.1412C28.6061 59.1412 28.4839 59.1412 28.3618 59.1412C28.3259 59.1412 28.3259 59.1412 28.2892 59.1412C27.9097 59.1411 27.5302 59.1408 27.1507 59.1405C26.7778 59.1401 26.4049 59.14 26.032 59.1401C25.8133 59.1401 25.5945 59.14 25.3758 59.1396C25.2306 59.1394 25.0854 59.1394 24.9402 59.1396C24.8578 59.1396 24.7755 59.1396 24.6931 59.1394C24.6183 59.1391 24.5434 59.1392 24.4686 59.1394C24.4294 59.1395 24.3901 59.1392 24.3509 59.139C23.9993 59.141 23.6823 59.2289 23.4258 59.4787C23.244 59.6705 23.1102 59.8825 22.9749 60.1086C22.9519 60.1471 22.9287 60.1856 22.9054 60.224C22.388 61.0762 21.9579 62.0329 22.1951 63.0504C22.3242 63.5557 22.5605 64.0046 22.8689 64.4232C23.8154 65.7119 24.0767 67.3633 23.8427 68.9217C23.7725 69.3757 23.6623 69.8175 23.5299 70.2569C23.0388 71.8908 22.9186 73.6052 22.839 75.9202C22.8381 75.9484 22.8381 75.9484 22.8371 75.9772C22.8359 76.0153 22.8347 76.0534 22.8334 76.0915C22.8247 76.356 22.8152 76.6204 22.8045 76.8849C22.8038 76.901 22.8032 76.9171 22.8025 76.9336C22.7993 77.0141 22.7961 77.0945 22.7928 77.1749C22.7915 77.2067 22.7902 77.2385 22.7889 77.2703C22.788 77.2938 22.788 77.2938 22.787 77.3178C22.7713 77.7083 22.758 78.0988 22.7489 78.4895C22.7485 78.5081 22.7481 78.5267 22.7476 78.5458C22.7434 78.7267 22.7394 78.9076 22.7359 79.0885C22.7346 79.1547 22.7332 79.2208 22.7317 79.2869C22.7311 79.3173 22.7305 79.3477 22.73 79.3781C22.7221 79.8569 22.646 80.3224 22.3002 80.6821C22.1609 80.8042 22.0146 80.8988 21.8402 80.962C21.8227 80.9684 21.8052 80.9747 21.7872 80.9813C21.4492 81.0841 21.0792 81.0349 20.7664 80.8808C20.4251 80.6838 20.2245 80.3846 20.1193 80.0072C20.0899 79.8719 20.0945 79.7351 20.0949 79.5974C20.0948 79.5673 20.0948 79.5371 20.0947 79.507C20.0946 79.4261 20.0948 79.3452 20.095 79.2643C20.0952 79.2132 20.0953 79.1622 20.0953 79.1111C20.096 78.6452 20.1042 78.1802 20.1231 77.7146C20.1356 77.4022 20.1441 77.0899 20.1504 76.7773C20.1508 76.7566 20.1512 76.7359 20.1516 76.7145C20.1554 76.5257 20.159 76.3369 20.1624 76.1482C20.176 75.3816 20.1963 74.6145 20.2552 73.8498C20.2569 73.828 20.2585 73.8061 20.2602 73.7836C20.3713 72.3303 20.6171 70.9102 20.9981 69.5042C21.3237 68.2994 21.2329 67.0794 20.7602 65.9254C20.7531 65.9081 20.7461 65.8908 20.7388 65.8731C20.5284 65.3669 20.2356 64.8965 19.903 64.4618C19.3546 63.7434 19.0313 62.9569 19.1519 62.0413C19.2143 61.6261 19.3637 61.2349 19.5597 60.8652C19.5804 60.8261 19.6008 60.7867 19.6211 60.7474C19.7263 60.545 19.8384 60.3467 19.9511 60.1485C20.0213 60.0249 20.0908 59.9008 20.1602 59.7767C20.2493 59.6173 20.3389 59.4582 20.4289 59.2993C20.5365 59.1094 20.6427 58.9188 20.7485 58.7279C20.8284 58.5839 20.909 58.4403 20.9902 58.297C21.1222 58.0642 21.2522 57.8301 21.3821 57.596C21.4447 57.4831 21.5075 57.3702 21.5702 57.2573C21.5952 57.2123 21.6202 57.1673 21.6452 57.1223C21.7952 56.8524 21.7952 56.8524 21.8327 56.7849C21.8577 56.7399 21.8827 56.6949 21.9077 56.6498C21.97 56.5378 22.0322 56.4259 22.0945 56.3139C22.2636 56.0099 22.4319 55.7055 22.5999 55.4008C22.66 55.2919 22.7201 55.1829 22.7802 55.074C22.8135 55.0136 22.8469 54.9532 22.8802 54.8928C22.8935 54.8686 22.9069 54.8445 22.9202 54.8203C22.9268 54.8084 22.9334 54.7964 22.9402 54.7841C22.9602 54.7478 22.9802 54.7116 23.0002 54.6754C23.0101 54.6574 23.0101 54.6574 23.0202 54.6391C23.0335 54.6149 23.0469 54.5908 23.0602 54.5666C23.0935 54.5063 23.1268 54.446 23.1601 54.3856C23.2206 54.276 23.2811 54.1663 23.3417 54.0567C23.3758 53.995 23.4099 53.9334 23.4439 53.8718C23.4506 53.8597 23.4573 53.8476 23.4642 53.8352C23.5658 53.6512 23.6661 53.4664 23.7659 53.2814C23.8377 53.1485 23.9116 53.0169 23.9864 52.8858C24.0949 52.6955 24.1983 52.5029 24.3008 52.3094C24.3878 52.1452 24.4766 51.9823 24.5689 51.821C24.6891 51.6111 24.8025 51.3979 24.9155 51.1841C24.9299 51.1568 24.9443 51.1296 24.9587 51.1023C24.9657 51.089 24.9728 51.0758 24.98 51.0621C25.0687 50.8946 25.1598 50.7285 25.2509 50.5623C25.3039 50.4654 25.3564 50.3684 25.4089 50.2713C25.4252 50.2414 25.4252 50.2414 25.4417 50.2108C25.4636 50.1704 25.4855 50.13 25.5074 50.0895C25.5616 49.9893 25.6159 49.8891 25.6702 49.7889C25.6809 49.7691 25.6917 49.7493 25.7027 49.7289C25.7566 49.6294 25.8105 49.5299 25.8645 49.4304C25.886 49.3908 25.9075 49.3512 25.9289 49.3115C25.9396 49.2919 25.9502 49.2723 25.9612 49.252C26.018 49.1473 26.0746 49.0424 26.1311 48.9374C26.1429 48.9154 26.1547 48.8934 26.1669 48.8707C26.1907 48.8266 26.2144 48.7824 26.238 48.7382C26.2919 48.6379 26.3463 48.5378 26.4025 48.4388C26.7012 47.9121 26.8801 47.2976 26.7277 46.6896C26.6365 46.3917 26.4716 46.1341 26.2002 45.9698C25.8514 45.8117 25.4818 45.7997 25.1202 45.9298C25.0991 45.9373 25.078 45.9447 25.0563 45.9524C24.6337 46.1156 24.3053 46.4536 24.0145 46.7904C23.9568 46.8563 23.8966 46.9197 23.8364 46.9833C23.81 47.0114 23.7835 47.0395 23.7571 47.0677C23.7376 47.0884 23.7376 47.0884 23.7177 47.1095C23.6343 47.1985 23.5518 47.2882 23.4692 47.3779C23.4196 47.4318 23.3699 47.4856 23.3202 47.5394C23.3002 47.5611 23.2802 47.5828 23.2602 47.6044C21.2202 49.8139 21.2202 49.8139 21.1902 49.8464C21.1702 49.8681 21.1502 49.8897 21.1302 49.9114C21.08 49.9658 21.0298 50.0202 20.9795 50.0746C20.8829 50.1791 20.7864 50.2838 20.6902 50.3888C20.584 50.5048 20.4773 50.6204 20.3705 50.7359C20.3204 50.7902 20.2703 50.8444 20.2202 50.8987C20.2002 50.9204 20.1802 50.942 20.1602 50.9637C20.1503 50.9744 20.1404 50.9851 20.1302 50.9962C20.0402 51.0937 20.0402 51.0937 20.0102 51.1261C19.9902 51.1478 19.9702 51.1694 19.9502 51.1911C19.9 51.2455 19.8498 51.2999 19.7995 51.3543C19.7029 51.4589 19.6064 51.5635 19.5102 51.6685C19.3838 51.8065 19.2568 51.9439 19.1298 52.0813C19.0231 52.1968 18.9164 52.3124 18.8102 52.4284C18.6838 52.5663 18.5568 52.7038 18.4298 52.8412C18.3231 52.9567 18.2164 53.0722 18.1102 53.1882C17.9838 53.3262 17.8568 53.4636 17.7298 53.601C17.6231 53.7165 17.5164 53.8321 17.4102 53.948C17.2838 54.086 17.1568 54.2234 17.0298 54.3608C16.9231 54.4763 16.8164 54.5919 16.7102 54.7078C16.5838 54.8458 16.4568 54.9832 16.3298 55.1207C16.2231 55.2362 16.1164 55.3517 16.0102 55.4677C15.904 55.5837 15.7973 55.6993 15.6905 55.8148C15.6404 55.869 15.5903 55.9233 15.5402 55.9776C15.48 56.0428 15.4198 56.108 15.3595 56.1732C15.2538 56.2876 15.1483 56.4022 15.0431 56.5171C14.9656 56.6017 14.8877 56.686 14.8098 56.7703C14.7431 56.8425 14.6766 56.9148 14.6102 56.9873C14.5337 57.0708 14.457 57.1541 14.3802 57.2373C14.2665 57.3603 14.1533 57.4837 14.0402 57.6072C13.917 57.7417 13.7936 57.876 13.6698 58.01C13.6031 58.0822 13.5366 58.1546 13.4702 58.2271C13.364 58.3431 13.2573 58.4586 13.1505 58.5742C13.1104 58.6176 13.0703 58.661 13.0302 58.7045C13.0101 58.7262 12.9901 58.7479 12.97 58.7696C12.921 58.8226 12.8722 58.8757 12.8237 58.9291C11.9795 59.8574 11.9795 59.8574 11.37 59.8929C11.0239 59.9056 10.7403 59.811 10.4764 59.5805C10.444 59.5497 10.4119 59.5184 10.3802 59.4868C10.3563 59.4633 10.3563 59.4633 10.332 59.4393C10.1164 59.2147 10.0088 58.9411 10.0118 58.6307C10.032 58.0919 10.3992 57.6404 10.7486 57.2631C10.7921 57.2161 10.8352 57.1689 10.8777 57.1211C10.8875 57.11 10.8974 57.0989 10.9075 57.0876C10.9546 57.0295 10.9973 56.9685 11.0402 56.9074C11.0257 56.8867 11.0111 56.8661 10.9961 56.8448C10.7421 56.4779 10.5433 56.0904 10.4002 55.6676C10.3947 55.6515 10.3892 55.6355 10.3835 55.6189C10.1478 54.9189 10.0973 54.1759 10.097 53.4426C10.0969 53.3935 10.0968 53.3444 10.0967 53.2953C10.0965 53.189 10.0964 53.0827 10.0963 52.9763C10.0961 52.8183 10.0959 52.6602 10.0956 52.5021C10.0951 52.2361 10.0947 51.9701 10.0944 51.7041C10.094 51.4408 10.0937 51.1776 10.0933 50.9144C10.0932 50.898 10.0932 50.8816 10.0932 50.8647C10.093 50.7815 10.0929 50.6982 10.0928 50.615C10.0918 50.026 10.091 49.4369 10.0901 48.8479C10.0894 48.2758 10.0885 47.7037 10.0876 47.1316C10.0876 47.114 10.0876 47.0964 10.0876 47.0782C10.0873 46.901 10.087 46.7237 10.0867 46.5465C10.0862 46.1855 10.0856 45.8245 10.0851 45.4636C10.085 45.447 10.085 45.4304 10.085 45.4133C10.0833 44.3057 10.0817 43.1982 10.0802 42.0906C10.0426 42.1406 10.005 42.1907 9.96739 42.2407C9.9569 42.2546 9.94642 42.2686 9.93562 42.2829C9.71543 42.5761 9.51551 42.8799 9.31908 43.1894C9.26129 43.2801 9.20269 43.3702 9.14395 43.4603C9.13338 43.4766 9.12282 43.4928 9.11193 43.5095C9.09129 43.5412 9.07065 43.5728 9.05001 43.6045C9.00244 43.6776 8.95506 43.7508 8.9077 43.824C8.89877 43.8378 8.88984 43.8516 8.88064 43.8658C8.86278 43.8935 8.84492 43.9211 8.82705 43.9487C8.78145 44.0192 8.73582 44.0897 8.6902 44.1602C8.67186 44.1885 8.65353 44.2168 8.6352 44.2452C8.3052 44.7551 8.3052 44.7551 8.27772 44.7975C8.25931 44.826 8.24089 44.8544 8.22248 44.8829C8.17793 44.9517 8.13335 45.0206 8.08871 45.0894C7.98023 45.2566 7.87254 45.4244 7.7652 45.5924C7.62266 45.8154 7.47833 46.0372 7.3335 46.2587C7.19531 46.4703 7.05881 46.6829 6.9227 46.8958C6.79262 47.0993 6.66143 47.302 6.52957 47.5043C6.37888 47.7357 6.22978 47.968 6.08107 48.2007C5.98769 48.3466 5.89354 48.4921 5.79888 48.6372C5.71193 48.7707 5.62598 48.9048 5.5402 49.0391C5.44413 49.1895 5.34767 49.3395 5.2502 49.489C5.11199 49.701 4.9756 49.9142 4.83945 50.1275C4.80226 50.1856 4.7649 50.2436 4.72746 50.3016C4.44651 50.7376 4.19298 51.185 3.9602 51.6485C3.95167 51.6654 3.94315 51.6822 3.93437 51.6996C3.20347 53.1544 2.85726 54.8622 3.43691 58.0974C3.55912 58.4631 3.6995 58.8163 3.8602 59.1669C3.86793 59.1839 3.87566 59.201 3.88363 59.2185C4.0031 59.4815 4.1378 59.7354 4.2802 59.9867C4.28912 60.0024 4.29804 60.0182 4.30724 60.0345C4.58323 60.5175 4.90897 60.9737 5.22324 61.4323C5.29161 61.5322 5.35963 61.6324 5.4277 61.7325C5.4564 61.7747 5.48509 61.8169 5.51379 61.8591C5.52807 61.8801 5.54234 61.9011 5.55705 61.9228C5.61395 62.0065 5.67086 62.0901 5.72778 62.1738C5.7703 62.2363 5.81283 62.2989 5.85535 62.3614C5.91149 62.4439 5.96764 62.5265 6.02379 62.609C6.17272 62.8279 6.32154 63.0469 6.4702 63.2659C6.73403 63.6548 6.99834 64.0433 7.26317 64.4314C7.30094 64.4868 7.3387 64.5421 7.37645 64.5975C7.52679 64.8181 7.67735 65.0385 7.82817 65.2587C7.86094 65.3066 7.8937 65.3545 7.92645 65.4023C7.991 65.4967 8.05558 65.5911 8.1202 65.6854C8.12931 65.6987 8.13842 65.712 8.14781 65.7257C8.2774 65.9149 8.40823 66.1032 8.53932 66.2913C8.62352 66.4122 8.70716 66.5335 8.7902 66.6552C8.88576 66.7952 8.98211 66.9347 9.07895 67.0738C9.09916 67.1029 9.09916 67.1029 9.11979 67.1326C9.18431 67.2252 9.24904 67.3177 9.31434 67.4098C9.56199 67.7595 9.78474 68.1191 9.99211 68.4941C10.0155 68.5363 10.0392 68.5783 10.063 68.6202C10.8499 70.0383 11.1684 71.6855 11.2117 73.2911C11.2147 73.404 11.218 73.5168 11.2213 73.6297C11.222 73.6544 11.2227 73.6792 11.2234 73.7047C11.2522 74.7088 11.2865 75.7126 11.324 76.7165C11.3255 76.7574 11.327 76.7984 11.3286 76.8394C11.3491 77.3912 11.3699 77.943 11.391 78.4948C11.3991 78.707 11.4071 78.9193 11.4151 79.1315C11.4198 79.2558 11.4245 79.3801 11.4293 79.5044C11.4633 80.3816 11.4633 80.3816 11.464 80.7044C11.4641 80.7348 11.4641 80.7348 11.4642 80.7658C11.4625 81.0333 11.412 81.2776 11.3002 81.5219C11.2918 81.5405 11.2834 81.5592 11.2748 81.5784C11.1259 81.879 10.8603 82.1079 10.5461 82.2213C10.1748 82.3299 9.80712 82.2461 9.47364 82.0659C9.36872 82.0055 9.28367 81.929 9.2002 81.8418C9.18125 81.8238 9.18125 81.8238 9.16192 81.8054C8.80251 81.4398 8.82129 80.8469 8.80204 80.3728C8.80033 80.3317 8.79862 80.2906 8.7969 80.2494C8.79227 80.1379 8.7877 80.0264 8.78314 79.915C8.77929 79.8208 8.7754 79.7267 8.77152 79.6326C8.76229 79.4091 8.75312 79.1857 8.74398 78.9622C8.73571 78.7601 8.72739 78.5579 8.71902 78.3558C8.65925 76.9127 8.60125 75.4702 8.57962 74.026C8.57362 73.6316 8.56717 73.2382 8.53168 72.8451C8.52987 72.825 8.52987 72.825 8.52802 72.8045C8.38268 71.2303 7.78384 69.7868 6.85668 68.5181C6.77907 68.4117 6.70412 68.3038 6.6302 68.1949C6.54633 68.0713 6.46072 67.9493 6.3727 67.8287C6.23563 67.6406 6.10507 67.4483 5.97455 67.2557C5.92675 67.1853 5.87851 67.1152 5.8302 67.0451C5.3739 66.3826 4.92484 65.715 4.47459 65.0484C4.13118 64.5399 3.78721 64.0319 3.4402 63.5259C3.4312 63.5128 3.42221 63.4996 3.41294 63.4861C3.29812 63.3185 3.18249 63.1515 3.06645 62.9848C3.04618 62.9556 3.04618 62.9556 3.02551 62.9259C2.95593 62.8259 2.88621 62.7261 2.81629 62.6263C2.65954 62.4025 2.50587 62.1775 2.3602 61.9462C2.35018 61.9304 2.34017 61.9146 2.32986 61.8984C1.60343 60.7499 0.990279 59.4865 0.679729 58.1582C0.676384 58.1441 0.67304 58.1299 0.669594 58.1154C0.653623 58.0478 0.638202 57.9802 0.623742 57.9123C0.594646 57.7861 0.563768 57.6869 0.493352 57.5789C0.369904 57.3867 0.353871 57.2242 0.355637 57.0002C0.355261 56.9647 0.35481 56.9291 0.354292 56.8935C0.35314 56.7977 0.353117 56.702 0.353385 56.6063C0.353512 56.5258 0.353094 56.4452 0.352688 56.3647C0.351744 56.1743 0.351743 55.9839 0.352336 55.7934C0.352926 55.5985 0.351913 55.4036 0.350095 55.2087C0.348582 55.0401 0.348104 54.8715 0.348414 54.7029C0.348588 54.6028 0.348403 54.5027 0.347207 54.4026C0.342109 53.935 0.370016 53.5748 0.608481 53.1653C0.659289 53.0738 0.698313 52.978 0.737463 52.8811C0.752264 52.8453 0.767071 52.8095 0.781887 52.7736C0.796748 52.7373 0.811601 52.7009 0.826447 52.6646C0.842705 52.625 0.858965 52.5854 0.875227 52.5459C0.980515 52.2891 1.08248 52.0311 1.1827 51.7722C1.58547 50.7321 2.01552 49.7017 2.6002 48.7492C2.62713 48.705 2.65405 48.6609 2.68098 48.6168C2.84649 48.3463 3.01462 48.0774 3.18302 47.8087C3.23296 47.729 3.28281 47.6493 3.33266 47.5695C3.37014 47.5095 3.40763 47.4496 3.44512 47.3896C3.49543 47.3092 3.54568 47.2286 3.5959 47.1481C3.75115 46.8993 3.90769 46.6513 4.06552 46.404C4.12383 46.3127 4.18201 46.2212 4.2402 46.1298C4.26353 46.0931 4.28686 46.0564 4.3102 46.0198C4.32175 46.0016 4.3333 45.9835 4.3452 45.9648C4.3802 45.9098 4.4152 45.8548 4.4502 45.7998C4.46175 45.7817 4.47331 45.7635 4.48521 45.7448C4.50849 45.7082 4.53178 45.6717 4.55507 45.6351C4.61419 45.5422 4.67327 45.4493 4.73231 45.3564C4.84544 45.1784 4.95887 45.0006 5.07373 44.8237C5.15643 44.6962 5.23833 44.5682 5.3202 44.4401C5.43767 44.2564 5.55562 44.0731 5.67431 43.8902C5.71966 43.8202 5.76492 43.7503 5.8102 43.6803C5.82853 43.652 5.84686 43.6236 5.8652 43.5953C5.87427 43.5813 5.88335 43.5673 5.8927 43.5528C7.7352 40.706 7.7352 40.706 7.76267 40.6635C7.78109 40.635 7.7995 40.6066 7.81792 40.5781C7.86247 40.5093 7.90704 40.4404 7.95168 40.3717C8.07592 40.1801 8.19913 39.9879 8.32213 39.7956C8.39782 39.6772 8.47373 39.5591 8.5502 39.4412C8.68054 39.2403 8.8094 39.0385 8.93841 38.8367C8.99306 38.7513 9.04777 38.6659 9.10248 38.5805C9.15551 38.4977 9.2085 38.4149 9.26148 38.332C9.28715 38.2919 9.31283 38.2518 9.33853 38.2117C9.41952 38.0853 9.50013 37.9586 9.5802 37.8316C9.59385 37.81 9.59385 37.81 9.60779 37.788C9.91851 37.2951 10.0547 36.766 10.0715 36.1875C10.0719 36.174 10.0723 36.1606 10.0727 36.1468C10.0814 35.8584 10.0834 35.5701 10.0836 35.2816C10.0837 35.2097 10.0839 35.1377 10.0841 35.0657C10.0844 34.9418 10.0846 34.8179 10.0848 34.694C10.0851 34.5144 10.0855 34.3349 10.086 34.1553C10.0867 33.8633 10.0874 33.5713 10.0881 33.2792C10.0881 33.2618 10.0881 33.2445 10.0882 33.2266C10.0887 32.9794 10.0892 32.7323 10.0896 32.4852C10.0897 32.459 10.0897 32.459 10.0897 32.4323C10.0898 32.4148 10.0898 32.3974 10.0898 32.3795C10.0904 32.088 10.0911 31.7965 10.0919 31.5051C10.0924 31.3261 10.0927 31.1471 10.0929 30.9681C10.0931 30.8455 10.0934 30.723 10.0938 30.6004C10.094 30.5299 10.0942 30.4594 10.0942 30.389C10.0944 29.657 10.0944 29.657 10.1877 29.3335C10.1921 29.3176 10.1966 29.3017 10.2012 29.2853C10.2137 29.2412 10.2268 29.1974 10.2402 29.1535C10.2461 29.134 10.2521 29.1144 10.2582 29.0943C10.3486 28.8381 10.539 28.6045 10.7789 28.4774C11.1099 28.3248 11.5129 28.3008 11.8602 28.4137C12.1855 28.543 12.4063 28.76 12.5564 29.0744C12.7226 29.4869 12.7433 29.9117 12.7427 30.3507C12.7428 30.3912 12.7428 30.4316 12.7428 30.4721C12.7429 30.5833 12.7429 30.6945 12.7428 30.8057C12.7428 30.9267 12.7429 31.0477 12.743 31.1687C12.743 31.3807 12.7431 31.5928 12.7431 31.8049C12.743 32.0325 12.743 32.26 12.7431 32.4875C12.7431 32.5019 12.7431 32.5163 12.7431 32.5311C12.7432 32.6045 12.7432 32.6778 12.7432 32.7512C12.7433 32.9015 12.7433 33.0519 12.7434 33.2023C12.7434 33.225 12.7434 33.225 12.7434 33.2482C12.7434 33.4838 12.7435 33.7195 12.7435 33.9551C12.7435 33.979 12.7435 33.979 12.7435 34.0034C12.7435 34.068 12.7435 34.1327 12.7436 34.1973C12.7437 34.9887 12.7439 35.7801 12.7443 36.5715C12.7444 36.7569 12.7445 36.9423 12.7446 37.1277C12.7446 37.1617 12.7446 37.1956 12.7446 37.2296C12.7447 37.2977 12.7447 37.3658 12.7447 37.434C12.7448 37.5024 12.7448 37.5707 12.7448 37.6391C12.7452 38.428 12.7455 39.2168 12.7458 40.0056C12.7459 40.0591 12.7459 40.1125 12.7459 40.166C12.7462 40.9885 12.7465 41.8109 12.7466 42.6334C12.7466 42.651 12.7466 42.6687 12.7466 42.6869C12.7466 42.9716 12.7467 43.2562 12.7467 43.5409C12.7468 44.3621 12.747 45.1834 12.7474 46.0046C12.7474 46.03 12.7474 46.03 12.7474 46.0559C12.7476 46.4111 12.7478 46.7663 12.748 47.1215C12.7481 47.2879 12.7482 47.4543 12.7483 47.6207C12.7484 47.637 12.7484 47.6534 12.7484 47.6703C12.7487 48.1957 12.7487 48.721 12.7486 49.2464C12.7485 49.7767 12.7487 50.3069 12.7492 50.8371C12.7493 50.9108 12.7493 50.9846 12.7494 51.0583C12.7494 51.0727 12.7494 51.0872 12.7494 51.102C12.7496 51.3283 12.7495 51.5546 12.7493 51.7809C12.7492 52.0049 12.7493 52.2289 12.7497 52.4529C12.7499 52.5721 12.75 52.6913 12.7497 52.8105C12.7484 53.4114 12.7738 54.0065 12.8211 54.6056C12.8235 54.6363 12.8235 54.6363 12.826 54.6677C12.8343 54.7684 12.8445 54.868 12.8602 54.9678C12.8798 54.9463 12.8798 54.9463 12.8999 54.9244C13.098 54.7081 13.297 54.4925 13.4974 54.2783C13.5867 54.1827 13.6751 54.0864 13.7633 53.9899C13.8404 53.9058 13.9185 53.8227 13.9964 53.7394C14.0681 53.6627 14.1393 53.5856 14.2102 53.5081C14.293 53.4176 14.3764 53.3277 14.4602 53.2382C14.5628 53.1285 14.6647 53.0182 14.7661 52.9074C14.8235 52.8446 14.8812 52.782 14.9389 52.7195C14.9539 52.7034 14.9539 52.7034 14.9691 52.6868C15.0096 52.643 15.0501 52.5992 15.0906 52.5554C15.2251 52.4099 15.3592 52.2642 15.493 52.1181C15.5296 52.0782 15.5661 52.0383 15.6027 51.9985C15.621 51.9785 15.6392 51.9586 15.6575 51.9386C15.7043 51.8876 15.7511 51.8366 15.798 51.7857C15.9148 51.6589 15.9148 51.6589 16.0289 51.5298C16.0912 51.458 16.1556 51.3883 16.2202 51.3186C16.2968 51.236 16.3724 51.1528 16.4462 51.0676C16.4862 51.0217 16.5269 50.9764 16.5677 50.9312C16.5828 50.9144 16.598 50.8976 16.6136 50.8803C16.6447 50.8458 16.676 50.8114 16.7075 50.7772C16.9848 50.4733 17.067 50.236 17.0652 49.8212C17.0653 49.7976 17.0654 49.7739 17.0654 49.7495C17.0656 49.6843 17.0655 49.619 17.0654 49.5538C17.0653 49.4824 17.0654 49.4109 17.0655 49.3395C17.0657 49.214 17.0657 49.0885 17.0656 48.963C17.0655 48.7751 17.0656 48.5873 17.0657 48.3994C17.066 48.0791 17.066 47.7589 17.066 47.4387C17.0659 47.1141 17.066 46.7896 17.0661 46.4651C17.0661 46.4446 17.0661 46.4241 17.0661 46.403C17.0662 46.2984 17.0662 46.1939 17.0663 46.0894C17.0666 45.356 17.0668 44.6226 17.0669 43.8891C17.067 43.1163 17.0672 42.3434 17.0675 41.5705C17.0675 41.5472 17.0675 41.5239 17.0675 41.5C17.0676 41.2398 17.0677 40.9796 17.0678 40.7194C17.068 40.2381 17.0682 39.7568 17.0684 39.2756C17.0684 39.2515 17.0684 39.2274 17.0685 39.2026C17.0689 38.0564 17.0692 36.9103 17.0695 35.7641C17.0696 35.6881 17.0696 35.612 17.0696 35.536C17.0698 34.7723 17.07 34.0087 17.0702 33.2451C17.0704 32.4565 17.0706 31.6679 17.0708 30.8792C17.0708 30.8032 17.0709 30.7273 17.0709 30.6513C17.0712 29.5065 17.0715 28.3618 17.072 27.217C17.072 27.193 17.072 27.1689 17.072 27.1441C17.0722 26.6633 17.0724 26.1824 17.0726 25.7016C17.0727 25.4416 17.0728 25.1815 17.0729 24.9215C17.0729 24.8982 17.0729 24.8749 17.0729 24.851C17.0733 24.0786 17.0734 23.3062 17.0735 22.5339C17.0736 21.8024 17.0738 21.0709 17.0741 20.3394C17.0742 20.2351 17.0742 20.1308 17.0743 20.0264C17.0743 20.006 17.0743 19.9855 17.0743 19.9644C17.0744 19.6409 17.0745 19.3174 17.0744 18.9939C17.0744 18.6755 17.0745 18.3572 17.0747 18.0389C17.0749 17.8524 17.0749 17.6659 17.0748 17.4795C17.0747 17.3554 17.0748 17.2313 17.0749 17.1072C17.075 17.037 17.0751 16.9669 17.0749 16.8967C17.0728 15.4837 17.0728 15.4837 17.4802 15.0567C17.4931 15.043 17.5059 15.0293 17.5192 15.0153C18.0431 14.5059 18.9604 14.5936 19.6302 14.5942C19.7135 14.5942 19.7968 14.5941 19.8801 14.5941C20.0263 14.594 20.1726 14.594 20.3188 14.594C20.5378 14.5941 20.7567 14.594 20.9756 14.594C21.3488 14.5938 21.722 14.5938 22.0952 14.5938C22.4734 14.5939 22.8515 14.5938 23.2296 14.5938C23.2654 14.5938 23.2654 14.5938 23.302 14.5938C23.3993 14.5937 23.4967 14.5937 23.594 14.5937C24.5954 14.5935 25.5967 14.5934 26.5981 14.5934C26.7072 14.5934 26.8164 14.5934 26.9256 14.5934C26.9529 14.5934 26.9803 14.5934 27.0077 14.5934C27.6221 14.5934 28.2366 14.5934 28.8511 14.5933C28.9882 14.5933 29.1254 14.5933 29.2626 14.5933C29.2762 14.5933 29.2899 14.5933 29.3039 14.5933C29.3866 14.5933 29.4692 14.5933 29.5519 14.5933C29.5933 14.5933 29.6347 14.5932 29.6761 14.5932C30.32 14.5932 30.9638 14.5931 31.6077 14.5931C31.6217 14.5931 31.6357 14.5931 31.6502 14.5931C32.5439 14.5931 33.4377 14.593 34.3314 14.593C34.3753 14.593 34.4193 14.593 34.4632 14.593C34.7719 14.593 35.0806 14.593 35.3893 14.593C35.4778 14.5931 35.5663 14.5931 35.6548 14.5931C35.7286 14.5931 35.8024 14.5931 35.8762 14.5931C37.2706 14.5931 38.6649 14.593 40.0592 14.5928C40.0739 14.5928 40.0886 14.5928 40.1037 14.5928C40.5624 14.5928 41.021 14.5927 41.4797 14.5926C41.9504 14.5926 42.421 14.5925 42.8917 14.5924C42.9062 14.5924 42.9207 14.5924 42.9356 14.5924C43.8434 14.5923 44.7512 14.5922 45.659 14.5922C45.6731 14.5922 45.6871 14.5922 45.7015 14.5922C46.3175 14.5922 46.9334 14.5922 47.5493 14.5922C47.7971 14.5922 48.0449 14.5922 48.2927 14.5922C48.3338 14.5922 48.3749 14.5922 48.416 14.5922C49.0441 14.5922 49.6722 14.5922 50.3003 14.592C50.3139 14.592 50.3274 14.592 50.3414 14.592C50.5591 14.592 50.7768 14.592 50.9946 14.5919C51.8874 14.5917 52.7802 14.5917 53.6731 14.5918C53.7946 14.5918 53.9161 14.5919 54.0377 14.5919C54.0615 14.5919 54.0853 14.5919 54.1099 14.5919C54.4869 14.5919 54.8639 14.5918 55.241 14.5917C55.6118 14.5916 55.9827 14.5916 56.3535 14.5917C56.5708 14.5918 56.7882 14.5918 57.0055 14.5916C57.15 14.5915 57.2945 14.5915 57.4391 14.5917C57.5209 14.5918 57.6027 14.5918 57.6845 14.5916C59.2703 14.5888 59.2703 14.5888 59.7744 15.0671C60.0416 15.3562 60.0757 15.7034 60.0638 16.0787C60.0448 16.3845 59.9214 16.6364 59.6997 16.8461C59.2072 17.261 58.4889 17.2424 57.8817 17.2412C57.7994 17.241 57.7171 17.2412 57.6348 17.2412C57.4902 17.2413 57.3456 17.2413 57.2011 17.2412C56.9847 17.241 56.7683 17.241 56.5518 17.2411C56.183 17.2412 55.8141 17.2411 55.4452 17.2409C55.0715 17.2408 54.6977 17.2407 54.324 17.2407C54.2886 17.2407 54.2886 17.2407 54.2524 17.2407C54.132 17.2407 54.0116 17.2407 53.8912 17.2407C53.0199 17.2408 52.1485 17.2406 51.2772 17.2404C51.0618 17.2403 50.8464 17.2403 50.6311 17.2402C50.6177 17.2402 50.6043 17.2402 50.5905 17.2402C49.97 17.2401 49.3495 17.24 48.7291 17.24C48.6885 17.24 48.6479 17.24 48.6073 17.24C48.3625 17.2399 48.1177 17.2399 47.873 17.2399C47.2645 17.2399 46.656 17.2399 46.0475 17.2398C46.0337 17.2398 46.0198 17.2398 46.0055 17.2398C45.1086 17.2397 44.2117 17.2396 43.3147 17.2395C43.3004 17.2395 43.2861 17.2395 43.2713 17.2394C42.8355 17.2394 42.3997 17.2393 41.9639 17.2392C41.4816 17.2391 40.9993 17.239 40.517 17.2389C40.5025 17.2389 40.488 17.2389 40.4731 17.2389C39.11 17.2387 37.747 17.2385 36.384 17.2384C36.2957 17.2384 36.2075 17.2384 36.1193 17.2384C35.1999 17.2383 34.2804 17.2382 33.361 17.2381C33.3216 17.2381 33.3216 17.2381 33.2814 17.2381C33.2336 17.2381 33.1858 17.2381 33.138 17.2381C28.6854 17.2377 24.2328 17.2369 19.7802 17.2362C19.7868 27.2 19.7934 37.1637 19.8002 47.4295C19.9693 47.2618 19.9693 47.2618 20.1276 47.0873C20.1855 47.0203 20.2468 46.9564 20.3077 46.8921C20.4041 46.7898 20.4993 46.6868 20.5929 46.5819C20.6657 46.5014 20.7401 46.4224 20.8143 46.3431C20.9055 46.2456 20.9959 46.1475 21.0861 46.0489C21.1737 45.9531 21.2619 45.8578 21.3501 45.7625C21.3797 45.7304 21.4093 45.6983 21.4389 45.6662C21.5574 45.5375 21.6765 45.4094 21.796 45.2816C21.8706 45.2018 21.9449 45.1216 22.0189 45.0412C22.5584 44.4562 22.5584 44.4562 22.7802 44.2702C22.7958 44.2569 22.7958 44.2569 22.8116 44.2433C23.6556 43.5246 24.6788 43.079 25.8014 43.1629C26.3561 43.2127 27.012 43.3837 27.4667 43.7169C27.5314 43.7573 27.572 43.7596 27.6477 43.7603C28.2087 43.788 28.6444 44.1299 29.0802 44.4501C29.1035 44.4672 29.1035 44.4672 29.1272 44.4846C29.2224 44.5545 29.3175 44.6246 29.4125 44.6948C29.4598 44.7298 29.5072 44.7646 29.5546 44.7994C29.586 44.8225 29.6175 44.8457 29.6489 44.8688C29.6644 44.8801 29.6798 44.8915 29.6958 44.9032C29.7803 44.9654 29.8644 45.0281 29.9481 45.0915C29.966 45.105 29.9839 45.1185 30.0023 45.1324C30.0366 45.1584 30.0708 45.1844 30.105 45.2105C30.1938 45.2777 30.2821 45.3372 30.3802 45.3899C30.3947 45.373 30.4093 45.356 30.4243 45.3385C30.5099 45.2386 30.5955 45.1388 30.6811 45.0389C30.6958 45.0218 30.6958 45.0218 30.7107 45.0044C30.7305 44.9813 30.7504 44.9582 30.7702 44.935C30.82 44.877 30.8698 44.8189 30.9195 44.7608C31.0335 44.6275 31.1481 44.4947 31.263 44.3623C31.366 44.2436 31.4683 44.1243 31.5705 44.0049C31.6304 43.935 31.6903 43.8651 31.7502 43.7952C31.8 43.7372 31.8498 43.6791 31.8995 43.621C32.0136 43.4878 32.1281 43.355 32.2431 43.2225C32.3158 43.1388 32.3881 43.0547 32.4602 42.9705C32.554 42.8609 32.6483 42.7518 32.7429 42.6429C32.8174 42.557 32.8914 42.4708 32.9652 42.3843C33.0477 42.2877 33.132 42.193 33.2175 42.099C33.2623 42.0483 33.3043 41.9961 33.3464 41.9432C33.6031 41.6289 33.9092 41.3565 34.3264 41.2946C34.3508 41.2933 34.3751 41.2921 34.4002 41.2908C34.4195 41.2893 34.4195 41.2893 34.4393 41.2878C34.8235 41.27 35.1873 41.4468 35.4694 41.6939C35.6904 41.9023 35.8041 42.1685 35.8243 42.4716C35.8317 42.988 35.6429 43.3367 35.3086 43.7176C35.2684 43.7638 35.2299 43.8114 35.1914 43.859C35.0884 43.9859 34.9807 44.1087 34.8734 44.232C34.7492 44.3748 34.6256 44.518 34.5064 44.6651C34.4353 44.7527 34.3608 44.8364 34.2849 44.9198C34.2402 44.97 34.1975 45.0215 34.1552 45.0737C34.0509 45.2025 33.9419 45.327 33.8331 45.452C33.7815 45.5115 33.7302 45.5713 33.6789 45.6311C33.6691 45.6426 33.6593 45.654 33.6492 45.6659C33.6294 45.689 33.6096 45.7121 33.5899 45.7352C33.54 45.7934 33.4901 45.8516 33.4402 45.9098C33.4202 45.9331 33.4002 45.9565 33.3802 45.9798C33.2602 46.1198 33.1402 46.2597 33.0202 46.3997C33.0103 46.4112 33.0004 46.4228 32.9902 46.4347C32.9702 46.458 32.9503 46.4812 32.9303 46.5045C32.8795 46.5637 32.8287 46.623 32.7781 46.6824C32.6887 46.7872 32.5991 46.8915 32.5064 46.9933C32.4462 47.0596 32.3889 47.1273 32.3327 47.197C32.259 47.2881 32.1815 47.3743 32.1017 47.46C32.0435 47.5229 31.9886 47.5874 31.9352 47.6544C31.8122 47.8071 31.6762 47.9482 31.5402 48.0893C31.5226 48.1077 31.5226 48.1077 31.5047 48.1265C31.2761 48.3619 30.9889 48.5273 30.656 48.5389C30.4188 48.5404 30.2229 48.4926 30.0077 48.3942C29.9941 48.388 29.9805 48.3818 29.9664 48.3754C29.849 48.319 29.7453 48.246 29.6402 48.1693C29.4342 48.5087 29.2406 48.8527 29.0557 49.204C28.997 49.3154 28.937 49.4261 28.8764 49.5365C28.8572 49.5716 28.838 49.6068 28.8187 49.6419C28.8044 49.668 28.8044 49.668 28.7899 49.6946C28.7364 49.7926 28.6833 49.8907 28.6302 49.9889C28.5453 50.1456 28.4604 50.3023 28.3752 50.4588C28.3663 50.4752 28.3573 50.4917 28.3481 50.5086C28.2604 50.6696 28.1701 50.8289 28.0802 50.9887C39.1814 50.9887 50.2826 50.9887 61.7202 50.9887C61.575 50.6192 61.4298 50.2496 61.2802 49.8689C61.1634 49.5713 61.0466 49.2736 60.9299 48.9759C60.8706 48.8246 60.8112 48.6733 60.7518 48.522C60.7096 48.4146 60.6675 48.3072 60.6255 48.1997C60.5532 48.015 60.4808 47.8304 60.4071 47.6462C60.3764 47.5695 60.3459 47.4928 60.3155 47.4161C60.3013 47.3804 60.287 47.3447 60.2725 47.309C60.2529 47.2604 60.2335 47.2116 60.2142 47.1628C60.2054 47.1415 60.2054 47.1415 60.1965 47.1198C60.1752 47.0652 60.1605 47.0163 60.1581 46.9575C60.1827 46.9041 60.2068 46.8838 60.2516 46.8466C60.2644 46.8359 60.2772 46.8252 60.2903 46.8142C60.3002 46.8061 60.31 46.798 60.3202 46.7896C60.3034 46.7896 60.2866 46.7896 60.2694 46.7896C58.4981 46.7884 56.7268 46.7872 54.7909 46.7856C54.7633 46.7856 54.7358 46.7855 54.7082 46.7855C54.1299 46.785 53.5515 46.7845 52.9732 46.784C52.6826 46.7838 52.3921 46.7835 52.1016 46.7833C52.0577 46.7833 52.0139 46.7832 51.9701 46.7832C51.2954 46.7826 50.6207 46.7821 49.946 46.7816C49.9315 46.7816 49.917 46.7816 49.9021 46.7816C49.6682 46.7814 49.4344 46.7813 49.2006 46.7811C48.527 46.7807 47.8534 46.7803 47.1798 46.7797C47.159 46.7796 47.159 46.7796 47.1378 46.7796C46.8336 46.7794 46.5294 46.7791 46.2251 46.7788C46.1027 46.7787 45.9803 46.7786 45.8578 46.7784C45.8444 46.7784 45.831 46.7784 45.8172 46.7784C45.3858 46.778 44.9544 46.7777 44.523 46.7775C44.0762 46.7773 43.6294 46.7769 43.1825 46.7764C42.925 46.7761 42.6674 46.7759 42.4098 46.7759C42.2377 46.7759 42.0656 46.7757 41.8935 46.7754C41.7955 46.7753 41.6975 46.7752 41.5994 46.7752C41.5101 46.7753 41.4208 46.7752 41.3315 46.7749C41.2995 46.7749 41.2675 46.7749 41.2355 46.775C40.7897 46.776 40.3164 46.7305 39.9756 46.4084C39.7048 46.1126 39.6115 45.7405 39.6161 45.3484C39.6326 45.0303 39.752 44.7324 39.9834 44.5107C40.316 44.2133 40.7371 44.1238 41.1712 44.125C41.2025 44.125 41.2337 44.1249 41.265 44.1248C41.3508 44.1246 41.4366 44.1246 41.5224 44.1247C41.6158 44.1248 41.7092 44.1246 41.8026 44.1245C41.9664 44.1242 42.1301 44.1241 42.2938 44.1241C42.5374 44.1242 42.781 44.124 43.0245 44.1237C43.4348 44.1233 43.845 44.123 44.2552 44.1229C44.6626 44.1227 45.0701 44.1225 45.4775 44.1221C45.5156 44.1221 45.5156 44.1221 45.5544 44.1221C45.6834 44.122 45.8123 44.1218 45.9413 44.1217C46.8421 44.1209 47.7428 44.1203 48.6436 44.1198C48.6989 44.1197 48.7542 44.1197 48.8095 44.1197C48.851 44.1196 48.8925 44.1196 48.934 44.1196C49.0587 44.1195 49.1834 44.1194 49.3081 44.1194C49.3359 44.1194 49.3636 44.1193 49.3913 44.1193C50.026 44.1189 50.6606 44.1185 51.2953 44.1181C51.3363 44.1181 51.3774 44.118 51.4185 44.118C52.0397 44.1176 52.661 44.1171 53.2822 44.1166C53.3216 44.1166 53.3216 44.1166 53.3618 44.1165C53.5985 44.1164 53.8352 44.1162 54.0719 44.116C54.6582 44.1155 55.2446 44.115 55.8309 44.1148C56.2408 44.1146 56.6508 44.1143 57.0607 44.114C57.2817 44.1138 57.5027 44.1136 57.7237 44.1136C58.2355 44.1135 58.7472 44.1126 59.259 44.1107C59.3422 44.1103 59.4254 44.1101 59.5087 44.1098C59.7505 44.109 59.9924 44.108 60.2343 44.1063C60.3387 44.1055 60.4432 44.1049 60.5476 44.1046C60.6446 44.1043 60.7416 44.1036 60.8385 44.1027C60.8738 44.1024 60.909 44.1023 60.9442 44.1023C61.4956 44.1019 61.9778 43.9356 62.459 43.6758C63.0267 43.3701 63.6533 43.1893 64.3002 43.1704C64.3212 43.1696 64.3421 43.1688 64.3637 43.168C64.9917 43.1554 65.617 43.2948 66.1802 43.5703C66.1946 43.5773 66.2089 43.5843 66.2237 43.5915C66.7767 43.8639 67.2649 44.2791 67.6628 44.7483C67.723 44.8155 67.7878 44.8781 67.852 44.9415C67.92 45.0089 67.9839 45.0785 68.0461 45.1515C68.1 45.2123 68.1584 45.2684 68.2163 45.3254C68.269 45.3788 68.3177 45.435 68.3666 45.4919C68.4106 45.5417 68.4578 45.5877 68.5052 45.6342C68.5543 45.6842 68.5995 45.7374 68.6452 45.7905C68.6892 45.8399 68.7361 45.8859 68.7833 45.9323C68.819 45.9686 68.8524 46.006 68.8856 46.0445C68.9565 46.126 69.0297 46.205 69.1039 46.2835C69.1304 46.3116 69.1568 46.3396 69.1832 46.3677C69.1962 46.3816 69.2092 46.3954 69.2226 46.4096C69.3621 46.5583 69.4996 46.7089 69.6373 46.8592C69.7048 46.9328 69.7724 47.0062 69.8402 47.0795C69.9261 47.1725 70.0118 47.2657 70.0973 47.3591C70.1648 47.4327 70.2324 47.5061 70.3002 47.5794C70.4229 47.7123 70.5451 47.8456 70.6673 47.9789C70.7814 48.1036 70.8959 48.228 71.0106 48.3521C71.0954 48.4439 71.1798 48.536 71.2642 48.6282C71.3037 48.6713 71.3433 48.7142 71.3831 48.7571C71.3937 48.7685 71.4042 48.7799 71.4151 48.7916C71.4352 48.8133 71.4554 48.835 71.4755 48.8566C71.5459 48.9326 71.6126 49.0103 71.6802 49.0891C71.6868 38.5776 71.6934 28.0662 71.7002 17.2362C69.1526 17.2362 66.605 17.2362 63.9802 17.2362C63.5481 17.1745 63.2094 17.0806 62.9202 16.7363C62.6932 16.4211 62.6415 16.0374 62.6901 15.6593C62.737 15.4214 62.8179 15.2182 62.9802 15.0367C62.9911 15.0241 63.002 15.0116 63.0132 14.9987C63.253 14.7404 63.6139 14.6378 63.9555 14.6108C64.0327 14.608 64.1098 14.6069 64.187 14.6066C64.217 14.6063 64.2471 14.6059 64.2771 14.6055C64.36 14.6046 64.4429 14.604 64.5259 14.6035C64.5986 14.603 64.6713 14.6023 64.744 14.6017C65.8298 14.5918 66.9157 14.5937 68.0016 14.5942C68.2289 14.5943 68.4561 14.5942 68.6834 14.5942C70.9811 14.5933 70.9811 14.5933 72.1054 14.6039C72.1643 14.6044 72.2233 14.6049 72.2823 14.6053C72.3727 14.606 72.4631 14.6069 72.5535 14.608C72.5857 14.6084 72.6179 14.6087 72.6501 14.6089C73.129 14.6125 73.5765 14.6892 73.9354 15.0308C74.2984 15.4026 74.4075 15.9105 74.4051 16.4163C74.4052 16.4411 74.4052 16.4658 74.4053 16.4913C74.4053 16.5595 74.4053 16.6277 74.4051 16.6959C74.4049 16.7705 74.405 16.8452 74.4051 16.9198C74.4052 17.051 74.4051 17.1822 74.405 17.3134C74.4047 17.5097 74.4047 17.7061 74.4047 17.9025C74.4048 18.2372 74.4047 18.5719 74.4044 18.9067C74.4042 19.2459 74.404 19.585 74.404 19.9242C74.404 19.9564 74.404 19.9564 74.404 19.9892C74.404 20.0984 74.404 20.2077 74.4039 20.3169C74.4039 21.0835 74.4036 21.85 74.4032 22.6165C74.4029 23.4242 74.4026 24.2319 74.4024 25.0395C74.4024 25.0639 74.4024 25.0882 74.4024 25.1133C74.4024 25.3852 74.4023 25.657 74.4023 25.9289C74.4022 26.4318 74.4021 26.9347 74.402 27.4376C74.402 27.4628 74.402 27.4879 74.402 27.5138C74.4018 28.7114 74.4014 29.909 74.401 31.1066C74.401 31.1861 74.401 31.2655 74.401 31.345C74.4007 32.1696 74.4004 32.9941 74.4002 33.8187C74.3999 34.6164 74.3996 35.414 74.3994 36.2117C74.3994 36.2911 74.3993 36.3706 74.3993 36.45C74.3989 37.6464 74.3986 38.8428 74.3984 40.0392C74.3984 40.0644 74.3984 40.0895 74.3984 40.1154C74.3983 40.6178 74.3982 41.1201 74.3981 41.6225C74.3981 41.8941 74.398 42.1658 74.398 42.4375C74.398 42.4739 74.3979 42.4739 74.3979 42.5111C74.3978 43.3184 74.3975 44.1257 74.3971 44.933C74.3968 45.6973 74.3965 46.4617 74.3964 47.226C74.3964 47.335 74.3964 47.4439 74.3964 47.5529C74.3964 47.5743 74.3964 47.5956 74.3964 47.6176C74.3963 47.9559 74.3962 48.2941 74.3959 48.6324C74.3957 48.9649 74.3956 49.2975 74.3957 49.6301C74.3957 49.8251 74.3956 50.02 74.3954 50.215C74.3952 50.3446 74.3952 50.4741 74.3953 50.6037C74.3954 50.6771 74.3954 50.7505 74.3952 50.8239C74.3934 51.6002 74.5039 52.2094 75.0708 52.7792C75.1479 52.8563 75.225 52.9333 75.3026 53.0099C75.3956 53.102 75.4858 53.195 75.571 53.2945C75.6086 53.3379 75.6489 53.3781 75.6902 53.4181C75.7584 53.4843 75.8208 53.5541 75.883 53.6258C75.9429 53.6939 76.0053 53.7596 76.0677 53.8255C76.1653 53.9291 76.262 54.0334 76.3568 54.1395C76.4075 54.1961 76.4588 54.252 76.5102 54.3079C76.5773 54.3809 76.644 54.4541 76.7102 54.5279C76.779 54.6045 76.8482 54.6807 76.9177 54.7566C76.927 54.7668 76.9363 54.7769 76.9459 54.7874C76.9897 54.8352 77.0341 54.8821 77.0802 54.9278C77.2045 54.0824 77.2175 53.2493 77.2154 52.3967C77.2149 52.196 77.2151 51.9953 77.2154 51.7945C77.2158 51.4197 77.2157 51.0448 77.2153 50.6699C77.2149 50.2907 77.2147 49.9116 77.2149 49.5324C77.2149 49.5083 77.2149 49.4843 77.2149 49.4595C77.2149 49.3367 77.215 49.2139 77.2151 49.0911C77.2154 48.2055 77.2152 47.3199 77.2147 46.4343C77.2146 46.216 77.2145 45.9976 77.2143 45.7793C77.2143 45.7589 77.2143 45.7589 77.2143 45.7381C77.214 45.1074 77.2139 44.4766 77.2139 43.8458C77.2139 43.8045 77.2139 43.7632 77.2139 43.7218C77.2139 43.4726 77.2139 43.2233 77.2139 42.974C77.2139 42.3545 77.2139 41.7349 77.2139 41.1154C77.2139 41.1013 77.2139 41.0872 77.2139 41.0726C77.2138 40.1605 77.2135 39.2483 77.2132 38.3361C77.2132 38.3216 77.2131 38.307 77.2131 38.2921C77.2129 37.8197 77.2127 37.3473 77.2125 36.8749C77.2123 36.4146 77.2121 35.9544 77.2119 35.4941C77.2119 35.4793 77.2119 35.4646 77.2119 35.4494C77.2113 34.0493 77.2113 32.6493 77.2113 31.2492C77.2113 31.175 77.2113 31.1009 77.2113 31.0267C77.2113 30.9378 77.2113 30.8489 77.2113 30.76C77.2113 30.4499 77.2113 30.1399 77.2113 29.8298C77.2113 29.7857 77.2113 29.7416 77.2113 29.6974C77.2114 28.7998 77.2113 27.9023 77.2111 27.0047C77.2111 26.9906 77.2111 26.9765 77.2111 26.962C77.211 26.3154 77.2109 25.6688 77.2107 25.0222C77.2107 24.9806 77.2107 24.939 77.2107 24.8974C77.2107 24.8144 77.2107 24.7314 77.2106 24.6484C77.2106 24.6347 77.2106 24.621 77.2106 24.6069C77.2106 24.4692 77.2106 24.3314 77.2105 24.1936C77.2104 23.5765 77.2103 22.9594 77.2102 22.3423C77.2102 22.3149 77.2102 22.2874 77.2102 22.26C77.2102 22.1504 77.2102 22.0409 77.2102 21.9314C77.2102 20.9153 77.21 19.8993 77.2093 18.8832C77.2093 18.7858 77.2092 18.6884 77.2092 18.591C77.2092 18.5551 77.2092 18.5551 77.2091 18.5186C77.2089 18.1402 77.2089 17.7618 77.209 17.3834C77.209 17.0113 77.2089 16.6392 77.2085 16.2671C77.2083 16.049 77.2082 15.8309 77.2084 15.6128C77.2085 15.4679 77.2084 15.3229 77.2081 15.1779C77.208 15.0958 77.2079 15.0137 77.2081 14.9316C77.2101 14.0405 77.0826 13.1844 76.4464 12.5147C76.2327 12.3094 75.9915 12.1548 75.7202 12.0373C75.706 12.0311 75.6918 12.025 75.6771 12.0186C75.3038 11.8602 74.8878 11.7737 74.4819 11.7749C74.4562 11.7748 74.4562 11.7748 74.4299 11.7748C74.3726 11.7747 74.3152 11.7748 74.2579 11.7748C74.2161 11.7748 74.1743 11.7748 74.1325 11.7747C74.017 11.7746 73.9016 11.7747 73.7862 11.7747C73.6604 11.7748 73.5345 11.7747 73.4087 11.7746C73.1871 11.7745 72.9656 11.7745 72.744 11.7745C72.505 11.7746 72.2659 11.7746 72.0269 11.7745C72.0117 11.7745 71.9966 11.7745 71.981 11.7745C71.9036 11.7745 71.8263 11.7744 71.7489 11.7744C71.1837 11.7743 70.6184 11.7742 70.0532 11.7742C69.4801 11.7742 68.9071 11.7741 68.334 11.774C68.2975 11.774 68.261 11.774 68.2245 11.774C68.0772 11.774 67.93 11.774 67.7827 11.7739C66.1627 11.7736 64.5426 11.7735 62.9226 11.7734C62.9021 11.7734 62.8816 11.7734 62.8605 11.7734C62.7568 11.7734 62.6531 11.7734 62.5495 11.7734C61.6811 11.7733 60.8127 11.7733 59.9443 11.7732C59.5284 11.7731 59.1126 11.7731 58.6967 11.7731C58.6761 11.7731 58.6554 11.7731 58.6341 11.7731C57.6387 11.773 56.6433 11.7729 55.6479 11.7728C55.6267 11.7728 55.6055 11.7728 55.5836 11.7728C54.2303 11.7727 52.8771 11.7727 51.5238 11.7726C51.4129 11.7726 51.3019 11.7726 51.191 11.7726C51.0131 11.7726 50.8352 11.7726 50.6573 11.7726C50.6352 11.7726 50.6132 11.7726 50.5905 11.7726C50.5459 11.7726 50.5014 11.7726 50.4568 11.7726C50.1443 11.7726 49.8318 11.7726 49.5193 11.7726C49.4074 11.7726 49.2956 11.7726 49.1838 11.7726C47.0718 11.7725 44.9597 11.7724 42.8477 11.7721C42.8255 11.7721 42.8032 11.7721 42.7803 11.7721C42.0856 11.772 41.391 11.7719 40.6963 11.7718C39.9835 11.7716 39.2707 11.7715 38.5579 11.7714C38.525 11.7714 38.525 11.7714 38.4914 11.7714C37.117 11.7712 35.7425 11.7711 34.368 11.771C34.3468 11.771 34.3256 11.771 34.3037 11.771C33.3714 11.771 32.4391 11.7709 31.5068 11.7709C31.1318 11.7709 30.7567 11.7709 30.3816 11.7709C30.3195 11.7709 30.2573 11.7709 30.1951 11.7709C29.2438 11.7709 28.2926 11.7708 27.3414 11.7706C27.3208 11.7706 27.3003 11.7706 27.2792 11.7706C26.9492 11.7706 26.6192 11.7705 26.2892 11.7704C25.3524 11.7702 24.4155 11.77 23.4787 11.7701C23.4597 11.7701 23.4407 11.7701 23.4211 11.7701C23.0063 11.7701 22.5916 11.7701 22.1768 11.7702C22.0114 11.7702 21.846 11.7702 21.6805 11.7702C21.6535 11.7702 21.6535 11.7702 21.6259 11.7702C21.0536 11.7703 20.4814 11.7702 19.9092 11.7699C19.3457 11.7697 18.7822 11.7697 18.2187 11.7699C18.1414 11.7699 18.0642 11.7699 17.987 11.77C17.9719 11.77 17.9567 11.77 17.9412 11.77C17.7031 11.7701 17.465 11.7699 17.2269 11.7697C16.9937 11.7695 16.7606 11.7696 16.5275 11.7698C16.4035 11.7699 16.2794 11.7699 16.1554 11.7697C16.0427 11.7695 15.9299 11.7696 15.8172 11.7698C15.777 11.7699 15.7367 11.7698 15.6965 11.7697C14.8863 11.7666 14.0958 11.9628 13.4964 12.5322C13.1406 12.9024 12.9419 13.3744 12.8339 13.8707C12.831 13.8841 12.8281 13.8976 12.825 13.9115C12.7645 14.2154 12.7543 14.5205 12.7549 14.8292C12.7548 14.8696 12.7547 14.9101 12.7546 14.9505C12.7544 15.0606 12.7544 15.1707 12.7545 15.2808C12.7545 15.3999 12.7542 15.519 12.754 15.6381C12.7537 15.8442 12.7536 16.0504 12.7535 16.2565C12.7534 16.555 12.753 16.8535 12.7526 17.152C12.7524 17.2914 12.7522 17.4308 12.752 17.5702C12.7519 17.5842 12.7519 17.5981 12.7519 17.6125C12.7515 17.944 12.7511 18.2755 12.7508 18.607C12.7508 18.6215 12.7508 18.6359 12.7508 18.6509C12.7506 18.8712 12.7504 19.0916 12.7502 19.312C12.75 19.5469 12.7498 19.7817 12.7496 20.0166C12.7495 20.0311 12.7495 20.0456 12.7495 20.0605C12.7492 20.3913 12.7489 20.7222 12.7484 21.053C12.7484 21.0669 12.7484 21.0809 12.7484 21.0952C12.7482 21.2343 12.748 21.3735 12.7478 21.5126C12.7473 21.8239 12.747 22.1353 12.7469 22.4466C12.7468 22.6506 12.7466 22.8547 12.7462 23.0587C12.746 23.1762 12.7459 23.2938 12.746 23.4113C12.746 23.5192 12.7459 23.627 12.7456 23.7349C12.7455 23.7736 12.7455 23.8124 12.7456 23.8511C12.7466 24.4126 12.7154 25.0078 12.3002 25.4344C12.0384 25.6774 11.6978 25.7504 11.3508 25.74C11.0009 25.7221 10.6438 25.6108 10.3952 25.3531C10.1304 25.0324 10.1112 24.6681 10.1101 24.2719C10.1098 24.2291 10.1094 24.1863 10.109 24.1436C10.1081 24.0261 10.1075 23.9087 10.107 23.7912C10.1066 23.6898 10.1059 23.5884 10.1052 23.4871C10.1028 23.1164 10.1014 22.7457 10.1002 22.375C10.1002 22.3599 10.1001 22.3448 10.1001 22.3292C10.0974 21.4892 10.0965 20.6491 10.0965 19.8091C10.0965 19.7921 10.0965 19.775 10.0965 19.7575C10.0965 19.7404 10.0965 19.7234 10.0965 19.7058C10.0965 19.6888 10.0965 19.6717 10.0965 19.6541C10.0965 19.6196 10.0965 19.5851 10.0965 19.5506C10.0965 19.2898 10.0963 19.0291 10.0961 18.7683C10.0932 15.7879 10.0932 15.7879 10.1377 14.4531C10.1402 14.3758 10.1427 14.2985 10.145 14.2212C10.1466 14.1723 10.1481 14.1235 10.1496 14.0747C10.1506 14.0423 10.1506 14.0423 10.1516 14.0093C10.1951 12.6501 10.6871 11.5119 11.6752 10.5644C12.3772 9.90755 13.2719 9.44714 14.2064 9.23295C14.2266 9.22827 14.2467 9.22358 14.2674 9.21875C14.6425 9.13719 15.0204 9.10897 15.4034 9.11048ZM26.6802 53.7881C26.6656 53.7936 26.6509 53.7991 26.6358 53.8048C26.4546 53.8839 26.3651 54.0571 26.2677 54.2205C26.2555 54.2407 26.2434 54.2609 26.2308 54.2817C25.9467 54.7557 25.685 55.2418 25.4265 55.7302C25.3289 55.9145 25.2298 56.0979 25.1282 56.2801C25.1146 56.3047 25.1146 56.3047 25.1007 56.3298C25.0929 56.344 25.085 56.3581 25.0768 56.3727C25.0573 56.4071 25.0573 56.4071 25.0602 56.4475C38.1876 56.4475 51.315 56.4475 64.8402 56.4475C64.8264 56.3783 64.8168 56.333 64.7893 56.2719C64.783 56.2578 64.7767 56.2436 64.7702 56.229C64.7633 56.2139 64.7564 56.1987 64.7493 56.1831C64.7421 56.1671 64.7349 56.1511 64.7275 56.1345C64.7039 56.0821 64.6802 56.0299 64.6564 55.9776C64.6483 55.9597 64.6403 55.9418 64.6319 55.9234C64.2732 55.0968 64.2732 55.0968 63.7802 54.3479C63.7612 54.3241 63.7612 54.3241 63.7419 54.2997C63.4229 53.9172 62.9566 53.775 62.4777 53.7231C62.1107 53.6899 61.745 53.6851 61.3767 53.6855C61.3032 53.6855 61.2297 53.6854 61.1563 53.6854C61.0273 53.6853 60.8984 53.6853 60.7695 53.6853C60.5765 53.6854 60.3835 53.6854 60.1904 53.6853C59.8614 53.6852 59.5324 53.6851 59.2034 53.6851C58.87 53.6852 58.5367 53.6851 58.2034 53.6851C58.1718 53.6851 58.1718 53.6851 58.1395 53.6851C58.0537 53.685 57.9679 53.685 57.8821 53.685C56.9872 53.6848 56.0924 53.6847 55.1976 53.6847C55.1013 53.6847 55.005 53.6847 54.9087 53.6847C54.8849 53.6847 54.861 53.6847 54.8364 53.6847C54.3067 53.6847 53.7771 53.6847 53.2474 53.6846C53.0293 53.6846 52.8111 53.6846 52.593 53.6846C52.5568 53.6846 52.5568 53.6846 52.5199 53.6846C51.1389 53.6844 49.7579 53.6843 48.3769 53.6844C48.3252 53.6844 48.2736 53.6844 48.2219 53.6844C47.9886 53.6844 47.7553 53.6844 47.522 53.6844C47.418 53.6844 47.314 53.6844 47.21 53.6844C47.1579 53.6844 47.1058 53.6844 47.0538 53.6844C45.4071 53.6844 43.7604 53.6842 42.1137 53.684C41.6988 53.6839 41.2838 53.6838 40.8688 53.6838C40.8433 53.6837 40.8177 53.6837 40.7914 53.6837C40.0039 53.6836 39.2164 53.6835 38.429 53.6835C38.4042 53.6835 38.3795 53.6835 38.354 53.6835C37.8113 53.6835 37.2686 53.6835 36.7258 53.6835C36.5317 53.6835 36.3375 53.6835 36.1433 53.6835C36.0949 53.6835 36.0466 53.6835 35.9983 53.6835C35.2286 53.6835 34.4589 53.6834 33.6892 53.6832C32.914 53.683 32.1388 53.683 31.3637 53.6831C31.2565 53.6832 31.1494 53.6832 31.0422 53.6832C31.0212 53.6832 31.0002 53.6832 30.9786 53.6832C30.6462 53.6832 30.3138 53.6832 29.9814 53.683C29.6545 53.6829 29.3276 53.6829 29.0006 53.683C28.8091 53.6831 28.6175 53.6831 28.4259 53.6829C28.2985 53.6828 28.1711 53.6828 28.0437 53.683C27.9716 53.6831 27.8994 53.6831 27.8273 53.6829C27.2451 53.6682 27.2451 53.6682 26.6802 53.7881Z" fill="white"/>
<path d="M41.3204 33.7675C41.3626 33.7674 41.4049 33.7674 41.4471 33.7673C41.563 33.7671 41.6789 33.7672 41.7948 33.7674C41.921 33.7675 42.0472 33.7673 42.1733 33.7672C42.3944 33.7671 42.6154 33.7671 42.8365 33.7672C43.0736 33.7673 43.3107 33.7673 43.5479 33.7672C43.5703 33.7672 43.5703 33.7672 43.5933 33.7672C43.6544 33.7672 43.7154 33.7672 43.7765 33.7672C44.345 33.7669 44.9134 33.7669 45.4819 33.767C45.5071 33.767 45.5071 33.767 45.5329 33.767C45.5497 33.7671 45.5666 33.7671 45.584 33.7671C46.0978 33.7672 46.6115 33.7672 47.1253 33.7671C47.1597 33.7671 47.1941 33.7671 47.2285 33.7671C47.3668 33.7671 47.5051 33.7671 47.6434 33.7671C48.03 33.7671 48.4165 33.767 48.8031 33.767C48.8295 33.767 48.8295 33.767 48.8565 33.767C49.4173 33.767 49.9782 33.767 50.539 33.7671C50.5663 33.7671 50.5663 33.7671 50.5942 33.7671C50.8896 33.7672 51.1849 33.7672 51.4803 33.7673C52.6518 33.7675 53.8233 33.7675 54.9949 33.7673C55.2901 33.7672 55.5853 33.7672 55.8806 33.7671C55.8987 33.7671 55.9169 33.7671 55.9356 33.7671C56.4959 33.767 57.0562 33.767 57.6165 33.767C57.6341 33.767 57.6517 33.767 57.6698 33.767C58.0559 33.767 58.4421 33.7671 58.8282 33.7671C58.9664 33.7671 59.1045 33.7671 59.2427 33.7671C59.2771 33.7671 59.3115 33.7671 59.3458 33.7671C59.8595 33.7672 60.3731 33.7671 60.8867 33.767C60.9036 33.767 60.9204 33.767 60.9377 33.767C60.9545 33.767 60.9713 33.767 60.9886 33.767C61.5555 33.7669 62.1223 33.767 62.6891 33.7672C62.75 33.7672 62.8109 33.7672 62.8718 33.7672C62.8867 33.7672 62.9016 33.7672 62.917 33.7672C63.1535 33.7673 63.39 33.7673 63.6264 33.7672C63.859 33.7671 64.0916 33.7671 64.3242 33.7673C64.4486 33.7674 64.5729 33.7674 64.6973 33.7673C64.8105 33.7671 64.9237 33.7672 65.0369 33.7674C65.0776 33.7674 65.1182 33.7674 65.1589 33.7673C65.6323 33.7662 66.1143 33.8058 66.4785 34.1471C66.7709 34.4677 66.8202 34.8642 66.8031 35.2803C66.784 35.5827 66.6524 35.8217 66.4398 36.032C66.4239 36.0489 66.4239 36.0489 66.4077 36.0661C66.0249 36.439 65.3489 36.4182 64.8557 36.4169C64.8143 36.417 64.7729 36.417 64.7315 36.4171C64.6184 36.4173 64.5053 36.4172 64.3922 36.417C64.2689 36.4169 64.1456 36.4171 64.0222 36.4172C63.8064 36.4173 63.5905 36.4173 63.3746 36.4172C63.1431 36.4171 62.9116 36.4171 62.6801 36.4172C62.6654 36.4172 62.6508 36.4172 62.6357 36.4172C62.576 36.4172 62.5163 36.4172 62.4566 36.4172C61.9013 36.4174 61.3461 36.4175 60.7908 36.4174C60.7744 36.4173 60.758 36.4173 60.741 36.4173C60.7163 36.4173 60.7163 36.4173 60.6912 36.4173C60.1893 36.4172 59.6875 36.4172 59.1857 36.4173C59.152 36.4173 59.1184 36.4173 59.0848 36.4173C58.9496 36.4173 58.8145 36.4173 58.6793 36.4173C58.3015 36.4173 57.9237 36.4174 57.5459 36.4174C57.5201 36.4174 57.5201 36.4174 57.4938 36.4174C56.9458 36.4174 56.3978 36.4173 55.8498 36.4173C55.8231 36.4173 55.8231 36.4173 55.7959 36.4172C55.5074 36.4172 55.2189 36.4172 54.9303 36.4171C53.7861 36.4169 52.6418 36.4169 51.4976 36.4171C51.2092 36.4172 50.9209 36.4172 50.6325 36.4173C50.6147 36.4173 50.597 36.4173 50.5787 36.4173C50.0313 36.4174 49.4839 36.4174 48.9364 36.4174C48.9107 36.4174 48.9107 36.4174 48.8843 36.4174C48.507 36.4174 48.1296 36.4173 47.7522 36.4173C47.6171 36.4173 47.4821 36.4173 47.347 36.4173C47.3134 36.4173 47.2799 36.4173 47.2463 36.4172C46.7446 36.4172 46.2429 36.4172 45.7413 36.4173C45.7166 36.4173 45.7166 36.4173 45.6915 36.4174C45.6751 36.4174 45.6587 36.4174 45.6418 36.4174C45.0881 36.4175 44.5344 36.4174 43.9807 36.4172C43.9212 36.4172 43.8617 36.4172 43.8021 36.4172C43.7875 36.4172 43.7729 36.4171 43.7579 36.4171C43.5271 36.4171 43.2963 36.4171 43.0655 36.4172C42.8382 36.4173 42.611 36.4173 42.3837 36.4171C42.2623 36.417 42.1409 36.417 42.0195 36.4171C41.9088 36.4173 41.7981 36.4172 41.6874 36.417C41.6479 36.417 41.6083 36.417 41.5687 36.4171C41.0212 36.4184 40.4196 36.4021 39.9789 36.0313C39.7303 35.7813 39.6201 35.4628 39.6123 35.1147C39.6162 34.7463 39.7196 34.4028 39.9786 34.1318C40.3556 33.7846 40.8365 33.7662 41.3204 33.7675Z" fill="white"/>
<path d="M41.1425 23.3724C41.1599 23.3724 41.1772 23.3723 41.1951 23.3723C41.2531 23.3723 41.311 23.3724 41.369 23.3725C41.4112 23.3725 41.4534 23.3724 41.4956 23.3724C41.6119 23.3724 41.7283 23.3725 41.8446 23.3726C41.971 23.3727 42.0974 23.3727 42.2239 23.3727C42.4456 23.3727 42.6673 23.3728 42.889 23.3729C43.1268 23.3731 43.3647 23.3732 43.6026 23.3732C43.6251 23.3732 43.6251 23.3732 43.6481 23.3733C43.7093 23.3733 43.7705 23.3733 43.8317 23.3733C44.5733 23.3735 45.3149 23.3739 46.0565 23.3743C46.297 23.3744 46.5375 23.3745 46.778 23.3747C46.8034 23.3747 46.8034 23.3747 46.8294 23.3747C46.898 23.3747 46.9667 23.3748 47.0353 23.3748C48.2096 23.3754 49.3838 23.376 50.558 23.3768C50.6502 23.3769 50.7424 23.377 50.8346 23.377C50.8529 23.377 50.8712 23.3771 50.8901 23.3771C51.0754 23.3772 51.2607 23.3773 51.446 23.3774C51.4832 23.3775 51.5203 23.3775 51.5575 23.3775C52.751 23.3783 53.9444 23.3789 55.1379 23.3792C55.9956 23.3794 56.8532 23.3797 57.7109 23.3802C57.7285 23.3802 57.7462 23.3802 57.7643 23.3803C58.1515 23.3805 58.5388 23.3808 58.926 23.3811C59.0818 23.3812 59.2376 23.3813 59.3934 23.3814C59.4104 23.3814 59.4275 23.3815 59.445 23.3815C59.9942 23.3819 60.5434 23.382 61.0925 23.3821C61.6456 23.3821 62.1988 23.3824 62.7519 23.383C62.8284 23.3831 62.9048 23.3832 62.9813 23.3833C62.9963 23.3833 63.0113 23.3833 63.0267 23.3833C63.2639 23.3836 63.501 23.3836 63.7382 23.3835C63.9715 23.3833 64.2048 23.3835 64.4381 23.384C64.5628 23.3842 64.6876 23.3843 64.8123 23.3841C64.9259 23.3839 65.0395 23.384 65.153 23.3845C65.1938 23.3846 65.2346 23.3845 65.2753 23.3843C65.5733 23.3831 65.8584 23.4058 66.1273 23.5486C66.1405 23.5553 66.1536 23.5621 66.1672 23.5691C66.2876 23.634 66.3854 23.7158 66.4798 23.8147C66.491 23.8255 66.5021 23.8363 66.5136 23.8474C66.7507 24.0937 66.8101 24.434 66.8082 24.7616C66.7997 25.0969 66.6871 25.4018 66.4528 25.6473C66.1108 25.9509 65.7045 26.0215 65.2619 26.0278C65.2289 26.0285 65.196 26.0292 65.1631 26.0298C64.7477 26.0378 64.3322 26.0371 63.9167 26.0369C63.7946 26.0369 63.6725 26.037 63.5504 26.0371C63.3372 26.0372 63.1239 26.0372 62.9107 26.0372C62.6823 26.0371 62.454 26.0372 62.2256 26.0372C62.2111 26.0372 62.1965 26.0373 62.1816 26.0373C62.1224 26.0373 62.0633 26.0373 62.0042 26.0373C61.39 26.0375 60.7759 26.0376 60.1617 26.0376C60.0958 26.0376 60.0299 26.0376 59.964 26.0376C59.9476 26.0376 59.9313 26.0376 59.9144 26.0376C59.5509 26.0376 59.1873 26.0376 58.8238 26.0377C58.6738 26.0377 58.5238 26.0377 58.3738 26.0378C58.3572 26.0378 58.3406 26.0378 58.3235 26.0378C57.3749 26.0379 56.4264 26.038 55.4778 26.038C55.4423 26.038 55.4069 26.038 55.3715 26.038C55.2115 26.038 55.0516 26.038 54.8916 26.038C54.8203 26.038 54.749 26.038 54.6777 26.038C54.642 26.038 54.6063 26.038 54.5706 26.038C53.4406 26.0379 52.3107 26.0381 51.1807 26.0384C50.8957 26.0384 50.6106 26.0385 50.3256 26.0386C50.308 26.0386 50.2905 26.0386 50.2724 26.0386C49.7314 26.0387 49.1904 26.0388 48.6494 26.0388C48.6239 26.0388 48.6239 26.0388 48.5979 26.0388C48.2251 26.0388 47.8523 26.0388 47.4794 26.0388C47.346 26.0388 47.2126 26.0388 47.0792 26.0388C47.0461 26.0388 47.0129 26.0388 46.9797 26.0388C46.4514 26.0388 45.9231 26.0389 45.3948 26.0391C44.863 26.0393 44.3312 26.0393 43.7994 26.0392C43.7259 26.0392 43.6524 26.0392 43.5788 26.0391C43.5644 26.0391 43.55 26.0391 43.5352 26.0391C43.3073 26.0391 43.0794 26.0392 42.8515 26.0393C42.6272 26.0394 42.403 26.0394 42.1787 26.0393C42.0589 26.0392 41.939 26.0392 41.8191 26.0394C41.71 26.0395 41.6008 26.0395 41.4916 26.0393C41.4525 26.0392 41.4134 26.0393 41.3742 26.0394C40.8535 26.0407 40.3609 25.9968 39.9648 25.6205C39.7211 25.3705 39.6214 25.0634 39.6123 24.7158C39.6218 24.3524 39.7258 24.0218 39.9798 23.7548C40.2985 23.4664 40.7241 23.371 41.1425 23.3724Z" fill="white"/>
<path d="M85.2602 63.1295C85.5156 63.3316 85.7094 63.5758 85.7599 63.9059C85.8028 64.3059 85.6963 64.6606 85.4999 65.0056C85.4926 65.0186 85.4853 65.0316 85.4777 65.045C85.3939 65.1922 85.3027 65.3299 85.2025 65.4665C85.1308 65.5659 85.0637 65.6682 84.9962 65.7704C84.9645 65.8182 84.9328 65.866 84.901 65.9137C84.8929 65.926 84.8847 65.9383 84.8762 65.951C84.7812 66.0938 84.685 66.2358 84.5887 66.3778C84.5799 66.3908 84.5711 66.4038 84.562 66.4172C84.5096 66.4944 84.4573 66.5715 84.4049 66.6486C84.3807 66.6841 84.3566 66.7196 84.3325 66.7552C84.0937 67.1067 83.8541 67.4576 83.6132 67.8076C83.5783 67.8583 83.5434 67.909 83.5086 67.9598C83.3225 68.2311 83.135 68.5014 82.9457 68.7705C82.7184 69.0934 82.4973 69.4163 82.3043 69.7611C82.2826 69.7999 82.2605 69.8384 82.2384 69.8769C81.8533 70.567 81.6299 71.3507 81.5049 72.1265C81.501 72.151 81.497 72.1755 81.4929 72.2007C81.4191 72.6849 81.4089 73.1736 81.3949 73.6622C81.3921 73.7591 81.3892 73.8561 81.3862 73.953C81.3812 74.1184 81.3763 74.2837 81.3714 74.449C81.3585 74.8807 81.3451 75.3124 81.3315 75.7441C81.3308 75.7654 81.3302 75.7868 81.3295 75.8088C81.2952 76.9005 81.2534 77.9916 81.1999 79.0825C81.1984 79.1145 81.1984 79.1145 81.1968 79.1472C81.1826 79.4391 81.1676 79.731 81.1518 80.0229C81.1488 80.0786 81.1459 80.1344 81.143 80.1901C81.1386 80.2755 81.1338 80.3609 81.1288 80.4462C81.1271 80.4768 81.1254 80.5073 81.1239 80.5379C81.0958 81.0918 80.8901 81.6055 80.4874 81.9956C80.2639 82.1893 79.9759 82.2966 79.6799 82.2874C79.3621 82.2576 79.082 82.1046 78.8711 81.8668C78.7134 81.6665 78.6085 81.4542 78.5424 81.2095C78.5384 81.1945 78.5343 81.1795 78.5301 81.164C78.4656 80.905 78.4772 80.6361 78.4777 80.3712C78.4777 80.33 78.4777 80.2888 78.4777 80.2476C78.4777 80.1364 78.4778 80.0251 78.4779 79.9139C78.478 79.7974 78.4781 79.6809 78.4781 79.5644C78.4781 79.3441 78.4783 79.1238 78.4785 78.9035C78.4787 78.6526 78.4788 78.4017 78.4789 78.1508C78.4791 77.6348 78.4795 77.1189 78.4799 76.603C78.5261 76.603 78.5723 76.603 78.6199 76.603C78.6204 76.5886 78.6208 76.5742 78.6212 76.5594C78.6232 76.4886 78.6253 76.4177 78.6273 76.3469C78.6277 76.3335 78.6281 76.3201 78.6285 76.3063C78.6332 76.1396 78.6381 75.9729 78.643 75.8062C78.6444 75.7581 78.6458 75.71 78.6472 75.6619C78.6481 75.6293 78.6491 75.5967 78.6501 75.5641C78.6556 75.3768 78.6609 75.1894 78.666 75.0021C78.7119 73.2945 78.8297 71.6347 79.9558 68.7363C79.9781 68.6886 80.0002 68.6409 80.0221 68.593C80.4205 67.7288 80.9281 66.9089 81.4702 66.1283C81.4991 66.0865 81.5279 66.0447 81.5565 66.0028C81.7414 65.7325 81.9306 65.4654 82.1228 65.2002C82.206 65.0852 82.288 64.9695 82.3696 64.8534C82.4414 64.7515 82.5142 64.6504 82.5874 64.5495C82.6799 64.422 82.771 64.2936 82.8612 64.1645C82.8728 64.1479 82.8845 64.1312 82.8965 64.1141C82.942 64.0489 82.9876 63.9836 83.033 63.9183C83.3522 63.4607 83.679 63.0206 84.2468 62.874C84.6182 62.8188 84.956 62.9101 85.2602 63.1295Z" fill="white"/>
<path d="M28.8602 31.513C28.8771 31.5185 28.8941 31.5241 28.9115 31.5299C29.3242 31.6796 29.6459 32.0375 29.9502 32.3403C29.9631 32.3531 29.9761 32.3659 29.9894 32.3792C30.1272 32.5174 30.2525 32.6658 30.3765 32.8164C30.3946 32.8384 30.3946 32.8384 30.4131 32.8608C30.5036 32.9712 30.5911 33.0836 30.6765 33.1979C30.7211 33.2537 30.7688 33.3031 30.8202 33.3526C30.9112 33.2534 31.0005 33.1535 31.0852 33.0489C31.1681 32.9466 31.2536 32.847 31.3401 32.7478C31.3937 32.6864 31.4471 32.6249 31.4997 32.5626C31.643 32.3931 31.792 32.2297 31.9454 32.0693C31.9766 32.0366 32.0075 32.0037 32.0383 31.9708C32.2275 31.7736 32.442 31.6082 32.7002 31.513C32.716 31.5066 32.7317 31.5003 32.7479 31.4938C33.0119 31.4035 33.3471 31.4218 33.6002 31.533C33.6185 31.541 33.6368 31.549 33.6557 31.5573C33.9998 31.7273 34.2493 32.0245 34.3752 32.3853C34.4812 32.771 34.3916 33.1545 34.1971 33.4964C34.034 33.7448 33.8079 33.964 33.5825 34.1558C33.5391 34.1934 33.4969 34.2322 33.4548 34.2712C33.3511 34.3675 33.2448 34.4586 33.1345 34.5474C33.0591 34.6097 32.9877 34.6762 32.9158 34.7424C32.8422 34.8084 32.7657 34.8704 32.6884 34.9321C32.6429 34.97 32.6013 35.0096 32.5602 35.0522C32.5917 35.1331 32.6492 35.1823 32.7127 35.2384C32.7236 35.2482 32.7345 35.258 32.7457 35.268C32.7771 35.2962 32.8086 35.3242 32.8402 35.3521C32.8608 35.3705 32.8608 35.3705 32.8818 35.3891C32.9409 35.4413 33.0007 35.4925 33.061 35.5434C33.2207 35.6785 33.3744 35.8187 33.5263 35.9625C33.5859 36.0188 33.6464 36.0738 33.7077 36.1282C34.0852 36.4671 34.3907 36.8403 34.42 37.3666C34.4299 37.7023 34.3176 38.0163 34.089 38.264C34.0534 38.3007 34.0171 38.3361 33.9802 38.3715C33.9681 38.3835 33.956 38.3955 33.9435 38.4079C33.7032 38.6311 33.4034 38.7244 33.0811 38.7208C32.6073 38.7032 32.2518 38.4149 31.9347 38.0916C31.9025 38.0588 31.87 38.0262 31.8376 37.9936C31.7277 37.8829 31.6215 37.7702 31.5202 37.6516C31.4911 37.6195 31.462 37.5874 31.4327 37.5554C31.3709 37.487 31.3117 37.4173 31.254 37.3454C31.1749 37.2476 31.0913 37.1551 31.0052 37.0636C30.9408 36.995 30.8798 36.9246 30.8202 36.8518C30.7976 36.8744 30.7751 36.8969 30.7526 36.9195C30.7294 36.9426 30.7062 36.9655 30.6829 36.9884C30.6051 37.0651 30.5311 37.1436 30.4598 37.2264C30.4109 37.2824 30.3606 37.337 30.3102 37.3917C30.2506 37.4564 30.1913 37.5212 30.134 37.5879C29.1943 38.6673 29.1943 38.6673 28.5971 38.7148C28.3854 38.7271 28.1983 38.714 28.0002 38.6314C27.9829 38.6244 27.9655 38.6174 27.9476 38.6102C27.6306 38.4673 27.3864 38.1899 27.2558 37.8723C27.1368 37.5557 27.142 37.2055 27.2768 36.8933C27.4141 36.5958 27.6314 36.3744 27.8613 36.1467C27.9016 36.1069 27.9416 36.0669 27.9817 36.0268C28.0934 35.9155 28.2046 35.8046 28.3249 35.7024C28.3935 35.6435 28.4584 35.5805 28.524 35.5183C28.6412 35.4075 28.759 35.2972 28.878 35.1883C28.9334 35.1375 28.9875 35.0858 29.0402 35.0322C29.0128 34.9687 28.9834 34.9327 28.9297 34.8895C28.9156 34.878 28.9015 34.8666 28.887 34.8548C28.872 34.8428 28.8569 34.8308 28.8415 34.8185C28.8261 34.806 28.8107 34.7936 28.7948 34.7808C28.7641 34.7558 28.7333 34.731 28.7024 34.7062C28.6489 34.6632 28.5958 34.6196 28.5427 34.576C28.4911 34.5339 28.4395 34.4918 28.3878 34.4498C27.2643 33.5369 27.2643 33.5369 27.1802 32.9527C27.154 32.5502 27.2143 32.2208 27.4877 31.9079C27.5182 31.8759 27.549 31.8442 27.5802 31.8129C27.5935 31.7989 27.6068 31.785 27.6204 31.7706C27.9477 31.4502 28.4329 31.3674 28.8602 31.513Z" fill="white"/>
<path d="M35.0198 21.1953C35.0326 21.2009 35.0455 21.2064 35.0587 21.2122C35.3901 21.3617 35.6251 21.5936 35.7591 21.9344C35.8732 22.2688 35.8395 22.6753 35.6922 22.996C35.5765 23.2062 35.4198 23.3855 35.2616 23.5644C35.2095 23.6233 35.1592 23.6835 35.1098 23.7447C35.0072 23.8713 34.8998 23.9937 34.7928 24.1166C34.6548 24.2755 34.5185 24.4359 34.3826 24.5967C34.3158 24.6758 34.2485 24.7546 34.1811 24.8332C34.1711 24.8448 34.1612 24.8564 34.151 24.8683C34.0999 24.9278 34.0488 24.9872 33.9976 25.0466C33.9058 25.1532 33.8146 25.2601 33.7261 25.3694C33.6551 25.4568 33.5807 25.5404 33.5048 25.6237C33.4582 25.6761 33.4139 25.7298 33.3698 25.7843C33.2976 25.8735 33.2221 25.9588 33.1447 26.0437C33.0986 26.0956 33.0547 26.1489 33.0111 26.2029C32.9338 26.2984 32.8523 26.3889 32.7691 26.4792C32.7213 26.5325 32.676 26.5871 32.6311 26.6428C32.5579 26.7335 32.4809 26.8192 32.4015 26.9044C32.3417 26.969 32.285 27.0353 32.2298 27.104C32.1572 27.1942 32.0806 27.2794 32.0017 27.3641C31.94 27.4307 31.8818 27.4993 31.8248 27.5701C31.7546 27.6573 31.6806 27.7365 31.5998 27.8138C31.5769 27.8373 31.5769 27.8373 31.5536 27.8613C31.5269 27.8873 31.5269 27.8873 31.4998 27.9138C31.4863 27.9272 31.4729 27.9406 31.459 27.9543C31.2047 28.1966 30.9146 28.3333 30.5598 28.3337C30.1515 28.3065 29.8182 28.0977 29.4982 27.8619C29.4574 27.8321 29.4165 27.8026 29.3755 27.7731C29.1716 27.6267 28.9693 27.4782 28.7675 27.3291C28.7204 27.2944 28.6733 27.2598 28.6261 27.2253C28.4414 27.0899 28.2584 26.9525 28.0765 26.8133C27.9618 26.7257 27.8463 26.6394 27.7298 26.5541C27.5917 26.4529 27.4548 26.3504 27.3186 26.2467C27.3017 26.2338 27.2848 26.221 27.2674 26.2078C26.8678 25.9028 26.4516 25.5814 26.3598 25.0544C26.3187 24.6587 26.4143 24.3304 26.6645 24.019C26.7081 23.9692 26.7531 23.9217 26.7998 23.8747C26.8118 23.862 26.8238 23.8493 26.8362 23.8362C27.0415 23.6358 27.3256 23.556 27.6048 23.5485C28.1665 23.5581 28.5875 23.8756 29.0198 24.1946C29.0511 24.2176 29.0824 24.2406 29.1137 24.2636C29.1773 24.3103 29.2408 24.3571 29.3043 24.404C29.3672 24.4506 29.4303 24.497 29.4935 24.5432C29.683 24.6822 29.871 24.8231 30.0575 24.9661C30.1504 25.0373 30.2441 25.107 30.3398 25.1744C30.4161 25.1441 30.4524 25.0998 30.5023 25.0357C30.5657 24.956 30.6307 24.8793 30.6998 24.8045C30.7821 24.7151 30.8592 24.6227 30.9355 24.5282C30.9931 24.4585 31.0539 24.392 31.1149 24.3251C31.161 24.2732 31.2049 24.2199 31.2486 24.1659C31.3257 24.0705 31.4072 23.9801 31.4904 23.8898C31.5547 23.8181 31.615 23.7434 31.6755 23.6684C31.7189 23.6158 31.7639 23.5652 31.8098 23.5148C31.8721 23.4464 31.9316 23.3767 31.9898 23.3048C32.062 23.2156 32.1375 23.1303 32.2149 23.0454C32.261 22.9935 32.3049 22.9402 32.3486 22.8862C32.4258 22.7907 32.5073 22.7003 32.5904 22.61C32.6387 22.5562 32.6845 22.5012 32.7298 22.445C32.8066 22.3499 32.8877 22.2599 32.9705 22.17C33.0183 22.1167 33.0637 22.0621 33.1086 22.0064C33.1913 21.9039 33.279 21.8073 33.3686 21.7109C33.411 21.6648 33.4519 21.618 33.4923 21.5702C33.8837 21.1246 34.4671 20.9551 35.0198 21.1953Z" fill="white"/>
<path d="M34.4391 41.2877C34.8234 41.2699 35.1872 41.4467 35.4693 41.6938C35.6902 41.9023 35.8039 42.1684 35.8241 42.4715C35.8315 42.9879 35.6427 43.3367 35.3084 43.7175C35.2683 43.7638 35.2298 43.8113 35.1913 43.859C35.0882 43.9858 34.9806 44.1087 34.8732 44.2319C34.7491 44.3748 34.6255 44.518 34.5063 44.665C34.4352 44.7526 34.3607 44.8363 34.2847 44.9197C34.24 44.97 34.1974 45.0214 34.155 45.0737C34.0507 45.2024 33.9418 45.327 33.833 45.4519C33.7813 45.5114 33.73 45.5712 33.6788 45.6311C33.669 45.6425 33.6592 45.654 33.649 45.6658C33.6293 45.6889 33.6095 45.712 33.5897 45.7351C33.5399 45.7934 33.4899 45.8515 33.44 45.9098C33.42 45.9331 33.4 45.9564 33.38 45.9797C33.26 46.1197 33.14 46.2597 33.02 46.3996C33.0052 46.417 33.0052 46.417 32.99 46.4347C32.9701 46.4579 32.9501 46.4812 32.9302 46.5044C32.8793 46.5637 32.8286 46.623 32.7779 46.6824C32.6885 46.7871 32.599 46.8914 32.5063 46.9933C32.4461 47.0595 32.3887 47.1273 32.3325 47.197C32.2589 47.2881 32.1814 47.3743 32.1016 47.46C32.0434 47.5229 31.9884 47.5873 31.935 47.6544C31.8121 47.807 31.676 47.9482 31.54 48.0893C31.5283 48.1015 31.5166 48.1138 31.5046 48.1265C31.2759 48.3619 30.9887 48.5273 30.6559 48.5388C30.2657 48.5414 29.9209 48.3936 29.62 48.1493C29.6246 48.1371 29.6291 48.1249 29.6338 48.1124C29.6547 48.056 29.6755 47.9995 29.6963 47.943C29.7034 47.9239 29.7105 47.9048 29.7179 47.8851C29.9562 47.2357 29.9277 46.5734 29.6417 45.9427C29.604 45.8635 29.5628 45.7864 29.52 45.7098C29.5131 45.6972 29.5061 45.6846 29.499 45.6716C29.2732 45.2662 28.9545 44.9087 28.6031 44.6075C28.5524 44.5634 28.5032 44.518 28.4538 44.4726C28.2861 44.3202 28.1105 44.1815 27.9288 44.0464C27.9054 44.0289 27.9054 44.0289 27.8816 44.0111C27.7834 43.9388 27.6829 43.8743 27.5772 43.8136C27.5649 43.8059 27.5527 43.7982 27.54 43.7902C27.54 43.7836 27.54 43.777 27.54 43.7702C28.1455 43.7329 28.6175 44.1102 29.08 44.4501C29.0955 44.4615 29.1111 44.4728 29.127 44.4846C29.2222 44.5545 29.3173 44.6246 29.4123 44.6948C29.4596 44.7297 29.507 44.7646 29.5544 44.7994C29.5859 44.8225 29.6173 44.8456 29.6488 44.8687C29.6642 44.8801 29.6797 44.8914 29.6956 44.9031C29.7801 44.9654 29.8642 45.0281 29.9479 45.0914C29.9658 45.1049 29.9837 45.1185 30.0022 45.1324C30.0364 45.1583 30.0707 45.1844 30.1048 45.2104C30.1936 45.2776 30.2819 45.3371 30.38 45.3899C30.3946 45.3729 30.4091 45.3559 30.4241 45.3385C30.5097 45.2386 30.5954 45.1387 30.681 45.0389C30.6907 45.0275 30.7005 45.0161 30.7106 45.0043C30.7304 44.9812 30.7502 44.9581 30.77 44.935C30.8198 44.8769 30.8696 44.8188 30.9193 44.7607C31.0334 44.6275 31.1479 44.4947 31.2629 44.3623C31.3659 44.2435 31.4682 44.1243 31.5704 44.0049C31.6302 43.9349 31.6902 43.8651 31.7501 43.7952C31.7999 43.7371 31.8496 43.6791 31.8993 43.621C32.0134 43.4877 32.1279 43.3549 32.2429 43.2225C32.3156 43.1387 32.3879 43.0547 32.46 42.9704C32.5538 42.8608 32.6482 42.7517 32.7428 42.6428C32.8173 42.557 32.8912 42.4707 32.965 42.3843C33.0476 42.2877 33.1318 42.1929 33.2174 42.099C33.2621 42.0483 33.3042 41.996 33.3463 41.9431C33.6029 41.6289 33.9091 41.3565 34.3263 41.2945C34.3639 41.2926 34.4015 41.2907 34.4391 41.2877Z" fill="white"/>
</svg>
