<svg width="91" height="90" viewBox="0 0 91 90" fill="none" xmlns="http://www.w3.org/2000/svg">
<g clip-path="url(#clip0_161_481)">
<path d="M30.304 5.5472C30.349 5.54751 30.394 5.54781 30.439 5.54811C30.608 5.54923 30.777 5.55045 30.946 5.55182C30.9962 5.55222 31.0464 5.55259 31.0966 5.55294C32.0356 5.55964 32.0356 5.55964 32.4593 5.60375C32.4847 5.60635 32.5101 5.60895 32.5363 5.61163C33.7645 5.74123 34.9511 6.09092 36.05 6.65644C36.0803 6.67196 36.1106 6.68737 36.1409 6.7027C36.4141 6.8408 36.6756 6.99287 36.933 7.1584C36.9453 7.16627 36.9575 7.17413 36.9701 7.18223C37.3498 7.42756 37.7118 7.702 38.053 7.99822C38.0677 8.0109 38.0824 8.02358 38.0976 8.03665C38.1363 8.07026 38.1747 8.10414 38.213 8.13819C38.2293 8.15257 38.2455 8.16695 38.2623 8.18177C38.3504 8.2604 38.4362 8.34022 38.5188 8.42461C38.5555 8.46054 38.5939 8.49362 38.633 8.52685C38.7012 8.58559 38.7593 8.6488 38.8174 8.71736C38.8543 8.75952 38.8931 8.79876 38.933 8.83803C39.0106 8.91473 39.0822 8.99501 39.153 9.07798C39.1686 9.09574 39.1841 9.1135 39.2001 9.13179C39.3686 9.32561 39.5211 9.53102 39.673 9.73783C39.6827 9.75096 39.6924 9.7641 39.7024 9.77763C40.6591 11.0802 41.2485 12.5969 41.478 14.1906C41.4811 14.2112 41.4841 14.2317 41.4872 14.2529C41.5531 14.7415 41.562 15.2359 41.5732 15.7281C41.5746 15.7899 41.5762 15.8516 41.5778 15.9133C41.5832 16.1259 41.5876 16.3385 41.5918 16.5511C41.5926 16.594 41.5935 16.6369 41.5943 16.6798C41.6161 17.7689 41.6163 18.858 41.617 19.9473C41.6172 20.2599 41.6176 20.5724 41.618 20.885C41.6182 21.0115 41.6184 21.138 41.6185 21.2645C41.6186 21.2855 41.6186 21.2855 41.6186 21.307C41.619 21.6378 41.6194 21.9686 41.6198 22.2994C41.6198 22.3138 41.6198 22.3282 41.6199 22.3431C41.6202 22.6804 41.6206 23.0177 41.6208 23.3549C41.6208 23.3695 41.6208 23.3841 41.6208 23.3992C41.6209 23.517 41.621 23.6348 41.6211 23.7526C41.6214 24.2389 41.622 24.7251 41.6228 25.2113C41.6229 25.2799 41.623 25.3486 41.6231 25.4172C41.6231 25.4374 41.6231 25.4374 41.6231 25.4581C41.6235 25.661 41.6236 25.864 41.6236 26.0669C41.6236 26.2971 41.6239 26.5272 41.6243 26.7573C41.6246 26.8745 41.6247 26.9917 41.6246 27.1089C41.6245 27.2163 41.6247 27.3237 41.6251 27.4311C41.6252 27.4698 41.6251 27.5084 41.625 27.5471C41.6235 28.0892 41.769 28.5649 42.113 28.9936C42.834 29.8949 43.3454 30.9393 43.3393 32.1141C43.3392 32.1293 43.3392 32.1445 43.3392 32.1602C43.3332 33.4749 42.7591 34.7306 41.8359 35.6542C40.6385 36.8257 38.9493 36.897 37.3743 36.8932C37.2791 36.893 37.1839 36.8929 37.0887 36.8928C36.9035 36.8926 36.7183 36.8922 36.533 36.8918C36.5047 37.0099 36.4765 37.1279 36.4482 37.246C36.433 37.3094 36.4178 37.3728 36.4026 37.4362C36.3574 37.6247 36.3123 37.8132 36.2691 38.0023C35.9247 39.5072 35.328 40.9396 34.413 42.1906C34.4033 42.204 34.3936 42.2173 34.3835 42.231C34.2332 42.4361 34.0757 42.635 33.913 42.8305C33.8982 42.8483 33.8982 42.8483 33.8831 42.8665C33.6537 43.1411 33.4067 43.3982 33.1543 43.6515C33.1368 43.6691 33.1193 43.6868 33.1012 43.7049C33.0017 43.8042 32.8997 43.8987 32.793 43.9902C32.7609 44.0193 32.7288 44.0484 32.6968 44.0777C32.5918 44.1723 32.4831 44.2616 32.373 44.3501C32.3504 44.3686 32.3277 44.3872 32.3051 44.4057C32.0807 44.5883 31.8475 44.7579 31.609 44.9216C31.2281 45.183 31.2281 45.183 30.953 45.5499C30.9456 45.5627 30.9382 45.5755 30.9306 45.5888C30.8865 45.6919 30.8892 45.8059 30.8871 45.9164C30.8867 45.9336 30.8863 45.9509 30.8859 45.9686C30.8847 46.0285 30.8836 46.0883 30.8825 46.1482C30.8821 46.1698 30.8817 46.1914 30.8813 46.2137C30.8664 47.0242 30.8662 47.835 30.8627 48.6456C30.8617 48.8799 30.8606 49.1141 30.8595 49.3484C30.8573 49.8285 30.8551 50.3086 30.853 50.7887C30.938 50.795 31.0229 50.8014 31.1078 50.8077C31.1434 50.8103 31.1434 50.8103 31.1797 50.813C31.3918 50.8288 31.6039 50.8431 31.8162 50.8562C31.8556 50.8587 31.8949 50.8612 31.9342 50.8637C32.5196 50.9017 33.1053 50.9133 33.6918 50.9136C33.7256 50.9137 33.7593 50.9137 33.7931 50.9137C34.5278 50.9147 35.262 50.8981 35.9965 50.8808C39.0145 50.8096 39.0145 50.8096 40.313 50.8887C40.3338 50.8899 40.3545 50.8912 40.3759 50.8925C41.6841 50.9737 42.9972 51.1437 44.2591 51.5086C44.3299 51.5311 44.3299 51.5311 44.393 51.5285C44.4303 51.4848 44.4636 51.4415 44.4968 51.3948C44.5184 51.3653 44.5399 51.3358 44.5616 51.3062C44.5731 51.2904 44.5846 51.2746 44.5965 51.2582C44.66 51.172 44.7254 51.0873 44.7905 51.0024C44.8927 50.8688 44.9936 50.7344 45.093 50.5987C45.2569 50.3753 45.4254 50.1555 45.5939 49.9356C45.7468 49.7357 45.8986 49.5352 46.0473 49.3323C46.1474 49.196 46.2497 49.0615 46.3524 48.9272C46.4433 48.8084 46.5334 48.689 46.623 48.5692C46.726 48.4315 46.8298 48.2946 46.9343 48.158C47.0361 48.0249 47.1366 47.8909 47.2355 47.7556C47.3373 47.6166 47.4418 47.4802 47.5481 47.3447C47.6429 47.2235 47.7343 47.1001 47.8251 46.976C47.9272 46.8369 48.0315 46.6996 48.1363 46.5626C48.2471 46.4176 48.3569 46.2718 48.4661 46.1257C48.4932 46.0895 48.5205 46.0534 48.5478 46.0174C48.5563 46.0062 48.5648 45.9949 48.5736 45.9833C48.5964 45.9532 48.6193 45.9231 48.6421 45.893C48.675 45.8559 48.675 45.8559 48.673 45.8298C48.6423 45.8229 48.6423 45.8229 48.6109 45.8158C47.3012 45.5198 47.3012 45.5198 46.793 45.13C46.7799 45.1205 46.7667 45.1109 46.7531 45.1011C46.3587 44.7961 46.191 44.2377 46.127 43.766C46.079 43.3819 46.0701 42.998 46.0706 42.6114C46.0706 42.5657 46.0705 42.52 46.0705 42.4743C46.0704 42.3491 46.0705 42.2239 46.0706 42.0986C46.0707 41.9764 46.0706 41.8541 46.0706 41.7318C46.0705 41.4788 46.0706 41.2259 46.0707 40.9729C46.0707 40.7167 46.0708 40.4605 46.0708 40.2043C46.0708 40.18 46.0708 40.18 46.0708 40.1552C46.0708 40.0726 46.0708 39.9899 46.0708 39.9073C46.0707 39.3097 46.0708 38.7122 46.0709 38.1147C46.071 37.523 46.0711 36.9314 46.0711 36.3398C46.0711 36.3214 46.0711 36.303 46.0711 36.2841C46.0712 36.1162 46.0712 35.9483 46.0712 35.7803C46.0712 35.363 46.0712 34.9456 46.0712 34.5282C46.0712 34.5092 46.0712 34.4902 46.0712 34.4706C46.0713 33.5464 46.0714 32.6223 46.0715 31.6981C46.0716 31.3775 46.0716 31.0569 46.0717 30.7362C46.0717 30.7164 46.0717 30.6965 46.0717 30.676C46.0718 29.7512 46.0719 28.8265 46.0719 27.9018C46.0719 27.8417 46.0719 27.7817 46.072 27.7216C46.072 27.3237 46.072 26.9257 46.072 26.5278C46.0721 25.736 46.0721 24.9442 46.0722 24.1524C46.0722 24.1147 46.0722 24.077 46.0722 24.0393C46.0723 22.3423 46.0725 20.6452 46.0727 18.9482C46.0727 18.9323 46.0727 18.9164 46.0727 18.9001C46.0728 18.1055 46.0729 17.3109 46.073 16.5163C46.0594 16.515 46.0457 16.5137 46.0317 16.5124C46.0047 16.5097 46.0047 16.5097 45.9773 16.507C45.9595 16.5053 45.9417 16.5036 45.9234 16.5018C45.2304 16.4263 44.3954 16.1763 43.9311 15.6276C43.5268 15.0848 43.4746 14.3777 43.466 13.7244C43.4655 13.6924 43.4651 13.6604 43.4646 13.6284C43.4636 13.5615 43.4627 13.4945 43.4619 13.4275C43.461 13.3605 43.4601 13.2935 43.459 13.2265C43.4532 12.8649 43.4512 12.5039 43.4611 12.1424C43.4615 12.1275 43.4619 12.1126 43.4623 12.0972C43.481 11.4077 43.6439 10.7467 44.1517 10.2498C44.7528 9.68316 45.5393 9.62815 46.3225 9.63026C46.4109 9.63043 46.4993 9.63025 46.5877 9.63011C46.7429 9.62992 46.8981 9.62996 47.0532 9.63014C47.2856 9.6304 47.5179 9.63032 47.7502 9.63017C48.1462 9.62993 48.5423 9.62997 48.9383 9.63016C49.3395 9.63036 49.7407 9.63043 50.142 9.63034C50.1673 9.63033 50.1927 9.63033 50.2188 9.63032C50.3221 9.6303 50.4254 9.63027 50.5287 9.63024C50.8198 9.63017 51.1109 9.63012 51.402 9.63008C51.4154 9.63008 51.4287 9.63008 51.4425 9.63007C52.0995 9.62999 52.7566 9.63013 53.4137 9.63029C53.645 9.63034 53.8762 9.6304 54.1075 9.63045C54.1219 9.63046 54.1362 9.63046 54.1511 9.63046C54.8176 9.63062 55.4841 9.63063 56.1507 9.63061C56.2089 9.6306 56.267 9.6306 56.3252 9.6306C56.5737 9.63059 56.8222 9.63059 57.0706 9.63058C57.7245 9.63055 58.3784 9.63055 59.0323 9.63056C59.0472 9.63056 59.0621 9.63056 59.0774 9.63056C60.0414 9.63058 61.0053 9.63068 61.9692 9.63085C61.9846 9.63086 61.9999 9.63086 62.0158 9.63086C62.5311 9.63095 63.0465 9.63105 63.5618 9.63115C64.033 9.63124 64.5042 9.63132 64.9755 9.6314C64.991 9.63141 65.0066 9.63141 65.0227 9.63141C66.5021 9.63166 67.9815 9.63163 69.4609 9.63154C69.5392 9.63154 69.6175 9.63154 69.6958 9.63153C69.719 9.63153 69.719 9.63153 69.7428 9.63153C69.774 9.63153 69.8054 9.63152 69.8366 9.63152C69.8679 9.63152 69.8992 9.63152 69.9305 9.63152C70.2735 9.6315 70.6166 9.63148 70.9596 9.63146C71.0062 9.63146 71.0528 9.63146 71.0994 9.63146C72.0472 9.63141 72.995 9.63141 73.9428 9.63147C73.9651 9.63147 73.9651 9.63147 73.9879 9.63147C74.6708 9.63152 75.3537 9.63158 76.0366 9.63165C76.1098 9.63165 76.183 9.63166 76.2562 9.63167C76.2779 9.63167 76.2779 9.63167 76.3 9.63167C76.373 9.63168 76.446 9.63169 76.519 9.6317C76.5482 9.6317 76.5773 9.6317 76.6065 9.63171C76.6209 9.63171 76.6353 9.63171 76.6501 9.63171C76.7374 9.63172 76.8246 9.63173 76.9118 9.63174C77.5638 9.63181 78.2158 9.63185 78.8679 9.63182C78.8822 9.63182 78.8966 9.63182 78.9114 9.63182C79.0705 9.63181 79.2296 9.63181 79.3887 9.6318C79.4463 9.6318 79.5039 9.63179 79.5615 9.63179C79.5757 9.63179 79.5899 9.63179 79.6045 9.63179C80.2607 9.63176 80.9169 9.63176 81.5731 9.6319C81.5864 9.6319 81.5997 9.6319 81.6134 9.63191C81.9172 9.63197 82.2209 9.63205 82.5246 9.63214C82.6276 9.63217 82.7306 9.6322 82.8336 9.63223C82.8589 9.63224 82.8842 9.63225 82.9102 9.63225C83.3103 9.63237 83.7104 9.63234 84.1105 9.63226C84.504 9.63219 84.8975 9.63226 85.291 9.63248C85.5216 9.63261 85.7523 9.63262 85.9829 9.63248C86.1362 9.6324 86.2896 9.63246 86.4429 9.63263C86.5297 9.63273 86.6165 9.63277 86.7033 9.63262C87.5775 9.63129 88.5633 9.63452 89.2435 10.2672C89.8425 10.8783 89.8761 11.8329 89.8764 12.6373C89.8765 12.6752 89.8765 12.713 89.8766 12.7509C89.8767 12.8299 89.8768 12.9089 89.8767 12.9879C89.8767 13.0679 89.8769 13.148 89.8772 13.228C89.8836 15.1523 89.8836 15.1523 89.2836 15.7667C89.0973 15.9482 88.8898 16.0717 88.653 16.1764C88.6331 16.1856 88.6131 16.1948 88.5926 16.2042C88.1929 16.3735 87.6862 16.4795 87.253 16.4763C87.2531 16.5114 87.2531 16.5114 87.2531 16.5471C87.2534 17.3464 87.2537 18.1458 87.254 18.9452C87.254 18.9613 87.254 18.9774 87.254 18.994C87.2547 20.7199 87.2552 22.4458 87.2556 24.1717C87.2556 24.2101 87.2556 24.2484 87.2556 24.2868C87.2558 25.0917 87.2559 25.8966 87.2561 26.7016C87.2562 27.1059 87.2562 27.5103 87.2563 27.9146C87.2563 27.9756 87.2563 28.0366 87.2564 28.0976C87.2565 29.0366 87.2568 29.9756 87.2572 30.9146C87.2572 30.9348 87.2572 30.955 87.2572 30.9758C87.2573 31.3012 87.2575 31.6266 87.2576 31.952C87.258 32.8895 87.2583 33.8269 87.2585 34.7644C87.2585 34.7837 87.2585 34.803 87.2585 34.8228C87.2586 35.2463 87.2586 35.6697 87.2587 36.0932C87.2587 36.2636 87.2587 36.434 87.2587 36.6043C87.2587 36.623 87.2587 36.6416 87.2587 36.6609C87.2588 37.2613 87.2591 37.8617 87.2594 38.462C87.2598 39.0671 87.2599 39.6721 87.2599 40.2771C87.2598 40.3608 87.2598 40.4445 87.2598 40.5282C87.2598 40.5447 87.2598 40.5611 87.2598 40.578C87.2598 40.8373 87.26 41.0966 87.2602 41.3558C87.2605 41.6111 87.2605 41.8664 87.2604 42.1217C87.2603 42.2581 87.2603 42.3945 87.2605 42.531C87.2608 42.6553 87.2607 42.7796 87.2605 42.904C87.2604 42.9484 87.2605 42.9929 87.2607 43.0374C87.2631 43.72 87.1665 44.449 86.713 44.99C86.7005 45.0064 86.688 45.0227 86.6751 45.0396C86.2953 45.4948 85.6365 45.6506 85.073 45.7098C84.8741 45.7263 84.6768 45.7327 84.4772 45.7323C84.4486 45.7323 84.4199 45.7323 84.3913 45.7324C84.3132 45.7324 84.2352 45.7324 84.1571 45.7323C84.0719 45.7322 83.9867 45.7323 83.9016 45.7323C83.7525 45.7323 83.6035 45.7323 83.4544 45.7322C83.2327 45.7321 83.0111 45.7321 82.7895 45.7321C82.4166 45.7321 82.0437 45.7321 81.6708 45.7319C81.3017 45.7318 80.9325 45.7318 80.5634 45.7317C80.5404 45.7317 80.5175 45.7317 80.4938 45.7317C80.3772 45.7317 80.2606 45.7317 80.1439 45.7317C79.3182 45.7317 78.4924 45.7315 77.6667 45.7313C76.8645 45.7312 76.0624 45.731 75.2603 45.7309C75.2356 45.7309 75.2108 45.7309 75.1854 45.7309C74.937 45.7309 74.6886 45.7309 74.4402 45.7308C73.9343 45.7308 73.4283 45.7307 72.9224 45.7307C72.8875 45.7307 72.8875 45.7307 72.8519 45.7307C71.299 45.7305 69.746 45.7302 68.193 45.7298C68.1931 45.7472 68.1933 45.7645 68.1934 45.7823C68.1937 45.8473 68.1939 45.9122 68.1941 45.9772C68.1942 46.0052 68.1944 46.0332 68.1945 46.0611C68.1956 46.2302 68.1894 46.3914 68.1623 46.5584C68.1149 46.924 68.1645 47.234 68.3865 47.5347C68.5404 47.7228 68.7512 47.8471 68.9593 47.9668C69.8735 48.4934 70.5396 49.3287 70.8265 50.3472C70.9712 50.8935 71.0043 51.4479 70.933 52.0084C70.9309 52.0256 70.9287 52.0428 70.9264 52.0605C70.7874 53.0724 70.2091 54.0667 69.3994 54.6897C69.2679 54.7884 69.1324 54.8805 68.993 54.9678C68.981 54.9753 68.9691 54.9829 68.9567 54.9907C68.379 55.3503 67.6891 55.5233 67.013 55.5476C66.992 55.5485 66.9709 55.5493 66.9492 55.5501C66.2692 55.5632 65.5464 55.422 64.9495 55.088C64.9113 55.0668 64.8727 55.0465 64.8339 55.0262C63.9064 54.5332 63.2376 53.6505 62.9251 52.6584C62.8909 52.5444 62.8626 52.4295 62.8368 52.3134C62.8329 52.2959 62.829 52.2785 62.825 52.2605C62.7658 51.9774 62.7453 51.6946 62.7468 51.4061C62.7468 51.391 62.7469 51.3758 62.7469 51.3603C62.7506 50.4527 63.0306 49.5599 63.633 48.8691C63.6415 48.8593 63.65 48.8495 63.6587 48.8394C63.7851 48.6938 63.9188 48.5657 64.073 48.4492C64.094 48.4332 64.1149 48.4172 64.1365 48.4007C64.2785 48.2946 64.426 48.2071 64.5819 48.123C64.716 48.0499 64.8346 47.9661 64.953 47.8694C64.9747 47.8526 64.9747 47.8526 64.9969 47.8355C65.302 47.5883 65.4655 47.212 65.513 46.8296C65.5168 46.7434 65.5168 46.6572 65.5167 46.5709C65.5168 46.5309 65.5172 46.4908 65.5175 46.4508C65.5182 46.2822 65.5081 46.1163 65.4928 45.9485C65.4909 45.9274 65.489 45.9063 65.487 45.8845C65.4824 45.833 65.4778 45.7814 65.473 45.7298C64.3611 45.7314 63.2492 45.733 62.1373 45.7347C62.1208 45.7347 62.1042 45.7348 62.0872 45.7348C61.7281 45.7353 61.3689 45.7359 61.0098 45.7365C60.8336 45.7367 60.6574 45.737 60.4812 45.7373C60.4637 45.7373 60.4462 45.7373 60.4281 45.7374C59.8622 45.7382 59.2963 45.7391 58.7305 45.7398C58.1478 45.7407 57.5652 45.7415 56.9826 45.7425C56.8998 45.7426 56.8171 45.7428 56.7344 45.7429C56.71 45.7429 56.71 45.7429 56.6851 45.743C56.4255 45.7434 56.1658 45.7437 55.9062 45.7441C55.6437 45.7444 55.3813 45.7448 55.1188 45.7453C54.9772 45.7455 54.8356 45.7458 54.694 45.7459C54.371 45.7462 54.0481 45.7472 53.7252 45.7493C53.6763 45.7497 53.6274 45.75 53.5786 45.7503C53.431 45.7511 53.2834 45.7524 53.1358 45.7543C53.0904 45.7548 53.045 45.7552 52.9996 45.7555C52.6897 45.7575 52.4068 45.7768 52.1268 45.9235C52.1135 45.9304 52.1001 45.9373 52.0864 45.9444C51.8705 46.0607 51.7289 46.2371 51.5835 46.4295C51.5399 46.4869 51.4955 46.5436 51.4511 46.6004C51.3145 46.7751 51.1797 46.9511 51.0452 47.1273C50.9912 47.1981 50.9371 47.2688 50.883 47.3395C50.8613 47.3679 50.8396 47.3963 50.8178 47.4248C50.7753 47.4804 50.7327 47.536 50.6902 47.5916C50.545 47.7812 50.4002 47.9711 50.2555 48.1611C50.2003 48.2334 50.1452 48.3058 50.09 48.3781C49.9609 48.5472 49.8321 48.7166 49.7047 48.887C49.6064 49.0184 49.5068 49.1487 49.4073 49.2791C49.325 49.387 49.2432 49.4952 49.162 49.6039C49.1088 49.6749 49.0548 49.7453 49.0009 49.8158C48.8719 49.9845 48.7444 50.1542 48.6188 50.3255C48.5184 50.4623 48.4155 50.5972 48.3123 50.732C48.2246 50.8467 48.1383 50.9622 48.053 51.0786C47.8892 51.3021 47.7207 51.5218 47.5522 51.7418C47.3994 51.9415 47.2477 52.1419 47.0991 52.3447C47.0093 52.467 46.9177 52.5878 46.8255 52.7083C46.812 52.7261 46.7985 52.7438 46.7846 52.7621C46.7291 52.8352 46.6735 52.908 46.6159 52.9794C46.6009 52.9984 46.5859 53.0174 46.5705 53.037C46.5581 53.0522 46.5457 53.0674 46.5329 53.0831C46.5075 53.1291 46.5075 53.1291 46.5245 53.1857C46.5556 53.2538 46.591 53.3168 46.6318 53.3794C46.6397 53.3915 46.6476 53.4037 46.6557 53.4163C46.7197 53.5128 46.7913 53.6003 46.8672 53.6877C47.1889 54.059 47.4557 54.4789 47.693 54.9078C47.7056 54.9301 47.7056 54.9301 47.7183 54.9529C48.4062 56.1848 48.6573 57.6016 48.6556 58.9987C48.6556 59.0388 48.6557 59.0788 48.6557 59.1189C48.6558 59.2282 48.6558 59.3376 48.6557 59.4469C48.6557 59.5662 48.6558 59.6854 48.6559 59.8046C48.656 60.0134 48.656 60.2221 48.656 60.4309C48.6559 60.6547 48.656 60.8786 48.656 61.1024C48.656 61.1166 48.656 61.1307 48.656 61.1453C48.6561 61.2031 48.6561 61.2608 48.6561 61.3185C48.6563 61.9198 48.6564 62.5211 48.6564 63.1223C48.6564 63.187 48.6564 63.2516 48.6564 63.3163C48.6564 63.3323 48.6564 63.3484 48.6564 63.3649C48.6564 63.7209 48.6564 64.0769 48.6565 64.4328C48.6565 64.5796 48.6565 64.7263 48.6566 64.873C48.6566 64.8973 48.6566 64.8973 48.6566 64.9221C48.6567 65.8507 48.6568 66.7792 48.6568 67.7078C48.6568 67.7425 48.6568 67.7772 48.6568 67.812C48.6568 67.9687 48.6568 68.1255 48.6568 68.2823C48.6567 68.3522 48.6567 68.4221 48.6567 68.492C48.6567 68.527 48.6567 68.562 48.6567 68.597C48.6567 69.7035 48.6569 70.81 48.6572 71.9164C48.6572 72.1953 48.6573 72.4741 48.6574 72.7529C48.6574 72.7787 48.6574 72.7787 48.6574 72.805C48.6575 73.3344 48.6576 73.8637 48.6576 74.3931C48.6576 74.4098 48.6576 74.4264 48.6576 74.4435C48.6576 74.8085 48.6576 75.1736 48.6576 75.5386C48.6576 75.6692 48.6576 75.7998 48.6576 75.9304C48.6576 75.9629 48.6576 75.9954 48.6576 76.0279C48.6576 76.545 48.6577 77.0622 48.6579 77.5793C48.6581 78.1003 48.6581 78.6213 48.658 79.1422C48.658 79.2143 48.658 79.2864 48.6579 79.3585C48.6579 79.3797 48.6579 79.3797 48.6579 79.4013C48.6579 79.6245 48.658 79.8476 48.6581 80.0707C48.6582 80.2905 48.6582 80.5103 48.6581 80.73C48.658 80.8474 48.658 80.9648 48.6581 81.0823C48.6583 81.1893 48.6583 81.2964 48.6581 81.4034C48.658 81.4417 48.6581 81.4799 48.6582 81.5182C48.6587 81.7214 48.6524 81.9227 48.6355 82.1253C48.6339 82.1439 48.6324 82.1625 48.6309 82.1817C48.6006 82.5127 48.5096 82.8896 48.253 83.1215C47.7495 83.5307 47.0432 83.4876 46.4306 83.4866C46.3751 83.4866 46.3195 83.4867 46.264 83.4868C46.1437 83.487 46.0234 83.487 45.9031 83.487C45.723 83.4868 45.5428 83.487 45.3627 83.4871C45.0556 83.4874 44.7485 83.4875 44.4414 83.4875C44.1304 83.4875 43.8193 83.4875 43.5083 83.4877C43.4788 83.4877 43.4788 83.4877 43.4487 83.4878C43.3483 83.4878 43.2479 83.4879 43.1475 83.4879C42.4217 83.4884 41.6958 83.4886 40.97 83.4888C40.2506 83.4889 39.5313 83.4891 38.8119 83.4895C38.7783 83.4895 38.7783 83.4895 38.7441 83.4895C38.5169 83.4896 38.2897 83.4898 38.0625 83.4899C37.5772 83.4901 37.0919 83.4903 36.6066 83.4906C36.5835 83.4906 36.5603 83.4906 36.5365 83.4906C35.4356 83.4911 34.3346 83.4915 33.2337 83.4919C33.1363 83.4919 33.0389 83.4919 32.9415 83.492C32.8684 83.492 32.7953 83.492 32.7222 83.492C32.5025 83.4921 32.2828 83.4922 32.0631 83.4923C32.0142 83.4923 31.9653 83.4923 31.9164 83.4923C30.7932 83.4927 29.6701 83.4931 28.5469 83.4936C28.4741 83.4936 28.4012 83.4936 28.3284 83.4936C27.2297 83.4941 26.1311 83.4945 25.0325 83.495C24.9858 83.495 24.9391 83.4951 24.8924 83.4951C24.4763 83.4953 24.0602 83.4955 23.6441 83.4957C23.3711 83.4958 23.0982 83.4959 22.8252 83.496C22.7916 83.4961 22.7916 83.4961 22.7574 83.4961C22.0168 83.4964 21.2762 83.4967 20.5356 83.4969C20.0601 83.497 19.5847 83.4971 19.1092 83.4973C19.0885 83.4974 19.0678 83.4974 19.0464 83.4974C18.8405 83.4975 18.6346 83.4976 18.4287 83.4976C18.3282 83.4977 18.2277 83.4977 18.1271 83.4978C18.1074 83.4978 18.0877 83.4978 18.0674 83.4978C17.7578 83.4979 17.4481 83.498 17.1385 83.498C16.8326 83.4981 16.5268 83.4982 16.2209 83.4984C16.0579 83.4985 15.8948 83.4986 15.7318 83.4985C15.1497 83.4985 14.5676 83.4991 13.9856 83.5069C13.9363 83.5075 13.8869 83.5081 13.8375 83.5085C13.4885 83.5119 13.1568 83.5366 12.8205 83.6364C12.8031 83.6415 12.7856 83.6466 12.7676 83.6519C12.4528 83.747 12.1705 83.9021 11.8866 84.0655C11.1078 84.5132 10.2916 84.8623 9.41304 85.0611C9.3848 85.0676 9.3848 85.0676 9.35598 85.0742C8.88043 85.182 8.38128 85.2533 7.89304 85.261C7.86998 85.2615 7.84691 85.2619 7.82314 85.2623C6.12219 85.2878 4.46929 84.8326 3.15304 83.7214C3.13222 83.7043 3.11139 83.6872 3.09054 83.6701C2.82384 83.4493 2.56483 83.2054 2.35203 82.9316C2.30917 82.8766 2.26369 82.8243 2.21804 82.7716C1.91918 82.4127 1.67047 82 1.47054 81.5786C1.45402 81.5439 1.43698 81.5095 1.41992 81.4751C1.36266 81.3572 1.31123 81.2387 1.26453 81.1162C1.25563 81.0929 1.24673 81.0697 1.23756 81.0457C1.22042 81.0005 1.20354 80.9552 1.187 80.9098C1.14318 80.794 1.1015 80.6916 1.03064 80.5899C0.76738 80.1924 0.795876 79.7758 0.799518 79.3155C0.800164 79.1971 0.799292 79.0786 0.798622 78.9602C0.797656 78.7529 0.797639 78.5457 0.798282 78.3385C0.798968 78.1164 0.799082 77.8943 0.798514 77.6722C0.798479 77.6581 0.798441 77.644 0.798404 77.6295C0.798258 77.5721 0.798109 77.5148 0.797953 77.4574C0.796506 76.9244 0.796335 76.3913 0.796996 75.8582C0.797015 75.8425 0.797034 75.8267 0.797054 75.8105C0.797074 75.7947 0.797093 75.7789 0.797113 75.7626C0.79771 75.2809 0.797827 74.7991 0.797472 74.3173C0.797449 74.285 0.797426 74.2527 0.797404 74.2204C0.797311 74.0905 0.797217 73.9607 0.79712 73.8308C0.796851 73.4679 0.796671 73.105 0.796564 72.742C0.796559 72.7255 0.796554 72.709 0.796549 72.6919C0.7964 72.1657 0.796654 71.6394 0.797181 71.1131C0.797198 71.096 0.797215 71.0789 0.797233 71.0614C0.79751 70.7843 0.797807 70.5073 0.798104 70.2303C0.799283 69.1318 0.799083 68.0334 0.797638 66.9349C0.797275 66.6581 0.796915 66.3813 0.796576 66.1045C0.796555 66.0874 0.796534 66.0704 0.796512 66.0528C0.79587 65.5271 0.795577 65.0014 0.795655 64.4757C0.795658 64.4592 0.79566 64.4426 0.795663 64.4256C0.795721 64.063 0.795868 63.7005 0.796095 63.3379C0.796176 63.2081 0.79625 63.0784 0.796324 62.9487C0.796343 62.9164 0.796364 62.8841 0.796383 62.8518C0.796691 62.3385 0.796237 61.8251 0.795416 61.3118C0.794575 60.7801 0.794791 60.2485 0.79619 59.7168C0.796337 59.6596 0.796479 59.6024 0.796617 59.5452C0.796652 59.5312 0.796687 59.5171 0.796722 59.5027C0.797241 59.2813 0.796828 59.0599 0.796019 58.8385C0.795242 58.6203 0.795504 58.4021 0.796766 58.1838C0.797412 58.0673 0.797633 57.9508 0.7966 57.8343C0.792496 57.3356 0.808211 56.9562 1.07899 56.5283C1.14144 56.4167 1.17794 56.2965 1.21679 56.175C1.22522 56.1493 1.23367 56.1236 1.24215 56.098C1.24961 56.0754 1.25707 56.0528 1.26476 56.0295C1.44981 55.4741 1.7201 54.9416 2.03304 54.4479C2.04648 54.4266 2.05991 54.4053 2.07375 54.3833C2.25981 54.097 2.46782 53.8246 2.69304 53.5681C2.7057 53.5534 2.71836 53.5388 2.7314 53.5237C2.76502 53.485 2.799 53.4465 2.83304 53.4081C2.84534 53.394 2.85764 53.3798 2.87031 53.3652C2.96788 53.2545 3.07011 53.149 3.17429 53.0445C3.1875 53.0312 3.20072 53.0179 3.21433 53.0042C3.30396 52.9148 3.39671 52.8303 3.49304 52.7483C3.5058 52.7374 3.51856 52.7265 3.5317 52.7153C3.96534 52.3479 4.43099 52.0347 4.93304 51.7685C4.94604 51.7616 4.95903 51.7547 4.97242 51.7476C5.06492 51.699 5.15854 51.6531 5.25304 51.6085C5.26891 51.601 5.28478 51.5935 5.30113 51.5857C6.26426 51.1351 7.30446 50.9391 8.36316 50.9134C8.39414 50.9126 8.42511 50.9119 8.45609 50.9111C8.4721 50.9107 8.48812 50.9103 8.50462 50.9099C8.55148 50.9087 8.59834 50.9074 8.64519 50.9061C9.57744 50.8805 10.5101 50.8861 11.4426 50.8866C11.6911 50.8868 11.9396 50.8868 12.1881 50.8868C12.6309 50.8869 13.0738 50.887 13.5167 50.8872C13.9461 50.8874 14.3755 50.8875 14.805 50.8876C14.8183 50.8876 14.8316 50.8876 14.8453 50.8876C14.9923 50.8876 15.1392 50.8876 15.2862 50.8877C16.3885 50.8879 17.4908 50.8882 18.593 50.8887C18.5919 50.216 18.5904 49.5434 18.5885 48.8707C18.5882 48.7913 18.588 48.7119 18.5878 48.6325C18.5877 48.6167 18.5877 48.6009 18.5877 48.5846C18.587 48.3286 18.5865 48.0726 18.586 47.8166C18.5856 47.5539 18.5849 47.2913 18.5841 47.0286C18.5835 46.8665 18.5832 46.7044 18.5831 46.5424C18.5829 46.4181 18.5825 46.2938 18.582 46.1695C18.5818 46.1185 18.5817 46.0675 18.5817 46.0165C18.5818 45.947 18.5814 45.8774 18.581 45.8079C18.5811 45.7876 18.5812 45.7674 18.5813 45.7466C18.5793 45.5478 18.5084 45.4152 18.373 45.2699C18.3169 45.2228 18.2574 45.1831 18.1955 45.1437C18.1617 45.1213 18.1278 45.0989 18.094 45.0765C18.0771 45.0654 18.0601 45.0543 18.0427 45.0428C17.9677 44.9932 17.894 44.9419 17.8205 44.89C17.8068 44.8803 17.793 44.8706 17.7789 44.8606C17.4706 44.6414 17.1753 44.405 16.8876 44.1596C16.8525 44.1297 16.8173 44.1001 16.7819 44.0705C16.6491 43.9586 16.5232 43.8432 16.4017 43.7189C16.3614 43.6786 16.3206 43.6417 16.2768 43.6053C16.1579 43.5037 16.0551 43.3849 15.9495 43.2699C15.9144 43.2318 15.879 43.1941 15.8435 43.1564C15.714 43.0188 15.5908 42.8785 15.473 42.7305C15.4547 42.7079 15.4362 42.6854 15.4178 42.6629C14.3869 41.3976 13.672 39.8898 13.273 38.3115C13.2671 38.2882 13.2612 38.2648 13.255 38.2408C13.1756 37.9253 13.1116 37.6081 13.0543 37.288C13.0496 37.2619 13.0496 37.2619 13.0449 37.2353C13.0361 37.1859 13.0274 37.1365 13.0187 37.0871C13.0161 37.0723 13.0135 37.0575 13.0108 37.0422C13.0009 36.9845 12.993 36.9304 12.993 36.8718C12.9819 36.8718 12.9708 36.8719 12.9593 36.8719C12.6865 36.8728 12.4136 36.8735 12.1407 36.8739C12.0087 36.8741 11.8767 36.8744 11.7448 36.8748C11.617 36.8753 11.4893 36.8755 11.3616 36.8756C11.3132 36.8757 11.2649 36.8758 11.2165 36.876C10.8271 36.8777 10.4387 36.8644 10.0543 36.7968C10.025 36.7917 10.025 36.7917 9.99504 36.7866C9.23005 36.649 8.49637 36.3713 7.89304 35.872C7.8815 35.8625 7.86995 35.853 7.85805 35.8432C7.62668 35.6515 7.41933 35.4487 7.23304 35.2122C7.21745 35.1931 7.20185 35.1741 7.18578 35.1545C7.03453 34.9659 6.91283 34.7619 6.79304 34.5523C6.78482 34.5381 6.77659 34.5239 6.76811 34.5092C6.50649 34.0534 6.32585 33.5395 6.21679 33.0264C6.21289 33.0081 6.20899 32.9897 6.20497 32.9708C6.1478 32.6846 6.12529 32.4004 6.12679 32.1091C6.12684 32.0939 6.12688 32.0788 6.12692 32.0631C6.12808 31.8093 6.14186 31.5624 6.19304 31.313C6.19691 31.2942 6.20078 31.2753 6.20476 31.2559C6.38482 30.4118 6.80544 29.6249 7.38804 28.9886C7.76671 28.5729 7.83256 28.1193 7.84437 27.5758C7.8448 27.557 7.84522 27.5382 7.84566 27.5189C7.85319 27.1773 7.85433 26.8357 7.85359 26.494C7.85351 26.4567 7.85351 26.4567 7.85343 26.4187C7.85291 26.1877 7.85212 25.9568 7.85112 25.7258C7.85058 25.5976 7.85025 25.4694 7.85003 25.3412C7.84991 25.2933 7.84971 25.2453 7.84942 25.1973C7.84537 24.503 7.84537 24.503 7.93679 24.1784C7.94106 24.1628 7.94534 24.1473 7.94974 24.1312C8.04431 23.8049 8.23413 23.4991 8.53007 23.3204C8.73918 23.2104 8.93611 23.164 9.17179 23.1673C9.19292 23.1676 9.21404 23.1678 9.2358 23.168C9.55812 23.1746 9.82953 23.2758 10.0661 23.502C10.5038 23.9942 10.4995 24.6335 10.4971 25.2543C10.4968 25.3318 10.4968 25.4094 10.4968 25.4869C10.4967 25.6332 10.4963 25.7795 10.4959 25.9258C10.4954 26.1239 10.4952 26.322 10.4949 26.52C10.4946 26.8313 10.4938 27.1426 10.493 27.4539C11.3048 27.4539 12.1166 27.4539 12.953 27.4539C12.9529 27.2333 12.9528 27.0127 12.9527 26.7854C12.9524 26.0759 12.9522 25.3665 12.952 24.657C12.952 24.5465 12.952 24.4359 12.9519 24.3253C12.9519 24.3033 12.9519 24.2813 12.9519 24.2586C12.9518 23.9043 12.9517 23.55 12.9515 23.1956C12.9513 22.8309 12.9512 22.4661 12.9512 22.1014C12.9511 21.897 12.9511 21.6926 12.9509 21.4882C12.9499 20.0082 12.9499 20.0082 12.9617 19.4744C12.9621 19.4568 12.9624 19.4392 12.9628 19.4211C12.9686 19.1635 12.9819 18.9089 13.033 18.6558C13.0371 18.6358 13.0411 18.6157 13.0453 18.5951C13.1821 17.9413 13.4427 17.2991 13.893 16.7963C13.9017 16.7866 13.9103 16.7769 13.9192 16.7669C13.9828 16.6957 14.0476 16.6258 14.113 16.5563C14.1269 16.5411 14.1408 16.526 14.1551 16.5103C14.7204 15.9135 15.5554 15.5664 16.353 15.4366C16.3767 15.4325 16.4004 15.4285 16.4248 15.4244C16.8699 15.3572 17.3232 15.3494 17.7725 15.3503C17.8271 15.3504 17.8816 15.3502 17.9362 15.3499C18.4125 15.3467 18.8806 15.3771 19.348 15.4728C19.3608 15.4754 19.3736 15.4779 19.3867 15.4806C20.1551 15.6345 20.8717 15.8988 21.568 16.2546C21.8293 16.3869 22.0978 16.5032 22.366 16.6205C22.4525 16.6584 22.5388 16.6967 22.6248 16.7357C23.7317 17.2346 24.9006 17.6246 26.073 17.936C26.0999 17.9432 26.0999 17.9432 26.1272 17.9504C27.8739 18.4149 29.6673 18.6825 31.473 18.7558C31.4871 18.7564 31.5011 18.757 31.5155 18.7576C31.887 18.7728 32.2584 18.7765 32.6301 18.7751C32.683 18.7749 32.7358 18.7747 32.7887 18.7746C33.0027 18.7739 33.0027 18.7739 33.2168 18.7725C34.1258 18.7645 35.0865 18.82 35.7807 19.483C36.3673 20.0753 36.5175 20.9701 36.5154 21.7712C36.5155 21.7956 36.5155 21.82 36.5155 21.8451C36.5155 21.912 36.5155 21.9789 36.5154 22.0458C36.5153 22.1182 36.5153 22.1906 36.5153 22.2631C36.5153 22.3883 36.5153 22.5136 36.5152 22.6388C36.515 22.8199 36.5149 23.001 36.5149 23.182C36.5149 23.4759 36.5147 23.7697 36.5145 24.0636C36.5144 24.3489 36.5142 24.6341 36.5141 24.9194C36.5141 24.9459 36.5141 24.9459 36.5141 24.9728C36.5141 25.0612 36.5141 25.1495 36.514 25.2379C36.5138 25.9699 36.5135 26.7019 36.513 27.4339C37.3182 27.4339 38.1234 27.4339 38.953 27.4339C38.9533 26.6383 38.9533 26.6383 38.9536 25.8427C38.9536 25.8293 38.9536 25.8159 38.9536 25.8021C38.9537 25.3492 38.9538 24.8964 38.9539 24.4435C38.9539 24.4287 38.9539 24.4139 38.9539 24.3986C38.954 24.0766 38.954 23.7547 38.9541 23.4327C38.9541 23.2747 38.9541 23.1168 38.9541 22.9588C38.9541 22.9431 38.9541 22.9274 38.9542 22.9112C38.9542 22.4039 38.9544 21.8966 38.9546 21.3893C38.9548 20.867 38.9549 20.3447 38.9549 19.8223C38.9549 19.7482 38.9549 19.674 38.9549 19.5999C38.9549 19.578 38.9549 19.578 38.9549 19.5556C38.955 19.3229 38.9551 19.0902 38.9552 18.8574C38.9553 18.6221 38.9553 18.3868 38.9553 18.1515C38.9553 18.0246 38.9553 17.8976 38.9554 17.7707C38.9559 17.139 38.9493 16.5079 38.933 15.8765C38.9326 15.8606 38.9322 15.8447 38.9318 15.8283C38.8907 14.2154 38.5259 12.6474 37.5387 11.3318C37.5101 11.2936 37.4819 11.255 37.4537 11.2165C37.3407 11.0627 37.2234 10.9173 37.093 10.7776C37.0709 10.7523 37.0488 10.7269 37.0268 10.7014C36.7701 10.4083 36.4983 10.1405 36.193 9.8978C36.1719 9.88016 36.1508 9.86248 36.1297 9.84476C35.805 9.57465 35.4455 9.34602 35.0762 9.14187C35.0484 9.12644 35.0205 9.11088 34.9928 9.09516C33.7383 8.38418 32.3503 8.22324 30.9349 8.20708C30.9174 8.20687 30.8998 8.20666 30.8817 8.20645C29.7207 8.19277 28.5596 8.19514 27.3986 8.19558C27.1598 8.19567 26.921 8.19566 26.6821 8.19557C25.4667 8.19512 24.2511 8.1949 23.0357 8.20361C22.9435 8.20427 22.8513 8.20481 22.7591 8.20524C21.3174 8.21223 20.0282 8.48261 18.9668 9.51913C18.8684 9.61988 18.78 9.7272 18.693 9.83781C18.6774 9.85706 18.6618 9.87632 18.6458 9.89616C18.4359 10.1602 18.2678 10.4461 18.1105 10.7439C18.0103 10.9334 17.9071 11.1098 17.773 11.2775C17.7611 11.2929 17.7491 11.3082 17.7367 11.324C17.4649 11.6544 17.069 11.8216 16.653 11.8774C16.5262 11.8876 16.3988 11.8862 16.2716 11.8862C16.2352 11.8864 16.1989 11.8867 16.1625 11.887C16.0674 11.8877 15.9722 11.8881 15.877 11.8884C15.7077 11.889 15.5384 11.8899 15.3691 11.8912C15.3509 11.8913 15.3327 11.8915 15.314 11.8916C15.0057 11.8943 14.7001 11.9073 14.393 11.9373C14.3698 11.9396 14.3698 11.9396 14.3461 11.9419C14.2635 11.9503 14.1814 11.9605 14.0993 11.9723C14.0756 11.9757 14.0519 11.979 14.0276 11.9825C13.2647 12.0964 12.5422 12.3681 11.953 12.8771C11.937 12.891 11.9209 12.9049 11.9044 12.9192C11.8532 12.9644 11.803 13.0105 11.753 13.0571C11.7271 13.081 11.7271 13.081 11.7007 13.1054C10.7657 14.0009 10.5468 15.2603 10.5184 16.4968C10.5142 16.6985 10.5123 16.9002 10.5105 17.102C10.5095 17.2174 10.5082 17.3327 10.507 17.4481C10.5061 17.531 10.5054 17.6139 10.505 17.6968C10.498 18.954 10.498 18.954 10.0868 19.3732C9.79611 19.648 9.45911 19.7061 9.07234 19.7012C8.73026 19.6903 8.45149 19.5606 8.21304 19.3157C7.95316 19.0316 7.86996 18.6451 7.87014 18.2695C7.87004 18.239 7.87004 18.239 7.86994 18.2079C7.86975 18.1408 7.86971 18.0736 7.86968 18.0064C7.86962 17.959 7.86955 17.9116 7.86948 17.8642C7.86936 17.7645 7.86933 17.6648 7.86934 17.5651C7.86934 17.4643 7.8692 17.3635 7.86893 17.2627C7.86632 16.2943 7.86632 16.2943 7.89109 15.8673C7.89229 15.8465 7.89229 15.8465 7.89351 15.8254C7.99227 14.1838 8.52662 12.6338 9.65906 11.4159C9.70914 11.3617 9.75803 11.3066 9.80679 11.2512C9.87039 11.1805 9.93608 11.1167 10.0088 11.0555C10.0525 11.018 10.0945 10.979 10.1365 10.9396C10.2684 10.8163 10.4073 10.7043 10.553 10.5976C10.5662 10.588 10.5793 10.5784 10.5928 10.5685C10.7868 10.4272 10.9843 10.2962 11.193 10.1777C11.209 10.1686 11.225 10.1594 11.2415 10.1499C11.5174 9.99255 11.7984 9.85636 12.093 9.73783C12.1195 9.72717 12.1195 9.72717 12.1464 9.71629C12.9199 9.40893 13.7522 9.26766 14.5819 9.25213C15.2797 9.23899 15.827 9.10799 16.3265 8.59059C16.4242 8.48634 16.5084 8.37301 16.593 8.25816C16.869 7.90182 17.1695 7.551 17.513 7.25838C17.5341 7.23987 17.5551 7.22133 17.5762 7.20277C18.2352 6.62446 19.0015 6.19389 19.833 5.91868C19.8503 5.91294 19.8675 5.9072 19.8853 5.90128C20.5407 5.68592 21.227 5.58613 21.9153 5.56821C21.9382 5.5676 21.9382 5.5676 21.9616 5.56697C22.5236 5.55235 23.0861 5.55127 23.6483 5.54781C23.6971 5.54751 23.746 5.5472 23.7948 5.54689C25.5405 5.53568 27.2863 5.53233 30.304 5.5472ZM46.153 12.3173C46.153 12.7924 46.153 13.2674 46.153 13.7569C59.7028 13.7569 73.2526 13.7569 87.213 13.7569C87.213 13.2818 87.213 12.8067 87.213 12.3173C73.6632 12.3173 60.1134 12.3173 46.153 12.3173ZM48.753 16.4963C48.753 25.2328 48.753 33.9692 48.753 42.9704C49.4306 43.1697 50.0458 43.2344 50.693 42.9105C51.1239 42.6586 51.4527 42.2964 51.7248 41.8843C51.7351 41.8687 51.7454 41.8532 51.756 41.8371C51.7777 41.8046 51.7992 41.772 51.8208 41.7394C51.9021 41.6166 51.9837 41.494 52.0652 41.3714C52.0855 41.3409 52.1058 41.3103 52.1261 41.2798C52.2581 41.0807 52.3926 40.8842 52.533 40.691C52.5517 40.6653 52.5517 40.6653 52.5707 40.6391C52.6034 40.5942 52.6363 40.5494 52.6693 40.5047C52.687 40.4808 52.687 40.4808 52.705 40.4564C52.9162 40.171 53.1344 39.8909 53.353 39.6112C53.3678 39.5923 53.3678 39.5923 53.3829 39.573C53.4955 39.4291 53.6091 39.286 53.7234 39.1434C53.8184 39.0249 53.9122 38.9056 54.0059 38.7861C54.0606 38.7162 54.1155 38.6464 54.1704 38.5767C54.2173 38.517 54.2642 38.4572 54.3109 38.3972C54.3645 38.3284 54.4187 38.2599 54.473 38.1915C54.4851 38.1761 54.4971 38.1606 54.5095 38.1447C54.7323 37.8724 55.0666 37.6959 55.413 37.6516C55.7465 37.6191 56.0761 37.7258 56.3393 37.9303C56.3708 37.9571 56.4021 37.9841 56.433 38.0115C56.4455 38.0222 56.458 38.0328 56.4709 38.0437C56.6894 38.2429 56.8018 38.5208 56.8305 38.8101C56.8536 39.3457 56.577 39.7419 56.2656 40.1482C56.2071 40.2251 56.1502 40.3031 56.093 40.381C55.9017 40.6411 55.7074 40.8987 55.5115 41.1553C55.4219 41.2727 55.3329 41.3906 55.2445 41.5089C55.1758 41.6008 55.1063 41.6921 55.0366 41.7832C54.7948 42.0995 54.5578 42.4168 54.3397 42.75C54.3142 42.7887 54.2885 42.8272 54.2626 42.8656C54.2479 42.8874 54.2332 42.9092 54.218 42.9317C54.2054 42.9505 54.1927 42.9693 54.1796 42.9886C54.1513 43.025 54.1513 43.025 54.153 43.0504C64.1982 43.0504 74.2434 43.0504 84.593 43.0504C84.593 34.2876 84.593 25.5247 84.593 16.4963C72.7658 16.4963 60.9386 16.4963 48.753 16.4963ZM17.2544 17.9968C16.7626 18.0055 16.3273 18.0961 15.958 18.4409C15.655 18.7563 15.5895 19.1852 15.5905 19.6046C15.5905 19.6248 15.5905 19.6449 15.5904 19.6657C15.5904 19.7332 15.5904 19.8006 15.5905 19.868C15.5905 19.917 15.5904 19.9659 15.5904 20.0149C15.5903 20.1213 15.5903 20.2278 15.5904 20.3342C15.5905 20.4927 15.5904 20.6512 15.5904 20.8097C15.5903 21.0939 15.5903 21.3781 15.5903 21.6623C15.5904 21.9134 15.5904 22.1645 15.5904 22.4156C15.5904 22.4323 15.5904 22.4491 15.5904 22.4663C15.5904 22.5344 15.5903 22.6025 15.5903 22.6706C15.5903 23.3117 15.5903 23.9529 15.5904 24.594C15.5905 25.1363 15.5905 25.6787 15.5904 26.221C15.5902 27.9072 15.5899 29.5934 15.6016 34.214C15.6019 34.2768 15.6022 34.3396 15.6025 34.4024C15.6036 34.634 15.6048 34.8656 15.6062 35.0972C15.6066 35.1646 15.607 35.2319 15.6073 35.2993C15.6089 35.6225 15.6126 35.9456 15.6218 36.2687C15.6225 36.2951 15.6232 36.3215 15.6239 36.3486C15.6549 37.3391 15.9066 38.3184 16.333 39.2113C16.3468 39.2402 16.3468 39.2402 16.3609 39.2698C16.6671 39.9085 17.058 40.5179 17.5232 41.0531C17.5691 41.1063 17.6131 41.1607 17.6568 41.2158C17.9174 41.5354 18.2162 41.8464 18.533 42.1106C18.5513 42.1265 18.5696 42.1423 18.5884 42.1586C19.021 42.5323 19.4925 42.8546 19.993 43.1304C20.0076 43.1386 20.0222 43.1468 20.0372 43.1552C21.6964 44.083 23.682 44.2955 27.5753 43.9126C28.0563 43.7758 28.5201 43.6015 28.973 43.3904C28.9928 43.3812 29.0125 43.3721 29.0328 43.3627C29.8131 42.9971 30.5494 42.4937 31.1769 41.9032C31.221 41.8619 31.2657 41.8222 31.3118 41.7832C31.479 41.6385 31.6378 41.4775 31.7806 41.3088C31.8187 41.2642 31.8584 41.2214 31.898 41.1783C32.1085 40.9444 32.2921 40.688 32.473 40.431C32.482 40.4183 32.4909 40.4056 32.5002 40.3925C32.6527 40.1741 32.7846 39.9444 32.913 39.7112C32.9231 39.693 32.9332 39.6749 32.9435 39.6562C33.6198 38.4283 33.8161 37.1227 33.8505 35.7439C33.8525 35.6644 33.8546 35.5848 33.8567 35.5053C33.8861 34.3944 33.8962 33.284 33.8957 32.1727C33.8957 32.0431 33.8957 31.9134 33.8957 31.7837C33.8957 31.7648 33.8957 31.7459 33.8957 31.7264C33.8957 31.6879 33.8957 31.6494 33.8957 31.6109C33.8958 31.2529 33.8957 30.8949 33.8956 30.5368C33.8955 30.2377 33.8956 29.9386 33.8957 29.6394C33.8961 27.9798 33.8946 26.3202 33.8836 24.6605C33.8835 24.6443 33.8834 24.628 33.8833 24.6113C33.8763 23.5592 33.867 22.5072 33.853 21.4552C33.7401 21.3979 33.6523 21.387 33.5266 21.3891C33.5084 21.3891 33.4902 21.3892 33.4714 21.3892C33.4319 21.3894 33.3924 21.3897 33.3529 21.3901C33.2893 21.3908 33.2257 21.3911 33.162 21.3913C33.0257 21.3919 32.8894 21.3929 32.753 21.394C32.085 21.399 31.4201 21.3926 30.753 21.3552C30.732 21.3541 30.732 21.3541 30.7106 21.3529C30.5533 21.3439 30.3963 21.3329 30.2393 21.3203C30.2184 21.3186 30.1975 21.317 30.1759 21.3153C28.1629 21.1555 26.1693 20.7788 20.4677 18.6037C19.4466 18.1019 18.3813 17.9805 17.2544 17.9968ZM9.37304 30.7332C9.35286 30.7511 9.35286 30.7511 9.33226 30.7695C8.96301 31.11 8.79607 31.6288 8.77347 32.1191C8.75889 32.6982 8.97278 33.2185 9.36804 33.6363C9.92803 34.1735 10.6414 34.256 11.3841 34.255C11.4207 34.2551 11.4574 34.2551 11.4941 34.2551C11.5704 34.2551 11.6466 34.2551 11.7229 34.255C11.8201 34.2549 11.9172 34.2549 12.0144 34.2551C12.0899 34.2551 12.1655 34.2551 12.241 34.2551C12.2768 34.255 12.3126 34.2551 12.3484 34.2551C12.3986 34.2552 12.4488 34.2551 12.4989 34.255C12.5205 34.255 12.5206 34.255 12.5426 34.2551C12.6614 34.2546 12.7733 34.2433 12.893 34.2324C12.893 32.8731 12.893 31.5138 12.893 30.1133C11.0059 29.9735 11.0059 29.9735 9.37304 30.7332ZM36.553 30.1333C36.553 31.486 36.553 32.8387 36.553 34.2324C37.1954 34.2496 37.1954 34.2496 37.8377 34.2561C37.9017 34.2561 37.9656 34.2565 38.0296 34.2569C38.2516 34.2575 38.472 34.2511 38.6934 34.2344C38.7147 34.2328 38.736 34.2312 38.7579 34.2296C39.2692 34.1873 39.7301 33.9959 40.093 33.6325C40.1148 33.6129 40.1148 33.6129 40.137 33.5928C40.4541 33.3014 40.6536 32.8043 40.6759 32.3792C40.6896 31.955 40.6468 31.5928 40.453 31.2131C40.4423 31.1919 40.4316 31.1708 40.4206 31.149C40.1698 30.6896 39.7442 30.3661 39.2458 30.2176C38.827 30.1027 38.3883 30.1099 37.9577 30.1107C37.8895 30.1108 37.8214 30.1107 37.7533 30.1106C37.3526 30.1108 36.954 30.1227 36.553 30.1333ZM21.273 46.6696C21.273 48.0421 21.273 49.4146 21.273 50.8287C23.5566 50.8287 25.8402 50.8287 28.193 50.8287C28.193 49.4562 28.193 48.0837 28.193 46.6696C25.9094 46.6696 23.6258 46.6696 21.273 46.6696ZM65.7493 50.4938C65.4957 50.7936 65.3578 51.1532 65.3755 51.5473C65.4165 51.9637 65.6016 52.3194 65.9219 52.5902C66.2702 52.8496 66.6774 52.9547 67.109 52.8983C67.5001 52.8214 67.8461 52.621 68.0709 52.2883C68.2881 51.9536 68.3695 51.5497 68.2915 51.1576C68.2039 50.7728 67.9764 50.431 67.6443 50.2126C66.9957 49.8255 66.2641 49.9482 65.7493 50.4938ZM8.59015 53.5246C8.56812 53.5253 8.5461 53.526 8.5234 53.5267C8.13205 53.5394 7.73722 53.5684 7.35554 53.6606C7.33423 53.6657 7.31292 53.6707 7.29097 53.676C6.59511 53.8487 5.91628 54.1594 5.3644 54.6217C5.33379 54.6472 5.30268 54.6721 5.27156 54.6971C4.9725 54.9388 4.69885 55.2164 4.47304 55.5277C4.45594 55.5506 4.43884 55.5736 4.42172 55.5965C4.30086 55.7603 4.19362 55.9306 4.09304 56.1075C4.08565 56.1204 4.07825 56.1332 4.07063 56.1465C3.60713 56.9581 3.47196 57.8535 3.46894 58.7738C3.46874 58.812 3.46854 58.8501 3.46834 58.8882C3.46779 58.9934 3.46737 59.0985 3.46698 59.2036C3.46662 59.2961 3.4662 59.3886 3.46578 59.481C3.46442 59.783 3.4633 60.0849 3.46224 60.3869C3.46189 60.486 3.46153 60.5851 3.46117 60.6843C3.45407 62.6032 3.45163 64.5221 3.45304 72.9438C3.45306 72.9655 3.45309 72.9871 3.45311 73.0095C3.45416 74.0737 3.45575 75.1379 3.45846 76.2022C3.45908 76.4472 3.45956 76.6923 3.45996 76.9373C3.46041 77.2091 3.46106 77.4808 3.46201 77.7525C3.46248 77.8878 3.46287 78.0231 3.463 78.1584C3.46312 78.2806 3.46352 78.4029 3.46413 78.5251C3.4643 78.5686 3.46438 78.6121 3.46434 78.6556C3.46413 79.035 3.48881 79.4191 3.58679 79.7873C3.59188 79.8069 3.59696 79.8264 3.6022 79.8466C3.78987 80.5412 4.20681 81.2294 4.77304 81.6818C4.80093 81.7045 4.80093 81.7045 4.82937 81.7276C5.75983 82.4712 7.02484 82.7395 8.19557 82.6252C8.99794 82.5349 9.72269 82.2533 10.413 81.8418C10.4557 81.8165 10.4984 81.7913 10.541 81.766C10.6093 81.7256 10.6775 81.6852 10.7457 81.6446C10.9236 81.5389 11.1025 81.4351 11.2818 81.332C11.4259 81.2492 11.5696 81.1658 11.713 81.082C11.8781 80.9855 12.0436 80.8898 12.2093 80.7945C12.3872 80.6922 12.5642 80.5883 12.7405 80.4834C12.9819 80.3397 13.2254 80.2001 13.4696 80.0612C13.7784 79.8854 14.0856 79.7069 14.3924 79.5277C14.6036 79.4044 14.8155 79.2823 15.0274 79.1602C15.136 79.0977 15.2445 79.0351 15.353 78.9724C15.3964 78.9474 15.4397 78.9225 15.483 78.8975C15.5045 78.8851 15.5259 78.8727 15.548 78.86C15.9597 78.6225 16.3714 78.3851 16.783 78.1476C16.8045 78.1353 16.8259 78.1229 16.848 78.1101C16.8914 78.0851 16.9348 78.0601 16.9781 78.0351C17.086 77.9729 17.1938 77.9107 17.3016 77.8484C17.5378 77.712 17.7742 77.5763 18.0111 77.4412C18.1723 77.3493 18.3329 77.2566 18.493 77.1628C18.6642 77.0627 18.8358 76.9637 19.008 76.8654C19.0197 76.8588 19.0314 76.8521 19.0434 76.8452C19.1385 76.791 19.2337 76.7367 19.3289 76.6825C19.4119 76.6352 19.495 76.5879 19.578 76.5405C19.5897 76.5338 19.6014 76.5272 19.6134 76.5203C19.7934 76.4175 19.9727 76.3135 20.1516 76.2088C20.3274 76.106 20.5042 76.0048 20.6813 75.9041C20.7989 75.8372 20.9162 75.7698 21.0329 75.7011C21.537 75.4051 22.047 75.142 22.6468 75.2853C22.9396 75.3647 23.18 75.5345 23.3343 75.7997C23.5126 76.1209 23.5894 76.4414 23.513 76.8079C23.4336 77.0711 23.2869 77.2734 23.093 77.4628C23.0796 77.4766 23.0662 77.4905 23.0523 77.5047C22.7903 77.7584 22.4276 77.9262 22.1145 78.1071C22.0345 78.1534 21.9547 78.2 21.8749 78.2467C21.6234 78.3937 21.3711 78.5393 21.1187 78.6847C21.0101 78.7472 20.9016 78.8099 20.793 78.8725C20.7497 78.8975 20.7064 78.9225 20.663 78.9474C20.6416 78.9598 20.6201 78.9722 20.598 78.9849C20.013 79.3224 19.428 79.6598 18.843 79.9972C18.8216 80.0096 18.8001 80.022 18.778 80.0347C18.7347 80.0597 18.6915 80.0846 18.6482 80.1096C18.5391 80.1725 18.43 80.2355 18.3209 80.2986C18.0392 80.4614 17.7567 80.6226 17.473 80.782C17.473 80.7886 17.473 80.7952 17.473 80.802C24.2512 80.802 31.0294 80.802 38.013 80.802C38.0196 78.3936 38.0262 75.9851 38.033 73.5037C38.1002 73.1233 38.1917 72.7631 38.5207 72.5301C38.8604 72.3172 39.2679 72.2636 39.6615 72.3377C39.9754 72.4213 40.2385 72.6063 40.4033 72.8886C40.4131 72.9068 40.4229 72.925 40.433 72.9438C40.4422 72.9603 40.4515 72.9769 40.4609 72.9939C40.5171 73.1049 40.5501 73.2182 40.578 73.3387C40.5813 73.3525 40.5846 73.3663 40.5879 73.3805C40.6398 73.6231 40.636 73.8777 40.6354 74.1246C40.6355 74.1536 40.6355 74.1827 40.6355 74.2117C40.6355 74.2906 40.6355 74.3695 40.6354 74.4484C40.6353 74.5338 40.6353 74.6192 40.6353 74.7046C40.6353 74.8523 40.6353 75 40.6352 75.1477C40.635 75.3612 40.6349 75.5747 40.6349 75.7882C40.6349 76.1347 40.6347 76.4812 40.6345 76.8277C40.6344 77.1641 40.6342 77.5006 40.6341 77.837C40.6341 77.8578 40.6341 77.8785 40.6341 77.8999C40.6341 78.0041 40.6341 78.1083 40.634 78.2125C40.6338 79.0757 40.6335 79.9389 40.633 80.802C41.3043 80.8039 41.9756 80.8053 42.6469 80.8061C42.7261 80.8062 42.8053 80.8063 42.8845 80.8064C42.9003 80.8064 42.916 80.8065 42.9323 80.8065C43.1878 80.8068 43.4433 80.8075 43.6988 80.8082C43.9609 80.809 44.2229 80.8094 44.485 80.8096C44.6468 80.8097 44.8086 80.81 44.9704 80.8107C45.0943 80.8111 45.2182 80.8112 45.3422 80.8111C45.3931 80.8111 45.444 80.8113 45.495 80.8116C45.5643 80.812 45.6336 80.8119 45.703 80.8117C45.7233 80.8119 45.7436 80.8121 45.7645 80.8124C45.7831 80.8122 45.8016 80.812 45.8207 80.8119C45.8367 80.8119 45.8528 80.8119 45.8693 80.812C45.9307 80.798 45.9532 80.7701 45.993 80.7221C46.0052 80.6735 46.0052 80.6735 46.0039 80.6198C46.0043 80.599 46.0047 80.5783 46.0051 80.5569C46.0051 80.5341 46.0051 80.5113 46.0051 80.4879C46.0055 80.4637 46.0058 80.4395 46.0061 80.4146C46.0069 80.3474 46.0074 80.2802 46.0077 80.213C46.008 80.1551 46.0086 80.0972 46.0092 80.0394C46.0111 79.8499 46.0121 79.6604 46.0128 79.4709C46.013 79.423 46.0133 79.3751 46.0135 79.3272C46.0155 78.867 46.0158 78.4068 46.0157 77.9465C46.0156 77.7482 46.0157 77.5499 46.0157 77.3516C46.0158 76.9625 46.0158 76.5734 46.0158 76.1842C46.0157 75.8418 46.0157 75.4994 46.0157 75.157C46.0157 75.1225 46.0157 75.1225 46.0157 75.0874C46.0157 74.994 46.0157 74.9007 46.0157 74.8073C46.0158 73.9335 46.0157 73.0596 46.0156 72.1857C46.0155 71.4201 46.0156 70.6544 46.0156 69.8888C46.0158 69.0206 46.0158 68.1525 46.0157 67.2843C46.0157 67.1902 46.0157 67.0962 46.0157 67.0021C46.0157 66.9674 46.0157 66.9674 46.0157 66.932C46.0157 66.6149 46.0157 66.2978 46.0158 65.9807C46.0159 64.7692 46.0153 63.5577 46.013 62.3461C46.013 62.323 46.013 62.2999 46.0129 62.2762C46.0118 61.664 46.0103 61.0518 46.0081 60.4397C46.0079 60.3918 46.0078 60.344 46.0076 60.2961C46.0075 60.2726 46.0074 60.2491 46.0073 60.2248C46.0068 60.0614 46.0063 59.8979 46.006 59.7344C46.0055 59.5366 46.0049 59.3387 46.004 59.1409C46.0035 59.0401 46.0031 58.9394 46.003 58.8386C46.0037 58.088 46.0037 58.088 45.878 57.3497C45.8729 57.3294 45.8678 57.3091 45.8625 57.2881C45.7803 56.971 45.6692 56.6752 45.513 56.3875C45.506 56.3742 45.4989 56.3609 45.4916 56.3472C45.3409 56.0641 45.1604 55.8122 44.953 55.5676C44.9395 55.5514 44.926 55.5352 44.9121 55.5185C44.8644 55.4614 44.8644 55.4614 44.813 55.4077C44.7998 55.4077 44.7866 55.4077 44.773 55.4077C44.7372 55.4515 44.7037 55.4956 44.6705 55.5414C44.6488 55.5709 44.627 55.6005 44.6052 55.63C44.5936 55.6458 44.5819 55.6617 44.5699 55.678C44.506 55.764 44.4407 55.8488 44.3755 55.9338C44.2721 56.0691 44.17 56.2052 44.0693 56.3425C43.9509 56.5039 43.83 56.6632 43.708 56.8219C43.5412 57.039 43.3749 57.2564 43.213 57.4772C43.0492 57.7007 42.8807 57.9204 42.7122 58.1404C42.5593 58.3402 42.4075 58.5407 42.2588 58.7437C42.1716 58.8625 42.0826 58.9798 41.993 59.0969C41.8557 59.2764 41.7209 59.4576 41.5873 59.64C41.4212 59.8666 41.254 60.0924 41.0852 60.3169C40.9653 60.4766 40.8468 60.6373 40.7286 60.7982C40.6912 60.849 40.6536 60.8998 40.6161 60.9505C40.6034 60.9676 40.5908 60.9847 40.5778 61.0023C40.5537 61.0349 40.5295 61.0675 40.5054 61.1001C40.4744 61.142 40.4437 61.1842 40.413 61.2264C40.398 61.2471 40.3829 61.2677 40.3673 61.289C40.2628 61.4637 40.252 61.6908 40.293 61.8862C40.316 61.9632 40.3437 62.0384 40.3715 62.1138C40.6121 62.7697 40.7703 63.4662 40.793 64.1657C40.7937 64.1857 40.7937 64.1857 40.7944 64.2061C40.8189 65.0787 40.6237 65.9353 40.213 66.7052C40.2062 66.7181 40.1994 66.7311 40.1924 66.7445C40.0046 67.0996 39.7668 67.4209 39.4962 67.7174C39.457 67.7606 39.4186 67.8044 39.3805 67.8487C39.2674 67.9782 39.1439 68.0935 39.013 68.2048C38.9965 68.2192 38.9799 68.2335 38.9629 68.2483C38.5301 68.6171 38.0491 68.9024 37.5586 69.1865C37.4896 69.2266 37.4207 69.2669 37.3519 69.3073C37.34 69.3144 37.328 69.3214 37.3157 69.3286C37.2913 69.343 37.2668 69.3573 37.2424 69.3717C37.0243 69.4997 36.8056 69.6266 36.5863 69.7527C36.432 69.8416 36.2786 69.9321 36.1255 70.0232C35.9178 70.1468 35.7086 70.2676 35.4985 70.3871C35.3487 70.4724 35.1994 70.5585 35.0505 70.6455C34.8205 70.7801 34.5897 70.9134 34.3587 71.0464C34.2501 71.1089 34.1416 71.1715 34.033 71.2342C33.9897 71.2592 33.9464 71.2841 33.903 71.3091C33.8709 71.3277 33.8709 71.3277 33.838 71.3466C33.5997 71.4841 33.3614 71.6216 33.123 71.759C33.1016 71.7714 33.0802 71.7838 33.0581 71.7965C33.0147 71.8215 32.9713 71.8466 32.928 71.8716C32.8201 71.9338 32.7123 71.996 32.6045 72.0583C32.3692 72.1941 32.1336 72.3294 31.8977 72.4641C31.6423 72.6098 31.3876 72.7567 31.133 72.9038C30.8549 73.0645 30.5766 73.2247 30.2976 73.3839C30.1077 73.4922 29.9182 73.6013 29.7289 73.7107C29.6171 73.7753 29.5051 73.8397 29.3929 73.9036C29.3812 73.9103 29.3694 73.917 29.3573 73.9239C29.31 73.9509 29.2626 73.978 29.2152 74.0049C29.0903 74.076 28.9658 74.1475 28.8423 74.221C28.3751 74.4988 27.8439 74.7743 27.2815 74.6384C26.9163 74.5254 26.667 74.3106 26.4876 73.9743C26.3512 73.6949 26.3046 73.3878 26.391 73.0852C26.4642 72.8812 26.5679 72.705 26.713 72.5439C26.7232 72.5321 26.7333 72.5204 26.7437 72.5083C26.9846 72.2471 27.3212 72.0812 27.6255 71.9061C27.7352 71.8429 27.8442 71.7787 27.953 71.7141C28.133 71.6075 28.3134 71.5018 28.4939 71.3961C28.694 71.279 28.8937 71.1611 29.0928 71.0423C29.2084 70.9736 29.3245 70.9061 29.4417 70.8403C29.4661 70.8266 29.4904 70.8129 29.5147 70.7991C29.561 70.773 29.6074 70.7473 29.6539 70.7217C29.6745 70.7101 29.6951 70.6984 29.7163 70.6865C29.7346 70.6764 29.7528 70.6663 29.7716 70.6558C29.8145 70.6277 29.8145 70.6277 29.8327 70.5875C29.8332 70.5233 29.8072 70.486 29.7748 70.4309C29.7618 70.4084 29.7487 70.3858 29.7353 70.3626C29.7208 70.3382 29.7063 70.3138 29.6918 70.2894C29.677 70.2641 29.6622 70.2387 29.6475 70.2134C29.61 70.149 29.5722 70.0848 29.5344 70.0207C29.5027 69.9669 29.4713 69.913 29.4399 69.859C29.3944 69.7807 29.3487 69.7025 29.303 69.6244C29.2291 69.4981 29.1561 69.3714 29.083 69.2446C28.9869 69.0777 28.8903 68.911 28.793 68.7447C28.6831 68.5566 28.574 68.3679 28.4652 68.1791C28.3816 68.0341 28.2975 67.8894 28.213 67.7449C28.1031 67.5568 27.994 67.3681 27.8852 67.1793C27.7904 67.0149 27.6948 66.8509 27.5991 66.687C27.4628 66.4537 27.3279 66.2195 27.193 65.9853C27.1175 65.9853 27.0689 66.015 27.0041 66.0498C26.9912 66.0566 26.9784 66.0634 26.9652 66.0704C26.9232 66.0927 26.8812 66.1152 26.8393 66.1378C26.8249 66.1455 26.8105 66.1532 26.7957 66.1611C26.5695 66.282 26.3469 66.408 26.1261 66.5386C26.0126 66.6058 25.898 66.6706 25.783 66.7352C25.6066 66.8344 25.4315 66.9355 25.2568 67.0377C25.0446 67.1618 24.8317 67.2845 24.6187 67.4072C24.5101 67.4697 24.4016 67.5324 24.293 67.595C24.2497 67.62 24.2064 67.645 24.163 67.67C24.1309 67.6885 24.1309 67.6885 24.098 67.7074C23.383 68.1199 23.383 68.1199 23.318 68.1573C23.2747 68.1823 23.2314 68.2073 23.1881 68.2323C23.0793 68.2951 22.9705 68.3578 22.8616 68.4205C22.6518 68.5414 22.4421 68.6626 22.233 68.7847C22.0021 68.9196 21.7705 69.0533 21.5387 69.1868C21.4301 69.2493 21.3216 69.312 21.213 69.3746C21.1697 69.3996 21.1264 69.4246 21.083 69.4496C21.0509 69.4681 21.0509 69.4681 21.018 69.487C20.823 69.5995 20.823 69.5995 20.758 69.637C20.7147 69.662 20.6714 69.687 20.6281 69.712C20.5193 69.7747 20.4105 69.8375 20.3016 69.9002C20.0918 70.021 19.8821 70.1422 19.673 70.2644C19.4421 70.3993 19.2105 70.533 18.9787 70.6665C18.8701 70.729 18.7616 70.7916 18.653 70.8542C18.6097 70.8792 18.5664 70.9042 18.523 70.9292C18.4909 70.9478 18.4909 70.9478 18.458 70.9667C17.223 71.6791 17.223 71.6791 17.158 71.7166C17.1147 71.7415 17.0714 71.7665 17.0281 71.7915C16.9193 71.8543 16.8105 71.917 16.7016 71.9797C16.4926 72.1001 16.2838 72.2209 16.0755 72.3427C15.8901 72.4511 15.7039 72.5579 15.5172 72.6642C15.3553 72.7565 15.1939 72.8496 15.033 72.9438C14.8485 73.0518 14.663 73.1583 14.4772 73.2641C14.3153 73.3564 14.1539 73.4495 13.993 73.5436C13.8085 73.6517 13.623 73.7581 13.4372 73.864C13.2753 73.9563 13.1139 74.0494 12.953 74.1435C12.7811 74.2441 12.6086 74.3436 12.4355 74.4422C12.2536 74.5459 12.0719 74.6499 11.8905 74.7546C11.8694 74.7668 11.8482 74.779 11.8265 74.7916C11.7162 74.8552 11.6061 74.919 11.4962 74.9832C10.5877 75.5124 10.5877 75.5124 10.0955 75.5095C10.0761 75.5093 10.0566 75.5092 10.0366 75.5091C9.9007 75.5068 9.77932 75.4968 9.65304 75.4432C9.63324 75.435 9.61344 75.4267 9.59304 75.4182C9.28666 75.2776 9.10413 75.0349 8.98554 74.7259C8.90864 74.5115 8.87249 74.2934 8.86174 74.0666C8.86091 74.0495 8.86009 74.0323 8.85924 74.0147C8.84903 73.7796 8.85008 73.5445 8.85014 73.3092C8.85008 73.2567 8.85001 73.2041 8.84994 73.1516C8.84977 73.0246 8.84971 72.8976 8.8497 72.7706C8.84969 72.6672 8.84965 72.5639 8.84959 72.4605C8.84941 72.1662 8.84932 71.872 8.84933 71.5777C8.84934 71.554 8.84934 71.554 8.84934 71.5299C8.84934 71.5141 8.84934 71.4982 8.84934 71.482C8.84935 71.2257 8.84916 70.9695 8.84888 70.7133C8.84859 70.449 8.84845 70.1847 8.84846 69.9205C8.84847 69.7726 8.84842 69.6247 8.8482 69.4768C8.84802 69.3509 8.84798 69.2251 8.84811 69.0992C8.84818 69.0352 8.84816 68.9712 8.84801 68.9072C8.84665 68.3044 8.84687 67.6294 9.29304 67.1651C9.49565 66.9779 9.75677 66.8616 10.033 66.8451C10.0588 66.8436 10.0588 66.8436 10.0851 66.8419C10.4405 66.8309 10.7663 66.9249 11.033 67.1651C11.0946 67.2341 11.145 67.3061 11.193 67.385C11.2039 67.4028 11.2148 67.4206 11.2259 67.439C11.2912 67.5574 11.3327 67.6789 11.368 67.8087C11.372 67.823 11.376 67.8373 11.3801 67.8521C11.4515 68.1336 11.4591 68.4233 11.4594 68.712C11.4596 68.7473 11.4598 68.7826 11.46 68.8179C11.4606 68.9126 11.4609 69.0073 11.4611 69.102C11.4615 69.2014 11.462 69.3008 11.4625 69.4002C11.4634 69.588 11.4642 69.7757 11.4648 69.9634C11.4656 70.1773 11.4666 70.3913 11.4676 70.6052C11.4697 71.0448 11.4714 71.4844 11.473 71.924C11.524 71.8986 11.5749 71.8731 11.6259 71.8477C11.6402 71.8405 11.6545 71.8334 11.6692 71.826C11.9879 71.6667 12.3001 71.4993 12.607 71.3182C12.7416 71.2388 12.8773 71.1615 13.013 71.0842C13.1869 70.9852 13.3603 70.8854 13.533 70.7843C13.7285 70.6698 13.925 70.5571 14.1218 70.445C14.2792 70.3552 14.4362 70.265 14.593 70.1744C14.7845 70.0638 14.9764 69.9538 15.1685 69.8443C15.3584 69.7359 15.5479 69.6269 15.7372 69.5175C15.9081 69.4188 16.0795 69.3209 16.251 69.2231C16.4342 69.1187 16.6166 69.0128 16.7985 68.9062C16.9515 68.8168 17.1057 68.7295 17.2602 68.6426C17.3986 68.5647 17.536 68.4851 17.673 68.4048C17.8478 68.3024 18.0236 68.202 18.2002 68.1027C18.3386 68.0248 18.476 67.9452 18.613 67.8649C18.769 67.7736 18.9255 67.6835 19.083 67.595C19.2384 67.5076 19.393 67.4189 19.5468 67.3288C19.72 67.2274 19.8937 67.127 20.068 67.0276C20.0797 67.0209 20.0914 67.0143 20.1034 67.0074C20.1985 66.9532 20.2937 66.8989 20.3889 66.8447C20.4719 66.7974 20.555 66.75 20.638 66.7027C20.6497 66.696 20.6614 66.6894 20.6734 66.6825C20.8534 66.5797 21.0327 66.4757 21.2116 66.371C21.364 66.2819 21.5172 66.194 21.6705 66.1066C21.917 65.966 22.163 65.8245 22.4087 65.6826C22.5168 65.6201 22.6249 65.5578 22.733 65.4954C22.7764 65.4704 22.8197 65.4454 22.863 65.4205C24.683 64.3707 24.683 64.3707 24.7481 64.3332C24.7914 64.3082 24.8347 64.2832 24.878 64.2583C24.9868 64.1955 25.0956 64.1327 25.2045 64.07C25.4341 63.9378 25.6634 63.8049 25.8923 63.6712C26.0389 63.5856 26.1859 63.5006 26.333 63.4159C26.5604 63.285 26.7872 63.153 27.0137 63.0207C27.1335 62.9507 27.2533 62.8809 27.3731 62.811C27.4727 62.753 27.5722 62.6949 27.6716 62.6368C27.8792 62.5155 28.0872 62.3948 28.2955 62.2749C28.4742 62.172 28.6522 62.0681 28.8296 61.9629C28.9609 61.8852 29.0925 61.808 29.2243 61.7313C29.4019 61.6278 29.5794 61.5241 29.7568 61.4201C29.7689 61.413 29.781 61.4059 29.7935 61.3985C29.8553 61.3623 29.9171 61.3261 29.9789 61.2898C30.0883 61.2257 30.1976 61.1617 30.3069 61.0976C30.343 61.0764 30.3791 61.0553 30.4152 61.0341C30.5253 60.9696 30.6353 60.9051 30.7454 60.8407C30.8075 60.8043 30.8697 60.7679 30.9318 60.7315C30.9439 60.7244 30.9561 60.7173 30.9686 60.71C31.1088 60.6278 31.2488 60.5455 31.3886 60.4626C31.6154 60.3282 31.8428 60.1951 32.073 60.0666C32.1042 60.0492 32.1042 60.0492 32.136 60.0315C33.213 59.4336 34.389 58.9752 35.6368 58.9806C35.6547 58.9807 35.6727 58.9807 35.6912 58.9808C35.969 58.9818 36.2398 58.9924 36.513 59.0469C36.5334 59.0508 36.5538 59.0548 36.5748 59.0589C37.1024 59.1645 37.5911 59.35 38.0688 59.5945C38.1359 59.6288 38.2029 59.6593 38.273 59.6867C38.428 59.4846 38.5825 59.2823 38.733 59.0769C38.8448 58.9243 38.9589 58.7738 39.0738 58.6237C39.1615 58.509 39.2477 58.3935 39.333 58.277C39.4448 58.1245 39.5589 57.974 39.6738 57.8239C39.7615 57.7092 39.8478 57.5936 39.933 57.4772C40.0447 57.3248 40.1587 57.1744 40.2736 57.0244C40.3638 56.9063 40.4526 56.7873 40.5405 56.6674C40.64 56.5319 40.7411 56.398 40.844 56.2651C41.0211 56.0357 41.196 55.8047 41.3672 55.571C41.4677 55.4341 41.5706 55.2992 41.6738 55.1645C41.7615 55.0498 41.8477 54.9342 41.933 54.8178C42.0316 54.6833 42.1317 54.5503 42.233 54.4179C42.3395 54.2787 42.4451 54.1389 42.5493 53.998C42.5609 53.9823 42.5725 53.9667 42.5845 53.9505C42.5953 53.9359 42.6061 53.9212 42.6172 53.9061C42.6266 53.8934 42.6359 53.8807 42.6456 53.8676C42.677 53.8223 42.7049 53.7754 42.733 53.7281C42.5587 53.697 42.3842 53.6739 42.2082 53.6542C42.1814 53.6512 42.1546 53.6482 42.1278 53.6451C42.0721 53.6388 42.0163 53.6326 41.9605 53.6263C41.8899 53.6184 41.8193 53.6104 41.7486 53.6024C41.6934 53.5961 41.6382 53.5899 41.583 53.5837C41.5445 53.5794 41.5061 53.575 41.4677 53.5707C41.1773 53.5384 40.8882 53.5234 40.5963 53.517C40.5778 53.5166 40.5594 53.5162 40.5403 53.5157C40.0029 53.5039 39.4654 53.5051 38.9279 53.5055C38.8285 53.5056 38.7291 53.5056 38.6297 53.5055C36.973 53.3995 36.973 53.3995 35.523 54.0416C35.4714 54.0895 35.4179 54.1338 35.363 54.178C35.2911 54.2361 35.2214 54.2956 35.153 54.3579C35.067 54.4363 34.9779 54.5097 34.8874 54.5829C34.8175 54.6407 34.7507 54.7018 34.6836 54.7629C34.6317 54.8091 34.5784 54.8529 34.5243 54.8965C34.4288 54.9738 34.3383 55.0553 34.2479 55.1385C34.195 55.1859 34.1409 55.2308 34.0855 55.2752C33.9896 55.3525 33.8996 55.4347 33.8098 55.5188C33.726 55.5968 33.6386 55.6691 33.5493 55.7407C33.4851 55.7942 33.424 55.8505 33.363 55.9076C33.2851 55.9805 33.2064 56.0507 33.123 56.1175C33.015 56.2043 32.9141 56.2976 32.8127 56.392C32.7209 56.4776 32.626 56.5595 32.5302 56.6408C32.3997 56.7518 32.2718 56.8646 32.1467 56.9816C32.0816 57.0421 32.015 57.0993 31.9455 57.1548C31.8399 57.2395 31.7423 57.3312 31.644 57.4242C31.556 57.5069 31.465 57.5837 31.3705 57.6591C31.2988 57.7191 31.231 57.7828 31.163 57.8471C31.0617 57.943 30.9582 58.0334 30.849 58.1204C30.7824 58.176 30.7197 58.2349 30.6568 58.2945C30.5222 58.4213 30.381 58.5362 30.233 58.647C30.2218 58.6554 30.2106 58.6639 30.199 58.6726C29.6473 59.0866 29.021 59.3822 28.3156 59.2975C27.6924 59.178 27.1902 58.7329 26.833 58.2271C26.8183 58.2062 26.8036 58.1853 26.7884 58.1639C26.5393 57.8035 26.3224 57.4191 26.1018 57.0409C25.9981 56.8632 25.8927 56.6868 25.7855 56.5112C25.6625 56.3095 25.541 56.1071 25.4205 55.9038C25.3887 55.85 25.3568 55.7962 25.3249 55.7424C25.3133 55.7229 25.3133 55.7229 25.3015 55.7029C25.1901 55.515 25.0775 55.3279 24.9649 55.1407C24.918 55.0627 24.8711 54.9846 24.8243 54.9065C24.8102 54.883 24.796 54.8594 24.7819 54.8359C24.7724 54.82 24.7628 54.8041 24.753 54.7878C24.6925 54.8442 24.6502 54.8999 24.6086 54.9712C24.5964 54.992 24.5841 55.0129 24.5715 55.0343C24.5519 55.0682 24.5519 55.0682 24.5318 55.1027C24.5178 55.1266 24.5039 55.1504 24.4899 55.1742C24.46 55.2251 24.4302 55.276 24.4004 55.327C24.327 55.4522 24.2529 55.5768 24.1787 55.7015C24.155 55.7413 24.1314 55.7812 24.1078 55.821C24.0331 55.9467 23.9583 56.0723 23.883 56.1976C23.8231 56.2972 23.7635 56.397 23.7043 56.497C23.6969 56.5095 23.6896 56.5219 23.682 56.5348C23.6668 56.5603 23.6517 56.5859 23.6365 56.6115C23.4912 56.8569 23.3446 57.1014 23.196 57.3449C23.1275 57.4573 23.0593 57.57 22.9922 57.6833C22.861 57.9048 22.7301 58.1229 22.573 58.327C22.5593 58.3452 22.5456 58.3634 22.5314 58.3821C22.1578 58.8581 21.6708 59.2183 21.0593 59.3006C20.4001 59.3627 19.7664 59.0845 19.263 58.6745C19.1596 58.5886 19.0589 58.4999 18.9599 58.409C18.9102 58.3644 18.8588 58.3226 18.8068 58.2808C18.7105 58.203 18.62 58.1204 18.5297 58.0359C18.4632 57.974 18.3953 57.9152 18.3243 57.8584C18.2239 57.7779 18.1305 57.6913 18.0369 57.6031C17.9676 57.5383 17.8972 57.4765 17.823 57.4172C17.723 57.3372 17.6301 57.251 17.5369 57.1632C17.4676 57.0984 17.3972 57.0366 17.323 56.9773C17.2359 56.9076 17.1542 56.8338 17.073 56.7574C16.9748 56.6649 16.874 56.578 16.7686 56.4936C16.6929 56.4307 16.6215 56.3635 16.5497 56.2963C16.4832 56.2343 16.4153 56.1756 16.3443 56.1188C16.2568 56.0486 16.1746 55.9744 16.093 55.8976C15.9943 55.8047 15.8931 55.7172 15.7873 55.6325C15.7273 55.5829 15.67 55.5307 15.613 55.4777C15.5389 55.4086 15.4633 55.3424 15.3843 55.279C15.2887 55.2021 15.1992 55.1204 15.1098 55.0366C15.0256 54.9582 14.9378 54.8854 14.848 54.8134C14.7878 54.7635 14.7303 54.7111 14.673 54.6578C14.5808 54.5721 14.4855 54.4918 14.3873 54.4128C14.3309 54.3661 14.2769 54.3175 14.223 54.2679C14.1338 54.1859 14.0422 54.1081 13.9477 54.0323C13.9118 54.0032 13.8764 53.9735 13.8416 53.9431C13.404 53.5658 12.9537 53.5275 12.3989 53.5171C12.3776 53.5167 12.3562 53.5162 12.3342 53.5158C11.772 53.5051 11.2097 53.5043 10.6474 53.5044C10.5479 53.5044 10.4485 53.5042 10.349 53.504C9.76249 53.5026 9.17643 53.5046 8.59015 53.5246ZM27.073 53.5281C27.1373 53.6565 27.201 53.7788 27.2755 53.9005C27.2966 53.9352 27.3176 53.9699 27.3386 54.0046C27.3502 54.0239 27.3619 54.0431 27.3739 54.063C27.4522 54.193 27.5294 54.3236 27.6068 54.4541C27.6985 54.6088 27.7902 54.7633 27.8828 54.9174C27.9849 55.0872 28.0859 55.2576 28.187 55.4281C28.2109 55.4684 28.2348 55.5086 28.2587 55.5489C28.2665 55.5621 28.2743 55.5752 28.2824 55.5888C28.3444 55.6933 28.407 55.7974 28.4696 55.9015C28.514 55.9755 28.5578 56.0497 28.601 56.1243C28.616 56.1499 28.616 56.1499 28.6312 56.1761C28.6514 56.2106 28.6714 56.2452 28.6912 56.2799C28.7011 56.2966 28.7109 56.3133 28.721 56.3305C28.7339 56.3528 28.7339 56.3528 28.7471 56.3755C28.7556 56.3861 28.7642 56.3966 28.773 56.4075C28.8564 56.4075 28.8769 56.3729 28.9368 56.3162C28.9567 56.2976 28.9767 56.279 28.9966 56.2604C29.0153 56.2429 29.0339 56.2255 29.053 56.2075C29.1266 56.1416 29.2015 56.0773 29.2767 56.0133C29.4135 55.8968 29.5479 55.7784 29.6799 55.6565C29.7703 55.5733 29.8631 55.4931 29.9566 55.4135C30.0935 55.297 30.2279 55.1786 30.3599 55.0567C30.4503 54.9735 30.5431 54.8933 30.6366 54.8137C30.7518 54.7156 30.866 54.6171 30.9768 54.5141C31.0493 54.4468 31.1233 54.3823 31.2005 54.3204C31.3151 54.2282 31.4217 54.1284 31.5289 54.0279C31.6245 53.9383 31.7235 53.853 31.8235 53.7684C31.8362 53.7577 31.8488 53.7469 31.8619 53.7359C31.8872 53.7144 31.9126 53.6929 31.9381 53.6715C31.9916 53.6262 32.0339 53.5868 32.073 53.5281C30.423 53.5281 28.773 53.5281 27.073 53.5281ZM17.453 53.5881C17.603 53.738 17.7563 53.8841 17.9218 54.0167C18.0222 54.0973 18.1156 54.1838 18.2092 54.272C18.2785 54.3368 18.3489 54.3986 18.423 54.4579C18.5231 54.5379 18.616 54.6241 18.7092 54.7119C18.7785 54.7767 18.8489 54.8385 18.923 54.8978C19.0231 54.9778 19.116 55.064 19.2092 55.1518C19.2785 55.2166 19.3489 55.2784 19.423 55.3377C19.5231 55.4177 19.616 55.5039 19.7092 55.5917C19.7785 55.6565 19.8489 55.7183 19.923 55.7776C20.0102 55.8473 20.0919 55.9211 20.173 55.9975C20.2738 56.0924 20.3766 56.182 20.4846 56.2686C20.5487 56.3201 20.6109 56.3736 20.673 56.4275C20.7575 56.3313 20.8171 56.2217 20.8805 56.1113C20.9058 56.0677 20.931 56.0241 20.9562 55.9805C20.9691 55.9583 20.9819 55.9361 20.9951 55.9132C21.0529 55.8133 21.1111 55.7136 21.1693 55.6139C21.1807 55.5944 21.1921 55.5749 21.2038 55.5548C21.3039 55.3832 21.4044 55.2118 21.5049 55.0405C21.6012 54.8764 21.6972 54.7122 21.793 54.5479C21.9007 54.3632 22.0087 54.1787 22.1168 53.9942C22.1242 53.9816 22.1316 53.969 22.1392 53.9559C22.1604 53.9199 22.1815 53.8838 22.2027 53.8478C22.2148 53.8271 22.2269 53.8064 22.2395 53.785C22.2616 53.7474 22.2843 53.7101 22.3074 53.6731C22.3363 53.6309 22.3363 53.6309 22.333 53.5881C20.7226 53.5881 19.1122 53.5881 17.453 53.5881ZM33.7679 62.1406C33.6513 62.2077 33.5329 62.2714 33.4143 62.3349C33.233 62.4322 33.0548 62.534 32.8776 62.6385C32.7245 62.7284 32.5698 62.8152 32.4143 62.901C32.2272 63.0043 32.042 63.1098 31.8583 63.2191C31.7664 63.2735 31.6741 63.3272 31.5818 63.3809C31.5405 63.405 31.4992 63.429 31.458 63.4531C31.4373 63.4651 31.4166 63.4772 31.3953 63.4896C31.3144 63.5367 31.2336 63.5839 31.1527 63.631C31.1128 63.6543 31.0729 63.6776 31.033 63.7009C30.9335 63.7589 30.8339 63.817 30.7344 63.8751C30.5481 63.9839 30.3616 64.0924 30.1745 64.2C29.9324 64.3392 29.6919 64.4808 29.453 64.6256C29.6501 64.9883 29.853 65.3475 30.0618 65.7036C30.1357 65.8297 30.2088 65.9562 30.2818 66.0828C30.2942 66.1044 30.3067 66.1259 30.3195 66.1482C30.37 66.2358 30.4205 66.3234 30.471 66.4111C30.6044 66.6427 30.7381 66.8742 30.873 67.1051C31.008 67.336 31.1417 67.5676 31.2752 67.7993C31.3378 67.9078 31.4004 68.0163 31.463 68.1249C31.539 68.2565 31.6149 68.3881 31.6909 68.5197C31.838 68.7748 31.9854 69.0298 32.133 69.2846C32.2083 69.2564 32.2761 69.222 32.3456 69.182C32.3677 69.1693 32.3897 69.1567 32.4125 69.1436C32.4364 69.1298 32.4603 69.116 32.4843 69.1021C32.5094 69.0877 32.5344 69.0733 32.5595 69.0589C32.6116 69.029 32.6636 68.9991 32.7156 68.9692C32.8346 68.9007 32.9538 68.8327 33.073 68.7647C33.1197 68.7381 33.1664 68.7114 33.213 68.6847C33.2364 68.6714 33.2597 68.6581 33.283 68.6447C33.2946 68.6381 33.3061 68.6315 33.318 68.6247C33.353 68.6047 33.388 68.5848 33.423 68.5648C33.4346 68.5582 33.4461 68.5516 33.458 68.5448C33.4814 68.5314 33.5047 68.5181 33.5281 68.5048C33.5863 68.4715 33.6446 68.4382 33.7029 68.4049C33.8086 68.3445 33.9143 68.2841 34.0201 68.2238C34.2722 68.0801 34.5239 67.9358 34.7744 67.7892C34.898 67.7169 35.022 67.6452 35.1462 67.5739C35.4046 67.4255 35.6606 67.2736 35.9157 67.1196C35.9687 67.0877 36.0218 67.0559 36.075 67.0242C36.8024 66.6075 36.8024 66.6075 37.453 66.0853C37.4656 66.074 37.4782 66.0626 37.4912 66.0509C37.9141 65.66 38.1652 65.0346 38.1962 64.4672C38.2238 63.735 38.0176 63.0448 37.533 62.4861C37.5183 62.4685 37.5037 62.4509 37.4885 62.4328C37.3584 62.2824 37.2138 62.1619 37.053 62.0462C37.0418 62.0381 37.0306 62.03 37.019 62.0217C35.9612 61.2733 34.8113 61.5389 33.7679 62.1406Z" fill="white"/>
<path d="M53.347 31.9679C53.3757 31.9678 53.3757 31.9678 53.4049 31.9677C53.4689 31.9676 53.533 31.9677 53.597 31.9679C53.6436 31.9678 53.6901 31.9677 53.7366 31.9677C53.8516 31.9675 53.9666 31.9675 54.0815 31.9676C54.2202 31.9678 54.3588 31.9677 54.4975 31.9675C54.7566 31.9673 55.0158 31.9673 55.2749 31.9674C55.5376 31.9674 55.8002 31.9674 56.0629 31.9673C56.0795 31.9673 56.096 31.9673 56.1131 31.9673C56.1807 31.9673 56.2482 31.9672 56.3157 31.9672C57.0016 31.9669 57.6875 31.9668 58.3734 31.9669C58.4682 31.9669 58.5629 31.9669 58.6577 31.9669C58.6766 31.9669 58.6954 31.9669 58.7148 31.9669C59.1319 31.9669 59.549 31.9669 59.9661 31.9668C60.0614 31.9668 60.1566 31.9668 60.2518 31.9668C60.29 31.9668 60.3282 31.9668 60.3664 31.9668C60.3854 31.9668 60.4043 31.9667 60.4238 31.9667C60.4622 31.9667 60.5005 31.9667 60.5388 31.9667C61.6261 31.9666 62.7134 31.9665 63.8008 31.9665C63.8209 31.9665 63.841 31.9665 63.8618 31.9666C64.0864 31.9666 64.3109 31.9666 64.5355 31.9666C64.5558 31.9666 64.5761 31.9666 64.597 31.9666C64.7655 31.9666 64.7655 31.9666 64.843 31.9666C66.14 31.9667 67.437 31.9666 68.734 31.9662C69.0608 31.9661 69.3876 31.966 69.7144 31.9659C69.7345 31.9659 69.7546 31.9659 69.7753 31.9659C70.3954 31.9658 71.0154 31.9657 71.6355 31.9656C71.655 31.9656 71.6744 31.9656 71.6945 31.9656C72.1217 31.9656 72.549 31.9656 72.9763 31.9657C73.1291 31.9657 73.282 31.9657 73.4349 31.9657C73.4729 31.9657 73.511 31.9657 73.549 31.9657C74.1553 31.9657 74.7615 31.9656 75.3678 31.9654C75.9953 31.9651 76.6228 31.9651 77.2503 31.9654C77.3177 31.9654 77.3851 31.9654 77.4524 31.9654C77.469 31.9654 77.4855 31.9654 77.5026 31.9654C77.7645 31.9655 78.0264 31.9654 78.2883 31.9652C78.5458 31.965 78.8033 31.965 79.0608 31.9653C79.1985 31.9654 79.3363 31.9655 79.474 31.9652C79.5993 31.965 79.7246 31.9651 79.8499 31.9654C79.895 31.9654 79.9401 31.9654 79.9851 31.9652C80.4026 31.9638 80.7301 32.0174 81.0442 32.3196C81.1212 32.4038 81.1796 32.4921 81.2329 32.5928C81.2426 32.6108 81.2523 32.6288 81.2622 32.6474C81.3924 32.9209 81.4047 33.2488 81.3128 33.5355C81.174 33.8932 80.9498 34.1192 80.6021 34.2759C80.4604 34.3234 80.3251 34.3383 80.1763 34.3375C80.1572 34.3375 80.1381 34.3376 80.1184 34.3377C80.0544 34.3378 79.9904 34.3377 79.9264 34.3376C79.8798 34.3376 79.8333 34.3377 79.7867 34.3378C79.6718 34.3379 79.5569 34.3379 79.442 34.3378C79.3033 34.3377 79.1647 34.3379 79.0261 34.338C78.767 34.3382 78.5079 34.3383 78.2488 34.3383C77.9862 34.3382 77.7236 34.3383 77.4611 34.3384C77.4362 34.3384 77.4362 34.3384 77.4108 34.3384C77.3433 34.3385 77.2758 34.3385 77.2082 34.3385C76.5036 34.339 75.7989 34.3391 75.0943 34.3391C75.0184 34.3391 74.9426 34.3391 74.8667 34.3391C74.8385 34.3391 74.8385 34.3391 74.8097 34.3391C74.3926 34.3391 73.9756 34.3392 73.5586 34.3393C73.3869 34.3394 73.2152 34.3394 73.0435 34.3394C73.0245 34.3394 73.0055 34.3394 72.986 34.3394C71.8988 34.3397 70.8116 34.3399 69.7245 34.3398C69.6838 34.3398 69.6431 34.3398 69.6024 34.3398C69.4187 34.3398 69.235 34.3398 69.0513 34.3398C68.9693 34.3398 68.8874 34.3398 68.8055 34.3398C68.7645 34.3398 68.7235 34.3398 68.6825 34.3398C67.3857 34.3398 66.089 34.3401 64.7923 34.3406C64.4656 34.3408 64.1388 34.3409 63.8121 34.3411C63.792 34.3411 63.7719 34.3411 63.7511 34.3411C63.1312 34.3413 62.5112 34.3415 61.8912 34.3415C61.8718 34.3415 61.8523 34.3415 61.8323 34.3415C61.4051 34.3416 60.9778 34.3416 60.5506 34.3416C60.3978 34.3416 60.2449 34.3416 60.0921 34.3416C60.054 34.3416 60.016 34.3416 59.978 34.3416C59.3718 34.3416 58.7657 34.3418 58.1596 34.3421C57.5491 34.3425 56.9387 34.3426 56.3283 34.3423C56.244 34.3423 56.1596 34.3422 56.0753 34.3422C56.0505 34.3422 56.0505 34.3422 56.0252 34.3422C55.7633 34.3421 55.5015 34.3423 55.2397 34.3425C54.9822 34.3428 54.7248 34.3428 54.4673 34.3425C54.3296 34.3423 54.1919 34.3423 54.0542 34.3426C53.9289 34.3429 53.8036 34.3428 53.6784 34.3425C53.6333 34.3424 53.5883 34.3425 53.5432 34.3427C53.1283 34.3445 52.7956 34.276 52.4889 33.9735C52.2501 33.7231 52.1702 33.4097 52.1729 33.0727C52.1947 32.7522 52.3359 32.4823 52.5629 32.2591C52.7857 32.0674 53.055 31.9663 53.347 31.9679Z" fill="white"/>
<path d="M53.3694 26.0891C53.3885 26.0891 53.4076 26.089 53.4273 26.0889C53.4912 26.0888 53.5552 26.0889 53.6192 26.0891C53.6657 26.089 53.7122 26.089 53.7588 26.0889C53.8736 26.0887 53.9885 26.0887 54.1033 26.0889C54.2419 26.089 54.3804 26.0889 54.519 26.0887C54.7779 26.0885 55.0368 26.0885 55.2958 26.0886C55.5582 26.0887 55.8206 26.0886 56.083 26.0885C56.1079 26.0885 56.1079 26.0885 56.1332 26.0885C56.2007 26.0885 56.2682 26.0885 56.3357 26.0884C57.021 26.0881 57.7063 26.0881 58.3916 26.0881C58.4863 26.0881 58.581 26.0881 58.6757 26.0881C58.6945 26.0881 58.7134 26.0881 58.7327 26.0881C59.1495 26.0882 59.5663 26.0881 59.983 26.088C60.0782 26.088 60.1733 26.088 60.2685 26.088C60.3067 26.088 60.3448 26.088 60.383 26.088C60.402 26.088 60.4209 26.088 60.4404 26.088C60.4787 26.088 60.517 26.0879 60.5552 26.0879C61.6417 26.0878 62.7281 26.0877 63.8146 26.0878C63.8347 26.0878 63.8548 26.0878 63.8756 26.0878C64.0999 26.0878 64.3243 26.0878 64.5487 26.0878C64.569 26.0878 64.5892 26.0878 64.6101 26.0878C64.7784 26.0878 64.7784 26.0878 64.8559 26.0878C66.1518 26.088 67.4477 26.0878 68.7436 26.0874C69.0701 26.0873 69.3967 26.0872 69.7232 26.0872C69.7433 26.0872 69.7634 26.0871 69.7841 26.0871C70.4037 26.087 71.0233 26.0869 71.6428 26.0869C71.6623 26.0869 71.6817 26.0869 71.7018 26.0869C72.1287 26.0868 72.5556 26.0869 72.9825 26.0869C73.1353 26.0869 73.288 26.0869 73.4408 26.0869C73.4788 26.0869 73.5168 26.0869 73.5548 26.0869C74.1605 26.0869 74.7663 26.0868 75.3721 26.0866C75.999 26.0863 76.626 26.0863 77.253 26.0866C77.3203 26.0866 77.3876 26.0866 77.4549 26.0866C77.4715 26.0866 77.488 26.0867 77.505 26.0867C77.7667 26.0867 78.0284 26.0866 78.2901 26.0864C78.5474 26.0862 78.8046 26.0863 79.0619 26.0865C79.1995 26.0866 79.3372 26.0867 79.4748 26.0864C79.6 26.0862 79.7251 26.0863 79.8503 26.0866C79.8954 26.0866 79.9404 26.0866 79.9854 26.0864C80.4028 26.0851 80.7302 26.1387 81.0442 26.4408C81.1212 26.525 81.1796 26.6133 81.2329 26.714C81.2426 26.732 81.2523 26.7501 81.2622 26.7686C81.3924 27.0422 81.4047 27.37 81.3128 27.6567C81.1741 28.0144 80.9493 28.2426 80.6002 28.3972C80.4636 28.4448 80.3423 28.4594 80.1987 28.4587C80.17 28.4588 80.17 28.4588 80.1408 28.4589C80.0767 28.459 80.0126 28.4589 79.9485 28.4588C79.902 28.4588 79.8554 28.4589 79.8088 28.459C79.6938 28.4592 79.5788 28.4591 79.4638 28.459C79.325 28.4589 79.1863 28.4591 79.0475 28.4592C78.7882 28.4595 78.5289 28.4595 78.2696 28.4595C78.0068 28.4594 77.744 28.4595 77.4812 28.4596C77.4646 28.4596 77.448 28.4596 77.4309 28.4596C77.3633 28.4597 77.2958 28.4597 77.2282 28.4598C76.5229 28.4602 75.8177 28.4603 75.1125 28.4603C75.0366 28.4603 74.9606 28.4603 74.8847 28.4603C74.8564 28.4603 74.8564 28.4603 74.8276 28.4603C74.4102 28.4603 73.9928 28.4604 73.5755 28.4605C73.4036 28.4606 73.2318 28.4606 73.06 28.4606C73.041 28.4607 73.022 28.4607 73.0024 28.4607C71.9144 28.4609 70.8263 28.4611 69.7383 28.4611C69.6976 28.4611 69.6568 28.4611 69.6161 28.4611C69.4322 28.4611 69.2484 28.4611 69.0645 28.461C68.9825 28.461 68.9005 28.461 68.8185 28.461C68.7775 28.461 68.7364 28.461 68.6954 28.461C67.3976 28.461 66.0997 28.4613 64.8019 28.4619C64.4749 28.462 64.1479 28.4621 63.8209 28.4623C63.7907 28.4623 63.7907 28.4623 63.7599 28.4623C63.1395 28.4625 62.519 28.4627 61.8986 28.4627C61.8791 28.4627 61.8596 28.4627 61.8395 28.4628C61.412 28.4628 60.9844 28.4628 60.5569 28.4628C60.4039 28.4628 60.2509 28.4628 60.0979 28.4628C60.0599 28.4628 60.0218 28.4628 59.9837 28.4628C59.3771 28.4628 58.7705 28.463 58.1638 28.4633C57.5529 28.4637 56.9419 28.4638 56.331 28.4635C56.2466 28.4635 56.1622 28.4634 56.0778 28.4634C56.053 28.4634 56.053 28.4634 56.0276 28.4634C55.7656 28.4633 55.5035 28.4635 55.2414 28.4638C54.9838 28.464 54.7261 28.464 54.4685 28.4637C54.3306 28.4635 54.1928 28.4635 54.0549 28.4638C53.9295 28.4641 53.8042 28.4641 53.6788 28.4637C53.6337 28.4636 53.5886 28.4637 53.5435 28.4639C53.1285 28.4658 52.7957 28.3973 52.4889 28.0947C52.2501 27.8443 52.1702 27.5309 52.1729 27.1939C52.1951 26.8672 52.3425 26.5963 52.5742 26.3691C52.6539 26.3021 52.7406 26.2538 52.8329 26.2066C52.846 26.1999 52.859 26.1933 52.8725 26.1864C53.0338 26.1084 53.1917 26.0882 53.3694 26.0891Z" fill="white"/>
<path d="M53.3694 20.2104C53.3885 20.2104 53.4076 20.2103 53.4273 20.2102C53.4913 20.2101 53.5553 20.2102 53.6192 20.2104C53.6658 20.2103 53.7123 20.2103 53.7588 20.2102C53.8737 20.21 53.9886 20.21 54.1034 20.2102C54.242 20.2103 54.3806 20.2102 54.5191 20.21C54.7781 20.2098 55.0371 20.2098 55.296 20.2099C55.5585 20.21 55.8209 20.2099 56.0834 20.2098C56.1082 20.2098 56.1082 20.2098 56.1336 20.2098C56.2011 20.2098 56.2686 20.2098 56.3361 20.2097C57.0215 20.2094 57.7069 20.2094 58.3922 20.2094C58.487 20.2094 58.5817 20.2094 58.6764 20.2094C58.6952 20.2094 58.714 20.2094 58.7334 20.2094C59.1502 20.2095 59.567 20.2094 59.9838 20.2093C60.079 20.2093 60.1741 20.2093 60.2693 20.2093C60.3075 20.2093 60.3456 20.2093 60.3838 20.2093C60.4028 20.2093 60.4217 20.2093 60.4412 20.2093C60.4795 20.2093 60.5178 20.2092 60.5561 20.2092C61.6426 20.2091 62.7291 20.209 63.8156 20.2091C63.8357 20.2091 63.8559 20.2091 63.8766 20.2091C64.101 20.2091 64.3254 20.2091 64.5498 20.2091C64.5802 20.2091 64.5802 20.2091 64.6112 20.2091C64.7795 20.2091 64.7795 20.2091 64.857 20.2091C66.153 20.2093 67.4491 20.2091 68.7451 20.2087C69.0717 20.2086 69.3983 20.2085 69.7249 20.2085C69.745 20.2085 69.7651 20.2084 69.7858 20.2084C70.4054 20.2083 71.025 20.2082 71.6446 20.2082C71.6738 20.2082 71.6738 20.2082 71.7036 20.2082C72.1305 20.2081 72.5574 20.2082 72.9844 20.2082C73.1371 20.2082 73.2899 20.2082 73.4427 20.2082C73.4807 20.2082 73.5187 20.2082 73.5567 20.2082C74.1625 20.2082 74.7683 20.2081 75.3742 20.2079C76.0012 20.2076 76.6282 20.2076 77.2553 20.2079C77.3226 20.2079 77.3899 20.2079 77.4572 20.2079C77.4737 20.2079 77.4902 20.208 77.5073 20.208C77.769 20.208 78.0308 20.2079 78.2925 20.2077C78.5498 20.2075 78.807 20.2076 79.0643 20.2078C79.202 20.2079 79.3396 20.208 79.4773 20.2077C79.6025 20.2075 79.7276 20.2076 79.8528 20.2079C79.8979 20.2079 79.9429 20.2079 79.988 20.2077C80.419 20.2063 80.419 20.2063 80.5929 20.2754C80.6057 20.2803 80.6186 20.2851 80.6318 20.2901C80.8986 20.399 81.0978 20.5803 81.2329 20.8353C81.2426 20.8533 81.2523 20.8714 81.2622 20.8899C81.3924 21.1635 81.4047 21.4913 81.3128 21.778C81.1741 22.1357 80.9493 22.3639 80.6002 22.5185C80.4636 22.5661 80.3423 22.5807 80.1987 22.58C80.17 22.5801 80.17 22.5801 80.1408 22.5802C80.0767 22.5803 80.0126 22.5802 79.9485 22.5801C79.902 22.5801 79.8554 22.5802 79.8088 22.5803C79.6938 22.5805 79.5788 22.5804 79.4638 22.5803C79.325 22.5802 79.1863 22.5804 79.0475 22.5805C78.7882 22.5808 78.5289 22.5808 78.2696 22.5808C78.0068 22.5807 77.744 22.5808 77.4812 22.5809C77.4646 22.5809 77.448 22.5809 77.4309 22.5809C77.3633 22.581 77.2958 22.581 77.2282 22.5811C76.5229 22.5815 75.8177 22.5816 75.1125 22.5816C75.0366 22.5816 74.9606 22.5816 74.8847 22.5816C74.8564 22.5816 74.8564 22.5816 74.8276 22.5816C74.4102 22.5816 73.9928 22.5817 73.5755 22.5818C73.4036 22.5819 73.2318 22.5819 73.06 22.5819C73.041 22.582 73.022 22.582 73.0024 22.582C71.9144 22.5822 70.8263 22.5824 69.7383 22.5824C69.6976 22.5824 69.6568 22.5824 69.6161 22.5824C69.4322 22.5824 69.2484 22.5824 69.0645 22.5823C68.9825 22.5823 68.9005 22.5823 68.8185 22.5823C68.7775 22.5823 68.7364 22.5823 68.6954 22.5823C67.3976 22.5823 66.0997 22.5826 64.8019 22.5832C64.4749 22.5833 64.1479 22.5834 63.8209 22.5836C63.7907 22.5836 63.7907 22.5836 63.7599 22.5836C63.1395 22.5838 62.519 22.584 61.8986 22.584C61.8791 22.584 61.8596 22.584 61.8395 22.5841C61.412 22.5841 60.9844 22.5841 60.5569 22.5841C60.4039 22.5841 60.2509 22.5841 60.0979 22.5841C60.0599 22.5841 60.0218 22.5841 59.9837 22.5841C59.3771 22.5841 58.7705 22.5843 58.1638 22.5846C57.5529 22.585 56.9419 22.5851 56.331 22.5848C56.2466 22.5848 56.1622 22.5847 56.0778 22.5847C56.053 22.5847 56.053 22.5847 56.0276 22.5847C55.7656 22.5846 55.5035 22.5848 55.2414 22.5851C54.9838 22.5853 54.7261 22.5853 54.4685 22.585C54.3306 22.5848 54.1928 22.5848 54.0549 22.5851C53.9295 22.5854 53.8042 22.5854 53.6788 22.585C53.6337 22.5849 53.5886 22.585 53.5435 22.5852C53.1285 22.5871 52.7957 22.5186 52.4889 22.216C52.2501 21.9656 52.1702 21.6522 52.1729 21.3152C52.1951 20.9885 52.3425 20.7176 52.5742 20.4904C52.6539 20.4234 52.7406 20.3751 52.8329 20.3279C52.846 20.3212 52.859 20.3146 52.8725 20.3077C53.0338 20.2297 53.1917 20.2095 53.3694 20.2104Z" fill="white"/>
<path d="M23.0806 37.036C23.7024 37.4609 24.4163 37.7191 25.1734 37.5917C25.2755 37.5719 25.3744 37.5436 25.4734 37.5117C25.4859 37.5077 25.4983 37.5036 25.5112 37.4995C25.8277 37.3953 26.1126 37.2364 26.3871 37.0493C26.7952 36.7715 27.1821 36.6177 27.6831 36.6806C28.0351 36.7551 28.3033 36.9935 28.4953 37.2863C28.6756 37.596 28.7327 37.9496 28.6434 38.299C28.4985 38.7325 28.1701 39.0443 27.8134 39.3113C27.8006 39.321 27.7878 39.3306 27.7746 39.3406C26.9178 39.9844 25.9001 40.2656 24.8373 40.2578C24.7681 40.2573 24.699 40.2574 24.6298 40.2575C24.2706 40.2571 23.9144 40.2407 23.5621 40.1661C23.5309 40.1596 23.5309 40.1596 23.499 40.153C22.704 39.9829 22.0104 39.6175 21.3934 39.0913C21.3812 39.0812 21.3691 39.0711 21.3566 39.0608C21.0268 38.7847 20.8271 38.408 20.7889 37.9818C20.7768 37.659 20.8973 37.3792 21.0934 37.1318C21.1041 37.1175 21.1147 37.1033 21.1257 37.0886C21.6408 36.443 22.4912 36.632 23.0806 37.036Z" fill="white"/>
</g>
<defs>
<clipPath id="clip0_161_481">
<rect width="90" height="90" fill="white" transform="translate(0.333008)"/>
</clipPath>
</defs>
</svg>
