<svg width="91" height="90" viewBox="0 0 91 90" fill="none" xmlns="http://www.w3.org/2000/svg">
<path d="M16.0819 8.03945C16.1688 8.03928 16.1688 8.03928 16.2574 8.0391C16.4507 8.03878 16.6439 8.03886 16.8372 8.03894C16.9775 8.03879 17.1178 8.03862 17.2581 8.03843C17.6026 8.03801 17.9472 8.03787 18.2918 8.03784C18.7048 8.03778 19.1177 8.0374 19.5307 8.03702C20.5283 8.0361 21.5259 8.03576 22.5236 8.03549C22.9956 8.03536 23.4676 8.03515 23.9397 8.03494C25.5559 8.0342 27.1721 8.03359 28.7884 8.0334C28.8898 8.03338 28.9911 8.03337 29.0925 8.03336C29.1941 8.03335 29.2957 8.03333 29.3973 8.03332C29.6012 8.0333 29.805 8.03327 30.0089 8.03324C30.0594 8.03324 30.1099 8.03323 30.162 8.03322C31.8018 8.03302 33.4417 8.03211 35.0815 8.03078C36.8159 8.02938 38.5503 8.02859 40.2847 8.02852C40.4751 8.02851 40.6654 8.0285 40.8558 8.02849C40.9027 8.02848 40.9495 8.02848 40.9978 8.02848C41.7521 8.02841 42.5063 8.02778 43.2605 8.02695C44.0183 8.02613 44.7762 8.02595 45.534 8.02641C45.9841 8.02666 46.4343 8.02644 46.8845 8.02554C47.2206 8.02492 47.5567 8.02519 47.8928 8.02581C48.0288 8.02592 48.1648 8.02574 48.3008 8.02525C48.4856 8.02462 48.6704 8.02504 48.8552 8.02573C48.908 8.02529 48.9608 8.02486 49.0152 8.02441C49.5844 8.02898 50.0696 8.1653 50.4879 8.56059C50.8776 8.97712 51.0439 9.42866 51.0239 9.99716C50.9589 10.535 50.7239 10.9444 50.3157 11.3C49.8593 11.6095 49.3481 11.6594 48.8106 11.6567C48.7238 11.6569 48.7238 11.6569 48.6353 11.6572C48.4412 11.6576 48.2472 11.6572 48.0531 11.6567C47.9127 11.6569 47.7722 11.657 47.6318 11.6573C47.3263 11.6576 47.0208 11.6576 46.7153 11.6573C46.261 11.6569 45.8067 11.6571 45.3525 11.6575C44.588 11.6581 43.8236 11.6582 43.0592 11.658C41.9667 11.6579 40.8743 11.6586 39.7819 11.6596C39.3434 11.66 38.9049 11.6603 38.4663 11.6607C38.3933 11.6607 38.3933 11.6607 38.3187 11.6608C37.1592 11.6617 35.9996 11.6623 34.8401 11.6628C34.7894 11.6629 34.7386 11.6629 34.6864 11.6629C33.503 11.6635 32.3196 11.6638 31.1362 11.664C31.0599 11.664 31.0599 11.664 30.982 11.664C30.7254 11.664 30.4688 11.6641 30.2122 11.6641C30.1615 11.6641 30.1108 11.6641 30.0586 11.6641C29.9562 11.6641 29.8539 11.6641 29.7515 11.6641C28.0598 11.6643 26.368 11.6653 24.6763 11.6671C24.4373 11.6674 24.1983 11.6676 23.9593 11.6679C23.9122 11.6679 23.8652 11.6679 23.8167 11.668C23.0603 11.6687 22.3039 11.6686 21.5475 11.6682C20.7871 11.6677 20.0266 11.6681 19.2661 11.6693C18.8146 11.67 18.3631 11.67 17.9115 11.6691C17.574 11.6686 17.2365 11.6692 16.899 11.6702C16.7627 11.6705 16.6264 11.6703 16.4901 11.6698C15.2506 11.665 14.255 11.8332 13.3359 12.7314C12.7599 13.3435 12.4231 14.1401 12.4256 14.978C12.4255 15.0418 12.4255 15.0418 12.4253 15.1069C12.425 15.2502 12.4252 15.3935 12.4253 15.5369C12.4252 15.6408 12.4251 15.7447 12.4249 15.8487C12.4245 16.136 12.4245 16.4232 12.4246 16.7105C12.4246 17.0224 12.4242 17.3343 12.4239 17.6463C12.4234 18.2656 12.4232 18.885 12.423 19.5044C12.4229 20.246 12.4224 20.9876 12.4219 21.7292C12.4207 23.5219 12.4201 25.3145 12.4196 27.1072C12.4194 27.7008 12.4192 28.2945 12.419 28.8881C12.419 28.9509 12.419 28.9509 12.4189 29.015C12.4189 29.1844 12.4188 29.3539 12.4188 29.5233C12.4177 32.4213 12.4169 35.3194 12.4164 38.2174C12.4164 38.4451 12.4164 38.6727 12.4163 38.9004C12.4163 38.9681 12.4163 38.9681 12.4163 39.0372C12.4162 39.4947 12.4162 39.9523 12.4161 40.4098C12.4161 40.5015 12.4161 40.5933 12.4161 40.685C12.4156 43.6311 12.4143 46.5771 12.4125 49.5232C12.4111 51.6399 12.4099 53.7566 12.4095 55.8733C12.4095 55.9169 12.4095 55.9604 12.4094 56.0052C12.4093 56.9609 12.4091 57.9167 12.4091 58.8724C12.4091 59.2569 12.409 59.6414 12.409 60.026C12.409 60.0681 12.409 60.1102 12.409 60.1535C12.4089 61.509 12.4081 62.8645 12.4069 64.22C12.4057 65.5855 12.4052 66.9509 12.4058 68.3164C12.4061 69.1636 12.4059 70.0108 12.4045 70.8579C12.4038 71.3983 12.4038 71.9387 12.4046 72.4791C12.405 72.7871 12.405 73.0951 12.404 73.4031C12.4031 73.6835 12.4033 73.9638 12.4043 74.2442C12.4045 74.3448 12.4043 74.4454 12.4037 74.5461C12.397 75.6633 12.6635 76.5861 13.4709 77.4029C14.0556 77.9469 14.843 78.3073 15.6496 78.308C15.7198 78.3082 15.79 78.3084 15.8623 78.3086C15.9401 78.3086 16.018 78.3085 16.0958 78.3084C16.1789 78.3085 16.2619 78.3087 16.345 78.3089C16.5743 78.3093 16.8036 78.3093 17.0329 78.3093C17.282 78.3094 17.5311 78.3098 17.7802 78.3101C18.2747 78.3108 18.7692 78.3111 19.2637 78.3113C19.8558 78.3116 20.4479 78.3122 21.0401 78.3128C22.4714 78.3143 23.9028 78.3152 25.3342 78.3159C25.8083 78.3161 26.2824 78.3164 26.7564 78.3167C29.2768 78.3181 31.7972 78.3194 34.3176 78.3201C34.9016 78.3202 35.4856 78.3204 36.0697 78.3206C36.1422 78.3206 36.2148 78.3206 36.2895 78.3206C38.642 78.3213 40.9944 78.3231 43.3468 78.3255C45.7649 78.3279 48.1831 78.3294 50.6012 78.3297C50.9428 78.3298 51.2843 78.3298 51.6259 78.3299C51.6931 78.3299 51.7603 78.3299 51.8295 78.3299C52.9113 78.3301 53.9931 78.3313 55.0749 78.3328C56.1623 78.3343 57.2498 78.3347 58.3372 78.3341C58.9832 78.3338 59.6292 78.3342 60.2752 78.3358C60.7069 78.3368 61.1387 78.3367 61.5704 78.3358C61.8163 78.3354 62.0621 78.3353 62.308 78.3366C62.5321 78.3377 62.7562 78.3375 62.9804 78.3362C63.098 78.3359 63.2155 78.337 63.3331 78.3381C64.1456 78.3307 64.8741 78.1062 65.5261 77.6158C65.5679 77.5846 65.6096 77.5535 65.6526 77.5215C66.3495 76.9594 66.7011 76.1381 66.8463 75.2759C66.8689 74.975 66.8693 74.6755 66.8676 74.3741C66.8678 74.2851 66.868 74.1962 66.8683 74.1072C66.8689 73.8648 66.8684 73.6224 66.8678 73.38C66.8672 73.1178 66.8677 72.8556 66.8681 72.5934C66.8686 72.1396 66.8686 71.6858 66.8681 71.232C66.8674 70.5753 66.868 69.9185 66.8688 69.2618C66.8702 68.1952 66.8709 67.1286 66.8712 66.062C66.8712 65.9663 66.8712 65.9663 66.8712 65.8687C66.8714 65.1572 66.8714 64.4456 66.8713 63.734C66.8713 63.4758 66.8713 63.2176 66.8713 62.9594C66.8713 62.8956 66.8713 62.8319 66.8713 62.7663C66.8712 61.7034 66.8721 60.6405 66.8736 59.5776C66.8745 58.9226 66.8747 58.2675 66.8738 57.6125C66.8733 57.1637 66.8735 56.715 66.8744 56.2662C66.8749 56.0075 66.8751 55.7487 66.8742 55.49C66.8734 55.2528 66.8736 55.0157 66.8747 54.7786C66.8749 54.6931 66.8748 54.6076 66.8741 54.522C66.8697 53.858 66.9419 53.2735 67.4203 52.7743C67.8707 52.3886 68.2972 52.312 68.8776 52.318C69.3325 52.3522 69.686 52.5353 70.0171 52.8432C70.3187 53.1965 70.4693 53.6063 70.4701 54.0643C70.4702 54.1012 70.4703 54.1382 70.4705 54.1763C70.4708 54.301 70.4708 54.4256 70.4708 54.5503C70.471 54.6403 70.4712 54.7302 70.4714 54.8202C70.472 55.0681 70.4722 55.3161 70.4724 55.564C70.4726 55.8312 70.4732 56.0983 70.4737 56.3655C70.4748 57.0113 70.4754 57.6572 70.4759 58.303C70.4761 58.6074 70.4764 58.9117 70.4767 59.216C70.4777 60.2282 70.4785 61.2404 70.479 62.2526C70.4791 62.5154 70.4792 62.7782 70.4793 63.041C70.4793 63.1063 70.4794 63.1716 70.4794 63.2389C70.4799 64.2952 70.4813 65.3516 70.4832 66.408C70.4851 67.4932 70.4861 68.5785 70.4863 69.6637C70.4864 70.2727 70.4869 70.8818 70.4884 71.4908C70.4896 72.0099 70.4901 72.529 70.4895 73.0481C70.4893 73.3126 70.4894 73.577 70.4905 73.8415C70.4987 75.8784 70.4986 75.8785 70.2328 76.8168C70.2164 76.8755 70.2164 76.8755 70.1998 76.9354C69.885 78.058 69.2516 78.9998 68.4534 79.8415C68.4154 79.8837 68.3774 79.9258 68.3382 79.9692C67.1887 81.1925 65.4539 81.8368 63.8042 81.9531C63.5299 81.961 63.2559 81.9609 62.9815 81.9604C62.8987 81.9605 62.8159 81.9606 62.7331 81.9607C62.5059 81.961 62.2787 81.9609 62.0515 81.9608C61.8042 81.9607 61.5568 81.9609 61.3095 81.9611C60.8762 81.9614 60.4428 81.9615 60.0094 81.9614C59.365 81.9614 58.7205 81.9616 58.076 81.9619C56.858 81.9624 55.64 81.9626 54.422 81.9626C53.4813 81.9627 52.5407 81.9628 51.6 81.963C51.3293 81.963 51.0585 81.9631 50.7878 81.9631C50.7204 81.9631 50.6531 81.9631 50.5838 81.9632C48.6904 81.9635 46.797 81.9637 44.9036 81.9637C44.8322 81.9637 44.7608 81.9637 44.6873 81.9637C44.3254 81.9637 43.9636 81.9637 43.6018 81.9637C43.494 81.9637 43.494 81.9637 43.384 81.9637C43.2387 81.9637 43.0934 81.9637 42.948 81.9637C40.6872 81.9636 38.4264 81.9641 36.1656 81.9649C33.6256 81.9657 31.0857 81.9662 28.5457 81.9662C28.2748 81.9662 28.0039 81.9662 27.7331 81.9662C27.6664 81.9662 27.5997 81.9662 27.5309 81.9662C26.4579 81.9662 25.3848 81.9665 24.3118 81.967C23.2332 81.9675 22.1546 81.9675 21.076 81.9672C20.4354 81.967 19.7947 81.9671 19.1541 81.9676C18.7259 81.968 18.2976 81.9679 17.8694 81.9675C17.6256 81.9673 17.3818 81.9672 17.1381 81.9677C15.0026 81.9715 12.9567 81.7613 11.2851 80.2981C11.2388 80.2596 11.1926 80.2211 11.1449 80.1815C9.75653 78.9954 8.92918 77.2726 8.77119 75.4674C8.74666 75.0638 8.75155 74.6595 8.752 74.2554C8.75191 74.1517 8.75179 74.048 8.75165 73.9442C8.75133 73.6591 8.75137 73.374 8.75146 73.0889C8.7515 72.7788 8.75121 72.4686 8.75097 72.1584C8.75053 71.5432 8.75041 70.9281 8.75038 70.3129C8.75032 69.576 8.74994 68.8391 8.74955 68.1023C8.74865 66.3636 8.7483 64.625 8.74804 62.8863C8.7479 62.0015 8.74769 61.1167 8.74746 60.2319C8.74673 57.3929 8.74612 54.5538 8.74592 51.7148C8.74591 51.5791 8.7459 51.4435 8.74589 51.3078C8.74587 51.0358 8.74585 50.7637 8.74583 50.4917C8.74581 50.1732 8.74579 49.8547 8.74577 49.5362C8.74576 49.4451 8.74575 49.3539 8.74575 49.2627C8.74554 46.3356 8.74468 43.4085 8.74334 40.4813C8.74238 38.3776 8.74149 36.2739 8.74123 34.1702C8.74123 34.1269 8.74122 34.0836 8.74122 34.039C8.7411 33.0887 8.74103 32.1384 8.74101 31.188C8.74101 30.8479 8.74099 30.5079 8.74098 30.1678C8.74098 30.0832 8.74097 29.9986 8.74097 29.914C8.74092 28.5673 8.74035 27.2207 8.73951 25.874C8.73865 24.4793 8.73841 23.0847 8.73888 21.69C8.73914 20.8864 8.73892 20.0827 8.73801 19.2791C8.73745 18.7419 8.73752 18.2047 8.73809 17.6675C8.7384 17.3616 8.73844 17.0558 8.73772 16.75C8.73706 16.4711 8.73722 16.1922 8.73798 15.9133C8.73812 15.8137 8.73798 15.714 8.7375 15.6144C8.73337 14.692 8.79359 13.7296 9.11111 12.8551C9.12825 12.8063 9.14538 12.7574 9.16304 12.707C9.79812 10.964 11.0989 9.53108 12.7805 8.73314C13.8449 8.24691 14.9135 8.03721 16.0819 8.03945Z" fill="white"/>
<path d="M50.8616 15.9652C50.904 15.965 50.9464 15.9648 50.9901 15.9646C51.1323 15.9642 51.2745 15.9645 51.4167 15.9648C51.5197 15.9647 51.6227 15.9644 51.7256 15.9642C52.0086 15.9636 52.2916 15.9637 52.5746 15.964C52.8798 15.9641 53.185 15.9636 53.4902 15.9632C54.0881 15.9624 54.6861 15.9623 55.284 15.9625C55.77 15.9626 56.2559 15.9625 56.7418 15.9622C56.8455 15.9622 56.8455 15.9622 56.9513 15.9621C57.0917 15.962 57.2321 15.962 57.3725 15.9619C58.6897 15.9613 60.0069 15.9614 61.3241 15.9618C62.5295 15.9621 63.7349 15.9614 64.9403 15.9603C66.1776 15.9592 67.4149 15.9587 68.6522 15.959C69.347 15.9591 70.0418 15.9589 70.7366 15.9581C71.3281 15.9574 71.9196 15.9574 72.5111 15.9581C72.813 15.9584 73.1148 15.9585 73.4166 15.9578C73.6929 15.9572 73.9692 15.9573 74.2455 15.9581C74.3455 15.9583 74.4454 15.9581 74.5454 15.9577C74.6813 15.9571 74.8172 15.9576 74.9532 15.9583C75.0664 15.9583 75.0664 15.9583 75.1819 15.9583C75.5147 15.9912 75.7705 16.0706 76.0173 16.2976C76.1865 16.5272 76.2644 16.7881 76.3486 17.0574C76.3676 17.116 76.3866 17.1747 76.4062 17.2351C76.4733 17.4441 76.5389 17.6535 76.604 17.863C76.6165 17.9032 76.629 17.9433 76.6419 17.9847C76.8493 18.6502 77.0532 19.3168 77.2563 19.9837C77.3994 20.4533 77.5427 20.9229 77.686 21.3925C77.7015 21.4433 77.717 21.494 77.733 21.5463C77.9177 22.1514 78.1049 22.7555 78.2986 23.3578C78.3259 23.4431 78.3259 23.4431 78.3537 23.5301C78.4322 23.7754 78.5115 24.0205 78.5927 24.2649C78.758 24.7732 78.9342 25.3171 78.6883 25.8244C78.6445 25.8714 78.6007 25.9185 78.5555 25.967C78.5165 26.0094 78.4774 26.0518 78.4371 26.0954C78.1867 26.2438 77.9233 26.2716 77.6372 26.3095C77.7031 26.344 77.769 26.3786 77.8369 26.4142C78.6432 26.8439 79.3226 27.3395 79.9905 27.9645C80.0285 27.9986 80.0665 28.0328 80.1057 28.0679C81.1431 29.0367 81.8328 30.4474 82.2182 31.7918C82.2287 31.828 82.2392 31.8642 82.25 31.9014C82.2855 32.0342 82.3144 32.1676 82.3438 32.3018C82.358 32.3619 82.3723 32.422 82.387 32.484C82.5777 33.3749 82.5392 34.2887 82.5353 35.1946C82.5345 35.4364 82.5345 35.6782 82.5345 35.92C82.5343 36.3247 82.5334 36.7294 82.5321 37.1341C82.5305 37.6541 82.5299 38.174 82.5296 38.694C82.5294 39.1419 82.5287 39.5898 82.5279 40.0377C82.5276 40.1815 82.5275 40.3253 82.5273 40.4692C82.527 40.6942 82.5265 40.9192 82.5256 41.1441C82.5254 41.2269 82.5252 41.3096 82.5251 41.3923C82.525 41.5047 82.5246 41.6171 82.524 41.7294C82.5239 41.7924 82.5237 41.8554 82.5235 41.9204C82.516 42.0609 82.516 42.0609 82.4586 42.118C82.3344 42.14 82.3344 42.14 82.1716 42.118C82.039 42.0234 81.925 41.931 81.8057 41.8219C81.734 41.7586 81.6623 41.6953 81.5907 41.632C81.5355 41.5826 81.5355 41.5826 81.4793 41.5322C81.302 41.3743 81.1214 41.2202 80.9411 41.0657C80.8697 41.0041 80.7982 40.9425 80.7268 40.8809C80.691 40.85 80.6552 40.8192 80.6184 40.7874C80.502 40.6868 80.3857 40.5861 80.2694 40.4854C80.2305 40.4518 80.1916 40.4182 80.1516 40.3835C80.0772 40.3192 80.0029 40.2548 79.9286 40.1904C79.8949 40.1613 79.8613 40.1322 79.8266 40.1022C79.7825 40.064 79.7825 40.064 79.7375 40.025C79.6454 39.9449 79.6454 39.9449 79.5281 39.8783C79.4165 39.7781 79.4165 39.7781 79.3828 39.6394C79.3805 39.5829 79.3782 39.5264 79.3758 39.4681C79.3726 39.4015 79.3694 39.3348 79.3661 39.2662C79.3637 39.1895 79.3614 39.1128 79.3591 39.0362C79.3559 38.9509 79.3527 38.8656 79.3494 38.7804C79.3405 38.5364 79.3332 38.2925 79.3264 38.0484C79.3218 37.8848 79.3168 37.7212 79.3118 37.5577C79.2975 37.093 79.2833 36.6284 79.2703 36.1637C79.2623 35.8779 79.2536 35.5921 79.2444 35.3064C79.2411 35.1987 79.238 35.0911 79.2352 34.9835C79.2125 34.1137 79.1542 33.2293 78.8605 32.4017C78.8458 32.3596 78.8311 32.3175 78.816 32.2742C78.2891 30.828 77.2016 29.8974 75.8399 29.2379C75.238 28.9748 74.547 28.7568 73.8879 28.7559C73.7782 28.7555 73.7782 28.7555 73.6662 28.7551C73.5856 28.7551 73.5049 28.7552 73.4243 28.7552C73.3391 28.755 73.2538 28.7548 73.1686 28.7546C72.9375 28.7541 72.7063 28.754 72.4752 28.7539C72.2824 28.7539 72.0895 28.7537 71.8966 28.7535C71.4419 28.753 70.9871 28.7529 70.5324 28.7529C70.0628 28.7529 69.5932 28.7523 69.1235 28.7514C68.7205 28.7507 68.3175 28.7504 67.9145 28.7504C67.6737 28.7504 67.4329 28.7503 67.1921 28.7497C66.9659 28.7491 66.7397 28.7491 66.5135 28.7495C66.4304 28.7496 66.3472 28.7495 66.264 28.7491C66.1509 28.7487 66.0377 28.749 65.9245 28.7494C65.8611 28.7493 65.7976 28.7493 65.7323 28.7493C65.5743 28.7486 65.5743 28.7486 65.4688 28.8776C65.451 29.0185 65.451 29.0185 65.4534 29.1852C65.453 29.2505 65.4525 29.3159 65.452 29.3832C65.452 29.4553 65.4521 29.5273 65.4521 29.6016C65.4518 29.678 65.4514 29.7544 65.4509 29.8308C65.4499 30.039 65.4497 30.2472 65.4496 30.4553C65.4495 30.5858 65.4493 30.7163 65.449 30.8467C65.4479 31.3031 65.4474 31.7595 65.4475 32.2159C65.4476 32.639 65.4464 33.0621 65.4446 33.4852C65.4431 33.8498 65.4424 34.2143 65.4425 34.5788C65.4425 34.7959 65.4422 35.013 65.441 35.2301C65.4351 36.3429 65.4711 37.3969 65.8813 38.4476C65.8982 38.4918 65.9151 38.5359 65.9325 38.5814C66.2191 39.3041 66.6066 39.9444 67.1333 40.52C67.1691 40.5602 67.2048 40.6003 67.2416 40.6417C68.1147 41.5698 69.4926 42.1934 70.7693 42.239C70.8357 42.2388 70.9022 42.2387 70.9706 42.2386C71.0261 42.2386 71.0261 42.2386 71.0827 42.2386C71.2035 42.2386 71.3243 42.2381 71.4451 42.2377C71.5295 42.2376 71.6138 42.2375 71.6982 42.2374C71.9191 42.2372 72.14 42.2366 72.3609 42.236C72.5868 42.2354 72.8126 42.2352 73.0385 42.2349C73.4808 42.2343 73.9231 42.2333 74.3655 42.2321C74.204 42.1161 74.0425 42.0001 73.881 41.8841C73.836 41.8518 73.791 41.8195 73.7447 41.7862C73.4757 41.593 73.2065 41.4 72.9372 41.2073C72.7242 41.0547 72.5116 40.9016 72.2992 40.7483C72.2516 40.714 72.2041 40.6797 72.1551 40.6444C72.0092 40.539 71.8636 40.4332 71.718 40.3274C71.6738 40.2955 71.6297 40.2636 71.5842 40.2307C70.7563 39.6267 70.7563 39.6267 70.6346 39.3215C70.6331 38.9709 70.8413 38.7479 71.0472 38.4833C71.1201 38.3871 71.1931 38.291 71.266 38.1948C71.3226 38.1209 71.3226 38.1209 71.3803 38.0455C71.5677 37.8004 71.7524 37.5535 71.9368 37.3062C71.9705 37.2616 72.0043 37.217 72.039 37.1711C72.2925 36.8402 72.2925 36.8402 72.4713 36.468C72.4228 36.2019 72.3093 36.0501 72.1234 35.858C71.9368 35.6601 71.7594 35.4598 71.5889 35.2481C71.3776 34.9883 71.1554 34.7425 70.9267 34.4981C70.7084 34.2635 70.5059 34.0184 70.3043 33.7694C70.1704 33.6084 70.0308 33.4543 69.8884 33.3006C69.6528 33.046 69.4317 32.7832 69.2138 32.5136C69.0405 32.3056 68.8557 32.1092 68.6687 31.9133C68.5697 31.79 68.5335 31.714 68.5109 31.5599C68.8411 31.5901 69.093 31.7212 69.3826 31.8703C69.4338 31.8961 69.4849 31.922 69.5376 31.9486C69.8974 32.1313 70.2543 32.3194 70.6109 32.5082C71.1308 32.7813 71.658 33.04 72.1844 33.3006C73.4058 33.9054 73.4058 33.9054 73.9575 34.2008C74.2454 34.3538 74.5371 34.4979 74.8303 34.6404C74.9145 34.6815 74.9988 34.7227 75.0831 34.7639C75.2094 34.8255 75.3358 34.8869 75.4626 34.9476C75.5808 35.0041 75.6986 35.0615 75.8163 35.119C75.8519 35.1357 75.8874 35.1524 75.924 35.1696C76.1514 35.282 76.2937 35.3996 76.4318 35.6119C76.4628 35.997 76.2298 36.2394 76.0006 36.5305C75.6613 36.9625 75.3291 37.4003 74.9969 37.8377C74.9664 37.8777 74.936 37.9177 74.9047 37.959C74.8291 38.0593 74.7549 38.1604 74.6812 38.2621C74.6217 38.3432 74.6217 38.3432 74.561 38.426C74.4657 38.6073 74.4559 38.7201 74.4803 38.922C74.5726 39.0353 74.6563 39.1142 74.7673 39.2074C74.8084 39.245 74.8495 39.2825 74.8919 39.3213C75.2106 39.6124 75.5407 39.8869 75.877 40.1574C76.0698 40.3131 76.2615 40.4701 76.4533 40.627C76.4952 40.6613 76.5371 40.6955 76.5803 40.7308C76.8669 40.9658 77.1512 41.2032 77.4342 41.4424C77.7282 41.6906 78.0267 41.9332 78.3259 42.175C78.6958 42.474 79.0624 42.7762 79.4256 43.083C79.7256 43.3359 80.0297 43.5834 80.3349 43.8301C80.7073 44.1311 81.0769 44.435 81.4414 44.7455C81.6649 44.9349 81.8956 45.1107 82.1366 45.2778C82.256 45.3982 82.272 45.4901 82.2864 45.6563C82.1848 45.7573 82.0496 45.7208 81.9143 45.7214C81.8686 45.7213 81.823 45.7213 81.7759 45.7212C81.7276 45.7214 81.6793 45.7215 81.6296 45.7217C81.4657 45.7221 81.3018 45.7221 81.1378 45.7222C81.02 45.7224 80.9021 45.7227 80.7843 45.7229C80.4587 45.7236 80.1332 45.7239 79.8076 45.7242C79.4572 45.7245 79.1067 45.7252 78.7562 45.7258C77.949 45.7271 77.1418 45.728 76.3346 45.7287C76.0554 45.7289 75.7761 45.7292 75.4969 45.7295C74.0129 45.7309 72.5289 45.7322 71.0449 45.7329C70.7009 45.733 70.3569 45.7332 70.0129 45.7334C69.9701 45.7334 69.9274 45.7334 69.8834 45.7334C68.4978 45.7341 67.1122 45.7359 65.7266 45.7383C64.3027 45.7407 62.8788 45.7422 61.4549 45.7425C61.2538 45.7426 61.0527 45.7426 60.8516 45.7427C60.8121 45.7427 60.7725 45.7427 60.7317 45.7427C60.0945 45.7429 59.4573 45.7441 58.8201 45.7456C58.1796 45.7471 57.5392 45.7475 56.8987 45.7469C56.5516 45.7466 56.2046 45.7468 55.8575 45.7482C55.5399 45.7495 55.2223 45.7494 54.9047 45.7483C54.7897 45.7482 54.6747 45.7485 54.5597 45.7493C54.4034 45.7504 54.2473 45.7498 54.0911 45.7487C54.024 45.7498 54.024 45.7498 53.9555 45.7509C53.6175 45.7456 53.3926 45.6353 53.1282 45.428C52.9142 45.1878 52.8908 44.8837 52.8986 44.572C52.9972 44.2399 53.1632 44.0064 53.4624 43.8231C53.6153 43.7618 53.7332 43.7593 53.898 43.76C53.96 43.76 54.0221 43.7601 54.086 43.7601C54.1526 43.7607 54.2192 43.7612 54.2878 43.7618C54.3906 43.7621 54.3906 43.7621 54.4953 43.7623C54.7141 43.763 54.9328 43.7644 55.1515 43.7659C55.2998 43.7664 55.4481 43.767 55.5963 43.7674C55.9599 43.7687 56.3234 43.7706 56.6869 43.773C56.6937 43.7204 56.7005 43.6678 56.7075 43.6136C56.8616 42.4731 57.2464 41.4641 58.1792 40.7269C58.4503 40.5368 58.7601 40.3488 59.0976 40.3488C59.0976 39.5578 59.0976 38.7668 59.0976 37.9518C58.8381 37.9527 58.5785 37.9536 58.3111 37.9545C57.4531 37.9574 56.5952 37.9593 55.7372 37.9607C55.2171 37.9616 54.6969 37.9628 54.1768 37.9647C53.7233 37.9664 53.2698 37.9675 52.8163 37.9679C52.5763 37.9681 52.3363 37.9687 52.0963 37.9699C51.8701 37.9711 51.6439 37.9714 51.4176 37.9712C51.3349 37.9712 51.2523 37.9716 51.1696 37.9722C50.3452 37.9785 49.72 37.8238 49.0953 37.265C48.4914 36.6348 48.2228 35.7948 48.1606 34.9409C48.1556 34.8742 48.1507 34.8074 48.1456 34.7387C48.142 34.6878 48.1384 34.637 48.1346 34.5847C48.0768 34.5852 48.0768 34.5852 48.0178 34.5858C47.6156 34.5896 47.2133 34.5922 46.8111 34.5941C46.6611 34.5949 46.5111 34.5961 46.3611 34.5976C46.1451 34.5997 45.9291 34.6006 45.7131 34.6014C45.6464 34.6023 45.5798 34.6031 45.5111 34.6041C45.0599 34.6042 44.7099 34.5748 44.3535 34.2743C44.1342 34.0113 44.0829 33.8124 44.0906 33.4741C44.1512 33.0058 44.3298 32.5613 44.4827 32.1164C44.5233 31.9958 44.5638 31.8752 44.6042 31.7545C44.6955 31.4823 44.7873 31.2102 44.8793 30.9382C45.0511 30.4298 45.2197 29.9204 45.388 29.4109C45.4033 29.3646 45.4186 29.3184 45.4343 29.2708C45.4971 29.0807 45.5599 28.8906 45.6227 28.7005C45.7358 28.3584 45.849 28.0162 45.9623 27.6742C45.9864 27.6013 45.9864 27.6013 46.0111 27.5269C46.0435 27.4291 46.0759 27.3313 46.1082 27.2335C46.4425 26.2243 46.7759 25.2147 47.1086 24.205C47.5074 22.9948 47.9067 21.7848 48.3065 20.575C48.3652 20.3976 48.4238 20.2201 48.4824 20.0427C48.5032 19.9796 48.5032 19.9796 48.5245 19.9153C48.5522 19.8314 48.5799 19.7475 48.6076 19.6637C48.6752 19.4589 48.743 19.2543 48.8113 19.0498C48.9363 18.6748 49.06 18.2995 49.1783 17.9224C49.2331 17.7482 49.2889 17.5743 49.3448 17.4004C49.371 17.3182 49.3966 17.2359 49.4218 17.1534C49.6551 16.3899 49.6551 16.3899 49.9752 16.1504C50.27 16.0002 50.5325 15.9654 50.8616 15.9652ZM51.2915 17.9772C51.1391 18.356 50.9973 18.727 50.8754 19.115C50.86 19.1627 50.8446 19.2104 50.8287 19.2596C50.8142 19.3054 50.7997 19.3512 50.7848 19.3984C50.7718 19.4393 50.7588 19.4802 50.7455 19.5223C50.7105 19.641 50.7105 19.641 50.7175 19.8034C52.8768 19.8034 55.0361 19.8034 57.2609 19.8034C57.3851 18.8927 57.3851 18.8927 57.4331 17.9772C55.4064 17.9772 53.3796 17.9772 51.2915 17.9772ZM59.442 17.9772C59.3178 18.8879 59.3178 18.8879 59.2698 19.8034C61.6754 19.8034 64.0809 19.8034 66.5594 19.8034C66.521 19.1932 66.4634 18.5839 66.3872 17.9772C64.0953 17.9772 61.8034 17.9772 59.442 17.9772ZM68.3961 17.9772C68.3961 18.5886 68.4887 19.1971 68.5683 19.8034C70.7087 19.8034 72.849 19.8034 75.0543 19.8034C74.9295 19.1833 74.7305 18.5798 74.5377 17.9772C72.511 17.9772 70.4842 17.9772 68.3961 17.9772ZM50.0287 21.7438C49.8014 22.4218 49.5741 23.0998 49.34 23.7984C49.268 24.0109 49.1961 24.2234 49.122 24.4424C49.0579 24.6321 49.0579 24.6321 48.9937 24.8217C48.9651 24.9062 48.9364 24.9906 48.9076 25.075C48.8641 25.2029 48.8208 25.3309 48.7776 25.459C48.7647 25.4966 48.7518 25.5342 48.7385 25.5729C48.6854 25.7315 48.6512 25.8555 48.6512 26.0241C51.2651 26.0241 53.879 26.0241 56.5721 26.0241C56.7054 25.0233 56.7054 25.0233 56.8239 24.0211C56.8331 23.9377 56.8331 23.9377 56.8425 23.8526C56.855 23.7383 56.8675 23.624 56.8799 23.5096C56.8989 23.3349 56.9183 23.1602 56.9377 22.9854C56.95 22.8729 56.9623 22.7604 56.9746 22.6478C56.9832 22.5705 56.9832 22.5705 56.992 22.4916C56.9971 22.4433 57.0023 22.395 57.0077 22.3453C57.0123 22.3034 57.0168 22.2614 57.0216 22.2183C57.0332 22.0605 57.0313 21.902 57.0313 21.7438C54.7204 21.7438 52.4096 21.7438 50.0287 21.7438ZM59.0402 21.7438C58.9634 22.24 58.8933 22.7323 58.8389 23.2308C58.8314 23.2984 58.8239 23.3661 58.8162 23.4358C58.8006 23.5775 58.7851 23.7192 58.7696 23.8608C58.746 24.0772 58.7219 24.2936 58.6979 24.51C58.6827 24.6483 58.6675 24.7867 58.6523 24.9251C58.6452 24.9893 58.638 25.0536 58.6306 25.1198C58.6241 25.1802 58.6176 25.2406 58.6108 25.3029C58.6022 25.3818 58.6022 25.3818 58.5933 25.4624C58.5792 25.6491 58.581 25.8368 58.581 26.0241C59.7554 26.0241 60.9298 26.0241 62.1397 26.0241C62.1587 25.8734 62.1776 25.7228 62.1971 25.5675C62.3137 25.4516 62.5538 25.4965 62.7142 25.4935C62.7623 25.4924 62.8105 25.4913 62.8601 25.4901C63.02 25.4865 63.18 25.4832 63.3399 25.4799C63.4505 25.4775 63.5611 25.475 63.6717 25.4725C63.9633 25.466 64.255 25.4598 64.5467 25.4536C64.8441 25.4473 65.1415 25.4407 65.4389 25.4341C66.0228 25.4212 66.6068 25.4087 67.1907 25.3963C67.1583 24.9141 67.12 24.4335 67.067 23.9531C67.0608 23.8965 67.0547 23.8399 67.0483 23.7816C67.0355 23.6637 67.0225 23.5458 67.0095 23.428C66.9897 23.2475 66.9701 23.0669 66.9506 22.8863C66.938 22.7711 66.9254 22.6558 66.9127 22.5406C66.904 22.46 66.904 22.46 66.8951 22.3777C66.8868 22.3028 66.8868 22.3028 66.8783 22.2263C66.8735 22.1826 66.8687 22.1389 66.8638 22.0938C66.8458 21.9532 66.8458 21.9532 66.7889 21.7438C64.2319 21.7438 61.6748 21.7438 59.0402 21.7438ZM68.7979 21.7438C68.8466 22.5246 68.8466 22.5246 68.9216 23.3019C68.9278 23.3572 68.9339 23.4125 68.9403 23.4695C68.9531 23.5842 68.966 23.699 68.9791 23.8137C68.999 23.9897 69.0185 24.1657 69.038 24.3418C69.0506 24.4541 69.0632 24.5664 69.0759 24.6787C69.0817 24.7311 69.0875 24.7836 69.0935 24.8376C69.099 24.886 69.1046 24.9345 69.1103 24.9844C69.1151 25.0269 69.1199 25.0694 69.1249 25.1132C69.1409 25.2369 69.1409 25.2369 69.1997 25.3963C69.2605 25.3957 69.3213 25.3951 69.3839 25.3944C69.9638 25.3886 70.5436 25.3843 71.1235 25.3815C71.4214 25.3801 71.7193 25.3781 72.0173 25.3748C74.5918 25.3473 74.5918 25.3473 75.743 25.6817C75.7831 25.6928 75.8232 25.704 75.8645 25.7155C76.0821 25.7768 76.2948 25.8471 76.5071 25.9242C76.6205 25.9638 76.7339 26.0033 76.8473 26.0428C76.9183 26.0683 76.9183 26.0683 76.9908 26.0944C77.1098 26.1346 77.2278 26.1671 77.3502 26.1953C77.2981 26.1423 77.246 26.0894 77.1923 26.0348C77.05 25.869 76.9666 25.7215 76.8947 25.5158C76.8754 25.4604 76.856 25.4049 76.836 25.3478C76.7298 25.0286 76.629 24.708 76.5298 24.3867C76.5071 24.3136 76.4844 24.2406 76.4617 24.1675C76.4026 23.9775 76.3437 23.7873 76.2848 23.5972C76.2014 23.3277 76.1179 23.0582 76.0342 22.7888C75.9897 22.6457 75.9454 22.5026 75.9012 22.3595C75.8812 22.2952 75.8613 22.231 75.8407 22.1648C75.8232 22.1082 75.8057 22.0515 75.7876 21.9931C75.747 21.859 75.747 21.859 75.6856 21.7438C73.4127 21.7438 71.1397 21.7438 68.7979 21.7438ZM47.9624 27.9645C47.0575 30.0909 47.0575 30.0909 46.4701 32.5872C49.5575 32.5872 52.6449 32.5872 55.8259 32.5872C55.9085 32.4231 55.9119 32.2655 55.932 32.0831C55.9365 32.043 55.941 32.0029 55.9456 31.9616C55.9604 31.8286 55.9749 31.6956 55.9894 31.5626C55.9996 31.4702 56.0098 31.3778 56.02 31.2853C56.0414 31.0913 56.0627 30.8973 56.0838 30.7033C56.1109 30.4551 56.1383 30.2069 56.1659 29.9587C56.187 29.7677 56.208 29.5766 56.229 29.3856C56.239 29.2941 56.2491 29.2026 56.2592 29.1112C56.2734 28.983 56.2874 28.8547 56.3013 28.7264C56.3093 28.6535 56.3172 28.5806 56.3255 28.5055C56.3409 28.3257 56.3425 28.1449 56.3425 27.9645C53.5771 27.9645 50.8116 27.9645 47.9624 27.9645ZM58.3514 27.9645C58.2605 28.543 58.2605 28.543 58.1867 29.1223C58.1787 29.1946 58.1707 29.267 58.1624 29.3415C58.1541 29.4176 58.1458 29.4937 58.1375 29.5698C58.1287 29.6501 58.1199 29.7304 58.111 29.8107C58.0927 29.9772 58.0745 30.1438 58.0563 30.3104C58.0331 30.5236 58.0096 30.7368 57.9861 30.9499C57.9679 31.115 57.9498 31.28 57.9317 31.4451C57.9231 31.5237 57.9144 31.6024 57.9058 31.681C57.8937 31.7905 57.8818 31.9 57.8699 32.0095C57.8631 32.0716 57.8563 32.1338 57.8493 32.1978C57.8315 32.3699 57.8315 32.3699 57.8349 32.5872C59.2555 32.5872 60.6761 32.5872 62.1397 32.5872C62.1397 31.0617 62.1397 29.5362 62.1397 27.9645C60.8896 27.9645 59.6395 27.9645 58.3514 27.9645ZM50.1435 34.5847C50.1435 35.0248 50.1953 35.5185 50.5238 35.8509C50.7462 36.0196 50.8713 36.0187 51.1503 36.0193C51.1893 36.0195 51.2283 36.0196 51.2685 36.0198C51.3998 36.0203 51.5311 36.0203 51.6624 36.0204C51.7563 36.0207 51.8502 36.021 51.9441 36.0213C52.1466 36.0219 52.3492 36.0224 52.5517 36.0228C52.872 36.0234 53.1923 36.0246 53.5126 36.0258C54.4235 36.0294 55.3344 36.0324 56.2453 36.0343C56.7482 36.0354 57.251 36.037 57.7538 36.0393C58.02 36.0406 58.2861 36.0414 58.5523 36.0416C58.8027 36.0417 59.0532 36.0426 59.3036 36.0441C59.3955 36.0445 59.4873 36.0446 59.5792 36.0444C59.7048 36.0442 59.8303 36.045 59.9558 36.0461C60.0612 36.0464 60.0612 36.0464 60.1686 36.0467C60.4575 36.0795 60.6433 36.172 60.8375 36.3859C61.005 36.6266 61.0009 36.8119 61.0019 37.0973C61.0023 37.1446 61.0027 37.1919 61.0031 37.2407C61.0042 37.3978 61.0049 37.5549 61.0054 37.7119C61.0057 37.7656 61.0059 37.8192 61.0061 37.8744C61.0073 38.1583 61.0082 38.4421 61.0087 38.7259C61.0093 39.0191 61.0113 39.3121 61.0136 39.6052C61.0151 39.8307 61.0156 40.0561 61.0158 40.2815C61.016 40.3895 61.0167 40.4976 61.0178 40.6056C61.0192 40.757 61.0191 40.9083 61.0187 41.0596C61.0198 41.1264 61.0198 41.1264 61.021 41.1944C61.0181 41.4897 60.9553 41.6537 60.7622 41.8897C60.5403 42.0835 60.352 42.1216 60.0626 42.1358C59.7022 42.1679 59.4308 42.2425 59.1712 42.5018C58.8534 42.8906 58.7661 43.2838 58.6958 43.773C60.7604 43.773 62.825 43.773 64.9522 43.773C64.7486 43.5368 64.55 43.3117 64.3352 43.0881C62.1498 40.6969 62.1916 37.6828 62.1397 34.5847C58.181 34.5847 54.2222 34.5847 50.1435 34.5847Z" fill="white"/>
<path d="M70.5501 25.3322C71.0091 25.3271 71.4681 25.3231 71.9271 25.3206C72.1598 25.3192 72.3924 25.3175 72.6251 25.3144C73.694 25.3008 74.7015 25.3509 75.7424 25.6246C75.7817 25.6348 75.8211 25.645 75.8616 25.6555C76.0642 25.7095 76.2623 25.7723 76.4599 25.8421C76.5162 25.8615 76.5725 25.8808 76.6305 25.9008C78.85 26.6822 80.6397 28.1971 81.6592 30.3195C81.8813 30.7982 82.0722 31.2845 82.2176 31.7917C82.2334 31.846 82.2334 31.846 82.2494 31.9014C82.2849 32.0341 82.3138 32.1676 82.3432 32.3018C82.3646 32.3919 82.3646 32.3919 82.3864 32.4839C82.5771 33.3749 82.5386 34.2887 82.5347 35.1945C82.5339 35.4363 82.5339 35.6781 82.5339 35.9199C82.5337 36.3246 82.5328 36.7293 82.5315 37.134C82.5299 37.654 82.5293 38.174 82.529 38.6939C82.5288 39.1418 82.5281 39.5897 82.5273 40.0376C82.527 40.1814 82.5269 40.3253 82.5267 40.4691C82.5264 40.6941 82.5259 40.9191 82.525 41.1441C82.5248 41.2268 82.5246 41.3095 82.5245 41.3922C82.5244 41.5046 82.524 41.617 82.5234 41.7294C82.5233 41.7924 82.5231 41.8554 82.5229 41.9203C82.5154 42.0608 82.5154 42.0608 82.458 42.1179C82.3338 42.14 82.3338 42.14 82.171 42.1179C82.0384 42.0233 81.9244 41.9309 81.8051 41.8218C81.7334 41.7585 81.6617 41.6952 81.5901 41.6319C81.5349 41.5825 81.5349 41.5825 81.4787 41.5321C81.3014 41.3742 81.1208 41.2202 80.9405 41.0657C80.8691 41.0041 80.7976 40.9425 80.7262 40.8808C80.6904 40.85 80.6546 40.8191 80.6178 40.7873C80.5014 40.6867 80.3851 40.5861 80.2688 40.4854C80.2105 40.4349 80.2105 40.4349 80.151 40.3835C80.0766 40.3192 80.0023 40.2548 79.928 40.1903C79.8943 40.1612 79.8607 40.1321 79.826 40.1022C79.7966 40.0767 79.7672 40.0512 79.7369 40.025C79.6448 39.9448 79.6448 39.9448 79.5275 39.8783C79.4159 39.778 79.4159 39.778 79.3822 39.6393C79.3799 39.5828 79.3776 39.5263 79.3752 39.4681C79.372 39.4014 79.3688 39.3348 79.3655 39.2661C79.3631 39.1894 79.3608 39.1128 79.3585 39.0361C79.3553 38.9508 79.352 38.8656 79.3488 38.7803C79.3399 38.5364 79.3326 38.2924 79.3258 38.0484C79.3212 37.8848 79.3162 37.7212 79.3112 37.5576C79.2969 37.093 79.2827 36.6283 79.2697 36.1637C79.2617 35.8779 79.253 35.5921 79.2438 35.3063C79.2405 35.1987 79.2374 35.0911 79.2346 34.9834C79.2119 34.1136 79.1536 33.2293 78.8599 32.4017C78.8452 32.3596 78.8305 32.3175 78.8154 32.2741C78.2885 30.828 77.201 29.8973 75.8393 29.2378C75.2374 28.9747 74.5464 28.7568 73.8873 28.7558C73.7776 28.7554 73.7776 28.7554 73.6656 28.7551C73.585 28.7551 73.5043 28.7551 73.4237 28.7551C73.3385 28.755 73.2532 28.7548 73.168 28.7546C72.9369 28.754 72.7057 28.7539 72.4746 28.7539C72.2818 28.7538 72.0889 28.7536 71.896 28.7534C71.4413 28.7529 70.9865 28.7528 70.5318 28.7528C70.0622 28.7529 69.5926 28.7523 69.1229 28.7514C68.7199 28.7506 68.3169 28.7503 67.9138 28.7504C67.6731 28.7504 67.4323 28.7502 67.1915 28.7496C66.9653 28.7491 66.7391 28.7491 66.5129 28.7495C66.4298 28.7495 66.3466 28.7494 66.2634 28.749C66.1503 28.7486 66.0371 28.7489 65.9239 28.7493C65.8605 28.7493 65.797 28.7493 65.7317 28.7492C65.5737 28.7485 65.5737 28.7485 65.4682 28.8776C65.4504 29.0185 65.4504 29.0185 65.4528 29.1852C65.4521 29.2832 65.4521 29.2832 65.4514 29.3831C65.4514 29.4912 65.4514 29.4912 65.4515 29.6015C65.4512 29.6779 65.4508 29.7543 65.4503 29.8308C65.4493 30.0389 65.4491 30.2471 65.449 30.4553C65.4489 30.5858 65.4487 30.7162 65.4484 30.8467C65.4473 31.3031 65.4468 31.7595 65.4469 32.2159C65.447 32.639 65.4458 33.0621 65.444 33.4852C65.4425 33.8497 65.4418 34.2142 65.4419 34.5788C65.4419 34.7959 65.4416 35.013 65.4404 35.2301C65.4345 36.3428 65.4705 37.3968 65.8807 38.4476C65.8976 38.4917 65.9145 38.5358 65.9319 38.5813C66.2185 39.3041 66.606 39.9443 67.1327 40.5199C67.1685 40.5601 67.2042 40.6003 67.241 40.6416C68.1141 41.5698 69.492 42.1933 70.7687 42.2389C70.8351 42.2388 70.9016 42.2386 70.97 42.2385C71.0255 42.2385 71.0255 42.2385 71.0821 42.2385C71.2029 42.2385 71.3237 42.2381 71.4445 42.2376C71.5289 42.2375 71.6132 42.2374 71.6976 42.2374C71.9185 42.2371 72.1394 42.2366 72.3603 42.236C72.5862 42.2354 72.812 42.2351 73.0379 42.2348C73.4802 42.2342 73.9225 42.2332 74.3649 42.232C74.2034 42.116 74.0419 42 73.8804 41.884C73.8354 41.8517 73.7904 41.8194 73.7441 41.7861C73.4751 41.593 73.2059 41.4 72.9366 41.2072C72.7236 41.0546 72.511 40.9015 72.2985 40.7482C72.251 40.7139 72.2035 40.6797 72.1545 40.6443C72.0086 40.5389 71.863 40.4332 71.7174 40.3273C71.6732 40.2954 71.6291 40.2635 71.5836 40.2307C70.7557 39.6266 70.7557 39.6266 70.634 39.3214C70.6325 38.9708 70.8407 38.7479 71.0466 38.4832C71.1195 38.3871 71.1925 38.2909 71.2654 38.1948C71.3031 38.1455 71.3409 38.0962 71.3797 38.0454C71.5671 37.8004 71.7518 37.5534 71.9362 37.3061C71.9699 37.2616 72.0037 37.217 72.0384 37.171C72.2919 36.8402 72.2919 36.8402 72.4707 36.4679C72.4222 36.2018 72.3087 36.05 72.1228 35.858C71.9362 35.6601 71.7588 35.4598 71.5882 35.248C71.377 34.9882 71.1548 34.7425 70.9261 34.498C70.7078 34.2634 70.5053 34.0183 70.3037 33.7693C70.1698 33.6083 70.0302 33.4543 69.8878 33.3005C69.6522 33.046 69.4311 32.7831 69.2132 32.5136C69.0399 32.3056 68.8551 32.1091 68.6681 31.9132C68.5691 31.79 68.5329 31.714 68.5103 31.5599C68.8405 31.59 69.0924 31.7211 69.382 31.8702C69.4332 31.8961 69.4843 31.9219 69.537 31.9486C69.8968 32.1313 70.2537 32.3193 70.6103 32.5081C71.1302 32.7812 71.6574 33.0399 72.1838 33.3005C73.4052 33.9053 73.4052 33.9053 73.9569 34.2008C74.2448 34.3537 74.5365 34.4979 74.8297 34.6403C74.9139 34.6815 74.9982 34.7226 75.0825 34.7638C75.2088 34.8255 75.3352 34.8869 75.4619 34.9475C75.5802 35.0041 75.698 35.0614 75.8157 35.119C75.8513 35.1357 75.8868 35.1523 75.9234 35.1695C76.1508 35.2819 76.2931 35.3995 76.4312 35.6119C76.4622 35.9969 76.2292 36.2393 76 36.5305C75.6606 36.9625 75.3285 37.4002 74.9963 37.8376C74.9506 37.8977 74.9506 37.8977 74.9041 37.9589C74.8285 38.0593 74.7543 38.1604 74.6806 38.2621C74.6409 38.3161 74.6012 38.3702 74.5604 38.4259C74.4651 38.6073 74.4553 38.72 74.4797 38.922C74.572 39.0352 74.6557 39.1141 74.7667 39.2073C74.8078 39.2449 74.8489 39.2825 74.8913 39.3212C75.21 39.6123 75.5401 39.8868 75.8764 40.1574C76.0692 40.313 76.2609 40.47 76.4527 40.6269C76.4946 40.6612 76.5365 40.6955 76.5797 40.7308C76.8663 40.9657 77.1506 41.2032 77.4336 41.4424C77.7276 41.6905 78.0261 41.9331 78.3253 42.175C78.6952 42.4739 79.0618 42.7761 79.425 43.0829C79.725 43.3358 80.0291 43.5834 80.3343 43.83C80.7067 44.1311 81.0762 44.435 81.4408 44.7455C81.6643 44.9349 81.895 45.1106 82.136 45.2777C82.2554 45.3982 82.2714 45.49 82.2858 45.6563C82.1788 45.7626 82.0254 45.721 81.883 45.7218C81.8329 45.7217 81.7828 45.7217 81.7312 45.7217C81.6784 45.7219 81.6256 45.7221 81.5712 45.7224C81.3928 45.723 81.2144 45.7232 81.036 45.7234C80.9087 45.7238 80.7813 45.7242 80.654 45.7246C80.3067 45.7256 79.9594 45.7262 79.6121 45.7266C79.395 45.7269 79.1778 45.7273 78.9607 45.7276C78.3589 45.7286 77.7571 45.7294 77.1553 45.7298C76.999 45.73 76.8427 45.7301 76.6864 45.7302C76.6476 45.7302 76.6087 45.7302 76.5687 45.7303C75.9413 45.7307 75.314 45.7322 74.6866 45.734C74.0417 45.7359 73.3968 45.7369 72.7519 45.7371C72.3902 45.7373 72.0284 45.7378 71.6667 45.7392C71.3256 45.7405 70.9845 45.7408 70.6434 45.7402C70.5189 45.7402 70.3943 45.7405 70.2698 45.7413C69.3373 45.7469 68.5044 45.6376 67.6278 45.3067C67.5833 45.2901 67.5388 45.2734 67.4929 45.2563C66.6914 44.9461 65.9637 44.5396 65.296 44.0012C65.2075 43.9358 65.119 43.8704 65.0305 43.805C63.3125 42.4563 62.4129 40.2482 62.1516 38.1378C62.1305 37.9194 62.131 37.7017 62.1314 37.4824C62.1312 37.4057 62.1312 37.4057 62.131 37.3275C62.1307 37.1572 62.1307 36.987 62.1308 36.8167C62.1306 36.6943 62.1304 36.5718 62.1302 36.4494C62.1297 36.1176 62.1295 35.7858 62.1295 35.454C62.1295 35.1771 62.1292 34.9003 62.129 34.6234C62.1286 33.9706 62.1284 33.3179 62.1285 32.6651C62.1285 31.991 62.1279 31.3168 62.127 30.6426C62.1262 30.064 62.1259 29.4854 62.126 28.9068C62.126 28.5611 62.1258 28.2154 62.1252 27.8697C62.1247 27.5451 62.1247 27.2204 62.1251 26.8958C62.1251 26.7764 62.125 26.657 62.1247 26.5376C62.1242 26.3752 62.1245 26.2128 62.1249 26.0505C62.1246 26.0027 62.1243 25.9549 62.124 25.9057C62.126 25.5805 62.126 25.5805 62.2539 25.4533C62.4204 25.4357 62.4204 25.4357 62.6379 25.4308C62.6777 25.4298 62.7175 25.4288 62.7585 25.4278C62.8922 25.4245 63.026 25.4221 63.1597 25.4197C63.2553 25.4176 63.3508 25.4155 63.4464 25.4133C63.7568 25.4066 64.0672 25.4013 64.3776 25.3963C64.4289 25.3954 64.4801 25.3946 64.5329 25.3938C66.1414 25.3683 67.75 25.3565 69.3586 25.3437C69.7558 25.3405 70.1529 25.3365 70.5501 25.3322Z" fill="white"/>
<path d="M20.5494 67.8354C20.6534 67.835 20.6534 67.835 20.7596 67.8347C20.9513 67.8342 21.1429 67.8345 21.3345 67.8351C21.5434 67.8356 21.7522 67.8351 21.9611 67.8347C22.3268 67.8342 22.6925 67.8343 23.0582 67.8348C23.6021 67.8356 24.1459 67.8354 24.6897 67.835C25.6611 67.8343 26.6324 67.8346 27.6037 67.8353C28.4536 67.8359 29.3036 67.8361 30.1535 67.8361C30.2381 67.836 30.2381 67.836 30.3244 67.836C30.5532 67.836 30.7821 67.836 31.0109 67.836C33.1577 67.8357 35.3044 67.8365 37.4512 67.8377C39.3586 67.8387 41.2661 67.839 43.1736 67.8387C43.2961 67.8387 43.4186 67.8387 43.5411 67.8387C43.6319 67.8387 43.6319 67.8387 43.7246 67.8386C44.0294 67.8386 44.3342 67.8385 44.6391 67.8385C44.6992 67.8385 44.7594 67.8385 44.8213 67.8385C46.4151 67.8382 48.0088 67.8386 49.6025 67.839C49.774 67.8391 49.9455 67.8391 50.1169 67.8392C50.2307 67.8392 50.3444 67.8393 50.4582 67.8393C51.2514 67.8395 52.0446 67.8396 52.8378 67.8395C53.8599 67.8393 54.882 67.8396 55.904 67.8404C56.4446 67.8409 56.9852 67.8411 57.5259 67.8408C57.8868 67.8406 58.2478 67.8408 58.6088 67.8414C58.8146 67.8417 59.0203 67.8419 59.2261 67.8415C59.4477 67.8411 59.6693 67.8416 59.891 67.8422C59.9548 67.842 60.0187 67.8417 60.0844 67.8415C60.7187 67.8447 61.2169 67.9301 61.6896 68.3731C62.1433 68.8505 62.2318 69.2195 62.2161 69.8756C62.1692 70.3674 61.9234 70.7203 61.565 71.0527C61.0723 71.4395 60.5619 71.4691 59.9545 71.4667C59.8507 71.467 59.8507 71.467 59.7447 71.4673C59.5526 71.4676 59.3606 71.4675 59.1685 71.4672C58.9595 71.467 58.7505 71.4674 58.5415 71.4677C58.1752 71.4682 57.809 71.4683 57.4427 71.4681C56.898 71.4678 56.3534 71.4681 55.8087 71.4686C54.7793 71.4695 53.75 71.4696 52.7206 71.4694C51.9258 71.4693 51.1309 71.4694 50.3361 71.4697C50.2219 71.4697 50.1078 71.4697 49.9936 71.4698C49.8216 71.4698 49.6496 71.4699 49.4776 71.4699C47.878 71.4704 46.2784 71.4707 44.6788 71.4704C44.6184 71.4704 44.5581 71.4704 44.496 71.4704C44.1903 71.4703 43.8846 71.4703 43.5789 71.4702C43.5182 71.4702 43.4574 71.4702 43.3949 71.4702C43.2721 71.4702 43.1493 71.4702 43.0266 71.4702C41.116 71.4699 39.2055 71.4703 37.295 71.4714C35.1489 71.4725 33.0027 71.4732 30.8566 71.4729C30.6278 71.4729 30.399 71.4729 30.1702 71.4729C30.1139 71.4729 30.0576 71.4729 29.9995 71.4728C29.1488 71.4728 28.298 71.4732 27.4472 71.4738C26.4797 71.4745 25.5123 71.4745 24.5448 71.4738C24.0033 71.4735 23.4618 71.4735 22.9204 71.4743C22.5586 71.4748 22.1969 71.4746 21.8352 71.474C21.6291 71.4736 21.4231 71.4735 21.217 71.4742C20.9948 71.4749 20.7726 71.4743 20.5504 71.4736C20.4867 71.474 20.4231 71.4744 20.3574 71.4748C19.6969 71.4702 19.1702 71.3448 18.6887 70.8815C18.3608 70.5424 18.2574 70.113 18.208 69.6545C18.2757 69.0264 18.4886 68.5519 18.9901 68.1492C19.4628 67.8548 20.0072 67.8318 20.5494 67.8354Z" fill="white"/>
<path d="M19.8495 58.9964C19.9093 58.9961 19.969 58.9958 20.0306 58.9954C20.096 58.9957 20.1614 58.9959 20.2287 58.9962C20.2987 58.996 20.3687 58.9958 20.4407 58.9956C20.6356 58.9951 20.8304 58.9952 21.0253 58.9955C21.237 58.9957 21.4487 58.9952 21.6604 58.9948C22.0318 58.9942 22.4031 58.994 22.7744 58.9942C23.3265 58.9943 23.8787 58.9939 24.4309 58.9933C25.4743 58.9922 26.5178 58.9918 27.5613 58.9918C28.367 58.9917 29.1727 58.9915 29.9784 58.9911C30.2101 58.991 30.4419 58.9909 30.6737 58.9908C30.7313 58.9908 30.7889 58.9908 30.8482 58.9907C32.4692 58.99 34.0902 58.9896 35.7112 58.9896C35.7723 58.9896 35.8335 58.9896 35.8965 58.9896C36.2064 58.9897 36.5163 58.9897 36.8262 58.9897C36.8877 58.9897 36.9493 58.9897 37.0127 58.9897C37.1372 58.9897 37.2616 58.9897 37.3861 58.9897C39.3228 58.9898 41.2595 58.9889 43.1962 58.9873C45.3711 58.9856 47.546 58.9846 49.7209 58.9847C49.9527 58.9847 50.1845 58.9847 50.4164 58.9847C50.502 58.9847 50.502 58.9847 50.5893 58.9847C51.5087 58.9847 52.4281 58.984 53.3475 58.983C54.2713 58.9821 55.195 58.982 56.1188 58.9827C56.6678 58.9831 57.2168 58.9829 57.7658 58.9818C58.1324 58.9811 58.499 58.9813 58.8656 58.9821C59.0746 58.9825 59.2836 58.9826 59.4925 58.9817C59.7176 58.9807 59.9427 58.9815 60.1678 58.9824C60.2327 58.9819 60.2976 58.9813 60.3644 58.9807C60.9268 58.9858 61.3358 59.1441 61.7489 59.5245C62.1451 59.9639 62.2171 60.3999 62.2123 60.9731C62.1737 61.4672 61.959 61.8433 61.5921 62.1707C61.1219 62.5416 60.574 62.5744 59.9949 62.5709C59.9252 62.5712 59.8556 62.5714 59.7838 62.5717C59.5911 62.5723 59.3984 62.5721 59.2057 62.5716C58.9957 62.5712 58.7858 62.5718 58.5759 62.5723C58.2082 62.573 57.8406 62.573 57.4729 62.5727C56.9261 62.5722 56.3793 62.5726 55.8326 62.5733C54.856 62.5744 53.8795 62.5745 52.9029 62.5742C52.0483 62.574 51.1936 62.574 50.339 62.5743C50.2243 62.5744 50.1097 62.5744 49.9951 62.5745C49.8224 62.5745 49.6496 62.5746 49.4769 62.5747C47.871 62.5753 46.2651 62.5755 44.6592 62.5751C44.5986 62.5751 44.5381 62.5751 44.4757 62.575C43.9841 62.5749 43.4925 62.5748 43.0008 62.5746C41.083 62.574 39.1651 62.5745 37.2472 62.5758C35.0926 62.5773 32.9379 62.5781 30.7833 62.5776C30.5536 62.5776 30.3239 62.5776 30.0942 62.5775C30.0376 62.5775 29.9811 62.5775 29.9228 62.5775C29.0687 62.5774 28.2147 62.5778 27.3606 62.5786C26.3894 62.5794 25.4183 62.5795 24.4471 62.5785C23.9036 62.5779 23.3601 62.578 22.8166 62.579C22.4535 62.5796 22.0904 62.5793 21.7274 62.5784C21.5205 62.5779 21.3137 62.5778 21.1068 62.5787C20.8838 62.5796 20.6608 62.5788 20.4378 62.5778C20.3739 62.5783 20.3099 62.5789 20.2441 62.5794C19.6344 62.5738 19.1295 62.4181 18.6854 61.9948C18.3601 61.6148 18.2078 61.1769 18.2172 60.6793C18.2605 60.2232 18.4408 59.81 18.7459 59.4674C19.075 59.1979 19.4153 58.9967 19.8495 58.9964Z" fill="white"/>
<path d="M19.8382 50.6067C19.8768 50.6065 19.9155 50.6063 19.9553 50.6061C20.0844 50.6056 20.2134 50.6058 20.3425 50.6061C20.4362 50.6059 20.5298 50.6056 20.6235 50.6053C20.8805 50.6046 21.1375 50.6047 21.3946 50.6048C21.6719 50.6048 21.9492 50.6042 22.2266 50.6036C22.7698 50.6027 23.313 50.6024 23.8563 50.6023C24.2979 50.6023 24.7395 50.602 25.1811 50.6017C26.4333 50.6007 27.6855 50.6001 28.9378 50.6002C29.0053 50.6002 29.0728 50.6002 29.1423 50.6002C29.2437 50.6002 29.2437 50.6002 29.3471 50.6002C30.4423 50.6003 31.5376 50.5992 32.6328 50.5976C33.7575 50.5959 34.8823 50.5952 36.0071 50.5953C36.6385 50.5953 37.2698 50.595 37.9012 50.5938C38.4388 50.5927 38.9764 50.5925 39.514 50.5932C39.7882 50.5936 40.0624 50.5936 40.3366 50.5926C40.5878 50.5917 40.839 50.5919 41.0903 50.5929C41.1809 50.5931 41.2716 50.5929 41.3622 50.5922C41.9959 50.5881 42.5643 50.6205 43.0512 51.0637C43.4764 51.5271 43.57 52.0036 43.5584 52.6137C43.5368 53.0769 43.3466 53.4391 43.0295 53.7741C42.6062 54.1334 42.1461 54.2238 41.6024 54.2242C41.5644 54.2243 41.5263 54.2244 41.4871 54.2245C41.3598 54.2247 41.2325 54.2246 41.1052 54.2244C41.0129 54.2246 40.9206 54.2247 40.8284 54.2248C40.5749 54.2252 40.3215 54.2252 40.068 54.2251C39.7946 54.2251 39.5213 54.2254 39.2479 54.2257C38.7123 54.2262 38.1768 54.2263 37.6412 54.2263C37.2059 54.2264 36.7706 54.2265 36.3352 54.2267C35.1011 54.2272 33.8671 54.2274 32.633 54.2274C32.5664 54.2274 32.4999 54.2274 32.4313 54.2274C32.3314 54.2274 32.3314 54.2274 32.2295 54.2274C31.1498 54.2274 30.07 54.2279 28.9903 54.2287C27.8818 54.2295 26.7732 54.2299 25.6647 54.2299C25.0423 54.2299 24.4199 54.23 23.7975 54.2306C23.2676 54.2311 22.7377 54.2313 22.2078 54.2309C21.9374 54.2307 21.6671 54.2307 21.3967 54.2312C21.1492 54.2316 20.9016 54.2316 20.654 54.2311C20.5645 54.231 20.4751 54.2311 20.3856 54.2314C19.6854 54.2337 19.0766 54.2176 18.5349 53.7299C18.1747 53.3494 18.045 52.9363 18.0293 52.4191C18.0486 51.8058 18.241 51.3843 18.6894 50.9638C19.042 50.6862 19.3936 50.6072 19.8382 50.6067Z" fill="white"/>
<path d="M19.9407 42.2602C20.0213 42.2599 20.1018 42.2596 20.1824 42.2591C20.403 42.2582 20.6236 42.2586 20.8442 42.2593C21.0824 42.2598 21.3206 42.259 21.5588 42.2584C22.0251 42.2574 22.4914 42.2576 22.9577 42.2583C23.3368 42.2588 23.7158 42.2589 24.0948 42.2586C24.1488 42.2586 24.2027 42.2586 24.2583 42.2585C24.368 42.2584 24.4776 42.2584 24.5873 42.2583C25.6151 42.2576 26.6429 42.2584 27.6707 42.2596C28.5524 42.2606 29.4341 42.2605 30.3158 42.2594C31.3399 42.2582 32.3641 42.2577 33.3882 42.2584C33.4975 42.2585 33.6067 42.2586 33.7159 42.2586C33.7965 42.2587 33.7965 42.2587 33.8788 42.2587C34.2573 42.2589 34.6358 42.2586 35.0143 42.2581C35.4757 42.2574 35.9371 42.2576 36.3984 42.2588C36.6338 42.2594 36.8691 42.2596 37.1045 42.2589C37.32 42.2582 37.5355 42.2586 37.7511 42.2598C37.8658 42.2602 37.9804 42.2594 38.0951 42.2586C38.565 42.2627 38.8737 42.3179 39.2469 42.6175C39.6837 43.1153 39.805 43.6436 39.7751 44.294C39.7246 44.8126 39.5426 45.1632 39.1964 45.5493C38.792 45.8781 38.3787 45.852 37.8769 45.8497C37.7964 45.8499 37.7159 45.8502 37.6354 45.8506C37.4146 45.8514 37.1939 45.8512 36.9732 45.8507C36.735 45.8505 36.4967 45.8512 36.2585 45.8518C35.792 45.8528 35.3255 45.8528 34.8589 45.8525C34.4797 45.8523 34.1006 45.8524 33.7214 45.8527C33.6674 45.8527 33.6134 45.8527 33.5578 45.8528C33.4482 45.8529 33.3385 45.853 33.2289 45.8531C32.2007 45.8538 31.1725 45.8535 30.1443 45.8529C29.2037 45.8523 28.2632 45.853 27.3226 45.8544C26.3567 45.8558 25.3908 45.8564 24.4248 45.856C23.8826 45.8558 23.3404 45.8559 22.7981 45.8569C22.3366 45.8577 21.875 45.8578 21.4134 45.8568C21.178 45.8563 20.9425 45.8562 20.707 45.857C20.4914 45.8578 20.2758 45.8576 20.0601 45.8565C19.9454 45.8561 19.8306 45.8569 19.7159 45.8578C19.2458 45.854 18.9372 45.7989 18.5639 45.4992C18.127 45.0014 18.0061 44.4733 18.0354 43.8229C18.083 43.3394 18.2439 42.9821 18.5639 42.6175C19.0034 42.2646 19.3934 42.2564 19.9407 42.2602Z" fill="white"/>
<path d="M30.3228 19.7642C31.4467 20.7144 32.1461 22.0241 32.2777 23.4867C32.3437 24.4453 32.1838 25.3572 31.7674 26.2265C31.7112 26.3868 31.7199 26.4378 31.7757 26.5948C31.8911 26.7244 32.0072 26.8448 32.1316 26.9653C32.1873 27.0204 32.1873 27.0204 32.2441 27.0765C32.3249 27.1561 32.4058 27.2356 32.4869 27.3148C32.6154 27.4404 32.7434 27.5665 32.8712 27.6928C33.1889 28.0064 33.5076 28.3191 33.8262 28.6318C34.0952 28.8959 34.3638 29.1603 34.632 29.4252C34.7578 29.5492 34.8841 29.6726 35.0105 29.7961C35.0881 29.8726 35.1656 29.9492 35.2432 30.0257C35.2782 30.0597 35.3133 30.0937 35.3494 30.1287C35.6011 30.3788 35.8182 30.6322 35.8814 30.9907C35.8753 31.5617 35.7434 31.8441 35.3523 32.259C35.0264 32.5678 34.7248 32.7605 34.2689 32.7869C33.7867 32.755 33.4642 32.4733 33.1393 32.1427C33.1006 32.1042 33.0619 32.0658 33.0221 32.0262C32.8954 31.9001 32.7696 31.7733 32.6438 31.6464C32.5557 31.5584 32.4676 31.4704 32.3794 31.3825C32.1483 31.1518 31.9179 30.9205 31.6876 30.689C31.4521 30.4525 31.216 30.2167 30.98 29.9809C30.5175 29.5186 30.0558 29.0557 29.5946 28.5922C29.5354 28.616 29.4763 28.6397 29.4154 28.6642C29.3371 28.6955 29.2588 28.7269 29.1804 28.7582C29.1416 28.7739 29.1027 28.7895 29.0626 28.8056C27.7402 29.3339 26.2444 29.3277 24.9236 28.7961C24.1968 28.4859 23.6121 28.0578 23.0512 27.5079C22.9882 27.4463 22.9882 27.4463 22.9238 27.3835C22.0829 26.5042 21.6224 25.2849 21.5588 24.0837C21.5553 24.0183 21.5553 24.0183 21.5517 23.9517C21.5145 22.5485 22.0341 21.2642 22.9364 20.2029C22.9687 20.1649 23.0009 20.127 23.0342 20.0878C24.9481 18.031 28.2169 18.1219 30.3228 19.7642ZM23.9404 21.336C23.2771 22.1773 22.986 23.1329 23.0512 24.1978C23.2097 25.3195 23.731 26.2071 24.6009 26.9372C25.5746 27.6238 26.6242 27.7915 27.7935 27.6548C28.4888 27.5019 29.1333 27.1297 29.652 26.6518C29.7119 26.5969 29.7119 26.5969 29.773 26.5408C30.4386 25.8662 30.7856 24.8707 30.8143 23.941C30.7993 22.9408 30.4412 22.0308 29.7668 21.2872C29.7383 21.2537 29.7099 21.2203 29.6807 21.1858C29.098 20.5471 28.1698 20.086 27.3029 20.0237C26.0013 19.9652 24.8253 20.3342 23.9404 21.336Z" fill="white"/>
<path d="M62.8281 43.773C63.1332 43.7587 63.4382 43.7484 63.7435 43.7416C63.847 43.7388 63.9505 43.7349 64.054 43.7299C64.6652 43.7012 65.1021 43.7082 65.5747 44.123C65.6544 44.1962 65.7336 44.2699 65.8128 44.3437C65.9572 44.4434 66.1065 44.5286 66.2612 44.6112C66.2994 44.6319 66.3375 44.6527 66.3767 44.674C67.2538 45.1426 68.1648 45.462 69.1419 45.6563C69.1419 45.6751 69.1419 45.694 69.1419 45.7134C68.8196 45.722 68.4974 45.7281 68.175 45.7322C68.0659 45.7339 67.9568 45.7362 67.8478 45.7392C66.1007 45.7861 64.3542 45.0319 63.0003 43.9442C62.9425 43.8876 62.885 43.8306 62.8281 43.773Z" fill="white"/>
<path d="M61.2207 32.5872C61.5238 32.5872 61.8268 32.5872 62.1391 32.5872C62.1391 33.2275 62.1391 33.8678 62.1391 34.5276C61.836 34.5276 61.5329 34.5276 61.2207 34.5276C61.2207 33.8872 61.2207 33.2469 61.2207 32.5872Z" fill="white"/>
<path d="M61.2207 26.024C61.5238 26.024 61.8268 26.024 62.1391 26.024C62.1391 26.6644 62.1391 27.3047 62.1391 27.9644C61.836 27.9644 61.5329 27.9644 61.2207 27.9644C61.2207 27.3241 61.2207 26.6838 61.2207 26.024Z" fill="white"/>
</svg>
