<svg width="60" height="62" viewBox="0 0 60 62" fill="none" xmlns="http://www.w3.org/2000/svg">
<path d="M10.5585 5.53819C10.618 5.53807 10.618 5.53807 10.6787 5.53795C10.8111 5.53773 10.9435 5.53778 11.0759 5.53784C11.172 5.53774 11.2681 5.53762 11.3642 5.53748C11.6002 5.5372 11.8363 5.5371 12.0723 5.53708C12.3552 5.53704 12.6381 5.53678 12.921 5.53651C13.6044 5.53588 14.2878 5.53565 14.9712 5.53546C15.2945 5.53537 15.6178 5.53523 15.9412 5.53508C17.0483 5.53458 18.1555 5.53416 19.2626 5.53402C19.3321 5.53401 19.4015 5.534 19.471 5.53399C19.5406 5.53398 19.6102 5.53398 19.6798 5.53397C19.8194 5.53395 19.959 5.53393 20.0987 5.53391C20.1333 5.53391 20.1679 5.53391 20.2036 5.5339C21.3269 5.53376 22.4502 5.53313 23.5735 5.53222C24.7616 5.53125 25.9497 5.53071 27.1378 5.53066C27.2682 5.53066 27.3986 5.53065 27.529 5.53064C27.5611 5.53064 27.5932 5.53063 27.6263 5.53063C28.1429 5.53059 28.6596 5.53015 29.1763 5.52958C29.6954 5.52902 30.2145 5.52889 30.7336 5.52921C31.042 5.52938 31.3504 5.52923 31.6588 5.52861C31.889 5.52818 32.1192 5.52837 32.3495 5.52879C32.4426 5.52887 32.5358 5.52875 32.6289 5.52841C32.7555 5.52797 32.8821 5.52826 33.0087 5.52874C33.0449 5.52844 33.0811 5.52814 33.1183 5.52783C33.5082 5.53097 33.8406 5.62489 34.1271 5.8972C34.3941 6.18414 34.508 6.4952 34.4943 6.88683C34.4498 7.25735 34.2888 7.5394 34.0092 7.78432C33.6965 7.99757 33.3463 8.03197 32.9781 8.03006C32.9187 8.03023 32.9187 8.03023 32.8581 8.0304C32.7251 8.03067 32.5922 8.03039 32.4593 8.0301C32.3631 8.03019 32.2669 8.03031 32.1706 8.03046C31.9614 8.03071 31.7521 8.03072 31.5429 8.03051C31.2317 8.03021 30.9205 8.03036 30.6093 8.03062C30.0856 8.03103 29.562 8.0311 29.0383 8.031C28.29 8.03087 27.5417 8.03139 26.7934 8.03205C26.493 8.03232 26.1926 8.03256 25.8922 8.0328C25.8421 8.03284 25.8421 8.03284 25.7911 8.03288C24.9968 8.03352 24.2025 8.03394 23.4082 8.0343C23.3734 8.03432 23.3387 8.03434 23.3029 8.03435C22.4922 8.03472 21.6816 8.03499 20.8709 8.03509C20.8186 8.0351 20.8186 8.0351 20.7653 8.0351C20.5895 8.03512 20.4138 8.03514 20.238 8.03516C20.2033 8.03517 20.1685 8.03517 20.1327 8.03518C20.0626 8.03518 19.9925 8.03519 19.9224 8.0352C18.7635 8.03533 17.6047 8.036 16.4458 8.03725C16.2821 8.03742 16.1183 8.03759 15.9546 8.03776C15.9224 8.03779 15.8902 8.03782 15.857 8.03785C15.3388 8.03835 14.8207 8.03828 14.3026 8.03797C13.7816 8.03766 13.2607 8.03792 12.7398 8.03874C12.4304 8.03921 12.1211 8.03924 11.8118 8.03864C11.5806 8.03824 11.3494 8.03866 11.1182 8.0394C11.0248 8.03957 10.9315 8.03947 10.8382 8.03908C9.98907 8.03579 9.30705 8.15167 8.67746 8.77043C8.28286 9.19209 8.05219 9.74083 8.0539 10.318C8.05379 10.362 8.05379 10.362 8.05369 10.4069C8.0535 10.5056 8.05359 10.6043 8.05369 10.7031C8.05361 10.7747 8.05351 10.8463 8.0534 10.9179C8.05315 11.1158 8.05315 11.3137 8.05318 11.5116C8.05317 11.7265 8.05294 11.9413 8.05274 12.1562C8.05237 12.5829 8.05222 13.0096 8.05213 13.4363C8.05201 13.9472 8.05167 14.458 8.05132 14.9689C8.0505 16.2039 8.05009 17.4388 8.04975 18.6737C8.04963 19.0827 8.0495 19.4916 8.04936 19.9006C8.04934 19.9439 8.04934 19.9439 8.04932 19.988C8.04928 20.1047 8.04924 20.2214 8.0492 20.3382C8.04849 22.3346 8.04789 24.331 8.0476 26.3275C8.04758 26.4843 8.04755 26.6411 8.04753 26.7979C8.04752 26.8446 8.04752 26.8446 8.04751 26.8922C8.04747 27.2074 8.04742 27.5226 8.04737 27.8378C8.04736 27.901 8.04735 27.9642 8.04734 28.0273C8.04704 30.0569 8.04616 32.0864 8.04488 34.1159C8.04396 35.5741 8.04311 37.0322 8.04283 38.4904C8.04283 38.5204 8.04282 38.5504 8.04282 38.5813C8.04269 39.2397 8.04261 39.898 8.04257 40.5564C8.04255 40.8213 8.04253 41.0862 8.04251 41.3511C8.04251 41.3801 8.0425 41.4091 8.0425 41.439C8.04242 42.3728 8.04186 43.3066 8.04106 44.2404C8.04025 45.181 8.03994 46.1217 8.04031 47.0623C8.04055 47.6459 8.04036 48.2295 8.03946 48.8131C8.03893 49.1854 8.03897 49.5577 8.03947 49.9299C8.03975 50.1421 8.03977 50.3543 8.0391 50.5665C8.03849 50.7596 8.03862 50.9528 8.03931 51.1459C8.03943 51.2152 8.0393 51.2845 8.03886 51.3538C8.03432 52.1235 8.21684 52.7592 8.76992 53.3219C9.17048 53.6967 9.70983 53.9449 10.2624 53.9454C10.3104 53.9456 10.3585 53.9457 10.408 53.9458C10.4614 53.9458 10.5147 53.9458 10.568 53.9457C10.6249 53.9458 10.6818 53.9459 10.7387 53.946C10.8958 53.9463 11.0529 53.9463 11.21 53.9463C11.3806 53.9464 11.5512 53.9466 11.7218 53.9469C12.0606 53.9473 12.3993 53.9475 12.7381 53.9477C13.1437 53.9479 13.5493 53.9483 13.9549 53.9487C14.9354 53.9498 15.916 53.9503 16.8965 53.9508C17.2212 53.951 17.546 53.9512 17.8707 53.9514C19.5972 53.9524 21.3237 53.9532 23.0502 53.9537C23.4503 53.9538 23.8504 53.954 24.2504 53.9541C24.3001 53.9541 24.3498 53.9541 24.401 53.9541C26.0125 53.9546 27.6239 53.9558 29.2354 53.9575C30.8918 53.9591 32.5483 53.9602 34.2048 53.9604C34.4387 53.9604 34.6727 53.9605 34.9067 53.9605C34.9527 53.9605 34.9987 53.9605 35.0462 53.9605C35.7872 53.9607 36.5283 53.9615 37.2693 53.9625C38.0142 53.9635 38.7591 53.9638 39.5041 53.9634C39.9466 53.9632 40.3891 53.9635 40.8316 53.9646C41.1273 53.9652 41.4231 53.9652 41.7189 53.9646C41.8873 53.9643 42.0557 53.9642 42.2241 53.9651C42.3776 53.9659 42.5311 53.9657 42.6847 53.9648C42.7652 53.9646 42.8458 53.9654 42.9263 53.9661C43.4829 53.961 43.9819 53.8064 44.4286 53.4685C44.4571 53.4471 44.4857 53.4257 44.5152 53.4036C44.9926 53.0164 45.2334 52.4506 45.3329 51.8566C45.3484 51.6493 45.3486 51.443 45.3475 51.2354C45.3476 51.1741 45.3478 51.1128 45.348 51.0516C45.3484 50.8845 45.348 50.7176 45.3476 50.5505C45.3472 50.3699 45.3476 50.1893 45.3478 50.0087C45.3482 49.6961 45.3481 49.3835 45.3478 49.0709C45.3474 48.6184 45.3477 48.166 45.3483 47.7136C45.3492 46.9788 45.3498 46.244 45.3499 45.5092C45.3499 45.4434 45.3499 45.4434 45.35 45.3761C45.3501 44.8859 45.3501 44.3957 45.35 43.9055C45.35 43.7277 45.35 43.5498 45.35 43.3719C45.35 43.328 45.35 43.2841 45.35 43.2389C45.35 42.5067 45.3506 41.7745 45.3516 41.0423C45.3522 40.591 45.3523 40.1398 45.3517 39.6885C45.3514 39.3794 45.3515 39.0702 45.3522 38.7611C45.3525 38.5828 45.3526 38.4046 45.352 38.2263C45.3514 38.063 45.3516 37.8996 45.3524 37.7363C45.3525 37.6774 45.3524 37.6184 45.352 37.5595C45.3489 37.1021 45.3984 36.6994 45.7261 36.3555C46.0346 36.0898 46.3268 36.037 46.7244 36.0412C47.036 36.0648 47.2781 36.1909 47.5049 36.403C47.7116 36.6463 47.8147 36.9287 47.8152 37.2442C47.8153 37.2696 47.8154 37.2951 47.8155 37.3213C47.8158 37.4072 47.8157 37.4931 47.8157 37.579C47.8159 37.641 47.816 37.703 47.8162 37.7649C47.8166 37.9357 47.8167 38.1065 47.8168 38.2773C47.817 38.4614 47.8173 38.6454 47.8177 38.8295C47.8185 39.2744 47.8189 39.7193 47.8192 40.1642C47.8194 40.3739 47.8196 40.5835 47.8198 40.7932C47.8205 41.4905 47.821 42.1877 47.8213 42.885C47.8214 43.0661 47.8215 43.2471 47.8215 43.4281C47.8216 43.4731 47.8216 43.5181 47.8216 43.5645C47.8219 44.2922 47.8229 45.0199 47.8242 45.7476C47.8255 46.4952 47.8262 47.2428 47.8263 47.9905C47.8264 48.41 47.8268 48.8296 47.8278 49.2491C47.8286 49.6067 47.8289 49.9643 47.8286 50.3219C47.8284 50.5041 47.8285 50.6863 47.8292 50.8685C47.8348 52.2717 47.8348 52.2717 47.6527 52.9181C47.6415 52.9586 47.6415 52.9586 47.6301 52.9999C47.4145 53.7732 46.9806 54.422 46.4338 55.0018C46.4077 55.0309 46.3817 55.0599 46.3548 55.0898C45.5675 55.9325 44.3791 56.3764 43.249 56.4565C43.0611 56.462 42.8734 56.4618 42.6855 56.4615C42.6287 56.4616 42.572 56.4617 42.5153 56.4618C42.3597 56.4619 42.204 56.4619 42.0484 56.4618C41.879 56.4617 41.7095 56.4619 41.5401 56.462C41.2433 56.4622 40.9464 56.4623 40.6495 56.4622C40.2081 56.4622 39.7666 56.4623 39.3251 56.4625C38.4908 56.4629 37.6564 56.463 36.822 56.4631C36.1777 56.4631 35.5333 56.4632 34.8889 56.4633C34.7035 56.4633 34.518 56.4633 34.3325 56.4634C34.2864 56.4634 34.2403 56.4634 34.1928 56.4634C32.8958 56.4636 31.5988 56.4638 30.3018 56.4638C30.2529 56.4638 30.204 56.4638 30.1536 56.4638C29.9058 56.4638 29.6579 56.4638 29.41 56.4638C29.3362 56.4638 29.3362 56.4638 29.2609 56.4638C29.1613 56.4638 29.0618 56.4638 28.9622 56.4638C27.4135 56.4637 25.8648 56.464 24.3161 56.4646C22.5762 56.4652 20.8363 56.4655 19.0964 56.4655C18.9108 56.4655 18.7253 56.4655 18.5397 56.4655C18.494 56.4655 18.4483 56.4655 18.4013 56.4655C17.6662 56.4655 16.9312 56.4657 16.1961 56.4661C15.4572 56.4664 14.7184 56.4664 13.9795 56.4662C13.5407 56.466 13.1019 56.4661 12.663 56.4665C12.3697 56.4667 12.0763 56.4667 11.783 56.4664C11.616 56.4662 11.449 56.4662 11.282 56.4665C9.81914 56.4691 8.41769 56.3243 7.27259 55.3163C7.24092 55.2898 7.20924 55.2633 7.1766 55.236C6.22553 54.419 5.65878 53.2321 5.55055 51.9885C5.53375 51.7105 5.5371 51.432 5.53741 51.1536C5.53735 51.0822 5.53727 51.0107 5.53717 50.9393C5.53695 50.7429 5.53698 50.5465 5.53704 50.35C5.53707 50.1364 5.53687 49.9227 5.5367 49.709C5.53641 49.2852 5.53632 48.8615 5.5363 48.4377C5.53626 47.93 5.536 47.4224 5.53573 46.9148C5.53512 45.717 5.53488 44.5193 5.5347 43.3216C5.5346 42.712 5.53446 42.1025 5.5343 41.493C5.5338 39.5372 5.53338 37.5814 5.53325 35.6256C5.53324 35.5322 5.53323 35.4387 5.53323 35.3453C5.53321 35.1579 5.5332 34.9705 5.53319 34.7831C5.53317 34.5637 5.53316 34.3442 5.53314 34.1248C5.53314 34.062 5.53313 33.9993 5.53313 33.9365C5.53299 31.92 5.5324 29.9035 5.53148 27.887C5.53082 26.4378 5.53021 24.9886 5.53003 23.5394C5.53003 23.5096 5.53003 23.4797 5.53002 23.449C5.52994 22.7943 5.5299 22.1397 5.52988 21.485C5.52988 21.2507 5.52987 21.0164 5.52986 20.7822C5.52986 20.7239 5.52986 20.6656 5.52985 20.6073C5.52982 19.6796 5.52943 18.7519 5.52885 17.8242C5.52826 16.8635 5.5281 15.9027 5.52842 14.9419C5.5286 14.3883 5.52845 13.8347 5.52783 13.281C5.52744 12.911 5.52749 12.5409 5.52788 12.1708C5.52809 11.9601 5.52812 11.7495 5.52763 11.5388C5.52718 11.3466 5.52728 11.1545 5.52781 10.9624C5.5279 10.8938 5.52781 10.8251 5.52748 10.7565C5.52465 10.1211 5.5659 9.45806 5.78341 8.85566C5.79515 8.82199 5.80688 8.78831 5.81898 8.75362C6.25402 7.55286 7.14505 6.56576 8.29702 6.01606C9.02615 5.6811 9.7581 5.53665 10.5585 5.53819Z" fill="#165056"/>
<path d="M43.4193 10.2808C43.6026 10.3843 43.7555 10.505 43.9079 10.6494C44.0029 10.7387 44.1018 10.8205 44.2033 10.9025C44.3633 11.0322 44.5209 11.1643 44.6775 11.2981C44.8519 11.4468 45.0296 11.5902 45.2108 11.7306C45.4375 11.9063 45.6548 12.0912 45.8706 12.2803C46.0406 12.429 46.2139 12.5724 46.3914 12.7122C46.4993 12.7974 46.6047 12.8854 46.7098 12.9739C46.7108 12.9364 46.7118 12.8988 46.7129 12.8601C46.7316 12.4327 46.7778 12.0258 47.103 11.7158C47.292 11.5839 47.4665 11.5149 47.6963 11.5135C47.728 11.5132 47.7597 11.5129 47.7923 11.5126C47.8267 11.5125 47.8611 11.5124 47.8966 11.5123C47.9331 11.512 47.9696 11.5118 48.0073 11.5115C48.1282 11.5107 48.2491 11.5103 48.3699 11.5099C48.4113 11.5097 48.4527 11.5096 48.4954 11.5094C48.7146 11.5086 48.9338 11.508 49.1531 11.5076C49.3788 11.5072 49.6045 11.5059 49.8302 11.5043C50.0044 11.5033 50.1785 11.5029 50.3527 11.5028C50.4358 11.5026 50.519 11.5022 50.6022 11.5014C51.1442 11.4969 51.5804 11.509 52.0313 11.8433C52.1829 12.0042 52.2292 12.1703 52.2266 12.3869C52.2263 12.4573 52.2263 12.4573 52.2259 12.5292C52.225 12.5802 52.2242 12.6311 52.2233 12.6837C52.2228 12.7383 52.2224 12.793 52.222 12.8476C52.2211 12.9651 52.2199 13.0825 52.2185 13.2C52.2164 13.3861 52.2155 13.5722 52.215 13.7583C52.2148 13.8222 52.2146 13.886 52.2144 13.9499C52.2143 13.9978 52.2143 13.9978 52.2141 14.0468C52.2127 14.4798 52.2101 14.9127 52.2048 15.3457C52.2013 15.6382 52.1995 15.9306 52.1998 16.223C52.1999 16.3776 52.1991 16.532 52.196 16.6865C52.1469 17.401 52.1469 17.401 52.4295 18.0158C52.5356 18.1049 52.6449 18.1724 52.7649 18.2421C52.8403 18.3024 52.915 18.3637 52.9885 18.4264C53.041 18.4686 53.041 18.4686 53.0946 18.5117C53.2309 18.6235 53.3603 18.7422 53.4906 18.861C53.596 18.9546 53.7044 19.0433 53.8142 19.1316C54.3674 19.584 54.3674 19.584 54.4556 19.972C54.4737 20.272 54.384 20.5209 54.1998 20.7548C53.9878 20.9864 53.747 21.1168 53.4308 21.1318C53.0524 21.1115 52.8338 20.8841 52.5712 20.635C52.463 20.5329 52.3502 20.4385 52.2341 20.3455C52.0777 20.2197 51.9287 20.0889 51.7819 19.9524C51.6008 19.7839 51.4136 19.6262 51.2208 19.471C51.0689 19.3454 50.9243 19.2125 50.7797 19.0785C50.6975 19.0041 50.6138 18.9364 50.5262 18.8687C50.349 18.7146 50.2634 18.5188 50.2344 18.2868C50.2292 18.1567 50.229 18.0275 50.2306 17.8973C50.2306 17.8481 50.2306 17.799 50.2305 17.7484C50.2306 17.6147 50.2314 17.481 50.2325 17.3473C50.2335 17.2073 50.2336 17.0672 50.2338 16.9271C50.2343 16.6622 50.2356 16.3974 50.2371 16.1326C50.2389 15.8309 50.2398 15.5292 50.2406 15.2275C50.2422 14.6074 50.2451 13.9872 50.2485 13.3671C49.7554 13.3671 49.2624 13.3671 48.7544 13.3671C48.7567 13.4931 48.7589 13.619 48.7613 13.7488C48.7628 13.8719 48.764 13.995 48.7652 14.1181C48.7662 14.2032 48.7675 14.2882 48.7692 14.3732C48.7716 14.496 48.7727 14.6188 48.7736 14.7416C48.7746 14.7791 48.7756 14.8166 48.7766 14.8553C48.7768 15.1657 48.6902 15.4175 48.4838 15.6532C48.2496 15.8851 47.9749 15.9641 47.651 15.9766C47.2246 15.9587 46.9841 15.7655 46.6705 15.4901C46.6072 15.4361 46.5436 15.3824 46.48 15.3288C46.4365 15.292 46.393 15.2552 46.3495 15.2183C46.2152 15.1043 46.0797 14.9919 45.9431 14.8807C45.762 14.7333 45.5836 14.583 45.4058 14.4319C45.2723 14.3187 45.1377 14.2071 45.0019 14.0969C44.8107 13.9413 44.6237 13.7813 44.437 13.6204C44.2636 13.4713 44.0875 13.3259 43.9099 13.1819C43.7844 13.0788 43.6608 12.9736 43.5373 12.8683C43.3547 12.7127 43.1688 12.5644 42.9746 12.4235C42.8116 12.4904 42.6897 12.606 42.5593 12.7208C42.5099 12.7638 42.4605 12.8067 42.411 12.8495C42.3866 12.8707 42.3622 12.8919 42.3371 12.9137C42.2398 12.9971 42.1404 13.0777 42.0407 13.1582C41.8685 13.298 41.7039 13.4444 41.5399 13.5937C41.4064 13.7125 41.2675 13.8241 41.1286 13.9365C40.9882 14.0523 40.8509 14.1713 40.7137 14.291C40.5454 14.4378 40.3763 14.5829 40.2026 14.7234C39.9536 14.9252 39.713 15.1362 39.4713 15.3465C39.1589 15.6178 38.8438 15.8858 38.5276 16.1526C38.3692 16.2863 38.2119 16.4213 38.0548 16.5565C37.8951 16.6938 37.7344 16.8293 37.5707 16.9619C37.3211 17.1647 37.0795 17.3764 36.837 17.5875C36.5248 17.8586 36.2097 18.1265 35.8938 18.3931C35.7073 18.5506 35.522 18.7095 35.3372 18.8689C35.2113 18.9771 35.0839 19.0828 34.9536 19.1857C35.0077 19.2022 35.0077 19.2022 35.0629 19.219C35.4056 19.331 35.7049 19.4407 35.8805 19.7756C35.956 19.9573 35.9526 20.1311 35.9507 20.3255C35.9509 20.3837 35.9509 20.3837 35.951 20.4432C35.9512 20.5734 35.9506 20.7035 35.9499 20.8337C35.9499 20.9286 35.9499 21.0235 35.95 21.1184C35.95 21.3725 35.9493 21.6265 35.9485 21.8805C35.9478 22.119 35.9478 22.3574 35.9477 22.5958C35.9471 23.293 35.9454 23.9902 35.9439 24.6874C35.9415 26.2451 35.9391 27.8028 35.9365 29.4076C40.6725 29.4076 45.4084 29.4076 50.2878 29.4076C50.2878 27.9546 50.2878 26.5015 50.2878 25.0043C50.4381 24.6662 50.5254 24.4863 50.8536 24.3308C51.1469 24.2284 51.4278 24.2353 51.7131 24.3606C51.9368 24.4858 52.0903 24.6761 52.1889 24.9119C52.2468 25.1217 52.2314 25.3437 52.2309 25.5599C52.2312 25.6162 52.2315 25.6726 52.2319 25.7289C52.2328 25.8814 52.2329 26.0338 52.2328 26.1863C52.2328 26.3139 52.2332 26.4415 52.2335 26.5691C52.2342 26.8703 52.2344 27.1715 52.2341 27.4727C52.2338 27.7827 52.2347 28.0927 52.2362 28.4027C52.2374 28.6695 52.2378 28.9363 52.2377 29.203C52.2376 29.3621 52.2378 29.5212 52.2388 29.6802C52.2397 29.8299 52.2396 29.9796 52.2388 30.1293C52.2387 30.184 52.2389 30.2387 52.2394 30.2933C52.2429 30.6545 52.2083 30.9593 51.9625 31.24C51.7382 31.4433 51.5036 31.5061 51.2091 31.5063C51.1659 31.5066 51.1659 31.5066 51.1218 31.5069C51.0254 31.5073 50.929 31.507 50.8326 31.5066C50.7627 31.5068 50.6928 31.507 50.6229 31.5072C50.431 31.5078 50.2391 31.5076 50.0472 31.5073C49.8402 31.5072 49.6332 31.5077 49.4262 31.5081C49.0206 31.5087 48.6151 31.5088 48.2096 31.5086C47.88 31.5084 47.5504 31.5085 47.2208 31.5087C47.1504 31.5087 47.1504 31.5087 47.0787 31.5088C46.9834 31.5088 46.8882 31.5089 46.7929 31.5089C45.8994 31.5095 45.0058 31.5093 44.1123 31.5088C43.2947 31.5084 42.4772 31.5089 41.6596 31.5099C40.8203 31.5108 39.9809 31.5112 39.1416 31.5109C38.6703 31.5108 38.1991 31.5109 37.7278 31.5116C37.3266 31.5122 36.9254 31.5122 36.5242 31.5115C36.3195 31.5112 36.1148 31.5111 35.9101 31.5117C35.7227 31.5122 35.5353 31.512 35.3478 31.5113C35.2801 31.5111 35.2123 31.5112 35.1445 31.5117C34.3981 31.5158 34.3981 31.5159 34.1436 31.2744C34.0211 31.1338 33.9657 31.0384 33.9658 30.8552C33.9657 30.8205 33.9656 30.7858 33.9655 30.7501C33.9657 30.7118 33.9658 30.6735 33.9659 30.634C33.9659 30.5935 33.9658 30.5529 33.9658 30.5112C33.9657 30.3745 33.9659 30.2378 33.9662 30.1012C33.9662 30.0036 33.9662 29.9059 33.9661 29.8083C33.9661 29.5977 33.9662 29.3871 33.9665 29.1764C33.9668 28.8719 33.9669 28.5674 33.9669 28.2629C33.967 27.7688 33.9673 27.2748 33.9677 26.7807C33.968 26.3007 33.9683 25.8207 33.9685 25.3407C33.9685 25.3112 33.9685 25.2816 33.9685 25.2511C33.9685 25.1028 33.9686 24.9544 33.9686 24.8061C33.969 23.5748 33.9697 22.3435 33.9706 21.1121C33.9224 21.1128 33.8743 21.1134 33.8246 21.114C33.6446 21.1162 33.4646 21.1175 33.2845 21.1186C33.2068 21.1192 33.1292 21.12 33.0515 21.121C32.9393 21.1225 32.8272 21.1231 32.715 21.1237C32.6807 21.1243 32.6464 21.1249 32.6111 21.1255C32.2159 21.1256 31.943 21.0137 31.6577 20.7396C31.4593 20.5094 31.3842 20.2491 31.4006 19.9471C31.4757 19.4579 31.9704 19.1716 32.3291 18.8822C32.4404 18.7899 32.547 18.6939 32.6535 18.596C32.8292 18.4342 33.0109 18.2826 33.1967 18.1326C33.3001 18.0473 33.3997 17.959 33.4988 17.8686C33.6323 17.7469 33.7686 17.6307 33.9092 17.5173C34.0587 17.3963 34.2026 17.2715 34.3441 17.1413C34.5199 16.9796 34.7016 16.8279 34.8874 16.678C34.9908 16.5926 35.0904 16.5043 35.1895 16.414C35.3586 16.2599 35.5339 16.1155 35.7117 15.9717C35.8492 15.8579 35.9805 15.7379 36.1124 15.6177C36.2145 15.527 36.3193 15.4407 36.4256 15.3549C36.5751 15.234 36.719 15.1092 36.8605 14.979C37.0363 14.8172 37.218 14.6656 37.4038 14.5156C37.5072 14.4303 37.6068 14.342 37.7059 14.2517C37.8394 14.13 37.9757 14.0137 38.1163 13.9003C38.2658 13.7793 38.4097 13.6546 38.5512 13.5243C38.727 13.3626 38.9086 13.2109 39.0945 13.061C39.1979 12.9756 39.2975 12.8873 39.3966 12.797C39.5301 12.6753 39.6664 12.5591 39.807 12.4456C39.9565 12.3247 40.1004 12.1999 40.2419 12.0697C40.4177 11.9079 40.5993 11.7563 40.7852 11.6063C40.8886 11.521 40.9882 11.4327 41.0873 11.3423C41.2553 11.1892 41.4295 11.0458 41.6065 10.9033C41.721 10.8077 41.829 10.7073 41.9375 10.6052C42.3584 10.2175 42.8669 10.0188 43.4193 10.2808Z" fill="#115056"/>
<path d="M13.6195 46.7309C13.6908 46.7307 13.6908 46.7307 13.7635 46.7304C13.8948 46.7301 14.0261 46.7303 14.1573 46.7307C14.3004 46.7311 14.4435 46.7307 14.5865 46.7305C14.8371 46.7301 15.0876 46.7302 15.3381 46.7305C15.7106 46.7311 16.0832 46.7309 16.4557 46.7307C17.1211 46.7302 17.7864 46.7304 18.4518 46.7309C19.034 46.7313 19.6163 46.7315 20.1985 46.7314C20.2564 46.7314 20.2564 46.7314 20.3155 46.7314C20.4723 46.7314 20.6291 46.7314 20.7858 46.7313C22.2564 46.7312 23.7269 46.7317 25.1975 46.7325C26.5041 46.7332 27.8108 46.7335 29.1174 46.7332C29.2013 46.7332 29.2852 46.7332 29.3691 46.7332C29.4314 46.7332 29.4314 46.7332 29.4949 46.7332C29.7037 46.7331 29.9125 46.7331 30.1213 46.7331C30.1625 46.7331 30.2037 46.7331 30.2462 46.7331C31.3379 46.7329 32.4296 46.7331 33.5213 46.7335C33.6388 46.7335 33.7563 46.7335 33.8737 46.7336C33.9516 46.7336 34.0296 46.7336 34.1075 46.7336C34.6508 46.7338 35.1942 46.7338 35.7376 46.7337C36.4377 46.7337 37.1378 46.7338 37.838 46.7344C38.2083 46.7347 38.5786 46.7348 38.949 46.7346C39.1962 46.7345 39.4435 46.7347 39.6908 46.7351C39.8317 46.7353 39.9727 46.7354 40.1136 46.7352C40.2654 46.7349 40.4173 46.7352 40.5691 46.7356C40.6128 46.7355 40.6566 46.7353 40.7016 46.7351C41.1361 46.7373 41.4774 46.7962 41.8012 47.1013C42.112 47.4302 42.1726 47.6845 42.1618 48.1364C42.1297 48.4752 41.9613 48.7183 41.7158 48.9473C41.3783 49.2138 41.0287 49.2341 40.6126 49.2325C40.5415 49.2327 40.5415 49.2327 40.4689 49.2329C40.3373 49.2332 40.2058 49.2331 40.0742 49.2329C39.931 49.2327 39.7879 49.233 39.6447 49.2332C39.3938 49.2336 39.1429 49.2336 38.892 49.2335C38.5189 49.2333 38.1458 49.2335 37.7727 49.2338C37.0676 49.2344 36.3624 49.2345 35.6573 49.2344C35.1128 49.2343 34.5683 49.2344 34.0239 49.2346C33.9457 49.2346 33.8675 49.2346 33.7893 49.2346C33.6714 49.2347 33.5536 49.2347 33.4357 49.2347C32.34 49.2351 31.2442 49.2352 30.1485 49.2351C30.1072 49.2351 30.0659 49.2351 30.0233 49.2351C29.8139 49.235 29.6045 49.235 29.3951 49.235C29.3535 49.235 29.3119 49.2349 29.269 49.2349C29.1849 49.2349 29.1008 49.2349 29.0167 49.2349C27.708 49.2347 26.3992 49.235 25.0905 49.2357C23.6204 49.2365 22.1502 49.237 20.6801 49.2368C20.5234 49.2368 20.3667 49.2368 20.2099 49.2368C20.1713 49.2368 20.1328 49.2368 20.093 49.2367C19.5102 49.2367 18.9274 49.237 18.3446 49.2374C17.6819 49.2379 17.0192 49.2379 16.3564 49.2374C15.9855 49.2372 15.6146 49.2372 15.2437 49.2378C14.9959 49.2381 14.7481 49.238 14.5003 49.2375C14.3591 49.2373 14.218 49.2372 14.0768 49.2377C13.9246 49.2382 13.7724 49.2377 13.6202 49.2372C13.5766 49.2375 13.533 49.2378 13.488 49.2381C13.0355 49.235 12.6748 49.1485 12.3449 48.8294C12.1203 48.5958 12.0495 48.2999 12.0156 47.9841C12.062 47.5514 12.2079 47.2245 12.5513 46.9471C12.8752 46.7443 13.2481 46.7285 13.6195 46.7309Z" fill="#165056"/>
<path d="M13.1419 40.6419C13.1828 40.6417 13.2237 40.6415 13.2659 40.6413C13.3107 40.6414 13.3555 40.6416 13.4017 40.6417C13.4496 40.6416 13.4975 40.6415 13.5469 40.6413C13.6803 40.641 13.8138 40.6411 13.9473 40.6413C14.0923 40.6414 14.2374 40.6411 14.3824 40.6408C14.6367 40.6404 14.8911 40.6403 15.1455 40.6404C15.5237 40.6405 15.9019 40.6402 16.2802 40.6397C16.995 40.639 17.7097 40.6388 18.4245 40.6387C18.9765 40.6387 19.5284 40.6385 20.0803 40.6383C20.2391 40.6382 20.3978 40.6381 20.5566 40.6381C20.596 40.638 20.6355 40.638 20.6762 40.638C21.7866 40.6375 22.897 40.6372 24.0074 40.6373C24.0493 40.6373 24.0911 40.6373 24.1343 40.6373C24.3466 40.6373 24.5589 40.6373 24.7711 40.6373C24.8133 40.6373 24.8555 40.6373 24.8989 40.6373C24.9842 40.6373 25.0694 40.6373 25.1547 40.6373C26.4814 40.6373 27.808 40.6368 29.1347 40.6357C30.6245 40.6345 32.1144 40.6338 33.6042 40.6339C33.763 40.6339 33.9218 40.6339 34.0806 40.6339C34.1393 40.6339 34.1393 40.6339 34.1991 40.6339C34.8289 40.6339 35.4587 40.6334 36.0885 40.6327C36.7213 40.632 37.3541 40.632 37.9869 40.6325C38.3629 40.6328 38.739 40.6326 39.1151 40.6318C39.3663 40.6314 39.6174 40.6315 39.8685 40.632C40.0117 40.6323 40.1548 40.6324 40.2979 40.6318C40.4521 40.6311 40.6063 40.6316 40.7605 40.6323C40.805 40.6319 40.8494 40.6315 40.8952 40.6311C41.2804 40.6346 41.5606 40.7436 41.8436 41.0057C42.115 41.3084 42.1643 41.6088 42.161 42.0036C42.1346 42.344 41.9875 42.6031 41.7362 42.8286C41.4141 43.0842 41.0387 43.1067 40.6421 43.1043C40.5944 43.1045 40.5466 43.1047 40.4975 43.1049C40.3654 43.1053 40.2335 43.1052 40.1014 43.1048C39.9576 43.1045 39.8138 43.1049 39.6701 43.1053C39.4182 43.1058 39.1663 43.1058 38.9144 43.1056C38.5399 43.1052 38.1654 43.1055 37.7908 43.106C37.1219 43.1068 36.4529 43.1068 35.7839 43.1066C35.1985 43.1065 34.6131 43.1065 34.0276 43.1067C33.9491 43.1067 33.8706 43.1068 33.7921 43.1068C33.6737 43.1068 33.5554 43.1069 33.4371 43.1069C32.337 43.1074 31.2369 43.1075 30.1369 43.1072C30.0954 43.1072 30.0539 43.1072 30.0112 43.1072C29.6744 43.1071 29.3376 43.107 29.0009 43.1069C27.6871 43.1065 26.3733 43.1068 25.0596 43.1077C23.5836 43.1088 22.1076 43.1093 20.6317 43.109C20.4743 43.109 20.317 43.1089 20.1596 43.1089C20.1209 43.1089 20.0821 43.1089 20.0422 43.1089C19.4572 43.1088 18.8721 43.1091 18.2871 43.1096C17.6218 43.1102 16.9566 43.1102 16.2913 43.1095C15.919 43.1092 15.5467 43.1092 15.1744 43.1099C14.9257 43.1103 14.6769 43.1102 14.4282 43.1095C14.2865 43.1092 14.1448 43.1091 14.0032 43.1097C13.8504 43.1103 13.6976 43.1098 13.5448 43.1091C13.5011 43.1095 13.4573 43.1098 13.4121 43.1102C12.9946 43.1063 12.6486 42.9991 12.3444 42.7075C12.1216 42.4457 12.0173 42.144 12.0237 41.8012C12.0534 41.4871 12.1769 41.2024 12.3859 40.9664C12.6113 40.7807 12.8445 40.6421 13.1419 40.6419Z" fill="#165056"/>
<path d="M13.1337 34.8625C13.1601 34.8623 13.1866 34.8622 13.2139 34.8621C13.3023 34.8617 13.3907 34.8619 13.4791 34.8621C13.5433 34.8619 13.6074 34.8617 13.6716 34.8615C13.8476 34.8611 14.0237 34.8611 14.1998 34.8612C14.3898 34.8612 14.5797 34.8607 14.7697 34.8604C15.1418 34.8597 15.514 34.8595 15.8861 34.8595C16.1886 34.8594 16.4911 34.8593 16.7936 34.859C17.6514 34.8583 18.5092 34.858 19.367 34.858C19.4132 34.858 19.4595 34.858 19.5071 34.858C19.5766 34.858 19.5766 34.858 19.6474 34.858C20.3977 34.8581 21.1479 34.8573 21.8981 34.8562C22.6686 34.8551 23.4391 34.8545 24.2096 34.8546C24.6421 34.8546 25.0746 34.8544 25.5071 34.8536C25.8754 34.8528 26.2436 34.8527 26.6119 34.8532C26.7997 34.8535 26.9875 34.8535 27.1754 34.8528C27.3475 34.8522 27.5196 34.8523 27.6917 34.853C27.7538 34.8531 27.8159 34.8529 27.878 34.8525C28.312 34.8496 28.7014 34.872 29.0349 35.1773C29.3262 35.4965 29.3903 35.8248 29.3823 36.2451C29.3676 36.5641 29.2373 36.8137 29.02 37.0444C28.7301 37.292 28.4149 37.3543 28.0425 37.3545C28.0164 37.3546 27.9904 37.3546 27.9635 37.3547C27.8763 37.3549 27.7891 37.3548 27.7019 37.3547C27.6387 37.3548 27.5755 37.3549 27.5123 37.355C27.3386 37.3552 27.165 37.3552 26.9914 37.3552C26.8041 37.3552 26.6169 37.3554 26.4296 37.3556C26.0627 37.3559 25.6958 37.356 25.329 37.356C25.0308 37.356 24.7326 37.3561 24.4344 37.3562C23.589 37.3566 22.7436 37.3568 21.8983 37.3567C21.8527 37.3567 21.8071 37.3567 21.7602 37.3567C21.6917 37.3567 21.6917 37.3567 21.6219 37.3567C20.8823 37.3567 20.1426 37.3571 19.403 37.3576C18.6436 37.3582 17.8843 37.3585 17.1249 37.3584C16.6985 37.3584 16.2722 37.3585 15.8458 37.359C15.4828 37.3593 15.1198 37.3594 14.7568 37.3591C14.5717 37.359 14.3865 37.359 14.2013 37.3593C14.0317 37.3597 13.8621 37.3596 13.6925 37.3593C13.6312 37.3592 13.5699 37.3593 13.5086 37.3595C13.029 37.3611 12.612 37.35 12.2409 37.014C11.9942 36.7519 11.9053 36.4673 11.8945 36.111C11.9077 35.6885 12.0396 35.3981 12.3467 35.1085C12.5882 34.9173 12.8291 34.8628 13.1337 34.8625Z" fill="#165056"/>
<path d="M13.2025 29.1126C13.2577 29.1124 13.3129 29.1121 13.3681 29.1118C13.5192 29.1112 13.6703 29.1115 13.8214 29.112C13.9846 29.1123 14.1478 29.1118 14.3109 29.1113C14.6304 29.1106 14.9498 29.1108 15.2692 29.1112C15.5289 29.1116 15.7885 29.1117 16.0482 29.1115C16.0851 29.1115 16.1221 29.1114 16.1602 29.1114C16.2353 29.1114 16.3104 29.1113 16.3855 29.1113C17.0896 29.1108 17.7936 29.1113 18.4977 29.1122C19.1017 29.1129 19.7056 29.1127 20.3096 29.112C21.0112 29.1112 21.7127 29.1109 22.4143 29.1113C22.4891 29.1114 22.5639 29.1114 22.6388 29.1115C22.694 29.1115 22.694 29.1115 22.7503 29.1116C23.0096 29.1117 23.2689 29.1115 23.5282 29.1111C23.8443 29.1106 24.1603 29.1108 24.4763 29.1116C24.6375 29.112 24.7988 29.1122 24.96 29.1117C25.1076 29.1112 25.2553 29.1115 25.4029 29.1123C25.4815 29.1125 25.56 29.112 25.6386 29.1115C25.9605 29.1143 26.1719 29.1523 26.4275 29.3587C26.7268 29.7017 26.8099 30.0656 26.7894 30.5136C26.7548 30.8709 26.6301 31.1124 26.393 31.3784C26.116 31.6049 25.8328 31.5869 25.4891 31.5853C25.434 31.5855 25.3788 31.5857 25.3236 31.5859C25.1725 31.5865 25.0213 31.5863 24.8701 31.5861C24.7069 31.5859 24.5437 31.5864 24.3805 31.5868C24.0609 31.5874 23.7413 31.5875 23.4218 31.5873C23.162 31.5871 22.9023 31.5872 22.6425 31.5874C22.6055 31.5874 22.5686 31.5874 22.5305 31.5875C22.4553 31.5875 22.3802 31.5876 22.3051 31.5876C21.6008 31.5882 20.8965 31.588 20.1921 31.5875C19.5478 31.5871 18.9035 31.5876 18.2592 31.5886C17.5976 31.5895 16.9359 31.5899 16.2742 31.5897C15.9028 31.5895 15.5314 31.5896 15.1599 31.5903C14.8437 31.5909 14.5276 31.5909 14.2114 31.5902C14.0501 31.5899 13.8888 31.5898 13.7275 31.5904C13.5798 31.5909 13.4321 31.5908 13.2843 31.59C13.2057 31.5898 13.1271 31.5903 13.0485 31.5909C12.7265 31.5883 12.5151 31.5504 12.2594 31.3438C11.9601 31.0009 11.8773 30.6371 11.8974 30.1891C11.93 29.856 12.0402 29.6099 12.2594 29.3587C12.5605 29.1156 12.8276 29.11 13.2025 29.1126Z" fill="#165056"/>
<path d="M20.3143 13.6153C21.0842 14.2699 21.5633 15.1722 21.6535 16.1797C21.6986 16.8401 21.5891 17.4683 21.3039 18.0671C21.2654 18.1776 21.2714 18.2127 21.3096 18.3208C21.3887 18.4101 21.4681 18.4931 21.5534 18.5761C21.5915 18.614 21.5915 18.614 21.6305 18.6527C21.6858 18.7076 21.7412 18.7623 21.7968 18.8169C21.8848 18.9034 21.9725 18.9903 22.06 19.0773C22.2777 19.2933 22.496 19.5087 22.7142 19.7241C22.8985 19.9061 23.0825 20.0882 23.2662 20.2707C23.3524 20.3561 23.4389 20.4412 23.5255 20.5262C23.5786 20.5789 23.6317 20.6316 23.6849 20.6844C23.7089 20.7078 23.7329 20.7312 23.7576 20.7553C23.93 20.9276 24.0787 21.1022 24.1221 21.3492C24.1178 21.7425 24.0275 21.9371 23.7596 22.2229C23.5364 22.4356 23.3298 22.5684 23.0175 22.5865C22.6872 22.5646 22.4663 22.3705 22.2437 22.1427C22.2172 22.1163 22.1907 22.0898 22.1634 22.0625C22.0766 21.9756 21.9904 21.8883 21.9043 21.8008C21.8439 21.7402 21.7835 21.6796 21.7231 21.6191C21.5648 21.4601 21.407 21.3008 21.2492 21.1413C21.0879 20.9784 20.9262 20.816 20.7645 20.6535C20.4477 20.3351 20.1314 20.0161 19.8155 19.6969C19.775 19.7132 19.7345 19.7296 19.6928 19.7465C19.6391 19.768 19.5854 19.7896 19.5318 19.8112C19.5052 19.822 19.4785 19.8328 19.4511 19.8439C18.5452 20.2078 17.5206 20.2035 16.6158 19.8373C16.118 19.6236 15.7174 19.3287 15.3332 18.9499C15.29 18.9075 15.29 18.9075 15.2459 18.8642C14.6699 18.2585 14.3544 17.4185 14.3109 16.591C14.3084 16.546 14.3084 16.546 14.306 16.5001C14.2805 15.5334 14.6365 14.6487 15.2545 13.9175C15.2766 13.8914 15.2987 13.8652 15.3215 13.8383C16.6326 12.4214 18.8718 12.484 20.3143 13.6153ZM15.9423 14.6982C15.4879 15.2777 15.2885 15.936 15.3332 16.6696C15.4417 17.4423 15.7988 18.0538 16.3948 18.5567C17.0617 19.0297 17.7807 19.1453 18.5817 19.0511C19.058 18.9457 19.4995 18.6893 19.8548 18.3602C19.8958 18.3223 19.8958 18.3223 19.9377 18.2837C20.3937 17.8189 20.6313 17.1331 20.651 16.4927C20.6407 15.8037 20.3954 15.1768 19.9334 14.6645C19.914 14.6415 19.8945 14.6184 19.8744 14.5947C19.4753 14.1547 18.8395 13.837 18.2457 13.7941C17.354 13.7538 16.5485 14.008 15.9423 14.6982Z" fill="#115056"/>
<path d="M42.8169 17.3772C43.2191 17.3772 43.6214 17.3772 44.0358 17.3772C44.0488 17.7794 44.0617 18.1816 44.0751 18.596C44.2515 18.6276 44.2515 18.6276 44.4314 18.6599C44.9614 18.7622 45.6482 18.9502 46.041 19.343C46.0169 19.5838 45.8915 19.8036 45.7928 20.0211C45.7737 20.0649 45.7546 20.1087 45.7348 20.1538C45.716 20.1954 45.6972 20.2369 45.6778 20.2798C45.6522 20.3369 45.6522 20.3369 45.6261 20.3951C45.5692 20.4831 45.5692 20.4831 45.4899 20.518C45.3729 20.5246 45.3044 20.4761 45.203 20.4192C44.543 20.0735 43.7374 19.8845 42.9957 20.0397C42.7547 20.121 42.5645 20.2314 42.409 20.4364C42.3521 20.6354 42.3574 20.7828 42.4483 20.9647C42.6386 21.1851 42.8551 21.2651 43.1265 21.3407C43.1605 21.3505 43.1944 21.3604 43.2293 21.3705C43.38 21.4142 43.531 21.4567 43.682 21.499C45.6409 22.0481 45.6409 22.0481 46.1369 22.8445C46.4192 23.3588 46.4637 23.8802 46.3175 24.4475C46.1192 25.0556 45.6841 25.4546 45.1367 25.7513C44.7979 25.9201 44.4181 26.0658 44.0358 26.0658C44.0358 26.494 44.0358 26.9221 44.0358 27.3632C43.6336 27.3632 43.2313 27.3632 42.8169 27.3632C42.8169 26.9481 42.8169 26.5329 42.8169 26.1052C42.7131 26.1052 42.6093 26.1052 42.5024 26.1052C42.3882 26.0918 42.2777 26.0669 42.1657 26.0413C42.135 26.0343 42.1043 26.0273 42.0727 26.02C41.4237 25.8642 40.8332 25.5731 40.3398 25.1223C40.7217 24.2647 40.7217 24.2647 40.8903 23.9428C41.0266 24.0064 41.1479 24.0866 41.2737 24.1689C41.9953 24.622 42.9124 24.8141 43.7544 24.6626C44.0415 24.5825 44.3408 24.4667 44.5248 24.2213C44.6199 24.0506 44.6541 23.9032 44.6256 23.7069C44.5207 23.4427 44.3708 23.346 44.1144 23.2352C43.8132 23.1121 43.4984 23.0416 43.1831 22.9649C42.3253 22.7546 41.3499 22.4805 40.8607 21.6767C40.6042 21.1912 40.5337 20.6203 40.6937 20.0899C40.9455 19.469 41.328 19.0656 41.9488 18.7978C42.2254 18.696 42.5213 18.596 42.8169 18.596C42.8169 18.1938 42.8169 17.7916 42.8169 17.3772Z" fill="#115056"/>
</svg>
