<svg width="60" height="64" viewBox="0 0 60 64" fill="none" xmlns="http://www.w3.org/2000/svg">
<path d="M10.835 5.68397C10.896 5.68385 10.896 5.68385 10.9584 5.68372C11.0942 5.68349 11.2301 5.68355 11.3659 5.68361C11.4646 5.6835 11.5632 5.68338 11.6618 5.68325C11.904 5.68296 12.1463 5.68285 12.3885 5.68283C12.6788 5.68279 12.9691 5.68252 13.2594 5.68225C13.9607 5.6816 14.6621 5.68136 15.3634 5.68117C15.6952 5.68108 16.027 5.68093 16.3589 5.68078C17.495 5.68026 18.6312 5.67983 19.7674 5.67969C19.8387 5.67968 19.9099 5.67967 19.9812 5.67966C20.0526 5.67965 20.1241 5.67965 20.1955 5.67964C20.3388 5.67962 20.4821 5.6796 20.6254 5.67958C20.6609 5.67958 20.6964 5.67957 20.733 5.67957C21.8858 5.67942 23.0386 5.67878 24.1914 5.67784C25.4106 5.67685 26.6299 5.67629 27.8491 5.67625C27.9829 5.67624 28.1168 5.67623 28.2506 5.67622C28.2835 5.67622 28.3165 5.67622 28.3504 5.67621C28.8806 5.67617 29.4108 5.67572 29.9411 5.67514C30.4738 5.67456 31.0065 5.67442 31.5392 5.67475C31.8557 5.67493 32.1722 5.67477 32.4886 5.67413C32.7249 5.6737 32.9612 5.67389 33.1975 5.67433C33.2931 5.67441 33.3887 5.67428 33.4843 5.67393C33.6142 5.67348 33.7441 5.67378 33.874 5.67427C33.9111 5.67396 33.9483 5.67366 33.9865 5.67334C34.3866 5.67656 34.7277 5.77295 35.0217 6.05242C35.2957 6.34692 35.4126 6.66617 35.3986 7.0681C35.3529 7.44836 35.1877 7.73784 34.9007 7.98921C34.5799 8.20806 34.2205 8.24337 33.8426 8.24142C33.7816 8.24159 33.7816 8.24159 33.7194 8.24176C33.583 8.24204 33.4466 8.24175 33.3102 8.24146C33.2114 8.24154 33.1127 8.24167 33.014 8.24182C32.7992 8.24208 32.5845 8.24209 32.3697 8.24188C32.0504 8.24157 31.731 8.24172 31.4116 8.24198C30.8743 8.24241 30.3369 8.24248 29.7995 8.24238C29.0316 8.24224 28.2636 8.24278 27.4956 8.24346C27.1874 8.24373 26.8791 8.24398 26.5708 8.24422C26.5195 8.24427 26.5195 8.24427 26.467 8.24431C25.6519 8.24496 24.8368 8.2454 24.0217 8.24577C23.986 8.24578 23.9503 8.2458 23.9136 8.24582C23.0817 8.2462 22.2498 8.24648 21.4179 8.24657C21.3642 8.24658 21.3642 8.24658 21.3095 8.24659C21.1291 8.24661 20.9487 8.24663 20.7684 8.24665C20.7327 8.24665 20.6971 8.24666 20.6603 8.24666C20.5884 8.24667 20.5164 8.24668 20.4445 8.24669C19.2552 8.24682 18.0659 8.24751 16.8767 8.24879C16.7087 8.24897 16.5406 8.24914 16.3726 8.24931C16.3396 8.24934 16.3065 8.24938 16.2724 8.24941C15.7407 8.24992 15.209 8.24984 14.6772 8.24953C14.1426 8.24922 13.608 8.24948 13.0734 8.25032C12.756 8.2508 12.4386 8.25083 12.1212 8.25022C11.8839 8.24981 11.6466 8.25024 11.4094 8.25099C11.3136 8.25117 11.2178 8.25107 11.122 8.25067C10.2506 8.24729 9.55071 8.36622 8.90461 9.00126C8.49966 9.43402 8.26294 9.9972 8.26469 10.5896C8.26459 10.6347 8.26459 10.6347 8.26448 10.6808C8.26429 10.7821 8.26438 10.8834 8.26448 10.9848C8.2644 11.0583 8.2643 11.1317 8.26419 11.2052C8.26393 11.4083 8.26392 11.6114 8.26396 11.8145C8.26395 12.0351 8.26371 12.2556 8.2635 12.4761C8.26313 12.9141 8.26297 13.352 8.26288 13.7899C8.26276 14.3142 8.26241 14.8385 8.26205 15.3629C8.26121 16.6303 8.26079 17.8977 8.26043 19.1652C8.26032 19.5849 8.26018 20.0046 8.26003 20.4243C8.26002 20.4687 8.26002 20.4687 8.26 20.514C8.25996 20.6338 8.25992 20.7536 8.25987 20.8734C8.25915 22.9224 8.25853 24.9713 8.25823 27.0203C8.25821 27.1812 8.25818 27.3422 8.25816 27.5031C8.25815 27.551 8.25815 27.551 8.25814 27.5999C8.25809 27.9234 8.25805 28.2469 8.258 28.5703C8.25799 28.6352 8.25798 28.7001 8.25797 28.7649C8.25765 30.8478 8.25675 32.9307 8.25544 35.0137C8.2545 36.5102 8.25363 38.0068 8.25334 39.5033C8.25333 39.5341 8.25333 39.5649 8.25332 39.5966C8.25319 40.2723 8.25311 40.948 8.25307 41.6237C8.25305 41.8955 8.25303 42.1674 8.25301 42.4393C8.253 42.4691 8.253 42.4988 8.253 42.5295C8.25292 43.4878 8.25234 44.4462 8.25152 45.4046C8.25069 46.37 8.25037 47.3354 8.25075 48.3008C8.25099 48.8997 8.2508 49.4987 8.24988 50.0977C8.24933 50.4797 8.24937 50.8618 8.24989 51.2439C8.25017 51.4616 8.2502 51.6794 8.24951 51.8971C8.24888 52.0954 8.24901 52.2936 8.24972 52.4918C8.24985 52.563 8.24971 52.6341 8.24926 52.7052C8.2446 53.4951 8.43191 54.1476 8.9995 54.725C9.41057 55.1097 9.96406 55.3645 10.5311 55.365C10.5804 55.3651 10.6298 55.3653 10.6806 55.3654C10.7353 55.3654 10.79 55.3653 10.8448 55.3653C10.9032 55.3654 10.9616 55.3655 11.02 55.3656C11.1811 55.3659 11.3423 55.3659 11.5035 55.3659C11.6786 55.366 11.8537 55.3663 12.0288 55.3665C12.3765 55.3669 12.7241 55.3672 13.0717 55.3673C13.488 55.3675 13.9042 55.368 14.3205 55.3684C15.3267 55.3694 16.333 55.37 17.3392 55.3706C17.6725 55.3707 18.0057 55.3709 18.339 55.3711C20.1108 55.3721 21.8826 55.373 23.6543 55.3735C24.0649 55.3736 24.4755 55.3738 24.886 55.3739C24.937 55.3739 24.988 55.3739 25.0406 55.3739C26.6943 55.3744 28.348 55.3757 30.0017 55.3774C31.7016 55.3791 33.4015 55.3802 35.1014 55.3804C35.3415 55.3804 35.5816 55.3804 35.8217 55.3805C35.869 55.3805 35.9162 55.3805 35.9649 55.3805C36.7254 55.3806 37.4859 55.3815 38.2463 55.3825C39.0108 55.3836 39.7752 55.3839 40.5397 55.3834C40.9938 55.3832 41.4479 55.3835 41.902 55.3846C42.2056 55.3853 42.5091 55.3853 42.8126 55.3847C42.9854 55.3843 43.1582 55.3843 43.3311 55.3852C43.4886 55.386 43.6462 55.3858 43.8038 55.3849C43.8864 55.3847 43.9691 55.3855 44.0517 55.3863C44.6229 55.381 45.135 55.2223 45.5934 54.8756C45.6227 54.8536 45.652 54.8316 45.6823 54.8089C46.1722 54.4115 46.4194 53.8308 46.5214 53.2212C46.5373 53.0085 46.5376 52.7968 46.5364 52.5836C46.5365 52.5207 46.5367 52.4579 46.5369 52.395C46.5373 52.2236 46.537 52.0522 46.5365 51.8808C46.5361 51.6954 46.5365 51.51 46.5367 51.3246C46.5371 51.0038 46.5371 50.683 46.5367 50.3622C46.5363 49.8978 46.5367 49.4335 46.5372 48.9691C46.5382 48.215 46.5387 47.4609 46.5389 46.7068C46.5389 46.6392 46.5389 46.6392 46.5389 46.5702C46.539 46.0671 46.5391 45.564 46.539 45.0609C46.539 44.8784 46.539 44.6958 46.539 44.5133C46.539 44.4682 46.539 44.4232 46.539 44.3767C46.539 43.6253 46.5396 42.8738 46.5406 42.1223C46.5413 41.6592 46.5414 41.1961 46.5408 40.7329C46.5404 40.4157 46.5406 40.0984 46.5412 39.7811C46.5416 39.5981 46.5416 39.4152 46.541 39.2323C46.5405 39.0646 46.5406 38.897 46.5414 38.7293C46.5416 38.6689 46.5414 38.6084 46.541 38.5479C46.5379 38.0784 46.5887 37.6652 46.9249 37.3123C47.2415 37.0395 47.5414 36.9854 47.9494 36.9896C48.2691 37.0138 48.5177 37.1433 48.7504 37.361C48.9625 37.6107 49.0684 37.9005 49.0689 38.2243C49.0689 38.2504 49.069 38.2765 49.0691 38.3035C49.0694 38.3916 49.0694 38.4798 49.0694 38.5679C49.0695 38.6315 49.0697 38.6951 49.0698 38.7587C49.0702 38.934 49.0704 39.1093 49.0705 39.2846C49.0706 39.4735 49.071 39.6624 49.0714 39.8513C49.0722 40.3079 49.0726 40.7645 49.0729 41.2212C49.0731 41.4363 49.0733 41.6515 49.0736 41.8667C49.0742 42.5823 49.0748 43.2979 49.0751 44.0136C49.0752 44.1994 49.0753 44.3852 49.0753 44.571C49.0754 44.6171 49.0754 44.6633 49.0754 44.7109C49.0757 45.4577 49.0768 46.2046 49.0781 46.9515C49.0794 47.7188 49.0801 48.486 49.0803 49.2533C49.0804 49.6839 49.0807 50.1145 49.0817 50.5451C49.0826 50.9121 49.0829 51.2791 49.0825 51.6461C49.0824 51.8331 49.0824 52.0201 49.0832 52.2071C49.089 53.6473 49.089 53.6473 48.902 54.3107C48.8906 54.3522 48.8906 54.3522 48.8788 54.3946C48.6576 55.1882 48.2123 55.8541 47.6512 56.4492C47.6245 56.479 47.5977 56.5088 47.5702 56.5395C46.7621 57.4044 45.5426 57.8599 44.3829 57.9421C44.1901 57.9477 43.9974 57.9476 43.8045 57.9473C43.7463 57.9474 43.6881 57.9475 43.6299 57.9475C43.4702 57.9477 43.3105 57.9477 43.1508 57.9476C42.9769 57.9475 42.803 57.9477 42.6292 57.9478C42.3245 57.948 42.0199 57.9481 41.7152 57.948C41.2622 57.948 40.8091 57.9481 40.3561 57.9484C39.4998 57.9487 38.6436 57.9489 37.7873 57.9489C37.1261 57.9489 36.4648 57.949 35.8036 57.9491C35.6132 57.9491 35.4229 57.9492 35.2326 57.9492C35.1852 57.9492 35.1379 57.9492 35.0892 57.9492C33.7582 57.9495 32.4271 57.9496 31.0961 57.9496C31.0459 57.9496 30.9957 57.9496 30.944 57.9496C30.6897 57.9496 30.4353 57.9496 30.1809 57.9496C30.1052 57.9496 30.1052 57.9496 30.0279 57.9496C29.9257 57.9496 29.8235 57.9496 29.7214 57.9496C28.1321 57.9496 26.5428 57.9499 24.9535 57.9504C23.1679 57.9511 21.3824 57.9514 19.5968 57.9514C19.4064 57.9514 19.216 57.9514 19.0255 57.9514C18.9787 57.9514 18.9318 57.9514 18.8835 57.9514C18.1291 57.9514 17.3748 57.9516 16.6204 57.952C15.8622 57.9523 15.104 57.9523 14.3457 57.9521C13.8954 57.9519 13.445 57.952 12.9947 57.9524C12.6937 57.9526 12.3926 57.9526 12.0916 57.9523C11.9202 57.9521 11.7488 57.9521 11.5774 57.9524C10.0762 57.9551 8.63803 57.8065 7.4629 56.772C7.43039 56.7448 7.39788 56.7176 7.36439 56.6896C6.38837 55.851 5.80676 54.6329 5.69569 53.3566C5.67845 53.0713 5.68189 52.7855 5.68221 52.4997C5.68214 52.4264 5.68206 52.3531 5.68196 52.2797C5.68173 52.0782 5.68176 51.8766 5.68183 51.675C5.68186 51.4557 5.68165 51.2364 5.68148 51.0171C5.68118 50.5822 5.68109 50.1472 5.68106 49.7123C5.68103 49.1913 5.68076 48.6703 5.68048 48.1494C5.67985 46.9201 5.67961 45.6909 5.67942 44.4616C5.67932 43.836 5.67917 43.2105 5.67901 42.5849C5.6785 40.5776 5.67807 38.5704 5.67793 36.5631C5.67793 36.4672 5.67792 36.3713 5.67791 36.2754C5.6779 36.0831 5.67788 35.8907 5.67787 35.6984C5.67786 35.4732 5.67784 35.248 5.67782 35.0229C5.67782 34.9584 5.67782 34.894 5.67781 34.8295C5.67767 32.76 5.67706 30.6904 5.67612 28.6209C5.67544 27.1336 5.67482 25.6462 5.67464 24.1588C5.67463 24.1282 5.67463 24.0976 5.67462 24.0661C5.67454 23.3942 5.6745 22.7223 5.67448 22.0504C5.67448 21.81 5.67447 21.5695 5.67446 21.3291C5.67446 21.2693 5.67445 21.2094 5.67445 21.1496C5.67441 20.1975 5.67401 19.2454 5.67342 18.2933C5.67282 17.3072 5.67265 16.3212 5.67298 15.3351C5.67316 14.7669 5.67301 14.1987 5.67237 13.6306C5.67198 13.2507 5.67202 12.8709 5.67243 12.4911C5.67264 12.2749 5.67267 12.0587 5.67216 11.8424C5.6717 11.6453 5.67181 11.4481 5.67235 11.2509C5.67245 11.1805 5.67235 11.11 5.67201 11.0396C5.66911 10.3874 5.71144 9.70699 5.93465 9.08874C5.9467 9.05418 5.95875 9.01962 5.97116 8.98401C6.41761 7.75165 7.33201 6.73858 8.5142 6.17442C9.26245 5.83064 10.0136 5.68239 10.835 5.68397Z" fill="#165056"/>
<path d="M36.0418 12.4113C36.105 12.4106 36.105 12.4106 36.1695 12.4098C36.2148 12.4099 36.2601 12.41 36.3068 12.4101C36.3536 12.4099 36.4003 12.4097 36.4485 12.4095C36.5474 12.4092 36.6462 12.4093 36.7451 12.4096C36.8964 12.41 37.0476 12.4088 37.1988 12.4075C37.2949 12.4075 37.391 12.4075 37.487 12.4076C37.5323 12.4072 37.5775 12.4067 37.6241 12.4062C37.9378 12.4091 37.9378 12.4091 38.0973 12.5045C38.2285 12.6558 38.2153 12.7595 38.2135 12.9572C38.2131 13.0089 38.2127 13.0606 38.2124 13.1139C38.2119 13.1537 38.2114 13.1936 38.211 13.2346C38.2442 13.2346 38.2774 13.2345 38.3116 13.2345C40.2794 13.2318 42.2471 13.2297 44.2148 13.2285C44.4509 13.2283 44.6871 13.2281 44.9232 13.228C44.9702 13.228 45.0172 13.2279 45.0656 13.2279C45.8274 13.2274 46.5891 13.2264 47.3509 13.2253C48.1322 13.2242 48.9135 13.2235 49.6948 13.2232C50.1771 13.2231 50.6594 13.2226 51.1417 13.2216C51.4722 13.2209 51.8027 13.2207 52.1332 13.2209C52.324 13.221 52.5148 13.2209 52.7057 13.2202C52.8803 13.2196 53.0549 13.2196 53.2295 13.22C53.2927 13.2201 53.356 13.2199 53.4193 13.2195C53.5051 13.219 53.5909 13.2193 53.6768 13.2197C53.7245 13.2197 53.7722 13.2196 53.8214 13.2196C53.9979 13.2407 54.1037 13.305 54.2212 13.4363C54.2965 13.6228 54.2874 13.8032 54.2862 14.0025C54.2863 14.0457 54.2864 14.0888 54.2866 14.1332C54.2866 14.2242 54.2864 14.3153 54.2859 14.4063C54.2853 14.5455 54.2859 14.6847 54.2867 14.8239C54.2866 14.9124 54.2864 15.0009 54.2862 15.0895C54.2865 15.131 54.2867 15.1726 54.287 15.2154C54.2833 15.5857 54.2833 15.5857 54.1491 15.7363C54.0081 15.8282 53.8873 15.8271 53.7214 15.8269C53.6946 15.827 53.6678 15.8271 53.6402 15.8272C53.5499 15.8274 53.4596 15.8271 53.3693 15.8267C53.3041 15.8268 53.2389 15.8268 53.1737 15.8269C52.9942 15.8271 52.8147 15.8268 52.6351 15.8264C52.4417 15.826 52.2482 15.8262 52.0547 15.8262C51.7194 15.8263 51.3841 15.826 51.0488 15.8255C50.564 15.8249 50.0793 15.8247 49.5945 15.8246C48.808 15.8244 48.0215 15.8239 47.235 15.8231C46.4709 15.8224 45.7067 15.8218 44.9426 15.8214C44.8956 15.8214 44.8485 15.8214 44.8 15.8214C44.5638 15.8213 44.3276 15.8212 44.0914 15.8211C42.1312 15.8202 40.1711 15.8188 38.211 15.817C38.211 15.8524 38.2111 15.8877 38.2111 15.9242C38.2148 18.0182 38.2175 20.1123 38.2192 22.2064C38.2194 22.4577 38.2196 22.7089 38.2198 22.9602C38.2199 23.0102 38.2199 23.0603 38.2199 23.1118C38.2207 23.9225 38.2219 24.7332 38.2234 25.5439C38.2249 26.3753 38.2258 27.2067 38.2261 28.0382C38.2264 28.5515 38.2271 29.0648 38.2284 29.5781C38.2292 29.9298 38.2295 30.2815 38.2293 30.6331C38.2292 30.8362 38.2293 31.0393 38.2302 31.2424C38.231 31.4282 38.231 31.614 38.2305 31.7998C38.2304 31.8672 38.2306 31.9345 38.2311 32.0019C38.2318 32.0932 38.2314 32.1845 38.2308 32.2758C38.2309 32.3266 38.2309 32.3774 38.231 32.4297C38.2073 32.5861 38.1597 32.6525 38.0496 32.7639C37.9481 32.8146 37.8765 32.8105 37.7629 32.812C37.6984 32.813 37.6984 32.813 37.6327 32.814C37.4361 32.8158 37.2395 32.8174 37.0429 32.8184C36.9392 32.819 36.8354 32.8201 36.7317 32.8217C36.5823 32.8239 36.4329 32.8248 36.2835 32.8254C36.2371 32.8263 36.1907 32.8272 36.143 32.8281C35.8214 32.8273 35.8214 32.8273 35.6608 32.7096C35.5443 32.5376 35.5428 32.4099 35.5429 32.2063C35.5429 32.178 35.5428 32.1497 35.5428 32.1206C35.5427 32.0252 35.5428 31.9297 35.543 31.8342C35.543 31.7654 35.543 31.6966 35.5429 31.6277C35.5428 31.438 35.543 31.2483 35.5432 31.0585C35.5434 30.8541 35.5433 30.6498 35.5433 30.4454C35.5433 30.0911 35.5434 29.7368 35.5436 29.3825C35.5439 28.8702 35.544 28.3579 35.5441 27.8457C35.5442 27.0146 35.5444 26.1836 35.5448 25.3525C35.5452 24.5451 35.5455 23.7376 35.5457 22.9302C35.5457 22.8804 35.5457 22.8307 35.5457 22.7794C35.5457 22.5299 35.5458 22.2803 35.5458 22.0308C35.5463 19.9595 35.547 17.8883 35.5479 15.817C35.5055 15.8183 35.5055 15.8183 35.4622 15.8196C35.3336 15.8229 35.2049 15.825 35.0763 15.8271C35.0318 15.8285 34.9873 15.8298 34.9414 15.8312C34.6103 15.8352 34.6103 15.8352 34.4508 15.741C34.2677 15.5271 34.2846 15.3058 34.2849 15.0367C34.2847 14.9963 34.2846 14.956 34.2844 14.9144C34.2841 14.8293 34.2841 14.7441 34.2843 14.6589C34.2844 14.5289 34.2835 14.399 34.2825 14.269C34.2824 14.1861 34.2823 14.1032 34.2824 14.0204C34.282 13.9816 34.2816 13.9429 34.2812 13.903C34.2827 13.6921 34.2922 13.5338 34.4181 13.3557C34.5598 13.2434 34.6639 13.2198 34.8425 13.2228C34.8838 13.2232 34.925 13.2236 34.9675 13.224C35.0313 13.2255 35.0313 13.2255 35.0965 13.2271C35.1615 13.2279 35.1615 13.2279 35.2278 13.2287C35.3345 13.2301 35.4412 13.2321 35.5479 13.2346C35.5458 13.1857 35.5458 13.1857 35.5436 13.1358C35.5425 13.0927 35.5414 13.0496 35.5403 13.0051C35.5382 12.9412 35.5382 12.9412 35.5361 12.8761C35.5525 12.7014 35.6117 12.6007 35.7408 12.4834C35.8495 12.4157 35.9143 12.4121 36.0418 12.4113Z" fill="#115056"/>
<path d="M13.978 47.9607C14.0511 47.9604 14.0511 47.9604 14.1258 47.9602C14.2605 47.9598 14.3952 47.9601 14.5299 47.9605C14.6767 47.9608 14.8235 47.9605 14.9704 47.9602C15.2275 47.9598 15.4846 47.9599 15.7416 47.9603C16.124 47.9608 16.5063 47.9607 16.8886 47.9604C17.5714 47.9599 18.2542 47.9601 18.937 47.9606C19.5345 47.961 20.132 47.9612 20.7295 47.9612C20.789 47.9612 20.789 47.9612 20.8496 47.9612C21.0105 47.9611 21.1714 47.9611 21.3323 47.9611C22.8414 47.9609 24.3505 47.9615 25.8596 47.9623C27.2005 47.963 28.5414 47.9633 29.8824 47.9631C29.9685 47.963 30.0546 47.963 30.1407 47.963C30.2045 47.963 30.2045 47.963 30.2697 47.963C30.484 47.963 30.6983 47.9629 30.9126 47.9629C30.9549 47.9629 30.9971 47.9629 31.0407 47.9629C32.1611 47.9627 33.2814 47.9629 34.4018 47.9633C34.5223 47.9633 34.6429 47.9634 34.7634 47.9634C34.8434 47.9634 34.9233 47.9634 35.0033 47.9635C35.5609 47.9636 36.1185 47.9637 36.6761 47.9636C37.3946 47.9635 38.1131 47.9636 38.8316 47.9643C39.2117 47.9646 39.5917 47.9647 39.9717 47.9645C40.2255 47.9644 40.4793 47.9645 40.7331 47.965C40.8777 47.9652 41.0223 47.9653 41.167 47.965C41.3228 47.9648 41.4786 47.9651 41.6344 47.9655C41.6793 47.9653 41.7241 47.9652 41.7704 47.965C42.2163 47.9673 42.5665 48.0276 42.8988 48.3408C43.2177 48.6784 43.2799 48.9393 43.2689 49.4032C43.2359 49.7509 43.0631 50.0004 42.8112 50.2354C42.4648 50.5089 42.106 50.5298 41.6791 50.5281C41.6061 50.5283 41.6061 50.5283 41.5316 50.5285C41.3965 50.5288 41.2615 50.5287 41.1265 50.5284C40.9796 50.5283 40.8327 50.5286 40.6857 50.5288C40.4283 50.5292 40.1708 50.5292 39.9133 50.5291C39.5304 50.5289 39.1475 50.5291 38.7646 50.5294C38.041 50.5301 37.3174 50.5301 36.5938 50.53C36.035 50.53 35.4762 50.53 34.9175 50.5302C34.8372 50.5302 34.757 50.5302 34.6767 50.5303C34.5558 50.5303 34.4349 50.5303 34.3139 50.5304C33.1895 50.5307 32.065 50.5309 30.9405 50.5307C30.8981 50.5307 30.8557 50.5307 30.812 50.5307C30.5971 50.5307 30.3822 50.5306 30.1673 50.5306C30.1246 50.5306 30.0819 50.5306 30.0379 50.5306C29.9516 50.5306 29.8653 50.5306 29.779 50.5305C28.4359 50.5303 27.0929 50.5306 25.7498 50.5314C24.2411 50.5322 22.7325 50.5327 21.2238 50.5325C21.0629 50.5325 20.9021 50.5325 20.7413 50.5325C20.7016 50.5324 20.662 50.5324 20.6212 50.5324C20.0232 50.5324 19.4251 50.5327 18.827 50.5331C18.1469 50.5336 17.4668 50.5336 16.7867 50.5331C16.406 50.5329 16.0254 50.5329 15.6447 50.5335C15.3904 50.5338 15.1362 50.5337 14.8819 50.5332C14.737 50.533 14.5922 50.5329 14.4473 50.5334C14.2911 50.5339 14.1349 50.5335 13.9787 50.5329C13.9339 50.5332 13.8892 50.5335 13.843 50.5338C13.3787 50.5306 13.0085 50.4419 12.67 50.1143C12.4395 49.8746 12.3668 49.571 12.332 49.2468C12.3796 48.8028 12.5293 48.4673 12.8818 48.1826C13.2142 47.9744 13.5968 47.9582 13.978 47.9607Z" fill="#165056"/>
<path d="M13.4876 41.7113C13.5296 41.7111 13.5716 41.7108 13.6149 41.7106C13.6609 41.7108 13.7068 41.7109 13.7542 41.7111C13.8034 41.711 13.8526 41.7108 13.9032 41.7107C14.0402 41.7104 14.1772 41.7104 14.3141 41.7106C14.463 41.7108 14.6118 41.7104 14.7607 41.7102C15.0217 41.7097 15.2827 41.7096 15.5437 41.7097C15.9319 41.7098 16.3201 41.7095 16.7082 41.7091C17.4417 41.7083 18.1753 41.7081 18.9088 41.708C19.4752 41.708 20.0416 41.7078 20.608 41.7076C20.7709 41.7075 20.9339 41.7074 21.0968 41.7073C21.1373 41.7073 21.1778 41.7073 21.2195 41.7073C22.359 41.7068 23.4986 41.7065 24.6381 41.7065C24.6811 41.7065 24.724 41.7065 24.7683 41.7065C24.9862 41.7065 25.204 41.7065 25.4219 41.7065C25.4652 41.7065 25.5084 41.7065 25.553 41.7065C25.6405 41.7065 25.728 41.7065 25.8155 41.7065C27.177 41.7066 28.5384 41.706 29.8999 41.7049C31.4288 41.7036 32.9577 41.703 34.4866 41.703C34.6496 41.703 34.8126 41.703 34.9755 41.703C35.0357 41.703 35.0357 41.703 35.0971 41.703C35.7435 41.703 36.3898 41.7025 37.0361 41.7018C37.6855 41.7012 38.3348 41.7011 38.9842 41.7016C39.3702 41.7019 39.7561 41.7018 40.1421 41.701C40.3998 41.7005 40.6575 41.7006 40.9152 41.7012C41.0621 41.7015 41.209 41.7015 41.3559 41.7009C41.5142 41.7002 41.6724 41.7007 41.8306 41.7014C41.8762 41.701 41.9218 41.7006 41.9688 41.7002C42.3642 41.7038 42.6517 41.8157 42.9421 42.0846C43.2206 42.3953 43.2712 42.7036 43.2679 43.1088C43.2407 43.4582 43.0898 43.7241 42.8319 43.9555C42.5013 44.2178 42.1161 44.241 41.7091 44.2385C41.6601 44.2387 41.6111 44.2389 41.5607 44.2391C41.4252 44.2395 41.2897 44.2393 41.1543 44.239C41.0067 44.2387 40.8591 44.2391 40.7116 44.2395C40.4531 44.24 40.1946 44.24 39.9361 44.2398C39.5518 44.2394 39.1674 44.2397 38.783 44.2402C38.0965 44.241 37.41 44.2411 36.7235 44.2409C36.1227 44.2407 35.5219 44.2407 34.9211 44.2409C34.8406 44.241 34.76 44.241 34.6794 44.241C34.558 44.2411 34.4365 44.2411 34.3151 44.2412C33.1862 44.2416 32.0573 44.2418 30.9283 44.2415C30.8858 44.2415 30.8432 44.2415 30.7994 44.2414C30.4538 44.2413 30.1082 44.2412 29.7626 44.2411C28.4143 44.2407 27.0661 44.2411 25.7179 44.242C24.2032 44.2431 22.6885 44.2436 21.1738 44.2433C21.0124 44.2433 20.8509 44.2432 20.6894 44.2432C20.6497 44.2432 20.6099 44.2432 20.5689 44.2432C19.9685 44.2431 19.3682 44.2434 18.7678 44.2439C18.0851 44.2445 17.4024 44.2446 16.7197 44.2439C16.3376 44.2435 15.9555 44.2435 15.5734 44.2442C15.3182 44.2447 15.0629 44.2445 14.8077 44.2438C14.6623 44.2435 14.5169 44.2434 14.3715 44.244C14.2147 44.2447 14.0579 44.2441 13.9012 44.2434C13.8562 44.2438 13.8113 44.2442 13.765 44.2446C13.3364 44.2406 12.9814 44.1305 12.6692 43.8312C12.4405 43.5625 12.3335 43.253 12.3401 42.9011C12.3706 42.5787 12.4973 42.2865 12.7118 42.0443C12.9431 41.8538 13.1824 41.7115 13.4876 41.7113Z" fill="#165056"/>
<path d="M13.4787 35.7797C13.5058 35.7796 13.533 35.7795 13.561 35.7793C13.6517 35.7789 13.7424 35.7791 13.8332 35.7793C13.899 35.7792 13.9649 35.779 14.0307 35.7788C14.2114 35.7783 14.3921 35.7783 14.5727 35.7784C14.7677 35.7784 14.9627 35.778 15.1576 35.7776C15.5395 35.7769 15.9214 35.7767 16.3033 35.7766C16.6137 35.7766 16.9242 35.7764 17.2346 35.7762C18.1149 35.7755 18.9952 35.7751 19.8755 35.7752C19.9229 35.7752 19.9704 35.7752 20.0193 35.7752C20.0905 35.7752 20.0905 35.7752 20.1632 35.7752C20.9332 35.7752 21.7031 35.7744 22.473 35.7733C23.2637 35.7721 24.0544 35.7716 24.8451 35.7716C25.2889 35.7717 25.7328 35.7715 26.1766 35.7706C26.5546 35.7699 26.9325 35.7697 27.3104 35.7702C27.5031 35.7705 27.6959 35.7705 27.8886 35.7698C28.0653 35.7692 28.2419 35.7693 28.4185 35.77C28.4822 35.7701 28.5459 35.77 28.6097 35.7695C29.0551 35.7666 29.4547 35.7895 29.797 36.1028C30.0959 36.4305 30.1617 36.7674 30.1535 37.1987C30.1383 37.5262 30.0046 37.7823 29.7817 38.0191C29.4842 38.2732 29.1607 38.3371 28.7785 38.3373C28.7518 38.3374 28.725 38.3375 28.6975 38.3376C28.608 38.3377 28.5185 38.3376 28.4289 38.3375C28.3641 38.3376 28.2992 38.3377 28.2344 38.3378C28.0562 38.3381 27.878 38.3381 27.6999 38.338C27.5077 38.338 27.3155 38.3382 27.1233 38.3384C26.7468 38.3388 26.3703 38.3389 25.9938 38.3389C25.6878 38.3389 25.3818 38.339 25.0758 38.3391C24.2082 38.3395 23.3407 38.3397 22.4731 38.3396C22.4264 38.3396 22.3796 38.3396 22.3314 38.3396C22.2612 38.3396 22.2612 38.3396 22.1895 38.3396C21.4305 38.3396 20.6715 38.34 19.9124 38.3406C19.1331 38.3411 18.3539 38.3414 17.5746 38.3414C17.137 38.3414 16.6995 38.3415 16.262 38.3419C15.8894 38.3423 15.5169 38.3424 15.1444 38.3421C14.9544 38.342 14.7643 38.342 14.5743 38.3423C14.4002 38.3426 14.2262 38.3426 14.0521 38.3422C13.9892 38.3422 13.9264 38.3422 13.8635 38.3425C13.3713 38.3441 12.9433 38.3327 12.5625 37.9879C12.3093 37.7189 12.2181 37.4268 12.207 37.0611C12.2206 36.6275 12.3559 36.3295 12.6711 36.0322C12.9189 35.836 13.1661 35.7801 13.4787 35.7797Z" fill="#165056"/>
<path d="M13.5494 29.8787C13.606 29.8785 13.6626 29.8783 13.7193 29.878C13.8743 29.8773 14.0294 29.8776 14.1845 29.8781C14.3519 29.8785 14.5194 29.8779 14.6868 29.8775C15.0146 29.8768 15.3424 29.8769 15.6703 29.8774C15.9367 29.8777 16.2031 29.8778 16.4696 29.8776C16.5075 29.8776 16.5455 29.8776 16.5846 29.8775C16.6616 29.8775 16.7387 29.8774 16.8158 29.8774C17.5383 29.8769 18.2608 29.8774 18.9834 29.8783C19.6032 29.879 20.223 29.8789 20.8428 29.8782C21.5628 29.8773 22.2827 29.877 23.0027 29.8775C23.0795 29.8775 23.1563 29.8776 23.2331 29.8776C23.2897 29.8776 23.2897 29.8776 23.3475 29.8777C23.6136 29.8778 23.8797 29.8776 24.1458 29.8772C24.4702 29.8768 24.7945 29.8769 25.1188 29.8777C25.2843 29.8782 25.4497 29.8783 25.6151 29.8778C25.7667 29.8773 25.9182 29.8776 26.0697 29.8784C26.1503 29.8787 26.2309 29.8782 26.3116 29.8776C26.6419 29.8805 26.8589 29.9195 27.1212 30.1314C27.4283 30.4833 27.5135 30.8568 27.4926 31.3166C27.457 31.6833 27.3291 31.9312 27.0857 32.2042C26.8014 32.4367 26.5109 32.4182 26.1582 32.4165C26.1016 32.4167 26.045 32.4169 25.9884 32.4172C25.8332 32.4178 25.6781 32.4176 25.5229 32.4173C25.3554 32.4171 25.1879 32.4176 25.0205 32.418C24.6925 32.4187 24.3645 32.4188 24.0366 32.4185C23.77 32.4184 23.5035 32.4184 23.2369 32.4187C23.1989 32.4187 23.161 32.4187 23.1219 32.4188C23.0448 32.4188 22.9677 32.4189 22.8907 32.4189C22.1679 32.4195 21.4451 32.4193 20.7223 32.4188C20.0611 32.4184 19.3999 32.4189 18.7387 32.4199C18.0596 32.4209 17.3806 32.4213 16.7016 32.421C16.3204 32.4209 15.9392 32.4209 15.5581 32.4217C15.2336 32.4222 14.9091 32.4223 14.5846 32.4216C14.4191 32.4212 14.2536 32.4211 14.0881 32.4218C13.9365 32.4223 13.7849 32.4221 13.6333 32.4213C13.5526 32.4211 13.472 32.4217 13.3913 32.4223C13.0608 32.4196 12.8439 32.3807 12.5815 32.1687C12.2743 31.8168 12.1893 31.4434 12.2099 30.9836C12.2434 30.6417 12.3565 30.3891 12.5815 30.1314C12.8905 29.8818 13.1646 29.8761 13.5494 29.8787Z" fill="#165056"/>
<path d="M40.4492 16.8605C40.5186 16.8602 40.5186 16.8602 40.5894 16.8598C40.6405 16.8598 40.6915 16.8597 40.7441 16.8597C40.7987 16.8595 40.8533 16.8593 40.9079 16.8591C41.0583 16.8585 41.2087 16.8582 41.3591 16.8579C41.488 16.8577 41.6169 16.8573 41.7458 16.8569C42.1705 16.8555 42.5952 16.8546 43.02 16.8539C43.1306 16.8537 43.2411 16.8535 43.3517 16.8533C44.0384 16.8521 44.725 16.851 45.4117 16.8503C45.5708 16.8501 45.7298 16.85 45.8889 16.8498C45.9285 16.8498 45.968 16.8497 46.0087 16.8497C46.6492 16.849 47.2896 16.8473 47.93 16.8453C48.5875 16.8432 49.2449 16.842 49.9024 16.8417C50.2716 16.8415 50.6407 16.841 51.0099 16.8393C51.3243 16.8379 51.6387 16.8374 51.9531 16.8379C52.1135 16.8381 52.2739 16.838 52.4342 16.8368C52.5812 16.8356 52.7281 16.8357 52.8751 16.8366C52.9532 16.8368 53.0312 16.8358 53.1093 16.8347C53.4249 16.8381 53.6298 16.8932 53.8662 17.1083C54.1 17.39 54.1203 17.68 54.1188 18.0307C54.119 18.0701 54.1191 18.1095 54.1193 18.1501C54.1197 18.2817 54.1196 18.4134 54.1194 18.545C54.1196 18.6395 54.1198 18.734 54.12 18.8286C54.1206 19.0851 54.1206 19.3416 54.1205 19.5981C54.1204 19.8394 54.1207 20.0807 54.1209 20.322C54.1213 20.8291 54.1213 21.3361 54.121 21.8432C54.1208 22.3068 54.1213 22.7703 54.122 23.2339C54.1228 23.7103 54.1231 24.1867 54.123 24.6631C54.1229 24.9303 54.123 25.1976 54.1236 25.4649C54.1241 25.7163 54.124 25.9676 54.1235 26.2189C54.1234 26.3111 54.1235 26.4033 54.1238 26.4955C54.1243 26.6215 54.1239 26.7474 54.1234 26.8734C54.1237 26.9097 54.124 26.9461 54.1243 26.9836C54.1215 27.3125 54.034 27.5796 53.8259 27.8413C53.6279 27.9908 53.4879 28.048 53.242 28.0486C53.1959 28.0488 53.1497 28.049 53.1022 28.0492C53.0513 28.0492 53.0004 28.0492 52.9479 28.0492C52.8934 28.0494 52.839 28.0496 52.7845 28.0498C52.6345 28.0503 52.4845 28.0505 52.3345 28.0507C52.1728 28.0509 52.0112 28.0514 51.8495 28.0518C51.459 28.0528 51.0684 28.0534 50.6779 28.0539C50.5676 28.0541 50.4573 28.0542 50.347 28.0544C49.6622 28.0554 48.9775 28.0563 48.2927 28.0568C48.1341 28.0569 47.9755 28.057 47.8168 28.0571C47.7774 28.0572 47.738 28.0572 47.6974 28.0572C47.0586 28.0577 46.4198 28.0591 45.781 28.0608C45.1254 28.0625 44.4697 28.0634 43.814 28.0636C43.4458 28.0638 43.0777 28.0643 42.7095 28.0656C42.3959 28.0667 42.0824 28.0672 41.7688 28.0667C41.6088 28.0665 41.4489 28.0666 41.2889 28.0676C41.1424 28.0685 40.9959 28.0685 40.8493 28.0677C40.7714 28.0676 40.6934 28.0684 40.6155 28.0693C40.2884 28.0663 40.0801 28.012 39.8441 27.7816C39.6234 27.5348 39.6109 27.3158 39.612 27C39.6118 26.9597 39.6116 26.9194 39.6114 26.8779C39.6109 26.7426 39.611 26.6074 39.611 26.4722C39.6108 26.3753 39.6105 26.2784 39.6102 26.1815C39.6096 25.9455 39.6093 25.7095 39.6093 25.4735C39.6093 25.2816 39.6091 25.0897 39.6088 24.8979C39.6081 24.3536 39.6077 23.8094 39.6078 23.2652C39.6078 23.2359 39.6078 23.2065 39.6078 23.1763C39.6078 23.147 39.6078 23.1176 39.6078 23.0873C39.6079 22.6115 39.6071 22.1357 39.606 21.6599C39.6048 21.1711 39.6042 20.6823 39.6043 20.1935C39.6043 19.9192 39.6041 19.6448 39.6032 19.3705C39.6024 19.1125 39.6025 18.8545 39.603 18.5964C39.6031 18.5018 39.6029 18.4071 39.6024 18.3124C39.6018 18.1831 39.6022 18.0538 39.6028 17.9245C39.6024 17.8871 39.602 17.8497 39.6016 17.8112C39.6046 17.5257 39.6744 17.3117 39.8663 17.0971C39.8933 17.075 39.9203 17.0529 39.9481 17.0301C39.9752 17.0072 40.0023 16.9844 40.0302 16.9609C40.1677 16.8635 40.2859 16.861 40.4492 16.8605ZM40.3885 17.7092C40.3615 17.7476 40.3615 17.7476 40.3339 17.7866C40.3153 17.8119 40.2967 17.8371 40.2775 17.8631C40.1511 18.0994 40.1355 18.3273 40.1365 18.5894C40.1363 18.6238 40.1362 18.6582 40.136 18.6937C40.1355 18.8084 40.1355 18.9231 40.1356 19.0378C40.1354 19.1203 40.1351 19.2028 40.1348 19.2852C40.1341 19.5089 40.1339 19.7326 40.1338 19.9563C40.1338 20.0961 40.1336 20.236 40.1334 20.3758C40.1326 20.8639 40.1323 21.3521 40.1324 21.8402C40.1324 22.2948 40.1316 22.7493 40.1303 23.2039C40.1292 23.5946 40.1288 23.9852 40.1289 24.3759C40.1289 24.609 40.1286 24.8422 40.1278 25.0753C40.127 25.2947 40.127 25.514 40.1276 25.7334C40.1277 25.8137 40.1275 25.894 40.127 25.9743C40.1139 26.6279 40.1139 26.6279 40.4096 27.1932C40.6089 27.3576 40.7316 27.4427 40.996 27.4432C41.0382 27.4434 41.0804 27.4436 41.1239 27.4437C41.1704 27.4437 41.2169 27.4437 41.2648 27.4437C41.3142 27.4439 41.3635 27.444 41.4143 27.4442C41.5514 27.4445 41.6885 27.4447 41.8256 27.4448C41.9734 27.445 42.1212 27.4454 42.269 27.4457C42.626 27.4465 42.9831 27.4469 43.3401 27.4473C43.5082 27.4475 43.6764 27.4477 43.8445 27.4479C44.4033 27.4486 44.9621 27.4492 45.521 27.4495C45.666 27.4495 45.8111 27.4496 45.9561 27.4497C45.9921 27.4497 46.0282 27.4497 46.0653 27.4497C46.6493 27.4501 47.2333 27.4511 47.8173 27.4524C48.4168 27.4537 49.0163 27.4545 49.6158 27.4546C49.9524 27.4547 50.289 27.455 50.6256 27.4561C50.9123 27.457 51.199 27.4573 51.4856 27.4569C51.6319 27.4567 51.7781 27.4568 51.9244 27.4576C52.083 27.4584 52.2416 27.458 52.4003 27.4575C52.4463 27.4579 52.4924 27.4583 52.5399 27.4588C52.8445 27.4563 53.0734 27.4167 53.3023 27.1985C53.3203 27.1726 53.3383 27.1467 53.3568 27.12C53.3754 27.0943 53.394 27.0686 53.4132 27.0422C53.5389 26.8173 53.5552 26.6128 53.5542 26.3619C53.5545 26.3098 53.5545 26.3098 53.5548 26.2568C53.5553 26.1408 53.5552 26.0248 53.5551 25.9089C53.5554 25.8256 53.5557 25.7423 53.556 25.6591C53.5567 25.4331 53.5569 25.2071 53.5569 24.981C53.557 24.8398 53.5571 24.6985 53.5574 24.5572C53.5581 24.0641 53.5584 23.571 53.5584 23.0779C53.5583 22.6186 53.5592 22.1594 53.5605 21.7001C53.5615 21.3055 53.5619 20.9109 53.5619 20.5163C53.5619 20.2808 53.5621 20.0452 53.563 19.8097C53.5637 19.588 53.5637 19.3664 53.5632 19.1448C53.5631 19.0636 53.5633 18.9825 53.5637 18.9013C53.5878 18.2655 53.5878 18.2655 53.3102 17.717C53.1321 17.5527 52.9754 17.4614 52.7295 17.461C52.6871 17.4608 52.6447 17.4605 52.601 17.4602C52.5544 17.4604 52.5078 17.4605 52.4599 17.4606C52.3856 17.4603 52.3856 17.4603 52.3098 17.4601C52.1723 17.4596 52.0349 17.4596 51.8974 17.4597C51.7491 17.4597 51.6009 17.4592 51.4526 17.4589C51.1621 17.4582 50.8716 17.458 50.5811 17.4579C50.3449 17.4579 50.1088 17.4577 49.8726 17.4575C49.2031 17.4567 48.5336 17.4564 47.8641 17.4564C47.828 17.4564 47.7919 17.4564 47.7547 17.4564C47.7186 17.4565 47.6824 17.4565 47.6452 17.4565C47.0595 17.4565 46.4738 17.4557 45.8882 17.4546C45.2868 17.4534 44.6855 17.4529 44.0842 17.4529C43.7466 17.453 43.409 17.4527 43.0714 17.4519C42.7839 17.4511 42.4964 17.451 42.2089 17.4515C42.0623 17.4518 41.9156 17.4518 41.769 17.4511C41.6099 17.4503 41.4508 17.4508 41.2917 17.4514C41.2455 17.451 41.1993 17.4506 41.1517 17.4502C40.8465 17.4528 40.6194 17.493 40.3885 17.7092Z" fill="#115056"/>
<path d="M20.1572 12.7341C20.2541 12.7504 20.2541 12.7504 20.3348 12.8311C20.337 12.9482 20.337 12.9482 20.3253 13.0976C20.3221 13.1379 20.3221 13.1379 20.3189 13.1791C20.2931 13.4864 20.2491 13.7911 20.2036 14.096C20.1947 14.157 20.1858 14.2179 20.1769 14.2789C20.1538 14.4374 20.1304 14.5959 20.1069 14.7544C20.0831 14.916 20.0595 15.0775 20.0359 15.2391C20.0014 15.4751 19.9668 15.7111 19.9319 15.947C19.9215 16.0177 19.9215 16.0177 19.9108 16.0898C19.8975 16.1772 19.8834 16.2645 19.8685 16.3517C19.8507 16.462 19.8452 16.5654 19.8455 16.6769C19.8454 16.7117 19.8453 16.7465 19.8452 16.7824C19.8413 16.8657 19.8413 16.8657 19.8909 16.9064C19.9944 16.9106 20.0968 16.9122 20.2004 16.9122C20.2328 16.9123 20.2652 16.9124 20.2986 16.9126C20.3692 16.9129 20.4398 16.9131 20.5105 16.9132C20.6222 16.9135 20.734 16.9142 20.8457 16.9149C21.1635 16.917 21.4813 16.919 21.7991 16.9196C21.9933 16.92 22.1875 16.9212 22.3816 16.9229C22.4557 16.9234 22.5298 16.9236 22.6039 16.9235C22.7075 16.9234 22.8112 16.9243 22.9148 16.9254C22.9608 16.925 22.9608 16.925 23.0078 16.9246C23.1485 16.9271 23.2265 16.9367 23.3408 17.022C23.4013 17.1082 23.4013 17.1082 23.4045 17.2177C23.3457 17.3969 23.2529 17.5393 23.1491 17.6958C23.1046 17.7647 23.06 17.8336 23.0155 17.9026C22.9924 17.938 22.9694 17.9735 22.9457 18.0101C22.8364 18.1796 22.7305 18.3512 22.6246 18.5229C22.6031 18.5577 22.5816 18.5925 22.5594 18.6283C22.4383 18.8244 22.3175 19.0207 22.1968 19.2171C21.9094 19.6848 21.6208 20.1516 21.3294 20.6167C21.0878 21.0026 20.8494 21.3904 20.6111 21.7783C20.4698 22.0082 20.328 22.2378 20.186 22.4671C20.1648 22.5012 20.1437 22.5353 20.122 22.5704C20.0363 22.7087 19.9506 22.8469 19.8649 22.9852C19.593 23.4236 19.322 23.8626 19.0533 24.303C19.0376 24.3287 19.0218 24.3544 19.0055 24.3808C18.9679 24.4435 18.9328 24.5077 18.8981 24.5721C18.8795 24.599 18.8609 24.6259 18.8418 24.6536C18.7132 24.6662 18.7132 24.6662 18.5997 24.6536C18.4968 24.4807 18.5269 24.3606 18.5733 24.1761C18.5833 24.1393 18.5932 24.1024 18.6035 24.0644C18.6138 24.0245 18.624 23.9846 18.6346 23.9435C18.6694 23.8085 18.7052 23.6737 18.7409 23.5389C18.7658 23.4431 18.7907 23.3472 18.8155 23.2513C18.9704 22.6551 19.1298 22.06 19.2888 21.4649C19.3193 21.3505 19.3498 21.2361 19.3803 21.1217C19.4006 21.0455 19.421 20.9692 19.4413 20.893C19.4514 20.8552 19.4614 20.8175 19.4718 20.7787C19.5324 20.5516 19.5934 20.3245 19.6547 20.0976C19.6933 19.9543 19.7317 19.811 19.77 19.6676C19.788 19.6004 19.8061 19.5332 19.8244 19.4661C19.8496 19.3734 19.8744 19.2807 19.8991 19.1878C19.9065 19.161 19.9139 19.1342 19.9216 19.1066C19.9666 18.9348 19.9816 18.7785 19.9716 18.6011C19.8896 18.5191 19.719 18.5546 19.6064 18.5544C19.5723 18.5542 19.5383 18.554 19.5032 18.5538C19.429 18.5534 19.3548 18.553 19.2806 18.5527C19.1632 18.5523 19.0459 18.5515 18.9286 18.5506C18.5949 18.5481 18.2612 18.5459 17.9276 18.5446C17.7237 18.5437 17.5199 18.5423 17.316 18.5405C17.2382 18.5399 17.1603 18.5396 17.0825 18.5395C16.9737 18.5393 16.865 18.5383 16.7562 18.5372C16.7077 18.5374 16.7077 18.5374 16.6582 18.5376C16.4411 18.5343 16.4411 18.5343 16.3393 18.4646C16.2998 18.3994 16.2998 18.3994 16.3012 18.307C16.3512 18.1665 16.4303 18.0578 16.5193 17.9401C16.5565 17.8896 16.5935 17.839 16.6305 17.7884C16.6494 17.7626 16.6683 17.7367 16.6878 17.7101C16.7746 17.5898 16.857 17.4667 16.9389 17.343C16.9553 17.3184 16.9717 17.2937 16.9886 17.2683C17.0228 17.2167 17.0569 17.1651 17.0911 17.1135C17.1869 16.9685 17.2832 16.8238 17.3795 16.6792C17.3998 16.6486 17.4201 16.618 17.441 16.5866C17.7954 16.0542 18.1544 15.5249 18.5127 14.9951C18.6529 14.7877 18.793 14.5801 18.9328 14.3725C19.0244 14.2365 19.116 14.1007 19.2075 13.9648C19.2505 13.901 19.2935 13.8372 19.3364 13.7734C19.45 13.6045 19.5641 13.4361 19.6792 13.2682C19.7276 13.1971 19.775 13.1256 19.8224 13.0539C19.8503 13.0131 19.8781 12.9723 19.9068 12.9303C19.9421 12.8776 19.9421 12.8776 19.978 12.8238C20.0523 12.7504 20.0523 12.7504 20.1572 12.7341Z" fill="#115056"/>
<path d="M47.0077 18.8432C47.1122 18.8956 47.195 18.9656 47.2826 19.0424C47.3065 19.0623 47.3305 19.0822 47.3551 19.1028C47.4041 19.1436 47.4529 19.1848 47.5013 19.2263C47.6093 19.3183 47.7197 19.4071 47.8298 19.4964C47.8921 19.5476 47.9543 19.5988 48.0164 19.6502C48.0198 19.6061 48.0231 19.562 48.0265 19.5165C48.0568 19.3677 48.0568 19.3677 48.1212 19.2989C48.2544 19.2272 48.3584 19.231 48.5093 19.2306C48.5512 19.2304 48.5512 19.2304 48.594 19.2303C48.653 19.2302 48.712 19.2304 48.7709 19.2309C48.8608 19.2316 48.9507 19.2309 49.0406 19.2301C49.098 19.2302 49.1555 19.2304 49.2129 19.2306C49.2649 19.2307 49.3169 19.2309 49.3705 19.231C49.5176 19.2476 49.5942 19.2788 49.7111 19.3677C49.7581 19.4618 49.7564 19.5159 49.7561 19.6206C49.7561 19.6561 49.7561 19.6916 49.7561 19.7283C49.7558 19.7667 49.7556 19.8051 49.7554 19.8447C49.7553 19.9036 49.7553 19.9036 49.7553 19.9638C49.755 20.0896 49.7545 20.2154 49.754 20.3412C49.7538 20.4263 49.7536 20.5115 49.7535 20.5967C49.753 20.8057 49.7523 21.0148 49.7515 21.2238C49.7756 21.2351 49.7998 21.2464 49.8247 21.2581C49.9535 21.3259 50.0555 21.4217 50.1625 21.5189C50.1846 21.538 50.2066 21.5571 50.2293 21.5768C50.3263 21.6646 50.3914 21.7323 50.4352 21.8568C50.4383 21.9857 50.3913 22.0493 50.3164 22.1519C50.2357 22.2326 50.2357 22.2326 50.1227 22.2474C49.9628 22.229 49.9046 22.1815 49.7843 22.0762C49.7504 22.0472 49.7165 22.0182 49.6817 21.9883C49.6626 21.9702 49.6436 21.9521 49.624 21.9335C49.5464 21.8637 49.5464 21.8637 49.4371 21.7957C49.1351 21.5759 49.1351 21.5759 49.0827 21.3786C49.0505 21.1307 49.0654 20.8826 49.0782 20.6337C49.0804 20.5578 49.0824 20.4819 49.0842 20.406C49.0891 20.2211 49.0967 20.0366 49.1059 19.8519C48.9594 19.8519 48.813 19.8519 48.662 19.8519C48.6639 19.8938 48.6658 19.9356 48.6677 19.9787C48.6692 20.0339 48.6707 20.0892 48.6721 20.1445C48.6735 20.172 48.6748 20.1995 48.6762 20.2278C48.6789 20.3675 48.6734 20.4422 48.588 20.5551C48.4736 20.6383 48.4 20.6561 48.2585 20.6589C48.0463 20.5729 47.8943 20.4417 47.7264 20.2907C47.6731 20.2437 47.6197 20.1968 47.5663 20.1498C47.5401 20.1267 47.514 20.1037 47.487 20.0799C47.3797 19.9856 47.2711 19.8931 47.1615 19.8015C47.1277 19.773 47.0938 19.7445 47.0589 19.7151C46.9673 19.6501 46.9162 19.6233 46.806 19.6098C46.7051 19.6839 46.6173 19.7572 46.526 19.8418C46.4715 19.8908 46.417 19.9397 46.3624 19.9886C46.3352 20.0133 46.3079 20.0379 46.2799 20.0634C46.1673 20.1644 46.0519 20.2617 45.9359 20.3588C45.7769 20.4927 45.6186 20.6275 45.461 20.7631C45.1344 21.0443 44.8025 21.318 44.4657 21.587C44.5051 21.6141 44.5444 21.6413 44.585 21.6693C44.6923 21.7593 44.7062 21.7813 44.7369 21.9263C44.7364 21.9789 44.7358 22.0315 44.7353 22.0857C44.7353 22.1153 44.7353 22.145 44.7353 22.1755C44.7352 22.2709 44.7333 22.3662 44.7314 22.4616C44.7311 22.5207 44.7308 22.5798 44.7307 22.6388C44.7294 22.8573 44.726 23.0758 44.7229 23.2943C44.7179 23.7828 44.7129 24.2713 44.7078 24.7746C46.1592 24.7746 47.6105 24.7746 49.1059 24.7746C49.1059 24.3086 49.1059 23.8425 49.1059 23.3624C49.2673 23.201 49.2673 23.201 49.3494 23.1809C49.5699 23.1873 49.5699 23.1873 49.6683 23.2539C49.7431 23.3727 49.7567 23.4762 49.758 23.6129C49.7584 23.6469 49.7588 23.681 49.7592 23.7161C49.7594 23.7712 49.7594 23.7712 49.7597 23.8273C49.7599 23.8652 49.7601 23.903 49.7604 23.9421C49.7608 24.0222 49.761 24.1023 49.7612 24.1824C49.7616 24.3048 49.7628 24.4271 49.7641 24.5495C49.7644 24.6274 49.7646 24.7052 49.7647 24.7831C49.7652 24.8196 49.7657 24.8562 49.7662 24.8938C49.7655 25.1084 49.7497 25.2606 49.5901 25.4202C49.5204 25.4243 49.4506 25.4256 49.3808 25.4259C49.3354 25.4261 49.29 25.4263 49.2433 25.4266C49.168 25.4266 49.168 25.4266 49.0911 25.4267C49.0385 25.4269 48.986 25.4271 48.9319 25.4273C48.7873 25.4278 48.6427 25.4281 48.4982 25.4283C48.4079 25.4284 48.3177 25.4286 48.2275 25.4287C47.9453 25.4293 47.6632 25.4297 47.3811 25.4298C47.055 25.43 46.729 25.4307 46.4029 25.4319C46.1511 25.4328 45.8994 25.4332 45.6476 25.4332C45.4971 25.4333 45.3466 25.4335 45.1961 25.4342C45.0283 25.435 44.8605 25.4348 44.6927 25.4346C44.6426 25.4349 44.5925 25.4353 44.541 25.4357C44.4954 25.4355 44.4498 25.4353 44.4028 25.435C44.3631 25.4351 44.3234 25.4351 44.2825 25.4352C44.1832 25.4202 44.1832 25.4202 44.1099 25.3669C44.0319 25.2561 44.0464 25.1344 44.0484 25.0039C44.0484 24.959 44.0484 24.959 44.0484 24.9132C44.0485 24.8143 44.0494 24.7154 44.0504 24.6165C44.0506 24.5479 44.0508 24.4793 44.0509 24.4108C44.0513 24.2303 44.0525 24.0498 44.0539 23.8693C44.0551 23.6851 44.0557 23.5009 44.0563 23.3167C44.0576 22.9553 44.0596 22.594 44.0622 22.2326C44.023 22.2335 43.9838 22.2345 43.9434 22.2355C43.8666 22.2366 43.8666 22.2366 43.7882 22.2378C43.712 22.2392 43.712 22.2392 43.6342 22.2407C43.4973 22.2326 43.4973 22.2326 43.3611 22.1493C43.2783 21.9997 43.2754 21.9178 43.2955 21.7484C43.3664 21.6605 43.4243 21.6012 43.5099 21.5315C43.5318 21.5126 43.5537 21.4936 43.5763 21.4741C43.6434 21.4166 43.7113 21.3604 43.7797 21.3045C43.8368 21.2575 43.8368 21.2575 43.8951 21.2095C43.9679 21.1501 44.0409 21.0909 44.114 21.032C44.2279 20.9378 44.3368 20.8397 44.4455 20.7396C44.6259 20.5736 44.8123 20.418 45.003 20.2641C45.1091 20.1765 45.2113 20.0859 45.313 19.9932C45.45 19.8683 45.5899 19.749 45.7342 19.6325C45.8915 19.5055 46.0421 19.3738 46.1906 19.2366C46.6854 18.7861 46.6854 18.7861 47.0077 18.8432Z" fill="#115056"/>
</svg>
