<svg width="350" height="362" viewBox="0 0 350 362" fill="none" xmlns="http://www.w3.org/2000/svg">
<path d="M61.5983 32.3364C61.9455 32.3357 61.9455 32.3357 62.2997 32.3349C63.072 32.3336 63.8442 32.334 64.6164 32.3343C65.177 32.3337 65.7376 32.333 66.2982 32.3322C67.6752 32.3306 69.0521 32.33 70.429 32.3299C72.0791 32.3297 73.7293 32.3281 75.3794 32.3266C79.3659 32.3229 83.3524 32.3215 87.3389 32.3204C89.2251 32.3199 91.1113 32.3191 92.9975 32.3182C99.4558 32.3153 105.914 32.3128 112.373 32.312C112.778 32.312 113.183 32.3119 113.588 32.3119C113.994 32.3118 114.4 32.3118 114.806 32.3117C115.62 32.3116 116.435 32.3115 117.249 32.3114C117.451 32.3114 117.653 32.3113 117.861 32.3113C124.414 32.3105 130.967 32.3068 137.519 32.3015C144.45 32.2958 151.381 32.2927 158.311 32.2924C159.072 32.2924 159.832 32.2923 160.593 32.2923C160.78 32.2923 160.968 32.2922 161.16 32.2922C164.174 32.292 167.188 32.2894 170.202 32.2861C173.23 32.2828 176.258 32.2821 179.287 32.2839C181.085 32.2849 182.884 32.284 184.683 32.2804C186.026 32.2779 187.369 32.279 188.712 32.2815C189.256 32.2819 189.799 32.2812 190.343 32.2792C191.081 32.2767 191.819 32.2784 192.558 32.2812C192.769 32.2794 192.98 32.2777 193.198 32.2759C195.472 32.2942 197.411 32.8426 199.082 34.4325C200.639 36.1079 201.304 37.9241 201.224 40.2107C200.964 42.374 200.025 44.0208 198.394 45.4509C196.57 46.6959 194.528 46.8968 192.38 46.8857C192.033 46.8867 192.033 46.8867 191.679 46.8876C190.904 46.8892 190.128 46.8876 189.353 46.8859C188.792 46.8864 188.23 46.8871 187.669 46.888C186.449 46.8894 185.228 46.8895 184.007 46.8883C182.192 46.8866 180.377 46.8874 178.561 46.8889C175.507 46.8913 172.452 46.8917 169.398 46.8912C165.032 46.8904 160.667 46.8934 156.302 46.8973C154.549 46.8988 152.797 46.9003 151.045 46.9017C150.753 46.9019 150.753 46.9019 150.455 46.9021C145.822 46.9058 141.188 46.9083 136.555 46.9104C136.352 46.9105 136.149 46.9106 135.94 46.9107C131.212 46.9129 126.483 46.9145 121.754 46.915C121.449 46.9151 121.449 46.9151 121.138 46.9151C120.113 46.9152 119.087 46.9153 118.062 46.9155C117.86 46.9155 117.657 46.9155 117.448 46.9155C117.039 46.9156 116.63 46.9156 116.221 46.9157C109.461 46.9164 102.701 46.9203 95.9409 46.9276C94.9859 46.9287 94.0308 46.9296 93.0758 46.9306C92.8878 46.9308 92.6999 46.931 92.5062 46.9312C89.4837 46.9341 86.4612 46.9336 83.4387 46.9318C80.3999 46.9301 77.3612 46.9315 74.3224 46.9363C72.5181 46.9391 70.7138 46.9393 68.9095 46.9358C67.5608 46.9334 66.2121 46.9359 64.8633 46.9402C64.3188 46.9412 63.7743 46.9406 63.2297 46.9383C58.2767 46.9191 54.2983 47.5957 50.6257 51.2085C48.3239 53.6704 46.9783 56.8743 46.9882 60.2446C46.9876 60.5013 46.9876 60.5013 46.987 60.7632C46.9859 61.3397 46.9865 61.9161 46.987 62.4926C46.9865 62.9107 46.986 63.3288 46.9854 63.7468C46.9839 64.9023 46.9839 66.0578 46.984 67.2133C46.984 68.4679 46.9827 69.7225 46.9815 70.977C46.9793 73.4684 46.9784 75.9597 46.9779 78.451C46.9772 81.4339 46.9752 84.4168 46.9732 87.3997C46.9684 94.6102 46.966 101.821 46.964 109.031C46.9633 111.419 46.9626 113.807 46.9617 116.194C46.9616 116.447 46.9616 116.447 46.9616 116.705C46.9613 117.386 46.9611 118.068 46.9608 118.749C46.9567 130.406 46.9532 142.062 46.9515 153.719C46.9513 154.634 46.9512 155.55 46.9511 156.466C46.951 156.738 46.951 156.738 46.951 157.016C46.9507 158.857 46.9504 160.697 46.9502 162.537C46.9501 162.906 46.95 163.275 46.95 163.644C46.9482 175.494 46.9431 187.343 46.9356 199.193C46.9303 207.707 46.9253 216.221 46.9237 224.735C46.9237 224.91 46.9236 225.085 46.9236 225.265C46.9229 229.109 46.9224 232.954 46.9222 236.798C46.9221 238.344 46.9219 239.891 46.9218 241.438C46.9218 241.607 46.9218 241.776 46.9218 241.951C46.9213 247.403 46.918 252.855 46.9133 258.307C46.9086 263.799 46.9068 269.291 46.909 274.784C46.9103 278.191 46.9092 281.599 46.904 285.006C46.9009 287.18 46.9011 289.353 46.9041 291.527C46.9057 292.766 46.9058 294.005 46.9019 295.243C46.8984 296.371 46.8991 297.499 46.9031 298.627C46.9039 299.031 46.9031 299.436 46.9005 299.841C46.874 304.334 47.9387 308.046 51.165 311.331C53.5017 313.52 56.6478 314.969 59.871 314.972C60.1514 314.973 60.4318 314.974 60.7208 314.975C61.0319 314.974 61.3429 314.974 61.654 314.974C61.986 314.974 62.3179 314.975 62.6498 314.976C63.5661 314.977 64.4824 314.978 65.3986 314.978C66.3939 314.978 67.3893 314.979 68.3846 314.981C70.3605 314.983 72.3365 314.985 74.3125 314.985C76.6786 314.987 79.0448 314.989 81.4109 314.992C87.1305 314.997 92.8502 315.001 98.5699 315.004C100.464 315.005 102.359 315.006 104.253 315.007C114.324 315.013 124.396 315.018 134.467 315.021C136.801 315.021 139.134 315.022 141.468 315.023C141.758 315.023 142.048 315.023 142.347 315.023C151.747 315.026 161.147 315.033 170.547 315.042C180.21 315.052 189.872 315.058 199.535 315.06C200.9 315.06 202.265 315.06 203.629 315.06C203.898 315.06 204.166 315.06 204.443 315.06C208.766 315.061 213.089 315.066 217.411 315.072C221.757 315.078 226.102 315.08 230.447 315.077C233.029 315.076 235.61 315.078 238.191 315.084C239.917 315.088 241.642 315.088 243.367 315.084C244.35 315.082 245.332 315.082 246.314 315.087C247.21 315.091 248.105 315.091 249.001 315.086C249.471 315.084 249.941 315.089 250.411 315.093C253.657 315.063 256.568 314.16 259.174 312.188C259.34 312.063 259.507 311.937 259.679 311.808C262.464 309.548 263.869 306.244 264.449 302.776C264.539 301.566 264.541 300.361 264.534 299.149C264.535 298.791 264.536 298.433 264.537 298.076C264.539 297.101 264.537 296.126 264.535 295.15C264.533 294.096 264.535 293.041 264.536 291.987C264.538 290.161 264.538 288.336 264.536 286.511C264.534 283.869 264.536 281.228 264.539 278.586C264.544 274.296 264.548 270.006 264.548 265.716C264.549 265.331 264.549 265.331 264.549 264.939C264.549 262.076 264.549 259.214 264.549 256.352C264.549 255.314 264.549 254.275 264.549 253.236C264.549 252.98 264.549 252.724 264.549 252.46C264.549 248.185 264.552 243.91 264.558 239.634C264.562 237 264.562 234.365 264.559 231.73C264.557 229.925 264.558 228.12 264.561 226.315C264.563 225.274 264.564 224.234 264.56 223.193C264.557 222.239 264.558 221.285 264.563 220.332C264.563 219.988 264.563 219.644 264.56 219.3C264.543 216.629 264.831 214.278 266.743 212.27C268.542 210.718 270.247 210.41 272.566 210.434C274.384 210.572 275.796 211.309 277.119 212.547C278.325 213.968 278.926 215.617 278.929 217.458C278.93 217.607 278.93 217.756 278.931 217.909C278.932 218.41 278.932 218.912 278.932 219.413C278.933 219.775 278.934 220.137 278.935 220.499C278.937 221.496 278.938 222.493 278.939 223.491C278.939 224.565 278.942 225.64 278.944 226.714C278.948 229.312 278.951 231.91 278.953 234.508C278.954 235.732 278.955 236.956 278.956 238.18C278.96 242.251 278.963 246.322 278.965 250.394C278.965 251.451 278.966 252.508 278.966 253.565C278.966 253.827 278.966 254.09 278.967 254.361C278.968 258.61 278.974 262.859 278.982 267.107C278.989 271.473 278.993 275.838 278.994 280.203C278.995 282.652 278.997 285.102 279.002 287.552C279.007 289.64 279.009 291.728 279.007 293.815C279.006 294.879 279.006 295.943 279.011 297.007C279.044 305.2 279.044 305.2 277.981 308.974C277.916 309.21 277.916 309.21 277.849 309.451C276.592 313.966 274.06 317.755 270.871 321.14C270.719 321.31 270.567 321.479 270.41 321.654C265.817 326.574 258.885 329.166 252.293 329.634C251.197 329.665 250.102 329.665 249.006 329.663C248.675 329.663 248.344 329.664 248.013 329.664C247.105 329.665 246.197 329.665 245.289 329.664C244.301 329.664 243.313 329.665 242.325 329.666C240.593 329.667 238.861 329.667 237.129 329.667C234.554 329.667 231.979 329.668 229.404 329.669C224.537 329.671 219.67 329.672 214.802 329.672C211.044 329.672 207.285 329.672 203.526 329.673C202.444 329.673 201.362 329.674 200.28 329.674C200.011 329.674 199.742 329.674 199.465 329.674C191.899 329.675 184.334 329.676 176.768 329.676C176.482 329.676 176.197 329.676 175.903 329.676C174.457 329.676 173.012 329.676 171.566 329.676C171.135 329.676 171.135 329.676 170.696 329.676C170.115 329.676 169.534 329.676 168.953 329.676C159.919 329.676 150.885 329.678 141.851 329.681C131.702 329.684 121.552 329.686 111.403 329.686C110.32 329.686 109.238 329.686 108.156 329.686C107.889 329.686 107.623 329.686 107.348 329.686C103.06 329.686 98.7722 329.687 94.4844 329.689C90.1744 329.691 85.8644 329.692 81.5543 329.69C78.9945 329.689 76.4346 329.69 73.8748 329.692C72.1636 329.693 70.4524 329.693 68.7411 329.691C67.767 329.69 66.7929 329.69 65.8187 329.692C57.2855 329.707 49.1104 328.862 42.4306 322.977C42.2458 322.822 42.061 322.667 41.8707 322.508C36.3228 317.737 33.0167 310.807 32.3854 303.546C32.2874 301.923 32.3069 300.297 32.3087 298.672C32.3084 298.254 32.3079 297.837 32.3073 297.42C32.306 296.273 32.3062 295.127 32.3066 293.98C32.3067 292.732 32.3056 291.485 32.3046 290.237C32.3029 287.763 32.3024 285.288 32.3022 282.814C32.302 279.85 32.3005 276.886 32.2989 273.922C32.2953 266.929 32.294 259.936 32.2929 252.943C32.2923 249.384 32.2915 245.825 32.2906 242.266C32.2877 230.847 32.2852 219.428 32.2844 208.008C32.2844 207.463 32.2844 206.917 32.2843 206.371C32.2842 205.277 32.2842 204.183 32.2841 203.089C32.284 201.808 32.2839 200.527 32.2838 199.246C32.2838 198.879 32.2838 198.512 32.2837 198.146C32.2829 186.372 32.2795 174.598 32.2741 162.825C32.2703 154.363 32.2667 145.902 32.2657 137.44C32.2657 137.266 32.2657 137.092 32.2656 136.913C32.2652 133.09 32.2649 129.268 32.2648 125.445C32.2648 124.077 32.2647 122.709 32.2647 121.341C32.2647 121.001 32.2647 120.661 32.2646 120.321C32.2644 114.904 32.2622 109.488 32.2588 104.071C32.2554 98.4613 32.2544 92.8516 32.2563 87.2419C32.2573 84.0094 32.2564 80.777 32.2528 77.5445C32.2506 75.3838 32.2508 73.2231 32.2531 71.0623C32.2544 69.8322 32.2545 68.6021 32.2516 67.372C32.249 66.2502 32.2496 65.1284 32.2527 64.0066C32.2533 63.6059 32.2527 63.2053 32.2508 62.8046C32.2343 59.0944 32.4749 55.2234 33.7437 51.7061C33.8122 51.5095 33.8807 51.3129 33.9512 51.1103C36.4889 44.0994 41.6866 38.336 48.4065 35.1265C52.6597 33.1708 56.9294 32.3274 61.5983 32.3364Z" fill="white"/>
<path d="M253.282 60.0273C254.351 60.6316 255.243 61.336 256.132 62.1794C256.686 62.7006 257.263 63.1786 257.855 63.6571C258.788 64.4146 259.708 65.1857 260.622 65.9669C261.639 66.8353 262.675 67.6726 263.732 68.492C265.055 69.5182 266.322 70.5979 267.581 71.7015C268.573 72.5699 269.584 73.4071 270.619 74.2235C271.249 74.7209 271.863 75.2345 272.476 75.7515C272.482 75.5322 272.488 75.313 272.494 75.087C272.604 72.5914 272.873 70.2159 274.77 68.4059C275.872 67.6355 276.89 67.2326 278.231 67.2244C278.416 67.2227 278.601 67.2211 278.791 67.2194C278.992 67.2188 279.193 67.2181 279.399 67.2175C279.612 67.216 279.826 67.2145 280.045 67.2129C280.75 67.2084 281.455 67.2057 282.161 67.2034C282.402 67.2025 282.643 67.2016 282.892 67.2006C284.171 67.1958 285.45 67.1925 286.729 67.1904C288.046 67.1878 289.362 67.18 290.679 67.1708C291.695 67.1648 292.711 67.1629 293.727 67.1621C294.212 67.161 294.697 67.1583 295.182 67.154C298.344 67.1279 300.888 67.1981 303.519 69.1501C304.403 70.0895 304.673 71.0596 304.658 72.3242C304.656 72.7354 304.656 72.7354 304.654 73.1549C304.649 73.4525 304.644 73.7502 304.638 74.0569C304.636 74.376 304.633 74.6951 304.631 75.0143C304.626 75.7001 304.619 76.3858 304.611 77.0715C304.598 78.1581 304.593 79.2447 304.59 80.3314C304.589 80.7042 304.588 81.0771 304.587 81.4499C304.586 81.73 304.586 81.73 304.585 82.0157C304.576 84.5438 304.562 87.0718 304.531 89.5998C304.51 91.3073 304.5 93.0146 304.502 94.7222C304.502 95.6245 304.497 96.5261 304.479 97.4282C304.193 101.6 304.193 101.6 305.841 105.19C306.46 105.71 307.098 106.104 307.798 106.511C308.238 106.863 308.674 107.221 309.102 107.587C309.409 107.834 309.409 107.834 309.721 108.085C310.516 108.738 311.271 109.431 312.031 110.125C312.646 110.671 313.278 111.189 313.919 111.705C317.146 114.346 317.146 114.346 317.66 116.611C317.766 118.363 317.243 119.816 316.168 121.182C314.932 122.534 313.527 123.295 311.682 123.383C309.475 123.264 308.2 121.937 306.668 120.482C306.037 119.886 305.379 119.335 304.701 118.792C303.789 118.058 302.92 117.294 302.064 116.497C301.007 115.513 299.915 114.592 298.791 113.686C297.905 112.953 297.061 112.177 296.218 111.394C295.738 110.96 295.25 110.565 294.739 110.17C293.705 109.27 293.206 108.126 293.037 106.772C293.006 106.012 293.005 105.258 293.015 104.498C293.014 104.211 293.014 103.924 293.014 103.628C293.015 102.848 293.019 102.067 293.026 101.287C293.031 100.469 293.032 99.6508 293.033 98.8328C293.036 97.2865 293.043 95.7404 293.053 94.1942C293.063 92.4327 293.068 90.6712 293.073 88.9098C293.082 85.2888 293.099 81.6679 293.119 78.047C290.243 78.047 287.366 78.047 284.403 78.047C284.416 78.7826 284.43 79.5182 284.443 80.2761C284.452 80.9948 284.459 81.7136 284.466 82.4323C284.472 82.9288 284.48 83.4253 284.49 83.9217C284.504 84.6386 284.51 85.3552 284.515 86.0723C284.521 86.2914 284.527 86.5105 284.533 86.7363C284.534 88.5487 284.029 90.0187 282.825 91.3953C281.459 92.7491 279.856 93.2101 277.967 93.2833C275.48 93.1787 274.077 92.051 272.247 90.4427C271.878 90.1274 271.507 89.814 271.136 89.5007C270.882 89.2862 270.628 89.0713 270.375 88.856C269.591 88.1903 268.801 87.534 268.004 86.8846C266.948 86.0242 265.907 85.1468 264.87 84.264C264.091 83.6031 263.306 82.952 262.514 82.308C261.398 81.3997 260.307 80.4654 259.218 79.5262C258.207 78.6557 257.18 77.8067 256.144 76.9656C255.411 76.3641 254.691 75.7499 253.97 75.1346C252.905 74.2261 251.821 73.3605 250.687 72.5378C249.737 72.9281 249.026 73.6032 248.265 74.2738C247.977 74.5245 247.689 74.7749 247.4 75.0252C247.258 75.1488 247.116 75.2724 246.969 75.3998C246.401 75.8867 245.822 76.3576 245.24 76.8275C244.235 77.6436 243.275 78.4987 242.319 79.3705C241.54 80.064 240.73 80.7157 239.919 81.3719C239.1 82.0479 238.299 82.7429 237.499 83.4414C236.517 84.2986 235.531 85.1457 234.518 85.9664C233.065 87.1443 231.662 88.3764 230.252 89.6046C228.43 91.1884 226.591 92.7532 224.747 94.3109C223.823 95.0918 222.906 95.8798 221.989 96.6692C221.058 97.4711 220.12 98.2622 219.165 99.0364C217.709 100.22 216.3 101.456 214.885 102.689C213.064 104.272 211.226 105.836 209.383 107.393C208.295 108.312 207.214 109.24 206.136 110.17C205.402 110.803 204.659 111.42 203.899 112.02C204.214 112.117 204.214 112.117 204.536 112.215C206.535 112.868 208.281 113.509 209.305 115.464C209.746 116.525 209.726 117.54 209.715 118.675C209.716 119.015 209.716 119.015 209.717 119.362C209.718 120.122 209.714 120.882 209.711 121.643C209.71 122.197 209.71 122.751 209.711 123.305C209.711 124.788 209.707 126.271 209.702 127.755C209.698 129.147 209.698 130.539 209.698 131.931C209.694 136.002 209.684 140.072 209.675 144.143C209.661 153.238 209.647 162.333 209.632 171.703C237.259 171.703 264.885 171.703 293.348 171.703C293.348 163.219 293.348 154.735 293.348 145.994C294.225 144.02 294.734 142.969 296.649 142.061C298.36 141.463 299.998 141.503 301.662 142.235C302.967 142.966 303.863 144.077 304.438 145.454C304.776 146.679 304.686 147.975 304.683 149.237C304.685 149.566 304.687 149.895 304.689 150.224C304.694 151.114 304.695 152.005 304.694 152.895C304.694 153.64 304.696 154.385 304.698 155.13C304.702 156.888 304.703 158.647 304.701 160.406C304.7 162.216 304.705 164.026 304.714 165.836C304.721 167.393 304.723 168.951 304.722 170.509C304.722 171.437 304.723 172.366 304.729 173.295C304.734 174.169 304.734 175.043 304.729 175.917C304.728 176.236 304.729 176.555 304.733 176.875C304.753 178.983 304.551 180.763 303.117 182.402C301.809 183.589 300.44 183.955 298.723 183.957C298.47 183.958 298.47 183.958 298.213 183.96C297.651 183.963 297.088 183.961 296.526 183.958C296.118 183.959 295.711 183.961 295.303 183.962C294.184 183.965 293.064 183.965 291.945 183.963C290.737 183.962 289.529 183.965 288.322 183.967C285.956 183.971 283.591 183.971 281.225 183.97C279.302 183.969 277.38 183.969 275.457 183.971C275.047 183.971 275.047 183.971 274.628 183.971C274.073 183.971 273.517 183.972 272.961 183.972C267.749 183.975 262.537 183.974 257.324 183.971C252.555 183.969 247.786 183.972 243.017 183.978C238.121 183.983 233.225 183.985 228.329 183.984C225.58 183.983 222.83 183.984 220.081 183.988C217.741 183.991 215.401 183.991 213.06 183.987C211.866 183.985 210.672 183.985 209.478 183.988C208.385 183.991 207.292 183.99 206.198 183.986C205.803 183.985 205.408 183.986 205.012 183.988C200.658 184.012 200.658 184.012 199.174 182.603C198.459 181.782 198.136 181.225 198.136 180.155C198.136 179.952 198.135 179.75 198.135 179.542C198.136 179.318 198.136 179.094 198.137 178.864C198.137 178.627 198.137 178.39 198.136 178.147C198.136 177.349 198.137 176.551 198.139 175.753C198.139 175.183 198.139 174.613 198.138 174.043C198.138 172.813 198.139 171.583 198.14 170.353C198.142 168.575 198.143 166.797 198.143 165.019C198.144 162.135 198.145 159.25 198.147 156.365C198.149 153.563 198.151 150.76 198.152 147.958C198.152 147.785 198.152 147.612 198.152 147.435C198.152 146.568 198.153 145.702 198.153 144.836C198.155 137.647 198.159 130.458 198.165 123.268C197.884 123.272 197.603 123.275 197.313 123.279C196.263 123.292 195.213 123.3 194.162 123.306C193.709 123.31 193.256 123.314 192.803 123.32C192.149 123.329 191.495 123.333 190.84 123.336C190.64 123.339 190.44 123.343 190.234 123.346C187.928 123.347 186.337 122.693 184.673 121.093C183.515 119.749 183.077 118.229 183.173 116.466C183.611 113.609 186.497 111.938 188.589 110.249C189.238 109.709 189.86 109.149 190.481 108.577C191.506 107.633 192.566 106.747 193.65 105.872C194.253 105.373 194.834 104.858 195.412 104.33C196.191 103.62 196.986 102.941 197.806 102.279C198.679 101.573 199.518 100.844 200.343 100.084C201.369 99.1394 202.428 98.254 203.512 97.3785C204.116 96.8801 204.697 96.3645 205.275 95.8371C206.261 94.9375 207.284 94.0944 208.321 93.2547C209.123 92.5902 209.889 91.8898 210.658 91.1878C211.254 90.658 211.865 90.1545 212.485 89.6536C213.357 88.9475 214.197 88.2189 215.022 87.4585C216.048 86.5142 217.107 85.6288 218.191 84.7532C218.795 84.2548 219.375 83.7393 219.954 83.2118C220.732 82.5013 221.527 81.8227 222.347 81.1602C223.22 80.4542 224.059 79.7256 224.885 78.9652C225.91 78.0209 226.97 77.1355 228.054 76.2599C228.657 75.7615 229.238 75.2459 229.816 74.7185C230.595 74.0079 231.39 73.3294 232.21 72.6669C233.082 71.9608 233.922 71.2322 234.747 70.4718C235.772 69.5275 236.832 68.6421 237.916 67.7666C238.519 67.2682 239.1 66.7526 239.678 66.2252C240.658 65.331 241.675 64.4939 242.707 63.6616C243.375 63.1039 244.005 62.5175 244.638 61.9211C247.094 59.6573 250.06 58.4976 253.282 60.0273Z" fill="white"/>
<path d="M79.4536 272.849C79.8694 272.847 79.8694 272.847 80.2937 272.846C81.0595 272.844 81.8252 272.845 82.591 272.848C83.4255 272.85 84.2601 272.848 85.0946 272.846C86.556 272.844 88.0174 272.844 89.4788 272.847C91.6519 272.85 93.825 272.849 95.9982 272.847C99.8795 272.844 103.761 272.846 107.642 272.848C111.038 272.851 114.435 272.852 117.831 272.852C118.169 272.852 118.169 272.852 118.514 272.852C119.428 272.851 120.343 272.851 121.257 272.851C129.835 272.85 138.414 272.853 146.992 272.858C154.614 272.862 162.236 272.864 169.858 272.862C170.348 272.862 170.837 272.862 171.327 272.862C171.69 272.862 171.69 272.862 172.06 272.862C173.278 272.862 174.496 272.862 175.714 272.861C175.955 272.861 176.195 272.861 176.442 272.861C182.811 272.86 189.179 272.862 195.548 272.864C196.233 272.864 196.918 272.864 197.603 272.864C198.058 272.864 198.512 272.864 198.967 272.865C202.136 272.866 205.306 272.866 208.476 272.865C212.56 272.865 216.644 272.866 220.728 272.869C222.888 272.871 225.049 272.872 227.209 272.87C228.651 272.87 230.094 272.871 231.536 272.873C232.358 272.874 233.18 272.875 234.003 272.874C234.888 272.872 235.774 272.874 236.66 272.876C236.915 272.875 237.17 272.874 237.433 272.873C239.967 272.886 241.958 273.23 243.847 275.012C245.66 276.932 246.013 278.416 245.951 281.055C245.763 283.033 244.781 284.453 243.349 285.79C241.38 287.345 239.341 287.464 236.914 287.455C236.499 287.456 236.499 287.456 236.075 287.457C235.308 287.459 234.54 287.458 233.773 287.457C232.938 287.456 232.102 287.458 231.267 287.459C229.804 287.461 228.34 287.461 226.876 287.46C224.7 287.459 222.524 287.461 220.347 287.463C216.234 287.466 212.121 287.466 208.007 287.466C204.831 287.465 201.655 287.466 198.479 287.467C198.023 287.467 197.567 287.467 197.111 287.467C196.423 287.467 195.736 287.468 195.048 287.468C188.656 287.47 182.265 287.471 175.873 287.47C175.632 287.47 175.391 287.47 175.142 287.47C173.921 287.47 172.699 287.469 171.478 287.469C171.235 287.469 170.992 287.469 170.742 287.469C170.252 287.469 169.761 287.469 169.271 287.469C161.636 287.468 154.002 287.469 146.368 287.474C137.792 287.478 129.216 287.481 120.641 287.48C119.726 287.48 118.812 287.48 117.898 287.48C117.673 287.48 117.448 287.48 117.216 287.48C113.816 287.479 110.416 287.481 107.017 287.483C103.151 287.486 99.2849 287.486 95.4189 287.484C93.2552 287.482 91.0916 287.482 88.9279 287.486C87.4825 287.487 86.0371 287.487 84.5917 287.484C83.7682 287.483 82.9448 287.482 82.1213 287.485C81.2335 287.488 80.3456 287.485 79.4578 287.482C79.2033 287.484 78.9488 287.486 78.6866 287.488C76.0472 287.469 73.9427 286.965 72.0185 285.101C70.7083 283.737 70.2951 282.01 70.0977 280.166C70.3681 277.64 71.219 275.731 73.2227 274.111C75.1119 272.927 77.287 272.834 79.4536 272.849Z" fill="white"/>
<path d="M76.657 237.296C76.8957 237.295 77.1345 237.294 77.3805 237.293C77.6418 237.294 77.9032 237.295 78.1724 237.296C78.4519 237.295 78.7315 237.294 79.0194 237.293C79.7981 237.291 80.5766 237.292 81.3553 237.293C82.2013 237.293 83.0473 237.292 83.8934 237.29C85.3771 237.288 86.8608 237.287 88.3446 237.287C90.551 237.288 92.7573 237.286 94.9637 237.284C99.1333 237.279 103.303 237.278 107.473 237.278C110.692 237.278 113.912 237.277 117.131 237.275C118.057 237.275 118.983 237.274 119.909 237.274C120.14 237.274 120.37 237.274 120.607 237.274C127.084 237.271 133.562 237.269 140.039 237.269C140.283 237.269 140.528 237.269 140.779 237.269C142.018 237.269 143.256 237.269 144.494 237.269C144.74 237.269 144.986 237.269 145.24 237.269C145.737 237.269 146.234 237.27 146.732 237.27C154.471 237.27 162.21 237.266 169.949 237.26C178.639 237.253 187.33 237.249 196.021 237.25C196.947 237.25 197.873 237.25 198.8 237.25C199.142 237.25 199.142 237.25 199.491 237.25C203.165 237.25 206.839 237.247 210.513 237.243C214.204 237.239 217.895 237.238 221.586 237.241C223.78 237.243 225.974 237.242 228.168 237.238C229.633 237.235 231.098 237.236 232.562 237.239C233.397 237.241 234.232 237.241 235.067 237.237C235.967 237.233 236.866 237.236 237.766 237.24C238.025 237.238 238.284 237.236 238.551 237.233C240.799 237.254 242.433 237.89 244.084 239.421C245.667 241.188 245.955 242.942 245.935 245.247C245.781 247.235 244.923 248.747 243.457 250.064C241.578 251.556 239.389 251.688 237.075 251.674C236.797 251.675 236.518 251.676 236.231 251.677C235.461 251.679 234.691 251.679 233.921 251.677C233.082 251.675 232.244 251.677 231.405 251.679C229.936 251.682 228.466 251.683 226.997 251.681C224.812 251.679 222.627 251.681 220.443 251.683C216.54 251.688 212.638 251.689 208.736 251.687C205.321 251.686 201.906 251.686 198.491 251.688C198.032 251.688 197.574 251.688 197.116 251.688C196.426 251.689 195.736 251.689 195.046 251.689C188.629 251.692 182.212 251.693 175.794 251.691C175.552 251.691 175.311 251.691 175.061 251.691C173.097 251.69 171.132 251.689 169.168 251.689C161.504 251.687 153.841 251.688 146.177 251.694C137.567 251.7 128.957 251.703 120.347 251.701C119.43 251.701 118.512 251.701 117.594 251.701C117.368 251.701 117.142 251.701 116.909 251.7C113.496 251.7 110.084 251.702 106.671 251.705C102.79 251.708 98.9094 251.708 95.0287 251.704C92.8569 251.702 90.6851 251.702 88.5132 251.706C87.0624 251.709 85.6116 251.708 84.1608 251.704C83.3342 251.702 82.5077 251.702 81.6812 251.705C80.79 251.709 79.8989 251.706 79.0077 251.702C78.7522 251.704 78.4968 251.706 78.2336 251.708C75.7976 251.686 73.7797 251.059 72.0052 249.357C70.7052 247.828 70.0969 246.067 70.1345 244.065C70.3075 242.231 71.028 240.569 72.2471 239.191C73.562 238.107 74.9221 237.298 76.657 237.296Z" fill="white"/>
<path d="M76.6091 203.552C76.7635 203.551 76.918 203.55 77.0771 203.549C77.5929 203.547 78.1086 203.548 78.6243 203.549C78.9985 203.548 79.3728 203.547 79.747 203.546C80.774 203.543 81.8011 203.543 82.8282 203.544C83.9364 203.544 85.0446 203.542 86.1528 203.539C88.3235 203.536 90.4942 203.534 92.6649 203.534C94.4296 203.534 96.1942 203.533 97.9588 203.531C102.963 203.527 107.966 203.525 112.97 203.526C113.24 203.526 113.51 203.526 113.788 203.526C114.193 203.526 114.193 203.526 114.606 203.526C118.982 203.526 123.359 203.521 127.735 203.515C132.23 203.508 136.724 203.505 141.219 203.506C143.742 203.506 146.265 203.505 148.788 203.5C150.936 203.495 153.084 203.494 155.232 203.498C156.328 203.499 157.423 203.499 158.519 203.495C159.523 203.491 160.527 203.492 161.531 203.496C161.893 203.497 162.255 203.496 162.618 203.493C165.15 203.477 167.421 203.607 169.367 205.39C171.065 207.254 171.44 209.17 171.393 211.624C171.307 213.487 170.547 214.944 169.28 216.292C167.588 217.737 165.75 218.101 163.577 218.102C163.425 218.102 163.273 218.103 163.117 218.103C162.608 218.104 162.099 218.104 161.59 218.103C161.222 218.103 160.853 218.104 160.484 218.105C159.471 218.106 158.459 218.106 157.446 218.106C156.354 218.106 155.261 218.107 154.169 218.108C152.029 218.11 149.889 218.111 147.748 218.111C146.009 218.111 144.269 218.111 142.53 218.112C137.599 218.114 132.667 218.115 127.736 218.115C127.47 218.115 127.204 218.115 126.93 218.115C126.531 218.115 126.531 218.115 126.124 218.115C121.809 218.115 117.495 218.117 113.18 218.12C108.751 218.123 104.321 218.125 99.8913 218.125C97.4042 218.125 94.9172 218.125 92.4301 218.128C90.3126 218.13 88.1952 218.13 86.0777 218.129C84.9974 218.128 83.9172 218.128 82.8369 218.13C81.8476 218.132 80.8582 218.132 79.8689 218.13C79.5114 218.129 79.154 218.13 78.7965 218.131C75.9987 218.14 73.566 218.075 71.4012 216.114C69.962 214.583 69.4437 212.922 69.3809 210.842C69.4578 208.375 70.2269 206.679 72.0185 204.988C73.4275 203.872 74.8327 203.554 76.6091 203.552Z" fill="white"/>
<path d="M77.0227 169.98C77.3446 169.979 77.6665 169.977 77.9885 169.975C78.8699 169.972 79.7513 169.973 80.6327 169.976C81.5846 169.978 82.5364 169.975 83.4883 169.973C85.3517 169.969 87.215 169.969 89.0784 169.972C90.593 169.974 92.1075 169.974 93.6221 169.973C93.8377 169.973 94.0534 169.973 94.2756 169.973C94.7137 169.973 95.1518 169.972 95.5899 169.972C99.6969 169.97 103.804 169.973 107.911 169.977C111.434 169.982 114.957 169.981 118.481 169.977C122.573 169.972 126.665 169.97 130.758 169.973C131.194 169.973 131.631 169.973 132.067 169.973C132.389 169.974 132.389 169.974 132.718 169.974C134.231 169.975 135.743 169.973 137.256 169.971C139.099 169.969 140.943 169.969 142.786 169.974C143.727 169.977 144.667 169.978 145.608 169.975C146.469 169.972 147.33 169.973 148.192 169.978C148.65 169.98 149.108 169.977 149.566 169.974C151.444 169.99 152.677 170.212 154.169 171.417C155.914 173.419 156.399 175.544 156.279 178.16C156.077 180.246 155.35 181.657 153.967 183.209C152.351 184.532 150.699 184.427 148.694 184.417C148.373 184.418 148.051 184.42 147.729 184.421C146.847 184.424 145.965 184.424 145.083 184.422C144.131 184.421 143.179 184.424 142.227 184.426C140.363 184.43 138.499 184.43 136.635 184.429C135.12 184.428 133.604 184.428 132.089 184.43C131.873 184.43 131.658 184.43 131.436 184.43C130.997 184.43 130.559 184.431 130.121 184.431C126.012 184.434 121.904 184.433 117.795 184.43C114.037 184.428 110.278 184.431 106.52 184.437C102.66 184.442 98.8006 184.444 94.9408 184.443C92.7741 184.442 90.6074 184.443 88.4407 184.447C86.5963 184.45 84.7519 184.45 82.9075 184.446C81.9666 184.444 81.0257 184.444 80.0849 184.447C79.2231 184.45 78.3614 184.449 77.4997 184.445C77.0412 184.444 76.5827 184.447 76.1243 184.45C74.2456 184.435 73.0127 184.213 71.5209 183.008C69.7752 181.005 69.292 178.881 69.4092 176.265C69.5992 174.32 70.2424 172.884 71.5209 171.417C73.2774 169.997 74.8356 169.965 77.0227 169.98Z" fill="white"/>
<path d="M118.505 79.496C122.997 83.3179 125.791 88.586 126.317 94.4687C126.581 98.3247 125.942 101.992 124.278 105.489C124.053 106.134 124.088 106.339 124.311 106.97C124.772 107.492 125.236 107.976 125.733 108.461C125.956 108.682 125.956 108.682 126.183 108.908C126.506 109.228 126.829 109.548 127.153 109.866C127.667 110.372 128.178 110.879 128.689 111.387C129.958 112.648 131.232 113.906 132.505 115.164C133.58 116.226 134.653 117.289 135.725 118.355C136.227 118.854 136.732 119.35 137.237 119.847C137.547 120.154 137.857 120.462 138.167 120.77C138.307 120.907 138.447 121.044 138.591 121.184C139.597 122.19 140.464 123.21 140.717 124.652C140.693 126.948 140.166 128.084 138.603 129.753C137.301 130.995 136.096 131.77 134.274 131.876C132.347 131.748 131.058 130.615 129.76 129.285C129.605 129.131 129.451 128.976 129.292 128.817C128.785 128.31 128.283 127.799 127.78 127.289C127.428 126.935 127.076 126.581 126.723 126.228C125.8 125.3 124.879 124.369 123.959 123.438C123.018 122.487 122.075 121.539 121.131 120.59C119.283 118.731 117.439 116.868 115.595 115.004C115.359 115.1 115.123 115.196 114.88 115.294C114.567 115.42 114.254 115.546 113.941 115.672C113.785 115.735 113.63 115.798 113.47 115.863C108.186 117.987 102.209 117.963 96.9308 115.824C94.0266 114.577 91.69 112.855 89.4486 110.643C89.1967 110.395 89.1967 110.395 88.9398 110.143C85.5795 106.606 83.7394 101.701 83.4853 96.87C83.4711 96.6073 83.4711 96.6073 83.4567 96.3392C83.3083 90.6952 85.3845 85.5294 88.9899 81.2606C89.1188 81.108 89.2477 80.9553 89.3806 80.798C97.0287 72.5249 110.091 72.8906 118.505 79.496ZM93.0019 85.8185C90.3514 89.2022 89.1883 93.046 89.4486 97.3291C90.0819 101.841 92.165 105.411 95.6413 108.348C99.5318 111.109 103.726 111.784 108.398 111.234C111.177 110.619 113.752 109.122 115.825 107.2C116.064 106.979 116.064 106.979 116.309 106.753C118.968 104.04 120.355 100.035 120.469 96.2962C120.409 92.2731 118.979 88.6129 116.284 85.6221C116.17 85.4875 116.056 85.3528 115.939 85.2141C113.611 82.6452 109.902 80.7906 106.438 80.54C101.237 80.3047 96.538 81.7888 93.0019 85.8185Z" fill="white"/>
<path d="M249.77 101.461C252.116 101.461 254.463 101.461 256.88 101.461C256.956 103.809 257.031 106.158 257.109 108.577C258.138 108.762 258.138 108.762 259.188 108.95C262.28 109.548 266.286 110.645 268.577 112.938C268.436 114.344 267.705 115.628 267.129 116.898C267.018 117.154 266.906 117.409 266.791 117.673C266.681 117.916 266.571 118.158 266.458 118.408C266.309 118.742 266.309 118.742 266.157 119.082C265.825 119.595 265.825 119.595 265.362 119.799C264.68 119.838 264.28 119.555 263.689 119.222C259.839 117.204 255.139 116.1 250.813 117.007C249.407 117.481 248.298 118.126 247.39 119.323C247.059 120.485 247.089 121.345 247.62 122.407C248.73 123.694 249.992 124.161 251.576 124.602C251.774 124.66 251.972 124.718 252.176 124.777C253.055 125.032 253.935 125.28 254.816 125.527C266.243 128.733 266.243 128.733 269.136 133.383C270.783 136.386 271.043 139.43 270.19 142.742C269.034 146.293 266.495 148.622 263.302 150.355C261.325 151.34 259.11 152.191 256.88 152.191C256.88 154.691 256.88 157.191 256.88 159.767C254.534 159.767 252.187 159.767 249.77 159.767C249.77 157.343 249.77 154.918 249.77 152.421C249.164 152.421 248.559 152.421 247.935 152.421C247.269 152.343 246.624 152.198 245.971 152.048C245.792 152.007 245.613 151.966 245.428 151.924C241.643 151.014 238.198 149.314 235.32 146.682C237.548 141.675 237.548 141.675 238.531 139.796C239.327 140.167 240.034 140.635 240.768 141.116C244.977 143.761 250.327 144.883 255.239 143.998C256.913 143.531 258.659 142.855 259.733 141.421C260.287 140.425 260.487 139.564 260.32 138.418C259.709 136.875 258.834 136.311 257.339 135.664C255.581 134.946 253.745 134.534 251.906 134.086C246.902 132.858 241.212 131.258 238.358 126.564C236.863 123.73 236.451 120.396 237.385 117.3C238.853 113.674 241.085 111.319 244.706 109.755C246.319 109.161 248.046 108.577 249.77 108.577C249.77 106.229 249.77 103.88 249.77 101.461Z" fill="white"/>
</svg>
