<svg width="90" height="92" viewBox="0 0 90 92" fill="none" xmlns="http://www.w3.org/2000/svg">
<rect width="90" height="92" rx="10" fill="white"/>
<rect x="0.5" y="0.5" width="89" height="91" rx="9.5" stroke="#115056" stroke-opacity="0.15"/>
<path d="M25.5604 20.5382C25.62 20.5381 25.62 20.5381 25.6807 20.5379C25.8131 20.5377 25.9454 20.5378 26.0778 20.5378C26.1739 20.5377 26.27 20.5376 26.3661 20.5375C26.6022 20.5372 26.8382 20.5371 27.0743 20.5371C27.3572 20.537 27.64 20.5368 27.9229 20.5365C28.6063 20.5359 29.2897 20.5357 29.9731 20.5355C30.2965 20.5354 30.6198 20.5352 30.9431 20.5351C32.0503 20.5346 33.1574 20.5342 34.2646 20.534C34.334 20.534 34.4035 20.534 34.4729 20.534C34.5425 20.534 34.6121 20.534 34.6817 20.534C34.8214 20.534 34.961 20.5339 35.1006 20.5339C35.1353 20.5339 35.1699 20.5339 35.2055 20.5339C36.3289 20.5338 37.4522 20.5331 38.5755 20.5322C39.7636 20.5312 40.9517 20.5307 42.1398 20.5307C42.2702 20.5307 42.4006 20.5306 42.5309 20.5306C42.5631 20.5306 42.5952 20.5306 42.6282 20.5306C43.1449 20.5306 43.6616 20.5302 44.1782 20.5296C44.6973 20.529 45.2165 20.5289 45.7356 20.5292C46.044 20.5294 46.3523 20.5292 46.6607 20.5286C46.8909 20.5282 47.1212 20.5284 47.3514 20.5288C47.4446 20.5289 47.5377 20.5287 47.6309 20.5284C47.7575 20.528 47.8841 20.5283 48.0106 20.5287C48.0468 20.5284 48.083 20.5281 48.1203 20.5278C48.5102 20.531 48.8426 20.6249 49.1291 20.8972C49.3961 21.1841 49.51 21.4952 49.4963 21.8868C49.4518 22.2573 49.2908 22.5394 49.0111 22.7843C48.6985 22.9976 48.3483 23.032 47.9801 23.0301C47.9207 23.0302 47.9207 23.0302 47.86 23.0304C47.7271 23.0307 47.5942 23.0304 47.4612 23.0301C47.365 23.0302 47.2688 23.0303 47.1726 23.0305C46.9633 23.0307 46.7541 23.0307 46.5448 23.0305C46.2336 23.0302 45.9224 23.0304 45.6112 23.0306C45.0876 23.031 44.5639 23.0311 44.0403 23.031C43.292 23.0309 42.5436 23.0314 41.7953 23.0321C41.4949 23.0323 41.1945 23.0326 40.8941 23.0328C40.8441 23.0328 40.8441 23.0328 40.793 23.0329C39.9987 23.0335 39.2044 23.0339 38.4101 23.0343C38.3754 23.0343 38.3406 23.0343 38.3048 23.0344C37.4942 23.0347 36.6835 23.035 35.8729 23.0351C35.8206 23.0351 35.8206 23.0351 35.7672 23.0351C35.5915 23.0351 35.4157 23.0351 35.24 23.0352C35.2052 23.0352 35.1705 23.0352 35.1347 23.0352C35.0646 23.0352 34.9945 23.0352 34.9244 23.0352C33.7655 23.0353 32.6066 23.036 31.4477 23.0372C31.284 23.0374 31.1203 23.0376 30.9566 23.0378C30.9244 23.0378 30.8921 23.0378 30.8589 23.0379C30.3408 23.0384 29.8226 23.0383 29.3045 23.038C28.7836 23.0377 28.2626 23.0379 27.7417 23.0387C27.4324 23.0392 27.1231 23.0392 26.8138 23.0386C26.5826 23.0382 26.3514 23.0387 26.1202 23.0394C26.0268 23.0396 25.9335 23.0395 25.8401 23.0391C24.991 23.0358 24.309 23.1517 23.6794 23.7704C23.2848 24.1921 23.0541 24.7408 23.0559 25.318C23.0557 25.362 23.0557 25.362 23.0556 25.4069C23.0555 25.5056 23.0555 25.6043 23.0556 25.7031C23.0556 25.7747 23.0555 25.8463 23.0554 25.9179C23.0551 26.1158 23.0551 26.3137 23.0551 26.5116C23.0551 26.7265 23.0549 26.9413 23.0547 27.1562C23.0543 27.5829 23.0542 28.0096 23.0541 28.4363C23.054 28.9472 23.0536 29.458 23.0533 29.9689C23.0525 31.2039 23.052 32.4388 23.0517 33.6737C23.0516 34.0827 23.0515 34.4916 23.0513 34.9006C23.0513 34.9439 23.0513 34.9439 23.0513 34.988C23.0512 35.1047 23.0512 35.2214 23.0512 35.3382C23.0504 37.3346 23.0498 39.331 23.0496 41.3275C23.0495 41.4843 23.0495 41.6411 23.0495 41.7979C23.0495 41.8446 23.0495 41.8446 23.0495 41.8922C23.0494 42.2074 23.0494 42.5226 23.0493 42.8378C23.0493 42.901 23.0493 42.9642 23.0493 43.0273C23.049 45.0569 23.0481 47.0864 23.0468 49.1159C23.0459 50.5741 23.0451 52.0322 23.0448 53.4904C23.0448 53.5204 23.0448 53.5504 23.0448 53.5813C23.0446 54.2397 23.0446 54.898 23.0445 55.5564C23.0445 55.8213 23.0445 56.0862 23.0445 56.3511C23.0445 56.3801 23.0445 56.4091 23.0445 56.439C23.0444 57.3728 23.0438 58.3066 23.043 59.2404C23.0422 60.181 23.0419 61.1217 23.0423 62.0623C23.0425 62.6459 23.0423 63.2295 23.0414 63.8131C23.0409 64.1854 23.0409 64.5577 23.0414 64.93C23.0417 65.1421 23.0417 65.3543 23.0411 65.5665C23.0404 65.7596 23.0406 65.9528 23.0413 66.1459C23.0414 66.2152 23.0412 66.2845 23.0408 66.3538C23.0363 67.1235 23.2188 67.7592 23.7719 68.3219C24.1724 68.6967 24.7118 68.9449 25.2643 68.9454C25.3124 68.9456 25.3605 68.9457 25.41 68.9458C25.4633 68.9458 25.5167 68.9458 25.57 68.9457C25.6269 68.9458 25.6838 68.9459 25.7407 68.946C25.8978 68.9463 26.0548 68.9463 26.2119 68.9463C26.3825 68.9464 26.5532 68.9466 26.7238 68.9469C27.0625 68.9473 27.4013 68.9475 27.74 68.9477C28.1456 68.9479 28.5513 68.9483 28.9569 68.9487C29.9374 68.9497 30.9179 68.9503 31.8984 68.9508C32.2232 68.951 32.5479 68.9512 32.8727 68.9514C34.5992 68.9524 36.3257 68.9532 38.0522 68.9537C38.4523 68.9538 38.8523 68.954 39.2524 68.9541C39.3021 68.9541 39.3518 68.9541 39.403 68.9541C41.0144 68.9546 42.6259 68.9558 44.2373 68.9575C45.8938 68.9591 47.5502 68.9602 49.2067 68.9604C49.4407 68.9604 49.6746 68.9605 49.9086 68.9605C49.9547 68.9605 50.0007 68.9605 50.0481 68.9605C50.7892 68.9607 51.5302 68.9615 52.2713 68.9625C53.0162 68.9635 53.7611 68.9638 54.506 68.9634C54.9485 68.9632 55.391 68.9635 55.8335 68.9646C56.1293 68.9652 56.425 68.9652 56.7208 68.9646C56.8892 68.9643 57.0576 68.9642 57.226 68.9651C57.3796 68.9659 57.5331 68.9657 57.6866 68.9648C57.7672 68.9646 57.8477 68.9654 57.9282 68.9661C58.4848 68.961 58.9839 68.8064 59.4305 68.4685C59.4591 68.4471 59.4877 68.4257 59.5171 68.4036C59.9945 68.0164 60.2354 67.4506 60.3348 66.8566C60.3503 66.6493 60.3506 66.443 60.3494 66.2354C60.3495 66.1741 60.3497 66.1128 60.3499 66.0516C60.3503 65.8845 60.35 65.7176 60.3495 65.5505C60.3492 65.3699 60.3495 65.1893 60.3498 65.0087C60.3501 64.6961 60.3501 64.3835 60.3498 64.0709C60.3493 63.6184 60.3497 63.166 60.3503 62.7136C60.3512 61.9788 60.3517 61.244 60.3519 60.5092C60.3519 60.4434 60.3519 60.4434 60.3519 60.3761C60.352 59.8859 60.352 59.3957 60.352 58.9055C60.352 58.7277 60.352 58.5498 60.352 58.3719C60.352 58.328 60.352 58.2841 60.352 58.2389C60.3519 57.5067 60.3525 56.7745 60.3536 56.0423C60.3542 55.591 60.3543 55.1398 60.3537 54.6885C60.3533 54.3794 60.3535 54.0702 60.3541 53.7611C60.3545 53.5828 60.3545 53.4046 60.3539 53.2263C60.3534 53.063 60.3536 52.8996 60.3543 52.7363C60.3545 52.6774 60.3543 52.6184 60.3539 52.5595C60.3509 52.1021 60.4004 51.6994 60.728 51.3555C61.0365 51.0898 61.3287 51.037 61.7263 51.0412C62.0379 51.0648 62.2801 51.1909 62.5069 51.403C62.7135 51.6463 62.8167 51.9287 62.8172 52.2442C62.8173 52.2696 62.8174 52.2951 62.8175 52.3213C62.8177 52.4072 62.8177 52.4931 62.8177 52.579C62.8178 52.641 62.818 52.703 62.8181 52.7649C62.8185 52.9357 62.8187 53.1065 62.8188 53.2773C62.8189 53.4614 62.8193 53.6454 62.8196 53.8295C62.8204 54.2744 62.8208 54.7193 62.8212 55.1642C62.8213 55.3739 62.8215 55.5835 62.8218 55.7932C62.8224 56.4905 62.823 57.1877 62.8233 57.885C62.8233 58.0661 62.8234 58.2471 62.8235 58.4281C62.8235 58.4731 62.8235 58.5181 62.8236 58.5645C62.8239 59.2922 62.8249 60.0199 62.8262 60.7476C62.8275 61.4952 62.8282 62.2428 62.8283 62.9905C62.8284 63.41 62.8287 63.8296 62.8297 64.2491C62.8306 64.6067 62.8309 64.9643 62.8305 65.3219C62.8303 65.5041 62.8304 65.6863 62.8312 65.8685C62.8368 67.2717 62.8368 67.2717 62.6546 67.9181C62.6434 67.9586 62.6434 67.9586 62.632 67.9999C62.4164 68.7732 61.9825 69.422 61.4357 70.0018C61.4097 70.0309 61.3836 70.0599 61.3568 70.0898C60.5694 70.9325 59.381 71.3764 58.2509 71.4565C58.0631 71.462 57.8753 71.4618 57.6874 71.4615C57.6307 71.4616 57.574 71.4617 57.5173 71.4618C57.3616 71.4619 57.206 71.4619 57.0503 71.4618C56.8809 71.4617 56.7115 71.4619 56.5421 71.462C56.2452 71.4622 55.9483 71.4623 55.6515 71.4622C55.21 71.4622 54.7685 71.4623 54.3271 71.4625C53.4927 71.4629 52.6584 71.463 51.824 71.4631C51.1796 71.4631 50.5353 71.4632 49.8909 71.4633C49.7054 71.4633 49.52 71.4633 49.3345 71.4634C49.2884 71.4634 49.2423 71.4634 49.1948 71.4634C47.8978 71.4636 46.6008 71.4638 45.3038 71.4638C45.2549 71.4638 45.206 71.4638 45.1556 71.4638C44.9077 71.4638 44.6598 71.4638 44.412 71.4638C44.3381 71.4638 44.3381 71.4638 44.2628 71.4638C44.1633 71.4638 44.0637 71.4638 43.9642 71.4638C42.4155 71.4637 40.8668 71.464 39.3181 71.4646C37.5782 71.4652 35.8383 71.4655 34.0983 71.4655C33.9128 71.4655 33.7272 71.4655 33.5417 71.4655C33.496 71.4655 33.4503 71.4655 33.4032 71.4655C32.6682 71.4655 31.9331 71.4657 31.198 71.4661C30.4592 71.4664 29.7203 71.4664 28.9815 71.4662C28.5426 71.466 28.1038 71.4661 27.665 71.4665C27.3716 71.4667 27.0783 71.4667 26.7849 71.4664C26.6179 71.4662 26.4509 71.4662 26.2839 71.4665C24.8211 71.4691 23.4196 71.3243 22.2745 70.3163C22.2429 70.2898 22.2112 70.2633 22.1786 70.236C21.2275 69.419 20.6607 68.2321 20.5525 66.9885C20.5357 66.7105 20.5391 66.432 20.5394 66.1536C20.5393 66.0822 20.5392 66.0107 20.5391 65.9393C20.5389 65.7429 20.5389 65.5465 20.539 65.35C20.539 65.1364 20.5388 64.9227 20.5387 64.709C20.5384 64.2852 20.5383 63.8615 20.5383 63.4377C20.5382 62.93 20.538 62.4224 20.5377 61.9148C20.5371 60.717 20.5368 59.5193 20.5366 58.3216C20.5366 57.7121 20.5364 57.1025 20.5363 56.493C20.5358 54.5372 20.5353 52.5814 20.5352 50.6256C20.5352 50.5322 20.5352 50.4387 20.5352 50.3453C20.5352 50.1579 20.5352 49.9705 20.5351 49.7831C20.5351 49.5637 20.5351 49.3442 20.5351 49.1248C20.5351 49.062 20.5351 48.9993 20.5351 48.9365C20.5349 46.92 20.5343 44.9035 20.5334 42.887C20.5328 41.4378 20.5322 39.9886 20.532 38.5394C20.532 38.5096 20.532 38.4797 20.532 38.449C20.5319 37.7943 20.5319 37.1397 20.5318 36.485C20.5318 36.2507 20.5318 36.0164 20.5318 35.7822C20.5318 35.7239 20.5318 35.6656 20.5318 35.6073C20.5318 34.6796 20.5314 33.7519 20.5308 32.8242C20.5302 31.8635 20.5301 30.9027 20.5304 29.9419C20.5306 29.3883 20.5304 28.8347 20.5298 28.281C20.5294 27.911 20.5294 27.5409 20.5298 27.1708C20.53 26.9601 20.5301 26.7495 20.5296 26.5388C20.5291 26.3466 20.5292 26.1545 20.5298 25.9624C20.5299 25.8938 20.5298 25.8251 20.5294 25.7565C20.5266 25.1211 20.5679 24.4581 20.7854 23.8557C20.7971 23.822 20.8088 23.7883 20.8209 23.7536C21.256 22.5529 22.147 21.5658 23.299 21.0161C24.0281 20.6811 24.7601 20.5366 25.5604 20.5382Z" fill="#165056"/>
<path d="M58.4193 25.2808C58.6026 25.3843 58.7555 25.505 58.9079 25.6494C59.0029 25.7387 59.1018 25.8205 59.2033 25.9025C59.3633 26.0322 59.5209 26.1643 59.6775 26.2981C59.8519 26.4468 60.0296 26.5902 60.2108 26.7306C60.4375 26.9063 60.6548 27.0912 60.8706 27.2803C61.0406 27.429 61.2139 27.5724 61.3914 27.7122C61.4993 27.7974 61.6047 27.8854 61.7098 27.9739C61.7108 27.9364 61.7118 27.8988 61.7129 27.8601C61.7316 27.4327 61.7778 27.0258 62.103 26.7158C62.292 26.5839 62.4665 26.5149 62.6963 26.5135C62.728 26.5132 62.7597 26.5129 62.7923 26.5126C62.8267 26.5125 62.8611 26.5124 62.8966 26.5123C62.9331 26.512 62.9696 26.5118 63.0073 26.5115C63.1282 26.5107 63.2491 26.5103 63.3699 26.5099C63.4113 26.5097 63.4527 26.5096 63.4954 26.5094C63.7146 26.5086 63.9338 26.508 64.1531 26.5076C64.3788 26.5072 64.6045 26.5059 64.8302 26.5043C65.0044 26.5033 65.1785 26.5029 65.3527 26.5028C65.4358 26.5026 65.519 26.5022 65.6021 26.5014C66.1442 26.4969 66.5804 26.509 67.0313 26.8433C67.1829 27.0042 67.2292 27.1703 67.2266 27.3869C67.2263 27.4573 67.2263 27.4573 67.2259 27.5292C67.225 27.5802 67.2242 27.6311 67.2233 27.6837C67.2228 27.7383 67.2224 27.793 67.222 27.8476C67.2211 27.9651 67.2199 28.0825 67.2185 28.2C67.2164 28.3861 67.2155 28.5722 67.215 28.7583C67.2148 28.8222 67.2146 28.886 67.2144 28.9499C67.2143 28.9978 67.2143 28.9978 67.2141 29.0468C67.2127 29.4798 67.2101 29.9127 67.2048 30.3457C67.2013 30.6382 67.1995 30.9306 67.1998 31.223C67.1999 31.3776 67.1991 31.532 67.196 31.6865C67.1469 32.401 67.1469 32.401 67.4295 33.0158C67.5356 33.1049 67.6449 33.1724 67.7649 33.2421C67.8403 33.3024 67.915 33.3637 67.9885 33.4264C68.041 33.4686 68.041 33.4686 68.0946 33.5117C68.2309 33.6235 68.3603 33.7422 68.4906 33.861C68.596 33.9546 68.7044 34.0433 68.8142 34.1316C69.3674 34.584 69.3674 34.584 69.4556 34.972C69.4737 35.272 69.384 35.5209 69.1998 35.7548C68.9878 35.9864 68.747 36.1168 68.4308 36.1318C68.0524 36.1115 67.8338 35.8841 67.5712 35.635C67.463 35.5329 67.3502 35.4385 67.2341 35.3455C67.0777 35.2197 66.9287 35.0889 66.7819 34.9524C66.6008 34.7839 66.4136 34.6262 66.2208 34.471C66.0689 34.3454 65.9243 34.2125 65.7797 34.0785C65.6975 34.0041 65.6138 33.9364 65.5262 33.8687C65.349 33.7146 65.2634 33.5188 65.2344 33.2868C65.2292 33.1567 65.229 33.0275 65.2306 32.8973C65.2306 32.8481 65.2306 32.799 65.2305 32.7484C65.2306 32.6147 65.2314 32.481 65.2325 32.3473C65.2335 32.2073 65.2336 32.0672 65.2338 31.9271C65.2343 31.6622 65.2356 31.3974 65.2371 31.1326C65.2389 30.8309 65.2398 30.5292 65.2406 30.2275C65.2422 29.6074 65.2451 28.9872 65.2485 28.3671C64.7554 28.3671 64.2624 28.3671 63.7544 28.3671C63.7567 28.4931 63.7589 28.619 63.7613 28.7488C63.7628 28.8719 63.764 28.995 63.7652 29.1181C63.7662 29.2032 63.7675 29.2882 63.7692 29.3732C63.7716 29.496 63.7727 29.6188 63.7736 29.7416C63.7746 29.7791 63.7756 29.8166 63.7766 29.8553C63.7768 30.1657 63.6902 30.4175 63.4838 30.6532C63.2496 30.8851 62.9749 30.9641 62.651 30.9766C62.2246 30.9587 61.9841 30.7655 61.6705 30.4901C61.6072 30.4361 61.5436 30.3824 61.48 30.3288C61.4365 30.292 61.393 30.2552 61.3495 30.2183C61.2152 30.1043 61.0797 29.9919 60.9431 29.8807C60.762 29.7333 60.5836 29.583 60.4058 29.4319C60.2723 29.3187 60.1377 29.2071 60.0019 29.0969C59.8107 28.9413 59.6237 28.7813 59.437 28.6204C59.2636 28.4713 59.0875 28.3259 58.9099 28.1819C58.7844 28.0788 58.6608 27.9736 58.5373 27.8683C58.3547 27.7127 58.1688 27.5644 57.9746 27.4235C57.8116 27.4904 57.6897 27.606 57.5593 27.7208C57.5099 27.7638 57.4605 27.8067 57.411 27.8495C57.3866 27.8707 57.3622 27.8919 57.3371 27.9137C57.2398 27.9971 57.1404 28.0777 57.0407 28.1582C56.8685 28.298 56.7039 28.4444 56.5399 28.5937C56.4064 28.7125 56.2675 28.8241 56.1286 28.9365C55.9882 29.0523 55.8509 29.1713 55.7137 29.291C55.5454 29.4378 55.3763 29.5829 55.2026 29.7234C54.9536 29.9252 54.713 30.1362 54.4713 30.3465C54.1589 30.6178 53.8438 30.8858 53.5276 31.1526C53.3692 31.2863 53.2119 31.4213 53.0548 31.5565C52.8951 31.6938 52.7344 31.8293 52.5707 31.9619C52.3211 32.1647 52.0795 32.3764 51.837 32.5875C51.5248 32.8586 51.2097 33.1265 50.8938 33.3931C50.7073 33.5506 50.522 33.7095 50.3372 33.8689C50.2113 33.9771 50.0839 34.0828 49.9536 34.1857C50.0077 34.2022 50.0077 34.2022 50.0629 34.219C50.4056 34.331 50.7049 34.4407 50.8805 34.7756C50.956 34.9573 50.9526 35.1311 50.9507 35.3255C50.9509 35.3837 50.9509 35.3837 50.951 35.4432C50.9512 35.5734 50.9506 35.7035 50.9499 35.8337C50.9499 35.9286 50.9499 36.0235 50.95 36.1184C50.95 36.3725 50.9493 36.6265 50.9485 36.8805C50.9478 37.119 50.9478 37.3574 50.9477 37.5958C50.9471 38.293 50.9454 38.9902 50.9439 39.6874C50.9415 41.2451 50.9391 42.8028 50.9365 44.4076C55.6725 44.4076 60.4084 44.4076 65.2878 44.4076C65.2878 42.9546 65.2878 41.5015 65.2878 40.0043C65.4381 39.6662 65.5254 39.4863 65.8536 39.3308C66.1469 39.2284 66.4278 39.2353 66.7131 39.3606C66.9368 39.4858 67.0903 39.6761 67.1889 39.9119C67.2468 40.1217 67.2314 40.3437 67.2309 40.5599C67.2312 40.6162 67.2315 40.6726 67.2319 40.7289C67.2328 40.8814 67.2329 41.0338 67.2328 41.1863C67.2328 41.3139 67.2332 41.4415 67.2335 41.5691C67.2342 41.8703 67.2344 42.1715 67.2341 42.4727C67.2338 42.7827 67.2347 43.0927 67.2362 43.4027C67.2374 43.6695 67.2378 43.9363 67.2377 44.203C67.2376 44.3621 67.2378 44.5212 67.2388 44.6802C67.2397 44.8299 67.2396 44.9796 67.2388 45.1293C67.2387 45.184 67.2389 45.2387 67.2394 45.2933C67.2429 45.6545 67.2083 45.9593 66.9625 46.24C66.7382 46.4433 66.5036 46.5061 66.2091 46.5063C66.1659 46.5066 66.1659 46.5066 66.1218 46.5069C66.0254 46.5073 65.929 46.507 65.8326 46.5066C65.7627 46.5068 65.6928 46.507 65.6229 46.5072C65.431 46.5078 65.2391 46.5076 65.0472 46.5073C64.8402 46.5072 64.6332 46.5077 64.4262 46.5081C64.0206 46.5087 63.6151 46.5088 63.2096 46.5086C62.88 46.5084 62.5504 46.5085 62.2208 46.5087C62.1504 46.5087 62.1504 46.5087 62.0787 46.5088C61.9834 46.5088 61.8882 46.5089 61.7929 46.5089C60.8994 46.5095 60.0058 46.5093 59.1123 46.5088C58.2947 46.5084 57.4772 46.5089 56.6596 46.5099C55.8203 46.5108 54.9809 46.5112 54.1416 46.5109C53.6703 46.5108 53.1991 46.5109 52.7278 46.5116C52.3266 46.5122 51.9254 46.5122 51.5242 46.5115C51.3195 46.5112 51.1148 46.5111 50.9101 46.5117C50.7227 46.5122 50.5353 46.512 50.3478 46.5113C50.2801 46.5111 50.2123 46.5112 50.1445 46.5117C49.3981 46.5159 49.3981 46.5159 49.1436 46.2744C49.0211 46.1338 48.9657 46.0384 48.9658 45.8552C48.9657 45.8205 48.9656 45.7858 48.9655 45.7501C48.9657 45.7118 48.9658 45.6735 48.9659 45.634C48.9659 45.5935 48.9658 45.5529 48.9658 45.5112C48.9657 45.3745 48.9659 45.2378 48.9662 45.1012C48.9662 45.0035 48.9662 44.9059 48.9661 44.8083C48.9661 44.5977 48.9662 44.3871 48.9665 44.1764C48.9668 43.8719 48.9669 43.5674 48.9669 43.2629C48.967 42.7688 48.9673 42.2748 48.9677 41.7807C48.968 41.3007 48.9683 40.8207 48.9685 40.3407C48.9685 40.3112 48.9685 40.2816 48.9685 40.2511C48.9685 40.1028 48.9686 39.9544 48.9686 39.8061C48.969 38.5748 48.9697 37.3435 48.9706 36.1121C48.9224 36.1128 48.8743 36.1134 48.8246 36.114C48.6446 36.1162 48.4646 36.1175 48.2845 36.1186C48.2068 36.1192 48.1292 36.12 48.0515 36.121C47.9393 36.1225 47.8272 36.1231 47.715 36.1237C47.6807 36.1243 47.6464 36.1249 47.6111 36.1255C47.2159 36.1256 46.943 36.0137 46.6577 35.7396C46.4593 35.5094 46.3842 35.2491 46.4006 34.9471C46.4757 34.4579 46.9704 34.1716 47.3291 33.8822C47.4404 33.7899 47.547 33.6939 47.6535 33.596C47.8292 33.4342 48.0109 33.2826 48.1967 33.1326C48.3001 33.0473 48.3997 32.959 48.4988 32.8686C48.6323 32.7469 48.7686 32.6307 48.9092 32.5173C49.0587 32.3963 49.2026 32.2715 49.3441 32.1413C49.5199 31.9796 49.7016 31.8279 49.8874 31.678C49.9908 31.5926 50.0904 31.5043 50.1895 31.414C50.3586 31.2599 50.5339 31.1155 50.7117 30.9717C50.8492 30.8579 50.9805 30.7379 51.1124 30.6177C51.2145 30.527 51.3193 30.4407 51.4256 30.3549C51.5751 30.234 51.719 30.1092 51.8605 29.979C52.0363 29.8172 52.218 29.6656 52.4038 29.5156C52.5072 29.4303 52.6068 29.342 52.7059 29.2517C52.8394 29.13 52.9757 29.0137 53.1163 28.9003C53.2658 28.7793 53.4097 28.6546 53.5512 28.5243C53.727 28.3626 53.9086 28.2109 54.0945 28.061C54.1979 27.9756 54.2975 27.8873 54.3966 27.797C54.5301 27.6753 54.6664 27.5591 54.807 27.4456C54.9565 27.3247 55.1004 27.1999 55.2419 27.0697C55.4177 26.9079 55.5993 26.7563 55.7852 26.6063C55.8886 26.521 55.9882 26.4327 56.0873 26.3423C56.2553 26.1892 56.4295 26.0458 56.6065 25.9033C56.721 25.8077 56.829 25.7073 56.9375 25.6052C57.3584 25.2175 57.8669 25.0188 58.4193 25.2808Z" fill="#115056"/>
<path d="M28.6214 61.7309C28.6927 61.7307 28.6927 61.7307 28.7655 61.7304C28.8967 61.7301 29.028 61.7303 29.1593 61.7307C29.3024 61.7311 29.4454 61.7307 29.5885 61.7305C29.839 61.7301 30.0895 61.7302 30.3401 61.7305C30.7126 61.7311 31.0851 61.7309 31.4577 61.7307C32.123 61.7302 32.7884 61.7304 33.4538 61.7309C34.036 61.7313 34.6182 61.7315 35.2004 61.7314C35.2584 61.7314 35.2584 61.7314 35.3175 61.7314C35.4742 61.7314 35.631 61.7314 35.7878 61.7313C37.2583 61.7312 38.7289 61.7317 40.1994 61.7325C41.5061 61.7332 42.8127 61.7335 44.1194 61.7332C44.2033 61.7332 44.2872 61.7332 44.3711 61.7332C44.4333 61.7332 44.4333 61.7332 44.4968 61.7332C44.7056 61.7331 44.9145 61.7331 45.1233 61.7331C45.1645 61.7331 45.2057 61.7331 45.2481 61.7331C46.3398 61.7329 47.4316 61.7331 48.5233 61.7335C48.6408 61.7335 48.7582 61.7335 48.8757 61.7336C48.9536 61.7336 49.0315 61.7336 49.1094 61.7336C49.6528 61.7338 50.1962 61.7338 50.7395 61.7337C51.4397 61.7337 52.1398 61.7338 52.8399 61.7344C53.2103 61.7347 53.5806 61.7348 53.9509 61.7346C54.1982 61.7345 54.4455 61.7347 54.6928 61.7351C54.8337 61.7353 54.9746 61.7354 55.1156 61.7352C55.2674 61.7349 55.4192 61.7352 55.5711 61.7356C55.6148 61.7355 55.6585 61.7353 55.7036 61.7351C56.1381 61.7373 56.4793 61.7962 56.8032 62.1013C57.114 62.4302 57.1746 62.6845 57.1638 63.1364C57.1317 63.4752 56.9633 63.7183 56.7178 63.9473C56.3803 64.2138 56.0307 64.2341 55.6146 64.2325C55.5434 64.2327 55.5434 64.2327 55.4709 64.2329C55.3393 64.2332 55.2077 64.2331 55.0762 64.2329C54.933 64.2327 54.7898 64.233 54.6466 64.2332C54.3957 64.2336 54.1448 64.2336 53.8939 64.2335C53.5208 64.2333 53.1477 64.2335 52.7746 64.2338C52.0695 64.2344 51.3644 64.2345 50.6593 64.2344C50.1148 64.2343 49.5703 64.2344 49.0258 64.2346C48.9476 64.2346 48.8694 64.2346 48.7912 64.2346C48.6734 64.2347 48.5555 64.2347 48.4377 64.2347C47.3419 64.2351 46.2462 64.2352 45.1504 64.2351C45.1091 64.2351 45.0678 64.2351 45.0252 64.2351C44.8158 64.235 44.6064 64.235 44.397 64.235C44.3554 64.235 44.3138 64.2349 44.271 64.2349C44.1869 64.2349 44.1028 64.2349 44.0187 64.2349C42.7099 64.2347 41.4012 64.235 40.0924 64.2357C38.6223 64.2365 37.1522 64.237 35.6821 64.2368C35.5253 64.2368 35.3686 64.2368 35.2119 64.2368C35.1733 64.2368 35.1347 64.2368 35.0949 64.2367C34.5122 64.2367 33.9294 64.237 33.3466 64.2374C32.6838 64.2379 32.0211 64.2379 31.3584 64.2374C30.9874 64.2372 30.6165 64.2372 30.2456 64.2378C29.9978 64.2381 29.75 64.238 29.5023 64.2375C29.3611 64.2373 29.2199 64.2372 29.0788 64.2377C28.9266 64.2382 28.7744 64.2377 28.6222 64.2372C28.5785 64.2375 28.5349 64.2378 28.49 64.2381C28.0375 64.235 27.6767 64.1485 27.3469 63.8294C27.1223 63.5958 27.0514 63.2999 27.0176 62.9841C27.0639 62.5514 27.2098 62.2245 27.5533 61.9471C27.8772 61.7443 28.25 61.7285 28.6214 61.7309Z" fill="#165056"/>
<path d="M28.1419 55.6419C28.1828 55.6417 28.2237 55.6415 28.2659 55.6413C28.3107 55.6414 28.3555 55.6416 28.4017 55.6417C28.4496 55.6416 28.4975 55.6415 28.5469 55.6413C28.6803 55.641 28.8138 55.6411 28.9473 55.6413C29.0923 55.6414 29.2374 55.6411 29.3824 55.6408C29.6367 55.6404 29.8911 55.6403 30.1455 55.6404C30.5237 55.6405 30.9019 55.6402 31.2802 55.6397C31.995 55.639 32.7097 55.6388 33.4245 55.6387C33.9765 55.6387 34.5284 55.6385 35.0803 55.6383C35.2391 55.6382 35.3978 55.6381 35.5566 55.6381C35.596 55.638 35.6355 55.638 35.6762 55.638C36.7866 55.6375 37.897 55.6372 39.0074 55.6373C39.0493 55.6373 39.0911 55.6373 39.1343 55.6373C39.3466 55.6373 39.5589 55.6373 39.7711 55.6373C39.8133 55.6373 39.8555 55.6373 39.8989 55.6373C39.9842 55.6373 40.0694 55.6373 40.1547 55.6373C41.4814 55.6373 42.808 55.6368 44.1347 55.6357C45.6245 55.6345 47.1144 55.6338 48.6042 55.6339C48.763 55.6339 48.9218 55.6339 49.0806 55.6339C49.1393 55.6339 49.1393 55.6339 49.1991 55.6339C49.8289 55.6339 50.4587 55.6334 51.0885 55.6327C51.7213 55.632 52.3541 55.632 52.9869 55.6325C53.3629 55.6328 53.739 55.6326 54.1151 55.6318C54.3663 55.6314 54.6174 55.6315 54.8685 55.632C55.0117 55.6323 55.1548 55.6324 55.2979 55.6318C55.4521 55.6311 55.6063 55.6316 55.7605 55.6323C55.805 55.6319 55.8494 55.6315 55.8952 55.6311C56.2804 55.6346 56.5606 55.7436 56.8436 56.0057C57.115 56.3084 57.1643 56.6088 57.161 57.0036C57.1346 57.344 56.9875 57.6031 56.7362 57.8286C56.4141 58.0842 56.0387 58.1067 55.6421 58.1043C55.5944 58.1045 55.5466 58.1047 55.4975 58.1049C55.3654 58.1053 55.2335 58.1052 55.1014 58.1048C54.9576 58.1045 54.8138 58.1049 54.6701 58.1053C54.4182 58.1058 54.1663 58.1058 53.9144 58.1056C53.5399 58.1052 53.1654 58.1055 52.7908 58.106C52.1219 58.1068 51.4529 58.1068 50.7839 58.1066C50.1985 58.1065 49.6131 58.1065 49.0276 58.1067C48.9491 58.1067 48.8706 58.1068 48.7921 58.1068C48.6737 58.1068 48.5554 58.1069 48.4371 58.1069C47.337 58.1074 46.2369 58.1075 45.1369 58.1072C45.0954 58.1072 45.0539 58.1072 45.0112 58.1072C44.6744 58.1071 44.3376 58.107 44.0009 58.1069C42.6871 58.1065 41.3733 58.1068 40.0596 58.1077C38.5836 58.1088 37.1076 58.1093 35.6317 58.109C35.4743 58.109 35.317 58.1089 35.1596 58.1089C35.1209 58.1089 35.0821 58.1089 35.0422 58.1089C34.4572 58.1088 33.8721 58.1091 33.2871 58.1096C32.6218 58.1102 31.9566 58.1102 31.2913 58.1095C30.919 58.1092 30.5467 58.1092 30.1744 58.1099C29.9257 58.1103 29.6769 58.1102 29.4282 58.1095C29.2865 58.1092 29.1448 58.1091 29.0032 58.1097C28.8504 58.1103 28.6976 58.1098 28.5448 58.1091C28.5011 58.1095 28.4573 58.1098 28.4121 58.1102C27.9946 58.1063 27.6486 57.9991 27.3444 57.7075C27.1216 57.4457 27.0173 57.144 27.0237 56.8012C27.0534 56.4871 27.1769 56.2024 27.3859 55.9664C27.6113 55.7807 27.8445 55.6421 28.1419 55.6419Z" fill="#165056"/>
<path d="M28.1337 49.8625C28.1601 49.8623 28.1866 49.8622 28.2139 49.8621C28.3023 49.8617 28.3907 49.8619 28.4791 49.8621C28.5433 49.8619 28.6074 49.8617 28.6716 49.8615C28.8476 49.8611 29.0237 49.8611 29.1998 49.8612C29.3898 49.8612 29.5797 49.8607 29.7697 49.8604C30.1418 49.8597 30.514 49.8595 30.8861 49.8595C31.1886 49.8594 31.4911 49.8593 31.7936 49.859C32.6514 49.8583 33.5092 49.858 34.367 49.858C34.4132 49.858 34.4595 49.858 34.5071 49.858C34.5766 49.858 34.5766 49.858 34.6474 49.858C35.3976 49.8581 36.1479 49.8573 36.8981 49.8562C37.6686 49.8551 38.4391 49.8545 39.2096 49.8546C39.6421 49.8546 40.0746 49.8544 40.5071 49.8536C40.8754 49.8528 41.2436 49.8527 41.6119 49.8532C41.7997 49.8535 41.9875 49.8535 42.1754 49.8528C42.3475 49.8522 42.5196 49.8523 42.6917 49.853C42.7538 49.8531 42.8159 49.8529 42.878 49.8525C43.312 49.8496 43.7014 49.872 44.0349 50.1773C44.3262 50.4965 44.3903 50.8248 44.3823 51.2451C44.3676 51.5641 44.2373 51.8137 44.02 52.0444C43.7301 52.292 43.4149 52.3543 43.0425 52.3545C43.0164 52.3546 42.9904 52.3546 42.9635 52.3547C42.8763 52.3549 42.7891 52.3548 42.7019 52.3547C42.6387 52.3548 42.5755 52.3549 42.5123 52.355C42.3386 52.3552 42.165 52.3552 41.9914 52.3552C41.8041 52.3552 41.6169 52.3554 41.4296 52.3556C41.0627 52.3559 40.6958 52.356 40.329 52.356C40.0308 52.356 39.7326 52.3561 39.4344 52.3562C38.589 52.3566 37.7436 52.3568 36.8983 52.3567C36.8527 52.3567 36.8071 52.3567 36.7602 52.3567C36.6917 52.3567 36.6917 52.3567 36.6219 52.3567C35.8823 52.3567 35.1426 52.3571 34.403 52.3576C33.6436 52.3582 32.8843 52.3585 32.1249 52.3584C31.6985 52.3584 31.2722 52.3585 30.8458 52.359C30.4828 52.3593 30.1198 52.3594 29.7568 52.3591C29.5717 52.359 29.3865 52.359 29.2013 52.3593C29.0317 52.3597 28.8621 52.3596 28.6925 52.3593C28.6312 52.3592 28.5699 52.3593 28.5086 52.3595C28.029 52.3611 27.612 52.35 27.2409 52.014C26.9942 51.7519 26.9053 51.4673 26.8945 51.111C26.9077 50.6885 27.0396 50.3981 27.3467 50.1085C27.5882 49.9173 27.8291 49.8628 28.1337 49.8625Z" fill="#165056"/>
<path d="M28.2045 44.1126C28.2597 44.1124 28.3149 44.1121 28.3701 44.1118C28.5212 44.1112 28.6723 44.1115 28.8234 44.112C28.9865 44.1123 29.1497 44.1118 29.3129 44.1113C29.6323 44.1106 29.9518 44.1108 30.2712 44.1112C30.5308 44.1116 30.7905 44.1117 31.0501 44.1115C31.0871 44.1115 31.1241 44.1114 31.1621 44.1114C31.2372 44.1114 31.3123 44.1113 31.3874 44.1113C32.0915 44.1108 32.7956 44.1113 33.4996 44.1122C34.1036 44.1129 34.7076 44.1127 35.3116 44.112C36.0131 44.1112 36.7147 44.1109 37.4163 44.1113C37.4911 44.1114 37.5659 44.1114 37.6407 44.1115C37.6959 44.1115 37.6959 44.1115 37.7523 44.1116C38.0116 44.1117 38.2709 44.1115 38.5302 44.1111C38.8462 44.1106 39.1622 44.1108 39.4783 44.1116C39.6395 44.112 39.8007 44.1122 39.9619 44.1117C40.1096 44.1112 40.2572 44.1115 40.4049 44.1123C40.4834 44.1125 40.562 44.112 40.6405 44.1115C40.9624 44.1143 41.1739 44.1523 41.4295 44.3587C41.7288 44.7017 41.8118 45.0656 41.7914 45.5136C41.7567 45.8709 41.6321 46.1124 41.3949 46.3784C41.1179 46.6049 40.8348 46.5869 40.4911 46.5853C40.4359 46.5855 40.3808 46.5857 40.3256 46.5859C40.1744 46.5865 40.0232 46.5863 39.872 46.5861C39.7088 46.5859 39.5456 46.5864 39.3824 46.5868C39.0629 46.5874 38.7433 46.5875 38.4237 46.5873C38.164 46.5871 37.9042 46.5872 37.6445 46.5874C37.6075 46.5874 37.5705 46.5874 37.5324 46.5875C37.4573 46.5875 37.3822 46.5876 37.3071 46.5876C36.6027 46.5882 35.8984 46.588 35.1941 46.5875C34.5498 46.5871 33.9055 46.5876 33.2612 46.5886C32.5995 46.5895 31.9379 46.5899 31.2762 46.5897C30.9047 46.5895 30.5333 46.5896 30.1619 46.5903C29.8457 46.5909 29.5295 46.5909 29.2133 46.5902C29.052 46.5899 28.8907 46.5898 28.7294 46.5904C28.5817 46.5909 28.434 46.5908 28.2863 46.59C28.2077 46.5898 28.1291 46.5903 28.0505 46.5909C27.7284 46.5883 27.5171 46.5504 27.2613 46.3438C26.9621 46.0009 26.8792 45.6371 26.8993 45.1891C26.9319 44.856 27.0422 44.6099 27.2613 44.3587C27.5625 44.1156 27.8296 44.11 28.2045 44.1126Z" fill="#165056"/>
<path d="M35.3163 28.6153C36.0862 29.2699 36.5653 30.1722 36.6554 31.1797C36.7006 31.8401 36.5911 32.4683 36.3058 33.0671C36.2673 33.1776 36.2733 33.2127 36.3115 33.3208C36.3906 33.4101 36.4701 33.4931 36.5553 33.5761C36.5935 33.614 36.5935 33.614 36.6324 33.6527C36.6877 33.7076 36.7432 33.7623 36.7987 33.8169C36.8868 33.9034 36.9744 33.9903 37.062 34.0773C37.2796 34.2933 37.4979 34.5087 37.7162 34.7241C37.9004 34.9061 38.0844 35.0882 38.2681 35.2707C38.3543 35.3561 38.4409 35.4412 38.5274 35.5262C38.5806 35.5789 38.6337 35.6316 38.6868 35.6844C38.7108 35.7078 38.7348 35.7312 38.7596 35.7553C38.932 35.9276 39.0807 36.1022 39.124 36.3492C39.1198 36.7425 39.0295 36.9371 38.7616 37.2229C38.5383 37.4356 38.3317 37.5684 38.0194 37.5865C37.6891 37.5646 37.4682 37.3705 37.2456 37.1427C37.2191 37.1163 37.1926 37.0898 37.1653 37.0625C37.0786 36.9756 36.9924 36.8883 36.9062 36.8008C36.8459 36.7402 36.7855 36.6796 36.7251 36.6191C36.5668 36.4601 36.4089 36.3008 36.2512 36.1413C36.0899 35.9784 35.9281 35.816 35.7664 35.6535C35.4497 35.3351 35.1334 35.0161 34.8174 34.6969C34.7769 34.7132 34.7364 34.7296 34.6947 34.7465C34.6411 34.768 34.5874 34.7896 34.5337 34.8112C34.5071 34.822 34.4805 34.8328 34.453 34.8439C33.5472 35.2078 32.5225 35.2035 31.6178 34.8373C31.1199 34.6236 30.7193 34.3287 30.3351 33.9499C30.2919 33.9075 30.2919 33.9075 30.2479 33.8642C29.6718 33.2585 29.3564 32.4185 29.3128 31.591C29.3104 31.546 29.3104 31.546 29.3079 31.5001C29.2825 30.5334 29.6384 29.6487 30.2565 28.9175C30.2786 28.8914 30.3007 28.8652 30.3234 28.8383C31.6345 27.4214 33.8737 27.484 35.3163 28.6153ZM30.9442 29.6982C30.4899 30.2777 30.2905 30.936 30.3351 31.6696C30.4437 32.4423 30.8008 33.0538 31.3967 33.5567C32.0637 34.0297 32.7826 34.1453 33.5836 34.0511C34.06 33.9457 34.5015 33.6893 34.8567 33.3602C34.8978 33.3223 34.8978 33.3223 34.9397 33.2837C35.3956 32.8189 35.6333 32.1331 35.6529 31.4927C35.6427 30.8037 35.3974 30.1768 34.9354 29.6645C34.9159 29.6415 34.8965 29.6184 34.8764 29.5947C34.4773 29.1547 33.8414 28.837 33.2476 28.7941C32.356 28.7538 31.5504 29.008 30.9442 29.6982Z" fill="#115056"/>
<path d="M58.7061 31.4192C58.8016 31.4338 58.8016 31.4338 58.8803 31.5125C58.9088 31.7398 58.8716 31.9738 58.8363 32.1987C58.8293 32.2453 58.8293 32.2453 58.8222 32.293C58.8121 32.3598 58.802 32.4267 58.7917 32.4935C58.7754 32.5995 58.7595 32.7054 58.7437 32.8114C58.6986 33.1125 58.6529 33.4135 58.6071 33.7144C58.579 33.8991 58.5512 34.0838 58.5237 34.2685C58.5081 34.3727 58.492 34.4768 58.4759 34.581C58.4664 34.645 58.4568 34.709 58.4473 34.773C58.4405 34.8162 58.4405 34.8162 58.4335 34.8601C58.4095 35.0251 58.4111 35.1633 58.4478 35.326C58.5883 35.3729 58.7167 35.3716 58.863 35.3722C58.9083 35.3726 58.9083 35.3726 58.9545 35.373C59.02 35.3735 59.0855 35.374 59.151 35.3744C59.2546 35.375 59.3582 35.3759 59.4618 35.3769C59.7563 35.3797 60.0508 35.3821 60.3453 35.3841C60.5255 35.3853 60.7056 35.387 60.8857 35.3888C60.9544 35.3895 61.0232 35.3899 61.0919 35.3903C61.1879 35.3908 61.2838 35.3917 61.3797 35.3928C61.4083 35.3928 61.4368 35.3928 61.4663 35.3928C61.6629 35.3957 61.6629 35.3957 61.7505 35.4833C61.7681 35.6581 61.7437 35.7594 61.6508 35.9069C61.6291 35.942 61.6073 35.9772 61.5848 36.0134C61.5608 36.0509 61.5369 36.0884 61.5122 36.1271C61.4874 36.1668 61.4626 36.2065 61.437 36.2474C61.3585 36.3731 61.2793 36.4982 61.2001 36.6234C61.1514 36.7012 61.1028 36.7789 61.0543 36.8567C60.9571 37.0126 60.8596 37.1684 60.762 37.324C60.5767 37.6203 60.3937 37.918 60.2108 38.2157C60.0291 38.5114 59.8467 38.8067 59.6638 39.1017C59.5222 39.3302 59.3812 39.5592 59.2404 39.7883C58.9867 40.2012 58.7315 40.613 58.4741 41.0236C58.2572 41.37 58.043 41.718 57.8296 42.0666C57.7607 42.1788 57.6915 42.2909 57.6221 42.4028C57.6059 42.4294 57.5896 42.456 57.5729 42.4834C57.5319 42.5487 57.5319 42.5487 57.4648 42.6387C57.3616 42.6583 57.3616 42.6583 57.2682 42.6387C57.1896 42.56 57.1896 42.56 57.1871 42.4889C57.2171 42.2575 57.2662 42.0358 57.3264 41.8105C57.3364 41.7726 57.3463 41.7347 57.3565 41.6956C57.3892 41.5709 57.4222 41.4464 57.4553 41.3218C57.4784 41.2339 57.5015 41.1461 57.5245 41.0582C57.5854 40.8269 57.6465 40.5956 57.7077 40.3643C57.7568 40.1783 57.8058 39.9923 57.8547 39.8063C57.9465 39.4572 58.0384 39.1081 58.1307 38.7591C58.1516 38.6797 58.1726 38.6002 58.1935 38.5207C58.2504 38.3052 58.3089 38.0903 58.3691 37.8757C58.3821 37.8292 58.395 37.7826 58.4083 37.7347C58.4333 37.6449 58.4587 37.5553 58.4844 37.4657C58.4957 37.4253 58.5069 37.3848 58.5184 37.3431C58.5285 37.3075 58.5386 37.2719 58.549 37.2352C58.5675 37.1236 58.5574 37.0462 58.5264 36.938C58.4477 36.8592 58.2886 36.8922 58.1807 36.8918C58.1486 36.8916 58.1165 36.8913 58.0834 36.891C58.0135 36.8905 57.9436 36.89 57.8737 36.8896C57.7632 36.889 57.6526 36.8881 57.5421 36.8871C57.2278 36.8843 56.9135 36.8819 56.5992 36.8799C56.4072 36.8786 56.2152 36.877 56.0232 36.8752C55.9498 36.8745 55.8765 36.8741 55.8031 36.8737C55.7007 36.8732 55.5983 36.8723 55.4958 36.8712C55.4653 36.8712 55.4347 36.8712 55.4033 36.8712C55.1933 36.8683 55.1933 36.8683 55.1057 36.7807C55.0878 36.6573 55.0971 36.5986 55.1609 36.4906C55.1995 36.4417 55.1995 36.4417 55.2389 36.3917C55.366 36.2246 55.4871 36.0559 55.6029 35.8809C55.6189 35.8568 55.6349 35.8327 55.6514 35.8078C55.6853 35.7568 55.7191 35.7057 55.7529 35.6546C55.8474 35.5118 55.9422 35.3692 56.0371 35.2267C56.0571 35.1965 56.0771 35.1664 56.0978 35.1354C56.3332 34.7818 56.5708 34.4297 56.8087 34.0778C56.8307 34.0452 56.8528 34.0125 56.8755 33.9789C56.9649 33.8466 57.0544 33.7142 57.1439 33.5819C57.3038 33.3454 57.4635 33.1088 57.6232 32.8722C57.6899 32.7734 57.7566 32.6745 57.8234 32.5756C57.8655 32.5132 57.9076 32.4508 57.9497 32.3883C57.9696 32.3588 57.9896 32.3293 58.0101 32.2988C58.0294 32.2702 58.0487 32.2416 58.0686 32.2121C58.1231 32.1314 58.178 32.0509 58.2328 31.9705C58.2939 31.8808 58.353 31.7906 58.4114 31.6992C58.435 31.663 58.4585 31.6268 58.4828 31.5896C58.5021 31.559 58.5213 31.5284 58.5412 31.4969C58.605 31.4338 58.605 31.4338 58.7061 31.4192Z" fill="#115056"/>
</svg>
