<svg width="91" height="90" viewBox="0 0 91 90" fill="none" xmlns="http://www.w3.org/2000/svg">
<g clip-path="url(#clip0_174_937)">
<path d="M65.0109 0.484985C69.219 1.7903 71.343 4.11196 71.2998 8.65895C71.2998 21.815 71.2998 34.9678 71.2998 48.1238C71.2998 49.9207 70.9182 50.2994 69.0962 50.306C58.4432 50.3525 50.1862 59.2705 50.9329 69.9222C52.7615 93.3082 88.5173 91.0529 87.2396 67.5607C86.8148 54.4544 75.1893 53.3517 76.6562 50.1632C78.362 47.7186 83.277 52.8336 84.6941 54.1987C95.7487 66.4912 89.4797 85.7952 73.3076 89.2727C43.6583 94.3345 38.2422 49.4956 68.3329 47.2835C68.3329 34.3367 68.3329 21.3899 68.3329 8.44306C68.3329 5.22462 66.5508 3.45764 63.3084 3.45764C45.2314 3.45764 27.1544 3.45764 9.0774 3.45764C5.87153 3.45764 4.08275 5.25784 4.08275 8.48624C4.08275 32.8786 4.08275 57.271 4.08275 81.6633C4.08275 84.9482 5.85493 86.7318 9.12386 86.7318C22.6177 86.7318 36.1083 86.7318 49.6021 86.7318C51.8423 86.1771 52.9806 89.2561 50.4849 89.6879C36.762 89.7177 23.0359 89.6879 9.31303 89.6978C4.78299 89.7443 2.46322 87.6286 1.11914 83.427C1.11914 57.8721 1.11914 32.3173 1.11914 6.76243C1.60367 5.05191 2.22759 3.36464 3.7376 2.32504C4.84937 1.56112 6.16357 1.08948 7.38818 0.488307C26.5968 0.488307 45.8055 0.488307 65.0142 0.488307L65.0109 0.484985Z" fill="white"/>
<path d="M69.127 89.9934C41.4656 89.2361 40.4434 49.2265 68.0484 47.0278C68.0352 34.3566 68.0584 21.0743 68.0484 8.43973C68.0484 5.36411 66.409 3.73995 63.3093 3.73995C45.2323 3.73995 27.1553 3.73995 9.07834 3.73995C6.04173 3.73995 4.3691 5.4239 4.3691 8.48291C4.3691 32.8753 4.3691 57.2676 4.3691 81.66C4.3691 84.7888 6.01518 86.4428 9.12813 86.4428H49.6031C52.2249 85.8483 53.3499 89.5218 50.5124 89.9668C49.696 90 10.2001 89.9668 9.31397 89.9801C4.78726 89.9801 2.21194 88.0338 0.970744 83.6728C0.920963 83.6296 0.87782 83.5765 0.837995 83.5333C1.95308 81.2947 -2.01609 0.85365 3.57593 2.08921C3.03166 -1.62412 63.3326 0.890185 65.1114 0.202655C65.1545 0.239191 65.2176 0.289012 65.2541 0.328868C69.5684 1.52125 71.5795 4.16841 71.5795 8.65894V48.1238C71.5795 50.0735 71.0685 50.5817 69.0938 50.5883C52.7459 50.213 44.708 72.0313 57.6078 82.2545C68.991 92.3549 88.2793 82.6631 86.9518 67.574C86.5801 54.491 74.5797 53.5311 76.4083 50.0204C78.353 47.2204 83.3576 52.5513 84.9042 54.006C97.5451 67.0591 87.2405 90.4152 69.127 89.9934ZM36.1922 3.16867C45.229 3.16867 54.2692 3.16867 63.306 3.16867C66.7276 3.16867 68.6126 5.03862 68.6126 8.43641C68.6159 21.2105 68.6126 34.712 68.6126 47.5293C48.7037 47.7186 40.6193 74.9441 57.402 85.7952C68.4998 93.7399 85.1497 87.798 88.943 74.9242C92.1588 65.4516 87.6421 54.3813 78.5654 49.8875C77.8818 49.5421 77.2413 49.6982 76.8961 50.296C76.4149 51.0467 76.9857 51.8538 77.7888 52.1892C83.8023 55.5704 87.141 60.8249 87.516 67.5374C88.8833 83.1015 68.9876 93.1122 57.2427 82.6863C43.9414 72.1309 52.2215 49.6351 69.0905 50.017C70.7598 50.0104 71.0121 49.7613 71.0121 48.1172V8.65894C71.0486 4.26805 69.0208 1.97296 64.8924 0.770615C63.5416 1.26218 2.94869 -0.740623 3.89784 2.55421C-1.1134 0.843686 2.36128 81.753 1.40218 83.3041C2.65001 87.4193 4.9366 89.452 9.31397 89.4122C9.54628 89.4055 49.6595 89.4122 49.8586 89.4122C51.6208 89.8107 52.4173 87.2665 50.4527 87.0174C49.5433 87.0108 10.064 87.0041 9.12481 87.0075C5.69326 87.0075 3.8016 85.1076 3.8016 81.6567C3.8016 57.2643 3.8016 32.872 3.8016 8.47959C3.8016 5.10504 5.72645 3.16867 9.07834 3.16867C18.1152 3.16867 27.1553 3.16867 36.1922 3.16867Z" fill="white"/>
<path d="M36.2525 8.84822C43.2715 8.84822 50.2906 8.84822 57.3097 8.84822C63.7612 8.71869 62.0189 16.1752 62.2114 20.4864C62.2512 22.6188 59.1681 22.6154 59.2544 20.4333C58.8097 18.3175 60.625 11.3825 57.3661 11.8176C43.2682 11.8176 29.1703 11.8176 15.0725 11.8176C13.7019 11.8176 13.1808 12.339 13.1742 13.7207C13.1642 16.9126 13.1642 20.1078 13.1742 23.2996C13.1775 24.7046 13.7085 25.2128 15.1554 25.2128C28.6161 25.2128 42.0735 25.2128 55.5341 25.2128C58.4546 24.9836 58.4247 28.398 55.5441 28.1821C42.1133 28.1821 28.6825 28.1821 15.255 28.1821C11.996 28.1821 10.2073 26.3885 10.2039 23.117C10.8113 18.3142 7.71491 8.9844 15.1057 8.85154C22.1546 8.85154 29.2035 8.85154 36.2525 8.85154V8.84822Z" fill="white"/>
<path d="M34.313 28.4678C27.961 28.4678 21.609 28.4678 15.2536 28.4678C11.8155 28.4678 9.92049 26.568 9.92049 23.1204C10.4747 18.1482 7.48124 8.68557 15.1043 8.56932C23.9487 8.56267 33.3937 8.56932 42.2679 8.56932C47.2825 8.56932 52.2971 8.56932 57.3083 8.56932C61.2011 8.44642 62.8671 11.5586 62.5021 15.1258C62.0872 17.2249 63.7798 22.021 60.7465 22.383C58.5495 22.4727 58.9909 19.5333 58.9677 18.042C58.9677 16.6071 58.9677 15.1689 58.9677 13.7341C58.9643 12.5019 58.5727 12.1066 57.3647 12.1066C43.2669 12.1066 29.169 12.1066 15.0744 12.1066C13.8565 12.1066 13.4649 12.4985 13.4615 13.7241C13.4516 16.9525 13.4516 20.1743 13.4615 23.3031C13.4649 24.5519 13.8598 24.9339 15.1574 24.9339C28.3061 24.9372 42.3343 24.9339 55.5361 24.9339C58.6524 24.5818 58.9046 28.7136 55.5461 28.4678C48.4938 28.4678 41.3619 28.4678 34.3163 28.4678H34.313ZM24.0184 9.13395C9.03439 8.83171 10.3851 8.50953 10.488 23.1171C10.488 26.2458 12.1374 27.8999 15.257 27.8999C28.6778 27.8999 42.1252 27.8999 55.5461 27.8999C57.5672 27.8932 57.7065 26.8736 57.159 25.9369C56.6479 25.0202 45.0125 25.6911 44.0003 25.4985C34.386 25.4985 24.7717 25.4985 15.1607 25.4985C13.5578 25.4985 12.904 24.8608 12.8974 23.3031C12.8874 20.1743 12.8874 16.9492 12.8974 13.7208C12.9007 12.1896 13.5545 11.5353 15.0778 11.5353C29.1756 11.5353 43.2702 11.5353 57.368 11.5353C60.773 11.4556 59.1966 15.8797 59.5385 18.0386C59.4389 18.3542 59.6082 20.1477 59.5385 20.4267C59.4489 22.2502 61.9877 22.2435 61.9279 20.4832C61.6857 16.3381 63.5508 9.01771 57.3083 9.13063C46.3532 9.12731 34.98 9.13063 24.0184 9.13063V9.13395Z" fill="white"/>
<path d="M36.1352 81.5072C28.9535 82.2379 28.6117 79.066 28.9834 72.8882C29.3318 67.5341 35.9062 69.3343 39.5435 69.1051C44.037 69.2745 43.2837 74.4592 43.2538 77.6478C43.2239 81.5272 39.1087 81.7497 36.1385 81.5072H36.1352ZM36.0954 72.0545C30.4934 71.6194 32.1892 72.8815 31.937 77.3654C31.8043 79.5974 37.5191 78.1659 39.1021 78.5412C41.2792 78.5479 39.9417 74.6685 40.2968 73.2237C40.2437 71.2009 37.3996 72.3368 36.092 72.0578L36.0954 72.0545Z" fill="white"/>
<path d="M34.0851 81.7995C28.2907 82.4139 28.4467 77.0731 28.7022 72.8815C29.0407 67.2883 35.6947 69.0087 39.551 68.8227C44.1939 68.9523 43.633 74.3628 43.5368 77.6544C43.3841 82.7029 37.6229 81.7696 34.0851 81.7995ZM36.1295 69.3409C29.0706 68.7065 28.9511 71.5695 29.2697 77.671C29.3925 81.8725 34.1283 81.2547 37.1118 81.2282C43.4704 81.9556 43.1784 77.8968 42.9759 72.9512C42.9494 69.125 38.9371 69.2246 36.1328 69.3442L36.1295 69.3409ZM36.8131 78.8268C32.0176 78.8334 31.324 79.6173 31.6592 74.23C31.3173 71.2175 33.0431 71.8087 35.2268 71.7688C36.7335 71.9482 38.9371 71.347 40.2181 72.1275C41.0245 73.5657 40.394 75.6748 40.5798 77.3122C40.6694 79.4612 38.1871 78.6873 36.8131 78.8268ZM34.0586 78.2588C35.2832 77.9599 40.3542 79.0925 40.0123 77.3089C39.7236 76.1331 40.8122 72.277 39.1428 72.3335C37.8751 72.3434 36.4978 72.3335 35.2268 72.3368C34.7821 72.4132 32.7344 72.1508 32.4225 72.5294C31.928 73.961 32.366 75.8276 32.22 77.3621C32.1371 78.488 33.2986 78.2356 34.0553 78.2555L34.0586 78.2588Z" fill="white"/>
<path d="M36.1515 51.2127C39.2346 50.9503 43.3299 51.2758 43.2602 55.2814C43.3233 58.5364 43.9173 63.5949 39.3574 63.6746C35.6471 63.5317 29.0661 65.1061 28.9765 59.576C28.6048 53.428 29.1723 50.5351 36.1515 51.2127ZM36.1051 60.7152C37.4458 60.4628 40.3796 61.5555 40.2966 59.4265C39.978 57.9917 41.2623 54.1853 39.1019 54.1886C37.5388 54.5274 31.575 53.1358 31.9467 55.4707C32.1359 59.938 30.6093 61.137 36.1084 60.7152H36.1051Z" fill="white"/>
<path d="M36.1491 64.0002C28.911 64.5582 28.3369 61.715 28.6953 55.2151C28.7086 50.5784 33.7066 50.7544 37.1049 50.9238C43.6627 50.223 43.8419 54.3913 43.5432 59.6358C43.583 63.8208 39.4081 64.2493 36.1491 64.0002ZM34.1579 51.4884C28.775 50.8773 29.0902 55.7631 29.2595 59.5761C29.3491 64.9003 35.9135 63.1864 39.3484 63.3923C43.7191 63.316 42.9923 58.377 42.9757 55.2848C43.0421 51.4453 39.0596 51.2792 36.1524 51.4984C35.4887 51.4984 34.8283 51.4884 34.1579 51.4918V51.4884ZM34.3305 61.0043C30.5505 61.6519 31.8614 58.0582 31.6589 55.4708C31.3801 52.6908 37.4335 54.2917 39.0995 53.9064C41.6748 54.0725 40.2278 57.5201 40.5763 59.4299C40.6493 62.18 36.0993 60.609 34.3272 61.0043H34.3305ZM36.1624 54.4611C35.0573 54.7401 32.1567 53.6706 32.2264 55.4741C32.5019 56.9056 31.42 60.506 33.1523 60.4263C35.0971 60.4463 37.0286 60.4363 38.97 60.4263C39.8296 60.413 40.0055 60.2437 40.0088 59.4233C39.74 54.8962 41.4823 54.1589 36.1591 54.4578L36.1624 54.4611Z" fill="white"/>
<path d="M17.3476 45.8188C10.2589 46.5329 9.80752 43.4041 10.2157 37.2628C10.5111 31.9287 16.9295 33.6425 20.5535 33.4034C25.1831 33.4166 24.5791 38.6279 24.4895 41.9095C24.4961 45.8719 20.3743 46.0446 17.3476 45.8188ZM17.341 42.8494C18.6353 42.5771 21.5491 43.6964 21.5259 41.6737C21.1973 40.2454 22.4817 36.4723 20.4274 36.3661C18.851 36.7513 12.9935 35.3265 13.176 37.5418C13.3917 42.0257 11.7788 43.2845 17.341 42.8494Z" fill="white"/>
<path d="M15.3937 46.1077C9.60585 46.7155 9.6324 41.5408 9.9344 37.2528C10.1435 31.7194 16.9136 33.3004 20.5576 33.1177C25.3697 33.1343 24.915 38.4352 24.7723 41.9127C24.696 46.9945 18.9513 46.0778 15.3937 46.1044V46.1077ZM17.3816 33.669C14.574 33.5096 10.545 33.5063 10.4986 37.2728C10.1368 43.2845 10.3857 46.2306 17.3484 45.5331C24.3741 46.2272 24.5301 43.3077 24.2082 37.2993C24.1882 33.4797 20.2622 33.5196 17.3849 33.669H17.3816ZM15.5563 43.135C14.3549 43.1583 12.7885 43.2911 12.8947 41.6337C13.0639 39.983 12.44 37.8739 13.273 36.4424C15.3771 35.5656 18.1615 36.3295 20.4315 36.0804C22.9105 36.3162 21.4437 39.9731 21.8087 41.6769C22.0112 44.1946 17.1858 42.7863 15.5563 43.135ZM14.325 36.645C12.7487 36.4358 13.6845 40.5377 13.4589 41.6271C13.4688 42.3678 13.6514 42.5505 14.3848 42.5604C16.3461 42.5704 18.3274 42.5671 20.2888 42.5604C22.0045 42.6268 20.9791 40.1491 21.2446 39.0829C21.1118 38.2692 21.7092 36.6118 20.4281 36.645C18.417 36.6483 16.3661 36.655 14.325 36.645Z" fill="white"/>
<path d="M17.3913 51.2128C20.4379 50.967 24.5166 51.2393 24.4933 55.1918C24.5697 58.4567 25.1869 63.5916 20.5972 63.6747C16.9167 63.5252 10.3921 65.1029 10.2096 59.6657C9.81469 53.5112 10.3822 50.5252 17.3913 51.2128ZM17.451 54.1854C16.1136 54.4478 13.213 53.3351 13.1765 55.4011C13.4852 56.8592 12.1942 60.7253 14.4011 60.7087C15.8979 60.3898 21.9147 61.7084 21.5231 59.4963C21.3007 55.1387 22.9468 53.7238 17.451 54.1821V54.1854Z" fill="white"/>
<path d="M17.3754 64.0002C14.1629 64.2493 9.91495 63.8407 9.92822 59.6691C9.49015 53.3285 10.2734 50.233 17.3953 50.9271C24.6135 50.2164 25.1876 53.468 24.7794 59.7255C24.7861 63.8906 20.6111 64.2227 17.3787 64.0002H17.3754ZM15.4406 51.4885C10.0145 50.8873 10.2999 55.6834 10.4924 59.6558C10.6617 64.8936 17.1895 63.1765 20.5912 63.389C24.9852 63.296 24.2418 58.3106 24.2119 55.1951C24.2285 51.4187 20.2627 51.2858 17.392 51.4951C16.7415 51.4951 16.0977 51.4885 15.4406 51.4885ZM17.3721 61.0043C11.7037 61.4693 12.9947 60.0012 12.8951 55.3944C13.0013 52.8237 16.6453 54.2452 18.3212 53.8965C23.203 53.2554 21.5503 56.1484 21.8059 59.4997C21.859 61.8413 18.8555 60.7651 17.3688 61.0043H17.3721ZM15.6098 54.4611C14.7735 54.5309 13.3498 54.129 13.4626 55.4044C13.4427 56.7363 13.4427 58.1113 13.4626 59.4864C13.0345 61.2667 19.0513 60.144 20.3158 60.4263C22.0415 60.6456 20.9795 56.6067 21.245 55.411C21.474 53.6274 16.8378 54.7733 15.6098 54.4644V54.4611Z" fill="white"/>
<path d="M17.399 69.0852C20.3361 68.8627 24.4247 68.9989 24.4811 72.865C25.3075 82.4074 22.3572 81.6567 14.2396 81.5039C9.53037 81.494 10.0846 76.2196 10.2207 72.8816C10.3136 68.9856 14.4288 68.8594 17.3957 69.0786C17.3957 69.0786 17.3957 69.0786 17.3957 69.0819L17.399 69.0852ZM17.3194 78.5413C18.6269 78.2623 21.4611 79.3915 21.5308 77.3788C21.1658 75.9273 22.5198 72.0845 20.3626 72.0479C18.7962 72.4365 13.0283 71.0249 13.1743 73.2038C13.4099 77.6511 11.7406 78.983 17.3161 78.5446L17.3194 78.5413Z" fill="white"/>
<path d="M17.5382 81.8062C10.1043 82.4572 9.49694 79.4945 9.94165 72.8749C10.0313 68.6866 14.4982 68.5637 17.6842 68.8029C24.909 68.029 25.1347 71.7755 24.7663 77.7541C24.6667 81.6866 20.7009 82.0553 17.5382 81.8062ZM15.3445 69.3576C9.91842 68.7564 10.3001 73.7783 10.5058 77.6644C10.6552 82.7229 17.7373 80.9526 20.5914 81.2216C25.0716 81.1053 24.2254 76.0535 24.2021 72.8749C23.9864 68.2316 18.5205 69.5336 15.3478 69.3542L15.3445 69.3576ZM14.3356 78.8335C11.8167 78.6342 13.2404 75.1766 12.892 73.2071C12.892 72.2671 13.4296 71.7589 14.3655 71.7689C16.506 72.0246 19.3535 71.2574 21.4542 72.1342C22.2574 73.5492 21.6036 76.0635 21.8127 77.3821C21.8757 79.3815 19.5327 78.7239 18.2351 78.8269C16.9607 78.8302 15.6034 78.8169 14.3323 78.8302L14.3356 78.8335ZM14.3489 72.3368C13.7217 72.3402 13.4661 72.5793 13.4595 73.2104C13.5955 75.0405 13.1475 76.6414 13.6752 78.0629C14.694 78.5313 16.1841 78.136 17.3191 78.2622C18.4807 78.1393 19.9973 78.5279 21.046 78.0629C21.5405 76.7045 21.0958 74.9973 21.2485 73.2037C21.2485 72.8849 21.1887 72.6657 21.056 72.5328C18.9254 72.0213 16.4164 72.5062 14.3489 72.3335V72.3368Z" fill="white"/>
<path d="M36.0992 45.8121C33.1787 46.0446 29.0635 45.8686 28.9872 42.0423C28.1409 32.3704 31.2771 33.2672 39.4079 33.4067C44.0309 33.5163 43.3008 38.7475 43.251 42.0024C43.1946 45.8984 39.0495 46.0379 36.0992 45.8121ZM36.1125 36.366C34.8016 36.6284 31.9442 35.5224 31.9442 37.5717C32.2727 39.0099 30.9784 42.7697 33.0891 42.8494C34.6356 42.4708 40.4434 43.8591 40.2974 41.7301C40.0219 37.1598 41.8173 35.9508 36.1125 36.366Z" fill="white"/>
<path d="M34.0451 46.1044C28.2473 46.7055 28.4531 41.3348 28.702 37.1565C29.1069 31.6729 35.502 33.3203 39.4114 33.121C44.2136 33.2173 43.6362 38.5681 43.5333 42.0058C43.3541 47.0742 37.5696 46.0379 34.0451 46.1044ZM36.0994 33.6657C33.3117 33.5163 29.379 33.4963 29.2695 37.1731C28.9509 43.1483 29.0272 46.2572 36.0961 45.5264C43.1715 46.2472 43.2777 43.248 42.9658 37.2163C42.9226 33.4797 38.8605 33.5129 36.0961 33.6624L36.0994 33.6657ZM33.0793 43.1317C31.2673 43.1981 31.6954 41.1688 31.6556 39.9432C31.8016 38.5615 30.9985 35.9973 33.1524 36.0837C35.1104 36.0737 37.1116 36.0771 39.0729 36.0837C41.7379 36.19 40.1947 39.9863 40.5829 41.7268C40.7024 44.2842 34.8482 42.7199 33.0827 43.1317H33.0793ZM34.3172 36.645C33.4942 36.7181 32.1037 36.3029 32.2264 37.575C32.3526 39.1062 31.9278 40.9496 32.4256 42.3678C34.5163 42.8859 36.9788 42.4043 39.1725 42.5671C39.4679 42.5671 39.6869 42.5007 39.8163 42.3711C40.2975 40.9296 39.886 39.1029 40.0088 37.5551C40.0951 36.0306 37.9545 36.841 36.9987 36.6483C36.1657 36.655 35.1436 36.6483 34.3172 36.6483V36.645Z" fill="white"/>
<path d="M55.0856 45.8121C52.1353 46.038 47.9869 45.9084 47.9371 42.0025C47.8906 38.7508 47.1539 33.5096 51.7768 33.4067C59.8911 33.2672 63.0638 32.3737 62.2009 42.0456C62.1047 45.8785 58.0127 46.0446 55.0856 45.8121ZM55.0259 42.8494C56.3367 42.5704 59.1676 43.6964 59.2506 41.6936C58.9087 40.2322 60.2362 36.4126 58.0625 36.3627C56.5126 36.7513 50.6983 35.3397 50.8941 37.5219C51.1728 41.9859 49.404 43.2812 55.0259 42.8461V42.8494Z" fill="white"/>
<path d="M57.1591 46.1044C53.6314 46.0346 47.8303 47.0875 47.6577 42.0058C47.5548 38.5681 46.974 33.214 51.7762 33.121C55.7288 33.3303 62.0775 31.6496 62.489 37.1565C62.7512 41.3315 62.9237 46.6923 57.1625 46.1044H57.1591ZM55.0883 45.5265C57.8428 45.7191 61.8319 45.6959 61.9215 42.0323C61.9447 38.9567 62.7843 33.8285 58.3871 33.689C55.1248 33.9779 48.5106 32.118 48.2219 37.2163C47.9132 43.2447 48.0128 46.2505 55.0849 45.5265H55.0883ZM58.1017 43.1317C57.0762 43.1184 56.0507 43.1284 55.0252 43.1284C53.7641 42.9623 51.9554 43.5336 50.9366 42.7298C50.4056 41.843 50.3558 37.1432 51.0096 36.4059C51.7231 35.8379 58.9313 35.8545 59.1968 36.4823C59.9568 38.0101 59.3528 40.0495 59.532 41.76C59.5055 42.6435 59.001 43.1317 58.0983 43.1284L58.1017 43.1317ZM56.8638 42.5571C57.6503 42.4907 59.0375 42.9125 58.9678 41.6869C58.8318 40.1358 59.2698 38.2891 58.7621 36.8476C56.7543 36.3195 54.5141 36.8177 52.0616 36.6417C51.7297 36.6417 51.5074 36.7081 51.3746 36.8443C50.8105 44.0019 50.3923 42.3977 56.8638 42.5571Z" fill="white"/>
<path d="M56.4403 69.786C56.6394 69.1251 57.114 68.5139 57.8408 68.4807C58.5742 68.5272 59.2977 67.6968 58.8862 67.006C57.187 65.5313 59.6097 62.5254 61.4217 63.4853C62.0622 64.0433 62.7492 64.2326 63.3465 63.5152C63.4461 63.0137 63.4793 62.1534 64.1828 62.2564C65.0822 62.4856 64.5014 63.6115 64.4616 64.2426C64.2127 64.9567 63.1806 64.9434 62.6031 65.322C61.2591 65.6808 60.9405 63.4355 59.6727 65.2988C59.0123 66.0826 60.8774 66.7469 60.3066 67.6404C59.8984 68.2349 59.9515 69.3509 59.1152 69.4937C58.6506 69.6598 57.6914 69.4572 57.6682 70.1248C57.7379 70.5765 57.416 71.4069 58.0399 71.5231C59.6063 71.5463 59.8287 72.2571 60.3132 73.5724C60.8575 74.4526 59.0654 75.1002 59.6495 75.8775C60.9537 77.7972 61.2557 75.4822 62.633 75.8941C63.9273 76.3757 64.6607 76.6015 64.674 78.1493C64.7736 78.8036 65.6165 78.4681 66.0778 78.5445C66.7283 78.5313 66.5458 77.588 66.7017 77.1396C66.8013 76.2694 67.9131 76.3524 68.5005 75.9306C69.4198 75.273 70.1001 77.1961 70.9032 76.5318C72.7882 75.2497 70.4519 74.9143 70.8999 73.5558C71.3081 72.9712 71.255 71.8652 72.0747 71.7124C72.682 71.6692 73.7341 71.1511 73.9465 72.018C74.0593 72.938 72.8779 72.5727 72.4862 73.0377C72.307 73.4794 71.9718 73.9012 72.4033 74.3164C73.4984 75.3959 72.6555 76.7643 71.6267 77.5149C70.641 78.518 69.6952 77.4518 68.7427 77.1861C67.1299 77.4917 68.2051 79.4247 66.4196 79.7635C64.0733 79.9229 63.8311 79.5509 63.1673 77.4817C61.269 76.4321 61.1529 79.6738 58.634 76.5583C58.0067 75.8741 58.2888 74.8312 58.8762 74.2201C59.5566 71.6991 55.8197 74.0407 56.4436 69.7827L56.4403 69.786Z" fill="white"/>
<path d="M66.4391 79.913C66.3329 79.8632 64.6768 79.9927 64.6304 79.8565C62.8582 79.458 63.9169 77.6511 62.4135 77.3157C61.5539 77.7308 60.4687 78.5911 59.5295 77.6644C56.0051 75.0936 60.7209 73.6356 57.8835 72.875C57.0836 72.8484 56.4896 72.1808 56.2971 71.4301C56.2208 70.2676 56.2639 68.4143 57.8304 68.3346C59.1147 68.2482 58.9952 67.1621 58.3547 66.4713C57.6445 65.2689 58.6733 64.2659 59.5494 63.5219C60.4621 62.665 61.5307 63.3957 62.3836 63.8906C63.7576 63.7876 62.8881 62.0439 64.2089 62.1136C65.2211 62.3428 64.6868 63.5418 64.6072 64.2393C64.4047 65.0597 63.3062 65.0431 62.6624 65.4483C61.3449 65.9299 60.9134 63.6248 59.7751 65.3952C59.3802 65.8137 60.1999 66.3318 60.3658 66.737C60.8902 67.4013 60.0174 68.3479 59.9112 68.959C59.6391 69.806 58.7961 69.61 58.0527 69.8193C57.8602 69.8558 57.8104 69.9189 57.8071 70.1215C57.4022 72.3535 59.3039 70.7858 59.8979 72.1974C60.4953 73.4462 60.8371 74.2434 59.7253 75.3627C59.6025 75.5454 59.6059 75.6218 59.7519 75.7712C60.6247 76.864 60.794 76.5484 61.7398 75.8376C62.45 75.3129 63.2996 76.1565 64.0032 76.3026C64.7963 76.5484 64.6337 77.4751 64.8162 78.1194C64.7299 78.5545 66.449 78.5247 66.3793 78.1493C66.4391 76.5484 67.053 76.3126 68.4369 75.8011C69.2036 75.3494 69.7545 76.1233 70.3618 76.472C70.7999 76.7842 71.1151 75.9937 71.4503 75.7812C71.7955 75.3527 71.0023 74.8545 70.8364 74.4526C70.3751 73.8714 71.3143 71.6128 72.051 71.573C72.7313 71.4866 73.8796 71.0216 74.0821 71.9948C74.1418 72.3734 73.8829 72.7554 73.5013 72.8417C72.9869 72.9148 72.5521 72.9381 72.426 73.5259C72.0377 74.2201 73.1727 74.622 73.0632 75.4922C72.9968 76.9669 71.0687 78.7439 69.6151 77.784C69.1903 77.4751 68.8651 77.1596 68.354 77.4983C67.448 77.9467 68.1482 79.6074 66.4358 79.9064L66.4391 79.913ZM64.8063 79.6307C69.0874 80.1056 66.313 76.9503 69.1007 77.0998C69.8142 77.6611 70.76 78.1593 71.53 77.4153C74.331 75.0604 71.5997 75.0305 72.1937 73.3732C72.2966 72.9281 72.6119 72.6391 73.0964 72.6358C73.4349 72.6159 73.8697 72.4565 73.8033 72.0446C73.5843 71.3073 72.6251 71.852 72.0942 71.8553C71.6129 71.8553 70.7268 73.878 71.0654 74.2899C71.3309 74.798 72.2136 75.4125 71.6528 75.9838C71.2379 76.3259 70.8032 77.1828 70.2025 76.7112C69.6748 76.4521 69.2168 75.6882 68.5664 76.0569C67.2522 76.5883 66.7344 76.6381 66.6614 78.1892C66.542 78.9365 65.6658 78.6276 65.1381 78.6874C64.6735 78.7107 64.5408 78.3453 64.4976 77.9467C64.5673 76.6481 63.6016 76.4455 62.5761 76.027C61.9157 75.748 61.5805 76.4288 60.9798 76.7278C60.3791 77.1662 59.9576 76.3093 59.5494 75.9771C58.9886 75.4158 59.888 74.7914 60.1468 74.2832C60.5119 73.6721 59.7187 72.8749 59.6357 72.3003C59.4233 71.6693 58.6401 71.8553 58.129 71.6859C57.2927 71.6427 57.5649 70.6961 57.5284 70.1248C57.6014 68.9889 59.3935 69.8658 59.649 68.876C61.2453 66.1059 58.7198 66.5842 59.576 65.2025C60.4455 64.04 60.9367 64.3223 61.9389 65.1494C62.5728 65.4882 63.3427 64.7276 63.9633 64.608C64.5806 64.319 64.3748 63.4654 64.5474 62.9274C64.6337 62.3461 63.7542 62.18 63.6348 62.7845C63.5219 63.13 63.6149 63.6348 63.2531 63.8374C61.2719 64.9401 61.0628 61.7317 58.7397 64.7375C58.1523 65.3952 58.4443 66.2986 58.9985 66.913C59.5528 67.7367 58.5406 68.7199 57.8536 68.6202C56.4996 68.6634 56.5195 70.4304 56.5858 71.4036C56.775 72.0247 57.2363 72.5727 57.91 72.5926C58.8061 72.576 59.4665 73.5592 58.9886 74.3098C58.4244 74.901 58.1788 75.8509 58.743 76.4654C61.1457 79.7104 61.7763 75.6384 63.4921 77.6744C63.6016 78.5479 63.8438 79.4048 64.8129 79.624L64.8063 79.6307Z" fill="white"/>
<path d="M69.3268 57.1115C69.8213 57.0484 70.2162 57.5599 70.6443 57.7027C71.9651 57.4204 70.9164 55.5969 72.9574 55.66C75.6721 55.2017 74.3977 58.357 76.1168 57.4934C76.9166 56.9089 77.5439 56.972 78.2441 57.6761C80.1524 59.3235 78.2441 59.6324 78.6457 60.8879C80.0727 61.7216 80.6635 61.2333 80.5307 63.4853C80.5208 64.3256 79.7674 64.847 78.9809 64.8769C77.5074 65.7704 80.5805 66.7103 77.9985 68.5803C77.4576 69.0718 76.6412 69.0021 76.1102 68.5305C74.3546 67.6503 75.7451 70.9451 72.6952 70.3539C71.9386 70.3373 71.401 69.7062 71.3578 68.9755C70.6908 67.1155 69.4628 70.4801 67.611 67.8097C67.1464 67.2849 67.2028 66.4978 67.6475 65.9763C68.6497 64.196 65.3178 65.6575 65.8488 62.5586C65.9019 61.0141 67.2028 61.5655 67.7703 60.7949C67.9395 60.4727 67.8068 60.2768 67.6375 60.041C66.6353 58.8585 68.0424 57.2012 69.3268 57.1115ZM77.1025 67.7068C79.0108 66.3948 76.1633 66.6572 77.67 64.2558C77.8392 63.4222 79.1501 64.01 79.3161 63.3391C79.5019 61.3596 77.8857 63.4554 77.2352 60.7219C76.7739 60.0177 78.0682 59.5195 77.7662 58.925C76.4885 57.3606 76.827 60.0111 74.4077 58.5198C73.4519 58.1046 74.3712 56.5336 72.8778 56.8823C72.1941 57.0251 72.7849 58.3537 71.9585 58.5231C69.6022 59.9911 69.8743 57.3971 68.6365 58.8951C68.2482 59.483 69.5923 59.9911 69.1542 60.6853C68.4871 63.462 66.8776 61.3429 67.0634 63.3491C67.2493 63.9967 68.527 63.4255 68.7028 64.2459C70.173 66.6007 67.5778 66.3284 69.0745 67.5706C70.3622 67.7234 69.662 66.2752 71.9452 67.4975C72.7948 67.6603 72.1709 69.0586 72.911 69.1416C73.8668 69.2678 73.8236 68.8925 73.9398 68.0788C74.0559 67.368 74.9686 67.3813 75.4796 67.0558C76.1202 66.7435 76.5615 67.4776 77.1025 67.7034V67.7068Z" fill="white"/>
<path d="M73.1651 70.5067C72.1828 70.6263 71.2536 70.0251 71.2137 68.9822C71.2038 68.773 71.1208 68.6667 70.8686 68.5438C69.6573 68.6667 69.2922 69.7827 67.9515 68.3777C66.1195 66.6871 67.9083 66.2786 67.6163 65.249C67.5267 65.0862 67.4868 65.0264 67.3441 65.0132C66.0399 65.0597 65.4923 63.6381 65.7047 62.5553C65.7146 61.6884 66.4083 61.0839 67.2545 61.0308C68.6185 60.5558 66.01 59.2306 67.7855 57.819C68.4957 56.8292 69.7469 56.7196 70.6263 57.5632C71.8642 57.2079 70.706 55.4243 73.1485 55.5173C74.1873 55.3744 75.1431 56.0288 75.1696 57.1182C75.1796 57.2776 75.246 57.3573 75.4385 57.4536C76.6996 57.4636 77.0381 56.1616 78.4651 57.6994C80.4298 59.3103 77.8677 60.3134 78.9895 61.0075C79.8092 61.0441 80.6588 61.612 80.6654 62.5121C80.8579 63.6946 80.38 65.0231 78.9828 65.0198C78.88 65.0231 78.8534 65.063 78.7738 65.2025C78.5049 66.2653 80.0515 66.8001 78.6676 68.122C78.0337 68.9656 76.8755 69.4505 76.0093 68.6335C75.8433 68.4707 75.6973 68.4574 75.4318 68.577C74.6951 69.59 75.0535 70.6562 73.1618 70.5101L73.1651 70.5067ZM70.6827 68.2083C71.2337 68.2216 71.5224 68.7032 71.5522 69.2645C71.8509 70.4802 73.8886 70.613 74.6187 69.693C74.9307 69.2347 74.7316 68.5837 75.319 68.3179C76.4905 67.8895 76.8423 69.7893 78.349 68.0456C79.8391 66.8565 78.047 66.1956 78.5215 65.0763C78.9994 64.3588 80.2904 64.9567 80.3866 63.4787C80.5493 62.4225 80.1875 61.2899 78.9662 61.2899C78.714 61.2666 78.6078 61.1105 78.5182 60.9544C77.964 59.7653 79.9519 59.3402 78.266 57.902C77.0082 56.3675 76.5104 58.0249 75.3157 57.7094C74.5225 57.2477 75.0435 55.7963 73.6065 55.8029C72.0036 55.68 71.6883 56.0753 71.3365 57.5334C70.5434 58.2906 70.0754 57.2676 69.3254 57.251C68.1506 57.3374 66.8098 58.8719 67.7457 59.958C68.2966 60.496 67.7722 61.4227 66.9824 61.3629C65.7511 61.622 65.6914 63.4089 66.3153 64.299C66.5974 64.6113 66.9857 64.691 67.3674 64.7341C68.2004 64.95 68.0477 65.8435 67.5798 66.3251C67.1251 67.0857 67.6826 67.8031 68.2568 68.2914C69.0665 69.2347 69.7834 68.5637 70.6761 68.215L70.6827 68.2083ZM73.5136 69.2845C71.8476 69.6066 72.8233 68.1585 71.8974 67.6304C71.3332 67.5208 70.7657 66.8864 70.2181 67.2418C69.8365 67.4311 69.3818 68.1021 68.9703 67.6636C67.5798 66.7336 69.3022 66.3716 69.0134 65.3619C68.7081 64.9201 68.728 64.0267 68.0975 63.9005C67.7225 63.7909 66.8696 63.8673 66.9193 63.3425C66.6173 61.6253 67.9946 62.6649 68.5621 61.7383C70.0389 59.3269 67.3109 59.772 68.9803 58.3471C69.3984 57.9186 69.8498 58.5995 70.2281 58.7855C70.7989 59.1177 71.2536 58.5364 71.9073 58.3903C72.2824 58.2773 72.3023 57.9153 72.3587 57.5898C72.435 57.2477 72.3886 56.6964 72.883 56.7395C73.3278 56.8159 73.799 56.5104 73.945 57.1215C74.0711 57.5533 73.945 58.201 74.4594 58.387C75.4152 58.8553 76.069 59.111 76.8489 58.294C77.277 57.9685 78.2029 58.9217 77.9109 59.3402C77.6885 59.7587 77.1111 60.1407 77.3633 60.6621C77.6288 61.0142 77.6587 62.0006 78.2527 62.1169C79.1886 62.2132 79.6034 62.3062 79.4541 63.3325C79.4674 63.927 78.6808 63.7643 78.2892 63.9005C77.652 64.0134 77.6653 64.9235 77.3666 65.3519C77.1277 66.5609 78.9662 66.7702 77.1078 67.8696C76.5701 67.6869 76.1553 66.923 75.5413 67.1853C75.153 67.461 74.1906 67.4843 74.0844 68.0987C73.9815 68.4774 74.0446 69.3277 73.5169 69.2845H73.5136ZM73.1983 68.9922C73.8256 69.1649 73.6829 68.4774 73.799 68.0622C73.872 67.3016 74.9307 67.2318 75.4185 66.9329C76.0823 66.5908 76.5569 67.2717 77.0945 67.5474C78.4983 66.7303 76.5668 66.3085 77.1078 65.239C77.8445 63.2727 77.6686 63.9968 79.172 63.3458C79.2616 62.366 79.0326 62.5586 78.2063 62.3992C77.4695 62.3228 77.3865 61.2334 77.1011 60.7817C76.7726 60.1506 77.3733 59.669 77.6753 59.1774C77.0182 57.5865 76.4606 59.6358 75.4285 59.1011C74.486 58.8154 73.5833 58.3405 73.6596 57.168C73.5767 56.8624 73.1552 57.1082 72.8665 57.0252C72.5611 57.0949 72.6939 57.7027 72.5744 57.9685C72.4284 58.7291 70.6496 59.4432 70.0588 59.0213C69.7801 58.9084 69.4615 58.4102 69.1827 58.5497C67.7689 59.7155 70.331 59.2904 68.8243 61.8479C68.4493 62.9273 66.8928 61.891 67.2014 63.3591C68.7513 63.947 68.5621 63.399 69.269 65.2523C69.7867 66.2354 67.9647 66.7303 69.1761 67.481C69.4449 67.6437 69.7801 67.1256 70.0522 67.0193C70.7226 66.6041 72.4085 67.2883 72.5777 68.0821C72.7005 68.5073 72.5512 69.1782 73.1983 68.9988V68.9922Z" fill="white"/>
<path d="M65.5986 74.7083C60.2554 74.6552 60.2588 66.5875 65.5621 66.5111C65.9072 66.5111 66.1926 66.7635 66.2092 67.0957C66.0399 68.1784 64.3209 67.5607 63.7202 68.4408C61.7223 70.0617 63.0232 73.5791 65.6251 73.4661C67.7192 73.4429 68.2469 71.8121 68.6717 70.1547C71.2005 69.2944 68.7945 75.1368 65.5986 74.705V74.7083Z" fill="white"/>
<path d="M65.6065 74.8478C60.0908 74.808 60.061 66.4513 65.5634 66.3683C65.9815 66.3683 66.33 66.6805 66.3532 67.0857C66.2703 68.3146 64.3819 67.6902 63.8144 68.5471C61.9161 70.0883 63.1507 73.4329 65.6264 73.3266C67.996 73.1439 67.9462 71.7556 68.5834 70.0484C71.5238 69.0188 68.9617 75.3128 65.6065 74.8478ZM65.5634 66.6506C62.2878 66.5742 60.3729 70.8489 62.6562 73.2369C64.9129 75.9306 69.6388 74.1437 69.5458 70.613C69.4927 69.8491 68.4507 70.1049 68.5934 70.8356C68.4673 73.9544 63.8177 74.6153 62.8022 71.7025C62.0223 69.7561 63.4958 67.5972 65.6099 67.5806C66.2338 67.564 66.1873 66.6307 65.5634 66.6506Z" fill="white"/>
<path d="M73.1886 65.9331C69.392 65.9962 69.402 60.021 73.1952 60.0875C76.9752 60.0476 76.9752 65.9863 73.1886 65.9331ZM73.182 64.7075C75.3889 64.7341 75.3856 61.2898 73.1753 61.3131C70.9982 61.2898 70.985 64.7407 73.182 64.7075Z" fill="white"/>
<path d="M73.1898 66.076C69.2073 66.1324 69.2306 59.8782 73.1997 59.948C77.1656 59.9048 77.159 66.1291 73.1931 66.076H73.1898ZM73.1898 65.7936C76.7906 65.8401 76.7939 60.1938 73.1964 60.2336C69.5956 60.1705 69.5757 65.8501 73.1898 65.7936ZM73.1865 64.8504C70.807 64.8836 70.8202 61.147 73.1798 61.1702C75.5627 61.137 75.5859 64.8769 73.1898 64.8504H73.1865ZM73.1865 64.568C75.2175 64.5946 75.1943 61.4293 73.1798 61.4559C71.1853 61.4393 71.1753 64.5946 73.1865 64.568Z" fill="white"/>
</g>
<defs>
<clipPath id="clip0_174_937">
<rect width="90" height="90" fill="white" transform="translate(0.5)"/>
</clipPath>
</defs>
</svg>
