<svg width="91" height="90" viewBox="0 0 91 90" fill="none" xmlns="http://www.w3.org/2000/svg">
<g clip-path="url(#clip0_174_1427)">
<path d="M30.47 5.5472C30.515 5.54751 30.56 5.54781 30.605 5.54811C30.774 5.54923 30.943 5.55045 31.112 5.55182C31.1622 5.55222 31.2124 5.55259 31.2626 5.55294C32.2016 5.55964 32.2016 5.55964 32.6253 5.60375C32.6507 5.60635 32.6761 5.60895 32.7023 5.61163C33.9306 5.74123 35.1172 6.09092 36.216 6.65644C36.2463 6.67196 36.2766 6.68737 36.3069 6.7027C36.5801 6.8408 36.8416 6.99287 37.0991 7.1584C37.1113 7.16627 37.1235 7.17413 37.1361 7.18223C37.5158 7.42756 37.8779 7.702 38.2191 7.99822C38.2338 8.0109 38.2484 8.02358 38.2636 8.03665C38.3023 8.07026 38.3407 8.10414 38.3791 8.13819C38.3953 8.15257 38.4115 8.16695 38.4283 8.18177C38.5165 8.2604 38.6022 8.34022 38.6848 8.42461C38.7215 8.46054 38.7599 8.49362 38.7991 8.52685C38.8673 8.58559 38.9253 8.6488 38.9834 8.71736C39.0203 8.75952 39.0591 8.79876 39.0991 8.83803C39.1767 8.91473 39.2483 8.99501 39.3191 9.07798C39.3346 9.09574 39.3501 9.1135 39.3662 9.13179C39.5346 9.32561 39.6871 9.53102 39.8391 9.73783C39.8487 9.75096 39.8584 9.7641 39.8684 9.77763C40.8251 11.0802 41.4145 12.5969 41.6441 14.1906C41.6471 14.2112 41.6501 14.2317 41.6532 14.2529C41.7191 14.7415 41.728 15.2359 41.7392 15.7281C41.7406 15.7899 41.7422 15.8516 41.7438 15.9133C41.7492 16.1259 41.7536 16.3385 41.7578 16.5511C41.7586 16.594 41.7595 16.6369 41.7603 16.6798C41.7821 17.7689 41.7823 18.858 41.783 19.9473C41.7832 20.2599 41.7836 20.5724 41.784 20.885C41.7842 21.0115 41.7844 21.138 41.7845 21.2645C41.7846 21.2855 41.7846 21.2855 41.7846 21.307C41.785 21.6378 41.7854 21.9686 41.7858 22.2994C41.7858 22.3138 41.7859 22.3282 41.7859 22.3431C41.7862 22.6804 41.7866 23.0177 41.7868 23.3549C41.7868 23.3695 41.7869 23.3841 41.7869 23.3992C41.7869 23.517 41.787 23.6348 41.7871 23.7526C41.7875 24.2389 41.788 24.7251 41.7888 25.2113C41.7889 25.2799 41.789 25.3486 41.7891 25.4172C41.7891 25.4374 41.7891 25.4374 41.7892 25.4581C41.7895 25.661 41.7896 25.864 41.7896 26.0669C41.7896 26.2971 41.7899 26.5272 41.7904 26.7573C41.7906 26.8745 41.7907 26.9917 41.7906 27.1089C41.7905 27.2163 41.7907 27.3237 41.7911 27.4311C41.7912 27.4698 41.7912 27.5084 41.791 27.5471C41.7895 28.0892 41.935 28.5649 42.2791 28.9936C43 29.8949 43.5114 30.9393 43.5053 32.1141C43.5053 32.1293 43.5052 32.1445 43.5052 32.1602C43.4992 33.4749 42.9251 34.7306 42.002 35.6542C40.8045 36.8257 39.1153 36.897 37.5404 36.8932C37.4451 36.893 37.3499 36.8929 37.2547 36.8928C37.0695 36.8926 36.8843 36.8922 36.6991 36.8918C36.6707 37.0099 36.6425 37.1279 36.6142 37.246C36.599 37.3094 36.5838 37.3728 36.5686 37.4362C36.5234 37.6247 36.4783 37.8132 36.4352 38.0023C36.0907 39.5072 35.494 40.9396 34.5791 42.1906C34.5693 42.204 34.5596 42.2173 34.5496 42.231C34.3992 42.4361 34.2417 42.635 34.0791 42.8305C34.0642 42.8483 34.0642 42.8483 34.0491 42.8665C33.8198 43.1411 33.5728 43.3982 33.3203 43.6515C33.3028 43.6691 33.2853 43.6868 33.2672 43.7049C33.1677 43.8042 33.0657 43.8987 32.9591 43.9902C32.9269 44.0193 32.8948 44.0484 32.8628 44.0777C32.7578 44.1723 32.6491 44.2616 32.5391 44.3501C32.5164 44.3686 32.4937 44.3872 32.4711 44.4057C32.2467 44.5883 32.0135 44.7579 31.775 44.9216C31.3941 45.183 31.3941 45.183 31.1191 45.5499C31.1117 45.5627 31.1043 45.5755 31.0966 45.5888C31.0525 45.6919 31.0552 45.8059 31.0531 45.9164C31.0527 45.9336 31.0524 45.9509 31.052 45.9686C31.0507 46.0285 31.0496 46.0883 31.0485 46.1482C31.0481 46.1698 31.0477 46.1914 31.0473 46.2137C31.0324 47.0242 31.0322 47.835 31.0287 48.6456C31.0277 48.8799 31.0266 49.1141 31.0255 49.3484C31.0233 49.8285 31.0211 50.3086 31.0191 50.7887C31.104 50.795 31.1889 50.8014 31.2738 50.8077C31.3094 50.8103 31.3094 50.8103 31.3457 50.813C31.5578 50.8288 31.77 50.8431 31.9822 50.8562C32.0216 50.8587 32.0609 50.8612 32.1002 50.8637C32.6856 50.9017 33.2714 50.9133 33.8578 50.9136C33.8916 50.9137 33.9254 50.9137 33.9591 50.9137C34.6938 50.9147 35.428 50.8981 36.1625 50.8808C39.1805 50.8096 39.1805 50.8096 40.4791 50.8887C40.4998 50.8899 40.5205 50.8912 40.5419 50.8925C41.8501 50.9737 43.1632 51.1437 44.4251 51.5086C44.4959 51.5311 44.4959 51.5311 44.5591 51.5285C44.5963 51.4848 44.6296 51.4415 44.6628 51.3948C44.6844 51.3653 44.706 51.3358 44.7276 51.3062C44.7391 51.2904 44.7507 51.2746 44.7625 51.2582C44.826 51.172 44.8914 51.0873 44.9566 51.0024C45.0587 50.8688 45.1596 50.7344 45.2591 50.5987C45.4229 50.3753 45.5914 50.1555 45.7599 49.9356C45.9128 49.7357 46.0646 49.5352 46.2133 49.3323C46.3134 49.196 46.4157 49.0615 46.5184 48.9272C46.6093 48.8084 46.6994 48.689 46.7891 48.5692C46.892 48.4315 46.9959 48.2946 47.1003 48.158C47.2021 48.0249 47.3026 47.8909 47.4016 47.7556C47.5033 47.6166 47.6079 47.4802 47.7142 47.3447C47.8089 47.2235 47.9003 47.1001 47.9912 46.976C48.0932 46.8369 48.1975 46.6996 48.3023 46.5626C48.4132 46.4176 48.5229 46.2718 48.6321 46.1257C48.6592 46.0895 48.6865 46.0534 48.7138 46.0174C48.7223 46.0062 48.7308 45.9949 48.7396 45.9833C48.7624 45.9532 48.7853 45.9231 48.8081 45.893C48.841 45.8559 48.841 45.8559 48.8391 45.8298C48.8083 45.8229 48.8083 45.8229 48.7769 45.8158C47.4672 45.5198 47.4672 45.5198 46.9591 45.13C46.9459 45.1205 46.9327 45.1109 46.9191 45.1011C46.5248 44.7961 46.357 44.2377 46.293 43.766C46.245 43.3819 46.2361 42.998 46.2366 42.6114C46.2366 42.5657 46.2366 42.52 46.2365 42.4743C46.2365 42.3491 46.2365 42.2239 46.2366 42.0986C46.2367 41.9764 46.2366 41.8541 46.2366 41.7318C46.2365 41.4788 46.2366 41.2259 46.2367 40.9729C46.2368 40.7167 46.2368 40.4605 46.2368 40.2043C46.2368 40.18 46.2368 40.18 46.2368 40.1552C46.2368 40.0726 46.2368 39.9899 46.2368 39.9073C46.2368 39.3097 46.2368 38.7122 46.2369 38.1147C46.2371 37.523 46.2371 36.9314 46.2372 36.3398C46.2372 36.3214 46.2372 36.303 46.2372 36.2841C46.2372 36.1162 46.2372 35.9483 46.2372 35.7803C46.2372 35.363 46.2372 34.9456 46.2372 34.5282C46.2372 34.5092 46.2372 34.4902 46.2372 34.4706C46.2373 33.5464 46.2374 32.6223 46.2375 31.6981C46.2376 31.3775 46.2376 31.0569 46.2377 30.7362C46.2377 30.7164 46.2377 30.6965 46.2377 30.676C46.2378 29.7512 46.2379 28.8265 46.238 27.9018C46.238 27.8417 46.238 27.7817 46.238 27.7216C46.238 27.3237 46.238 26.9257 46.238 26.5278C46.2381 25.736 46.2381 24.9442 46.2382 24.1524C46.2382 24.1147 46.2382 24.077 46.2382 24.0393C46.2383 22.3423 46.2385 20.6452 46.2387 18.9482C46.2387 18.9323 46.2387 18.9164 46.2387 18.9001C46.2388 18.1055 46.2389 17.3109 46.2391 16.5163C46.2254 16.515 46.2118 16.5137 46.1977 16.5124C46.1708 16.5097 46.1708 16.5097 46.1433 16.507C46.1255 16.5053 46.1077 16.5036 46.0894 16.5018C45.3964 16.4263 44.5614 16.1763 44.0971 15.6276C43.6928 15.0848 43.6406 14.3777 43.632 13.7244C43.6316 13.6924 43.6311 13.6604 43.6306 13.6284C43.6297 13.5615 43.6288 13.4945 43.6279 13.4275C43.627 13.3605 43.6261 13.2935 43.625 13.2265C43.6192 12.8649 43.6172 12.5039 43.6271 12.1424C43.6275 12.1275 43.6279 12.1126 43.6283 12.0972C43.647 11.4077 43.8099 10.7467 44.3177 10.2498C44.9188 9.68316 45.7053 9.62815 46.4885 9.63026C46.5769 9.63043 46.6653 9.63025 46.7537 9.63011C46.9089 9.62992 47.0641 9.62996 47.2193 9.63014C47.4516 9.6304 47.6839 9.63032 47.9162 9.63017C48.3123 9.62993 48.7083 9.62997 49.1043 9.63016C49.5055 9.63036 49.9067 9.63043 50.308 9.63034C50.3333 9.63033 50.3587 9.63033 50.3848 9.63032C50.4881 9.6303 50.5914 9.63027 50.6947 9.63024C50.9858 9.63017 51.2769 9.63012 51.5681 9.63008C51.5814 9.63008 51.5947 9.63008 51.6085 9.63007C52.2656 9.62999 52.9226 9.63013 53.5797 9.63029C53.811 9.63034 54.0423 9.6304 54.2735 9.63045C54.2879 9.63046 54.3023 9.63046 54.3171 9.63046C54.9836 9.63062 55.6502 9.63063 56.3167 9.63061C56.3749 9.6306 56.4331 9.6306 56.4912 9.6306C56.7397 9.63059 56.9882 9.63059 57.2367 9.63058C57.8906 9.63055 58.5445 9.63055 59.1984 9.63056C59.2132 9.63056 59.2281 9.63056 59.2435 9.63056C60.2074 9.63058 61.1713 9.63068 62.1352 9.63085C62.1506 9.63086 62.166 9.63086 62.1818 9.63086C62.6972 9.63095 63.2125 9.63105 63.7278 9.63115C64.199 9.63124 64.6703 9.63132 65.1415 9.6314C65.1571 9.63141 65.1726 9.63141 65.1887 9.63141C66.6681 9.63166 68.1475 9.63163 69.6269 9.63154C69.7052 9.63154 69.7835 9.63154 69.8618 9.63153C69.8851 9.63153 69.8851 9.63153 69.9088 9.63153C69.9401 9.63153 69.9714 9.63152 70.0027 9.63152C70.034 9.63152 70.0652 9.63152 70.0965 9.63152C70.4395 9.6315 70.7826 9.63148 71.1256 9.63146C71.1722 9.63146 71.2188 9.63146 71.2654 9.63146C72.2132 9.63141 73.161 9.63141 74.1088 9.63147C74.1311 9.63147 74.1311 9.63147 74.1539 9.63147C74.8368 9.63152 75.5197 9.63158 76.2026 9.63165C76.2758 9.63165 76.349 9.63166 76.4222 9.63167C76.4439 9.63167 76.4439 9.63167 76.466 9.63167C76.539 9.63168 76.612 9.63169 76.685 9.6317C76.7142 9.6317 76.7433 9.6317 76.7725 9.63171C76.7869 9.63171 76.8013 9.63171 76.8162 9.63171C76.9034 9.63172 76.9906 9.63173 77.0778 9.63174C77.7298 9.63181 78.3819 9.63185 79.0339 9.63182C79.0482 9.63182 79.0626 9.63182 79.0774 9.63182C79.2365 9.63181 79.3956 9.63181 79.5547 9.6318C79.6123 9.6318 79.6699 9.63179 79.7275 9.63179C79.7417 9.63179 79.7559 9.63179 79.7706 9.63179C80.4267 9.63176 81.0829 9.63176 81.7391 9.6319C81.7524 9.6319 81.7657 9.6319 81.7795 9.63191C82.0832 9.63197 82.3869 9.63205 82.6906 9.63214C82.7936 9.63217 82.8966 9.6322 82.9996 9.63223C83.0249 9.63224 83.0502 9.63225 83.0762 9.63225C83.4763 9.63237 83.8764 9.63234 84.2765 9.63226C84.67 9.63219 85.0635 9.63226 85.457 9.63248C85.6877 9.63261 85.9183 9.63262 86.1489 9.63248C86.3022 9.6324 86.4556 9.63246 86.6089 9.63263C86.6957 9.63273 86.7825 9.63277 86.8694 9.63262C87.7435 9.63129 88.7294 9.63452 89.4095 10.2672C90.0086 10.8783 90.0421 11.8329 90.0424 12.6373C90.0425 12.6752 90.0425 12.713 90.0426 12.7509C90.0427 12.8299 90.0428 12.9089 90.0428 12.9879C90.0428 13.0679 90.0429 13.148 90.0432 13.228C90.0496 15.1523 90.0497 15.1523 89.4496 15.7667C89.2633 15.9482 89.0558 16.0717 88.8191 16.1764C88.7991 16.1856 88.7792 16.1948 88.7586 16.2042C88.3589 16.3735 87.8522 16.4795 87.4191 16.4763C87.4191 16.5114 87.4191 16.5114 87.4191 16.5471C87.4194 17.3464 87.4197 18.1458 87.42 18.9452C87.42 18.9613 87.42 18.9774 87.42 18.994C87.4207 20.7199 87.4212 22.4458 87.4216 24.1717C87.4216 24.2101 87.4216 24.2484 87.4216 24.2868C87.4218 25.0917 87.422 25.8966 87.4221 26.7016C87.4222 27.1059 87.4223 27.5103 87.4223 27.9146C87.4224 27.9756 87.4224 28.0366 87.4224 28.0976C87.4226 29.0366 87.4228 29.9756 87.4232 30.9146C87.4232 30.9348 87.4232 30.955 87.4232 30.9758C87.4233 31.3012 87.4235 31.6266 87.4236 31.952C87.424 32.8895 87.4244 33.8269 87.4245 34.7644C87.4245 34.7837 87.4245 34.803 87.4245 34.8228C87.4246 35.2463 87.4247 35.6697 87.4247 36.0932C87.4247 36.2636 87.4247 36.434 87.4247 36.6043C87.4247 36.623 87.4248 36.6416 87.4248 36.6609C87.4248 37.2613 87.4251 37.8617 87.4254 38.462C87.4258 39.0671 87.426 39.6721 87.4259 40.2771C87.4259 40.3608 87.4258 40.4445 87.4258 40.5282C87.4258 40.5447 87.4258 40.5611 87.4258 40.578C87.4258 40.8373 87.426 41.0966 87.4263 41.3558C87.4265 41.6111 87.4266 41.8664 87.4264 42.1217C87.4263 42.2581 87.4263 42.3945 87.4266 42.531C87.4268 42.6553 87.4268 42.7796 87.4265 42.904C87.4265 42.9484 87.4265 42.9929 87.4267 43.0374C87.4292 43.72 87.3325 44.449 86.8791 44.99C86.8665 45.0064 86.854 45.0227 86.8411 45.0396C86.4613 45.4948 85.8025 45.6506 85.2391 45.7098C85.0402 45.7263 84.8428 45.7327 84.6432 45.7323C84.6146 45.7323 84.586 45.7323 84.5573 45.7324C84.4792 45.7324 84.4012 45.7324 84.3231 45.7323C84.2379 45.7322 84.1528 45.7323 84.0676 45.7323C83.9185 45.7323 83.7695 45.7323 83.6204 45.7322C83.3988 45.7321 83.1771 45.7321 82.9555 45.7321C82.5826 45.7321 82.2097 45.7321 81.8368 45.7319C81.4677 45.7318 81.0985 45.7318 80.7294 45.7317C80.7065 45.7317 80.6835 45.7317 80.6598 45.7317C80.5432 45.7317 80.4266 45.7317 80.3099 45.7317C79.4842 45.7317 78.6584 45.7315 77.8327 45.7313C77.0306 45.7312 76.2284 45.731 75.4263 45.7309C75.4016 45.7309 75.3769 45.7309 75.3514 45.7309C75.103 45.7309 74.8546 45.7309 74.6063 45.7308C74.1003 45.7308 73.5944 45.7307 73.0884 45.7307C73.0535 45.7307 73.0535 45.7307 73.0179 45.7307C71.465 45.7305 69.912 45.7302 68.3591 45.7298C68.3592 45.7472 68.3593 45.7645 68.3594 45.7823C68.3597 45.8473 68.36 45.9122 68.3602 45.9772C68.3603 46.0052 68.3604 46.0332 68.3606 46.0611C68.3616 46.2302 68.3555 46.3914 68.3283 46.5584C68.281 46.924 68.3305 47.234 68.5525 47.5347C68.7064 47.7228 68.9172 47.8471 69.1253 47.9668C70.0395 48.4934 70.7056 49.3287 70.9925 50.3472C71.1372 50.8935 71.1703 51.4479 71.0991 52.0084C71.0969 52.0256 71.0947 52.0428 71.0924 52.0605C70.9534 53.0724 70.3751 54.0667 69.5654 54.6897C69.4339 54.7884 69.2984 54.8805 69.1591 54.9678C69.1471 54.9753 69.1351 54.9829 69.1227 54.9907C68.545 55.3503 67.8551 55.5233 67.1791 55.5476C67.158 55.5485 67.1369 55.5493 67.1152 55.5501C66.4353 55.5632 65.7124 55.422 65.1155 55.088C65.0773 55.0668 65.0387 55.0465 64.9999 55.0262C64.0724 54.5332 63.4037 53.6505 63.0911 52.6584C63.0569 52.5444 63.0286 52.4295 63.0028 52.3134C62.9989 52.2959 62.995 52.2785 62.991 52.2605C62.9318 51.9774 62.9113 51.6946 62.9128 51.4061C62.9128 51.391 62.9129 51.3758 62.9129 51.3603C62.9166 50.4527 63.1966 49.5599 63.7991 48.8691C63.8075 48.8593 63.816 48.8495 63.8247 48.8394C63.9511 48.6938 64.0849 48.5657 64.2391 48.4492C64.26 48.4332 64.2809 48.4172 64.3025 48.4007C64.4445 48.2946 64.592 48.2071 64.748 48.123C64.882 48.0499 65.0006 47.9661 65.1191 47.8694C65.1408 47.8526 65.1408 47.8526 65.1629 47.8355C65.468 47.5883 65.6315 47.212 65.6791 46.8296C65.6828 46.7434 65.6828 46.6572 65.6828 46.5709C65.6828 46.5309 65.6832 46.4908 65.6835 46.4508C65.6842 46.2822 65.6741 46.1163 65.6588 45.9485C65.6569 45.9274 65.655 45.9063 65.6531 45.8845C65.6484 45.833 65.6438 45.7814 65.6391 45.7298C64.5271 45.7314 63.4152 45.733 62.3033 45.7347C62.2868 45.7347 62.2703 45.7348 62.2532 45.7348C61.8941 45.7353 61.5349 45.7359 61.1758 45.7365C60.9996 45.7367 60.8234 45.737 60.6472 45.7373C60.6297 45.7373 60.6122 45.7373 60.5941 45.7374C60.0282 45.7382 59.4623 45.7391 58.8965 45.7398C58.3138 45.7407 57.7312 45.7415 57.1486 45.7425C57.0659 45.7426 56.9831 45.7428 56.9004 45.7429C56.876 45.7429 56.876 45.7429 56.8511 45.743C56.5915 45.7434 56.3318 45.7437 56.0722 45.7441C55.8098 45.7444 55.5473 45.7448 55.2848 45.7453C55.1432 45.7455 55.0016 45.7458 54.86 45.7459C54.537 45.7462 54.2141 45.7472 53.8912 45.7493C53.8423 45.7497 53.7934 45.75 53.7446 45.7503C53.597 45.7511 53.4494 45.7524 53.3019 45.7543C53.2564 45.7548 53.211 45.7552 53.1656 45.7555C52.8557 45.7575 52.5728 45.7768 52.2928 45.9235C52.2795 45.9304 52.2662 45.9373 52.2524 45.9444C52.0365 46.0607 51.8949 46.2371 51.7495 46.4295C51.7059 46.4869 51.6615 46.5436 51.6171 46.6004C51.4805 46.7751 51.3457 46.9511 51.2112 47.1273C51.1572 47.1981 51.1031 47.2688 51.0491 47.3395C51.0273 47.3679 51.0056 47.3963 50.9838 47.4248C50.9413 47.4804 50.8987 47.536 50.8562 47.5916C50.711 47.7812 50.5662 47.9711 50.4215 48.1611C50.3664 48.2334 50.3112 48.3058 50.256 48.3781C50.1269 48.5472 49.9981 48.7166 49.8707 48.887C49.7724 49.0184 49.6728 49.1487 49.5733 49.2791C49.491 49.387 49.4092 49.4952 49.328 49.6039C49.2748 49.6749 49.2208 49.7453 49.1669 49.8158C49.0379 49.9845 48.9104 50.1542 48.7849 50.3255C48.6844 50.4623 48.5815 50.5972 48.4783 50.732C48.3906 50.8467 48.3044 50.9622 48.2191 51.0786C48.0552 51.3021 47.8867 51.5218 47.7182 51.7418C47.5654 51.9415 47.4137 52.1419 47.2651 52.3447C47.1753 52.467 47.0837 52.5878 46.9916 52.7083C46.9781 52.7261 46.9645 52.7438 46.9506 52.7621C46.8951 52.8352 46.8396 52.908 46.7819 52.9794C46.7669 52.9984 46.752 53.0174 46.7366 53.037C46.7241 53.0522 46.7117 53.0674 46.6989 53.0831C46.6735 53.1291 46.6735 53.1291 46.6905 53.1857C46.7216 53.2538 46.757 53.3168 46.7978 53.3794C46.8057 53.3915 46.8136 53.4037 46.8217 53.4163C46.8857 53.5128 46.9573 53.6003 47.0332 53.6877C47.3549 54.059 47.6217 54.4789 47.8591 54.9078C47.8716 54.9301 47.8716 54.9301 47.8843 54.9529C48.5722 56.1848 48.8233 57.6016 48.8216 58.9987C48.8217 59.0388 48.8217 59.0788 48.8217 59.1189C48.8218 59.2282 48.8218 59.3376 48.8218 59.4469C48.8217 59.5662 48.8218 59.6854 48.8219 59.8046C48.822 60.0134 48.822 60.2221 48.822 60.4309C48.822 60.6547 48.822 60.8786 48.822 61.1024C48.8221 61.1166 48.8221 61.1307 48.8221 61.1453C48.8221 61.2031 48.8221 61.2608 48.8221 61.3185C48.8223 61.9198 48.8224 62.5211 48.8224 63.1223C48.8224 63.187 48.8224 63.2516 48.8224 63.3163C48.8224 63.3323 48.8224 63.3484 48.8224 63.3649C48.8224 63.7209 48.8225 64.0769 48.8225 64.4328C48.8225 64.5796 48.8225 64.7263 48.8226 64.873C48.8226 64.8973 48.8226 64.8973 48.8226 64.9221C48.8227 65.8507 48.8228 66.7792 48.8228 67.7078C48.8228 67.7425 48.8228 67.7772 48.8228 67.812C48.8228 67.9687 48.8228 68.1255 48.8228 68.2823C48.8228 68.3522 48.8228 68.4221 48.8228 68.492C48.8228 68.527 48.8228 68.562 48.8228 68.597C48.8228 69.7035 48.8229 70.81 48.8232 71.9164C48.8232 72.1953 48.8233 72.4741 48.8234 72.7529C48.8234 72.7787 48.8234 72.7787 48.8234 72.805C48.8235 73.3344 48.8236 73.8637 48.8236 74.3931C48.8236 74.4098 48.8236 74.4264 48.8236 74.4435C48.8236 74.8085 48.8236 75.1736 48.8236 75.5386C48.8236 75.6692 48.8236 75.7998 48.8236 75.9304C48.8236 75.9629 48.8236 75.9954 48.8236 76.0279C48.8236 76.545 48.8237 77.0622 48.8239 77.5793C48.8241 78.1003 48.8241 78.6213 48.824 79.1422C48.824 79.2143 48.824 79.2864 48.8239 79.3585C48.8239 79.3797 48.8239 79.3797 48.8239 79.4013C48.8239 79.6245 48.824 79.8476 48.8241 80.0707C48.8243 80.2905 48.8242 80.5103 48.8241 80.73C48.824 80.8474 48.824 80.9648 48.8242 81.0823C48.8243 81.1893 48.8243 81.2964 48.8241 81.4034C48.8241 81.4417 48.8241 81.4799 48.8242 81.5182C48.8247 81.7214 48.8184 81.9227 48.8015 82.1253C48.8 82.1439 48.7984 82.1625 48.7969 82.1817C48.7666 82.5127 48.6756 82.8896 48.4191 83.1215C47.9155 83.5307 47.2092 83.4876 46.5966 83.4866C46.5411 83.4866 46.4855 83.4867 46.43 83.4868C46.3097 83.487 46.1894 83.487 46.0691 83.487C45.889 83.4868 45.7089 83.487 45.5287 83.4871C45.2216 83.4874 44.9145 83.4875 44.6074 83.4875C44.2964 83.4875 43.9853 83.4875 43.6743 83.4877C43.6448 83.4877 43.6448 83.4877 43.6147 83.4878C43.5143 83.4878 43.4139 83.4879 43.3135 83.4879C42.5877 83.4884 41.8619 83.4886 41.136 83.4888C40.4166 83.4889 39.6973 83.4891 38.9779 83.4895C38.9443 83.4895 38.9443 83.4895 38.9101 83.4895C38.6829 83.4896 38.4557 83.4898 38.2285 83.4899C37.7432 83.4901 37.2579 83.4903 36.7726 83.4906C36.7495 83.4906 36.7264 83.4906 36.7025 83.4906C35.6016 83.4911 34.5006 83.4915 33.3997 83.4919C33.3023 83.4919 33.2049 83.4919 33.1076 83.492C33.0344 83.492 32.9613 83.492 32.8882 83.492C32.6685 83.4921 32.4488 83.4922 32.2291 83.4923C32.1802 83.4923 32.1313 83.4923 32.0824 83.4923C30.9593 83.4927 29.8361 83.4931 28.7129 83.4936C28.6401 83.4936 28.5672 83.4936 28.4944 83.4936C27.3958 83.4941 26.2971 83.4945 25.1985 83.495C25.1518 83.495 25.1051 83.4951 25.0584 83.4951C24.6423 83.4953 24.2262 83.4955 23.8101 83.4957C23.5371 83.4958 23.2642 83.4959 22.9912 83.496C22.9577 83.4961 22.9577 83.4961 22.9234 83.4961C22.1828 83.4964 21.4422 83.4967 20.7016 83.4969C20.2262 83.497 19.7507 83.4971 19.2752 83.4973C19.2545 83.4974 19.2338 83.4974 19.2124 83.4974C19.0065 83.4975 18.8006 83.4976 18.5947 83.4976C18.4942 83.4977 18.3937 83.4977 18.2931 83.4978C18.2734 83.4978 18.2537 83.4978 18.2334 83.4978C17.9238 83.4979 17.6141 83.498 17.3045 83.498C16.9986 83.4981 16.6928 83.4982 16.3869 83.4984C16.2239 83.4985 16.0608 83.4986 15.8978 83.4985C15.3157 83.4985 14.7337 83.4991 14.1516 83.5069C14.1023 83.5075 14.0529 83.5081 14.0035 83.5085C13.6545 83.5119 13.3228 83.5366 12.9866 83.6364C12.9691 83.6415 12.9516 83.6466 12.9336 83.6519C12.6188 83.747 12.3365 83.9021 12.0526 84.0655C11.2738 84.5132 10.4577 84.8623 9.57906 85.0611C9.55081 85.0676 9.55081 85.0676 9.522 85.0742C9.04645 85.182 8.5473 85.2533 8.05906 85.261C8.03599 85.2615 8.01292 85.2619 7.98916 85.2623C6.2882 85.2878 4.63531 84.8326 3.31906 83.7214C3.29824 83.7043 3.2774 83.6872 3.25656 83.6701C2.98986 83.4493 2.73085 83.2054 2.51804 82.9316C2.47518 82.8766 2.42971 82.8243 2.38406 82.7716C2.0852 82.4127 1.83649 82 1.63656 81.5786C1.62003 81.5439 1.603 81.5095 1.58593 81.4751C1.52867 81.3572 1.47724 81.2387 1.43054 81.1162C1.42164 81.0929 1.41274 81.0697 1.40358 81.0457C1.38644 81.0005 1.36955 80.9552 1.35302 80.9098C1.30919 80.794 1.26752 80.6916 1.19665 80.5899C0.933396 80.1924 0.961892 79.7758 0.965533 79.3155C0.96618 79.1971 0.965308 79.0786 0.964637 78.9602C0.963671 78.7529 0.963655 78.5457 0.964298 78.3385C0.964983 78.1164 0.965098 77.8943 0.96453 77.6722C0.964494 77.6581 0.964457 77.644 0.96442 77.6295C0.964273 77.5721 0.964124 77.5148 0.963968 77.4574C0.962521 76.9244 0.962351 76.3913 0.963011 75.8582C0.963031 75.8425 0.96305 75.8267 0.96307 75.8105C0.96309 75.7947 0.963108 75.7789 0.963129 75.7626C0.963726 75.2809 0.963842 74.7991 0.963487 74.3173C0.963464 74.285 0.963442 74.2527 0.963419 74.2204C0.963327 74.0905 0.963233 73.9607 0.963136 73.8308C0.962866 73.4679 0.962686 73.105 0.962579 72.742C0.962574 72.7255 0.96257 72.709 0.962565 72.6919C0.962416 72.1657 0.96267 71.6394 0.963197 71.1131C0.963214 71.096 0.963231 71.0789 0.963248 71.0614C0.963526 70.7843 0.963822 70.5073 0.96412 70.2303C0.965299 69.1318 0.965098 68.0334 0.963654 66.9349C0.96329 66.6581 0.962931 66.3813 0.962591 66.1045C0.962571 66.0874 0.96255 66.0704 0.962528 66.0528C0.961886 65.5271 0.961592 65.0014 0.961671 64.4757C0.961674 64.4592 0.961676 64.4426 0.961678 64.4256C0.961736 64.063 0.961883 63.7005 0.962111 63.3379C0.962191 63.2081 0.962265 63.0784 0.96234 62.9487C0.962359 62.9164 0.962379 62.8841 0.962399 62.8518C0.962707 62.3385 0.962252 61.8251 0.961432 61.3118C0.96059 60.7801 0.960807 60.2485 0.962206 59.7168C0.962352 59.6596 0.962494 59.6024 0.962633 59.5452C0.962667 59.5312 0.962702 59.5171 0.962738 59.5027C0.963256 59.2813 0.962843 59.0599 0.962035 58.8385C0.961258 58.6203 0.96152 58.4021 0.962782 58.1838C0.963428 58.0673 0.963648 57.9508 0.962616 57.8343C0.958512 57.3356 0.974227 56.9562 1.24501 56.5283C1.30745 56.4167 1.34396 56.2965 1.38281 56.175C1.39123 56.1493 1.39969 56.1236 1.40817 56.098C1.41563 56.0754 1.42309 56.0528 1.43078 56.0295C1.61582 55.4741 1.88612 54.9416 2.19906 54.4479C2.21249 54.4266 2.22592 54.4053 2.23976 54.3833C2.42583 54.097 2.63383 53.8246 2.85906 53.5681C2.87172 53.5534 2.88438 53.5388 2.89742 53.5237C2.93104 53.485 2.96501 53.4465 2.99906 53.4081C3.01136 53.394 3.02365 53.3798 3.03632 53.3652C3.1339 53.2545 3.23613 53.149 3.34031 53.0445C3.35352 53.0312 3.36673 53.0179 3.38034 53.0042C3.46998 52.9148 3.56273 52.8303 3.65906 52.7483C3.67182 52.7374 3.68457 52.7265 3.69772 52.7153C4.13136 52.3479 4.597 52.0347 5.09906 51.7685C5.11205 51.7616 5.12505 51.7547 5.13843 51.7476C5.23093 51.699 5.32455 51.6531 5.41906 51.6085C5.43493 51.601 5.4508 51.5935 5.46714 51.5857C6.43028 51.1351 7.47048 50.9391 8.52917 50.9134C8.56015 50.9126 8.59113 50.9119 8.62211 50.9111C8.63812 50.9107 8.65413 50.9103 8.67063 50.9099C8.71749 50.9087 8.76435 50.9074 8.81121 50.9061C9.74345 50.8805 10.6761 50.8861 11.6086 50.8866C11.8571 50.8868 12.1056 50.8868 12.3541 50.8868C12.797 50.8869 13.2398 50.887 13.6827 50.8872C14.1121 50.8874 14.5416 50.8875 14.971 50.8876C14.9843 50.8876 14.9976 50.8876 15.0113 50.8876C15.1583 50.8876 15.3052 50.8876 15.4522 50.8877C16.5545 50.8879 17.6568 50.8882 18.7591 50.8887C18.7579 50.216 18.7564 49.5434 18.7545 48.8707C18.7543 48.7913 18.754 48.7119 18.7538 48.6325C18.7538 48.6167 18.7537 48.6009 18.7537 48.5846C18.753 48.3286 18.7525 48.0726 18.7521 47.8166C18.7516 47.5539 18.751 47.2913 18.7501 47.0286C18.7496 46.8665 18.7492 46.7044 18.7491 46.5424C18.749 46.4181 18.7485 46.2938 18.748 46.1695C18.7478 46.1185 18.7477 46.0675 18.7478 46.0165C18.7478 45.947 18.7475 45.8774 18.747 45.8079C18.7471 45.7876 18.7472 45.7674 18.7473 45.7466C18.7453 45.5478 18.6744 45.4152 18.5391 45.2699C18.4829 45.2228 18.4234 45.1831 18.3616 45.1437C18.3277 45.1213 18.2938 45.0989 18.26 45.0765C18.2431 45.0654 18.2261 45.0543 18.2087 45.0428C18.1337 44.9932 18.06 44.9419 17.9866 44.89C17.9728 44.8803 17.9591 44.8706 17.9449 44.8606C17.6366 44.6414 17.3413 44.405 17.0536 44.1596C17.0185 44.1297 16.9833 44.1001 16.948 44.0705C16.8151 43.9586 16.6892 43.8432 16.5677 43.7189C16.5274 43.6786 16.4866 43.6417 16.4428 43.6053C16.3239 43.5037 16.2211 43.3849 16.1155 43.2699C16.0804 43.2318 16.045 43.1941 16.0095 43.1564C15.88 43.0188 15.7568 42.8785 15.6391 42.7305C15.6207 42.7079 15.6023 42.6854 15.5838 42.6629C14.5529 41.3976 13.838 39.8898 13.4391 38.3115C13.4331 38.2882 13.4272 38.2648 13.4211 38.2408C13.3416 37.9253 13.2777 37.6081 13.2203 37.288C13.2156 37.2619 13.2156 37.2619 13.2109 37.2353C13.2021 37.1859 13.1934 37.1365 13.1848 37.0871C13.1821 37.0723 13.1795 37.0575 13.1768 37.0422C13.1669 36.9845 13.1591 36.9304 13.1591 36.8718C13.1479 36.8718 13.1368 36.8719 13.1254 36.8719C12.8525 36.8728 12.5796 36.8735 12.3067 36.8739C12.1747 36.8741 12.0428 36.8744 11.9108 36.8748C11.7831 36.8753 11.6553 36.8755 11.5276 36.8756C11.4792 36.8757 11.4309 36.8758 11.3825 36.876C10.9932 36.8777 10.6047 36.8644 10.2203 36.7968C10.191 36.7917 10.191 36.7917 10.1611 36.7866C9.39606 36.649 8.66238 36.3713 8.05906 35.872C8.04751 35.8625 8.03596 35.853 8.02407 35.8432C7.7927 35.6515 7.58534 35.4487 7.39906 35.2122C7.38346 35.1931 7.36786 35.1741 7.35179 35.1545C7.20054 34.9659 7.07884 34.7619 6.95906 34.5523C6.95083 34.5381 6.9426 34.5239 6.93413 34.5092C6.67251 34.0534 6.49187 33.5395 6.38281 33.0264C6.37891 33.0081 6.37501 32.9897 6.37099 32.9708C6.31381 32.6846 6.2913 32.4004 6.29281 32.1091C6.29285 32.0939 6.2929 32.0788 6.29294 32.0631C6.29409 31.8093 6.30788 31.5624 6.35906 31.313C6.36293 31.2942 6.36679 31.2753 6.37078 31.2559C6.55083 30.4118 6.97145 29.6249 7.55406 28.9886C7.93273 28.5729 7.99857 28.1193 8.01039 27.5758C8.01081 27.557 8.01124 27.5382 8.01168 27.5189C8.01921 27.1773 8.02035 26.8357 8.01961 26.494C8.01953 26.4567 8.01953 26.4567 8.01945 26.4187C8.01892 26.1877 8.01813 25.9568 8.01714 25.7258C8.0166 25.5976 8.01626 25.4694 8.01604 25.3412C8.01592 25.2933 8.01572 25.2453 8.01544 25.1973C8.01139 24.503 8.01139 24.503 8.10281 24.1784C8.10708 24.1628 8.11135 24.1473 8.11575 24.1312C8.21033 23.8049 8.40014 23.4991 8.69609 23.3204C8.9052 23.2104 9.10212 23.164 9.33781 23.1673C9.35893 23.1676 9.38005 23.1678 9.40182 23.168C9.72413 23.1746 9.99555 23.2758 10.2321 23.502C10.6698 23.9942 10.6655 24.6335 10.6631 25.2543C10.6629 25.3318 10.6628 25.4094 10.6628 25.4869C10.6627 25.6332 10.6623 25.7795 10.6619 25.9258C10.6614 26.1239 10.6612 26.322 10.661 26.52C10.6606 26.8313 10.6598 27.1426 10.6591 27.4539C11.4709 27.4539 12.2827 27.4539 13.1191 27.4539C13.119 27.2333 13.1188 27.0127 13.1187 26.7854C13.1184 26.0759 13.1182 25.3665 13.118 24.657C13.118 24.5465 13.118 24.4359 13.118 24.3253C13.118 24.3033 13.1179 24.2813 13.1179 24.2586C13.1179 23.9043 13.1177 23.55 13.1175 23.1956C13.1173 22.8309 13.1172 22.4661 13.1172 22.1014C13.1172 21.897 13.1171 21.6926 13.1169 21.4882C13.1159 20.0082 13.1159 20.0082 13.1277 19.4744C13.1281 19.4568 13.1284 19.4392 13.1288 19.4211C13.1346 19.1635 13.1479 18.9089 13.1991 18.6558C13.2031 18.6358 13.2072 18.6157 13.2113 18.5951C13.3481 17.9413 13.6087 17.2991 14.0591 16.7963C14.0677 16.7866 14.0763 16.7769 14.0852 16.7669C14.1488 16.6957 14.2137 16.6258 14.2791 16.5563C14.2929 16.5411 14.3068 16.526 14.3211 16.5103C14.8864 15.9135 15.7214 15.5664 16.5191 15.4366C16.5427 15.4325 16.5664 15.4285 16.5908 15.4244C17.0359 15.3572 17.4892 15.3494 17.9385 15.3503C17.9931 15.3504 18.0476 15.3502 18.1022 15.3499C18.5786 15.3467 19.0466 15.3771 19.5141 15.4728C19.5268 15.4754 19.5396 15.4779 19.5528 15.4806C20.3211 15.6345 21.0377 15.8988 21.734 16.2546C21.9953 16.3869 22.2638 16.5032 22.532 16.6205C22.6185 16.6584 22.7048 16.6967 22.7909 16.7357C23.8977 17.2346 25.0666 17.6246 26.2391 17.936C26.2659 17.9432 26.2659 17.9432 26.2932 17.9504C28.0399 18.4149 29.8333 18.6825 31.6391 18.7558C31.6531 18.7564 31.6671 18.757 31.6816 18.7576C32.053 18.7728 32.4244 18.7765 32.7961 18.7751C32.849 18.7749 32.9018 18.7747 32.9547 18.7746C33.1688 18.7739 33.1688 18.7739 33.3828 18.7725C34.2918 18.7645 35.2525 18.82 35.9467 19.483C36.5333 20.0753 36.6836 20.9701 36.6815 21.7712C36.6815 21.7956 36.6815 21.82 36.6815 21.8451C36.6815 21.912 36.6815 21.9789 36.6814 22.0458C36.6813 22.1182 36.6813 22.1906 36.6813 22.2631C36.6813 22.3883 36.6813 22.5136 36.6812 22.6388C36.681 22.8199 36.681 23.001 36.6809 23.182C36.6809 23.4759 36.6808 23.7697 36.6806 24.0636C36.6804 24.3489 36.6802 24.6341 36.6802 24.9194C36.6801 24.9459 36.6801 24.9459 36.6801 24.9728C36.6801 25.0612 36.6801 25.1495 36.6801 25.2379C36.6799 25.9699 36.6795 26.7019 36.6791 27.4339C37.4843 27.4339 38.2895 27.4339 39.1191 27.4339C39.1193 26.6383 39.1193 26.6383 39.1196 25.8427C39.1196 25.8293 39.1196 25.8159 39.1196 25.8021C39.1197 25.3492 39.1198 24.8964 39.1199 24.4435C39.1199 24.4287 39.1199 24.4139 39.1199 24.3986C39.12 24.0766 39.12 23.7547 39.1201 23.4327C39.1201 23.2747 39.1201 23.1168 39.1202 22.9588C39.1202 22.9431 39.1202 22.9274 39.1202 22.9112C39.1203 22.4039 39.1204 21.8966 39.1206 21.3893C39.1208 20.867 39.1209 20.3447 39.1209 19.8223C39.1209 19.7482 39.1209 19.674 39.121 19.5999C39.121 19.578 39.121 19.578 39.121 19.5556C39.121 19.3229 39.1211 19.0902 39.1212 18.8574C39.1213 18.6221 39.1214 18.3868 39.1213 18.1515C39.1213 18.0246 39.1213 17.8976 39.1214 17.7707C39.122 17.139 39.1153 16.5079 39.0991 15.8765C39.0987 15.8606 39.0983 15.8447 39.0978 15.8283C39.0567 14.2154 38.6919 12.6474 37.7048 11.3318C37.6761 11.2936 37.6479 11.255 37.6198 11.2165C37.5067 11.0627 37.3894 10.9173 37.2591 10.7776C37.2369 10.7523 37.2148 10.7269 37.1928 10.7014C36.9361 10.4083 36.6643 10.1405 36.3591 9.8978C36.3379 9.88016 36.3168 9.86248 36.2957 9.84476C35.971 9.57465 35.6115 9.34602 35.2423 9.14187C35.2144 9.12644 35.1866 9.11088 35.1588 9.09516C33.9043 8.38418 32.5163 8.22324 31.1009 8.20708C31.0834 8.20687 31.0658 8.20666 31.0477 8.20645C29.8868 8.19277 28.7256 8.19514 27.5646 8.19558C27.3258 8.19567 27.087 8.19566 26.8482 8.19557C25.6327 8.19512 24.4171 8.1949 23.2017 8.20361C23.1095 8.20427 23.0173 8.20481 22.9251 8.20524C21.4834 8.21223 20.1942 8.48261 19.1328 9.51913C19.0344 9.61988 18.946 9.7272 18.8591 9.83781C18.8435 9.85706 18.8279 9.87632 18.8118 9.89616C18.6019 10.1602 18.4338 10.4461 18.2766 10.7439C18.1763 10.9334 18.0731 11.1098 17.9391 11.2775C17.9271 11.2929 17.9151 11.3082 17.9027 11.324C17.6309 11.6544 17.2351 11.8216 16.8191 11.8774C16.6922 11.8876 16.5648 11.8862 16.4376 11.8862C16.4012 11.8864 16.3649 11.8867 16.3285 11.887C16.2334 11.8877 16.1382 11.8881 16.043 11.8884C15.8737 11.889 15.7044 11.8899 15.5351 11.8912C15.5169 11.8913 15.4987 11.8915 15.48 11.8916C15.1717 11.8943 14.8661 11.9073 14.5591 11.9373C14.5358 11.9396 14.5358 11.9396 14.5121 11.9419C14.4296 11.9503 14.3474 11.9605 14.2653 11.9723C14.2416 11.9757 14.218 11.979 14.1936 11.9825C13.4307 12.0964 12.7082 12.3681 12.1191 12.8771C12.103 12.891 12.0869 12.9049 12.0704 12.9192C12.0192 12.9644 11.969 13.0105 11.9191 13.0571C11.8931 13.081 11.8931 13.081 11.8667 13.1054C10.9317 14.0009 10.7128 15.2603 10.6844 16.4968C10.6803 16.6985 10.6784 16.9002 10.6765 17.102C10.6755 17.2174 10.6743 17.3327 10.673 17.4481C10.6722 17.531 10.6714 17.6139 10.671 17.6968C10.664 18.954 10.664 18.954 10.2528 19.3732C9.96213 19.648 9.62512 19.7061 9.23836 19.7012C8.89627 19.6903 8.61751 19.5606 8.37906 19.3157C8.11918 19.0316 8.03597 18.6451 8.03615 18.2695C8.03605 18.239 8.03605 18.239 8.03595 18.2079C8.03576 18.1408 8.03572 18.0736 8.0357 18.0064C8.03563 17.959 8.03557 17.9116 8.0355 17.8642C8.03538 17.7645 8.03534 17.6648 8.03535 17.5651C8.03535 17.4643 8.03522 17.3635 8.03494 17.2627C8.03233 16.2943 8.03233 16.2943 8.05711 15.8673C8.05831 15.8465 8.05831 15.8465 8.05953 15.8254C8.15829 14.1838 8.69263 12.6338 9.82507 11.4159C9.87516 11.3617 9.92404 11.3066 9.97281 11.2512C10.0364 11.1805 10.1021 11.1167 10.1748 11.0555C10.2185 11.018 10.2606 10.979 10.3025 10.9396C10.4344 10.8163 10.5733 10.7043 10.7191 10.5976C10.7322 10.588 10.7453 10.5784 10.7589 10.5685C10.9529 10.4272 11.1503 10.2962 11.3591 10.1777C11.3751 10.1686 11.3911 10.1594 11.4075 10.1499C11.6834 9.99255 11.9644 9.85636 12.2591 9.73783C12.2855 9.72717 12.2855 9.72717 12.3124 9.71629C13.0859 9.40893 13.9182 9.26766 14.748 9.25213C15.4457 9.23899 15.993 9.10799 16.4925 8.59059C16.5902 8.48634 16.6744 8.37301 16.7591 8.25816C17.035 7.90182 17.3355 7.551 17.6791 7.25838C17.7001 7.23987 17.7212 7.22133 17.7422 7.20277C18.4012 6.62446 19.1675 6.19389 19.9991 5.91868C20.0163 5.91294 20.0335 5.9072 20.0513 5.90128C20.7067 5.68592 21.393 5.58613 22.0813 5.56821C22.1042 5.5676 22.1042 5.5676 22.1276 5.56697C22.6897 5.55235 23.2521 5.55127 23.8143 5.54781C23.8632 5.54751 23.912 5.5472 23.9608 5.54689C25.7065 5.53568 27.4523 5.53233 30.47 5.5472ZM46.3191 12.3173C46.3191 12.7924 46.3191 13.2674 46.3191 13.7569C59.8689 13.7569 73.4187 13.7569 87.3791 13.7569C87.3791 13.2818 87.3791 12.8067 87.3791 12.3173C73.8293 12.3173 60.2795 12.3173 46.3191 12.3173ZM48.9191 16.4963C48.9191 25.2328 48.9191 33.9692 48.9191 42.9704C49.5966 43.1697 50.2118 43.2344 50.8591 42.9105C51.2899 42.6586 51.6187 42.2964 51.8908 41.8843C51.9011 41.8687 51.9114 41.8532 51.9221 41.8371C51.9437 41.8046 51.9653 41.772 51.9868 41.7394C52.0681 41.6166 52.1497 41.494 52.2313 41.3714C52.2515 41.3409 52.2718 41.3103 52.2921 41.2798C52.4241 41.0807 52.5586 40.8842 52.6991 40.691C52.7177 40.6653 52.7177 40.6653 52.7367 40.6391C52.7694 40.5942 52.8023 40.5494 52.8353 40.5047C52.853 40.4808 52.853 40.4808 52.871 40.4564C53.0822 40.171 53.3004 39.8909 53.5191 39.6112C53.5338 39.5923 53.5338 39.5923 53.5489 39.573C53.6615 39.4291 53.7751 39.286 53.8894 39.1434C53.9844 39.0249 54.0782 38.9056 54.1719 38.7861C54.2266 38.7162 54.2815 38.6464 54.3364 38.5767C54.3834 38.517 54.4302 38.4572 54.4769 38.3972C54.5305 38.3284 54.5847 38.2599 54.6391 38.1915C54.6511 38.1761 54.6631 38.1606 54.6755 38.1447C54.8983 37.8724 55.2326 37.6959 55.5791 37.6516C55.9125 37.6191 56.2422 37.7258 56.5053 37.9303C56.5368 37.9571 56.5681 37.9841 56.5991 38.0115C56.6116 38.0222 56.6241 38.0328 56.6369 38.0437C56.8554 38.2429 56.9678 38.5208 56.9966 38.8101C57.0196 39.3457 56.743 39.7419 56.4316 40.1482C56.3732 40.2251 56.3162 40.3031 56.2591 40.381C56.0678 40.6411 55.8734 40.8987 55.6775 41.1553C55.5879 41.2727 55.499 41.3906 55.4105 41.5089C55.3418 41.6008 55.2723 41.6921 55.2026 41.7832C54.9608 42.0995 54.7238 42.4168 54.5057 42.75C54.4802 42.7887 54.4545 42.8272 54.4286 42.8656C54.4139 42.8874 54.3992 42.9092 54.3841 42.9317C54.3714 42.9505 54.3587 42.9693 54.3456 42.9886C54.3173 43.025 54.3173 43.025 54.3191 43.0504C64.3643 43.0504 74.4095 43.0504 84.7591 43.0504C84.7591 34.2876 84.7591 25.5247 84.7591 16.4963C72.9319 16.4963 61.1047 16.4963 48.9191 16.4963ZM17.4204 17.9968C16.9286 18.0055 16.4933 18.0961 16.1241 18.4409C15.821 18.7563 15.7555 19.1852 15.7565 19.6046C15.7565 19.6248 15.7565 19.6449 15.7565 19.6657C15.7564 19.7332 15.7565 19.8006 15.7565 19.868C15.7565 19.917 15.7565 19.9659 15.7564 20.0149C15.7564 20.1213 15.7564 20.2278 15.7564 20.3342C15.7565 20.4927 15.7564 20.6512 15.7564 20.8097C15.7563 21.0939 15.7563 21.3781 15.7563 21.6623C15.7564 21.9134 15.7564 22.1645 15.7564 22.4156C15.7564 22.4323 15.7564 22.4491 15.7564 22.4663C15.7564 22.5344 15.7564 22.6025 15.7564 22.6706C15.7563 23.3117 15.7564 23.9529 15.7565 24.594C15.7566 25.1363 15.7566 25.6787 15.7565 26.221C15.7562 27.9072 15.7559 29.5934 15.7677 34.214C15.768 34.2768 15.7683 34.3396 15.7686 34.4024C15.7697 34.634 15.7708 34.8656 15.7722 35.0972C15.7726 35.1646 15.773 35.2319 15.7733 35.2993C15.775 35.6225 15.7786 35.9456 15.7878 36.2687C15.7885 36.2951 15.7892 36.3215 15.79 36.3486C15.8209 37.3391 16.0727 38.3184 16.4991 39.2113C16.5128 39.2402 16.5128 39.2402 16.5269 39.2698C16.8332 39.9085 17.224 40.5179 17.6892 41.0531C17.7352 41.1063 17.7791 41.1607 17.8228 41.2158C18.0834 41.5354 18.3822 41.8464 18.6991 42.1106C18.7173 42.1265 18.7356 42.1423 18.7544 42.1586C19.187 42.5323 19.6585 42.8546 20.1591 43.1304C20.1736 43.1386 20.1882 43.1468 20.2032 43.1552C21.8625 44.083 23.848 44.2955 27.7413 43.9126C28.2223 43.7758 28.6861 43.6015 29.1391 43.3904C29.1588 43.3812 29.1785 43.3721 29.1988 43.3627C29.9792 42.9971 30.7155 42.4937 31.3429 41.9032C31.387 41.8619 31.4317 41.8222 31.4778 41.7832C31.645 41.6385 31.8038 41.4775 31.9466 41.3088C31.9847 41.2642 32.0244 41.2214 32.0641 41.1783C32.2745 40.9444 32.4581 40.688 32.6391 40.431C32.648 40.4183 32.657 40.4056 32.6662 40.3925C32.8188 40.1741 32.9506 39.9444 33.0791 39.7112C33.0891 39.693 33.0992 39.6749 33.1096 39.6562C33.7858 38.4283 33.9821 37.1227 34.0166 35.7439C34.0185 35.6644 34.0206 35.5848 34.0227 35.5053C34.0521 34.3944 34.0622 33.284 34.0618 32.1727C34.0617 32.0431 34.0617 31.9134 34.0617 31.7837C34.0617 31.7648 34.0617 31.7459 34.0617 31.7264C34.0618 31.6879 34.0618 31.6494 34.0618 31.6109C34.0618 31.2529 34.0618 30.8949 34.0616 30.5368C34.0616 30.2377 34.0616 29.9386 34.0617 29.6394C34.0622 27.9798 34.0606 26.3202 34.0496 24.6605C34.0495 24.6443 34.0494 24.628 34.0493 24.6113C34.0423 23.5592 34.033 22.5072 34.0191 21.4552C33.9061 21.3979 33.8183 21.387 33.6927 21.3891C33.6744 21.3891 33.6562 21.3892 33.6375 21.3892C33.5979 21.3894 33.5584 21.3897 33.5189 21.3901C33.4553 21.3908 33.3917 21.3911 33.328 21.3913C33.1917 21.3919 33.0554 21.3929 32.9191 21.394C32.2511 21.399 31.5862 21.3926 30.9191 21.3552C30.898 21.3541 30.898 21.3541 30.8766 21.3529C30.7193 21.3439 30.5623 21.3329 30.4053 21.3203C30.3844 21.3186 30.3635 21.317 30.342 21.3153C28.329 21.1555 26.3354 20.7788 20.6337 18.6037C19.6126 18.1019 18.5473 17.9805 17.4204 17.9968ZM9.53906 30.7332C9.51887 30.7511 9.51887 30.7511 9.49828 30.7695C9.12902 31.11 8.96209 31.6288 8.93948 32.1191C8.92491 32.6982 9.13879 33.2185 9.53406 33.6363C10.094 34.1735 10.8074 34.256 11.5501 34.255C11.5868 34.2551 11.6234 34.2551 11.6601 34.2551C11.7364 34.2551 11.8126 34.2551 11.8889 34.255C11.9861 34.2549 12.0833 34.2549 12.1804 34.2551C12.256 34.2551 12.3315 34.2551 12.407 34.2551C12.4428 34.255 12.4786 34.2551 12.5145 34.2551C12.5646 34.2552 12.6148 34.2551 12.6649 34.255C12.6866 34.255 12.6866 34.255 12.7086 34.2551C12.8274 34.2546 12.9393 34.2433 13.0591 34.2324C13.0591 32.8731 13.0591 31.5138 13.0591 30.1133C11.1719 29.9735 11.1719 29.9735 9.53906 30.7332ZM36.7191 30.1333C36.7191 31.486 36.7191 32.8387 36.7191 34.2324C37.3614 34.2496 37.3614 34.2496 38.0037 34.2561C38.0677 34.2561 38.1317 34.2565 38.1956 34.2569C38.4176 34.2575 38.638 34.2511 38.8594 34.2344C38.8807 34.2328 38.902 34.2312 38.9239 34.2296C39.4352 34.1873 39.8961 33.9959 40.2591 33.6325C40.2808 33.6129 40.2808 33.6129 40.303 33.5928C40.6201 33.3014 40.8196 32.8043 40.8419 32.3792C40.8556 31.955 40.8128 31.5928 40.6191 31.2131C40.6084 31.1919 40.5977 31.1708 40.5866 31.149C40.3358 30.6896 39.9102 30.3661 39.4118 30.2176C38.9931 30.1027 38.5543 30.1099 38.1237 30.1107C38.0555 30.1108 37.9874 30.1107 37.9193 30.1106C37.5187 30.1108 37.12 30.1227 36.7191 30.1333ZM21.4391 46.6696C21.4391 48.0421 21.4391 49.4146 21.4391 50.8287C23.7227 50.8287 26.0063 50.8287 28.3591 50.8287C28.3591 49.4562 28.3591 48.0837 28.3591 46.6696C26.0755 46.6696 23.7919 46.6696 21.4391 46.6696ZM65.9153 50.4938C65.6617 50.7936 65.5238 51.1532 65.5416 51.5473C65.5826 51.9637 65.7676 52.3194 66.0879 52.5902C66.4362 52.8496 66.8435 52.9547 67.275 52.8983C67.6662 52.8214 68.0122 52.621 68.2369 52.2883C68.4541 51.9536 68.5355 51.5497 68.4575 51.1576C68.3699 50.7728 68.1424 50.431 67.8103 50.2126C67.1617 49.8255 66.4301 49.9482 65.9153 50.4938ZM8.75617 53.5246C8.73414 53.5253 8.71211 53.526 8.68941 53.5267C8.29806 53.5394 7.90324 53.5684 7.52156 53.6606C7.50025 53.6657 7.47894 53.6707 7.45698 53.676C6.76112 53.8487 6.0823 54.1594 5.53042 54.6217C5.4998 54.6472 5.46869 54.6721 5.43757 54.6971C5.13852 54.9388 4.86486 55.2164 4.63906 55.5277C4.62196 55.5506 4.60485 55.5736 4.58773 55.5965C4.46687 55.7603 4.35963 55.9306 4.25906 56.1075C4.25166 56.1204 4.24427 56.1332 4.23665 56.1465C3.77314 56.9581 3.63798 57.8535 3.63495 58.7738C3.63476 58.812 3.63456 58.8501 3.63435 58.8882C3.63381 58.9934 3.63339 59.0985 3.63299 59.2036C3.63263 59.2961 3.63221 59.3886 3.63179 59.481C3.63043 59.783 3.62932 60.0849 3.62826 60.3869C3.62791 60.486 3.62755 60.5851 3.62718 60.6843C3.62008 62.6032 3.61765 64.5221 3.61906 72.9438C3.61908 72.9655 3.6191 72.9871 3.61912 73.0095C3.62018 74.0737 3.62176 75.1379 3.62448 76.2022C3.6251 76.4472 3.62558 76.6923 3.62598 76.9373C3.62642 77.2091 3.62707 77.4808 3.62803 77.7525C3.6285 77.8878 3.62888 78.0231 3.62901 78.1584C3.62913 78.2806 3.62953 78.4029 3.63015 78.5251C3.63032 78.5686 3.6304 78.6121 3.63036 78.6556C3.63014 79.035 3.65482 79.4191 3.75281 79.7873C3.75789 79.8069 3.76298 79.8264 3.76821 79.8466C3.95589 80.5412 4.37283 81.2294 4.93906 81.6818C4.96694 81.7045 4.96694 81.7045 4.99539 81.7276C5.92585 82.4712 7.19086 82.7395 8.36158 82.6252C9.16395 82.5349 9.8887 82.2533 10.5791 81.8418C10.6217 81.8165 10.6644 81.7913 10.707 81.766C10.7753 81.7256 10.8435 81.6852 10.9117 81.6446C11.0896 81.5389 11.2685 81.4351 11.4479 81.332C11.5919 81.2492 11.7356 81.1658 11.8791 81.082C12.0441 80.9855 12.2096 80.8898 12.3753 80.7945C12.5532 80.6922 12.7302 80.5883 12.9066 80.4834C13.148 80.3397 13.3914 80.2001 13.6356 80.0612C13.9444 79.8854 14.2516 79.7069 14.5584 79.5277C14.7696 79.4044 14.9815 79.2823 15.1934 79.1602C15.302 79.0977 15.4105 79.0351 15.5191 78.9724C15.5624 78.9474 15.6057 78.9225 15.6491 78.8975C15.6705 78.8851 15.692 78.8727 15.7141 78.86C16.1257 78.6225 16.5374 78.3851 16.9491 78.1476C16.9705 78.1353 16.992 78.1229 17.014 78.1101C17.0574 78.0851 17.1008 78.0601 17.1441 78.0351C17.252 77.9729 17.3598 77.9107 17.4677 77.8484C17.7038 77.712 17.9403 77.5763 18.1772 77.4412C18.3383 77.3493 18.4989 77.2566 18.6591 77.1628C18.8302 77.0627 19.0019 76.9637 19.1741 76.8654C19.1857 76.8588 19.1974 76.8521 19.2094 76.8452C19.3045 76.791 19.3997 76.7367 19.4949 76.6825C19.578 76.6352 19.661 76.5879 19.7441 76.5405C19.7557 76.5338 19.7674 76.5272 19.7794 76.5203C19.9595 76.4175 20.1387 76.3135 20.3176 76.2088C20.4935 76.106 20.6702 76.0048 20.8473 75.9041C20.9649 75.8372 21.0822 75.7698 21.1989 75.7011C21.703 75.4051 22.213 75.142 22.8128 75.2853C23.1056 75.3647 23.346 75.5345 23.5003 75.7997C23.6786 76.1209 23.7555 76.4414 23.6791 76.8079C23.5997 77.0711 23.453 77.2734 23.2591 77.4628C23.2456 77.4766 23.2322 77.4905 23.2184 77.5047C22.9563 77.7584 22.5936 77.9262 22.2805 78.1071C22.2005 78.1534 22.1207 78.2 22.0409 78.2467C21.7894 78.3937 21.5371 78.5393 21.2847 78.6847C21.1761 78.7472 21.0676 78.8099 20.9591 78.8725C20.9157 78.8975 20.8724 78.9225 20.8291 78.9474C20.8076 78.9598 20.7862 78.9722 20.7641 78.9849C20.1791 79.3224 19.5941 79.6598 19.0091 79.9972C18.9876 80.0096 18.9661 80.022 18.944 80.0347C18.9008 80.0597 18.8575 80.0846 18.8142 80.1096C18.7051 80.1725 18.596 80.2355 18.4869 80.2986C18.2053 80.4614 17.9227 80.6226 17.6391 80.782C17.6391 80.7886 17.6391 80.7952 17.6391 80.802C24.4173 80.802 31.1955 80.802 38.1791 80.802C38.1857 78.3936 38.1923 75.9851 38.1991 73.5037C38.2662 73.1233 38.3577 72.7631 38.6867 72.5301C39.0264 72.3172 39.4339 72.2636 39.8275 72.3377C40.1414 72.4213 40.4045 72.6063 40.5693 72.8886C40.5791 72.9068 40.5889 72.925 40.5991 72.9438C40.6083 72.9603 40.6175 72.9769 40.6269 72.9939C40.6831 73.1049 40.7161 73.2182 40.7441 73.3387C40.7473 73.3525 40.7506 73.3663 40.754 73.3805C40.8058 73.6231 40.802 73.8777 40.8015 74.1246C40.8015 74.1536 40.8015 74.1827 40.8015 74.2117C40.8016 74.2906 40.8015 74.3695 40.8014 74.4484C40.8013 74.5338 40.8013 74.6192 40.8013 74.7046C40.8013 74.8523 40.8013 75 40.8012 75.1477C40.801 75.3612 40.801 75.5747 40.8009 75.7882C40.8009 76.1347 40.8008 76.4812 40.8006 76.8277C40.8004 77.1641 40.8002 77.5006 40.8002 77.837C40.8002 77.8578 40.8001 77.8785 40.8001 77.8999C40.8001 78.0041 40.8001 78.1083 40.8001 78.2125C40.7999 79.0757 40.7995 79.9389 40.7991 80.802C41.4703 80.8039 42.1416 80.8053 42.8129 80.8061C42.8921 80.8062 42.9713 80.8063 43.0505 80.8064C43.0663 80.8064 43.0821 80.8065 43.0983 80.8065C43.3538 80.8068 43.6093 80.8075 43.8648 80.8082C44.1269 80.809 44.389 80.8094 44.651 80.8096C44.8128 80.8097 44.9746 80.81 45.1364 80.8107C45.2603 80.8111 45.3843 80.8112 45.5082 80.8111C45.5591 80.8111 45.6101 80.8113 45.661 80.8116C45.7303 80.812 45.7996 80.8119 45.869 80.8117C45.8893 80.8119 45.9096 80.8121 45.9305 80.8124C45.9491 80.8122 45.9676 80.812 45.9868 80.8119C46.0028 80.8119 46.0188 80.8119 46.0353 80.812C46.0967 80.798 46.1192 80.7701 46.1591 80.7221C46.1713 80.6735 46.1713 80.6735 46.1699 80.6198C46.1703 80.599 46.1707 80.5783 46.1711 80.5569C46.1711 80.5341 46.1711 80.5113 46.1712 80.4879C46.1715 80.4637 46.1718 80.4395 46.1721 80.4146C46.1729 80.3474 46.1734 80.2802 46.1737 80.213C46.174 80.1551 46.1746 80.0972 46.1752 80.0394C46.1771 79.8499 46.1781 79.6604 46.1789 79.4709C46.1791 79.423 46.1793 79.3751 46.1795 79.3272C46.1816 78.867 46.1819 78.4068 46.1817 77.9465C46.1816 77.7482 46.1817 77.5499 46.1817 77.3516C46.1818 76.9625 46.1818 76.5734 46.1818 76.1842C46.1817 75.8418 46.1817 75.4994 46.1817 75.157C46.1817 75.1225 46.1817 75.1225 46.1817 75.0874C46.1817 74.994 46.1818 74.9007 46.1818 74.8073C46.1818 73.9335 46.1818 73.0596 46.1817 72.1857C46.1816 71.4201 46.1816 70.6544 46.1817 69.8888C46.1818 69.0206 46.1818 68.1525 46.1818 67.2843C46.1817 67.1902 46.1817 67.0962 46.1817 67.0021C46.1817 66.9674 46.1817 66.9674 46.1817 66.932C46.1817 66.6149 46.1817 66.2978 46.1818 65.9807C46.182 64.7692 46.1813 63.5577 46.1791 62.3461C46.179 62.323 46.179 62.2999 46.1789 62.2762C46.1778 61.664 46.1763 61.0518 46.1741 60.4397C46.174 60.3918 46.1738 60.344 46.1736 60.2961C46.1735 60.2726 46.1734 60.2491 46.1734 60.2248C46.1728 60.0614 46.1723 59.8979 46.172 59.7344C46.1715 59.5366 46.1709 59.3387 46.17 59.1409C46.1695 59.0401 46.1691 58.9394 46.169 58.8386C46.1698 58.088 46.1698 58.088 46.0441 57.3497C46.0389 57.3294 46.0338 57.3091 46.0285 57.2881C45.9463 56.971 45.8352 56.6752 45.6791 56.3875C45.672 56.3742 45.6649 56.3609 45.6576 56.3472C45.507 56.0641 45.3264 55.8122 45.1191 55.5676C45.1055 55.5514 45.092 55.5352 45.0781 55.5185C45.0304 55.4614 45.0304 55.4614 44.9791 55.4077C44.9659 55.4077 44.9527 55.4077 44.9391 55.4077C44.9032 55.4515 44.8697 55.4956 44.8366 55.5414C44.8148 55.5709 44.793 55.6005 44.7712 55.63C44.7596 55.6458 44.7479 55.6617 44.7359 55.678C44.6721 55.764 44.6067 55.8488 44.5416 55.9338C44.4381 56.0691 44.336 56.2052 44.2353 56.3425C44.1169 56.5039 43.996 56.6632 43.874 56.8219C43.7072 57.039 43.5409 57.2564 43.3791 57.4772C43.2152 57.7007 43.0467 57.9204 42.8782 58.1404C42.7253 58.3402 42.5735 58.5407 42.4248 58.7437C42.3376 58.8625 42.2486 58.9798 42.1591 59.0969C42.0217 59.2764 41.8869 59.4576 41.7533 59.64C41.5872 59.8666 41.4201 60.0924 41.2512 60.3169C41.1313 60.4766 41.0128 60.6373 40.8946 60.7982C40.8572 60.849 40.8197 60.8998 40.7821 60.9505C40.7695 60.9676 40.7568 60.9847 40.7438 61.0023C40.7197 61.0349 40.6955 61.0675 40.6714 61.1001C40.6404 61.142 40.6097 61.1842 40.5791 61.2264C40.564 61.2471 40.5489 61.2677 40.5334 61.289C40.4288 61.4637 40.418 61.6908 40.4591 61.8862C40.482 61.9632 40.5097 62.0384 40.5375 62.1138C40.7781 62.7697 40.9363 63.4662 40.9591 64.1657C40.9597 64.1857 40.9597 64.1857 40.9604 64.2061C40.985 65.0787 40.7897 65.9353 40.3791 66.7052C40.3722 66.7181 40.3654 66.7311 40.3584 66.7445C40.1706 67.0996 39.9328 67.4209 39.6623 67.7174C39.623 67.7606 39.5847 67.8044 39.5466 67.8487C39.4334 67.9782 39.3099 68.0935 39.1791 68.2048C39.1625 68.2192 39.146 68.2335 39.1289 68.2483C38.6961 68.6171 38.2152 68.9024 37.7246 69.1865C37.6556 69.2266 37.5868 69.2669 37.518 69.3073C37.506 69.3144 37.494 69.3214 37.4817 69.3286C37.4573 69.343 37.4329 69.3573 37.4084 69.3717C37.1904 69.4997 36.9716 69.6266 36.7523 69.7527C36.598 69.8416 36.4446 69.9321 36.2916 70.0232C36.0838 70.1468 35.8747 70.2676 35.6645 70.3871C35.5147 70.4724 35.3654 70.5585 35.2166 70.6455C34.9865 70.7801 34.7557 70.9134 34.5247 71.0464C34.4161 71.1089 34.3076 71.1715 34.1991 71.2342C34.1557 71.2592 34.1124 71.2841 34.0691 71.3091C34.0369 71.3277 34.0369 71.3277 34.0041 71.3466C33.7657 71.4841 33.5274 71.6216 33.2891 71.759C33.2676 71.7714 33.2462 71.7838 33.2241 71.7965C33.1807 71.8215 33.1373 71.8466 33.094 71.8716C32.9861 71.9338 32.8783 71.996 32.7705 72.0583C32.5352 72.1941 32.2997 72.3294 32.0637 72.4641C31.8083 72.6098 31.5536 72.7567 31.2991 72.9038C31.021 73.0645 30.7426 73.2247 30.4637 73.3839C30.2737 73.4922 30.0842 73.6013 29.8949 73.7107C29.7831 73.7753 29.6711 73.8397 29.5589 73.9036C29.5472 73.9103 29.5354 73.917 29.5234 73.9239C29.476 73.9509 29.4286 73.978 29.3812 74.0049C29.2563 74.076 29.1318 74.1475 29.0083 74.221C28.5411 74.4988 28.01 74.7743 27.4475 74.6384C27.0824 74.5254 26.833 74.3106 26.6536 73.9743C26.5172 73.6949 26.4707 73.3878 26.557 73.0852C26.6302 72.8812 26.7339 72.705 26.8791 72.5439C26.8892 72.5321 26.8993 72.5204 26.9098 72.5083C27.1506 72.2471 27.4872 72.0812 27.7915 71.9061C27.9012 71.8429 28.0102 71.7787 28.1191 71.7141C28.299 71.6075 28.4794 71.5018 28.6599 71.3961C28.8601 71.279 29.0597 71.1611 29.2588 71.0423C29.3744 70.9736 29.4905 70.9061 29.6077 70.8403C29.6321 70.8266 29.6564 70.8129 29.6808 70.7991C29.727 70.773 29.7734 70.7473 29.8199 70.7217C29.8405 70.7101 29.8611 70.6984 29.8823 70.6865C29.9006 70.6764 29.9188 70.6663 29.9376 70.6558C29.9805 70.6277 29.9805 70.6277 29.9987 70.5875C29.9992 70.5233 29.9732 70.486 29.9409 70.4309C29.9278 70.4084 29.9147 70.3858 29.9013 70.3626C29.8868 70.3382 29.8723 70.3138 29.8578 70.2894C29.843 70.2641 29.8283 70.2387 29.8135 70.2134C29.776 70.149 29.7382 70.0848 29.7004 70.0207C29.6687 69.9669 29.6373 69.913 29.6059 69.859C29.5604 69.7807 29.5147 69.7025 29.469 69.6244C29.3952 69.4981 29.3221 69.3714 29.2491 69.2446C29.1529 69.0777 29.0563 68.911 28.9591 68.7447C28.8491 68.5566 28.74 68.3679 28.6312 68.1791C28.5476 68.0341 28.4635 67.8894 28.3791 67.7449C28.2691 67.5568 28.16 67.3681 28.0512 67.1793C27.9564 67.0149 27.8609 66.8509 27.7651 66.687C27.6288 66.4537 27.4939 66.2195 27.3591 65.9853C27.2835 65.9853 27.2349 66.015 27.1701 66.0498C27.1573 66.0566 27.1444 66.0634 27.1312 66.0704C27.0892 66.0927 27.0472 66.1152 27.0053 66.1378C26.9909 66.1455 26.9765 66.1532 26.9617 66.1611C26.7355 66.282 26.5129 66.408 26.2921 66.5386C26.1787 66.6058 26.064 66.6706 25.9491 66.7352C25.7726 66.8344 25.5975 66.9355 25.4228 67.0377C25.2107 67.1618 24.9977 67.2845 24.7847 67.4072C24.6761 67.4697 24.5676 67.5324 24.4591 67.595C24.4157 67.62 24.3724 67.645 24.3291 67.67C24.2969 67.6885 24.2969 67.6885 24.2641 67.7074C23.5491 68.1199 23.5491 68.1199 23.484 68.1573C23.4407 68.1823 23.3974 68.2073 23.3541 68.2323C23.2453 68.2951 23.1365 68.3578 23.0277 68.4205C22.8178 68.5414 22.6082 68.6626 22.3991 68.7847C22.1681 68.9196 21.9365 69.0533 21.7047 69.1868C21.5961 69.2493 21.4876 69.312 21.3791 69.3746C21.3357 69.3996 21.2924 69.4246 21.2491 69.4496C21.2169 69.4681 21.2169 69.4681 21.1841 69.487C20.9891 69.5995 20.9891 69.5995 20.924 69.637C20.8807 69.662 20.8374 69.687 20.7941 69.712C20.6853 69.7747 20.5765 69.8375 20.4677 69.9002C20.2578 70.021 20.0482 70.1422 19.8391 70.2644C19.6081 70.3993 19.3765 70.533 19.1447 70.6665C19.0361 70.729 18.9276 70.7916 18.8191 70.8542C18.7757 70.8792 18.7324 70.9042 18.6891 70.9292C18.6569 70.9478 18.6569 70.9478 18.6241 70.9667C17.3891 71.6791 17.3891 71.6791 17.324 71.7166C17.2807 71.7415 17.2374 71.7665 17.1941 71.7915C17.0853 71.8543 16.9765 71.917 16.8677 71.9797C16.6586 72.1001 16.4498 72.2209 16.2416 72.3427C16.0561 72.4511 15.8699 72.5579 15.6832 72.6642C15.5213 72.7565 15.3599 72.8496 15.1991 72.9438C15.0145 73.0518 14.8291 73.1583 14.6432 73.2641C14.4813 73.3564 14.3199 73.4495 14.1591 73.5436C13.9745 73.6517 13.7891 73.7581 13.6032 73.864C13.4413 73.9563 13.2799 74.0494 13.1191 74.1435C12.9472 74.2441 12.7746 74.3436 12.6016 74.4422C12.4196 74.5459 12.2379 74.6499 12.0566 74.7546C12.0354 74.7668 12.0143 74.779 11.9925 74.7916C11.8822 74.8552 11.7721 74.919 11.6622 74.9832C10.7537 75.5124 10.7537 75.5124 10.2616 75.5095C10.2421 75.5093 10.2226 75.5092 10.2026 75.5091C10.0667 75.5068 9.94533 75.4968 9.81906 75.4432C9.79926 75.435 9.77946 75.4267 9.75906 75.4182C9.45268 75.2776 9.27015 75.0349 9.15156 74.7259C9.07465 74.5115 9.03851 74.2934 9.02775 74.0666C9.02693 74.0495 9.0261 74.0323 9.02526 74.0147C9.01505 73.7796 9.0161 73.5445 9.01615 73.3092C9.01609 73.2567 9.01603 73.2041 9.01595 73.1516C9.01579 73.0246 9.01573 72.8976 9.01572 72.7706C9.01571 72.6672 9.01567 72.5639 9.0156 72.4605C9.01543 72.1662 9.01534 71.872 9.01535 71.5777C9.01535 71.554 9.01535 71.554 9.01535 71.5299C9.01535 71.5141 9.01535 71.4982 9.01536 71.482C9.01536 71.2257 9.01517 70.9695 9.01489 70.7133C9.0146 70.449 9.01446 70.1847 9.01448 69.9205C9.01449 69.7726 9.01443 69.6247 9.01422 69.4768C9.01403 69.3509 9.014 69.2251 9.01413 69.0992C9.01419 69.0352 9.01418 68.9712 9.01402 68.9072C9.01267 68.3044 9.01289 67.6294 9.45906 67.1651C9.66167 66.9779 9.92278 66.8616 10.1991 66.8451C10.2248 66.8436 10.2248 66.8436 10.2511 66.8419C10.6065 66.8309 10.9323 66.9249 11.1991 67.1651C11.2606 67.2341 11.311 67.3061 11.3591 67.385C11.3699 67.4028 11.3808 67.4206 11.3919 67.439C11.4572 67.5574 11.4987 67.6789 11.5341 67.8087C11.538 67.823 11.542 67.8373 11.5461 67.8521C11.6175 68.1336 11.6251 68.4233 11.6254 68.712C11.6256 68.7473 11.6258 68.7826 11.626 68.8179C11.6266 68.9126 11.6269 69.0073 11.6272 69.102C11.6275 69.2014 11.628 69.3008 11.6285 69.4002C11.6294 69.588 11.6302 69.7757 11.6308 69.9634C11.6316 70.1773 11.6326 70.3913 11.6336 70.6052C11.6357 71.0448 11.6375 71.4844 11.6391 71.924C11.69 71.8986 11.7409 71.8731 11.7919 71.8477C11.8062 71.8405 11.8205 71.8334 11.8352 71.826C12.154 71.6667 12.4661 71.4993 12.773 71.3182C12.9076 71.2388 13.0433 71.1615 13.1791 71.0842C13.353 70.9852 13.5264 70.8854 13.6991 70.7843C13.8946 70.6698 14.091 70.5571 14.2878 70.445C14.4452 70.3552 14.6022 70.265 14.7591 70.1744C14.9505 70.0638 15.1424 69.9538 15.3345 69.8443C15.5244 69.7359 15.7139 69.6269 15.9032 69.5175C16.0741 69.4188 16.2456 69.3209 16.4171 69.2231C16.6002 69.1187 16.7826 69.0128 16.9645 68.9062C17.1176 68.8168 17.2717 68.7295 17.4262 68.6426C17.5646 68.5647 17.702 68.4851 17.8391 68.4048C18.0138 68.3024 18.1896 68.202 18.3662 68.1027C18.5046 68.0248 18.642 67.9452 18.7791 67.8649C18.935 67.7736 19.0915 67.6835 19.2491 67.595C19.4045 67.5076 19.559 67.4189 19.7128 67.3288C19.886 67.2274 20.0597 67.127 20.2341 67.0276C20.2457 67.0209 20.2574 67.0143 20.2694 67.0074C20.3645 66.9532 20.4597 66.8989 20.5549 66.8447C20.638 66.7974 20.721 66.75 20.8041 66.7027C20.8157 66.696 20.8274 66.6894 20.8394 66.6825C21.0195 66.5797 21.1987 66.4757 21.3776 66.371C21.53 66.2819 21.6832 66.194 21.8366 66.1066C22.0831 65.966 22.329 65.8245 22.5747 65.6826C22.6828 65.6201 22.7909 65.5578 22.8991 65.4954C22.9424 65.4704 22.9857 65.4454 23.0291 65.4205C24.8491 64.3707 24.8491 64.3707 24.9141 64.3332C24.9574 64.3082 25.0007 64.2832 25.044 64.2583C25.1528 64.1955 25.2616 64.1327 25.3705 64.07C25.6001 63.9378 25.8295 63.8049 26.0583 63.6712C26.2049 63.5856 26.3519 63.5006 26.4991 63.4159C26.7264 63.285 26.9532 63.153 27.1797 63.0207C27.2995 62.9507 27.4193 62.8809 27.5392 62.811C27.6387 62.753 27.7382 62.6949 27.8377 62.6368C28.0453 62.5155 28.2532 62.3948 28.4616 62.2749C28.6403 62.172 28.8183 62.0681 28.9956 61.9629C29.1269 61.8852 29.2585 61.808 29.3903 61.7313C29.568 61.6278 29.7455 61.5241 29.9228 61.4201C29.9349 61.413 29.9471 61.4059 29.9596 61.3985C30.0214 61.3623 30.0832 61.3261 30.1449 61.2898C30.2543 61.2257 30.3636 61.1617 30.4729 61.0976C30.509 61.0764 30.5451 61.0553 30.5812 61.0341C30.6913 60.9696 30.8013 60.9051 30.9114 60.8407C30.9735 60.8043 31.0357 60.7679 31.0978 60.7315C31.1099 60.7244 31.1221 60.7173 31.1346 60.71C31.2748 60.6278 31.4148 60.5455 31.5546 60.4626C31.7814 60.3282 32.0089 60.1951 32.2391 60.0666C32.2702 60.0492 32.2702 60.0492 32.302 60.0315C33.379 59.4336 34.555 58.9752 35.8028 58.9806C35.8208 58.9807 35.8387 58.9807 35.8572 58.9808C36.135 58.9818 36.4058 58.9924 36.6791 59.0469C36.6995 59.0508 36.7198 59.0548 36.7409 59.0589C37.2684 59.1645 37.7572 59.35 38.2348 59.5945C38.3019 59.6288 38.3689 59.6593 38.4391 59.6867C38.594 59.4846 38.7486 59.2823 38.8991 59.0769C39.0108 58.9243 39.1249 58.7738 39.2398 58.6237C39.3275 58.509 39.4138 58.3935 39.4991 58.277C39.6108 58.1245 39.7249 57.974 39.8398 57.8239C39.9275 57.7092 40.0138 57.5936 40.0991 57.4772C40.2107 57.3248 40.3247 57.1744 40.4396 57.0244C40.5298 56.9063 40.6187 56.7873 40.7066 56.6674C40.806 56.5319 40.9071 56.398 41.01 56.2651C41.1871 56.0357 41.362 55.8047 41.5333 55.571C41.6337 55.4341 41.7366 55.2992 41.8398 55.1645C41.9275 55.0498 42.0138 54.9342 42.0991 54.8178C42.1976 54.6833 42.2977 54.5503 42.3991 54.4179C42.5055 54.2787 42.6111 54.1389 42.7153 53.998C42.7269 53.9823 42.7385 53.9667 42.7505 53.9505C42.7613 53.9359 42.7721 53.9212 42.7832 53.9061C42.7926 53.8934 42.802 53.8807 42.8116 53.8676C42.843 53.8223 42.8709 53.7754 42.8991 53.7281C42.7247 53.697 42.5502 53.6739 42.3742 53.6542C42.3474 53.6512 42.3206 53.6482 42.2938 53.6451C42.2381 53.6388 42.1823 53.6326 42.1265 53.6263C42.0559 53.6184 41.9853 53.6104 41.9146 53.6024C41.8594 53.5961 41.8042 53.5899 41.749 53.5837C41.7105 53.5794 41.6721 53.575 41.6337 53.5707C41.3433 53.5384 41.0542 53.5234 40.7623 53.517C40.7439 53.5166 40.7254 53.5162 40.7064 53.5157C40.169 53.5039 39.6314 53.5051 39.0939 53.5055C38.9946 53.5056 38.8952 53.5056 38.7958 53.5055C37.139 53.3995 37.139 53.3995 35.689 54.0416C35.6374 54.0895 35.5839 54.1338 35.5291 54.178C35.4572 54.2361 35.3874 54.2956 35.3191 54.3579C35.2331 54.4363 35.1439 54.5097 35.0534 54.5829C34.9835 54.6407 34.9167 54.7018 34.8496 54.7629C34.7977 54.8091 34.7444 54.8529 34.6903 54.8965C34.5948 54.9738 34.5043 55.0553 34.4139 55.1385C34.3611 55.1859 34.3069 55.2308 34.2516 55.2752C34.1556 55.3525 34.0657 55.4347 33.9758 55.5188C33.892 55.5968 33.8046 55.6691 33.7153 55.7407C33.6511 55.7942 33.5901 55.8505 33.5291 55.9076C33.4511 55.9805 33.3724 56.0507 33.2891 56.1175C33.181 56.2043 33.0801 56.2976 32.9787 56.392C32.8869 56.4776 32.792 56.5595 32.6962 56.6408C32.5657 56.7518 32.4378 56.8646 32.3127 56.9816C32.2476 57.0421 32.181 57.0993 32.1116 57.1548C32.0059 57.2395 31.9083 57.3312 31.81 57.4242C31.722 57.5069 31.631 57.5837 31.5366 57.6591C31.4648 57.7191 31.397 57.7828 31.3291 57.8471C31.2277 57.943 31.1242 58.0334 31.015 58.1204C30.9484 58.176 30.8858 58.2349 30.8228 58.2945C30.6882 58.4213 30.547 58.5362 30.3991 58.647C30.3878 58.6554 30.3766 58.6639 30.365 58.6726C29.8133 59.0866 29.187 59.3822 28.4816 59.2975C27.8584 59.178 27.3562 58.7329 26.9991 58.2271C26.9843 58.2062 26.9696 58.1853 26.9544 58.1639C26.7053 57.8035 26.4884 57.4191 26.2678 57.0409C26.1641 56.8632 26.0587 56.6868 25.9516 56.5112C25.8285 56.3095 25.707 56.1071 25.5866 55.9038C25.5547 55.85 25.5228 55.7962 25.4909 55.7424C25.4793 55.7229 25.4793 55.7229 25.4675 55.7029C25.3561 55.515 25.2435 55.3279 25.1309 55.1407C25.084 55.0627 25.0371 54.9846 24.9903 54.9065C24.9762 54.883 24.962 54.8594 24.9479 54.8359C24.9384 54.82 24.9289 54.8041 24.9191 54.7878C24.8586 54.8442 24.8162 54.8999 24.7746 54.9712C24.7624 54.992 24.7501 55.0129 24.7375 55.0343C24.7179 55.0682 24.7179 55.0682 24.6978 55.1027C24.6839 55.1266 24.6699 55.1504 24.6559 55.1742C24.626 55.2251 24.5962 55.276 24.5664 55.327C24.4931 55.4522 24.4189 55.5768 24.3447 55.7015C24.3211 55.7413 24.2974 55.7812 24.2738 55.821C24.1992 55.9467 24.1243 56.0723 24.049 56.1976C23.9891 56.2972 23.9295 56.397 23.8703 56.497C23.8629 56.5095 23.8556 56.5219 23.848 56.5348C23.8328 56.5603 23.8177 56.5859 23.8025 56.6115C23.6572 56.8569 23.5106 57.1014 23.3621 57.3449C23.2935 57.4573 23.2253 57.57 23.1582 57.6833C23.027 57.9048 22.8961 58.1229 22.7391 58.327C22.7253 58.3452 22.7116 58.3634 22.6974 58.3821C22.3238 58.8581 21.8369 59.2183 21.2253 59.3006C20.5661 59.3627 19.9324 59.0845 19.4291 58.6745C19.3256 58.5886 19.2249 58.4999 19.1259 58.409C19.0762 58.3644 19.0249 58.3226 18.9728 58.2808C18.8765 58.203 18.786 58.1204 18.6957 58.0359C18.6292 57.974 18.5613 57.9152 18.4903 57.8584C18.3899 57.7779 18.2965 57.6913 18.2029 57.6031C18.1336 57.5383 18.0632 57.4765 17.9891 57.4172C17.889 57.3372 17.7961 57.251 17.7029 57.1632C17.6336 57.0984 17.5632 57.0366 17.4891 56.9773C17.4019 56.9076 17.3202 56.8338 17.2391 56.7574C17.1408 56.6649 17.04 56.578 16.9346 56.4936C16.8589 56.4307 16.7876 56.3635 16.7157 56.2963C16.6492 56.2343 16.5813 56.1756 16.5103 56.1188C16.4228 56.0486 16.3407 55.9744 16.2591 55.8976C16.1604 55.8047 16.0592 55.7172 15.9533 55.6325C15.8933 55.5829 15.836 55.5307 15.7791 55.4777C15.7049 55.4086 15.6294 55.3424 15.5503 55.279C15.4548 55.2021 15.3653 55.1204 15.2758 55.0366C15.1916 54.9582 15.1038 54.8854 15.014 54.8134C14.9538 54.7635 14.8963 54.7111 14.8391 54.6578C14.7469 54.5721 14.6515 54.4918 14.5534 54.4128C14.4969 54.3661 14.4429 54.3175 14.3891 54.2679C14.2998 54.1859 14.2082 54.1081 14.1137 54.0323C14.0778 54.0032 14.0424 53.9735 14.0076 53.9431C13.5701 53.5658 13.1197 53.5275 12.5649 53.5171C12.5436 53.5167 12.5222 53.5162 12.5002 53.5158C11.938 53.5051 11.3757 53.5043 10.8134 53.5044C10.714 53.5044 10.6145 53.5042 10.515 53.504C9.92851 53.5026 9.34245 53.5046 8.75617 53.5246ZM27.2391 53.5281C27.3033 53.6565 27.367 53.7788 27.4416 53.9005C27.4626 53.9352 27.4836 53.9699 27.5046 54.0046C27.5163 54.0239 27.5279 54.0431 27.5399 54.063C27.6182 54.193 27.6954 54.3236 27.7728 54.4541C27.8645 54.6088 27.9562 54.7633 28.0488 54.9174C28.1509 55.0872 28.252 55.2576 28.353 55.4281C28.3769 55.4684 28.4008 55.5086 28.4247 55.5489C28.4325 55.5621 28.4403 55.5752 28.4484 55.5888C28.5104 55.6933 28.573 55.7974 28.6356 55.9015C28.68 55.9755 28.7238 56.0497 28.767 56.1243C28.782 56.1499 28.782 56.1499 28.7973 56.1761C28.8174 56.2106 28.8374 56.2452 28.8573 56.2799C28.8671 56.2966 28.8769 56.3133 28.887 56.3305C28.8999 56.3528 28.8999 56.3528 28.9131 56.3755C28.9216 56.3861 28.9302 56.3966 28.9391 56.4075C29.0224 56.4075 29.0429 56.3729 29.1028 56.3162C29.1227 56.2976 29.1427 56.279 29.1627 56.2604C29.1813 56.2429 29.1999 56.2255 29.2191 56.2075C29.2926 56.1416 29.3675 56.0773 29.4427 56.0133C29.5795 55.8968 29.7139 55.7784 29.8459 55.6565C29.9363 55.5733 30.0291 55.4931 30.1227 55.4135C30.2595 55.297 30.3939 55.1786 30.5259 55.0567C30.6163 54.9735 30.7091 54.8933 30.8027 54.8137C30.9178 54.7156 31.032 54.6171 31.1428 54.5141C31.2153 54.4468 31.2893 54.3823 31.3666 54.3204C31.4812 54.2282 31.5877 54.1284 31.6949 54.0279C31.7905 53.9383 31.8895 53.853 31.9895 53.7684C32.0022 53.7577 32.0148 53.7469 32.0279 53.7359C32.0532 53.7144 32.0787 53.6929 32.1041 53.6715C32.1576 53.6262 32.1999 53.5868 32.2391 53.5281C30.5891 53.5281 28.9391 53.5281 27.2391 53.5281ZM17.6191 53.5881C17.769 53.738 17.9223 53.8841 18.0878 54.0167C18.1882 54.0973 18.2816 54.1838 18.3752 54.272C18.4445 54.3368 18.5149 54.3986 18.5891 54.4579C18.6891 54.5379 18.782 54.6241 18.8752 54.7119C18.9445 54.7767 19.0149 54.8385 19.0891 54.8978C19.1891 54.9778 19.282 55.064 19.3752 55.1518C19.4445 55.2166 19.5149 55.2784 19.5891 55.3377C19.6891 55.4177 19.782 55.5039 19.8752 55.5917C19.9445 55.6565 20.0149 55.7183 20.0891 55.7776C20.1762 55.8473 20.2579 55.9211 20.3391 55.9975C20.4398 56.0924 20.5426 56.182 20.6506 56.2686C20.7147 56.3201 20.7769 56.3736 20.8391 56.4275C20.9235 56.3313 20.9831 56.2217 21.0466 56.1113C21.0718 56.0677 21.097 56.0241 21.1223 55.9805C21.1351 55.9583 21.1479 55.9361 21.1611 55.9132C21.2189 55.8133 21.2771 55.7136 21.3353 55.6139C21.3467 55.5944 21.3581 55.5749 21.3698 55.5548C21.4699 55.3832 21.5704 55.2118 21.6709 55.0405C21.7672 54.8764 21.8633 54.7122 21.9591 54.5479C22.0667 54.3632 22.1747 54.1787 22.2828 53.9942C22.2902 53.9816 22.2976 53.969 22.3053 53.9559C22.3264 53.9199 22.3475 53.8838 22.3687 53.8478C22.3808 53.8271 22.393 53.8064 22.4055 53.785C22.4276 53.7474 22.4503 53.7101 22.4735 53.6731C22.5024 53.6309 22.5024 53.6309 22.4991 53.5881C20.8887 53.5881 19.2783 53.5881 17.6191 53.5881ZM33.9339 62.1406C33.8173 62.2077 33.6989 62.2714 33.5803 62.3349C33.399 62.4322 33.2209 62.534 33.0436 62.6385C32.8905 62.7284 32.7358 62.8152 32.5803 62.901C32.3933 63.0043 32.208 63.1098 32.0244 63.2191C31.9325 63.2735 31.8401 63.3272 31.7478 63.3809C31.7065 63.405 31.6653 63.429 31.624 63.4531C31.6033 63.4651 31.5826 63.4772 31.5613 63.4896C31.4805 63.5367 31.3996 63.5839 31.3188 63.631C31.2788 63.6543 31.2389 63.6776 31.199 63.7009C31.0995 63.7589 31 63.817 30.9005 63.8751C30.7141 63.9839 30.5276 64.0924 30.3406 64.2C30.0984 64.3392 29.8579 64.4808 29.6191 64.6256C29.8161 64.9883 30.0191 65.3475 30.2278 65.7036C30.3017 65.8297 30.3748 65.9562 30.4478 66.0828C30.4602 66.1044 30.4727 66.1259 30.4855 66.1482C30.536 66.2358 30.5865 66.3234 30.637 66.4111C30.7705 66.6427 30.9042 66.8742 31.0391 67.1051C31.174 67.336 31.3077 67.5676 31.4412 67.7993C31.5038 67.9078 31.5664 68.0163 31.6291 68.1249C31.705 68.2565 31.7809 68.3881 31.8569 68.5197C32.004 68.7748 32.1514 69.0298 32.2991 69.2846C32.3743 69.2564 32.4421 69.222 32.5116 69.182C32.5337 69.1693 32.5557 69.1567 32.5785 69.1436C32.6024 69.1298 32.6264 69.116 32.6503 69.1021C32.6754 69.0877 32.7004 69.0733 32.7255 69.0589C32.7776 69.029 32.8296 68.9991 32.8816 68.9692C33.0006 68.9007 33.1199 68.8327 33.2391 68.7647C33.2857 68.7381 33.3324 68.7114 33.3791 68.6847C33.4024 68.6714 33.4257 68.6581 33.4491 68.6447C33.4606 68.6381 33.4722 68.6315 33.4841 68.6247C33.5191 68.6047 33.5541 68.5848 33.5891 68.5648C33.6006 68.5582 33.6122 68.5516 33.6241 68.5448C33.6474 68.5314 33.6707 68.5181 33.6941 68.5048C33.7523 68.4715 33.8106 68.4382 33.8689 68.4049C33.9746 68.3445 34.0803 68.2841 34.1861 68.2238C34.4382 68.0801 34.6899 67.9358 34.9404 67.7892C35.064 67.7169 35.188 67.6452 35.3122 67.5739C35.5706 67.4255 35.8266 67.2736 36.0817 67.1196C36.1347 67.0877 36.1878 67.0559 36.241 67.0242C36.9684 66.6075 36.9684 66.6075 37.6191 66.0853C37.6316 66.074 37.6442 66.0626 37.6572 66.0509C38.0802 65.66 38.3313 65.0346 38.3623 64.4672C38.3898 63.735 38.1837 63.0448 37.6991 62.4861C37.6844 62.4685 37.6697 62.4509 37.6545 62.4328C37.5244 62.2824 37.3798 62.1619 37.2191 62.0462C37.2078 62.0381 37.1966 62.03 37.185 62.0217C36.1272 61.2733 34.9773 61.5389 33.9339 62.1406Z" fill="white"/>
<path d="M53.514 31.9679C53.5427 31.9678 53.5427 31.9678 53.5719 31.9677C53.6359 31.9676 53.7 31.9677 53.764 31.9679C53.8106 31.9678 53.8571 31.9677 53.9036 31.9677C54.0186 31.9675 54.1336 31.9675 54.2485 31.9676C54.3872 31.9678 54.5258 31.9677 54.6645 31.9675C54.9236 31.9673 55.1828 31.9673 55.4419 31.9674C55.7046 31.9674 55.9672 31.9674 56.2299 31.9673C56.2464 31.9673 56.263 31.9673 56.2801 31.9673C56.3477 31.9673 56.4152 31.9672 56.4827 31.9672C57.1686 31.9669 57.8545 31.9668 58.5403 31.9669C58.6351 31.9669 58.7299 31.9669 58.8247 31.9669C58.8436 31.9669 58.8624 31.9669 58.8818 31.9669C59.2989 31.9669 59.716 31.9669 60.1331 31.9668C60.2284 31.9668 60.3236 31.9668 60.4188 31.9668C60.457 31.9668 60.4952 31.9668 60.5334 31.9668C60.5524 31.9668 60.5713 31.9667 60.5908 31.9667C60.6291 31.9667 60.6675 31.9667 60.7058 31.9667C61.7931 31.9666 62.8804 31.9665 63.9678 31.9665C63.9879 31.9665 64.008 31.9665 64.0288 31.9666C64.2534 31.9666 64.4779 31.9666 64.7025 31.9666C64.7228 31.9666 64.7431 31.9666 64.764 31.9666C64.9325 31.9666 64.9325 31.9666 65.01 31.9666C66.307 31.9667 67.604 31.9666 68.901 31.9662C69.2278 31.9661 69.5545 31.966 69.8813 31.9659C69.9015 31.9659 69.9216 31.9659 69.9423 31.9659C70.5624 31.9658 71.1824 31.9657 71.8025 31.9656C71.822 31.9656 71.8414 31.9656 71.8615 31.9656C72.2887 31.9656 72.716 31.9656 73.1433 31.9657C73.2961 31.9657 73.449 31.9657 73.6019 31.9657C73.6399 31.9657 73.678 31.9657 73.716 31.9657C74.3223 31.9657 74.9285 31.9656 75.5348 31.9654C76.1623 31.9651 76.7898 31.9651 77.4173 31.9654C77.4847 31.9654 77.5521 31.9654 77.6194 31.9654C77.636 31.9654 77.6525 31.9654 77.6695 31.9654C77.9315 31.9655 78.1934 31.9654 78.4553 31.9652C78.7128 31.965 78.9703 31.965 79.2277 31.9653C79.3655 31.9654 79.5033 31.9655 79.641 31.9652C79.7663 31.965 79.8916 31.9651 80.0169 31.9654C80.062 31.9654 80.107 31.9654 80.1521 31.9652C80.5696 31.9638 80.8971 32.0174 81.2112 32.3196C81.2882 32.4038 81.3466 32.4921 81.3999 32.5928C81.4096 32.6108 81.4192 32.6288 81.4292 32.6474C81.5594 32.9209 81.5716 33.2488 81.4798 33.5355C81.341 33.8932 81.1168 34.1192 80.7691 34.2759C80.6274 34.3234 80.4921 34.3383 80.3433 34.3375C80.3242 34.3375 80.3051 34.3376 80.2854 34.3377C80.2214 34.3378 80.1574 34.3377 80.0934 34.3376C80.0468 34.3376 80.0003 34.3377 79.9537 34.3378C79.8388 34.3379 79.7239 34.3379 79.609 34.3378C79.4703 34.3377 79.3317 34.3379 79.1931 34.338C78.934 34.3382 78.6749 34.3383 78.4158 34.3383C78.1532 34.3382 77.8906 34.3383 77.6281 34.3384C77.6032 34.3384 77.6032 34.3384 77.5778 34.3384C77.5103 34.3385 77.4427 34.3385 77.3752 34.3385C76.6706 34.339 75.9659 34.3391 75.2613 34.3391C75.1854 34.3391 75.1096 34.3391 75.0337 34.3391C75.0055 34.3391 75.0055 34.3391 74.9767 34.3391C74.5596 34.3391 74.1426 34.3392 73.7256 34.3393C73.5539 34.3394 73.3822 34.3394 73.2105 34.3394C73.1915 34.3394 73.1725 34.3394 73.153 34.3394C72.0658 34.3397 70.9786 34.3399 69.8915 34.3398C69.8508 34.3398 69.8101 34.3398 69.7694 34.3398C69.5857 34.3398 69.402 34.3398 69.2182 34.3398C69.1363 34.3398 69.0544 34.3398 68.9725 34.3398C68.9315 34.3398 68.8905 34.3398 68.8495 34.3398C67.5527 34.3398 66.256 34.3401 64.9593 34.3406C64.6325 34.3408 64.3058 34.3409 63.9791 34.3411C63.959 34.3411 63.9388 34.3411 63.9181 34.3411C63.2982 34.3413 62.6782 34.3415 62.0582 34.3415C62.0388 34.3415 62.0193 34.3415 61.9993 34.3415C61.5721 34.3416 61.1448 34.3416 60.7176 34.3416C60.5648 34.3416 60.4119 34.3416 60.259 34.3416C60.221 34.3416 60.183 34.3416 60.145 34.3416C59.5388 34.3416 58.9327 34.3418 58.3266 34.3421C57.7161 34.3425 57.1057 34.3426 56.4953 34.3423C56.4109 34.3423 56.3266 34.3422 56.2423 34.3422C56.2175 34.3422 56.2175 34.3422 56.1922 34.3422C55.9303 34.3421 55.6685 34.3423 55.4066 34.3425C55.1492 34.3428 54.8918 34.3428 54.6343 34.3425C54.4966 34.3423 54.3589 34.3423 54.2212 34.3426C54.0959 34.3429 53.9706 34.3428 53.8454 34.3425C53.8003 34.3424 53.7552 34.3425 53.7102 34.3427C53.2953 34.3445 52.9626 34.276 52.6559 33.9735C52.4171 33.7231 52.3372 33.4097 52.3399 33.0727C52.3616 32.7522 52.5029 32.4823 52.7299 32.2591C52.9527 32.0674 53.222 31.9663 53.514 31.9679Z" fill="white"/>
<path d="M53.5364 26.0891C53.5555 26.0891 53.5746 26.089 53.5942 26.0889C53.6582 26.0888 53.7222 26.0889 53.7862 26.0891C53.8327 26.089 53.8792 26.089 53.9258 26.0889C54.0406 26.0887 54.1555 26.0887 54.2703 26.0889C54.4089 26.089 54.5474 26.0889 54.686 26.0887C54.9449 26.0885 55.2038 26.0885 55.4627 26.0886C55.7252 26.0887 55.9876 26.0886 56.25 26.0885C56.2749 26.0885 56.2749 26.0885 56.3002 26.0885C56.3677 26.0885 56.4352 26.0885 56.5027 26.0884C57.188 26.0881 57.8733 26.0881 58.5586 26.0881C58.6533 26.0881 58.748 26.0881 58.8427 26.0881C58.8615 26.0881 58.8804 26.0881 58.8997 26.0881C59.3165 26.0882 59.7333 26.0881 60.15 26.088C60.2452 26.088 60.3403 26.088 60.4355 26.088C60.4737 26.088 60.5118 26.088 60.55 26.088C60.5689 26.088 60.5879 26.088 60.6074 26.088C60.6457 26.088 60.6839 26.0879 60.7222 26.0879C61.8087 26.0878 62.8951 26.0877 63.9816 26.0878C64.0017 26.0878 64.0218 26.0878 64.0426 26.0878C64.2669 26.0878 64.4913 26.0878 64.7157 26.0878C64.736 26.0878 64.7562 26.0878 64.7771 26.0878C64.9454 26.0878 64.9454 26.0878 65.0229 26.0878C66.3188 26.088 67.6147 26.0878 68.9106 26.0874C69.2371 26.0873 69.5637 26.0872 69.8902 26.0872C69.9103 26.0872 69.9304 26.0871 69.9511 26.0871C70.5707 26.087 71.1903 26.0869 71.8098 26.0869C71.8293 26.0869 71.8487 26.0869 71.8687 26.0869C72.2957 26.0868 72.7226 26.0869 73.1495 26.0869C73.3023 26.0869 73.455 26.0869 73.6078 26.0869C73.6458 26.0869 73.6838 26.0869 73.7218 26.0869C74.3275 26.0869 74.9333 26.0868 75.5391 26.0866C76.166 26.0863 76.793 26.0863 77.42 26.0866C77.4873 26.0866 77.5546 26.0866 77.6219 26.0866C77.6385 26.0866 77.655 26.0867 77.672 26.0867C77.9337 26.0867 78.1954 26.0866 78.4571 26.0864C78.7143 26.0862 78.9716 26.0863 79.2289 26.0865C79.3665 26.0866 79.5041 26.0867 79.6418 26.0864C79.767 26.0862 79.8921 26.0863 80.0173 26.0866C80.0623 26.0866 80.1074 26.0866 80.1524 26.0864C80.5698 26.0851 80.8972 26.1387 81.2112 26.4408C81.2882 26.525 81.3466 26.6133 81.3999 26.714C81.4096 26.732 81.4192 26.7501 81.4292 26.7686C81.5594 27.0422 81.5716 27.37 81.4798 27.6567C81.3411 28.0144 81.1162 28.2426 80.7672 28.3972C80.6306 28.4448 80.5093 28.4594 80.3657 28.4587C80.337 28.4588 80.337 28.4588 80.3078 28.4589C80.2437 28.459 80.1796 28.4589 80.1155 28.4588C80.069 28.4588 80.0224 28.4589 79.9758 28.459C79.8608 28.4592 79.7458 28.4591 79.6308 28.459C79.492 28.4589 79.3533 28.4591 79.2145 28.4592C78.9552 28.4595 78.6959 28.4595 78.4366 28.4595C78.1738 28.4594 77.911 28.4595 77.6482 28.4596C77.6316 28.4596 77.615 28.4596 77.5979 28.4596C77.5303 28.4597 77.4627 28.4597 77.3952 28.4598C76.6899 28.4602 75.9847 28.4603 75.2795 28.4603C75.2036 28.4603 75.1276 28.4603 75.0517 28.4603C75.0234 28.4603 75.0234 28.4603 74.9946 28.4603C74.5772 28.4603 74.1598 28.4604 73.7425 28.4605C73.5706 28.4606 73.3988 28.4606 73.227 28.4606C73.208 28.4607 73.189 28.4607 73.1694 28.4607C72.0814 28.4609 70.9933 28.4611 69.9053 28.4611C69.8645 28.4611 69.8238 28.4611 69.7831 28.4611C69.5992 28.4611 69.4153 28.4611 69.2315 28.461C69.1495 28.461 69.0675 28.461 68.9855 28.461C68.9445 28.461 68.9034 28.461 68.8624 28.461C67.5646 28.461 66.2667 28.4613 64.9689 28.4619C64.6419 28.462 64.3149 28.4621 63.9879 28.4623C63.9577 28.4623 63.9577 28.4623 63.9269 28.4623C63.3065 28.4625 62.686 28.4627 62.0656 28.4627C62.0461 28.4627 62.0266 28.4627 62.0065 28.4628C61.579 28.4628 61.1514 28.4628 60.7239 28.4628C60.5709 28.4628 60.4179 28.4628 60.2649 28.4628C60.2269 28.4628 60.1888 28.4628 60.1507 28.4628C59.5441 28.4628 58.9375 28.463 58.3308 28.4633C57.7199 28.4637 57.1089 28.4638 56.498 28.4635C56.4136 28.4635 56.3292 28.4634 56.2448 28.4634C56.2199 28.4634 56.2199 28.4634 56.1946 28.4634C55.9326 28.4633 55.6705 28.4635 55.4084 28.4638C55.1508 28.464 54.8931 28.464 54.6355 28.4637C54.4976 28.4635 54.3598 28.4635 54.2219 28.4638C54.0965 28.4641 53.9712 28.4641 53.8458 28.4637C53.8007 28.4636 53.7556 28.4637 53.7105 28.4639C53.2955 28.4658 52.9627 28.3973 52.6559 28.0947C52.4171 27.8443 52.3372 27.5309 52.3399 27.1939C52.3621 26.8672 52.5095 26.5963 52.7412 26.3691C52.8209 26.3021 52.9076 26.2538 52.9999 26.2066C53.013 26.1999 53.026 26.1933 53.0394 26.1864C53.2008 26.1084 53.3587 26.0882 53.5364 26.0891Z" fill="white"/>
<path d="M53.5364 20.2104C53.5555 20.2104 53.5746 20.2103 53.5943 20.2102C53.6583 20.2101 53.7222 20.2102 53.7862 20.2104C53.8328 20.2103 53.8793 20.2103 53.9258 20.2102C54.0407 20.21 54.1556 20.21 54.2704 20.2102C54.409 20.2103 54.5476 20.2102 54.6861 20.21C54.9451 20.2098 55.2041 20.2098 55.463 20.2099C55.7255 20.21 55.9879 20.2099 56.2504 20.2098C56.2752 20.2098 56.2752 20.2098 56.3006 20.2098C56.3681 20.2098 56.4356 20.2098 56.5031 20.2097C57.1885 20.2094 57.8738 20.2094 58.5592 20.2094C58.6539 20.2094 58.7487 20.2094 58.8434 20.2094C58.8622 20.2094 58.881 20.2094 58.9004 20.2094C59.3172 20.2095 59.734 20.2094 60.1508 20.2093C60.246 20.2093 60.3411 20.2093 60.4363 20.2093C60.4745 20.2093 60.5126 20.2093 60.5508 20.2093C60.5698 20.2093 60.5887 20.2093 60.6082 20.2093C60.6465 20.2093 60.6848 20.2092 60.723 20.2092C61.8096 20.2091 62.8961 20.209 63.9826 20.2091C64.0027 20.2091 64.0229 20.2091 64.0436 20.2091C64.268 20.2091 64.4924 20.2091 64.7168 20.2091C64.7472 20.2091 64.7472 20.2091 64.7782 20.2091C64.9465 20.2091 64.9465 20.2091 65.024 20.2091C66.32 20.2093 67.6161 20.2091 68.9121 20.2087C69.2387 20.2086 69.5653 20.2085 69.8918 20.2085C69.912 20.2085 69.9321 20.2084 69.9528 20.2084C70.5724 20.2083 71.192 20.2082 71.8116 20.2082C71.8408 20.2082 71.8408 20.2082 71.8706 20.2082C72.2975 20.2081 72.7244 20.2082 73.1514 20.2082C73.3041 20.2082 73.4569 20.2082 73.6097 20.2082C73.6477 20.2082 73.6857 20.2082 73.7237 20.2082C74.3295 20.2082 74.9353 20.2081 75.5412 20.2079C76.1682 20.2076 76.7952 20.2076 77.4223 20.2079C77.4896 20.2079 77.5569 20.2079 77.6242 20.2079C77.6407 20.2079 77.6572 20.208 77.6743 20.208C77.936 20.208 78.1977 20.2079 78.4595 20.2077C78.7168 20.2075 78.974 20.2076 79.2313 20.2078C79.369 20.2079 79.5066 20.208 79.6443 20.2077C79.7695 20.2075 79.8946 20.2076 80.0198 20.2079C80.0649 20.2079 80.1099 20.2079 80.155 20.2077C80.586 20.2063 80.586 20.2063 80.7599 20.2754C80.7727 20.2803 80.7855 20.2851 80.7987 20.2901C81.0656 20.399 81.2648 20.5803 81.3999 20.8353C81.4096 20.8533 81.4192 20.8714 81.4292 20.8899C81.5594 21.1635 81.5716 21.4913 81.4798 21.778C81.3411 22.1357 81.1162 22.3639 80.7672 22.5185C80.6306 22.5661 80.5093 22.5807 80.3657 22.58C80.337 22.5801 80.337 22.5801 80.3078 22.5802C80.2437 22.5803 80.1796 22.5802 80.1155 22.5801C80.069 22.5801 80.0224 22.5802 79.9758 22.5803C79.8608 22.5805 79.7458 22.5804 79.6308 22.5803C79.492 22.5802 79.3533 22.5804 79.2145 22.5805C78.9552 22.5808 78.6959 22.5808 78.4366 22.5808C78.1738 22.5807 77.911 22.5808 77.6482 22.5809C77.6316 22.5809 77.615 22.5809 77.5979 22.5809C77.5303 22.581 77.4627 22.581 77.3952 22.5811C76.6899 22.5815 75.9847 22.5816 75.2795 22.5816C75.2036 22.5816 75.1276 22.5816 75.0517 22.5816C75.0234 22.5816 75.0234 22.5816 74.9946 22.5816C74.5772 22.5816 74.1598 22.5817 73.7425 22.5818C73.5706 22.5819 73.3988 22.5819 73.227 22.5819C73.208 22.582 73.189 22.582 73.1694 22.582C72.0814 22.5822 70.9933 22.5824 69.9053 22.5824C69.8645 22.5824 69.8238 22.5824 69.7831 22.5824C69.5992 22.5824 69.4153 22.5824 69.2315 22.5823C69.1495 22.5823 69.0675 22.5823 68.9855 22.5823C68.9445 22.5823 68.9034 22.5823 68.8624 22.5823C67.5646 22.5823 66.2667 22.5826 64.9689 22.5832C64.6419 22.5833 64.3149 22.5834 63.9879 22.5836C63.9577 22.5836 63.9577 22.5836 63.9269 22.5836C63.3065 22.5838 62.686 22.584 62.0656 22.584C62.0461 22.584 62.0266 22.584 62.0065 22.5841C61.579 22.5841 61.1514 22.5841 60.7239 22.5841C60.5709 22.5841 60.4179 22.5841 60.2649 22.5841C60.2269 22.5841 60.1888 22.5841 60.1507 22.5841C59.5441 22.5841 58.9375 22.5843 58.3308 22.5846C57.7199 22.585 57.1089 22.5851 56.498 22.5848C56.4136 22.5848 56.3292 22.5847 56.2448 22.5847C56.2199 22.5847 56.2199 22.5847 56.1946 22.5847C55.9326 22.5846 55.6705 22.5848 55.4084 22.5851C55.1508 22.5853 54.8931 22.5853 54.6355 22.585C54.4976 22.5848 54.3598 22.5848 54.2219 22.5851C54.0965 22.5854 53.9712 22.5854 53.8458 22.585C53.8007 22.5849 53.7556 22.585 53.7105 22.5852C53.2955 22.5871 52.9627 22.5186 52.6559 22.216C52.4171 21.9656 52.3372 21.6522 52.3399 21.3152C52.3621 20.9885 52.5095 20.7176 52.7412 20.4904C52.8209 20.4234 52.9076 20.3751 52.9999 20.3279C53.013 20.3212 53.026 20.3146 53.0394 20.3077C53.2008 20.2297 53.3587 20.2095 53.5364 20.2104Z" fill="white"/>
<path d="M23.2476 37.036C23.8694 37.4609 24.5833 37.7191 25.3404 37.5917C25.4425 37.5719 25.5414 37.5436 25.6404 37.5117C25.6529 37.5077 25.6653 37.5036 25.6782 37.4995C25.9947 37.3953 26.2796 37.2364 26.5541 37.0493C26.9622 36.7715 27.3491 36.6177 27.8501 36.6806C28.2021 36.7551 28.4703 36.9935 28.6622 37.2863C28.8426 37.596 28.8997 37.9496 28.8104 38.299C28.6655 38.7325 28.3371 39.0443 27.9804 39.3113C27.9676 39.321 27.9548 39.3306 27.9416 39.3406C27.0848 39.9844 26.0671 40.2656 25.0043 40.2578C24.9351 40.2573 24.866 40.2574 24.7968 40.2575C24.4376 40.2571 24.0814 40.2407 23.7291 40.1661C23.6978 40.1596 23.6978 40.1596 23.6659 40.153C22.871 39.9829 22.1774 39.6175 21.5604 39.0913C21.5482 39.0812 21.5361 39.0711 21.5236 39.0608C21.1938 38.7847 20.9941 38.408 20.9559 37.9818C20.9438 37.659 21.0643 37.3792 21.2604 37.1318C21.271 37.1175 21.2817 37.1033 21.2927 37.0886C21.8078 36.443 22.6582 36.632 23.2476 37.036Z" fill="white"/>
</g>
<defs>
<clipPath id="clip0_174_1427">
<rect width="90" height="90" fill="white" transform="translate(0.5)"/>
</clipPath>
</defs>
</svg>
