<svg width="91" height="94" viewBox="0 0 91 94" fill="none" xmlns="http://www.w3.org/2000/svg">
<path d="M16.3397 8.80424C16.429 8.80406 16.429 8.80406 16.52 8.80387C16.7186 8.80354 16.9172 8.80362 17.1158 8.80371C17.2599 8.80355 17.4041 8.80338 17.5482 8.80318C17.9023 8.80275 18.2564 8.8026 18.6104 8.80257C19.0347 8.80251 19.4591 8.80212 19.8834 8.80172C20.9085 8.80078 21.9336 8.80043 22.9587 8.80014C23.4437 8.8 23.9287 8.79979 24.4137 8.79957C26.0745 8.79881 27.7352 8.79818 29.3959 8.79798C29.5001 8.79797 29.6042 8.79795 29.7084 8.79794C29.8128 8.79793 29.9172 8.79791 30.0216 8.7979C30.2311 8.79787 30.4405 8.79785 30.65 8.79782C30.7019 8.79781 30.7538 8.79781 30.8073 8.7978C32.4923 8.79759 34.1773 8.79665 35.8623 8.79527C37.6444 8.79382 39.4265 8.79301 41.2087 8.79294C41.4043 8.79293 41.5999 8.79292 41.7954 8.79291C41.8436 8.7929 41.8918 8.7929 41.9414 8.7929C42.7164 8.79283 43.4914 8.79218 44.2664 8.79132C45.045 8.79047 45.8237 8.79028 46.6024 8.79076C47.0649 8.79102 47.5275 8.79079 47.9901 8.78986C48.3354 8.78922 48.6808 8.7895 49.0261 8.79014C49.1659 8.79026 49.3056 8.79007 49.4454 8.78956C49.6352 8.78891 49.8251 8.78935 50.015 8.79005C50.0693 8.78961 50.1235 8.78916 50.1795 8.7887C50.7643 8.79341 51.2629 8.93429 51.6926 9.34279C52.0931 9.77324 52.264 10.2399 52.2435 10.8274C52.1767 11.3832 51.9352 11.8063 51.5157 12.1737C51.0468 12.4936 50.5215 12.5452 49.9692 12.5424C49.88 12.5426 49.88 12.5426 49.789 12.5429C49.5896 12.5433 49.3903 12.5428 49.1909 12.5424C49.0466 12.5425 48.9022 12.5427 48.7579 12.543C48.444 12.5433 48.1301 12.5433 47.8162 12.543C47.3494 12.5426 46.8827 12.5428 46.4159 12.5432C45.6304 12.5438 44.8449 12.5439 44.0595 12.5438C42.937 12.5436 41.8145 12.5444 40.692 12.5453C40.2414 12.5457 39.7908 12.5461 39.3402 12.5465C39.2651 12.5465 39.2651 12.5465 39.1885 12.5466C37.9971 12.5475 36.8056 12.5482 35.6142 12.5487C35.5621 12.5487 35.5099 12.5488 35.4562 12.5488C34.2403 12.5494 33.0243 12.5498 31.8083 12.5499C31.7299 12.5499 31.7299 12.5499 31.6499 12.5499C31.3862 12.55 31.1226 12.55 30.859 12.55C30.8069 12.55 30.7547 12.55 30.7011 12.55C30.5959 12.55 30.4907 12.5501 30.3856 12.5501C28.6472 12.5503 26.9089 12.5513 25.1706 12.5531C24.925 12.5534 24.6795 12.5537 24.4339 12.5539C24.3855 12.5539 24.3372 12.554 24.2874 12.554C23.5102 12.5548 22.733 12.5547 21.9558 12.5542C21.1744 12.5538 20.393 12.5541 19.6116 12.5554C19.1476 12.5561 18.6837 12.5561 18.2197 12.5552C17.8729 12.5546 17.5261 12.5553 17.1792 12.5564C17.0392 12.5566 16.8992 12.5565 16.7592 12.5559C15.4856 12.551 14.4625 12.7248 13.5181 13.653C12.9262 14.2855 12.5802 15.1087 12.5828 15.9746C12.5826 16.0406 12.5826 16.0406 12.5825 16.1079C12.5822 16.256 12.5823 16.4041 12.5825 16.5522C12.5824 16.6596 12.5822 16.767 12.5821 16.8745C12.5817 17.1713 12.5817 17.4682 12.5817 17.7651C12.5817 18.0874 12.5814 18.4098 12.5811 18.7321C12.5805 19.3722 12.5803 20.0123 12.5801 20.6524C12.58 21.4188 12.5795 22.1852 12.5789 22.9515C12.5777 24.8041 12.5771 26.6567 12.5766 28.5092C12.5764 29.1227 12.5762 29.7362 12.576 30.3497C12.576 30.4146 12.576 30.4146 12.5759 30.4808C12.5759 30.6559 12.5758 30.831 12.5758 31.0061C12.5747 34.001 12.5738 36.9959 12.5734 39.9908C12.5733 40.226 12.5733 40.4613 12.5732 40.6965C12.5732 40.7665 12.5732 40.7666 12.5732 40.838C12.5732 41.3108 12.5731 41.7836 12.573 42.2564C12.573 42.3512 12.573 42.446 12.573 42.5408C12.5725 45.5853 12.5712 48.6299 12.5693 51.6744C12.5679 53.8618 12.5666 56.0493 12.5662 58.2367C12.5662 58.2817 12.5662 58.3267 12.5662 58.3731C12.566 59.3607 12.5659 60.3484 12.5658 61.336C12.5658 61.7334 12.5658 62.1308 12.5657 62.5282C12.5657 62.5717 12.5657 62.6152 12.5657 62.66C12.5656 64.0608 12.5647 65.4616 12.5635 66.8624C12.5623 68.2735 12.5619 69.6846 12.5624 71.0957C12.5628 71.9712 12.5625 72.8467 12.5611 73.7222C12.5603 74.2806 12.5604 74.8391 12.5612 75.3975C12.5616 75.7158 12.5616 76.0341 12.5606 76.3523C12.5597 76.6421 12.5599 76.9319 12.5609 77.2216C12.5611 77.3256 12.5609 77.4296 12.5602 77.5335C12.5534 78.6881 12.8272 79.6417 13.6568 80.4858C14.2577 81.0481 15.0667 81.4205 15.8955 81.4212C15.9676 81.4214 16.0397 81.4216 16.114 81.4219C16.194 81.4218 16.274 81.4217 16.354 81.4216C16.4394 81.4218 16.5247 81.4219 16.6101 81.4221C16.8457 81.4225 17.0813 81.4226 17.3169 81.4226C17.5728 81.4227 17.8288 81.4231 18.0847 81.4234C18.5928 81.4241 19.1009 81.4244 19.609 81.4246C20.2175 81.4249 20.8259 81.4256 21.4343 81.4262C22.9051 81.4277 24.3759 81.4286 25.8467 81.4294C26.3338 81.4296 26.8209 81.4299 27.308 81.4302C29.8978 81.4317 32.4876 81.433 35.0773 81.4337C35.6774 81.4339 36.2775 81.434 36.8776 81.4342C36.9521 81.4342 37.0267 81.4343 37.1035 81.4343C39.5207 81.435 41.9378 81.4368 44.355 81.4393C46.8397 81.4418 49.3244 81.4434 51.8091 81.4437C52.16 81.4437 52.511 81.4438 52.8619 81.4438C52.931 81.4439 53.0001 81.4439 53.0712 81.4439C54.1828 81.4441 55.2943 81.4453 56.4059 81.4468C57.5233 81.4484 58.6406 81.4488 59.758 81.4482C60.4218 81.4478 61.0855 81.4483 61.7493 81.4499C62.193 81.451 62.6366 81.4509 63.0802 81.45C63.3328 81.4495 63.5854 81.4494 63.8381 81.4507C64.0684 81.4519 64.2987 81.4516 64.529 81.4504C64.6498 81.45 64.7706 81.4511 64.8914 81.4523C65.7262 81.4446 66.4749 81.2127 67.1448 80.7058C67.1877 80.6737 67.2305 80.6415 67.2747 80.6084C67.9908 80.0276 68.3521 79.1788 68.5013 78.2877C68.5245 77.9768 68.5249 77.6673 68.5232 77.3558C68.5233 77.2639 68.5236 77.172 68.5239 77.0801C68.5245 76.8295 68.524 76.579 68.5233 76.3285C68.5228 76.0575 68.5233 75.7865 68.5237 75.5156C68.5242 75.0466 68.5242 74.5777 68.5237 74.1088C68.523 73.43 68.5236 72.7513 68.5244 72.0726C68.5258 70.9704 68.5266 69.8681 68.5269 68.7659C68.5269 68.6671 68.5269 68.6671 68.5269 68.5662C68.527 67.8309 68.5271 67.0955 68.527 66.3601C68.527 66.0933 68.527 65.8264 68.527 65.5596C68.527 65.4938 68.527 65.4279 68.527 65.3601C68.5269 64.2617 68.5278 63.1633 68.5294 62.0648C68.5303 61.3879 68.5304 60.711 68.5295 60.0341C68.529 59.5703 68.5293 59.1065 68.5302 58.6428C68.5307 58.3754 68.5308 58.108 68.5299 57.8406C68.5291 57.5955 68.5294 57.3505 68.5305 57.1054C68.5307 57.0171 68.5305 56.9287 68.5299 56.8403C68.5254 56.1541 68.5996 55.55 69.091 55.0342C69.5538 54.6355 69.9921 54.5564 70.5885 54.5626C71.0559 54.598 71.4191 54.7872 71.7593 55.1054C72.0693 55.4704 72.224 55.894 72.2248 56.3673C72.2249 56.4054 72.2251 56.4436 72.2252 56.483C72.2256 56.6118 72.2256 56.7407 72.2255 56.8695C72.2257 56.9625 72.226 57.0555 72.2262 57.1484C72.2268 57.4047 72.227 57.6609 72.2272 57.9171C72.2274 58.1932 72.228 58.4693 72.2285 58.7454C72.2296 59.4128 72.2302 60.0802 72.2308 60.7477C72.231 61.0622 72.2313 61.3767 72.2316 61.6912C72.2327 62.7372 72.2335 63.7832 72.2339 64.8292C72.234 65.1008 72.2342 65.3724 72.2343 65.6439C72.2343 65.7114 72.2343 65.7789 72.2344 65.8485C72.2349 66.9401 72.2363 68.0318 72.2383 69.1235C72.2402 70.245 72.2413 71.3665 72.2415 72.488C72.2416 73.1174 72.2421 73.7468 72.2436 74.3761C72.2449 74.9126 72.2454 75.449 72.2448 75.9855C72.2445 76.2588 72.2446 76.5321 72.2458 76.8054C72.2542 78.9105 72.2542 78.9105 71.9809 79.8801C71.9642 79.9408 71.9642 79.9408 71.947 80.0028C71.6237 81.1628 70.9728 82.1362 70.1526 83.006C70.1136 83.0495 70.0745 83.0931 70.0342 83.138C68.8531 84.4021 67.0706 85.068 65.3754 85.1881C65.0937 85.1963 64.812 85.1962 64.5301 85.1957C64.4451 85.1958 64.36 85.1959 64.2749 85.196C64.0414 85.1963 63.808 85.1962 63.5745 85.1961C63.3204 85.196 63.0663 85.1962 62.8121 85.1964C62.3668 85.1967 61.9215 85.1968 61.4762 85.1968C60.814 85.1967 60.1518 85.1969 59.4896 85.1972C58.2381 85.1978 56.9866 85.198 55.735 85.198C54.7685 85.198 53.8019 85.1981 52.8354 85.1983C52.5572 85.1984 52.279 85.1984 52.0008 85.1985C51.9316 85.1985 51.8624 85.1985 51.7912 85.1985C49.8457 85.1989 47.9002 85.1991 45.9547 85.1991C45.8813 85.1991 45.808 85.1991 45.7324 85.1991C45.3606 85.1991 44.9888 85.1991 44.617 85.1991C44.5062 85.1991 44.5062 85.1991 44.3932 85.1991C44.2439 85.1991 44.0946 85.1991 43.9453 85.1991C41.6222 85.199 39.2992 85.1995 36.9762 85.2003C34.3663 85.2012 31.7564 85.2017 29.1465 85.2016C28.8682 85.2016 28.5899 85.2016 28.3115 85.2016C28.243 85.2016 28.1745 85.2016 28.1039 85.2016C27.0013 85.2016 25.8987 85.202 24.7961 85.2025C23.6878 85.203 22.5795 85.2031 21.4712 85.2027C20.813 85.2025 20.1547 85.2026 19.4965 85.2031C19.0565 85.2035 18.6164 85.2034 18.1764 85.203C17.9259 85.2028 17.6754 85.2027 17.4249 85.2032C15.2307 85.2071 13.1285 84.9899 11.4108 83.4778C11.3633 83.438 11.3158 83.3983 11.2669 83.3573C9.84025 82.1316 8.99013 80.3512 8.82778 78.4856C8.80258 78.0686 8.80761 77.6508 8.80807 77.2332C8.80797 77.126 8.80785 77.0188 8.8077 76.9116C8.80738 76.617 8.80742 76.3223 8.80751 76.0277C8.80756 75.7072 8.80726 75.3867 8.80701 75.0661C8.80656 74.4304 8.80643 73.7946 8.8064 73.1589C8.80635 72.3974 8.80595 71.6359 8.80555 70.8744C8.80463 69.0776 8.80427 67.2809 8.804 65.4841C8.80386 64.5697 8.80364 63.6554 8.8034 62.741C8.80266 59.8071 8.80202 56.8732 8.80182 53.9392C8.80181 53.799 8.8018 53.6589 8.80179 53.5187C8.80177 53.2375 8.80175 52.9564 8.80173 52.6753C8.80171 52.3461 8.80169 52.017 8.80166 51.6878C8.80166 51.5936 8.80165 51.4994 8.80164 51.4052C8.80144 48.3803 8.80055 45.3553 8.79917 42.3303C8.79818 40.1563 8.79727 37.9823 8.797 35.8083C8.797 35.7636 8.79699 35.7188 8.79699 35.6728C8.79687 34.6907 8.7968 33.7086 8.79678 32.7264C8.79677 32.375 8.79676 32.0236 8.79675 31.6721C8.79674 31.5847 8.79674 31.4973 8.79673 31.4098C8.79668 30.0182 8.79609 28.6265 8.79523 27.2348C8.79435 25.7936 8.7941 24.3523 8.79459 22.911C8.79485 22.0805 8.79463 21.25 8.79369 20.4195C8.79312 19.8643 8.79319 19.3092 8.79378 18.754C8.79409 18.438 8.79414 18.1219 8.79339 17.8059C8.79272 17.5176 8.79288 17.2294 8.79367 16.9412C8.79381 16.8383 8.79366 16.7353 8.79317 16.6324C8.78893 15.6791 8.8508 14.6845 9.17706 13.7809C9.19467 13.7303 9.21228 13.6798 9.23042 13.6278C9.88298 11.8265 11.2195 10.3457 12.9475 9.5211C14.0412 9.01862 15.1391 8.80192 16.3397 8.80424Z" fill="white"/>
<path d="M65.629 15.9188C65.9039 16.0741 66.1333 16.255 66.3619 16.4717C66.5044 16.6057 66.6528 16.7285 66.8049 16.8514C67.0449 17.046 67.2814 17.2441 67.5163 17.4449C67.7779 17.668 68.0444 17.8831 68.3162 18.0936C68.6563 18.3573 68.9822 18.6347 69.3059 18.9182C69.5609 19.1413 69.8209 19.3564 70.0871 19.5662C70.249 19.694 70.407 19.826 70.5647 19.9588C70.5662 19.9024 70.5678 19.8461 70.5693 19.7881C70.5974 19.1469 70.6667 18.5365 71.1545 18.0715C71.438 17.8736 71.6997 17.77 72.0444 17.7679C72.092 17.7675 72.1395 17.7671 72.1884 17.7666C72.2401 17.7665 72.2917 17.7663 72.3449 17.7662C72.3997 17.7658 72.4545 17.7654 72.5109 17.765C72.6922 17.7638 72.8736 17.7631 73.0549 17.7626C73.117 17.7623 73.1791 17.7621 73.2431 17.7618C73.5719 17.7606 73.9008 17.7598 74.2296 17.7592C74.5682 17.7585 74.9067 17.7565 75.2453 17.7542C75.5065 17.7526 75.7678 17.7521 76.029 17.7519C76.1538 17.7516 76.2785 17.751 76.4032 17.7499C77.2163 17.7432 77.8706 17.7612 78.547 18.2627C78.7744 18.5041 78.8438 18.7533 78.8399 19.0782C78.8394 19.1839 78.8394 19.1839 78.8388 19.2916C78.8375 19.3681 78.8363 19.4446 78.8349 19.5234C78.8342 19.6054 78.8336 19.6874 78.833 19.7694C78.8317 19.9456 78.8299 20.1218 78.8278 20.2979C78.8246 20.5771 78.8233 20.8563 78.8225 21.1355C78.8222 21.2313 78.8219 21.3271 78.8216 21.4229C78.8214 21.4948 78.8214 21.4948 78.8212 21.5682C78.819 22.2178 78.8152 22.8673 78.8073 23.5168C78.8019 23.9555 78.7993 24.3941 78.7998 24.8329C78.7999 25.0647 78.7986 25.2964 78.794 25.5281C78.7203 26.6 78.7203 26.6 79.1442 27.5223C79.3033 27.6559 79.4673 27.7571 79.6473 27.8618C79.7605 27.9522 79.8725 28.0441 79.9827 28.1383C80.0615 28.2015 80.0615 28.2015 80.1419 28.2661C80.3464 28.4339 80.5405 28.612 80.7358 28.7902C80.8939 28.9306 81.0566 29.0636 81.2212 29.1962C82.0511 29.8748 82.0511 29.8748 82.1833 30.4568C82.2106 30.9068 82.076 31.2802 81.7997 31.6311C81.4817 31.9786 81.1205 32.1741 80.6462 32.1967C80.0786 32.1661 79.7507 31.8251 79.3568 31.4514C79.1945 31.2982 79.0253 31.1566 78.8511 31.0171C78.6166 30.8284 78.393 30.6322 78.1728 30.4273C77.9012 30.1746 77.6203 29.9381 77.3313 29.7053C77.1034 29.5169 76.8864 29.3175 76.6696 29.1165C76.5463 29.0048 76.4207 28.9032 76.2892 28.8018C76.0235 28.5706 75.895 28.2768 75.8517 27.9288C75.8438 27.7336 75.8435 27.5398 75.8459 27.3445C75.8459 27.2708 75.8459 27.197 75.8458 27.1211C75.846 26.9205 75.8471 26.72 75.8488 26.5195C75.8503 26.3093 75.8504 26.0992 75.8507 25.889C75.8514 25.4917 75.8533 25.0945 75.8557 24.6972C75.8584 24.2447 75.8597 23.7921 75.8608 23.3395C75.8633 22.4092 75.8676 21.4789 75.8727 20.5486C75.1331 20.5486 74.3935 20.5486 73.6316 20.5486C73.635 20.7376 73.6384 20.9266 73.6419 21.1213C73.6442 21.3059 73.646 21.4906 73.6478 21.6753C73.6492 21.8028 73.6512 21.9304 73.6538 22.0579C73.6574 22.2421 73.6591 22.4263 73.6603 22.6105C73.6619 22.6668 73.6634 22.7231 73.665 22.7811C73.6652 23.2468 73.5353 23.6244 73.2256 23.9781C72.8744 24.3259 72.4623 24.4444 71.9765 24.4632C71.3369 24.4363 70.9762 24.1466 70.5057 23.7334C70.4108 23.6524 70.3154 23.5718 70.22 23.4913C70.1547 23.4362 70.0894 23.381 70.0243 23.3257C69.8228 23.1546 69.6196 22.986 69.4146 22.8192C69.143 22.5981 68.8755 22.3727 68.6086 22.1459C68.4085 21.9761 68.2066 21.8088 68.0029 21.6433C67.7161 21.41 67.4355 21.1699 67.1554 20.9286C66.8953 20.705 66.6312 20.4868 66.3649 20.2707C66.1766 20.1162 65.9913 19.9584 65.8059 19.8003C65.532 19.5669 65.2532 19.3445 64.9618 19.1331C64.7174 19.2334 64.5346 19.4068 64.3389 19.5791C64.2648 19.6435 64.1907 19.7079 64.1166 19.7722C64.0799 19.8039 64.0433 19.8357 64.0056 19.8684C63.8597 19.9935 63.7106 20.1145 63.5611 20.2352C63.3027 20.4449 63.0558 20.6646 62.8098 20.8886C62.6095 21.0668 62.4013 21.2342 62.1929 21.4028C61.9822 21.5765 61.7763 21.7551 61.5706 21.9345C61.3181 22.1548 61.0644 22.3724 60.8039 22.5833C60.4305 22.8859 60.0695 23.2025 59.707 23.518C59.2384 23.925 58.7656 24.327 58.2914 24.7272C58.0538 24.9279 57.8179 25.1303 57.5822 25.3331C57.3427 25.5391 57.1016 25.7424 56.8561 25.9413C56.4817 26.2455 56.1192 26.5631 55.7555 26.8798C55.2872 27.2865 54.8146 27.6883 54.3406 28.0883C54.0609 28.3246 53.783 28.5629 53.5058 28.802C53.3169 28.9644 53.1259 29.1229 52.9304 29.2773C53.0116 29.302 53.0116 29.302 53.0944 29.3273C53.6084 29.4952 54.0574 29.6598 54.3207 30.1621C54.434 30.4347 54.4289 30.6955 54.4261 30.9871C54.4263 31.0745 54.4263 31.0745 54.4266 31.1636C54.4268 31.3589 54.4259 31.5542 54.4249 31.7495C54.4248 31.8918 54.4249 32.0342 54.425 32.1766C54.425 32.5577 54.424 32.9388 54.4227 33.3199C54.4217 33.6775 54.4217 34.0352 54.4216 34.3928C54.4206 35.4387 54.4182 36.4846 54.4159 37.5305C54.4122 39.8672 54.4086 42.2039 54.4048 44.6115C61.5087 44.6115 68.6125 44.6115 75.9317 44.6115C75.9317 42.4317 75.9317 40.2518 75.9317 38.006C76.1571 37.4987 76.2881 37.2288 76.7804 36.9955C77.2204 36.8419 77.6417 36.8523 78.0696 37.0402C78.4052 37.228 78.6355 37.5135 78.7833 37.8672C78.8702 38.182 78.8471 38.515 78.8464 38.8393C78.8468 38.9238 78.8473 39.0084 78.8479 39.0929C78.8492 39.3216 78.8494 39.5503 78.8492 39.7791C78.8492 39.9705 78.8497 40.1619 78.8502 40.3533C78.8514 40.8051 78.8515 41.257 78.8511 41.7088C78.8507 42.1739 78.8521 42.6389 78.8543 43.1039C78.8561 43.5041 78.8568 43.9043 78.8565 44.3045C78.8564 44.5432 78.8567 44.7817 78.8582 45.0204C78.8595 45.2449 78.8594 45.4695 78.8582 45.6941C78.858 45.7761 78.8583 45.8581 78.8591 45.9401C78.8643 46.4819 78.8125 46.9391 78.4437 47.3603C78.1073 47.6652 77.7553 47.7594 77.3137 47.7597C77.2488 47.7601 77.2488 47.7601 77.1827 47.7605C77.0381 47.7613 76.8935 47.7607 76.7489 47.7602C76.6441 47.7604 76.5392 47.7607 76.4344 47.7611C76.1465 47.762 75.8587 47.7617 75.5708 47.7613C75.2603 47.761 74.9498 47.7617 74.6392 47.7623C74.0309 47.7634 73.4226 47.7634 72.8143 47.7631C72.32 47.7629 71.8256 47.7629 71.3312 47.7633C71.2257 47.7633 71.2257 47.7633 71.118 47.7634C70.9751 47.7635 70.8323 47.7636 70.6894 47.7637C69.3491 47.7645 68.0087 47.7642 66.6684 47.7635C65.4421 47.7629 64.2158 47.7637 62.9895 47.7651C61.7304 47.7665 60.4714 47.7671 59.2124 47.7667C58.5055 47.7665 57.7986 47.7666 57.0917 47.7676C56.4899 47.7685 55.8881 47.7685 55.2863 47.7675C54.9792 47.767 54.6722 47.7669 54.3651 47.7678C54.084 47.7686 53.8029 47.7683 53.5217 47.7672C53.4201 47.767 53.3184 47.7671 53.2168 47.7678C52.0972 47.774 52.0972 47.774 51.7154 47.4118C51.5317 47.2009 51.4485 47.0579 51.4487 46.7829C51.4486 46.7309 51.4484 46.6789 51.4483 46.6253C51.4485 46.5679 51.4487 46.5104 51.4488 46.4511C51.4488 46.3903 51.4487 46.3296 51.4487 46.2669C51.4486 46.0619 51.4489 45.8569 51.4492 45.6518C51.4493 45.5054 51.4492 45.359 51.4492 45.2125C51.4492 44.8966 51.4494 44.5806 51.4497 44.2646C51.4502 43.8078 51.4503 43.351 51.4504 42.8941C51.4505 42.153 51.4509 41.4119 51.4515 40.6708C51.452 39.9507 51.4524 39.2306 51.4527 38.5106C51.4527 38.4662 51.4527 38.4219 51.4527 38.3762C51.4528 38.1536 51.4529 37.9311 51.453 37.7085C51.4536 35.8614 51.4546 34.0143 51.4559 32.1672C51.3837 32.1681 51.3114 32.169 51.237 32.17C50.9669 32.1732 50.6968 32.1752 50.4268 32.1769C50.3103 32.1778 50.1937 32.179 50.0772 32.1805C49.909 32.1827 49.7408 32.1837 49.5726 32.1844C49.5211 32.1854 49.4697 32.1863 49.4167 32.1872C48.8238 32.1874 48.4145 32.0195 47.9866 31.6083C47.6889 31.263 47.5763 30.8725 47.601 30.4195C47.7136 29.6855 48.4556 29.2561 48.9936 28.822C49.1606 28.6835 49.3206 28.5395 49.4802 28.3926C49.7438 28.15 50.0163 27.9225 50.295 27.6975C50.4502 27.5695 50.5995 27.437 50.7482 27.3015C50.9485 27.1189 51.1529 26.9446 51.3638 26.7744C51.5881 26.593 51.8039 26.4058 52.0162 26.2104C52.2798 25.9678 52.5524 25.7403 52.8311 25.5154C52.9862 25.3873 53.1356 25.2548 53.2842 25.1193C53.5378 24.8882 53.8008 24.6716 54.0675 24.4558C54.2738 24.2851 54.4707 24.1052 54.6686 23.9248C54.8218 23.7887 54.9789 23.6593 55.1384 23.5306C55.3627 23.3492 55.5785 23.162 55.7908 22.9666C56.0544 22.724 56.3269 22.4965 56.6057 22.2716C56.7608 22.1435 56.9102 22.0111 57.0588 21.8756C57.2591 21.693 57.4635 21.5187 57.6744 21.3484C57.8987 21.167 58.1146 20.9798 58.3268 20.7845C58.5905 20.5418 58.863 20.3144 59.1417 20.0894C59.2968 19.9614 59.4462 19.8289 59.5949 19.6934C59.7951 19.5108 59.9995 19.3365 60.2104 19.1663C60.4347 18.9849 60.6506 18.7977 60.8629 18.6023C61.1265 18.3597 61.399 18.1322 61.6777 17.9072C61.8329 17.7792 61.9822 17.6467 62.1309 17.5112C62.3829 17.2815 62.6443 17.0664 62.9098 16.8525C63.0814 16.7093 63.2435 16.5586 63.4063 16.4054C64.0377 15.8237 64.8004 15.5258 65.629 15.9188Z" fill="white"/>
<path d="M20.9312 70.5985C21.0381 70.5981 21.0381 70.5981 21.1472 70.5977C21.3441 70.5972 21.541 70.5975 21.738 70.5982C21.9526 70.5987 22.1672 70.5982 22.3817 70.5978C22.7575 70.5972 23.1333 70.5973 23.5091 70.5979C24.0679 70.5987 24.6267 70.5985 25.1855 70.5981C26.1836 70.5974 27.1816 70.5977 28.1797 70.5984C29.053 70.599 29.9263 70.5993 30.7997 70.5992C30.8866 70.5992 30.8866 70.5992 30.9752 70.5992C31.2104 70.5991 31.4455 70.5991 31.6807 70.5991C33.8865 70.5989 36.0923 70.5996 38.2982 70.6008C40.2581 70.6019 42.2181 70.6023 44.1781 70.6019C44.3039 70.6019 44.4298 70.6019 44.5557 70.6019C44.649 70.6019 44.649 70.6019 44.7442 70.6018C45.0575 70.6018 45.3707 70.6017 45.6839 70.6017C45.7457 70.6017 45.8075 70.6017 45.8712 70.6017C47.5088 70.6014 49.1464 70.6018 50.784 70.6023C50.9602 70.6023 51.1363 70.6024 51.3125 70.6024C51.4294 70.6025 51.5463 70.6025 51.6632 70.6025C52.4782 70.6028 53.2933 70.6028 54.1083 70.6027C55.1585 70.6026 56.2087 70.6028 57.2589 70.6037C57.8144 70.6042 58.3699 70.6043 58.9254 70.604C59.2963 70.6039 59.6672 70.6041 60.0382 70.6047C60.2496 70.605 60.461 70.6052 60.6724 70.6048C60.9001 70.6044 61.1279 70.6049 61.3556 70.6055C61.4212 70.6053 61.4868 70.605 61.5544 70.6048C62.2061 70.6081 62.718 70.6963 63.2038 71.1541C63.6699 71.6475 63.7609 72.0289 63.7447 72.7069C63.6965 73.2151 63.4439 73.5798 63.0757 73.9233C62.5694 74.323 62.045 74.3536 61.4209 74.3512C61.3142 74.3514 61.3142 74.3514 61.2053 74.3517C61.008 74.3521 60.8106 74.352 60.6133 74.3517C60.3985 74.3514 60.1837 74.3519 59.969 74.3522C59.5926 74.3527 59.2163 74.3528 58.8399 74.3526C58.2803 74.3523 57.7206 74.3526 57.161 74.3531C56.1033 74.354 55.0456 74.3541 53.9879 74.354C53.1712 74.3539 52.3545 74.354 51.5378 74.3542C51.4205 74.3543 51.3031 74.3543 51.1858 74.3543C51.0091 74.3544 50.8323 74.3544 50.6556 74.3545C49.0119 74.355 47.3683 74.3553 45.7247 74.355C45.6627 74.355 45.6007 74.355 45.5369 74.355C45.2228 74.3549 44.9087 74.3549 44.5945 74.3548C44.5322 74.3548 44.4698 74.3548 44.4055 74.3548C44.2793 74.3548 44.1532 74.3548 44.027 74.3547C42.0639 74.3544 40.1008 74.3549 38.1377 74.356C35.9325 74.3572 33.7273 74.3578 31.5221 74.3576C31.287 74.3576 31.0519 74.3576 30.8169 74.3575C30.759 74.3575 30.7011 74.3575 30.6414 74.3575C29.7673 74.3574 28.8931 74.3578 28.0189 74.3585C27.0248 74.3592 26.0307 74.3593 25.0366 74.3585C24.4802 74.3581 23.9238 74.3582 23.3674 74.359C22.9958 74.3595 22.6241 74.3594 22.2524 74.3587C22.0407 74.3583 21.8289 74.3582 21.6172 74.3589C21.3889 74.3597 21.1606 74.359 20.9323 74.3583C20.8668 74.3587 20.8014 74.3591 20.734 74.3596C20.0553 74.3548 19.5141 74.2252 19.0193 73.7464C18.6824 73.396 18.5762 72.9522 18.5254 72.4784C18.5949 71.8293 18.8137 71.339 19.329 70.9228C19.8148 70.6185 20.3741 70.5948 20.9312 70.5985Z" fill="white"/>
<path d="M20.2128 61.4641C20.2742 61.4638 20.3356 61.4634 20.3988 61.4631C20.466 61.4633 20.5332 61.4636 20.6025 61.4638C20.6744 61.4636 20.7462 61.4634 20.8203 61.4632C21.0205 61.4628 21.2207 61.4628 21.4209 61.4631C21.6385 61.4633 21.856 61.4628 22.0736 61.4624C22.4551 61.4618 22.8366 61.4617 23.2182 61.4618C23.7855 61.462 24.3529 61.4615 24.9202 61.4608C25.9924 61.4597 27.0646 61.4594 28.1368 61.4593C28.9647 61.4593 29.7926 61.459 30.6205 61.4586C30.8586 61.4585 31.0967 61.4584 31.3349 61.4583C31.3941 61.4583 31.4533 61.4583 31.5143 61.4582C33.1799 61.4575 34.8455 61.457 36.5111 61.4571C36.5739 61.4571 36.6367 61.4571 36.7014 61.4571C37.0199 61.4571 37.3383 61.4571 37.6567 61.4571C37.72 61.4571 37.7832 61.4571 37.8484 61.4571C37.9763 61.4571 38.1042 61.4572 38.232 61.4572C40.2221 61.4572 42.2121 61.4563 44.2021 61.4547C46.4368 61.4529 48.6716 61.4519 50.9063 61.452C51.1445 61.452 51.3827 61.452 51.6209 61.452C51.7089 61.452 51.7089 61.452 51.7987 61.452C52.7434 61.452 53.6881 61.4513 54.6328 61.4503C55.582 61.4493 56.5311 61.4492 57.4803 61.4499C58.0444 61.4504 58.6085 61.4501 59.1727 61.449C59.5494 61.4483 59.9261 61.4484 60.3028 61.4493C60.5175 61.4497 60.7322 61.4498 60.9469 61.4489C61.1782 61.4479 61.4095 61.4487 61.6408 61.4497C61.7074 61.4491 61.7741 61.4485 61.8428 61.4479C62.4206 61.4531 62.8409 61.6167 63.2653 62.0098C63.6725 62.4639 63.7465 62.9145 63.7415 63.5068C63.7018 64.0175 63.4813 64.4061 63.1043 64.7444C62.6211 65.1278 62.0581 65.1617 61.4631 65.1581C61.3915 65.1583 61.32 65.1586 61.2462 65.1589C61.0482 65.1595 60.8502 65.1593 60.6521 65.1587C60.4365 65.1583 60.2208 65.159 60.0051 65.1595C59.6273 65.1602 59.2495 65.1603 58.8717 65.1599C58.3099 65.1594 57.748 65.1598 57.1862 65.1605C56.1828 65.1617 55.1794 65.1618 54.1759 65.1615C53.2977 65.1612 52.4196 65.1613 51.5414 65.1616C51.4236 65.1616 51.3059 65.1617 51.1881 65.1617C51.0106 65.1618 50.8331 65.1619 50.6556 65.1619C49.0055 65.1626 47.3554 65.1628 45.7053 65.1624C45.6431 65.1624 45.5809 65.1623 45.5168 65.1623C45.0116 65.1622 44.5065 65.162 44.0013 65.1619C42.0307 65.1613 40.06 65.1618 38.0894 65.1631C35.8754 65.1647 33.6614 65.1654 31.4475 65.165C31.2115 65.165 30.9755 65.1649 30.7394 65.1649C30.6813 65.1649 30.6232 65.1649 30.5633 65.1649C29.6858 65.1647 28.8082 65.1652 27.9306 65.166C26.9327 65.1669 25.9349 65.1669 24.937 65.1659C24.3785 65.1653 23.82 65.1654 23.2615 65.1664C22.8885 65.167 22.5154 65.1668 22.1423 65.1658C21.9298 65.1653 21.7173 65.1652 21.5047 65.1661C21.2756 65.1671 21.0464 65.1662 20.8173 65.1652C20.7516 65.1657 20.6859 65.1663 20.6182 65.1669C19.9918 65.161 19.4729 65.0002 19.0166 64.5627C18.6824 64.17 18.5259 63.7175 18.5356 63.2032C18.5801 62.7319 18.7653 62.3049 19.0788 61.9508C19.4169 61.6723 19.7667 61.4644 20.2128 61.4641Z" fill="white"/>
<path d="M20.1985 52.7942C20.2382 52.794 20.278 52.7938 20.3189 52.7936C20.4515 52.793 20.5841 52.7933 20.7167 52.7936C20.813 52.7934 20.9092 52.7931 21.0054 52.7928C21.2695 52.7921 21.5336 52.7921 21.7977 52.7922C22.0827 52.7923 22.3677 52.7916 22.6526 52.791C23.2108 52.7901 23.769 52.7897 24.3272 52.7897C24.7809 52.7896 25.2347 52.7894 25.6885 52.789C26.9752 52.788 28.2618 52.7874 29.5485 52.7875C29.6179 52.7875 29.6873 52.7875 29.7587 52.7875C29.8629 52.7875 29.8629 52.7875 29.9691 52.7875C31.0945 52.7876 32.2199 52.7865 33.3453 52.7848C34.501 52.7831 35.6567 52.7823 36.8124 52.7824C37.4612 52.7824 38.1099 52.7821 38.7587 52.7808C39.3111 52.7798 39.8635 52.7795 40.4159 52.7803C40.6976 52.7807 40.9793 52.7807 41.2611 52.7797C41.5192 52.7787 41.7774 52.7789 42.0355 52.7799C42.1287 52.7801 42.2218 52.7799 42.315 52.7792C42.9661 52.7749 43.5502 52.8085 44.0504 53.2665C44.4873 53.7454 44.5835 54.2378 44.5716 54.8683C44.5494 55.3469 44.354 55.7212 44.0281 56.0674C43.5932 56.4388 43.1204 56.5322 42.5618 56.5326C42.5227 56.5327 42.4836 56.5328 42.4433 56.5329C42.3125 56.5331 42.1817 56.533 42.0508 56.5329C41.956 56.533 41.8612 56.5331 41.7664 56.5333C41.506 56.5336 41.2456 56.5336 40.9851 56.5335C40.7042 56.5335 40.4233 56.5339 40.1424 56.5341C39.5921 56.5346 39.0418 56.5348 38.4915 56.5348C38.0442 56.5349 37.5969 56.535 37.1496 56.5352C35.8816 56.5357 34.6135 56.536 33.3455 56.5359C33.2771 56.5359 33.2087 56.5359 33.1383 56.5359C33.0356 56.5359 33.0356 56.5359 32.9309 56.5359C31.8214 56.5359 30.712 56.5364 29.6026 56.5373C28.4635 56.5381 27.3244 56.5385 26.1854 56.5385C25.5459 56.5384 24.9063 56.5386 24.2668 56.5392C23.7223 56.5398 23.1778 56.5399 22.6333 56.5395C22.3555 56.5393 22.0778 56.5393 21.8 56.5398C21.5456 56.5403 21.2912 56.5402 21.0368 56.5397C20.9448 56.5396 20.8529 56.5397 20.761 56.54C20.0416 56.5424 19.416 56.5258 18.8594 56.0218C18.4893 55.6285 18.356 55.2016 18.3398 54.6672C18.3596 54.0334 18.5574 53.5978 19.0181 53.1632C19.3804 52.8764 19.7417 52.7947 20.1985 52.7942Z" fill="white"/>
<path d="M20.3058 44.1686C20.3886 44.1683 20.4713 44.1679 20.5541 44.1675C20.7808 44.1665 21.0074 44.167 21.2341 44.1677C21.4788 44.1682 21.7236 44.1674 21.9684 44.1668C22.4475 44.1657 22.9267 44.1659 23.4058 44.1666C23.7953 44.1672 24.1847 44.1672 24.5742 44.167C24.6296 44.1669 24.6851 44.1669 24.7422 44.1669C24.8549 44.1668 24.9675 44.1667 25.0802 44.1666C26.1363 44.166 27.1924 44.1667 28.2485 44.168C29.1544 44.1691 30.0604 44.1689 30.9664 44.1678C32.0187 44.1665 33.0711 44.166 34.1234 44.1668C34.2356 44.1668 34.3479 44.1669 34.4601 44.167C34.5429 44.167 34.5429 44.167 34.6274 44.1671C35.0164 44.1673 35.4053 44.1669 35.7943 44.1664C36.2683 44.1657 36.7424 44.1659 37.2164 44.1672C37.4583 44.1678 37.7001 44.168 37.9419 44.1672C38.1634 44.1665 38.3848 44.1669 38.6063 44.1682C38.7242 44.1686 38.842 44.1678 38.9598 44.167C39.4427 44.1712 39.7598 44.2283 40.1433 44.5379C40.5922 45.0523 40.7167 45.5983 40.6861 46.2704C40.6341 46.8063 40.4471 47.1687 40.0914 47.5676C39.6759 47.9075 39.2512 47.8804 38.7356 47.878C38.6529 47.8783 38.5702 47.8786 38.4874 47.879C38.2606 47.8798 38.0339 47.8796 37.8071 47.8792C37.5623 47.8789 37.3175 47.8796 37.0727 47.8802C36.5933 47.8812 36.114 47.8813 35.6346 47.881C35.245 47.8807 34.8553 47.8808 34.4657 47.8811C34.4102 47.8812 34.3548 47.8812 34.2976 47.8813C34.185 47.8814 34.0723 47.8815 33.9596 47.8815C32.9031 47.8824 31.8467 47.882 30.7902 47.8814C29.8237 47.8808 28.8573 47.8815 27.8908 47.8829C26.8983 47.8844 25.9058 47.8849 24.9133 47.8846C24.3561 47.8843 23.799 47.8845 23.2418 47.8855C22.7676 47.8864 22.2933 47.8864 21.819 47.8854C21.5771 47.8849 21.3351 47.8848 21.0932 47.8857C20.8716 47.8865 20.65 47.8862 20.4284 47.8851C20.3105 47.8847 20.1926 47.8856 20.0748 47.8864C19.5917 47.8825 19.2746 47.8256 18.891 47.5158C18.4421 47.0014 18.3179 46.4556 18.348 45.7836C18.3969 45.2838 18.5623 44.9146 18.891 44.5379C19.3427 44.1731 19.7434 44.1647 20.3058 44.1686Z" fill="#165056"/>
<path d="M30.9734 20.9209C32.1283 21.9028 32.8469 23.2563 32.9821 24.7678C33.0499 25.7585 32.8856 26.7008 32.4578 27.5992C32.4 27.7648 32.409 27.8176 32.4663 27.9798C32.5849 28.1137 32.7042 28.2381 32.832 28.3627C32.8892 28.4196 32.8892 28.4196 32.9477 28.4776C33.0306 28.5599 33.1138 28.642 33.1971 28.7239C33.3292 28.8537 33.4607 28.984 33.592 29.1145C33.9185 29.4386 34.2459 29.7617 34.5733 30.0849C34.8497 30.3578 35.1257 30.631 35.4012 30.9048C35.5305 31.0329 35.6603 31.1605 35.7901 31.2881C35.8699 31.3672 35.9496 31.4463 36.0292 31.5254C36.0652 31.5605 36.1012 31.5956 36.1383 31.6318C36.397 31.8903 36.62 32.1522 36.6851 32.5227C36.6787 33.1127 36.5432 33.4046 36.1414 33.8333C35.8065 34.1525 35.4966 34.3516 35.0281 34.3788C34.5327 34.3459 34.2013 34.0547 33.8675 33.7131C33.8277 33.6734 33.788 33.6337 33.747 33.5927C33.6169 33.4624 33.4876 33.3313 33.3583 33.2002C33.2678 33.1093 33.1773 33.0184 33.0867 32.9275C32.8492 32.6891 32.6124 32.45 32.3758 32.2108C32.1338 31.9665 31.8912 31.7228 31.6487 31.479C31.1735 31.0013 30.6991 30.5229 30.2252 30.044C30.1644 30.0685 30.1037 30.0931 30.0411 30.1184C29.9606 30.1508 29.8801 30.1831 29.7996 30.2155C29.7597 30.2317 29.7197 30.2478 29.6786 30.2645C28.3198 30.8104 26.7828 30.804 25.4257 30.2546C24.6789 29.9341 24.078 29.4917 23.5017 28.9234C23.4369 28.8598 23.4369 28.8598 23.3708 28.7949C22.5068 27.8862 22.0336 26.6261 21.9683 25.3847C21.9646 25.3172 21.9646 25.3172 21.9609 25.2484C21.9227 23.7983 22.4566 22.471 23.3837 21.3743C23.4169 21.335 23.45 21.2958 23.4842 21.2554C25.4508 19.1298 28.8096 19.2238 30.9734 20.9209ZM24.4154 22.5453C23.7338 23.4147 23.4347 24.4022 23.5017 25.5027C23.6645 26.6618 24.2002 27.5792 25.0941 28.3336C26.0945 29.0432 27.173 29.2165 28.3745 29.0752C29.089 28.9172 29.7512 28.5325 30.2841 28.0387C30.3457 27.982 30.3457 27.982 30.4085 27.924C31.0924 27.2269 31.449 26.198 31.4784 25.2373C31.463 24.2037 31.0951 23.2633 30.4021 22.4948C30.3729 22.4602 30.3437 22.4257 30.3136 22.39C29.715 21.73 28.7611 21.2535 27.8705 21.1891C26.533 21.1286 25.3247 21.51 24.4154 22.5453Z" fill="white"/>
<path d="M66.0571 25.1268C66.2005 25.1488 66.2005 25.1488 66.3185 25.2668C66.3613 25.6079 66.3055 25.9589 66.2526 26.2961C66.2421 26.3662 66.2421 26.3662 66.2313 26.4376C66.2163 26.5379 66.201 26.6382 66.1856 26.7385C66.1612 26.8974 66.1373 27.0563 66.1135 27.2153C66.046 27.667 65.9774 28.1185 65.9086 28.57C65.8665 28.847 65.8249 29.1241 65.7836 29.4012C65.7601 29.5575 65.736 29.7137 65.7119 29.8699C65.6976 29.9659 65.6833 30.062 65.669 30.158C65.6587 30.2227 65.6587 30.2227 65.6483 30.2887C65.6123 30.5361 65.6148 30.7435 65.6697 30.9876C65.8806 31.0579 66.073 31.056 66.2926 31.0568C66.3605 31.0574 66.3605 31.0574 66.4298 31.058C66.528 31.0588 66.6263 31.0595 66.7246 31.0601C66.88 31.0611 67.0354 31.0625 67.1908 31.064C67.6325 31.0681 68.0743 31.0717 68.516 31.0747C68.7862 31.0766 69.0564 31.079 69.3266 31.0818C69.4297 31.0827 69.5328 31.0835 69.6359 31.084C69.7798 31.0847 69.9237 31.0861 70.0676 31.0877C70.1104 31.0877 70.1533 31.0878 70.1975 31.0878C70.4924 31.0921 70.4924 31.0921 70.6238 31.2235C70.6501 31.4857 70.6136 31.6377 70.4743 31.8589C70.4416 31.9116 70.4089 31.9644 70.3753 32.0187C70.3393 32.075 70.3033 32.1313 70.2663 32.1893C70.2291 32.2488 70.1919 32.3084 70.1536 32.3698C70.0358 32.5583 69.917 32.7461 69.7981 32.9339C69.7252 33.0505 69.6523 33.1671 69.5795 33.2838C69.4337 33.5177 69.2875 33.7513 69.1411 33.9849C68.863 34.4292 68.5887 34.8758 68.3143 35.3224C68.0417 35.766 67.7681 36.209 67.4938 36.6515C67.2814 36.9944 67.0699 37.3379 66.8587 37.6816C66.4782 38.301 66.0953 38.9188 65.7092 39.5347C65.3838 40.0543 65.0625 40.5764 64.7424 41.0993C64.6391 41.2677 64.5353 41.4357 64.4312 41.6036C64.4068 41.6435 64.3825 41.6835 64.3574 41.7246C64.2959 41.8224 64.2959 41.8224 64.1953 41.9575C64.0404 41.9869 64.0404 41.9869 63.9004 41.9575C63.7824 41.8395 63.7824 41.8395 63.7787 41.7327C63.8237 41.3857 63.8974 41.053 63.9877 40.7151C64.0026 40.6583 64.0175 40.6014 64.0328 40.5428C64.0818 40.3558 64.1314 40.1688 64.181 39.9819C64.2156 39.8502 64.2503 39.7184 64.2849 39.5866C64.3761 39.2395 64.4678 38.8926 64.5596 38.5456C64.6333 38.2667 64.7067 37.9876 64.7801 37.7086C64.9178 37.1849 65.0556 36.6612 65.194 36.1376C65.2255 36.0184 65.2569 35.8992 65.2883 35.78C65.3736 35.4567 65.4613 35.1343 65.5518 34.8124C65.5712 34.7426 65.5906 34.6728 65.6106 34.6009C65.6481 34.4662 65.6861 34.3317 65.7247 34.1974C65.7415 34.1367 65.7583 34.076 65.7757 34.0135C65.7908 33.9601 65.806 33.9067 65.8216 33.8516C65.8494 33.6842 65.8341 33.5681 65.7877 33.4057C65.6695 33.2876 65.431 33.337 65.2691 33.3365C65.2209 33.3361 65.1728 33.3357 65.1232 33.3353C65.0183 33.3344 64.9134 33.3337 64.8086 33.3332C64.6428 33.3322 64.477 33.3308 64.3112 33.3293C63.8398 33.3251 63.3683 33.3216 62.8968 33.3186C62.6088 33.3167 62.3208 33.3143 62.0328 33.3115C61.9228 33.3105 61.8127 33.3098 61.7027 33.3093C61.5491 33.3086 61.3954 33.3072 61.2418 33.3056C61.196 33.3056 61.1502 33.3055 61.103 33.3055C60.788 33.3012 60.788 33.3012 60.6566 33.1698C60.6297 32.9847 60.6437 32.8966 60.7395 32.7346C60.7973 32.6612 60.7973 32.6612 60.8563 32.5862C61.0471 32.3355 61.2287 32.0825 61.4023 31.82C61.4264 31.7838 61.4504 31.7476 61.4752 31.7103C61.5259 31.6337 61.5767 31.5571 61.6273 31.4805C61.7691 31.2663 61.9114 31.0524 62.0536 30.8385C62.0837 30.7933 62.1138 30.7481 62.1447 30.7015C62.4978 30.1711 62.8543 29.643 63.2111 29.1151C63.2441 29.0661 63.2772 29.0172 63.3113 28.9668C63.4454 28.7682 63.5796 28.5697 63.7139 28.3711C63.9537 28.0164 64.1933 27.6615 64.4328 27.3066C64.5329 27.1582 64.633 27.0099 64.7331 26.8616C64.7963 26.768 64.8594 26.6743 64.9226 26.5807C64.9525 26.5364 64.9824 26.492 65.0132 26.4464C65.0421 26.4034 65.0711 26.3605 65.1009 26.3162C65.1828 26.1952 65.265 26.0745 65.3473 25.9538C65.4388 25.8193 65.5276 25.6841 65.6152 25.5468C65.6505 25.4926 65.6858 25.4383 65.7222 25.3824C65.7511 25.3365 65.78 25.2906 65.8098 25.2433C65.9056 25.1488 65.9056 25.1488 66.0571 25.1268Z" fill="white"/>
</svg>
