<svg width="91" height="96" viewBox="0 0 91 96" fill="none" xmlns="http://www.w3.org/2000/svg">
<path d="M16.7544 8.80233C16.846 8.80214 16.846 8.80214 16.9395 8.80195C17.1433 8.80161 17.3471 8.80169 17.5508 8.80178C17.6988 8.80162 17.8467 8.80144 17.9947 8.80124C18.358 8.8008 18.7214 8.80064 19.0847 8.80061C19.5202 8.80056 19.9556 8.80015 20.3911 8.79974C21.443 8.79877 22.495 8.79841 23.547 8.79812C24.0448 8.79798 24.5425 8.79776 25.0402 8.79754C26.7445 8.79676 28.4488 8.79611 30.1531 8.7959C30.26 8.79589 30.3669 8.79588 30.4737 8.79586C30.5809 8.79585 30.688 8.79584 30.7952 8.79582C31.0101 8.7958 31.2251 8.79577 31.44 8.79574C31.4933 8.79573 31.5466 8.79573 31.6015 8.79572C33.3307 8.7955 35.0599 8.79454 36.789 8.79313C38.6179 8.79164 40.4468 8.79081 42.2757 8.79074C42.4764 8.79073 42.6771 8.79071 42.8778 8.7907C42.9272 8.79069 42.9766 8.79069 43.0276 8.79069C43.8229 8.79062 44.6182 8.78995 45.4136 8.78907C46.2126 8.7882 47.0117 8.788 47.8108 8.78849C48.2855 8.78876 48.7602 8.78853 49.2349 8.78757C49.5893 8.78691 49.9437 8.7872 50.2982 8.78786C50.4416 8.78798 50.585 8.78779 50.7284 8.78726C50.9232 8.78659 51.1181 8.78704 51.3129 8.78777C51.3686 8.78731 51.4243 8.78685 51.4817 8.78638C52.0819 8.79121 52.5935 8.93579 53.0346 9.355C53.4455 9.79674 53.6209 10.2756 53.5998 10.8785C53.5313 11.4489 53.2835 11.8831 52.853 12.2602C52.3718 12.5885 51.8327 12.6414 51.2659 12.6385C51.1744 12.6387 51.1744 12.6387 51.081 12.639C50.8764 12.6394 50.6718 12.639 50.4672 12.6386C50.3191 12.6387 50.171 12.6389 50.0229 12.6391C49.7008 12.6395 49.3786 12.6395 49.0565 12.6392C48.5775 12.6387 48.0984 12.639 47.6194 12.6393C46.8133 12.64 46.0073 12.6401 45.2012 12.6399C44.0493 12.6397 42.8973 12.6405 41.7454 12.6416C41.283 12.642 40.8206 12.6423 40.3582 12.6427C40.2811 12.6428 40.2811 12.6428 40.2025 12.6428C38.9798 12.6438 37.7571 12.6445 36.5344 12.645C36.4809 12.645 36.4275 12.6451 36.3723 12.6451C35.1245 12.6457 33.8766 12.6461 32.6288 12.6462C32.5483 12.6462 32.5483 12.6462 32.4662 12.6462C32.1956 12.6463 31.925 12.6463 31.6545 12.6463C31.601 12.6463 31.5475 12.6464 31.4924 12.6464C31.3845 12.6464 31.2766 12.6464 31.1687 12.6464C29.3848 12.6466 27.6009 12.6476 25.817 12.6496C25.5649 12.6498 25.3129 12.6501 25.0609 12.6503C25.0113 12.6504 24.9617 12.6504 24.9106 12.6505C24.113 12.6513 23.3154 12.6511 22.5178 12.6507C21.7159 12.6502 20.914 12.6506 20.1121 12.6518C19.636 12.6526 19.1599 12.6526 18.6837 12.6517C18.3278 12.6511 17.9719 12.6517 17.616 12.6529C17.4723 12.6531 17.3286 12.653 17.1849 12.6524C15.8779 12.6473 14.828 12.8257 13.8589 13.7783C13.2514 14.4274 12.8964 15.2722 12.899 16.1608C12.8988 16.2285 12.8988 16.2285 12.8987 16.2975C12.8984 16.4495 12.8985 16.6015 12.8987 16.7535C12.8985 16.8637 12.8984 16.974 12.8982 17.0842C12.8978 17.3889 12.8978 17.6935 12.8979 17.9982C12.8979 18.329 12.8975 18.6598 12.8972 18.9906C12.8966 19.6474 12.8964 20.3043 12.8963 20.9612C12.8961 21.7477 12.8956 22.5342 12.895 23.3207C12.8938 25.2218 12.8931 27.123 12.8926 29.0241C12.8924 29.6537 12.8922 30.2833 12.892 30.9128C12.892 30.9795 12.892 30.9795 12.892 31.0474C12.8919 31.2271 12.8918 31.4068 12.8918 31.5864C12.8907 34.6599 12.8897 37.7333 12.8893 40.8068C12.8893 41.0482 12.8892 41.2896 12.8892 41.5311C12.8892 41.6029 12.8892 41.6029 12.8892 41.6762C12.8891 42.1614 12.889 42.6466 12.8889 43.1319C12.8889 43.2292 12.8889 43.3264 12.8889 43.4237C12.8884 46.5481 12.8871 49.6725 12.8851 52.7968C12.8837 55.0417 12.8824 57.2865 12.882 59.5313C12.882 59.5775 12.8819 59.6237 12.8819 59.6712C12.8817 60.6848 12.8816 61.6983 12.8816 62.7119C12.8815 63.1197 12.8815 63.5275 12.8815 63.9353C12.8815 63.98 12.8815 64.0246 12.8815 64.0706C12.8813 65.5081 12.8805 66.9457 12.8792 68.3832C12.878 69.8313 12.8775 71.2794 12.8781 72.7275C12.8784 73.626 12.8782 74.5244 12.8768 75.4229C12.876 75.996 12.876 76.5691 12.8768 77.1422C12.8772 77.4688 12.8772 77.7954 12.8762 78.122C12.8753 78.4194 12.8755 78.7168 12.8765 79.0141C12.8767 79.1208 12.8765 79.2275 12.8758 79.3342C12.8689 80.5191 13.1498 81.4977 14.0012 82.3639C14.6178 82.9409 15.448 83.3231 16.2986 83.3239C16.3726 83.3241 16.4466 83.3243 16.5228 83.3245C16.6049 83.3244 16.687 83.3244 16.7691 83.3243C16.8567 83.3244 16.9443 83.3246 17.0319 83.3248C17.2737 83.3252 17.5155 83.3253 17.7573 83.3253C18.0199 83.3253 18.2826 83.3257 18.5452 83.3261C19.0666 83.3268 19.5881 83.3271 20.1095 83.3274C20.7339 83.3277 21.3583 83.3283 21.9827 83.329C23.492 83.3305 25.0014 83.3314 26.5107 83.3322C27.0106 83.3325 27.5105 83.3327 28.0104 83.333C30.6681 83.3346 33.3258 83.3359 35.9835 83.3366C36.5993 83.3368 37.2151 83.337 37.831 83.3372C37.9075 83.3372 37.984 83.3372 38.0628 83.3373C40.5434 83.338 43.0239 83.3399 45.5045 83.3424C48.0544 83.345 50.6042 83.3466 53.1541 83.3469C53.5142 83.3469 53.8744 83.347 54.2345 83.3471C54.3054 83.3471 54.3763 83.3471 54.4493 83.3471C55.59 83.3473 56.7307 83.3485 57.8715 83.3501C59.0181 83.3517 60.1648 83.3522 61.3115 83.3515C61.9927 83.3512 62.6738 83.3516 63.355 83.3533C63.8103 83.3544 64.2656 83.3543 64.7208 83.3534C64.9801 83.3529 65.2393 83.3528 65.4985 83.3541C65.7349 83.3553 65.9712 83.3551 66.2076 83.3538C66.3316 83.3534 66.4555 83.3546 66.5795 83.3558C67.4362 83.3479 68.2045 83.1098 68.892 82.5897C68.936 82.5567 68.98 82.5237 69.0253 82.4897C69.7602 81.8937 70.131 81.0226 70.2841 80.1082C70.3079 79.7891 70.3083 79.4715 70.3066 79.1518C70.3067 79.0575 70.3069 78.9632 70.3073 78.8688C70.3079 78.6117 70.3074 78.3546 70.3067 78.0975C70.3062 77.8195 70.3067 77.5414 70.3071 77.2633C70.3076 76.7821 70.3075 76.3008 70.3071 75.8196C70.3064 75.1231 70.3069 74.4266 70.3078 73.7301C70.3093 72.5989 70.3101 71.4678 70.3103 70.3366C70.3103 70.2352 70.3103 70.2352 70.3104 70.1317C70.3105 69.377 70.3105 68.6224 70.3105 67.8677C70.3105 67.5939 70.3104 67.3201 70.3104 67.0462C70.3104 66.9787 70.3104 66.9111 70.3104 66.8415C70.3104 65.7143 70.3113 64.587 70.3129 63.4598C70.3139 62.7651 70.314 62.0704 70.3131 61.3758C70.3125 60.8998 70.3128 60.4239 70.3138 59.948C70.3143 59.6736 70.3144 59.3992 70.3135 59.1247C70.3126 58.8733 70.3129 58.6218 70.3141 58.3703C70.3143 58.2796 70.3141 58.1889 70.3134 58.0983C70.3088 57.394 70.3849 56.7741 70.8893 56.2447C71.3642 55.8357 71.814 55.7544 72.4261 55.7608C72.9057 55.7971 73.2785 55.9913 73.6276 56.3178C73.9457 56.6924 74.1045 57.1271 74.1052 57.6128C74.1054 57.652 74.1055 57.6912 74.1057 57.7315C74.1061 57.8638 74.106 57.996 74.106 58.1282C74.1062 58.2236 74.1064 58.3191 74.1067 58.4145C74.1073 58.6774 74.1075 58.9403 74.1077 59.2033C74.1079 59.4866 74.1085 59.7699 74.109 60.0533C74.1102 60.7382 74.1108 61.4231 74.1114 62.1081C74.1116 62.4308 74.112 62.7536 74.1123 63.0763C74.1133 64.1498 74.1142 65.2232 74.1146 66.2967C74.1147 66.5754 74.1148 66.8541 74.115 67.1328C74.115 67.2021 74.115 67.2713 74.1151 67.3427C74.1156 68.463 74.1171 69.5833 74.1191 70.7036C74.1211 71.8545 74.1222 73.0054 74.1223 74.1564C74.1225 74.8022 74.123 75.4481 74.1245 76.094C74.1259 76.6445 74.1264 77.195 74.1258 77.7456C74.1255 78.026 74.1256 78.3065 74.1268 78.587C74.1354 80.7472 74.1354 80.7472 73.855 81.7424C73.8378 81.8046 73.8378 81.8046 73.8202 81.8682C73.4884 83.0587 72.8204 84.0575 71.9787 84.9502C71.9386 84.9949 71.8985 85.0396 71.8572 85.0856C70.6451 86.383 68.8158 87.0662 67.0763 87.1896C66.7871 87.198 66.4981 87.1978 66.2088 87.1973C66.1215 87.1974 66.0342 87.1975 65.9469 87.1977C65.7073 87.198 65.4677 87.1979 65.2281 87.1977C64.9673 87.1976 64.7065 87.1979 64.4457 87.1981C63.9887 87.1984 63.5317 87.1985 63.0748 87.1984C62.3952 87.1983 61.7156 87.1986 61.0361 87.1989C59.7517 87.1995 58.4673 87.1996 57.183 87.1997C56.1911 87.1997 55.1992 87.1998 54.2073 87.2C53.9218 87.2001 53.6363 87.2001 53.3508 87.2002C53.2798 87.2002 53.2088 87.2002 53.1357 87.2002C51.1392 87.2006 49.1427 87.2008 47.1461 87.2008C47.0708 87.2008 46.9956 87.2008 46.918 87.2008C46.5365 87.2008 46.1549 87.2008 45.7734 87.2008C45.6597 87.2008 45.6597 87.2008 45.5437 87.2008C45.3905 87.2008 45.2373 87.2008 45.084 87.2008C42.7001 87.2007 40.3161 87.2012 37.9321 87.202C35.2538 87.203 32.5755 87.2035 29.8972 87.2034C29.6115 87.2034 29.3259 87.2034 29.0403 87.2034C28.9699 87.2034 28.8996 87.2034 28.8271 87.2034C27.6956 87.2034 26.5641 87.2038 25.4326 87.2043C24.2953 87.2048 23.1579 87.2049 22.0205 87.2045C21.345 87.2043 20.6695 87.2044 19.994 87.205C19.5424 87.2053 19.0909 87.2053 18.6393 87.2048C18.3822 87.2046 18.1252 87.2045 17.8681 87.205C15.6163 87.209 13.459 86.9861 11.6963 85.4344C11.6475 85.3936 11.5988 85.3527 11.5485 85.3107C10.0845 84.0529 9.21209 82.2257 9.04549 80.3113C9.01963 79.8833 9.02479 79.4545 9.02526 79.026C9.02516 78.916 9.02504 78.806 9.02489 78.6959C9.02455 78.3936 9.02459 78.0912 9.02469 77.7889C9.02474 77.4599 9.02443 77.131 9.02417 76.8021C9.02372 76.1497 9.02358 75.4972 9.02355 74.8448C9.02349 74.0633 9.02309 73.2819 9.02268 72.5004C9.02173 70.6565 9.02136 68.8126 9.02108 66.9688C9.02094 66.0304 9.02071 65.0921 9.02048 64.1537C9.01971 61.1428 9.01906 58.132 9.01885 55.1211C9.01884 54.9772 9.01883 54.8334 9.01882 54.6895C9.0188 54.401 9.01878 54.1125 9.01876 53.824C9.01874 53.4862 9.01871 53.1484 9.01869 52.8107C9.01868 52.714 9.01868 52.6173 9.01867 52.5206C9.01845 49.4163 9.01754 46.312 9.01613 43.2077C9.01512 40.9767 9.01418 38.7457 9.01391 36.5146C9.0139 36.4687 9.0139 36.4228 9.01389 36.3755C9.01377 35.3677 9.0137 34.3598 9.01368 33.352C9.01367 32.9913 9.01366 32.6306 9.01364 32.27C9.01364 32.1803 9.01363 32.0905 9.01363 32.0008C9.01357 30.5727 9.01297 29.1445 9.01209 27.7163C9.01118 26.2372 9.01093 24.7582 9.01143 23.2791C9.0117 22.4268 9.01147 21.5745 9.01051 20.7222C9.00992 20.1525 9.00999 19.5828 9.01059 19.0131C9.01092 18.6887 9.01096 18.3644 9.0102 18.04C9.00951 17.7443 9.00967 17.4485 9.01048 17.1527C9.01063 17.0471 9.01048 16.9414 9.00997 16.8358C9.00562 15.8575 9.06912 14.8369 9.40393 13.9095C9.422 13.8576 9.44007 13.8058 9.45869 13.7524C10.1284 11.9038 11.5 10.3842 13.2732 9.53799C14.3956 9.02233 15.5223 8.79995 16.7544 8.80233Z" fill="white"/>
<path d="M54.5626 18.8935C54.6575 18.8923 54.6575 18.8923 54.7542 18.8912C54.8222 18.8913 54.8902 18.8915 54.9602 18.8917C55.0303 18.8914 55.1005 18.8911 55.1727 18.8907C55.321 18.8904 55.4693 18.8904 55.6176 18.891C55.8445 18.8915 56.0713 18.8897 56.2982 18.8878C56.4423 18.8877 56.5864 18.8877 56.7305 18.8879C56.7984 18.8872 56.8662 18.8866 56.9361 18.8859C57.4067 18.8901 57.4067 18.8901 57.646 19.0333C57.8428 19.2602 57.8229 19.4157 57.8202 19.7123C57.8197 19.7899 57.8191 19.8674 57.8186 19.9473C57.8179 20.0071 57.8172 20.0669 57.8164 20.1284C57.8663 20.1284 57.9161 20.1283 57.9674 20.1282C60.919 20.1242 63.8706 20.1211 66.8222 20.1192C67.1764 20.1189 67.5306 20.1187 67.8848 20.1185C67.9553 20.1184 68.0258 20.1184 68.0984 20.1183C69.2411 20.1175 70.3837 20.1161 71.5264 20.1144C72.6983 20.1127 73.8702 20.1117 75.0421 20.1114C75.7656 20.1111 76.4891 20.1103 77.2126 20.1088C77.7083 20.1079 78.204 20.1076 78.6997 20.1078C78.986 20.1079 79.2723 20.1078 79.5585 20.1068C79.8204 20.1059 80.0823 20.1059 80.3442 20.1065C80.4391 20.1066 80.534 20.1063 80.6289 20.1058C80.7577 20.105 80.8864 20.1054 81.0151 20.1061C81.0867 20.106 81.1583 20.106 81.2321 20.1059C81.4968 20.1375 81.6555 20.2339 81.8318 20.4309C81.9448 20.7107 81.9311 20.9814 81.9293 21.2803C81.9295 21.345 81.9297 21.4097 81.9298 21.4763C81.93 21.6128 81.9296 21.7494 81.9289 21.8859C81.9279 22.0947 81.9289 22.3035 81.93 22.5123C81.9299 22.6451 81.9297 22.7779 81.9293 22.9107C81.9297 22.973 81.9301 23.0354 81.9304 23.0996C81.925 23.655 81.925 23.655 81.7236 23.881C81.5122 24.0188 81.331 24.0171 81.0822 24.0169C81.0419 24.017 81.0017 24.0172 80.9602 24.0173C80.8248 24.0177 80.6894 24.0171 80.554 24.0166C80.4562 24.0166 80.3584 24.0167 80.2605 24.0169C79.9913 24.0172 79.722 24.0167 79.4527 24.0161C79.1625 24.0155 78.8723 24.0157 78.5821 24.0158C78.0792 24.0159 77.5762 24.0155 77.0733 24.0148C76.3461 24.0138 75.6189 24.0135 74.8917 24.0134C73.7119 24.0131 72.5322 24.0123 71.3524 24.0111C70.2063 24.01 69.0601 24.0092 67.914 24.0087C67.8433 24.0086 67.7727 24.0086 67.6999 24.0086C67.3457 24.0084 66.9914 24.0083 66.6371 24.0081C63.6969 24.0068 60.7566 24.0047 57.8164 24.002C57.8165 24.055 57.8166 24.1081 57.8167 24.1627C57.8221 27.3038 57.8263 30.445 57.8288 33.5861C57.8291 33.963 57.8294 34.3399 57.8297 34.7168C57.8298 34.7919 57.8299 34.8669 57.8299 34.9442C57.831 36.1602 57.8329 37.3762 57.8351 38.5923C57.8374 39.8394 57.8387 41.0866 57.8392 42.3337C57.8395 43.1037 57.8406 43.8736 57.8426 44.6436C57.8438 45.1711 57.8442 45.6987 57.8439 46.2262C57.8438 46.5308 57.844 46.8355 57.8453 47.1401C57.8465 47.4188 57.8465 47.6975 57.8457 47.9762C57.8456 48.0772 57.8459 48.1783 57.8467 48.2793C57.8476 48.4163 57.8471 48.5532 57.8462 48.6902C57.8463 48.7664 57.8464 48.8426 57.8465 48.9211C57.811 49.1557 57.7395 49.2552 57.5743 49.4223C57.4221 49.4984 57.3147 49.4922 57.1443 49.4945C57.0477 49.496 57.0477 49.496 56.949 49.4975C56.6541 49.5001 56.3593 49.5026 56.0644 49.504C55.9088 49.505 55.7531 49.5067 55.5975 49.509C55.3734 49.5123 55.1493 49.5136 54.9252 49.5145C54.8557 49.5159 54.7861 49.5173 54.7144 49.5187C54.2321 49.5174 54.2321 49.5174 53.9912 49.3409C53.8164 49.0829 53.8143 48.8914 53.8144 48.5859C53.8143 48.5435 53.8142 48.5011 53.8142 48.4574C53.814 48.3142 53.8143 48.171 53.8145 48.0278C53.8145 47.9246 53.8145 47.8213 53.8144 47.7181C53.8142 47.4335 53.8145 47.1489 53.8148 46.8643C53.815 46.5577 53.815 46.2511 53.8149 45.9445C53.8149 45.4131 53.8151 44.8816 53.8154 44.3502C53.8159 43.5818 53.8161 42.8134 53.8161 42.045C53.8163 40.7984 53.8167 39.5518 53.8172 38.3052C53.8178 37.0941 53.8182 35.8829 53.8185 34.6718C53.8185 34.5971 53.8185 34.5225 53.8185 34.4456C53.8186 34.0713 53.8187 33.697 53.8188 33.3227C53.8194 30.2158 53.8205 27.1089 53.8218 24.002C53.7582 24.0039 53.7582 24.0039 53.6933 24.0059C53.5003 24.0109 53.3074 24.014 53.1144 24.0171C53.0477 24.0192 52.9809 24.0212 52.9122 24.0233C52.4154 24.0293 52.4154 24.0293 52.1762 23.888C51.9016 23.5671 51.927 23.2353 51.9273 22.8315C51.9271 22.771 51.9268 22.7105 51.9266 22.6481C51.9262 22.5204 51.9262 22.3926 51.9264 22.2649C51.9266 22.0699 51.9252 21.875 51.9237 21.68C51.9235 21.5557 51.9235 21.4313 51.9236 21.307C51.923 21.2489 51.9224 21.1909 51.9219 21.131C51.9241 20.8147 51.9383 20.5772 52.1271 20.31C52.3396 20.1416 52.4959 20.1062 52.7638 20.1107C52.8256 20.1113 52.8875 20.1119 52.9512 20.1125C53.047 20.1148 53.047 20.1148 53.1447 20.1171C53.2422 20.1183 53.2422 20.1183 53.3418 20.1196C53.5018 20.1217 53.6618 20.1247 53.8218 20.1284C53.8187 20.0551 53.8187 20.0551 53.8154 19.9802C53.8138 19.9155 53.8122 19.8508 53.8105 19.7842C53.8073 19.6884 53.8073 19.6884 53.8041 19.5906C53.8287 19.3286 53.9176 19.1775 54.1112 19.0016C54.2743 18.9 54.3715 18.8946 54.5626 18.8935Z" fill="white"/>
<path d="M21.4669 72.2174C21.5767 72.217 21.5767 72.217 21.6886 72.2166C21.8907 72.2161 22.0928 72.2164 22.2949 72.2171C22.5151 72.2176 22.7353 72.2171 22.9555 72.2167C23.3412 72.2161 23.7268 72.2162 24.1125 72.2168C24.6859 72.2176 25.2594 72.2174 25.8329 72.217C26.8571 72.2162 27.8813 72.2166 28.9055 72.2173C29.8018 72.2179 30.698 72.2182 31.5943 72.2181C31.6834 72.2181 31.6834 72.2181 31.7744 72.2181C32.0157 72.2181 32.2571 72.2181 32.4984 72.218C34.7621 72.2178 37.0257 72.2186 39.2894 72.2198C41.3008 72.2209 43.3122 72.2213 45.3235 72.221C45.4527 72.2209 45.5819 72.2209 45.711 72.2209C45.8068 72.2209 45.8068 72.2209 45.9045 72.2209C46.226 72.2208 46.5474 72.2208 46.8689 72.2207C46.9323 72.2207 46.9957 72.2207 47.0611 72.2207C48.7416 72.2204 50.4221 72.2208 52.1027 72.2213C52.2835 72.2213 52.4643 72.2214 52.6451 72.2214C52.7651 72.2215 52.885 72.2215 53.0049 72.2216C53.8414 72.2218 54.6778 72.2218 55.5142 72.2217C56.592 72.2216 57.6697 72.2218 58.7475 72.2228C59.3175 72.2233 59.8876 72.2234 60.4576 72.2231C60.8383 72.2229 61.2189 72.2232 61.5996 72.2238C61.8165 72.2241 62.0335 72.2243 62.2504 72.2239C62.4842 72.2235 62.7179 72.224 62.9516 72.2247C63.0189 72.2244 63.0862 72.2241 63.1556 72.2238C63.8244 72.2272 64.3497 72.3178 64.8482 72.7876C65.3266 73.2939 65.4199 73.6853 65.4034 74.3811C65.3539 74.9027 65.0947 75.2769 64.7168 75.6294C64.1972 76.0396 63.6591 76.071 63.0186 76.0685C62.9091 76.0688 62.9091 76.0688 62.7974 76.0691C62.5948 76.0695 62.3923 76.0694 62.1898 76.069C61.9694 76.0688 61.749 76.0692 61.5286 76.0696C61.1424 76.0701 60.7562 76.0702 60.3699 76.07C59.7956 76.0697 59.2213 76.07 58.6469 76.0705C57.5615 76.0715 56.4761 76.0716 55.3907 76.0714C54.5525 76.0713 53.7144 76.0714 52.8762 76.0717C52.7559 76.0717 52.6355 76.0717 52.5151 76.0718C52.3337 76.0718 52.1523 76.0719 51.9709 76.0719C50.2842 76.0724 48.5974 76.0727 46.9107 76.0725C46.8471 76.0724 46.7835 76.0724 46.718 76.0724C46.3956 76.0724 46.0733 76.0723 45.7509 76.0723C45.6869 76.0723 45.6229 76.0723 45.5569 76.0722C45.4275 76.0722 45.298 76.0722 45.1685 76.0722C43.1539 76.0719 41.1393 76.0723 39.1247 76.0735C36.8617 76.0747 34.5987 76.0754 32.3357 76.0751C32.0944 76.0751 31.8531 76.0751 31.6119 76.075C31.5525 76.075 31.4931 76.075 31.4319 76.075C30.5348 76.075 29.6377 76.0754 28.7406 76.076C27.7204 76.0767 26.7002 76.0768 25.68 76.0761C25.109 76.0757 24.5381 76.0758 23.9671 76.0766C23.5857 76.0771 23.2043 76.0769 22.8228 76.0762C22.6055 76.0759 22.3882 76.0758 22.1709 76.0765C21.9366 76.0772 21.7024 76.0766 21.4681 76.0758C21.4009 76.0762 21.3338 76.0767 21.2646 76.0771C20.568 76.0723 20.0127 75.9392 19.5049 75.4479C19.1592 75.0883 19.0501 74.6328 18.998 74.1466C19.0694 73.4805 19.294 72.9773 19.8227 72.5502C20.3212 72.238 20.8952 72.2136 21.4669 72.2174Z" fill="white"/>
<path d="M20.7295 62.8434C20.7925 62.8431 20.8555 62.8428 20.9204 62.8424C20.9893 62.8427 21.0583 62.8429 21.1294 62.8432C21.2031 62.8429 21.2769 62.8427 21.3529 62.8425C21.5583 62.8421 21.7638 62.8421 21.9693 62.8424C22.1925 62.8426 22.4158 62.8421 22.639 62.8417C23.0306 62.8411 23.4221 62.8409 23.8137 62.841C24.3959 62.8412 24.9781 62.8407 25.5604 62.8401C26.6607 62.8389 27.761 62.8386 28.8613 62.8385C29.7109 62.8385 30.5605 62.8382 31.4101 62.8378C31.6545 62.8377 31.8988 62.8376 32.1432 62.8375C32.204 62.8375 32.2647 62.8374 32.3273 62.8374C34.0366 62.8367 35.7459 62.8362 37.4552 62.8362C37.5196 62.8362 37.5841 62.8363 37.6505 62.8363C37.9773 62.8363 38.3041 62.8363 38.6309 62.8363C38.6958 62.8363 38.7607 62.8363 38.8276 62.8363C38.9588 62.8363 39.0901 62.8363 39.2213 62.8363C41.2635 62.8364 43.3057 62.8355 45.3479 62.8338C47.6413 62.832 49.9346 62.8309 52.228 62.831C52.4724 62.831 52.7169 62.831 52.9614 62.831C53.0516 62.8311 53.0516 62.8311 53.1438 62.8311C54.1132 62.8311 55.0827 62.8303 56.0522 62.8292C57.0263 62.8282 58.0003 62.8281 58.9744 62.8289C59.5533 62.8293 60.1322 62.8291 60.7112 62.8279C61.0977 62.8272 61.4843 62.8274 61.8709 62.8282C62.0912 62.8287 62.3116 62.8288 62.5319 62.8278C62.7693 62.8268 63.0066 62.8276 63.244 62.8286C63.3124 62.828 63.3808 62.8274 63.4513 62.8268C64.0443 62.8321 64.4756 63 64.9112 63.4035C65.329 63.8695 65.4049 64.3319 65.3998 64.9397C65.3591 65.4638 65.1327 65.8626 64.7459 66.2098C64.2501 66.6032 63.6723 66.638 63.0617 66.6343C62.9882 66.6346 62.9147 66.6348 62.8391 66.6351C62.6358 66.6357 62.4326 66.6355 62.2294 66.635C62.0081 66.6345 61.7867 66.6352 61.5654 66.6357C61.1777 66.6365 60.79 66.6365 60.4023 66.6362C59.8257 66.6356 59.2492 66.6361 58.6726 66.6368C57.6428 66.638 56.6131 66.6381 55.5833 66.6378C54.6821 66.6375 53.7809 66.6376 52.8798 66.6379C52.7589 66.638 52.638 66.638 52.5171 66.638C52.335 66.6381 52.1529 66.6382 51.9707 66.6383C50.2773 66.6389 48.5839 66.6392 46.8905 66.6387C46.8267 66.6387 46.7629 66.6387 46.6971 66.6387C46.1787 66.6385 45.6603 66.6384 45.1419 66.6382C43.1195 66.6376 41.0972 66.6381 39.0749 66.6395C36.8028 66.6411 34.5308 66.6418 32.2588 66.6414C32.0166 66.6414 31.7744 66.6413 31.5322 66.6413C31.4725 66.6413 31.4129 66.6413 31.3515 66.6413C30.4509 66.6411 29.5503 66.6416 28.6497 66.6424C27.6256 66.6433 26.6016 66.6434 25.5775 66.6423C25.0044 66.6417 24.4313 66.6418 23.8582 66.6428C23.4753 66.6435 23.0925 66.6432 22.7096 66.6423C22.4915 66.6417 22.2734 66.6416 22.0553 66.6425C21.8201 66.6435 21.585 66.6426 21.3498 66.6416C21.2824 66.6421 21.215 66.6427 21.1455 66.6433C20.5027 66.6373 19.9702 66.4722 19.5019 66.0233C19.1589 65.6203 18.9983 65.1559 19.0082 64.6281C19.0539 64.1445 19.244 63.7063 19.5657 63.3429C19.9127 63.0571 20.2716 62.8437 20.7295 62.8434Z" fill="white"/>
<path d="M20.716 53.9461C20.7568 53.9459 20.7975 53.9457 20.8395 53.9455C20.9756 53.9449 21.1117 53.9452 21.2478 53.9455C21.3466 53.9453 21.4453 53.945 21.5441 53.9446C21.8151 53.9439 22.0861 53.9439 22.3572 53.9441C22.6496 53.9441 22.942 53.9434 23.2345 53.9428C23.8073 53.9418 24.3801 53.9415 24.953 53.9414C25.4186 53.9414 25.8843 53.9411 26.3499 53.9408C27.6704 53.9397 28.9908 53.9391 30.3113 53.9392C30.3824 53.9392 30.4536 53.9392 30.527 53.9392C30.6338 53.9392 30.6338 53.9392 30.7429 53.9392C31.8978 53.9393 33.0527 53.9381 34.2076 53.9364C35.3936 53.9347 36.5796 53.9339 37.7656 53.934C38.4314 53.934 39.0972 53.9337 39.763 53.9324C40.3299 53.9313 40.8967 53.931 41.4636 53.9318C41.7527 53.9322 42.0419 53.9322 42.331 53.9312C42.5959 53.9302 42.8608 53.9304 43.1258 53.9315C43.2214 53.9316 43.317 53.9314 43.4125 53.9307C44.0807 53.9263 44.6801 53.9608 45.1935 54.4307C45.6418 54.9222 45.7406 55.4275 45.7283 56.0746C45.7056 56.5658 45.505 56.9499 45.1706 57.3052C44.7243 57.6862 44.2391 57.7822 43.6658 57.7825C43.6257 57.7826 43.5856 57.7827 43.5442 57.7828C43.41 57.7831 43.2757 57.783 43.1415 57.7828C43.0442 57.7829 42.9469 57.7831 42.8496 57.7832C42.5823 57.7836 42.3151 57.7836 42.0478 57.7835C41.7596 57.7835 41.4713 57.7838 41.183 57.7841C40.6183 57.7846 40.0535 57.7848 39.4888 57.7848C39.0298 57.7849 38.5707 57.785 38.1117 57.7852C36.8104 57.7857 35.5091 57.786 34.2078 57.7859C34.1376 57.7859 34.0674 57.7859 33.9952 57.7859C33.8898 57.7859 33.8898 57.7859 33.7823 57.7859C32.6438 57.7859 31.5052 57.7865 30.3667 57.7873C29.1978 57.7882 28.0288 57.7886 26.8599 57.7886C26.2036 57.7885 25.5473 57.7887 24.891 57.7894C24.3322 57.7899 23.7734 57.79 23.2147 57.7896C22.9296 57.7894 22.6445 57.7894 22.3595 57.79C22.0984 57.7904 21.8373 57.7903 21.5762 57.7898C21.4819 57.7897 21.3876 57.7898 21.2933 57.7902C20.555 57.7926 19.913 57.7755 19.3417 57.2584C18.9619 56.8548 18.8252 56.4167 18.8086 55.8682C18.8289 55.2178 19.0319 54.7707 19.5046 54.3248C19.8765 54.0305 20.2473 53.9466 20.716 53.9461Z" fill="white"/>
<path d="M20.826 45.0943C20.9109 45.094 20.9959 45.0937 21.0808 45.0932C21.3134 45.0922 21.546 45.0927 21.7786 45.0934C22.0298 45.094 22.281 45.0931 22.5322 45.0924C23.0239 45.0914 23.5156 45.0916 24.0073 45.0923C24.407 45.0929 24.8067 45.0929 25.2064 45.0927C25.2633 45.0926 25.3202 45.0926 25.3788 45.0925C25.4944 45.0925 25.61 45.0924 25.7256 45.0923C26.8094 45.0916 27.8932 45.0924 28.977 45.0937C29.9067 45.0948 30.8364 45.0946 31.7662 45.0935C32.8461 45.0922 33.9261 45.0917 35.006 45.0924C35.1212 45.0925 35.2364 45.0926 35.3515 45.0927C35.4366 45.0927 35.4366 45.0927 35.5233 45.0928C35.9224 45.093 36.3216 45.0926 36.7207 45.0921C37.2072 45.0914 37.6937 45.0916 38.1802 45.0929C38.4283 45.0935 38.6765 45.0937 38.9247 45.0929C39.152 45.0922 39.3792 45.0926 39.6065 45.0939C39.7274 45.0943 39.8484 45.0935 39.9693 45.0927C40.4648 45.097 40.7903 45.1555 41.1838 45.4733C41.6444 46.0012 41.7723 46.5615 41.7408 47.2512C41.6875 47.8012 41.4956 48.1731 41.1306 48.5825C40.7041 48.9312 40.2683 48.9035 39.7392 48.901C39.6543 48.9013 39.5694 48.9016 39.4845 48.902C39.2518 48.9029 39.019 48.9026 38.7863 48.9022C38.5351 48.9019 38.2839 48.9027 38.0326 48.9033C37.5407 48.9043 37.0488 48.9044 36.5568 48.9041C36.157 48.9038 35.7571 48.9039 35.3573 48.9042C35.3004 48.9043 35.2435 48.9043 35.1848 48.9044C35.0692 48.9045 34.9536 48.9046 34.8379 48.9046C33.7538 48.9055 32.6696 48.9052 31.5854 48.9045C30.5936 48.9039 29.6018 48.9046 28.61 48.9061C27.5914 48.9076 26.5729 48.9081 25.5544 48.9077C24.9826 48.9075 24.4108 48.9077 23.839 48.9087C23.3523 48.9096 22.8656 48.9097 22.3789 48.9086C22.1306 48.9081 21.8823 48.908 21.6341 48.9089C21.4066 48.9097 21.1793 48.9094 20.9519 48.9083C20.8309 48.9079 20.7099 48.9088 20.5889 48.9097C20.0932 48.9056 19.7678 48.8472 19.3741 48.5293C18.9135 48.0014 18.7859 47.4413 18.8169 46.7517C18.867 46.2388 19.0368 45.8599 19.3741 45.4733C19.8377 45.099 20.2489 45.0903 20.826 45.0943Z" fill="white"/>
<path d="M61.1738 25.5671C61.2779 25.5666 61.2779 25.5666 61.3841 25.5661C61.4607 25.566 61.5373 25.566 61.6162 25.5659C61.6981 25.5656 61.78 25.5653 61.8619 25.5649C62.0874 25.5641 62.313 25.5636 62.5386 25.5633C62.7319 25.5629 62.9253 25.5623 63.1187 25.5616C63.7558 25.5596 64.3929 25.5583 65.03 25.5572C65.1958 25.5569 65.3617 25.5566 65.5276 25.5563C66.5576 25.5544 67.5876 25.5528 68.6176 25.5518C68.8562 25.5516 69.0948 25.5513 69.3334 25.5511C69.3927 25.551 69.452 25.551 69.5131 25.5509C70.4738 25.5499 71.4344 25.5474 72.3951 25.5443C73.3812 25.5412 74.3674 25.5394 75.3536 25.539C75.9074 25.5387 76.4611 25.5378 77.0148 25.5354C77.4865 25.5333 77.958 25.5324 78.4297 25.5332C78.6703 25.5336 78.9108 25.5333 79.1514 25.5315C79.3718 25.5298 79.5922 25.5299 79.8127 25.5312C79.9298 25.5315 80.0469 25.53 80.164 25.5284C80.6374 25.5336 80.9447 25.6162 81.2993 25.9387C81.6501 26.3614 81.6805 26.7964 81.6783 27.3224C81.6785 27.3815 81.6787 27.4406 81.679 27.5015C81.6796 27.6989 81.6793 27.8964 81.6791 28.0939C81.6794 28.2356 81.6797 28.3774 81.68 28.5192C81.6808 28.904 81.6809 29.2888 81.6807 29.6736C81.6807 30.0355 81.681 30.3974 81.6814 30.7594C81.682 31.52 81.6819 32.2806 81.6815 33.0412C81.6812 33.7365 81.6819 34.4318 81.683 35.1272C81.6842 35.8418 81.6847 36.5564 81.6845 37.2709C81.6844 37.6719 81.6845 38.0728 81.6854 38.4738C81.6861 38.8508 81.686 39.2278 81.6852 39.6048C81.6851 39.7431 81.6852 39.8814 81.6857 40.0197C81.6864 40.2086 81.6859 40.3975 81.6851 40.5864C81.6856 40.641 81.686 40.6956 81.6865 40.7518C81.6823 41.2451 81.5511 41.6457 81.2388 42.0383C80.9418 42.2625 80.7318 42.3483 80.3631 42.3492C80.2938 42.3495 80.2246 42.3498 80.1533 42.3501C80.0769 42.3502 80.0005 42.3502 79.9218 42.3502C79.8401 42.3505 79.7585 42.3507 79.6768 42.351C79.4518 42.3517 79.2268 42.3521 79.0018 42.3524C78.7593 42.3527 78.5168 42.3534 78.2743 42.3541C77.6885 42.3556 77.1027 42.3564 76.5168 42.3572C76.3514 42.3574 76.1859 42.3577 76.0205 42.3579C74.9934 42.3595 73.9662 42.3608 72.9391 42.3615C72.7012 42.3617 72.4632 42.3619 72.2253 42.3621C72.1661 42.3621 72.107 42.3622 72.0461 42.3622C71.0879 42.363 70.1297 42.365 69.1716 42.3675C68.1881 42.3701 67.2046 42.3715 66.2211 42.3718C65.6688 42.372 65.1165 42.3728 64.5642 42.3747C64.0939 42.3764 63.6235 42.3771 63.1532 42.3764C62.9132 42.3761 62.6733 42.3763 62.4334 42.3778C62.2136 42.3791 61.9938 42.3791 61.774 42.378C61.6571 42.3777 61.5402 42.3789 61.4233 42.3802C60.9325 42.3758 60.6201 42.2944 60.2662 41.9488C59.935 41.5786 59.9164 41.2501 59.918 40.7764C59.9177 40.716 59.9174 40.6555 59.9171 40.5932C59.9164 40.3903 59.9165 40.1875 59.9166 39.9846C59.9162 39.8393 59.9158 39.6939 59.9153 39.5486C59.9144 39.1946 59.914 38.8406 59.9139 38.4866C59.9139 38.1988 59.9136 37.911 59.9132 37.6232C59.9122 36.8068 59.9116 35.9905 59.9117 35.1742C59.9117 35.1302 59.9117 35.0862 59.9117 35.0408C59.9117 34.9968 59.9117 34.9528 59.9117 34.9074C59.9118 34.1936 59.9106 33.4799 59.9089 32.7662C59.9072 32.033 59.9064 31.2998 59.9065 30.5666C59.9065 30.1551 59.9062 29.7436 59.9049 29.3321C59.9036 28.9451 59.9037 28.558 59.9046 28.171C59.9047 28.029 59.9044 27.887 59.9037 27.745C59.9027 27.551 59.9033 27.3571 59.9042 27.1631C59.9036 27.1071 59.903 27.051 59.9023 26.9932C59.9069 26.565 60.0117 26.244 60.2994 25.922C60.3399 25.8888 60.3804 25.8556 60.4221 25.8215C60.4628 25.7872 60.5034 25.753 60.5453 25.7177C60.7515 25.5716 60.9289 25.5678 61.1738 25.5671ZM61.0827 26.8402C61.0422 26.8977 61.0422 26.8977 61.0009 26.9563C60.973 26.9942 60.945 27.032 60.9163 27.071C60.7267 27.4254 60.7032 27.7673 60.7048 28.1605C60.7045 28.2121 60.7042 28.2637 60.704 28.3169C60.7032 28.489 60.7033 28.661 60.7034 28.8331C60.703 28.9568 60.7026 29.0805 60.7022 29.2042C60.7011 29.5398 60.7008 29.8753 60.7007 30.2108C60.7006 30.4206 60.7004 30.6303 60.7001 30.8401C60.6989 31.5723 60.6985 32.3045 60.6985 33.0367C60.6986 33.7185 60.6973 34.4004 60.6954 35.0822C60.6938 35.6682 60.6932 36.2542 60.6933 36.8402C60.6933 37.1899 60.693 37.5396 60.6917 37.8894C60.6905 38.2184 60.6905 38.5474 60.6914 38.8764C60.6915 38.9969 60.6912 39.1174 60.6905 39.2378C60.6708 40.2182 60.6708 40.2182 61.1144 41.0661C61.4133 41.3127 61.5975 41.4404 61.9939 41.4412C62.0572 41.4414 62.1206 41.4417 62.1858 41.442C62.2556 41.442 62.3254 41.4419 62.3973 41.4419C62.4712 41.4422 62.5452 41.4424 62.6214 41.4426C62.8271 41.4432 63.0327 41.4434 63.2384 41.4436C63.4601 41.4438 63.6818 41.4444 63.9035 41.4449C64.439 41.4461 64.9746 41.4468 65.5102 41.4473C65.7623 41.4476 66.0145 41.4479 66.2667 41.4482C67.105 41.4492 67.9432 41.4501 68.7815 41.4505C68.999 41.4507 69.2166 41.4508 69.4341 41.4509C69.4882 41.4509 69.5423 41.451 69.598 41.451C70.474 41.4515 71.3499 41.453 72.2259 41.455C73.1251 41.457 74.0244 41.4581 74.9236 41.4583C75.4286 41.4584 75.9335 41.4589 76.4384 41.4605C76.8684 41.4618 77.2984 41.4623 77.7285 41.4617C77.9478 41.4614 78.1672 41.4615 78.3865 41.4627C78.6245 41.464 78.8624 41.4633 79.1004 41.4626C79.1695 41.4632 79.2386 41.4639 79.3098 41.4646C79.7667 41.4609 80.1101 41.4015 80.4534 41.0741C80.4804 41.0353 80.5074 40.9964 80.5352 40.9564C80.5631 40.9179 80.5911 40.8793 80.6198 40.8396C80.8083 40.5023 80.8328 40.1955 80.8313 39.8192C80.8317 39.7411 80.8317 39.7411 80.8321 39.6615C80.8329 39.4875 80.8328 39.3136 80.8327 39.1397C80.8331 39.0148 80.8335 38.8899 80.8339 38.765C80.835 38.426 80.8353 38.0869 80.8354 37.7479C80.8355 37.536 80.8357 37.3241 80.836 37.1122C80.8372 36.3725 80.8377 35.6329 80.8376 34.8932C80.8375 34.2043 80.8388 33.5154 80.8407 32.8265C80.8423 32.2346 80.8429 31.6427 80.8428 31.0508C80.8428 30.6975 80.8431 30.3442 80.8444 29.9909C80.8456 29.6584 80.8456 29.326 80.8447 28.9935C80.8446 28.8718 80.8449 28.7501 80.8456 28.6283C80.8817 27.6746 80.8817 27.6746 80.4653 26.8519C80.1981 26.6054 79.963 26.4685 79.5943 26.4679C79.5307 26.4675 79.467 26.4671 79.4015 26.4667C79.3316 26.4669 79.2618 26.4671 79.1898 26.4673C79.0784 26.4669 79.0784 26.4669 78.9648 26.4665C78.7585 26.4658 78.5523 26.4657 78.3461 26.4659C78.1237 26.4659 77.9013 26.4652 77.6789 26.4647C77.2431 26.4636 76.8074 26.4633 76.3716 26.4632C76.0174 26.4632 75.6632 26.4629 75.3089 26.4626C74.3047 26.4615 73.3004 26.4609 72.2962 26.461C72.242 26.461 72.1879 26.461 72.1321 26.461C72.0779 26.461 72.0236 26.461 71.9678 26.4611C71.0893 26.4611 70.2108 26.4599 69.3322 26.4582C68.4303 26.4565 67.5283 26.4557 66.6263 26.4558C66.1199 26.4558 65.6135 26.4555 65.107 26.4542C64.6758 26.4531 64.2446 26.4528 63.8133 26.4536C63.5934 26.454 63.3734 26.454 63.1534 26.453C62.9148 26.4519 62.6762 26.4526 62.4376 26.4535C62.3683 26.4529 62.299 26.4523 62.2276 26.4517C61.7698 26.4556 61.4291 26.5159 61.0827 26.8402Z" fill="white"/>
<path d="M30.7378 19.3777C30.883 19.4021 30.883 19.4021 31.0041 19.5232C31.0075 19.6988 31.0075 19.6988 30.9899 19.9228C30.9852 19.9834 30.9852 19.9834 30.9803 20.0451C30.9416 20.5061 30.8755 20.9631 30.8074 21.4205C30.794 21.5119 30.7807 21.6034 30.7674 21.6949C30.7327 21.9327 30.6976 22.1704 30.6624 22.4081C30.6266 22.6504 30.5912 22.8928 30.5558 23.1351C30.504 23.4891 30.4521 23.8431 30.3998 24.197C30.3841 24.303 30.3841 24.303 30.3682 24.4111C30.3482 24.5423 30.327 24.6733 30.3047 24.8041C30.2779 24.9695 30.2697 25.1245 30.2702 25.2919C30.2701 25.3441 30.2699 25.3963 30.2698 25.4501C30.2639 25.575 30.2639 25.575 30.3383 25.6361C30.4936 25.6424 30.6472 25.6448 30.8025 25.6447C30.8511 25.6449 30.8997 25.6451 30.9498 25.6454C31.0558 25.6458 31.1617 25.6461 31.2677 25.6463C31.4353 25.6468 31.6029 25.6477 31.7705 25.6489C32.2472 25.652 32.7239 25.6549 33.2006 25.6559C33.4919 25.6565 33.7831 25.6582 34.0744 25.6608C34.1855 25.6615 34.2966 25.6618 34.4078 25.6617C34.5633 25.6616 34.7187 25.6629 34.8742 25.6646C34.9432 25.664 34.9432 25.664 35.0136 25.6634C35.2247 25.6671 35.3417 25.6816 35.5131 25.8094C35.6039 25.9388 35.6039 25.9388 35.6087 26.1031C35.5205 26.3718 35.3813 26.5854 35.2257 26.8202C35.1588 26.9235 35.092 27.0269 35.0252 27.1303C34.9906 27.1835 34.9561 27.2368 34.9204 27.2916C34.7565 27.5459 34.5976 27.8033 34.4389 28.0609C34.4066 28.1131 34.3743 28.1653 34.3411 28.219C34.1594 28.5131 33.9782 28.8076 33.7972 29.1021C33.3661 29.8036 32.9331 30.5038 32.496 31.2016C32.1337 31.7804 31.776 32.3622 31.4185 32.944C31.2067 33.2888 30.994 33.6331 30.7809 33.9772C30.7492 34.0283 30.7175 34.0795 30.6849 34.1322C30.5564 34.3395 30.4279 34.5469 30.2993 34.7542C29.8915 35.412 29.485 36.0704 29.082 36.731C29.0583 36.7695 29.0346 36.808 29.0102 36.8477C28.9538 36.9417 28.9011 37.038 28.8491 37.1346C28.8212 37.175 28.7934 37.2153 28.7647 37.2569C28.5718 37.2758 28.5718 37.2758 28.4015 37.2569C28.2472 36.9976 28.2924 36.8174 28.362 36.5407C28.3769 36.4854 28.3918 36.4301 28.4072 36.3731C28.4226 36.3132 28.438 36.2534 28.4538 36.1917C28.5061 35.9892 28.5597 35.787 28.6134 35.5849C28.6507 35.4411 28.688 35.2973 28.7252 35.1535C28.9576 34.2591 29.1967 33.3665 29.4351 32.4738C29.4809 32.3022 29.5267 32.1307 29.5724 31.9591C29.6029 31.8447 29.6334 31.7303 29.6639 31.6159C29.679 31.5594 29.6941 31.5028 29.7096 31.4445C29.8005 31.1038 29.892 30.7633 29.9839 30.4229C30.0419 30.208 30.0995 29.993 30.1569 29.7779C30.1839 29.6771 30.2112 29.5763 30.2386 29.4756C30.2764 29.3366 30.3136 29.1975 30.3506 29.0583C30.3617 29.018 30.3728 28.9778 30.3843 28.9364C30.4519 28.6787 30.4744 28.4442 30.4594 28.1782C30.3364 28.0552 30.0804 28.1083 29.9115 28.1081C29.8604 28.1078 29.8093 28.1075 29.7567 28.1072C29.6454 28.1065 29.5341 28.106 29.4228 28.1056C29.2468 28.1049 29.0708 28.1037 28.8948 28.1024C28.3943 28.0986 27.8938 28.0954 27.3933 28.0934C27.0875 28.0921 26.7817 28.09 26.476 28.0873C26.3592 28.0864 26.2425 28.0859 26.1257 28.0857C25.9625 28.0854 25.7994 28.084 25.6362 28.0823C25.5635 28.0826 25.5635 28.0826 25.4893 28.0829C25.1637 28.078 25.1637 28.078 25.0108 27.9734C24.9516 27.8755 24.9516 27.8755 24.9537 27.737C25.0287 27.5263 25.1474 27.3631 25.281 27.1866C25.3367 27.1109 25.3922 27.035 25.4477 26.9591C25.4761 26.9204 25.5044 26.8816 25.5337 26.8417C25.6638 26.6612 25.7874 26.4765 25.9103 26.291C25.9349 26.254 25.9595 26.217 25.9848 26.1789C26.0361 26.1015 26.0873 26.0241 26.1385 25.9467C26.2824 25.7293 26.4268 25.5123 26.5711 25.2952C26.6016 25.2494 26.6321 25.2036 26.6635 25.1563C27.195 24.3578 27.7336 23.5639 28.2709 22.7692C28.4813 22.4581 28.6914 22.1467 28.9012 21.8352C29.0385 21.6313 29.1759 21.4275 29.3133 21.2237C29.3777 21.128 29.4422 21.0324 29.5065 20.9366C29.6769 20.6833 29.8481 20.4306 30.0208 20.1787C30.0933 20.0722 30.1645 19.9649 30.2356 19.8574C30.2774 19.7962 30.3192 19.7349 30.3622 19.6719C30.4151 19.5929 30.4151 19.5929 30.469 19.5122C30.5804 19.4021 30.5804 19.4021 30.7378 19.3777Z" fill="white"/>
<path d="M71.0116 28.5413C71.1683 28.6199 71.2926 28.7248 71.4239 28.8401C71.4598 28.87 71.4957 28.8998 71.5327 28.9306C71.6062 28.9919 71.6793 29.0537 71.752 29.1159C71.9139 29.2539 72.0795 29.3871 72.2448 29.521C72.3381 29.5978 72.4315 29.6747 72.5247 29.7518C72.5297 29.6856 72.5347 29.6194 72.5398 29.5513C72.5852 29.3281 72.5852 29.3281 72.6818 29.2249C72.8817 29.1172 73.0375 29.123 73.264 29.1224C73.3269 29.1221 73.3269 29.1221 73.391 29.1219C73.4795 29.1218 73.568 29.1221 73.6564 29.1228C73.7913 29.1238 73.926 29.1229 74.0608 29.1217C74.147 29.1218 74.2332 29.122 74.3194 29.1224C74.3974 29.1226 74.4754 29.1228 74.5558 29.123C74.7765 29.1479 74.8913 29.1947 75.0667 29.3281C75.1372 29.4691 75.1346 29.5504 75.1341 29.7073C75.1341 29.7607 75.1341 29.814 75.1341 29.8689C75.1338 29.9265 75.1335 29.9841 75.1331 30.0435C75.133 30.1319 75.133 30.1319 75.1329 30.2221C75.1325 30.4108 75.1318 30.5995 75.131 30.7882C75.1307 30.916 75.1304 31.0437 75.1302 31.1715C75.1295 31.4851 75.1285 31.7986 75.1272 32.1122C75.1635 32.1292 75.1997 32.1461 75.237 32.1636C75.4302 32.2654 75.5833 32.409 75.7438 32.5548C75.7769 32.5835 75.8099 32.6122 75.844 32.6417C75.9894 32.7734 76.0872 32.875 76.1528 33.0617C76.1574 33.255 76.0869 33.3504 75.9746 33.5043C75.8535 33.6253 75.8535 33.6253 75.684 33.6476C75.4442 33.62 75.357 33.5487 75.1764 33.3908C75.1256 33.3473 75.0748 33.3037 75.0225 33.2589C74.9939 33.2318 74.9654 33.2047 74.936 33.1768C74.8197 33.0721 74.8197 33.0721 74.6557 32.9701C74.2026 32.6404 74.2026 32.6404 74.1241 32.3444C74.0757 31.9725 74.0981 31.6005 74.1172 31.2271C74.1206 31.1132 74.1236 30.9993 74.1263 30.8854C74.1336 30.6082 74.1451 30.3314 74.1588 30.0544C73.9391 30.0544 73.7194 30.0544 73.4931 30.0544C73.4959 30.1171 73.4987 30.1798 73.5016 30.2445C73.5039 30.3274 73.5061 30.4103 73.5082 30.4932C73.5102 30.5345 73.5123 30.5757 73.5144 30.6183C73.5184 30.8278 73.5101 30.9398 73.382 31.1091C73.2104 31.2339 73.1 31.2606 72.8878 31.2649C72.5695 31.1358 72.3414 30.939 72.0897 30.7126C72.0096 30.6421 71.9296 30.5716 71.8495 30.5012C71.8102 30.4666 71.771 30.432 71.7305 30.3963C71.5695 30.255 71.4067 30.1162 71.2423 29.9787C71.1915 29.936 71.1407 29.8932 71.0884 29.8492C70.9509 29.7517 70.8743 29.7115 70.7089 29.6912C70.5576 29.8023 70.4259 29.9123 70.2891 30.0393C70.2073 30.1127 70.1255 30.186 70.0436 30.2594C70.0028 30.2964 69.9619 30.3334 69.9198 30.3715C69.751 30.523 69.5778 30.6691 69.4039 30.8147C69.1653 31.0156 68.9279 31.2177 68.6915 31.4211C68.2016 31.8429 67.7037 32.2535 67.1985 32.6569C67.2576 32.6977 67.3167 32.7384 67.3775 32.7804C67.5384 32.9155 67.5593 32.9485 67.6053 33.166C67.6045 33.2449 67.6037 33.3238 67.6029 33.4051C67.6029 33.4495 67.603 33.4939 67.603 33.5397C67.6028 33.6828 67.6 33.8258 67.5971 33.9689C67.5966 34.0575 67.5962 34.1461 67.596 34.2347C67.5941 34.5625 67.5891 34.8902 67.5844 35.2179C67.5769 35.9507 67.5694 36.6834 67.5617 37.4384C69.7387 37.4384 71.9158 37.4384 74.1588 37.4384C74.1588 36.7393 74.1588 36.0403 74.1588 35.32C74.4009 35.0779 74.4009 35.0779 74.5241 35.0479C74.8549 35.0575 74.8549 35.0575 75.0024 35.1574C75.1146 35.3356 75.1351 35.4907 75.137 35.6958C75.1376 35.7469 75.1382 35.798 75.1388 35.8507C75.1391 35.9332 75.1391 35.9332 75.1395 36.0175C75.1399 36.0743 75.1402 36.1311 75.1406 36.1896C75.1411 36.3097 75.1415 36.4299 75.1418 36.5501C75.1424 36.7337 75.1442 36.9172 75.1461 37.1008C75.1465 37.2176 75.1469 37.3344 75.1471 37.4512C75.1478 37.5059 75.1486 37.5607 75.1494 37.6172C75.1482 37.9391 75.1245 38.1674 74.8851 38.4068C74.7806 38.413 74.6759 38.415 74.5712 38.4153C74.5031 38.4156 74.4351 38.416 74.3649 38.4163C74.2519 38.4164 74.2519 38.4164 74.1366 38.4165C74.0578 38.4168 73.979 38.4171 73.8978 38.4174C73.681 38.4182 73.4641 38.4186 73.2473 38.4189C73.1119 38.4191 72.9766 38.4193 72.8412 38.4196C72.418 38.4204 71.9948 38.421 71.5717 38.4212C71.0825 38.4215 70.5934 38.4226 70.1043 38.4243C69.7267 38.4256 69.349 38.4262 68.9714 38.4263C68.7457 38.4264 68.5199 38.4267 68.2942 38.4278C68.0425 38.429 67.7907 38.4287 67.539 38.4284C67.4639 38.4289 67.3888 38.4295 67.3115 38.43C67.2431 38.4297 67.1746 38.4294 67.1042 38.429C67.0446 38.4291 66.985 38.4292 66.9237 38.4293C66.7748 38.4068 66.7748 38.4068 66.6648 38.3269C66.5478 38.1606 66.5696 37.9781 66.5727 37.7823C66.5726 37.715 66.5726 37.715 66.5726 37.6463C66.5727 37.4979 66.5741 37.3496 66.5755 37.2013C66.5759 37.0984 66.5761 36.9955 66.5763 36.8926C66.577 36.6219 66.5788 36.3512 66.5808 36.0804C66.5827 35.8041 66.5835 35.5279 66.5844 35.2516C66.5864 34.7095 66.5895 34.1674 66.5933 33.6253C66.5345 33.6268 66.4757 33.6282 66.4151 33.6297C66.2999 33.6314 66.2999 33.6314 66.1824 33.6331C66.068 33.6353 66.068 33.6353 65.9512 33.6375C65.7459 33.6253 65.7459 33.6253 65.5417 33.5005C65.4175 33.276 65.4131 33.1532 65.4433 32.899C65.5496 32.7673 65.6364 32.6783 65.7648 32.5737C65.7977 32.5453 65.8306 32.5169 65.8645 32.4877C65.9651 32.4014 66.067 32.3171 66.1696 32.2333C66.2553 32.1627 66.2553 32.1627 66.3427 32.0907C66.4518 32.0016 66.5613 31.9129 66.6711 31.8245C66.8418 31.6832 67.0052 31.536 67.1683 31.3859C67.4388 31.1369 67.7185 30.9035 68.0045 30.6726C68.1637 30.5412 68.317 30.4053 68.4695 30.2662C68.6751 30.0789 68.8848 29.9 69.1013 29.7253C69.3372 29.5347 69.5631 29.3371 69.7859 29.1314C70.528 28.4556 70.528 28.4556 71.0116 28.5413Z" fill="white"/>
</svg>
