<svg width="110" height="109" viewBox="0 0 110 109" fill="none" xmlns="http://www.w3.org/2000/svg">
<rect x="0.5" y="0.5" width="109" height="108" rx="9.5" fill="#F1FAFA"/>
<rect x="0.5" y="0.5" width="109" height="108" rx="9.5" stroke="#115056"/>
<g clip-path="url(#clip0_174_2997)">
<path d="M46.2229 89.0001C38.0203 89.0001 29.8155 89.0001 21.6129 89.0001C20.2805 89.0001 19.9854 88.7181 20.0005 87.3961C20.0722 81.2964 20.2848 75.2096 21.5825 69.2111C22.8042 63.5635 25.8422 59.322 31.3106 57.0827C32.758 56.4906 34.3877 56.3119 35.9501 56.0256C36.4297 55.9373 36.7248 55.8469 36.881 55.3517C37.1414 54.5335 37.7664 53.7089 37.6883 52.9424C37.6145 52.2383 36.8051 51.6161 36.3363 50.9443C34.6915 48.5824 33.7475 45.9556 33.7779 43.0963C33.8126 39.9205 33.5826 36.7856 33.0727 33.6572C32.3804 29.4156 34.1468 26.1709 37.5212 23.7917C42.0391 20.6138 47.08 19.365 52.6027 20.3059C54.6685 20.659 56.0877 21.6989 56.8451 23.7099C57.1076 24.4096 57.7456 25.0319 58.3467 25.5314C59.5597 26.5434 60.4668 27.7426 61.0831 29.1744C61.7688 30.7591 61.7948 32.3545 61.1178 33.9478C60.9399 34.3677 60.7858 34.8134 60.5254 35.1815C59.4143 36.7511 59.206 38.4844 59.2451 40.3619C59.282 42.2286 59.1496 44.1233 58.8393 45.9642C58.4292 48.395 57.227 50.5094 55.5517 52.333C55.2306 52.6818 55.2219 52.9639 55.3304 53.4053C55.7362 55.0459 56.2917 56.4648 58.4205 56.2237C64.8111 57.7416 68.7931 61.7313 70.5248 67.9537C71.792 72.5139 72.0937 77.2098 72.3063 81.9078C72.391 83.7595 72.4083 85.6133 72.4344 87.465C72.4517 88.6879 72.1284 88.998 70.9154 88.998C62.6845 88.998 54.4537 88.998 46.2229 88.998V89.0001ZM42.3711 67.536C42.2453 67.6178 42.1129 67.6996 41.9849 67.7857C40.6742 68.6621 40.5006 68.647 39.4047 67.4692C37.0373 64.9243 34.6676 62.3815 32.324 59.815C31.9356 59.3887 31.6535 59.2854 31.1045 59.576C27.1681 61.6624 24.8852 64.9458 23.887 69.1982C22.789 73.8768 22.5156 78.6459 22.3051 83.4215C22.2574 84.5131 22.2986 85.609 22.2986 86.7351H29.7808C29.7808 86.3454 29.7808 86.0245 29.7808 85.7037C29.7808 82.2932 29.7808 78.8849 29.7829 75.4744C29.7829 75.1816 29.7742 74.8759 29.8437 74.596C29.9847 74.0297 30.3905 73.7197 30.9699 73.7541C31.5406 73.7864 31.9269 74.1137 32.0072 74.7036C32.0441 74.9684 32.0332 75.2397 32.0332 75.5067C32.0332 78.9969 32.0528 82.487 32.018 85.9772C32.0115 86.664 32.2307 86.8276 32.8904 86.819C35.4336 86.7846 37.9769 86.8061 40.5223 86.804C40.7588 86.804 40.9953 86.776 41.2427 86.7609C41.3013 86.4422 41.3621 86.1817 41.399 85.919C42.0608 81.1069 42.6532 76.284 43.4214 71.4891C43.6688 69.9453 43.3563 68.7266 42.369 67.5403L42.3711 67.536ZM70.004 86.7695C70.004 84.6616 70.0864 82.6507 69.9866 80.6461C69.7826 76.594 69.4224 72.5548 68.3916 68.6082C67.337 64.5733 65.0216 61.5203 61.2827 59.5545C60.8097 59.3069 60.5471 59.3672 60.1934 59.7547C57.8823 62.2803 55.5496 64.7865 53.2146 67.2905C51.8627 68.7396 51.8562 68.7331 50.2005 67.6609C50.1636 67.6372 50.1029 67.6523 49.9987 67.6458C49.7947 67.9903 49.6189 68.3929 49.3499 68.718C48.816 69.364 48.8377 70.0788 48.9506 70.8345C49.2023 72.5312 49.441 74.2321 49.6775 75.9309C50.1745 79.5136 50.6692 83.0985 51.1705 86.7372H60.4017V85.7985C60.4017 82.36 60.4017 78.9215 60.4017 75.483C60.4017 75.2139 60.3887 74.9426 60.4299 74.6799C60.521 74.0921 60.9355 73.6917 61.4802 73.7778C61.8795 73.8402 62.2766 74.2213 62.5608 74.5572C62.7171 74.7402 62.652 75.1235 62.652 75.4163C62.6563 78.8806 62.6542 82.3471 62.6542 85.8114C62.6542 86.1214 62.6542 86.4315 62.6542 86.7674H70.0061L70.004 86.7695ZM35.9783 40.9777C35.9957 40.9777 36.013 40.9777 36.0325 40.9777C36.0325 41.8367 35.9891 42.6958 36.0412 43.5527C36.1779 45.7704 36.8593 47.8266 38.1657 49.6309C40.5592 52.9359 43.7512 54.6864 47.9263 54.0813C52.2056 53.4591 55.734 50.0271 56.6411 45.5099C57.01 43.6647 56.8429 41.7183 57.049 39.8322C57.2096 38.3552 56.806 37.2722 55.5127 36.4691C55.1069 36.2172 54.8421 36.0923 54.3669 36.2775C49.0656 38.338 43.7795 38.409 38.5129 36.1203C38.3045 36.0299 37.9204 36.0665 37.749 36.2043C35.9718 37.6425 35.9783 37.6511 35.9783 39.9313V40.9777ZM57.8042 35.5454C58.0993 34.9942 58.3228 34.5378 58.5789 34.1007C59.8071 32.01 59.7051 30.0938 57.4201 27.7146C57.1792 27.4627 56.895 27.2496 56.6129 27.0407C55.7036 26.3582 55.0027 25.5163 54.6664 24.4269C54.3257 23.3202 53.5727 22.769 52.4638 22.558C47.1256 21.5417 42.3646 22.8723 38.144 26.1386C35.1559 28.451 34.737 31.6031 35.6007 35.3409C36.026 34.8435 36.3342 34.4452 36.6835 34.0856C37.5233 33.2179 37.7382 33.1964 38.7906 33.7476C40.6568 34.7272 42.6532 35.2741 44.7451 35.5002C48.1455 35.8684 51.3723 35.2181 54.458 33.8208C55.1807 33.4935 55.7318 33.5667 56.2765 34.1394C56.7192 34.6067 57.2226 35.0158 57.8042 35.5476V35.5454ZM46.2207 62.1081C48.8768 60.2822 51.4917 58.4844 54.1282 56.6715C53.8331 55.8641 53.564 55.1213 53.2884 54.3656C48.6967 57.1646 44.1918 57.128 39.6586 54.329C39.3939 55.0244 39.1226 55.666 38.9165 56.327C38.8622 56.4971 38.9447 56.8222 39.0792 56.9213C41.4424 58.6588 43.825 60.3727 46.2207 62.1059V62.1081ZM45.7694 70.673C45.0316 76.0148 44.2959 81.348 43.5559 86.7157H48.7661C48.7661 86.4982 48.7813 86.3626 48.764 86.2312C48.0804 81.2102 47.3882 76.1914 46.7111 71.1704C46.6395 70.6343 46.3704 70.4965 45.7694 70.673ZM44.2677 63.4559C42.1281 61.9078 40.0319 60.5191 38.0897 58.9409C36.8268 57.9138 35.6072 58.2906 34.1403 58.4909C36.4774 61.01 38.6973 63.4064 40.9172 65.8006C42.0695 64.9953 43.1263 64.2547 44.2655 63.4559H44.2677ZM58.2078 58.5339C56.8299 58.1421 55.6581 58.0538 54.6143 59.0356C54.1868 59.4361 53.6465 59.7181 53.1582 60.054C51.5242 61.1779 49.888 62.3018 48.1607 63.4903C49.3303 64.2805 50.4088 65.0104 51.5112 65.7554C53.7528 63.3375 55.9445 60.9755 58.2078 58.5361V58.5339ZM48.1281 66.2075C47.5726 65.8092 47.067 65.4152 46.5245 65.0815C46.3683 64.9867 46.0558 64.9824 45.8996 65.0772C45.3527 65.4044 44.8449 65.792 44.2916 66.1774C44.6366 66.8039 44.9339 67.3702 45.2594 67.9214C45.5719 68.4489 46.7806 68.5049 47.1104 67.9946C47.4706 67.4369 47.7723 66.8427 48.1281 66.2097V66.2075Z" fill="#115056"/>
<path d="M78.5142 47.6116C78.6488 48.1628 78.716 48.6429 78.894 49.0778C78.9656 49.2501 79.2781 49.4073 79.4929 49.4245C81.5653 49.586 82.8065 50.6195 83.3121 52.6477C83.477 53.3065 83.1125 53.7737 82.3443 53.8017C81.4264 53.834 80.5041 53.8103 79.584 53.8103C76.3095 53.8103 73.035 53.8125 69.7604 53.8103C68.4519 53.8103 68.172 53.3496 68.6147 52.1611C69.2678 50.4106 70.4158 49.403 72.3688 49.4202C72.538 49.4202 72.8028 49.2156 72.8657 49.0455C73.0241 48.6257 73.0914 48.1735 73.2259 47.6116C72.8679 47.6116 72.5836 47.6116 72.2993 47.6116C69.1876 47.6116 66.0758 47.6116 62.9618 47.6116C61.892 47.6116 61.6034 47.28 61.7813 46.2272C62.6298 41.1739 63.4848 36.1227 64.3289 31.0673C64.4461 30.3697 64.7998 30.0381 65.5268 30.0381C72.4274 30.0467 79.3302 30.0445 86.2308 30.0381C86.9577 30.0381 87.2897 30.3847 87.4069 31.0866C88.2445 36.1421 89.1038 41.1932 89.9523 46.2465C90.1259 47.28 89.8417 47.6073 88.7415 47.6073C85.6557 47.6116 82.57 47.6073 79.4864 47.6073C79.1934 47.6073 78.9005 47.6073 78.5142 47.6073V47.6116ZM82.8976 45.9042C82.7479 44.4229 82.6069 43.0212 82.4636 41.6045H79.3519V45.9042H82.8955H82.8976ZM72.4165 41.5851H69.2765C69.1355 43.0384 68.9966 44.4509 68.8599 45.8719H72.4165V41.5851ZM74.2176 41.5657V45.8697H77.5052V41.5657H74.2176ZM84.1866 41.5463C84.3407 43.0621 84.4839 44.4616 84.6315 45.8956H88.1469C87.9234 44.5434 87.715 43.2301 87.472 41.9231C87.4438 41.7767 87.2051 41.5679 87.0575 41.5614C86.1244 41.5291 85.1892 41.5442 84.1888 41.5442L84.1866 41.5463ZM67.5557 41.5463C66.5445 41.5463 65.607 41.5334 64.6696 41.5614C64.5372 41.5657 64.3202 41.7466 64.2985 41.8736C64.0512 43.2021 63.8363 44.537 63.6063 45.8977H67.1109C67.2562 44.4638 67.3995 43.0621 67.5557 41.5463ZM83.6593 36.3596C83.783 37.5416 83.9024 38.6698 84.0174 39.7722H87.1248C86.9208 38.5837 86.7277 37.4641 86.5389 36.3596H83.6593ZM77.3337 39.8045V36.3746H74.3825V39.8045H77.3337ZM68.083 36.3596H65.2034C65.0103 37.5201 64.8258 38.6354 64.6349 39.7851H67.7271C67.8465 38.6332 67.9615 37.5244 68.0809 36.3596H68.083ZM81.9385 36.3746H79.1565V39.7808H82.2727C82.1577 38.616 82.0492 37.505 81.9385 36.3746ZM69.8038 36.3531C69.6953 37.505 69.5868 38.6311 69.4783 39.7765H72.6075V36.3531H69.8038ZM70.585 52.0147H81.0813C81.1117 51.9199 81.1443 51.8252 81.1747 51.7326C80.6625 51.5345 80.1548 51.1771 79.6383 51.1642C77.1276 51.1039 74.6147 51.134 72.1019 51.1405C71.4747 51.1405 70.9626 51.373 70.585 52.0168V52.0147ZM83.4944 34.5617H86.2525C86.0832 33.6058 85.9291 32.7208 85.7729 31.8402H83.2058C83.3056 32.779 83.3989 33.6703 83.4944 34.5617ZM81.754 34.5789C81.6564 33.6316 81.5653 32.7381 81.4741 31.851H79.009V34.5789H81.7519H81.754ZM70.2617 31.851C70.1727 32.7811 70.0881 33.6531 69.9991 34.5725H72.7681V31.851H70.2617ZM65.5072 34.5897H68.2501C68.3478 33.6703 68.4411 32.7768 68.5387 31.851H65.9694C65.8154 32.7574 65.67 33.623 65.5072 34.5897ZM74.5757 34.5703H77.145V31.851H74.5757V34.5703ZM77.1276 49.3642C76.878 47.5965 76.8325 47.519 75.5326 47.6267C74.3674 47.7214 75.0075 48.7893 74.4715 49.3642H77.1276Z" fill="#115056"/>
</g>
<defs>
<clipPath id="clip0_174_2997">
<rect width="70" height="69" fill="white" transform="translate(20 20)"/>
</clipPath>
</defs>
</svg>
