<svg width="120" height="112" viewBox="0 0 120 112" fill="none" xmlns="http://www.w3.org/2000/svg">
<path d="M79.0026 107.266C79.0026 107.706 79.0026 108.157 79.0026 108.596C78.9519 110.566 86.7441 111.859 84.8436 111.884C81.9928 111.921 54.1815 111.884 51.3307 111.884C39.4967 111.884 27.6627 111.884 15.8413 111.884C13.1172 111.884 12.0023 110.742 12.0023 107.931C12.0023 87.1286 12.0023 66.3133 12.0023 45.5105V43.8041C11.5208 44.1429 11.1914 44.3562 10.8746 44.5946C8.9614 46.05 7.04819 47.5306 5.12231 48.9735C3.43716 50.2407 1.63799 50.0525 0.586357 48.5092C-0.465275 46.991 -0.0724968 45.1717 1.59998 43.9045C20.2759 29.6637 38.9772 15.4104 57.6659 1.15714C59.5411 -0.273213 60.5167 -0.273213 62.4045 1.16968C80.9411 15.2975 99.4777 29.4254 117.989 43.5783C118.749 44.1554 119.319 44.9961 119.978 45.7113V47.656C118.255 50.2407 116.861 50.4665 114.378 48.572C112.338 47.0161 110.298 45.4603 108.017 43.7288V107.605C108.017 110.918 107.067 111.884 103.824 111.884H76.1771C75.8223 111.884 75.4676 111.884 75.1255 111.884C73.2883 111.808 71.9326 110.428 71.9833 108.684C72.0213 106.965 73.3516 105.635 75.1382 105.623C79.1546 105.598 83.1838 105.623 87.2002 105.623C91.6475 105.623 96.1074 105.623 100.555 105.623H101.961V104.23C101.961 82.938 101.961 61.6458 101.961 40.3537C101.961 39.6636 101.961 39.099 101.29 38.5846C87.6944 28.271 74.1372 17.9073 60.5547 7.55607C60.4026 7.4306 60.2379 7.33022 59.9972 7.16711C57.2224 9.28754 54.4223 11.408 51.6348 13.5284C40.7891 21.7843 29.9687 30.0652 19.1103 38.296C18.3501 38.8732 18.0206 39.4629 18.0206 40.4666C18.046 61.6835 18.046 82.8878 18.046 104.105V105.535H82.0181" fill="white"/>
<path d="M61.7189 50.7921C61.7189 55.3968 57.9432 59.1483 53.3059 59.1609H53.2805C50.9999 59.1609 48.8586 58.2826 47.2495 56.6891C45.653 55.1082 44.7661 53.0129 44.7661 50.8046C44.7661 48.5462 45.653 46.4258 47.2621 44.8323C48.8713 43.2514 51.0125 42.3731 53.2932 42.3731C57.9305 42.3731 61.7062 46.1497 61.7062 50.7921M84.8548 35.9742C83.1316 35.9742 81.4212 35.9742 79.698 35.9742C78.2789 35.9742 77.6454 36.8775 77.6454 37.7684C77.6454 38.6718 78.2789 39.5751 79.698 39.5877C80.0274 39.5877 80.3569 39.5877 80.6863 39.5877C80.1034 40.1648 79.5206 40.742 78.9378 41.3192C76.0616 44.1673 73.0715 47.1033 70.1826 50.0267C69.5365 50.6917 69.0296 50.905 68.2568 50.8297C67.3698 50.7544 66.4702 50.7795 65.6087 50.7921C65.5453 50.7921 65.482 50.7921 65.4186 50.7921C65.3679 44.5061 60.5912 39.3116 54.1801 38.7721C48.4531 38.2828 43.0049 42.1222 41.5225 47.693C40.775 50.491 41.0157 53.2136 42.2574 55.8108C43.7398 58.9099 46.1472 61.0429 49.4541 62.1596C48.5672 63.0379 47.7309 63.8785 46.8694 64.7066C46.844 64.7066 46.806 64.7066 46.768 64.7066C44.7661 64.7066 42.6248 64.7317 40.5216 64.7066C39.774 64.7066 39.1278 64.9576 38.583 65.4971C36.5938 67.4795 34.6046 69.4494 32.6153 71.4192C31.6524 72.3728 30.7021 73.3263 29.7392 74.2674C29.5491 74.4556 29.3464 74.6689 29.1944 74.9324C28.7762 75.6475 28.9029 76.4505 29.4984 77.0528C29.8659 77.4166 30.3093 77.6049 30.7655 77.6049C31.0569 77.6049 31.361 77.5296 31.6397 77.3665C31.9311 77.2034 32.1592 76.9901 32.3619 76.7893L32.552 76.6011C35.2507 73.9412 38.0255 71.1934 40.7496 68.4707C40.889 68.3327 40.9397 68.3201 41.0791 68.3327C42.08 68.3327 43.081 68.3327 44.0819 68.3327C45.1209 68.3327 46.1725 68.3327 47.2241 68.3327C48.035 68.3327 48.6685 68.0817 49.2134 67.5297C50.7465 65.9739 52.3302 64.4055 53.9267 62.8748C53.99 62.812 54.1167 62.7493 54.2054 62.7493C59.4763 62.1094 63.0366 59.2989 64.7851 54.4181C65.482 54.4181 66.1788 54.4181 66.8884 54.4181C67.8006 54.4181 68.7509 54.4181 69.6885 54.4181C70.4867 54.4181 71.1329 54.1672 71.7284 53.5775C75.1874 50.1271 78.659 46.7018 82.1307 43.2639L83.271 42.1222C83.271 42.4484 83.271 42.762 83.271 43.0883C83.271 44.4935 84.1833 45.1209 85.0829 45.1209C85.577 45.1209 86.0078 44.9578 86.3372 44.6315C86.6033 44.3681 86.9074 43.9038 86.9074 43.0883C86.9074 41.3944 86.9074 39.6881 86.9074 37.9817C86.9074 36.6642 86.1725 35.9491 84.8548 35.9365" fill="white"/>
<path d="M73.3785 96.789H80.3345V60.0266H73.3785V96.789ZM83.9455 78.4203C83.9455 84.9322 83.9455 91.4566 83.9455 97.9685C83.9455 99.8379 83.3881 100.377 81.5002 100.39C78.3199 100.39 75.1397 100.39 71.9595 100.39C70.363 100.39 69.7422 99.7752 69.7422 98.1943C69.7422 85.02 69.7422 71.8332 69.7422 58.6464C69.7422 57.0655 70.363 56.4632 71.9595 56.4507C75.2157 56.4507 78.4593 56.4507 81.7156 56.4507C83.312 56.4507 83.9329 57.0655 83.9329 58.6464C83.9329 65.2335 83.9329 71.8332 83.9329 78.4203" fill="white"/>
<path d="M62.5514 74.1171H55.5954V96.827H62.5514V74.1171ZM51.9844 85.4595C51.9844 81.2437 51.9844 77.0405 51.9844 72.8247C51.9844 71.0933 52.5672 70.5161 54.3157 70.5161C57.5339 70.5161 60.7522 70.5161 63.9704 70.5161C65.5669 70.5161 66.1877 71.1309 66.1877 72.7118C66.1877 81.2061 66.1877 89.7004 66.1877 98.1946C66.1877 99.7755 65.5669 100.39 63.9704 100.39C60.7142 100.39 57.4579 100.39 54.2143 100.39C52.6179 100.39 51.997 99.7755 51.997 98.1946C51.997 93.9538 51.997 89.7004 51.997 85.4595" fill="white"/>
<path d="M37.8523 96.8141H44.8082V81.1179H37.8523V96.8141ZM48.4446 89.0475C48.4446 92.0462 48.4446 95.0575 48.4446 98.0562C48.4446 99.8253 47.8618 100.39 46.0372 100.39C42.895 100.39 39.7528 100.39 36.6106 100.39C34.8494 100.39 34.2539 99.8128 34.2539 98.1064C34.2539 92.0337 34.2539 85.9484 34.2539 79.8757C34.2539 78.0941 34.8367 77.542 36.6613 77.542C39.7655 77.542 42.8697 77.542 45.9739 77.542C47.9124 77.542 48.4446 78.0815 48.4446 80.0388C48.4446 83.0375 48.4446 86.0363 48.4446 89.0475Z" fill="white"/>
<path d="M54.1686 46.1247C54.5487 46.1247 54.8401 46.1121 55.1315 46.1247C55.6763 46.1623 56.0564 46.5638 56.0438 47.0657C56.0438 47.5425 55.6637 47.9314 55.1442 47.9565C54.5613 47.9816 53.9785 47.9565 53.3957 47.9565C52.7368 47.9565 52.3314 48.3078 52.306 48.8474C52.2807 49.3869 52.6735 49.7633 53.3197 49.8135C54.7261 49.9264 55.7143 50.767 55.9931 52.0719C56.2465 53.2513 55.651 54.4056 54.5107 55.0832C54.346 55.1835 54.2319 55.447 54.1812 55.6478C54.1306 55.8862 54.1812 56.1497 54.1559 56.4006C54.0799 56.9025 53.7631 57.1911 53.2563 57.2287C52.7748 57.2538 52.3567 56.8899 52.306 56.388C52.2807 56.0869 52.306 55.7732 52.306 55.3843C51.9766 55.3843 51.6725 55.3968 51.3684 55.3843C50.811 55.3467 50.4309 54.9702 50.4309 54.4684C50.4309 53.9665 50.7983 53.565 51.3558 53.5399C51.9386 53.5148 52.5214 53.5399 53.1043 53.5399C53.7505 53.5399 54.1559 53.1635 54.1559 52.624C54.1559 52.097 53.7885 51.7457 53.1803 51.6955C51.7359 51.57 50.7729 50.767 50.4815 49.4621C50.2155 48.2576 50.7983 47.1033 51.9766 46.4132C52.1287 46.3254 52.2427 46.1121 52.2807 45.949C52.3314 45.7106 52.2807 45.4471 52.306 45.1962C52.3441 44.6441 52.7368 44.2803 53.2436 44.2803C53.7505 44.2803 54.1306 44.6567 54.1686 45.2087C54.1812 45.4973 54.1686 45.7734 54.1686 46.1372" fill="white"/>
</svg>
