<svg width="120" height="112" viewBox="0 0 120 112" fill="none" xmlns="http://www.w3.org/2000/svg">
<path d="M-0.000628397 45.0352C0.521111 42.8439 1.01676 40.6482 1.58198 38.47C1.81676 37.57 2.19068 36.7004 2.5385 35.8352C3.16894 34.2526 4.41676 33.6178 5.7385 34.17C7.02981 34.7091 7.37328 35.9439 6.91242 37.5134C6.13415 40.1613 5.20807 42.8091 4.8472 45.5221C4.15589 50.6917 5.72546 55.1482 9.88198 58.5091C10.6733 55.7265 11.2515 52.9091 12.2907 50.2743C13.3298 47.6482 14.8342 45.2048 16.1602 42.6352C10.0472 31.7048 9.99937 20.7656 17.995 10.6439C25.1907 1.53084 35.0298 -1.7822 46.2385 1.15258C58.8429 4.45258 65.4385 13.3526 67.082 26.2134C69.8211 26.6874 72.6515 27.1787 75.5515 27.6787C75.6994 27.3482 75.8472 27.0004 76.0124 26.6569C78.2385 22.1265 81.8211 19.5787 86.9168 19.4787C91.5646 19.3874 96.2124 19.4482 100.86 19.4613C102.952 19.47 103.973 20.9743 103.191 22.9395C101.317 27.6482 99.4081 32.3395 97.5081 37.0613C99.0516 38.3439 100.708 39.4787 102.069 40.9004C104.165 43.0917 106.086 45.4569 108.017 47.8004C108.452 48.3308 108.812 48.6439 109.53 48.6178C110.973 48.5613 112.421 48.57 113.865 48.6091C117.395 48.7004 119.96 51.2961 119.973 54.8352C119.999 60.07 119.999 65.3047 119.973 70.5352C119.952 74.0482 117.317 76.6308 113.786 76.6656C112.382 76.6787 110.969 76.6134 109.569 76.7004C109.117 76.7308 108.521 77.0265 108.282 77.3917C105.821 81.1656 102.743 84.3482 99.1646 87.0613C98.5342 87.5395 98.195 88.0569 98.0646 88.8569C96.9602 95.6743 95.8037 102.479 94.6776 109.292C94.3602 111.218 93.6602 111.866 91.7255 111.87C87.195 111.879 82.6646 111.879 78.1342 111.87C76.1907 111.87 75.5255 111.261 75.195 109.296C74.582 105.648 73.9646 101.996 73.3298 98.2439C62.8081 100.196 52.3515 100.313 41.8342 98.1178C41.2255 101.761 40.6515 105.257 40.0559 108.748C39.9515 109.361 39.8515 109.992 39.6168 110.557C39.2515 111.426 38.5124 111.857 37.5689 111.857C32.6863 111.866 27.8037 111.879 22.9211 111.853C21.5689 111.844 20.8124 111.148 20.5689 109.718C19.4733 103.296 18.4081 96.87 17.3298 90.4439C16.9994 88.483 16.7994 86.4874 16.3081 84.5656C15.9124 83.0047 15.3559 81.4265 14.5472 80.0439C11.9211 75.5439 10.3646 70.7395 10.0429 65.5482C9.98633 64.6091 9.69068 64.0265 8.85589 63.4961C3.98198 60.4004 0.94285 56.0656 0.177632 50.2569C0.151546 50.07 0.0515455 49.8961 -0.0136719 49.7134C-0.0136719 48.1526 -0.0136719 46.5874 -0.0136719 45.0265L-0.000628397 45.0352ZM35.5689 107.144C35.682 106.496 35.7776 105.957 35.8646 105.418C36.4255 102.031 36.9733 98.6439 37.5559 95.2613C37.8907 93.2917 39.0211 92.5917 41.0037 93.0613C41.6863 93.2221 42.3646 93.4004 43.0515 93.5482C53.4907 95.7743 63.9037 95.4656 74.2994 93.2395C76.2385 92.8265 77.2689 93.5004 77.6124 95.47C78.2385 99.083 78.8211 102.7 79.4646 106.309C79.5211 106.631 79.895 107.148 80.1298 107.153C83.482 107.209 86.8342 107.192 90.1994 107.192C90.295 106.84 90.3907 106.583 90.4342 106.318C91.5298 99.7787 92.6385 93.2439 93.6907 86.696C93.8733 85.5613 94.3776 84.7787 95.2907 84.1221C99.3081 81.2526 102.717 77.8047 105.143 73.4613C105.717 72.4308 106.552 71.9656 107.721 71.9874C109.595 72.0178 111.469 72.0004 113.343 71.9917C114.856 71.9874 115.295 71.5526 115.295 70.0482C115.299 65.1265 115.299 60.2091 115.295 55.2874C115.295 53.7352 114.847 53.3048 113.252 53.2961C111.299 53.2874 109.347 53.283 107.395 53.2961C106.408 53.3004 105.66 52.9048 105.169 52.0482C102.369 47.1656 98.4037 43.4178 93.7689 40.3134C92.1559 39.2352 91.9255 38.3743 92.6689 36.5265C93.9776 33.2743 95.295 30.0221 96.6081 26.7656C96.9385 25.9439 97.2646 25.1178 97.6516 24.1439C94.0602 24.1439 90.6342 24.1308 87.2037 24.1439C83.3733 24.1613 80.5081 26.5482 79.7776 30.3048C79.3124 32.7091 78.4211 33.2221 75.9863 32.6874C72.9863 32.0308 69.9689 31.47 66.9168 30.8569C64.9298 42.1917 58.9211 50.1917 48.0994 53.8004C37.2342 57.4221 27.6168 54.5613 19.4081 46.7439C19.2907 46.8743 19.2342 46.9265 19.1907 46.9917C19.0776 47.1526 18.9602 47.3091 18.8646 47.4787C13.1776 57.5308 12.995 67.6004 18.6646 77.7526C19.582 79.3961 20.382 81.1961 20.7689 83.0221C21.6559 87.2178 22.2515 91.47 22.9646 95.7004C23.6037 99.5004 24.2385 103.296 24.8776 107.135H35.5646L35.5689 107.144ZM39.4342 4.9091C26.7863 4.9178 16.595 15.1265 16.6081 27.7787C16.6255 40.3395 26.8472 50.5787 39.395 50.6091C51.9646 50.6395 62.295 40.3352 62.3081 27.7569C62.3211 15.1613 52.0515 4.90041 39.4298 4.9091H39.4342Z" fill="#115056"/>
<path d="M86.0072 58.5178C81.9333 58.5178 78.5072 55.2352 78.3463 51.1787C78.2898 49.7613 79.1681 48.6657 80.455 48.5483C81.7942 48.4265 82.8202 49.2613 82.9898 50.7135C83.1507 52.1091 83.6985 53.2048 85.0855 53.67C86.9637 54.3005 88.6594 53.0918 88.9898 50.9439C89.2507 49.2309 90.242 48.3526 91.6768 48.557C93.0594 48.7526 93.8333 49.9831 93.6159 51.6483C93.1029 55.6439 89.9202 58.5178 86.0072 58.5178Z" fill="#115056"/>
<path d="M36.9215 30.1481H27.791C27.7041 30.1481 27.6171 30.1481 27.5258 30.1481C27.2302 30.1655 26.9737 30.1047 26.8215 29.822C26.665 29.5351 26.7824 29.3003 26.9519 29.0612C28.8824 26.296 30.8084 23.5307 32.7389 20.7612C35.3345 17.0394 37.9302 13.3177 40.5258 9.59161C40.5606 9.53944 40.5997 9.49161 40.6345 9.43944C40.8171 9.16552 41.0519 8.99161 41.391 9.109C41.7476 9.23074 41.8258 9.52205 41.7954 9.86552C41.7345 10.5655 41.6824 11.2655 41.6258 11.9655C41.4084 14.6916 41.1911 17.4133 40.9693 20.1394C40.8824 21.2394 40.7867 22.3394 40.6997 23.4394C40.6824 23.6525 40.6737 23.8655 40.6563 24.1264C40.8215 24.1264 40.965 24.1264 41.1128 24.1264C44.0737 24.1264 47.0345 24.1264 49.9954 24.1264C50.3084 24.1264 50.5997 24.1481 50.765 24.4699C50.9258 24.7829 50.765 25.0177 50.5997 25.2612C46.0693 31.7612 41.5345 38.2568 37.0041 44.7568C36.9737 44.796 36.9432 44.8394 36.9171 44.8786C36.7345 45.1438 36.4954 45.2742 36.178 45.1525C35.8606 45.0307 35.7606 44.7829 35.7867 44.4612C35.8954 43.1003 36.0041 41.7351 36.1171 40.3742C36.3084 38.0003 36.4954 35.6264 36.6867 33.2525C36.7519 32.4525 36.8171 31.6525 36.8824 30.8525C36.8997 30.6307 36.9084 30.409 36.9258 30.1481H36.9215Z" fill="#115056"/>
</svg>
