<svg width="120" height="124" viewBox="0 0 120 124" fill="none" xmlns="http://www.w3.org/2000/svg">
<path d="M21.1189 11.072C21.238 11.0718 21.238 11.0718 21.3594 11.0715C21.6242 11.0711 21.8889 11.0712 22.1537 11.0713C22.3459 11.0711 22.5381 11.0708 22.7303 11.0706C23.2024 11.07 23.6745 11.0698 24.1466 11.0698C24.7123 11.0697 25.2781 11.0692 25.8439 11.0686C27.2107 11.0674 28.5775 11.0669 29.9443 11.0665C30.591 11.0663 31.2376 11.0661 31.8843 11.0658C34.0986 11.0648 36.3129 11.0639 38.5272 11.0636C38.6661 11.0636 38.805 11.0636 38.9439 11.0636C39.0831 11.0636 39.2223 11.0636 39.3615 11.0635C39.6408 11.0635 39.92 11.0635 40.1993 11.0634C40.2686 11.0634 40.3378 11.0634 40.4091 11.0634C42.6558 11.0631 44.9024 11.0619 47.149 11.06C49.5252 11.0581 51.9014 11.057 54.2776 11.0569C54.5384 11.0569 54.7992 11.0569 55.0599 11.0569C55.1241 11.0569 55.1884 11.0569 55.2545 11.0569C56.2879 11.0568 57.3212 11.0559 58.3545 11.0548C59.3927 11.0536 60.431 11.0534 61.4692 11.054C62.0859 11.0544 62.7027 11.0541 63.3195 11.0528C63.7799 11.052 64.2404 11.0523 64.7009 11.0532C64.8872 11.0533 65.0735 11.0531 65.2598 11.0524C65.513 11.0515 65.7661 11.0521 66.0193 11.0531C66.0917 11.0525 66.1641 11.0519 66.2386 11.0513C67.0184 11.0576 67.6832 11.2454 68.2562 11.7901C68.7901 12.364 69.018 12.9862 68.9906 13.7695C68.9016 14.5106 68.5796 15.0747 68.0203 15.5646C67.395 15.9912 66.6946 16.06 65.9582 16.0562C65.8394 16.0565 65.8394 16.0565 65.7181 16.0568C65.4522 16.0574 65.1864 16.0568 64.9205 16.0562C64.7281 16.0564 64.5357 16.0566 64.3432 16.0569C63.9247 16.0574 63.5062 16.0575 63.0877 16.0571C62.4653 16.0565 61.8429 16.0568 61.2205 16.0573C60.1732 16.0581 59.1259 16.0582 58.0786 16.058C56.582 16.0578 55.0853 16.0588 53.5887 16.0601C52.9879 16.0607 52.3871 16.0611 51.7863 16.0616C51.6862 16.0617 51.6862 16.0617 51.5841 16.0618C49.9955 16.0631 48.4069 16.0639 46.8183 16.0646C46.7488 16.0647 46.6793 16.0647 46.6077 16.0647C44.9864 16.0655 43.3651 16.066 41.7438 16.0662C41.6392 16.0662 41.6392 16.0662 41.5325 16.0662C41.181 16.0663 40.8295 16.0663 40.478 16.0664C40.4085 16.0664 40.339 16.0664 40.2674 16.0664C40.1272 16.0664 39.987 16.0664 39.8468 16.0664C37.529 16.0667 35.2113 16.068 32.8935 16.0705C32.5661 16.0709 32.2386 16.0712 31.9112 16.0715C31.8467 16.0716 31.7823 16.0717 31.7159 16.0717C30.6796 16.0727 29.6433 16.0726 28.6071 16.072C27.5652 16.0714 26.5233 16.0719 25.4815 16.0735C24.8628 16.0744 24.2442 16.0745 23.6256 16.0733C23.1632 16.0725 22.7008 16.0734 22.2383 16.0748C22.0517 16.0752 21.865 16.075 21.6783 16.0742C19.9801 16.0676 18.6161 16.2994 17.3569 17.537C16.5677 18.3804 16.1063 19.478 16.1097 20.6325C16.1095 20.7205 16.1095 20.7205 16.1093 20.8102C16.109 21.0077 16.1091 21.2051 16.1093 21.4026C16.1092 21.5458 16.109 21.6891 16.1088 21.8323C16.1083 22.2281 16.1082 22.624 16.1083 23.0198C16.1083 23.4496 16.1078 23.8794 16.1074 24.3091C16.1067 25.1626 16.1064 26.016 16.1062 26.8695C16.106 27.8914 16.1053 28.9132 16.1046 29.9351C16.103 32.4051 16.1021 34.8752 16.1014 37.3453C16.1012 38.1633 16.101 38.9813 16.1007 39.7992C16.1006 39.8858 16.1006 39.8858 16.1006 39.9741C16.1005 40.2075 16.1004 40.441 16.1004 40.6744C16.0989 44.6676 16.0977 48.6608 16.0971 52.654C16.0971 52.9677 16.0971 53.2814 16.097 53.5951C16.097 53.6884 16.097 53.6884 16.097 53.7836C16.0969 54.4141 16.0968 55.0445 16.0967 55.6749C16.0967 55.8013 16.0967 55.9277 16.0966 56.0541C16.096 60.1135 16.0943 64.1728 16.0917 68.2322C16.0899 71.1488 16.0882 74.0654 16.0876 76.982C16.0876 77.042 16.0876 77.102 16.0876 77.1638C16.0873 78.4806 16.0872 79.7975 16.0871 81.1144C16.0871 81.6442 16.087 82.1741 16.087 82.7039C16.087 82.7619 16.087 82.8199 16.087 82.8797C16.0868 84.7474 16.0857 86.6151 16.0841 88.4829C16.0824 90.3643 16.0818 92.2458 16.0826 94.1272C16.083 95.2946 16.0827 96.4619 16.0809 97.6292C16.0798 98.3738 16.0799 99.1184 16.0809 99.863C16.0814 100.287 16.0815 100.712 16.0801 101.136C16.0789 101.522 16.0792 101.909 16.0806 102.295C16.0808 102.434 16.0805 102.572 16.0797 102.711C16.0706 104.25 16.4356 105.522 17.5418 106.647C18.3429 107.397 19.4216 107.894 20.5267 107.895C20.6228 107.895 20.719 107.895 20.818 107.895C20.9247 107.895 21.0314 107.895 21.138 107.895C21.2518 107.895 21.3656 107.896 21.4794 107.896C21.7936 107.896 22.1077 107.896 22.4219 107.896C22.7631 107.897 23.1044 107.897 23.4456 107.898C24.1231 107.898 24.8006 107.899 25.4781 107.899C26.2893 107.9 27.1006 107.9 27.9118 107.901C29.8728 107.903 31.8339 107.904 33.7949 107.905C34.4444 107.906 35.0939 107.906 35.7434 107.907C39.1964 107.909 42.6494 107.91 46.1024 107.911C46.9026 107.911 47.7027 107.912 48.5028 107.912C48.6022 107.912 48.7016 107.912 48.804 107.912C52.0269 107.913 55.2498 107.915 58.4727 107.919C61.7856 107.922 65.0985 107.924 68.4115 107.925C68.8794 107.925 69.3473 107.925 69.8153 107.925C69.9073 107.925 69.9994 107.925 70.0943 107.925C71.5764 107.925 73.0585 107.927 74.5405 107.929C76.0304 107.931 77.5202 107.931 79.0101 107.931C79.8951 107.93 80.7801 107.931 81.6651 107.933C82.2566 107.934 82.8481 107.934 83.4397 107.933C83.7765 107.932 84.1133 107.932 84.4501 107.934C84.7572 107.936 85.0642 107.935 85.3713 107.933C85.5324 107.933 85.6935 107.935 85.8545 107.936C86.9677 107.926 87.9658 107.617 88.8591 106.941C88.9162 106.898 88.9734 106.855 89.0323 106.811C89.9871 106.036 90.4688 104.905 90.6677 103.717C90.6987 103.302 90.6992 102.889 90.6969 102.474C90.6971 102.352 90.6975 102.229 90.6979 102.106C90.6987 101.772 90.698 101.438 90.6971 101.104C90.6964 100.743 90.6971 100.382 90.6976 100.02C90.6983 99.3952 90.6982 98.7699 90.6976 98.1447C90.6967 97.2397 90.6974 96.3348 90.6986 95.4298C90.7005 93.9602 90.7015 92.4905 90.7018 91.0209C90.7018 90.8891 90.7019 90.8891 90.7019 90.7546C90.7021 89.7741 90.7021 88.7936 90.702 87.8132C90.702 87.4574 90.702 87.1016 90.702 86.7458C90.702 86.658 90.702 86.5702 90.702 86.4798C90.7019 85.0152 90.7031 83.5507 90.7052 82.0861C90.7064 81.1835 90.7066 80.281 90.7054 79.3784C90.7047 78.7601 90.705 78.1417 90.7063 77.5234C90.707 77.1668 90.7071 76.8103 90.7059 76.4538C90.7048 76.127 90.7052 75.8003 90.7067 75.4736C90.707 75.3558 90.7067 75.2379 90.7059 75.1201C90.6998 74.2051 90.7988 73.3997 91.4541 72.7119C92.0711 72.1804 92.6555 72.0749 93.4507 72.0831C94.0739 72.1303 94.5582 72.3826 95.0118 72.8068C95.4251 73.2936 95.6314 73.8583 95.6324 74.4893C95.6326 74.5403 95.6328 74.5912 95.6329 74.6436C95.6335 74.8154 95.6334 74.9872 95.6334 75.159C95.6337 75.283 95.634 75.407 95.6343 75.5309C95.6351 75.8725 95.6354 76.2142 95.6356 76.5558C95.6359 76.9239 95.6366 77.292 95.6373 77.6602C95.6389 78.5501 95.6397 79.44 95.6404 80.3299C95.6407 80.7492 95.6411 81.1686 95.6415 81.5879C95.6429 82.9826 95.644 84.3773 95.6446 85.772C95.6447 86.1341 95.6449 86.4962 95.645 86.8583C95.6451 86.9483 95.6451 87.0383 95.6452 87.131C95.6458 88.5865 95.6478 90.0421 95.6504 91.4976C95.653 92.993 95.6544 94.4883 95.6546 95.9837C95.6548 96.8229 95.6555 97.662 95.6575 98.5012C95.6592 99.2165 95.6598 99.9317 95.6591 100.647C95.6587 101.011 95.6589 101.376 95.6604 101.74C95.6716 104.547 95.6716 104.547 95.3073 105.84C95.2849 105.921 95.2849 105.921 95.2621 106.003C94.8309 107.55 93.9631 108.848 92.8695 110.008C92.8174 110.066 92.7653 110.124 92.7117 110.184C91.1369 111.869 88.7601 112.757 86.4999 112.917C86.1242 112.928 85.7487 112.928 85.3729 112.927C85.2594 112.927 85.146 112.928 85.0326 112.928C84.7213 112.928 84.41 112.928 84.0987 112.928C83.7599 112.928 83.421 112.928 83.0822 112.928C82.4885 112.929 81.8947 112.929 81.301 112.929C80.4181 112.929 79.5351 112.929 78.6522 112.929C76.9835 112.93 75.3148 112.93 73.646 112.93C72.3573 112.93 71.0686 112.931 69.7798 112.931C69.4089 112.931 69.038 112.931 68.667 112.931C68.5748 112.931 68.4826 112.931 68.3876 112.931C65.7936 112.932 63.1996 112.932 60.6056 112.932C60.5078 112.932 60.41 112.932 60.3092 112.932C59.8135 112.932 59.3177 112.932 58.822 112.932C58.6743 112.932 58.6743 112.932 58.5237 112.932C58.3246 112.932 58.1255 112.932 57.9264 112.932C54.829 112.932 51.7316 112.932 48.6342 112.933C45.1544 112.935 41.6746 112.935 38.1947 112.935C37.8236 112.935 37.4525 112.935 37.0814 112.935C36.99 112.935 36.8987 112.935 36.8045 112.935C35.3344 112.935 33.8643 112.936 32.3941 112.936C30.9164 112.937 29.4387 112.937 27.961 112.937C27.0833 112.936 26.2057 112.936 25.328 112.937C24.7413 112.938 24.1546 112.938 23.5679 112.937C23.2339 112.937 22.8999 112.937 22.5659 112.937C19.6402 112.942 16.8373 112.653 14.5471 110.637C14.4838 110.584 14.4204 110.531 14.3552 110.476C12.453 108.842 11.3195 106.468 11.1031 103.981C11.0695 103.425 11.0762 102.867 11.0768 102.311C11.0766 102.168 11.0765 102.025 11.0763 101.882C11.0759 101.489 11.0759 101.096 11.076 100.703C11.0761 100.276 11.0757 99.8485 11.0754 99.4212C11.0748 98.5735 11.0746 97.7258 11.0745 96.8782C11.0745 95.8628 11.074 94.8475 11.0734 93.8322C11.0722 91.4365 11.0717 89.0408 11.0713 86.6451C11.0712 85.426 11.0709 84.2068 11.0706 82.9877C11.0696 79.0758 11.0687 75.1639 11.0684 71.252C11.0684 71.0651 11.0684 70.8781 11.0684 70.6912C11.0684 70.3164 11.0684 69.9415 11.0683 69.5667C11.0683 69.1278 11.0683 68.689 11.0682 68.2501C11.0682 68.1245 11.0682 67.9989 11.0682 67.8733C11.0679 63.84 11.0667 59.8067 11.0649 55.7734C11.0636 52.8748 11.0624 49.9761 11.062 47.0774C11.062 47.0178 11.062 46.9581 11.062 46.8967C11.0618 45.5872 11.0618 44.2777 11.0617 42.9683C11.0617 42.4997 11.0617 42.0311 11.0617 41.5625C11.0617 41.4459 11.0617 41.3294 11.0617 41.2128C11.0616 39.3572 11.0608 37.5017 11.0597 35.6461C11.0585 33.7244 11.0582 31.8027 11.0588 29.881C11.0592 28.7737 11.0588 27.6663 11.0576 26.559C11.0568 25.8188 11.0569 25.0786 11.0577 24.3384C11.0581 23.917 11.0582 23.4956 11.0572 23.0742C11.0563 22.6899 11.0565 22.3056 11.0576 21.9213C11.0578 21.784 11.0576 21.6468 11.0569 21.5095C11.0513 20.2385 11.1338 18.9124 11.5688 17.7075C11.5922 17.6401 11.6157 17.5728 11.6399 17.5034C12.51 15.1017 14.2921 13.1273 16.596 12.0278C18.0543 11.3578 19.5182 11.0689 21.1189 11.072Z" fill="#115056"/>
<path d="M86.8406 20.5582C87.2071 20.7653 87.513 21.0066 87.8178 21.2955C88.0078 21.474 88.2056 21.6378 88.4085 21.8017C88.7285 22.0612 89.0438 22.3254 89.357 22.593C89.7058 22.8905 90.0611 23.1773 90.4235 23.458C90.877 23.8096 91.3116 24.1794 91.7431 24.5575C92.0832 24.855 92.4298 25.1418 92.7848 25.4215C93.0006 25.5918 93.2113 25.7678 93.4216 25.9449C93.4236 25.8698 93.4256 25.7947 93.4277 25.7173C93.4652 24.8623 93.5576 24.0486 94.2079 23.4285C94.5859 23.1646 94.9349 23.0266 95.3945 23.0237C95.4579 23.0232 95.5213 23.0226 95.5865 23.022C95.6554 23.0218 95.7242 23.0216 95.7951 23.0214C95.8682 23.0209 95.9412 23.0204 96.0165 23.0198C96.2583 23.0183 96.5001 23.0174 96.7418 23.0166C96.8246 23.0163 96.9074 23.0159 96.9927 23.0156C97.4312 23.014 97.8696 23.0128 98.3081 23.0121C98.7595 23.0112 99.2109 23.0085 99.6624 23.0054C100.011 23.0033 100.359 23.0027 100.707 23.0024C100.874 23.002 101.04 23.0011 101.206 22.9997C102.29 22.9907 103.163 23.0148 104.065 23.6835C104.368 24.0052 104.46 24.3376 104.455 24.7708C104.454 24.9117 104.454 24.9117 104.454 25.0554C104.452 25.1573 104.45 25.2593 104.449 25.3644C104.448 25.4737 104.447 25.583 104.446 25.6923C104.444 25.9273 104.442 26.1622 104.439 26.3971C104.435 26.7693 104.433 27.1416 104.432 27.5138C104.432 27.6415 104.431 27.7693 104.431 27.897C104.43 27.9929 104.43 27.9929 104.43 28.0908C104.427 28.9569 104.422 29.8229 104.412 30.6889C104.404 31.2739 104.401 31.8587 104.402 32.4437C104.402 32.7528 104.4 33.0616 104.394 33.3707C104.296 34.7999 104.296 34.7999 104.861 36.0295C105.073 36.2078 105.292 36.3426 105.532 36.4822C105.683 36.6028 105.832 36.7254 105.979 36.8508C106.084 36.9352 106.084 36.9352 106.191 37.0213C106.464 37.2451 106.723 37.4825 106.983 37.7202C107.194 37.9073 107.411 38.0846 107.63 38.2614C108.737 39.1662 108.737 39.1662 108.913 39.9423C108.949 40.5423 108.77 41.0401 108.402 41.5079C107.978 41.9713 107.496 42.232 106.864 42.262C106.107 42.2214 105.669 41.7666 105.144 41.2683C104.928 41.0641 104.702 40.8753 104.47 40.6893C104.157 40.4377 103.859 40.1761 103.566 39.9029C103.204 39.566 102.829 39.2506 102.444 38.9403C102.14 38.689 101.85 38.4231 101.561 38.1551C101.397 38.0063 101.23 37.8708 101.054 37.7355C100.7 37.4272 100.529 37.0356 100.471 36.5716C100.46 36.3113 100.46 36.0529 100.463 35.7925C100.463 35.6942 100.463 35.5959 100.463 35.4946C100.463 35.2272 100.465 34.9599 100.467 34.6925C100.469 34.4123 100.469 34.1321 100.47 33.8519C100.471 33.3222 100.473 32.7925 100.476 32.2628C100.48 31.6594 100.481 31.0559 100.483 30.4525C100.486 29.2121 100.492 27.9717 100.499 26.7312C99.5128 26.7312 98.5267 26.7312 97.5107 26.7312C97.5153 26.9833 97.5198 27.2353 97.5245 27.4949C97.5276 27.7411 97.53 27.9873 97.5323 28.2335C97.5343 28.4036 97.5369 28.5737 97.5404 28.7437C97.5452 28.9893 97.5474 29.2348 97.5491 29.4805C97.5511 29.5555 97.5531 29.6306 97.5552 29.7079C97.5555 30.3288 97.3824 30.8324 96.9695 31.304C96.5012 31.7678 95.9517 31.9257 95.3039 31.9508C94.4512 31.9149 93.9702 31.5286 93.3429 30.9776C93.2163 30.8696 93.0892 30.7623 92.962 30.655C92.8749 30.5815 92.7879 30.5079 92.701 30.4341C92.4324 30.206 92.1614 29.9812 91.8881 29.7588C91.526 29.464 91.1692 29.1634 90.8135 28.861C90.5466 28.6346 90.2775 28.4116 90.0058 28.1909C89.6234 27.8798 89.2493 27.5597 88.8759 27.238C88.5291 26.9398 88.177 26.6489 87.8218 26.3608C87.5707 26.1547 87.3236 25.9443 87.0765 25.7335C86.7113 25.4223 86.3395 25.1258 85.9511 24.844C85.6252 24.9777 85.3814 25.2089 85.1205 25.4387C85.0217 25.5245 84.9229 25.6103 84.824 25.6961C84.7752 25.7384 84.7264 25.7808 84.6761 25.8244C84.4816 25.9912 84.2828 26.1525 84.0834 26.3135C83.7389 26.5931 83.4097 26.886 83.0817 27.1846C82.8147 27.4222 82.537 27.6455 82.2591 27.8703C81.9783 28.1018 81.7037 28.3399 81.4294 28.5792C81.0927 28.8729 80.7545 29.1631 80.4072 29.4442C79.9092 29.8477 79.4279 30.2698 78.9446 30.6906C78.3198 31.2331 77.6895 31.7692 77.0571 32.3028C76.7404 32.5703 76.4258 32.8403 76.1116 33.1107C75.7922 33.3854 75.4707 33.6564 75.1434 33.9216C74.6442 34.3271 74.1609 34.7506 73.6759 35.1729C73.0515 35.7151 72.4214 36.2509 71.7895 36.7842C71.4165 37.0993 71.046 37.417 70.6763 37.7358C70.4245 37.9524 70.1699 38.1638 69.9091 38.3695C70.0174 38.4025 70.0174 38.4025 70.1278 38.4362C70.8131 38.6601 71.4118 38.8796 71.7629 39.5493C71.9139 39.9127 71.9071 40.2606 71.9034 40.6493C71.9037 40.7658 71.9037 40.7658 71.904 40.8847C71.9044 41.1451 71.9031 41.4054 71.9018 41.6658C71.9018 41.8556 71.9018 42.0454 71.9019 42.2352C71.902 42.7434 71.9006 43.2515 71.8989 43.7596C71.8976 44.2365 71.8975 44.7134 71.8974 45.1903C71.8961 46.5848 71.8928 47.9793 71.8898 49.3738C71.8849 52.4894 71.8801 55.6051 71.875 58.8151C81.3469 58.8151 90.8187 58.8151 100.578 58.8151C100.578 55.9087 100.578 53.0023 100.578 50.0078C100.878 49.3315 101.053 48.9716 101.709 48.6605C102.296 48.4557 102.858 48.4696 103.428 48.7201C103.876 48.9705 104.183 49.3512 104.38 49.8228C104.496 50.2426 104.465 50.6866 104.464 51.1189C104.464 51.2316 104.465 51.3443 104.466 51.457C104.468 51.762 104.468 52.067 104.468 52.3719C104.468 52.6271 104.468 52.8823 104.469 53.1375C104.47 53.74 104.471 54.3425 104.47 54.9449C104.47 55.565 104.471 56.185 104.474 56.8051C104.477 57.3387 104.478 57.8723 104.477 58.4059C104.477 58.724 104.478 59.0422 104.48 59.3603C104.481 59.6598 104.481 59.9591 104.48 60.2586C104.479 60.3679 104.48 60.4773 104.481 60.5867C104.488 61.309 104.419 61.9186 103.927 62.4802C103.478 62.8867 103.009 63.0123 102.42 63.0128C102.334 63.0133 102.334 63.0133 102.246 63.0139C102.053 63.0148 101.86 63.0141 101.667 63.0134C101.527 63.0137 101.388 63.0141 101.248 63.0147C100.864 63.0158 100.48 63.0155 100.096 63.0149C99.6823 63.0145 99.2683 63.0155 98.8543 63.0163C98.0432 63.0177 97.2321 63.0177 96.4211 63.0173C95.7619 63.017 95.1027 63.0171 94.4435 63.0175C94.3028 63.0176 94.3028 63.0176 94.1593 63.0177C93.9688 63.0178 93.7783 63.0179 93.5878 63.0181C91.8007 63.0191 90.0136 63.0187 88.2265 63.0178C86.5914 63.017 84.9563 63.018 83.3212 63.0199C81.6425 63.0218 79.9638 63.0226 78.2852 63.0221C77.3426 63.0218 76.4001 63.022 75.4575 63.0234C74.6551 63.0245 73.8527 63.0246 73.0503 63.0232C72.6409 63.0225 72.2316 63.0224 71.8222 63.0236C71.4473 63.0247 71.0725 63.0243 70.6976 63.0228C70.5621 63.0225 70.4266 63.0227 70.291 63.0235C68.7982 63.0319 68.7982 63.0319 68.2892 62.549C68.0442 62.2678 67.9333 62.077 67.9335 61.7104C67.9334 61.6411 67.9332 61.5717 67.933 61.5003C67.9333 61.4236 67.9335 61.347 67.9337 61.268C67.9337 61.187 67.9336 61.1059 67.9335 61.0224C67.9334 60.749 67.9338 60.4757 67.9343 60.2023C67.9343 60.007 67.9343 59.8118 67.9342 59.6165C67.9342 59.1952 67.9344 58.774 67.9349 58.3527C67.9355 57.7436 67.9357 57.1345 67.9358 56.5254C67.936 55.5372 67.9365 54.549 67.9373 53.5609C67.938 52.6008 67.9385 51.6407 67.9389 50.6806C67.9389 50.6215 67.9389 50.5623 67.9389 50.5014C67.939 50.2046 67.9391 49.9079 67.9392 49.6112C67.9401 47.1484 67.9414 44.6855 67.9432 42.2227C67.8468 42.224 67.7505 42.2252 67.6512 42.2265C67.2912 42.2308 66.9311 42.2335 66.571 42.2357C66.4156 42.2369 66.2603 42.2385 66.1049 42.2405C65.8806 42.2434 65.6563 42.2447 65.432 42.2458C65.3634 42.247 65.2948 42.2482 65.2242 42.2495C64.4337 42.2497 63.8879 42.0258 63.3174 41.4775C62.9205 41.0172 62.7703 40.4965 62.8032 39.8925C62.9534 38.9139 63.9428 38.3413 64.6601 37.7625C64.8827 37.5779 65.0961 37.3858 65.3089 37.19C65.6604 36.8665 66.0237 36.5632 66.3953 36.2632C66.6022 36.0925 66.8013 35.9159 66.9995 35.7352C67.2666 35.4918 67.5391 35.2593 67.8203 35.0324C68.1194 34.7905 68.4072 34.5409 68.6902 34.2804C69.0417 33.9569 69.4051 33.6536 69.7767 33.3536C69.9836 33.1829 70.1827 33.0063 70.3809 32.8256C70.7191 32.5174 71.0697 32.2286 71.4253 31.9409C71.7004 31.7133 71.9629 31.4734 72.2268 31.2329C72.431 31.0514 72.6405 30.8789 72.8531 30.7073C73.1522 30.4655 73.44 30.2158 73.723 29.9554C74.0745 29.6319 74.4379 29.3286 74.8095 29.0286C75.0164 28.8579 75.2155 28.6813 75.4137 28.5006C75.6808 28.2572 75.9533 28.0247 76.2345 27.7978C76.5336 27.5559 76.8214 27.3063 77.1044 27.0458C77.4559 26.7223 77.8192 26.419 78.1909 26.119C78.3977 25.9483 78.5969 25.7717 78.7951 25.591C79.0621 25.3476 79.3347 25.1151 79.6159 24.8882C79.915 24.6463 80.2028 24.3967 80.4858 24.1362C80.8373 23.8127 81.2006 23.5094 81.5723 23.2095C81.7791 23.0387 81.9783 22.8621 82.1765 22.6814C82.5125 22.3751 82.861 22.0884 83.215 21.8032C83.4439 21.6122 83.66 21.4113 83.877 21.207C84.7188 20.4315 85.7358 20.0342 86.8406 20.5582Z" fill="#115056"/>
<path d="M27.2409 93.4643C27.3835 93.4638 27.3835 93.4638 27.529 93.4633C27.7915 93.4627 28.0541 93.4631 28.3166 93.4639C28.6028 93.4646 28.8889 93.4639 29.175 93.4634C29.6761 93.4626 30.1771 93.4628 30.6782 93.4635C31.4232 93.4646 32.1683 93.4643 32.9134 93.4637C34.2441 93.4628 35.5748 93.4632 36.9056 93.4642C38.07 93.465 39.2345 93.4653 40.3989 93.4652C40.5148 93.4652 40.5148 93.4652 40.633 93.4652C40.9465 93.4652 41.2601 93.4652 41.5736 93.4651C44.5147 93.4648 47.4558 93.4658 50.3969 93.4675C53.0102 93.4689 55.6235 93.4694 58.2368 93.4689C58.4046 93.4689 58.5724 93.4689 58.7403 93.4688C58.8647 93.4688 58.8647 93.4688 58.9917 93.4688C59.4093 93.4687 59.827 93.4687 60.2446 93.4686C60.327 93.4686 60.4094 93.4686 60.4943 93.4686C62.6777 93.4683 64.8612 93.4687 67.0447 93.4694C67.2796 93.4694 67.5145 93.4695 67.7494 93.4696C67.9052 93.4696 68.0611 93.4697 68.2169 93.4697C69.3036 93.47 70.3904 93.4701 71.4771 93.4699C72.8774 93.4697 74.2776 93.4701 75.6779 93.4713C76.4186 93.4719 77.1592 93.4721 77.8999 93.4717C78.3944 93.4715 78.889 93.4718 79.3836 93.4726C79.6654 93.4731 79.9473 93.4733 80.2292 93.4728C80.5329 93.4722 80.8365 93.4729 81.1402 93.4737C81.2276 93.4734 81.3151 93.473 81.4052 93.4727C82.2742 93.4771 82.9567 93.5948 83.6044 94.2052C84.226 94.863 84.3472 95.3715 84.3256 96.2755C84.2614 96.9531 83.9246 97.4394 83.4336 97.8974C82.7586 98.4304 82.0594 98.4712 81.2272 98.4679C81.0849 98.4683 81.0849 98.4683 80.9398 98.4686C80.6766 98.4692 80.4135 98.469 80.1504 98.4686C79.864 98.4682 79.5777 98.4688 79.2913 98.4693C78.7895 98.47 78.2877 98.4701 77.7859 98.4698C77.0397 98.4694 76.2935 98.4699 75.5473 98.4705C74.1371 98.4717 72.7268 98.4718 71.3166 98.4716C70.2276 98.4715 69.1386 98.4716 68.0497 98.472C67.8933 98.472 67.7369 98.4721 67.5805 98.4721C67.3448 98.4722 67.1091 98.4723 66.8735 98.4723C64.6819 98.473 62.4904 98.4733 60.2989 98.473C60.2163 98.473 60.1337 98.473 60.0485 98.473C59.6297 98.4729 59.2109 98.4728 58.7921 98.4728C58.7089 98.4728 58.6257 98.4727 58.54 98.4727C58.3718 98.4727 58.2036 98.4727 58.0354 98.4727C55.4179 98.4722 52.8004 98.4729 50.1829 98.4743C47.2427 98.4759 44.3024 98.4768 41.3622 98.4765C41.0487 98.4764 40.7353 98.4764 40.4218 98.4764C40.3446 98.4764 40.2675 98.4764 40.1879 98.4764C39.0224 98.4763 37.8568 98.4768 36.6912 98.4776C35.3657 98.4786 34.0403 98.4787 32.7148 98.4777C31.9729 98.4772 31.2311 98.4773 30.4893 98.4784C29.9937 98.479 29.4981 98.4788 29.0026 98.4779C28.7202 98.4774 28.4379 98.4773 28.1556 98.4782C27.8512 98.4792 27.5468 98.4784 27.2424 98.4773C27.1551 98.4779 27.0679 98.4785 26.978 98.4791C26.073 98.4728 25.3515 98.2999 24.6918 97.6615C24.2426 97.1943 24.1009 96.6026 24.0332 95.9708C24.1259 95.1054 24.4177 94.4516 25.1046 93.8968C25.7524 93.491 26.4981 93.4594 27.2409 93.4643Z" fill="#115056"/>
<path d="M26.2818 81.2853C26.3636 81.2849 26.4455 81.2844 26.5298 81.284C26.6194 81.2843 26.709 81.2846 26.8014 81.285C26.8972 81.2847 26.993 81.2844 27.0918 81.2841C27.3587 81.2835 27.6257 81.2836 27.8926 81.284C28.1827 81.2843 28.4728 81.2836 28.7628 81.2831C29.2715 81.2823 29.7802 81.282 30.289 81.2822C31.0454 81.2824 31.8019 81.2818 32.5584 81.281C33.988 81.2794 35.4175 81.279 36.8471 81.2789C37.951 81.2788 39.0548 81.2785 40.1587 81.278C40.4762 81.2779 40.7937 81.2777 41.1112 81.2776C41.1901 81.2776 41.2691 81.2775 41.3504 81.2775C43.5712 81.2765 45.792 81.2759 48.0128 81.276C48.0966 81.276 48.1803 81.276 48.2666 81.276C48.6912 81.276 49.1158 81.276 49.5403 81.276C49.6247 81.276 49.709 81.276 49.7959 81.276C49.9664 81.276 50.1369 81.276 50.3074 81.2761C52.9608 81.2761 55.6141 81.275 58.2675 81.2728C61.2471 81.2704 64.2268 81.269 67.2065 81.2692C67.5241 81.2692 67.8417 81.2692 68.1593 81.2692C68.2766 81.2692 68.2766 81.2692 68.3963 81.2692C69.6559 81.2692 70.9155 81.2682 72.1751 81.2669C73.4407 81.2655 74.7062 81.2654 75.9718 81.2664C76.7239 81.267 77.4761 81.2667 78.2283 81.2652C78.7306 81.2642 79.2328 81.2644 79.7351 81.2656C80.0214 81.2662 80.3077 81.2663 80.5939 81.265C80.9023 81.2637 81.2107 81.2647 81.5191 81.266C81.608 81.2653 81.6968 81.2645 81.7884 81.2637C82.5589 81.2706 83.1192 81.4888 83.6852 82.0129C84.228 82.6184 84.3267 83.2191 84.3201 84.0089C84.2672 84.6898 83.9731 85.208 83.4705 85.6591C82.8262 86.1702 82.0755 86.2154 81.2822 86.2106C81.1868 86.2109 81.0913 86.2113 80.993 86.2117C80.7289 86.2125 80.465 86.2122 80.2009 86.2115C79.9133 86.2109 79.6257 86.2118 79.3382 86.2124C78.8344 86.2134 78.3307 86.2135 77.8269 86.213C77.0779 86.2123 76.3288 86.2129 75.5797 86.2138C74.2418 86.2154 72.9039 86.2156 71.5659 86.2152C70.395 86.2148 69.2242 86.2148 68.0533 86.2153C67.8962 86.2154 67.7392 86.2154 67.5822 86.2155C67.3455 86.2156 67.1089 86.2157 66.8722 86.2158C64.6721 86.2166 62.4719 86.217 60.2718 86.2163C60.1888 86.2163 60.1059 86.2163 60.0204 86.2163C59.3469 86.2161 58.6733 86.2159 57.9998 86.2157C55.3723 86.2149 52.7447 86.2155 50.1172 86.2174C47.1652 86.2194 44.2133 86.2204 41.2614 86.2199C40.9467 86.2198 40.632 86.2198 40.3173 86.2197C40.2398 86.2197 40.1623 86.2197 40.0825 86.2197C38.9124 86.2195 37.7423 86.2201 36.5722 86.2211C35.2417 86.2223 33.9112 86.2224 32.5807 86.221C31.836 86.2202 31.0914 86.2203 30.3468 86.2217C29.8494 86.2225 29.3519 86.2222 28.8545 86.221C28.5711 86.2203 28.2877 86.2201 28.0044 86.2213C27.6988 86.2226 27.3933 86.2214 27.0877 86.22C27.0002 86.2208 26.9126 86.2216 26.8223 86.2223C25.9871 86.2145 25.2953 86.0001 24.6869 85.4167C24.2412 84.8932 24.0326 84.2898 24.0455 83.6041C24.1048 82.9757 24.3518 82.4064 24.7698 81.9343C25.2206 81.563 25.687 81.2857 26.2818 81.2853Z" fill="#115056"/>
<path d="M26.2654 69.7254C26.3183 69.7252 26.3713 69.7249 26.4258 69.7246C26.6027 69.7239 26.7795 69.7243 26.9563 69.7246C27.0846 69.7243 27.2129 69.724 27.3412 69.7236C27.6933 69.7226 28.0455 69.7226 28.3976 69.7228C28.7776 69.7228 29.1575 69.722 29.5375 69.7212C30.2817 69.7199 31.026 69.7195 31.7702 69.7194C32.3752 69.7193 32.9803 69.719 33.5853 69.7185C35.3009 69.7171 37.0164 69.7164 38.732 69.7165C38.8245 69.7165 38.917 69.7165 39.0123 69.7165C39.1512 69.7165 39.1512 69.7165 39.2928 69.7165C40.7933 69.7166 42.2938 69.7151 43.7943 69.7129C45.3353 69.7106 46.8762 69.7095 48.4172 69.7097C49.2822 69.7097 50.1472 69.7093 51.0123 69.7076C51.7488 69.7062 52.4853 69.7058 53.2218 69.7069C53.5975 69.7074 53.9731 69.7074 54.3488 69.7061C54.693 69.7048 55.0372 69.705 55.3814 69.7064C55.5056 69.7067 55.6298 69.7064 55.754 69.7055C56.6221 69.6998 57.4009 69.7445 58.0679 70.3551C58.6504 70.9937 58.7787 71.6502 58.7627 72.4909C58.7332 73.1291 58.4726 73.6281 58.0381 74.0897C57.4583 74.5849 56.8279 74.7095 56.083 74.7099C56.0309 74.7101 55.9788 74.7102 55.9251 74.7103C55.7506 74.7107 55.5762 74.7105 55.4018 74.7103C55.2754 74.7105 55.149 74.7106 55.0226 74.7109C54.6753 74.7113 54.3281 74.7113 53.9809 74.7112C53.6063 74.7112 53.2318 74.7116 52.8572 74.712C52.1235 74.7127 51.3897 74.7129 50.656 74.7129C50.0596 74.713 49.4632 74.7131 48.8668 74.7134C47.1761 74.7141 45.4853 74.7144 43.7946 74.7144C43.7034 74.7144 43.6123 74.7144 43.5184 74.7144C43.3815 74.7144 43.3815 74.7144 43.2418 74.7144C41.7626 74.7143 40.2833 74.7151 38.8041 74.7162C37.2853 74.7173 35.7666 74.7179 34.2478 74.7178C33.3951 74.7178 32.5424 74.718 31.6897 74.7188C30.9637 74.7195 30.2377 74.7197 29.5117 74.7192C29.1414 74.7189 28.771 74.7189 28.4006 74.7196C28.0614 74.7202 27.7222 74.7201 27.383 74.7194C27.2604 74.7193 27.1379 74.7194 27.0153 74.7199C26.0561 74.7231 25.222 74.7009 24.4798 74.0289C23.9863 73.5046 23.8087 72.9353 23.7871 72.2227C23.8135 71.3777 24.0772 70.7969 24.6914 70.2175C25.1745 69.835 25.6563 69.7262 26.2654 69.7254Z" fill="#115056"/>
<path d="M26.407 58.2246C26.5174 58.2243 26.6278 58.2238 26.7382 58.2231C27.0404 58.2218 27.3426 58.2225 27.6448 58.2234C27.9711 58.2242 28.2975 58.2231 28.6238 58.2222C29.2627 58.2208 29.9016 58.2211 30.5404 58.222C31.0597 58.2227 31.579 58.2228 32.0983 58.2225C32.1722 58.2224 32.2461 58.2224 32.3223 58.2223C32.4725 58.2222 32.6227 58.2221 32.7729 58.222C34.1811 58.2211 35.5892 58.2222 36.9973 58.2238C38.2053 58.2253 39.4132 58.225 40.6212 58.2236C42.0243 58.2219 43.4274 58.2212 44.8305 58.2222C44.9802 58.2223 45.1298 58.2224 45.2795 58.2225C45.3899 58.2225 45.3899 58.2225 45.5026 58.2226C46.0212 58.2229 46.5398 58.2224 47.0584 58.2217C47.6905 58.2208 48.3225 58.2211 48.9546 58.2227C49.277 58.2236 49.5995 58.2239 49.9219 58.2228C50.2172 58.2219 50.5125 58.2224 50.8078 58.2241C50.9649 58.2246 51.122 58.2236 51.2791 58.2225C51.9229 58.2281 52.3458 58.3042 52.8571 58.717C53.4556 59.4029 53.6217 60.1309 53.5808 61.027C53.5115 61.7415 53.2622 62.2247 52.7879 62.7567C52.2339 63.2098 51.6676 63.1737 50.9802 63.1705C50.8699 63.1709 50.7596 63.1713 50.6493 63.1718C50.3469 63.173 50.0445 63.1726 49.7421 63.1721C49.4157 63.1717 49.0893 63.1727 48.7629 63.1735C48.1238 63.1748 47.4846 63.1749 46.8455 63.1745C46.326 63.1742 45.8065 63.1743 45.287 63.1747C45.213 63.1747 45.1391 63.1748 45.0629 63.1749C44.9126 63.175 44.7624 63.1751 44.6122 63.1752C43.2035 63.1763 41.7949 63.1759 40.3862 63.175C39.0976 63.1742 37.809 63.1752 36.5204 63.1771C35.1971 63.179 33.8738 63.1798 32.5504 63.1792C31.8075 63.179 31.0647 63.1791 30.3218 63.1805C29.6894 63.1817 29.0571 63.1817 28.4247 63.1804C28.1021 63.1797 27.7795 63.1795 27.4569 63.1807C27.1615 63.1818 26.8661 63.1814 26.5706 63.1799C26.4134 63.1795 26.2562 63.1806 26.099 63.1818C25.4549 63.1765 25.0322 63.1006 24.5207 62.6876C23.9222 62.0017 23.7565 61.274 23.7967 60.3779C23.8619 59.7116 24.0824 59.2194 24.5207 58.717C25.123 58.2307 25.6572 58.2195 26.407 58.2246Z" fill="white"/>
<path d="M40.6306 27.2278C42.1704 28.5371 43.1286 30.3418 43.3089 32.357C43.3992 33.678 43.1802 34.9344 42.6097 36.1322C42.5327 36.3531 42.5447 36.4235 42.6211 36.6397C42.7793 36.8183 42.9383 36.9842 43.1087 37.1503C43.185 37.2261 43.185 37.2261 43.2629 37.3035C43.3735 37.4132 43.4844 37.5227 43.5955 37.6319C43.7716 37.8049 43.9469 37.9787 44.122 38.1526C44.5573 38.5848 44.9939 39.0156 45.4304 39.4465C45.7989 39.8104 46.1669 40.1747 46.5343 40.5397C46.7067 40.7106 46.8798 40.8807 47.0529 41.0508C47.1592 41.1562 47.2654 41.2617 47.3717 41.3672C47.4197 41.414 47.4677 41.4608 47.5171 41.509C47.862 41.8537 48.1594 42.2029 48.2461 42.6969C48.2376 43.4836 48.057 43.8728 47.5212 44.4444C47.0747 44.87 46.6615 45.1354 46.0369 45.1718C45.3763 45.1278 44.9345 44.7396 44.4893 44.2841C44.4363 44.2312 44.3833 44.1782 44.3287 44.1236C44.1552 43.9499 43.9828 43.7751 43.8105 43.6003C43.6898 43.479 43.569 43.3578 43.4482 43.2367C43.1316 42.9188 42.8159 42.6001 42.5004 42.2811C42.1778 41.9553 41.8543 41.6304 41.5309 41.3054C40.8974 40.6684 40.2648 40.0305 39.6329 39.392C39.5519 39.4247 39.4709 39.4574 39.3875 39.4912C39.2801 39.5343 39.1728 39.5775 39.0655 39.6207C39.0123 39.6423 38.959 39.6638 38.9041 39.686C37.0924 40.4139 35.0431 40.4053 33.2336 39.6728C32.2379 39.2454 31.4367 38.6555 30.6683 37.8979C30.5819 37.813 30.5819 37.813 30.4938 37.7265C29.3417 36.515 28.7108 34.8348 28.6237 33.1797C28.6188 33.0896 28.6188 33.0896 28.6139 32.9978C28.563 31.0644 29.2749 29.2947 30.511 27.8323C30.5552 27.78 30.5994 27.7277 30.6449 27.6738C33.2671 24.8397 37.7455 24.965 40.6306 27.2278ZM31.8865 29.3937C30.9778 30.5529 30.579 31.8696 30.6683 33.3369C30.8854 34.8825 31.5996 36.1056 32.7915 37.1115C34.1254 38.0575 35.5633 38.2887 37.1653 38.1003C38.118 37.8896 39.001 37.3767 39.7115 36.7183C39.7936 36.6426 39.7936 36.6426 39.8774 36.5654C40.7893 35.6358 41.2646 34.264 41.3039 32.9831C41.2834 31.6049 40.7928 30.351 39.8688 29.3265C39.8299 29.2803 39.7909 29.2342 39.7508 29.1867C38.9526 28.3067 37.6809 27.6713 36.4933 27.5855C34.71 27.5049 33.0989 28.0133 31.8865 29.3937Z" fill="#115056"/>
<path d="M85.6358 34.752C86.4402 34.752 87.2447 34.752 88.0735 34.752C88.0995 35.5564 88.1254 36.3609 88.1521 37.1897C88.5049 37.253 88.5049 37.253 88.8648 37.3175C89.9248 37.5223 91.2984 37.8982 92.084 38.6838C92.0357 39.1655 91.785 39.6051 91.5876 40.0403C91.5493 40.1279 91.5111 40.2155 91.4716 40.3057C91.434 40.3888 91.3963 40.4719 91.3575 40.5576C91.3064 40.6718 91.3064 40.6718 91.2542 40.7883C91.1404 40.9643 91.1404 40.9643 90.9817 41.0341C90.7477 41.0473 90.6108 40.9503 90.408 40.8365C89.088 40.1451 87.4767 39.767 85.9933 40.0775C85.5113 40.2401 85.131 40.4608 84.8199 40.8709C84.7062 41.269 84.7167 41.5638 84.8985 41.9276C85.2792 42.3683 85.7121 42.5284 86.255 42.6795C86.3229 42.6993 86.3907 42.719 86.4606 42.7393C86.7619 42.8267 87.0639 42.9117 87.366 42.9963C91.2838 44.0945 91.2838 44.0945 92.2757 45.6874C92.8403 46.7162 92.9294 47.759 92.6369 48.8937C92.2405 50.1101 91.3702 50.9081 90.2753 51.5016C89.5977 51.8392 88.8381 52.1307 88.0735 52.1307C88.0735 52.9871 88.0735 53.8434 88.0735 54.7257C87.2691 54.7257 86.4646 54.7257 85.6358 54.7257C85.6358 53.8953 85.6358 53.0649 85.6358 52.2094C85.4282 52.2094 85.2206 52.2094 85.0067 52.2094C84.7784 52.1826 84.5573 52.1329 84.3333 52.0816C84.2719 52.0676 84.2105 52.0535 84.1473 52.0391C82.8494 51.7274 81.6683 51.1451 80.6816 50.2434C81.4454 48.5281 81.4454 48.5281 81.7826 47.8843C82.0552 48.0116 82.2978 48.1718 82.5493 48.3365C83.9926 49.2428 85.8268 49.627 87.5108 49.3241C88.0849 49.1638 88.6836 48.9322 89.0516 48.4412C89.2417 48.0999 89.3102 47.8051 89.2531 47.4125C89.0434 46.8839 88.7435 46.6905 88.2308 46.4689C87.6283 46.2228 86.9988 46.0816 86.3681 45.9282C84.6525 45.5077 82.7018 44.9594 81.7233 43.3516C81.2104 42.3806 81.0694 41.2386 81.3894 40.1779C81.893 38.9358 82.658 38.129 83.8996 37.5933C84.4528 37.3898 85.0446 37.1897 85.6358 37.1897C85.6358 36.3852 85.6358 35.5808 85.6358 34.752Z" fill="#115056"/>
</svg>
