<svg width="100" height="100" viewBox="0 0 100 100" fill="none" xmlns="http://www.w3.org/2000/svg">
<path d="M71.6803 0.538574C76.356 1.98892 78.7159 4.56854 78.668 9.62076C78.668 24.2386 78.668 38.8528 78.668 53.4706C78.668 55.4672 78.2439 55.8879 76.2195 55.8953C64.3828 55.9469 55.2084 65.8558 56.0381 77.691C58.0699 103.675 97.7985 101.17 96.3788 75.0671C95.9068 60.5046 82.9897 59.2794 84.6195 55.7366C86.5149 53.0204 91.976 58.7037 93.5505 60.2205C105.833 73.8788 98.8679 95.3277 80.8989 99.1916C47.9552 104.816 41.9373 54.9948 75.3714 52.5369C75.3714 38.1516 75.3714 23.7662 75.3714 9.38088C75.3714 5.80484 73.3912 3.84152 69.7886 3.84152C49.7031 3.84152 29.6175 3.84152 9.53196 3.84152C5.96988 3.84152 3.98235 5.84174 3.98235 9.42886C3.98235 36.5315 3.98235 63.6341 3.98235 90.7367C3.98235 94.3866 5.95145 96.3684 9.58359 96.3684C24.5768 96.3684 39.5663 96.3684 54.5594 96.3684C57.0485 95.7521 58.3133 99.1731 55.5403 99.6529C40.2927 99.6861 25.0414 99.6529 9.79377 99.6639C4.7604 99.7156 2.18287 97.3648 0.689453 92.6964C0.689453 64.3021 0.689453 35.9078 0.689453 7.51352C1.22782 5.61294 1.92106 3.73819 3.59885 2.58308C4.83415 1.73428 6.29438 1.21024 7.65505 0.542265C28.998 0.542265 50.341 0.542265 71.684 0.542265L71.6803 0.538574Z" fill="white"/>
<path d="M76.2522 99.9925C45.5173 99.1511 44.3816 54.696 75.0538 52.2529C75.0391 38.1739 75.0649 23.4158 75.0538 9.37734C75.0538 5.95999 73.2322 4.15536 69.7881 4.15536C49.7026 4.15536 29.617 4.15536 9.53149 4.15536C6.15748 4.15536 4.299 6.02642 4.299 9.42532C4.299 36.5279 4.299 63.6306 4.299 90.7332C4.299 94.2096 6.12798 96.0474 9.5868 96.0474H54.559C57.4721 95.3869 58.7221 99.4685 55.5693 99.963C54.6622 99.9999 10.7779 99.963 9.7933 99.9778C4.76362 99.9778 1.90216 97.8152 0.523048 92.9696C0.467737 92.9216 0.4198 92.8626 0.37555 92.8146C1.61453 90.3273 -2.79566 0.948364 3.4177 2.32121C2.81296 -1.80471 69.814 0.988959 71.7904 0.225037C71.8384 0.265632 71.9084 0.320988 71.949 0.365274C76.7427 1.69014 78.9773 4.63143 78.9773 9.62091V53.4708C78.9773 55.6371 78.4094 56.2017 76.2154 56.2091C58.051 55.7921 49.12 80.0346 63.4531 91.3938C76.1011 102.616 97.5325 91.8477 96.0575 75.082C95.6446 60.5454 82.3107 59.4788 84.3425 55.578C86.5034 52.467 92.064 58.3901 93.7824 60.0066C107.828 74.51 96.3784 100.461 76.2522 99.9925ZM39.658 3.5206C49.6989 3.5206 59.7435 3.5206 69.7845 3.5206C73.5862 3.5206 75.6807 5.59833 75.6807 9.37365C75.6844 23.5671 75.6807 38.5688 75.6807 52.8102C53.5597 53.0205 44.577 83.2711 63.2245 95.3278C75.5553 104.155 94.0553 97.5531 98.27 83.249C101.843 72.7238 96.8245 60.4236 86.7394 55.4304C85.9797 55.0466 85.2681 55.22 84.8846 55.8843C84.3499 56.7184 84.9841 57.6152 85.8765 57.9879C92.5582 61.7448 96.2677 67.583 96.6844 75.0414C98.2036 92.3349 76.0974 103.458 63.0475 91.8736C48.2682 80.1453 57.4684 55.1499 76.2117 55.5743C78.0665 55.567 78.3467 55.2902 78.3467 53.4634V9.62091C78.3873 4.74214 76.1342 2.19204 71.5471 0.856103C70.0463 1.40229 2.72077 -0.82305 3.77538 2.83787C-1.79267 0.937293 2.06809 90.8365 1.00242 92.56C2.3889 97.1324 4.92955 99.391 9.7933 99.3467C10.0514 99.3393 54.6217 99.3467 54.8429 99.3467C56.8009 99.7896 57.6859 96.9627 55.503 96.6859C54.4926 96.6785 10.6267 96.6711 9.58312 96.6748C5.77029 96.6748 3.66844 94.5639 3.66844 90.7295C3.66844 63.6269 3.66844 36.5243 3.66844 9.42163C3.66844 5.67213 5.80717 3.5206 9.53149 3.5206C19.5724 3.5206 29.617 3.5206 39.658 3.5206Z" fill="white"/>
<path d="M39.7252 9.83144C47.5241 9.83144 55.3231 9.83144 63.1221 9.83144C70.2905 9.68751 68.3545 17.9726 68.5684 22.7628C68.6127 25.132 65.187 25.1283 65.2829 22.7037C64.7888 20.3529 66.8058 12.6473 63.1847 13.1307C47.5205 13.1307 31.8562 13.1307 16.1919 13.1307C14.6689 13.1307 14.09 13.7101 14.0826 15.2453C14.0716 18.7918 14.0716 22.3421 14.0826 25.8886C14.0863 27.4496 14.6763 28.0143 16.284 28.0143C31.2404 28.0143 46.193 28.0143 61.1493 28.0143C64.3942 27.7596 64.361 31.5534 61.1603 31.3135C46.2372 31.3135 31.3141 31.3135 16.3947 31.3135C12.7736 31.3135 10.7861 29.3207 10.7824 25.6856C11.4572 20.3492 8.01678 9.98275 16.2287 9.83513C24.0609 9.83513 31.893 9.83513 39.7252 9.83513V9.83144Z" fill="white"/>
<path d="M37.5711 31.6309C30.5133 31.6309 23.4555 31.6309 16.394 31.6309C12.5738 31.6309 10.4683 29.52 10.4683 25.6893C11.0841 20.1647 7.75801 9.65066 16.2281 9.52149C26.0552 9.51411 36.5496 9.52149 46.4099 9.52149C51.9816 9.52149 57.5534 9.52149 63.1214 9.52149C67.4468 9.38494 69.2979 12.8429 68.8923 16.8064C68.4313 19.1388 70.3119 24.4678 66.9416 24.8701C64.5005 24.9697 64.991 21.7036 64.9651 20.0466C64.9651 18.4524 64.9651 16.8544 64.9651 15.2601C64.9615 13.891 64.5263 13.4518 63.1841 13.4518C47.5198 13.4518 31.8555 13.4518 16.1949 13.4518C14.8416 13.4518 14.4065 13.8873 14.4028 15.2491C14.3917 18.8362 14.3917 22.4159 14.4028 25.8923C14.4065 27.2799 14.8453 27.7043 16.2871 27.7043C30.8968 27.708 46.4836 27.7043 61.1523 27.7043C64.6148 27.3131 64.8951 31.904 61.1634 31.6309C53.3275 31.6309 45.4032 31.6309 37.5748 31.6309H37.5711ZM26.1326 10.1489C9.48374 9.81304 10.9845 9.45506 11.0988 25.6856C11.0988 29.162 12.9315 30.9999 16.3977 30.9999C31.3098 30.9999 46.2513 30.9999 61.1634 30.9999C63.409 30.9925 63.5639 29.8595 62.9555 28.8188C62.3876 27.8003 49.4594 28.5457 48.3347 28.3317C37.6522 28.3317 26.9696 28.3317 16.2908 28.3317C14.5097 28.3317 13.7833 27.6231 13.7759 25.8923C13.7649 22.4159 13.7649 18.8325 13.7759 15.2454C13.7796 13.5441 14.5061 12.8171 16.1986 12.8171C31.8629 12.8171 47.5235 12.8171 63.1878 12.8171C66.9711 12.7285 65.2196 17.6442 65.5994 20.0429C65.4888 20.3935 65.6768 22.3864 65.5994 22.6964C65.4998 24.7224 68.3207 24.7151 68.2544 22.7591C67.9852 18.1534 70.0575 10.0197 63.1214 10.1452C50.9491 10.1415 38.3122 10.1452 26.1326 10.1452V10.1489Z" fill="white"/>
<path d="M39.5951 90.5636C31.6154 91.3755 31.2356 87.8511 31.6486 80.9869C32.0358 75.0379 39.3406 77.0381 43.3821 76.7834C48.3749 76.9716 47.5378 82.7324 47.5047 86.2753C47.4715 90.5857 42.899 90.833 39.5988 90.5636H39.5951ZM39.5508 80.0606C33.3264 79.5771 35.2107 80.9795 34.9305 85.9616C34.783 88.4415 41.1327 86.851 42.8917 87.268C45.3106 87.2754 43.8246 82.9649 44.2191 81.3596C44.1601 79.1121 41 80.3742 39.5471 80.0642L39.5508 80.0606Z" fill="white"/>
<path d="M37.3168 90.8882C30.8785 91.5709 31.0518 85.6367 31.3358 80.9794C31.7119 74.7646 39.1052 76.6763 43.39 76.4696C48.5488 76.6136 47.9256 82.6253 47.8187 86.2825C47.649 91.892 41.2476 90.855 37.3168 90.8882ZM39.5883 77.0453C31.7451 76.3405 31.6123 79.5216 31.9663 86.301C32.1028 90.9694 37.3648 90.283 40.6798 90.2535C47.7449 91.0617 47.4204 86.5519 47.1955 81.0569C47.166 76.8055 42.7079 76.9162 39.592 77.049L39.5883 77.0453ZM40.3479 87.5853C35.0195 87.5926 34.2489 88.4636 34.6213 82.4777C34.2415 79.1304 36.159 79.7873 38.5853 79.7431C40.2594 79.9423 42.7079 79.2744 44.1312 80.1416C45.0273 81.7396 44.3267 84.083 44.5332 85.9024C44.6327 88.2901 41.8745 87.4303 40.3479 87.5853ZM37.2873 86.9542C38.648 86.6221 44.2824 87.8805 43.9026 85.8987C43.5818 84.5923 44.7913 80.3077 42.9365 80.3704C41.5279 80.3815 39.9976 80.3704 38.5853 80.3741C38.0912 80.459 35.816 80.1675 35.4694 80.5882C34.92 82.1788 35.4067 84.2528 35.2445 85.9578C35.1523 87.2088 36.4429 86.9284 37.2836 86.9505L37.2873 86.9542Z" fill="white"/>
<path d="M39.6146 56.9029C43.0402 56.6113 47.5905 56.973 47.5131 61.4237C47.5831 65.0403 48.2432 70.6608 43.1766 70.7494C39.0541 70.5907 31.7418 72.34 31.6423 66.1954C31.2293 59.3644 31.8598 56.15 39.6146 56.9029ZM39.5629 67.4612C41.0527 67.1808 44.3124 68.3949 44.2202 66.0293C43.8662 64.4351 45.2932 60.2058 42.8927 60.2095C41.1559 60.5859 34.5296 59.0396 34.9426 61.634C35.1527 66.5977 33.4565 67.9299 39.5666 67.4612H39.5629Z" fill="white"/>
<path d="M39.6093 71.1111C31.5669 71.7311 30.929 68.572 31.3273 61.3498C31.342 56.198 36.8953 56.3936 40.6713 56.5818C47.9577 55.8031 48.1568 60.4346 47.8249 66.2618C47.8692 70.9118 43.2303 71.3879 39.6093 71.1111ZM37.3968 57.2092C31.4158 56.5301 31.7661 61.9588 31.9541 66.1954C32.0537 72.1112 39.3475 70.2069 43.164 70.4357C48.0203 70.3508 47.2128 64.8631 47.1944 61.4273C47.2681 57.1612 42.8432 56.9767 39.613 57.2202C38.8755 57.2202 38.1417 57.2092 37.3968 57.2129V57.2092ZM37.5885 67.7823C33.3885 68.5019 34.8451 64.5089 34.6201 61.634C34.3104 58.5451 41.0363 60.3239 42.8874 59.8958C45.7489 60.0803 44.1411 63.911 44.5283 66.033C44.6095 69.0887 39.554 67.3431 37.5849 67.7823H37.5885ZM39.624 60.5121C38.3961 60.8221 35.1733 59.6338 35.2507 61.6377C35.5568 63.2283 34.3546 67.2287 36.2795 67.1401C38.4403 67.1623 40.5864 67.1512 42.7436 67.1401C43.6987 67.1254 43.8941 66.9372 43.8978 66.0256C43.5991 60.9956 45.535 60.1763 39.6203 60.5084L39.624 60.5121Z" fill="white"/>
<path d="M18.7202 50.9094C10.8438 51.7029 10.3423 48.2265 10.7959 41.4028C11.1241 35.476 18.2556 37.3802 22.2823 37.1145C27.4263 37.1293 26.7552 42.9196 26.6556 46.5658C26.663 50.9685 22.0832 51.1604 18.7202 50.9094ZM18.7129 47.6101C20.151 47.3075 23.3885 48.5512 23.3627 46.3037C22.9977 44.7168 24.4247 40.5245 22.1422 40.4064C20.3906 40.8345 13.8823 39.2513 14.0851 41.7128C14.3248 46.6949 12.5327 48.0936 18.7129 47.6101Z" fill="white"/>
<path d="M16.549 51.2306C10.118 51.906 10.1475 46.1563 10.4831 41.3919C10.7154 35.2436 18.2378 37.0003 22.2866 36.7973C27.6334 36.8158 27.1283 42.7057 26.9697 46.5696C26.8849 52.216 20.5019 51.1974 16.549 51.227V51.2306ZM18.7577 37.4099C15.6382 37.2328 11.1616 37.2291 11.11 41.4141C10.708 48.0938 10.9846 51.3672 18.7209 50.5922C26.5272 51.3635 26.7005 48.1196 26.3428 41.4436C26.3207 37.1996 21.9585 37.2439 18.7614 37.4099H18.7577ZM16.7296 47.9277C15.3948 47.9535 13.6543 48.1011 13.7723 46.2596C13.9604 44.4255 13.2671 42.082 14.1927 40.4914C16.5305 39.5172 19.6243 40.366 22.1465 40.0892C24.901 40.3512 23.2712 44.4144 23.6768 46.3076C23.9017 49.1049 18.5402 47.5402 16.7296 47.9277ZM15.3616 40.7166C13.6101 40.4841 14.6499 45.0418 14.3992 46.2522C14.4102 47.0752 14.613 47.2782 15.428 47.2892C17.6073 47.3003 19.8087 47.2966 21.988 47.2892C23.8944 47.3631 22.7549 44.61 23.0499 43.4254C22.9024 42.5212 23.5662 40.6797 22.1428 40.7166C19.9082 40.7203 17.6294 40.7276 15.3616 40.7166Z" fill="white"/>
<path d="M18.7681 56.9031C22.1532 56.63 26.6851 56.9326 26.6593 61.3243C26.7441 64.952 27.4299 70.6574 22.3302 70.7497C18.2408 70.5836 10.9913 72.3365 10.7885 66.2953C10.3497 59.4569 10.9802 56.1392 18.7681 56.9031ZM18.8345 60.2061C17.3484 60.4976 14.1256 59.2613 14.085 61.5568C14.428 63.1769 12.9936 67.4725 15.4457 67.4541C17.1088 67.0998 23.7941 68.5649 23.359 66.1071C23.1119 61.2652 24.9409 59.6931 18.8345 60.2024V60.2061Z" fill="white"/>
<path d="M18.7509 71.1111C15.1814 71.3879 10.4615 70.934 10.4762 66.2988C9.98949 59.2537 10.8597 55.8142 18.773 56.5855C26.7932 55.7958 27.4311 59.4087 26.9776 66.3615C26.985 70.9894 22.3461 71.3584 18.7546 71.1111H18.7509ZM16.6011 57.2092C10.5721 56.5413 10.8892 61.8703 11.1031 66.284C11.2912 72.1039 18.5444 70.1959 22.324 70.4321C27.2062 70.3288 26.3802 64.7894 26.347 61.3278C26.3655 57.1317 21.959 56.9841 18.7693 57.2166C18.0466 57.2166 17.3312 57.2092 16.6011 57.2092ZM18.7472 67.7824C12.449 68.299 13.8834 66.6678 13.7728 61.5492C13.8908 58.6928 17.9396 60.2723 19.8018 59.8848C25.226 59.1725 23.3897 62.3869 23.6736 66.1106C23.7326 68.7123 20.3955 67.5166 18.7435 67.7824H18.7472ZM16.7892 60.5122C15.8599 60.5897 14.278 60.1431 14.4034 61.5603C14.3812 63.0401 14.3812 64.568 14.4034 66.0958C13.9277 68.0739 20.613 66.8265 22.018 67.1402C23.9354 67.3838 22.7554 62.8962 23.0504 61.5676C23.3049 59.5859 18.1535 60.8591 16.7892 60.5159V60.5122Z" fill="white"/>
<path d="M18.7752 76.7613C22.0386 76.514 26.5815 76.6653 26.6442 80.961C27.5624 91.5637 24.2842 90.7296 15.2647 90.5599C10.0322 90.5488 10.648 84.6884 10.7992 80.9795C10.9025 76.6506 15.4749 76.5103 18.7715 76.7539C18.7715 76.7539 18.7715 76.7539 18.7715 76.7576L18.7752 76.7613ZM18.6867 87.268C20.1395 86.958 23.2886 88.2127 23.366 85.9763C22.9604 84.3636 24.4649 80.0938 22.0681 80.0532C20.3276 80.4849 13.9188 78.9165 14.081 81.3374C14.3429 86.2789 12.4881 87.7588 18.683 87.2717L18.6867 87.268Z" fill="white"/>
<path d="M18.9315 90.8956C10.6716 91.6189 9.99682 88.3271 10.4909 80.972C10.5905 76.3183 15.5538 76.1818 19.0938 76.4475C27.1213 75.5876 27.3721 79.7505 26.9628 86.3933C26.8522 90.7628 22.4457 91.1724 18.9315 90.8956ZM16.4941 77.0638C10.4651 76.3958 10.8892 81.9758 11.1178 86.2936C11.2837 91.9142 19.1528 89.9472 22.324 90.2461C27.302 90.1169 26.3617 84.5038 26.3359 80.972C26.0962 75.8128 20.023 77.2594 16.4978 77.0601L16.4941 77.0638ZM15.3731 87.5927C12.5743 87.3712 14.1563 83.5295 13.7691 81.341C13.7691 80.2966 14.3664 79.732 15.4063 79.7431C17.7847 80.0272 20.9485 79.1747 23.2827 80.149C24.1751 81.7212 23.4486 84.5148 23.681 85.9799C23.751 88.2016 21.1477 87.4709 19.7059 87.5853C18.2899 87.589 16.7817 87.5742 15.3694 87.589L15.3731 87.5927ZM15.3879 80.3741C14.6909 80.3778 14.407 80.6435 14.3996 81.3447C14.5508 83.3782 14.053 85.157 14.6393 86.7365C15.7714 87.2568 17.427 86.8177 18.6881 86.9579C19.9788 86.8214 21.6639 87.2531 22.8291 86.7365C23.3786 85.2271 22.8845 83.3302 23.0541 81.3373C23.0541 80.9831 22.9877 80.7395 22.8402 80.5919C20.4729 80.0236 17.6852 80.5624 15.3879 80.3705V80.3741Z" fill="white"/>
<path d="M39.5547 50.9021C36.3097 51.1604 31.7373 50.9648 31.6524 46.7134C30.7121 35.9668 34.1968 36.9633 43.231 37.1183C48.3677 37.24 47.5564 43.0525 47.5011 46.6691C47.4384 50.998 42.8328 51.153 39.5547 50.9021ZM39.5694 40.4064C38.1129 40.698 34.938 39.4691 34.938 41.7461C35.303 43.344 33.8649 47.5216 36.2101 47.6102C37.9285 47.1895 44.3815 48.7321 44.2193 46.3665C43.9132 41.2885 45.9081 39.9451 39.5694 40.4064Z" fill="white"/>
<path d="M37.2725 51.2269C30.8306 51.8949 31.0592 45.9274 31.3357 41.2848C31.7856 35.1919 38.8913 37.0224 43.2352 36.8009C48.5709 36.908 47.9293 42.8533 47.815 46.6729C47.6158 52.3045 41.1886 51.1531 37.2725 51.2269ZM39.5551 37.4062C36.4576 37.2401 32.088 37.218 31.9663 41.3033C31.6123 47.9424 31.6971 51.3966 39.5514 50.5848C47.413 51.3856 47.531 48.0531 47.1844 41.3513C47.1365 37.1995 42.623 37.2364 39.5514 37.4025L39.5551 37.4062ZM36.1995 47.9239C34.1861 47.9977 34.6618 45.7429 34.6176 44.3811C34.7798 42.8459 33.8875 39.9969 36.2806 40.0928C38.4562 40.0817 40.6798 40.0854 42.859 40.0928C45.8201 40.2109 44.1054 44.4291 44.5368 46.3629C44.6696 49.2045 38.1649 47.4663 36.2032 47.9239H36.1995ZM37.5749 40.7165C36.6604 40.7977 35.1154 40.3364 35.2518 41.7498C35.3919 43.4511 34.9199 45.4993 35.4731 47.0751C37.7962 47.6508 40.5323 47.1157 42.9697 47.2966C43.2978 47.2966 43.5412 47.2228 43.685 47.0788C44.2197 45.4772 43.7625 43.4474 43.8989 41.7277C43.9948 40.0338 41.6164 40.9342 40.5544 40.7202C39.6288 40.7276 38.4931 40.7202 37.5749 40.7202V40.7165Z" fill="white"/>
<path d="M60.6513 50.9022C57.3732 51.1531 52.7638 51.0092 52.7085 46.6692C52.6569 43.0563 51.8383 37.2328 56.9749 37.1184C65.9907 36.9634 69.5159 35.9706 68.5572 46.7172C68.4503 50.976 63.9036 51.1605 60.6513 50.9022ZM60.5849 47.6103C62.0415 47.3003 65.1869 48.5514 65.2791 46.326C64.8992 44.7022 66.3742 40.4582 63.9589 40.4029C62.2369 40.8347 55.7765 39.2662 55.9941 41.6908C56.3038 46.6508 54.3384 48.0901 60.5849 47.6066V47.6103Z" fill="white"/>
<path d="M62.9557 51.2271C59.0359 51.1496 52.5903 52.3195 52.3985 46.6731C52.2842 42.8535 51.6389 36.9045 56.9746 36.8012C61.3664 37.0337 68.4205 35.1663 68.8777 41.2851C69.169 45.924 69.3608 51.8804 62.9594 51.2271H62.9557ZM60.6547 50.585C63.7153 50.7991 68.1476 50.7732 68.2472 46.7027C68.273 43.2853 69.2059 37.5873 64.32 37.4323C60.6953 37.7533 53.3462 35.6867 53.0254 41.3515C52.6824 48.0497 52.7931 51.3895 60.651 50.585H60.6547ZM64.0029 47.9242C62.8635 47.9094 61.7241 47.9205 60.5847 47.9205C59.1834 47.736 57.1738 48.3707 56.0417 47.4777C55.4517 46.4923 55.3964 41.2703 56.1228 40.451C56.9156 39.82 64.9248 39.8384 65.2198 40.5359C66.0642 42.2335 65.3931 44.4995 65.5922 46.4C65.5627 47.3817 65.0022 47.9242 63.9992 47.9205L64.0029 47.9242ZM62.6275 47.2858C63.5014 47.2119 65.0428 47.6806 64.9653 46.3189C64.8142 44.5954 65.3009 42.5435 64.7367 40.9419C62.5058 40.3551 60.0168 40.9087 57.2918 40.7131C56.923 40.7131 56.676 40.7869 56.5285 40.9382C55.9016 48.8911 55.437 47.1086 62.6275 47.2858Z" fill="white"/>
<path d="M62.1548 77.5397C62.376 76.8053 62.9034 76.1263 63.7109 76.0894C64.5258 76.141 65.3297 75.2184 64.8724 74.4508C62.9845 72.8123 65.6763 69.4724 67.6897 70.5389C68.4013 71.1589 69.1646 71.3693 69.8284 70.5721C69.939 70.0149 69.9759 69.0591 70.7576 69.1735C71.7569 69.4281 71.1116 70.6792 71.0674 71.3804C70.7908 72.1738 69.644 72.159 69.0024 72.5798C67.509 72.9783 67.155 70.4836 65.7464 72.5539C65.0126 73.4249 67.0849 74.163 66.4507 75.1557C65.9971 75.8163 66.0561 77.0563 65.1269 77.215C64.6106 77.3995 63.545 77.1744 63.5192 77.9161C63.5966 78.418 63.2389 79.3406 63.9322 79.4698C65.6726 79.4956 65.9197 80.2854 66.4581 81.7468C67.0628 82.7248 65.0716 83.4444 65.7206 84.308C67.1697 86.4411 67.5053 83.8688 69.0356 84.3264C70.4737 84.8616 71.2886 85.1125 71.3034 86.8323C71.414 87.5593 72.3506 87.1865 72.8632 87.2714C73.5859 87.2567 73.3831 86.2086 73.5564 85.7104C73.667 84.7435 74.9023 84.8357 75.555 84.367C76.5764 83.6363 77.3324 85.7731 78.2247 85.035C80.3192 83.6105 77.7232 83.2378 78.221 81.7284C78.6746 81.0789 78.6156 79.8499 79.5264 79.6802C80.2012 79.6322 81.3701 79.0565 81.6061 80.0197C81.7315 81.0419 80.4187 80.636 79.9836 81.1527C79.7845 81.6435 79.4121 82.1122 79.8914 82.5735C81.1083 83.7729 80.1717 85.2933 79.0286 86.1274C77.9334 87.2419 76.8825 86.0573 75.8242 85.762C74.0321 86.1015 75.2268 88.2494 73.243 88.6258C70.6359 88.803 70.3668 88.3896 69.6293 86.0905C67.52 84.9243 67.391 88.5262 64.5922 85.0645C63.8953 84.3043 64.2087 83.1455 64.8614 82.4665C65.6173 79.6654 61.4652 82.2672 62.1585 77.536L62.1548 77.5397Z" fill="white"/>
<path d="M73.2656 88.7921C73.1476 88.7367 71.3076 88.8806 71.256 88.7293C69.2869 88.2865 70.4632 86.2789 68.7928 85.9061C67.8377 86.3674 66.6319 87.3233 65.5884 86.2936C61.6723 83.4372 66.9122 81.8171 63.7594 80.972C62.8707 80.9425 62.2107 80.2007 61.9968 79.3667C61.912 78.075 61.9599 76.0157 63.7004 75.9272C65.1274 75.8312 64.9947 74.6244 64.283 73.8568C63.4939 72.5209 64.637 71.4064 65.6105 70.5797C66.6245 69.6276 67.8119 70.4395 68.7596 70.9893C70.2862 70.8749 69.3201 68.9375 70.7877 69.015C71.9124 69.2696 71.3187 70.6019 71.2302 71.3768C71.0052 72.2884 69.7847 72.2699 69.0693 72.7202C67.6054 73.2553 67.126 70.6941 65.8612 72.6611C65.4224 73.1261 66.3332 73.7018 66.5176 74.1521C67.1002 74.8901 66.1304 75.9419 66.0124 76.621C65.7101 77.562 64.7734 77.3443 63.9475 77.5768C63.7336 77.6174 63.6783 77.6875 63.6746 77.9126C63.2247 80.3926 65.3376 78.6507 65.9977 80.2192C66.6614 81.6068 67.0412 82.4925 65.8059 83.7361C65.6695 83.9391 65.6732 84.024 65.8354 84.1901C66.8052 85.4042 66.9933 85.0536 68.0442 84.2639C68.8333 83.6808 69.7773 84.6182 70.5591 84.7805C71.4404 85.0536 71.2597 86.0833 71.4625 86.7992C71.3666 87.2827 73.2767 87.2495 73.1993 86.8324C73.2656 85.0536 73.9478 84.7916 75.4855 84.2233C76.3373 83.7214 76.9494 84.5813 77.6242 84.9688C78.111 85.3157 78.4613 84.4373 78.8337 84.2011C79.2172 83.7251 78.3359 83.1715 78.1515 82.725C77.639 82.0791 78.6825 79.5696 79.5011 79.5254C80.2571 79.4294 81.5329 78.9127 81.7578 79.994C81.8242 80.4147 81.5366 80.8391 81.1125 80.9351C80.541 81.0163 80.0579 81.0421 79.9178 81.6953C79.4864 82.4666 80.7475 82.9132 80.6258 83.8801C80.552 85.5186 78.4096 87.493 76.7945 86.4265C76.3225 86.0833 75.9612 85.7327 75.3933 86.1091C74.3866 86.6073 75.1647 88.4525 73.262 88.7847L73.2656 88.7921ZM71.4514 88.4784C76.2082 89.0061 73.1255 85.5002 76.223 85.6663C77.0158 86.2899 78.0667 86.8435 78.9222 86.0168C82.0344 83.4003 78.9996 83.3671 79.6597 81.5256C79.774 81.0311 80.1243 80.71 80.6627 80.7063C81.0388 80.6842 81.5219 80.507 81.4481 80.0494C81.2047 79.2301 80.1391 79.8353 79.5491 79.839C79.0144 79.839 78.0298 82.0865 78.406 82.5441C78.701 83.1088 79.6818 83.7915 79.0586 84.4263C78.5977 84.8064 78.1146 85.7585 77.4472 85.2345C76.8609 84.9466 76.352 84.0978 75.6293 84.5075C74.1691 85.0979 73.5938 85.1533 73.5127 86.8767C73.38 87.7071 72.4065 87.3639 71.8202 87.4303C71.3039 87.4561 71.1564 87.0502 71.1085 86.6073C71.1859 85.1643 70.1129 84.9392 68.9735 84.4742C68.2396 84.1642 67.8672 84.9208 67.1998 85.2529C66.5324 85.7401 66.064 84.7879 65.6105 84.4189C64.9873 83.7952 65.9866 83.1014 66.2742 82.5368C66.6799 81.8577 65.7986 80.972 65.7064 80.3336C65.4704 79.6324 64.6001 79.839 64.0323 79.6508C63.103 79.6029 63.4054 78.5511 63.3648 77.9163C63.446 76.6542 65.4372 77.6285 65.7211 76.5287C67.4948 73.4509 64.6886 73.9823 65.64 72.4471C66.6061 71.1554 67.1519 71.4691 68.2655 72.388C68.9698 72.7645 69.8253 71.9193 70.5148 71.7865C71.2007 71.4654 70.9721 70.517 71.1638 69.9191C71.2597 69.2733 70.2825 69.0888 70.1497 69.7604C70.0244 70.1442 70.1276 70.7052 69.7257 70.9303C67.5243 72.1555 67.292 68.5906 64.7108 71.9304C64.0581 72.6611 64.3826 73.6649 64.9984 74.3477C65.6142 75.2629 64.4895 76.3553 63.7262 76.2445C62.2217 76.2925 62.2439 78.2558 62.3176 79.3371C62.5278 80.0272 63.0403 80.6362 63.7889 80.6583C64.7845 80.6399 65.5183 81.7322 64.9873 82.5663C64.3604 83.2232 64.0876 84.2786 64.7144 84.9614C67.3842 88.5669 68.0848 84.0425 69.9912 86.3047C70.1129 87.2753 70.3821 88.2274 71.4588 88.471L71.4514 88.4784Z" fill="white"/>
<path d="M76.4735 63.457C77.023 63.3869 77.4618 63.9553 77.9375 64.1139C79.4051 63.8003 78.2398 61.7742 80.5076 61.8443C83.5239 61.335 82.108 64.841 84.0181 63.8814C84.9067 63.2319 85.6037 63.302 86.3817 64.0844C88.502 65.9149 86.3817 66.2581 86.8279 67.6531C88.4135 68.5794 89.0699 68.0369 88.9224 70.539C88.9113 71.4727 88.0743 72.0521 87.2003 72.0853C85.5631 73.078 88.9777 74.1224 86.1088 76.2001C85.5078 76.7463 84.6007 76.6688 84.0107 76.1448C82.06 75.1668 83.6051 78.8278 80.2163 78.1709C79.3756 78.1524 78.7782 77.4512 78.7303 76.6393C77.9891 74.5727 76.6247 78.3111 74.5671 75.344C74.0509 74.7609 74.1136 73.8862 74.6077 73.3068C75.7213 71.3288 72.0191 72.9526 72.6091 69.5094C72.6681 67.7933 74.1136 68.4059 74.7441 67.5497C74.9322 67.1918 74.7847 66.974 74.5966 66.712C73.483 65.3982 75.0465 63.5567 76.4735 63.457ZM85.1132 75.2296C87.2335 73.7718 84.0697 74.0634 85.7438 71.3952C85.9318 70.4689 87.3884 71.1221 87.5728 70.3766C87.7793 68.1771 85.9835 70.5058 85.2607 67.4686C84.7482 66.6862 86.1863 66.1326 85.8507 65.472C84.4311 63.7338 84.8072 66.6788 82.119 65.0218C81.057 64.5605 82.0785 62.8149 80.4191 63.2024C79.6595 63.3611 80.3159 64.8373 79.3977 65.0255C76.7796 66.6567 77.082 63.7744 75.7065 65.4388C75.2751 66.092 76.7685 66.6567 76.2818 67.428C75.5406 70.5132 73.7522 68.1587 73.9587 70.3877C74.1652 71.1073 75.5849 70.4726 75.7803 71.3841C77.4138 74.0006 74.5302 73.698 76.1933 75.0783C77.624 75.248 76.846 73.639 79.3829 74.9971C80.3269 75.1779 79.6337 76.7316 80.456 76.8238C81.518 76.9641 81.47 76.5471 81.5991 75.6429C81.7282 74.8531 82.7422 74.8679 83.3101 74.5062C84.0217 74.1593 84.5122 74.9749 85.1132 75.2259V75.2296Z" fill="white"/>
<path d="M80.7393 78.3407C79.6478 78.4735 78.6153 77.8056 78.571 76.6468C78.56 76.4143 78.4678 76.2962 78.1875 76.1596C76.8416 76.2962 76.436 77.5361 74.9463 75.9751C72.9108 74.0967 74.8983 73.6427 74.5738 72.4987C74.4743 72.3179 74.43 72.2514 74.2715 72.2367C72.8223 72.2883 72.2139 70.7088 72.4499 69.5057C72.4609 68.5425 73.2316 67.8709 74.1719 67.8118C75.6874 67.2841 72.7891 65.8116 74.7619 64.2432C75.551 63.1434 76.9412 63.0216 77.9184 63.959C79.2938 63.5641 78.0069 61.5824 80.7208 61.6857C81.875 61.527 82.937 62.254 82.9665 63.4645C82.9775 63.6416 83.0513 63.7302 83.2652 63.8372C84.6664 63.8483 85.0425 62.4016 86.6281 64.1103C88.8111 65.9002 85.9644 67.0147 87.2107 67.786C88.1215 67.8266 89.0655 68.4577 89.0729 69.4578C89.2868 70.7716 88.7558 72.2477 87.2034 72.244C87.089 72.2477 87.0595 72.292 86.971 72.447C86.6724 73.628 88.3907 74.2221 86.853 75.6909C86.1487 76.6283 84.8618 77.1671 83.8994 76.2593C83.715 76.0784 83.5528 76.0637 83.2578 76.1965C82.4392 77.3221 82.8374 78.5067 80.7356 78.3444L80.7393 78.3407ZM77.981 75.7869C78.5932 75.8016 78.914 76.3368 78.9472 76.9604C79.279 78.3111 81.5431 78.4588 82.3544 77.4365C82.701 76.9272 82.4797 76.2039 83.1324 75.9087C84.4341 75.4326 84.825 77.5435 86.4991 75.606C88.1547 74.2849 86.1635 73.5505 86.6908 72.3068C87.2218 71.5097 88.6562 72.1739 88.7631 70.5317C88.9438 69.3581 88.5419 68.0997 87.1849 68.0997C86.9047 68.0738 86.7867 67.9004 86.6871 67.7269C86.0713 66.4058 88.2801 65.9334 86.4069 64.3354C85.0093 62.6304 84.4562 64.472 83.1287 64.1214C82.2474 63.6084 82.8264 61.9957 81.2297 62.0031C79.4486 61.8665 79.0983 62.3057 78.7075 63.9258C77.8262 64.7672 77.3062 63.6305 76.4729 63.6121C75.1675 63.708 73.6778 65.413 74.7177 66.6198C75.3298 67.2177 74.7472 68.2473 73.8695 68.1809C72.5015 68.4687 72.4351 70.4542 73.1284 71.4432C73.4418 71.7901 73.8732 71.8787 74.2973 71.9267C75.2228 72.1665 75.0532 73.1593 74.5333 73.6944C74.0281 74.5395 74.6476 75.3366 75.2855 75.8791C76.1853 76.9272 76.9817 76.1818 77.9737 75.7943L77.981 75.7869ZM81.1264 76.9826C79.2753 77.3406 80.3594 75.7315 79.3307 75.1447C78.7038 75.023 78.0732 74.3181 77.4648 74.713C77.0407 74.9233 76.5356 75.6688 76.0783 75.1816C74.5333 74.1483 76.4471 73.7461 76.1263 72.6242C75.787 72.1333 75.8091 71.1406 75.1085 71.0004C74.6918 70.8786 73.7442 70.9635 73.7995 70.3804C73.4639 68.4724 74.9942 69.6275 75.6248 68.5979C77.2657 65.9186 74.2346 66.4131 76.0894 64.8299C76.554 64.3539 77.0555 65.1104 77.4759 65.3171C78.1101 65.6861 78.6153 65.0403 79.3417 64.8779C79.7584 64.7524 79.7805 64.3502 79.8432 63.9885C79.928 63.6084 79.8764 62.9958 80.4258 63.0438C80.9199 63.1287 81.4436 62.7891 81.6058 63.4682C81.7459 63.9479 81.6058 64.6676 82.1774 64.8742C83.2393 65.3946 83.9658 65.6787 84.8323 64.7709C85.308 64.4092 86.3368 65.4684 86.0123 65.9334C85.7652 66.3984 85.1236 66.8228 85.4039 67.4022C85.6989 67.7934 85.7321 68.8894 86.3921 69.0186C87.432 69.1256 87.8929 69.229 87.727 70.3693C87.7417 71.0299 86.8678 70.8491 86.4327 71.0004C85.7247 71.1258 85.7394 72.137 85.4076 72.6131C85.1421 73.9564 87.1849 74.1889 85.1199 75.4105C84.5226 75.2075 84.0616 74.3587 83.3795 74.6502C82.948 74.9565 81.8787 74.9824 81.7607 75.6651C81.6464 76.0858 81.7164 77.0306 81.1301 76.9826H81.1264ZM80.7761 76.6578C81.4731 76.8497 81.3145 76.0858 81.4436 75.6245C81.5247 74.7794 82.701 74.7019 83.243 74.3697C83.9805 73.9896 84.5078 74.7462 85.1052 75.0525C86.665 74.1446 84.5189 73.6759 85.1199 72.4876C85.9386 70.3029 85.7431 71.1074 87.4135 70.3841C87.5131 69.2954 87.2587 69.5094 86.3405 69.3323C85.5219 69.2474 85.4297 68.0369 85.1126 67.535C84.7475 66.8339 85.4149 66.2987 85.7505 65.7526C85.0204 63.9848 84.4009 66.2618 83.2541 65.6677C82.2069 65.3503 81.2039 64.8226 81.2887 63.5198C81.1965 63.1803 80.7282 63.4534 80.4074 63.3611C80.0681 63.4386 80.2156 64.114 80.0829 64.4092C79.9206 65.2543 77.9442 66.0478 77.2878 65.5791C76.9781 65.4536 76.6241 64.9001 76.3143 65.0551C74.7435 66.3504 77.5902 65.878 75.9161 68.7197C75.4994 69.9191 73.77 68.7676 74.1129 70.3988C75.835 71.052 75.6248 70.4431 76.4102 72.5024C76.9854 73.5948 74.961 74.1446 76.3069 74.9787C76.6056 75.1595 76.9781 74.5838 77.2804 74.4657C78.0253 74.0044 79.8985 74.7646 80.0866 75.6466C80.223 76.119 80.0571 76.8645 80.7761 76.6652V76.6578Z" fill="white"/>
<path d="M72.3333 83.0089C66.3965 82.9499 66.4001 73.9858 72.2927 73.9009C72.6762 73.9009 72.9933 74.1814 73.0117 74.5504C72.8237 75.7535 70.9136 75.0671 70.2462 76.045C68.0263 77.846 69.4718 81.7542 72.3628 81.6287C74.6895 81.6028 75.2758 79.7908 75.7478 77.9493C78.5577 76.9935 75.8843 83.485 72.3333 83.0052V83.0089Z" fill="white"/>
<path d="M72.3395 83.1639C66.211 83.1196 66.1778 73.8344 72.2916 73.7422C72.7562 73.7422 73.1434 74.0891 73.1692 74.5393C73.077 75.9048 70.9788 75.211 70.3483 76.1631C68.2391 77.8755 69.6108 81.5918 72.3616 81.4737C74.9945 81.2707 74.9392 79.7281 75.6471 77.8312C78.9142 76.6872 76.0675 83.6806 72.3395 83.1639ZM72.2916 74.0559C68.6521 73.971 66.5244 78.7206 69.0614 81.374C71.5688 84.367 76.8198 82.3815 76.7165 78.4586C76.6575 77.6098 75.4996 77.8939 75.6582 78.7058C75.5181 82.1712 70.352 82.9056 69.2236 79.669C68.3571 77.5064 69.9943 75.1077 72.3432 75.0892C73.0364 75.0707 72.9848 74.0337 72.2916 74.0559Z" fill="white"/>
<path d="M80.7662 73.259C76.5477 73.3291 76.5588 66.69 80.7736 66.7638C84.9736 66.7195 84.9736 73.318 80.7662 73.259ZM80.7588 71.8972C83.211 71.9267 83.2073 68.0997 80.7514 68.1256C78.3325 68.0997 78.3177 71.9341 80.7588 71.8972Z" fill="white"/>
<path d="M80.7666 73.4174C76.3417 73.4802 76.3675 66.5311 80.7777 66.6086C85.1842 66.5606 85.1768 73.4765 80.7703 73.4174H80.7666ZM80.7666 73.1037C84.7675 73.1554 84.7712 66.8816 80.774 66.9259C76.7731 66.8558 76.751 73.1665 80.7666 73.1037ZM80.763 72.0556C78.1191 72.0926 78.1338 67.9408 80.7556 67.9666C83.4032 67.9297 83.429 72.0852 80.7666 72.0556H80.763ZM80.763 71.742C83.0197 71.7715 82.9939 68.2545 80.7556 68.284C78.5394 68.2656 78.5284 71.7715 80.763 71.742Z" fill="white"/>
</svg>
