<svg width="110" height="109" viewBox="0 0 110 109" fill="none" xmlns="http://www.w3.org/2000/svg">
<rect x="0.5" y="0.5" width="109" height="108" rx="9.5" fill="#F1FAFA"/>
<rect x="0.5" y="0.5" width="109" height="108" rx="9.5" stroke="#115056"/>
<g clip-path="url(#clip0_140_1162)">
<path d="M45.9187 88.9999C37.8079 88.9999 29.697 88.9999 21.5883 88.9999C20.2758 88.9999 19.9846 88.7184 19.9996 87.3904C20.0702 81.2898 20.2801 75.2021 21.5648 69.2068C22.7746 63.5595 25.7808 59.322 31.1873 57.0807C32.5941 56.4962 34.1764 56.305 35.6945 56.0364C36.2341 55.9418 36.4761 55.7785 36.7287 55.28C37.5295 53.7006 37.536 52.465 36.2491 50.9608C34.3756 48.7732 33.5897 45.9818 33.6219 43.0938C33.6561 39.9178 33.427 36.7826 32.9238 33.6538C32.2429 29.412 33.9901 26.1672 37.3283 23.7905C41.7927 20.6102 46.7774 19.3639 52.2374 20.3072C54.2801 20.6596 55.6783 21.7061 56.4277 23.7153C56.689 24.4137 57.3206 25.0369 57.9137 25.5354C59.1556 26.5819 60.0699 27.8347 60.678 29.3282C61.2818 30.8152 61.2925 32.3108 60.7123 33.8042C60.5367 34.2534 60.3697 34.7218 60.0999 35.1129C58.9779 36.731 58.7616 38.5124 58.798 40.4464C58.8344 42.3632 58.6824 44.3143 58.3462 46.2032C57.9351 48.5132 56.781 50.5353 55.1987 52.2716C54.8368 52.6691 54.839 52.9871 54.9546 53.4857C55.3379 55.1382 55.9717 56.4318 57.9908 56.2233C64.3095 57.7426 68.2429 61.7352 69.9537 67.9583C71.2063 72.5182 71.5039 77.2134 71.7137 81.9108C71.7972 83.761 71.8144 85.6155 71.8401 87.4678C71.8572 88.6884 71.5382 88.9956 70.3327 88.9956C62.1961 88.9956 54.0574 88.9956 45.9209 88.9956L45.9187 88.9999ZM42.1931 67.5027C42.0325 67.5973 41.9404 67.6445 41.8569 67.7004C40.3795 68.6867 40.2917 68.676 39.0669 67.3394C36.748 64.8102 34.4227 62.2896 32.123 59.7432C31.7719 59.3542 31.5064 59.2984 31.0417 59.5455C27.3182 61.5224 25.0142 64.5953 23.9886 68.6652C22.6996 73.7752 22.4577 79.0034 22.2628 84.2359C22.2328 85.0589 22.2585 85.8841 22.2585 86.7544H29.6735V85.8476C29.6735 82.8134 29.6735 79.7813 29.6735 76.7471C29.6735 76.1025 29.6478 75.4557 29.6949 74.8153C29.742 74.1685 30.1317 73.7817 30.7848 73.743C31.3907 73.7065 31.8404 74.1857 31.8939 74.8733C31.9132 75.114 31.9025 75.3568 31.9025 75.5975C31.9025 79.0077 31.9025 82.4158 31.9025 85.8261C31.9025 86.1334 31.9282 86.4406 31.9432 86.7458H40.9811C41.0175 86.6383 41.0432 86.5889 41.0497 86.5373C41.8119 81.0083 42.5742 75.4814 43.3236 69.9524C43.3493 69.7569 43.2915 69.5248 43.2016 69.3464C42.8975 68.7512 42.5614 68.171 42.1931 67.5049V67.5027ZM69.6047 86.7608C69.6047 86.432 69.6111 86.1699 69.6047 85.9077C69.5511 84.1371 69.5319 82.3621 69.4291 80.5936C69.1914 76.5709 68.8595 72.5568 67.851 68.6352C66.8125 64.5996 64.5343 61.5418 60.8429 59.5648C60.3354 59.2941 60.0721 59.3822 59.7038 59.7904C57.5133 62.2208 55.2908 64.6211 53.0789 67.0343C52.0911 68.1116 50.9541 68.2992 49.668 67.5973C49.2868 68.5578 48.379 69.2368 48.5674 70.4875C49.1198 74.147 49.5802 77.8173 50.0834 81.4854C50.3232 83.2302 50.578 84.9708 50.8307 86.7501H59.9393V85.8304C59.9393 82.3922 59.9393 78.954 59.9393 75.5158C59.9393 75.2472 59.9286 74.9765 59.9629 74.7121C60.0399 74.1212 60.4168 73.7924 60.9821 73.7559C61.5559 73.7194 61.9606 74.0267 62.1019 74.5918C62.1726 74.8733 62.164 75.1763 62.164 75.4707C62.1683 78.9089 62.1661 82.3471 62.1661 85.7852C62.1661 86.099 62.1661 86.4106 62.1661 86.763H69.6025L69.6047 86.7608ZM56.6055 40.9879C56.6055 40.5581 56.5455 40.1197 56.6162 39.7007C56.8474 38.3147 56.3785 37.3155 55.1966 36.5354C54.7191 36.2217 54.4022 36.1035 53.854 36.3206C49.1455 38.1707 44.3578 38.4436 39.6151 36.5892C38.2511 36.0541 37.3604 36.052 36.399 37.1715C36.0264 37.6034 35.7588 37.9365 35.7823 38.536C35.8294 39.7953 35.7995 41.0588 35.7973 42.318C35.793 44.0543 36.0735 45.7347 36.7223 47.3507C38.3817 51.4894 42.1031 54.1969 46.1457 54.2034C50.2504 54.212 53.9204 51.5968 55.6419 47.4581C56.507 45.378 56.7018 43.2077 56.6055 40.9879ZM35.0929 35.0441C35.2363 35.0979 35.3776 35.1516 35.5211 35.2053C35.9258 34.7476 36.3283 34.2856 36.7373 33.8343C37.1998 33.3229 37.7094 33.2993 38.3282 33.5979C39.266 34.0492 40.2125 34.5112 41.2017 34.8207C45.5954 36.1916 49.8735 35.7275 54.0232 33.8408C54.7662 33.5034 55.3272 33.5571 55.8882 34.1631C56.3292 34.6401 56.8474 35.0463 57.3849 35.5319C57.6803 34.9711 57.9244 34.5263 58.1535 34.075C59.3333 31.7499 59.0892 29.9492 57.3163 28.0367C57.008 27.7036 56.6611 27.4006 56.2971 27.1277C55.3272 26.3971 54.5906 25.4967 54.2309 24.3278C53.9183 23.3135 53.2138 22.8128 52.2224 22.5872C49.2676 21.9146 46.3684 22.1638 43.5249 23.1265C40.7221 24.0763 38.0905 25.3463 36.3797 27.9035C35.8016 28.7695 35.3006 29.7966 35.1464 30.8087C34.9366 32.1904 35.095 33.6302 35.095 35.0441H35.0929ZM45.923 62.1112C48.5374 60.2933 51.124 58.4968 53.7384 56.6789C53.4536 55.8795 53.1881 55.1317 52.9183 54.3689C48.3854 57.1624 43.9317 57.1409 39.4416 54.3323C39.1718 55.0393 38.8892 55.7033 38.6794 56.3888C38.6301 56.5457 38.7672 56.8529 38.9149 56.9625C41.2338 58.6838 43.5677 60.3835 45.923 62.1091V62.1112ZM45.4755 70.6895C44.7497 76.0079 44.0195 81.3586 43.2872 86.7329H48.4325C48.4325 86.4772 48.4539 86.2902 48.4304 86.1097C47.7602 81.1415 47.0814 76.1755 46.4155 71.2095C46.3384 70.6379 46.0729 70.4789 45.4755 70.6895ZM43.996 63.4628C41.919 61.9415 39.8656 60.5705 37.9706 59.0061C36.7159 57.9682 35.4847 58.2261 34.0073 58.5226C36.2855 61.0067 38.4781 63.4005 40.6814 65.803C41.8034 65.01 42.8504 64.273 43.996 63.4628ZM57.766 58.5462C56.3656 58.11 55.2329 58.1509 54.1367 59.0813C53.1025 59.9602 51.9141 60.6564 50.7964 61.4365C49.8414 62.1005 48.8886 62.7688 47.8458 63.4972C49.0064 64.288 50.0727 65.0165 51.1583 65.7557C53.3808 63.3318 55.5456 60.968 57.766 58.5462ZM47.8094 66.2112C47.2591 65.8137 46.7581 65.4183 46.2207 65.0831C46.0686 64.9885 45.7582 64.9885 45.604 65.0831C45.0666 65.414 44.5655 65.803 44.0409 66.1769C44.1266 66.3617 44.178 66.4842 44.24 66.598C44.482 67.0429 44.7154 67.4941 44.9745 67.9282C45.2871 68.4525 46.4776 68.5084 46.8052 67.9948C47.1606 67.4361 47.4583 66.843 47.8094 66.2112Z" fill="#115056"/>
<path d="M65.6673 41.5961C64.8794 41.9012 64.4276 41.5488 64.0272 41.0073C63.342 40.0811 62.6183 39.1808 61.9288 38.2567C61.4235 37.582 61.4684 37.1264 62.1408 36.6043C66.0977 33.5314 70.0546 30.4564 74.0394 27.4157C75.2706 26.4767 76.4654 26.5562 77.7993 27.579C81.3066 30.2716 84.7989 32.9834 88.2955 35.6888C88.698 36.0004 89.107 36.3034 89.501 36.6258C90.0705 37.0921 90.1776 37.6207 89.698 38.2331C88.9871 39.1421 88.2955 40.0639 87.5889 40.9751C87.0043 41.7272 86.8609 41.7809 85.9059 41.6433C85.8931 41.9034 85.8695 42.1591 85.8695 42.4126C85.8674 45.5543 85.8695 48.6981 85.8674 51.8397C85.8674 53.0581 85.5612 53.3611 84.3471 53.3611C78.6451 53.3611 72.9452 53.3611 67.2432 53.3611C65.9478 53.3611 65.6652 53.071 65.6652 51.7323C65.6652 48.6701 65.6652 45.608 65.6652 42.5459V41.5918L65.6673 41.5961ZM75.8037 33.6969C73.1722 35.7318 70.6006 37.7045 68.059 39.7137C67.8406 39.8856 67.7164 40.3046 67.7143 40.6097C67.6907 43.9383 67.6993 47.2669 67.7015 50.5955C67.7015 50.804 67.7293 51.0102 67.7464 51.2251H71.6926C71.6926 48.5756 71.6884 45.9991 71.6948 43.4248C71.6969 42.4685 72.0481 42.1139 73.0031 42.1097C74.8231 42.0989 76.641 42.1011 78.461 42.1097C79.5123 42.1139 79.8592 42.4578 79.8634 43.5064C79.8699 45.7348 79.8634 47.9632 79.8634 50.1915C79.8634 50.531 79.8634 50.8727 79.8634 51.2574H83.7818C83.8118 51.1198 83.8525 51.0188 83.8525 50.9157C83.8568 47.4002 83.8632 43.8825 83.8439 40.3669C83.8439 40.137 83.7048 39.8297 83.5292 39.6922C80.9812 37.6937 78.4139 35.7189 75.8037 33.7012V33.6969ZM87.5075 37.7518C87.4154 37.6293 87.3898 37.5777 87.3491 37.5455C83.7519 34.7562 80.1482 31.9692 76.5553 29.1756C75.99 28.7373 75.5018 28.8146 74.9665 29.2358C73.3456 30.5101 71.7055 31.7607 70.0739 33.0243C68.0869 34.5628 66.102 36.1057 64.0571 37.6894C64.4747 38.2331 64.8558 38.7295 65.2605 39.256C65.5153 39.069 65.708 38.9336 65.8964 38.7875C68.8834 36.4775 71.8832 34.1825 74.8509 31.8467C75.5447 31.3009 76.0928 31.3138 76.7694 31.8574C78.3989 33.1639 80.069 34.421 81.7199 35.6996C83.2401 36.875 84.7604 38.0526 86.3384 39.2753C86.7474 38.7424 87.1157 38.261 87.5075 37.7518ZM73.7739 44.1983V51.2251H77.7458V44.1983H73.7739Z" fill="#115056"/>
</g>
<defs>
<clipPath id="clip0_140_1162">
<rect width="70" height="69" fill="white" transform="translate(20 20)"/>
</clipPath>
</defs>
</svg>
