<svg preserveAspectRatio="none" width="100%" height="100%" overflow="visible" style="display: block;" viewBox="0 0 70 69" fill="none" xmlns="http://www.w3.org/2000/svg">
<g id="Layer 1">
<path id="Vector" d="M25.9197 69.0001C17.8089 69.0001 9.69802 69.0001 1.58931 69.0001C0.276755 69.0001 -0.0144482 68.7186 0.000540212 67.3906C0.0711997 61.29 0.281037 55.2023 1.56575 49.2069C2.77553 43.5597 5.78177 39.3222 11.1883 37.0809C12.5951 36.4964 14.1774 36.3052 15.6955 36.0366C16.2351 35.942 16.477 35.7787 16.7297 35.2802C17.5305 33.7007 17.5369 32.4652 16.2501 30.9609C14.3765 28.7734 13.5907 25.982 13.6228 23.094C13.6571 19.9179 13.428 16.7827 12.9248 13.654C12.2439 9.41215 13.9911 6.16736 17.3292 3.79072C21.7936 0.610402 26.7783 -0.635939 32.2384 0.307412C34.2811 0.659826 35.6793 1.70632 36.4287 3.71551C36.6899 4.41389 37.3216 5.03706 37.9147 5.5356C39.1566 6.58209 40.0709 7.83488 40.679 9.32834C41.2828 10.8154 41.2935 12.311 40.7132 13.8044C40.5377 14.2535 40.3707 14.722 40.1009 15.1131C38.9789 16.7312 38.7626 18.5126 38.799 20.4466C38.8354 22.3633 38.6834 24.3145 38.3472 26.2034C37.9361 28.5134 36.782 30.5355 35.1997 32.2718C34.8378 32.6693 34.8399 32.9873 34.9556 33.4859C35.3388 35.1383 35.9726 36.432 37.9918 36.2235C44.3105 37.7428 48.2438 41.7353 49.9547 47.9585C51.2073 52.5183 51.5049 57.2136 51.7147 61.911C51.7982 63.7612 51.8154 65.6157 51.841 67.468C51.8582 68.6885 51.5391 68.9958 50.3336 68.9958C42.1971 68.9958 34.0584 68.9958 25.9219 68.9958L25.9197 69.0001ZM22.194 47.5029C22.0335 47.5974 21.9414 47.6447 21.8579 47.7006C20.3804 48.6869 20.2927 48.6762 19.0679 47.3396C16.749 44.8104 14.4236 42.2898 12.124 39.7433C11.7728 39.3544 11.5073 39.2985 11.0427 39.5457C7.31915 41.5226 5.01522 44.5955 3.98959 48.6654C2.70059 53.7754 2.45863 59.0036 2.26378 64.2361C2.23381 65.0591 2.2595 65.8843 2.2595 66.7546H9.67447V65.8477C9.67447 62.8135 9.67447 59.7815 9.67447 56.7473C9.67447 56.1026 9.64877 55.4558 9.69588 54.8155C9.74298 54.1687 10.1327 53.7819 10.7857 53.7432C11.3917 53.7067 11.8414 54.1859 11.8949 54.8735C11.9142 55.1142 11.9035 55.357 11.9035 55.5977C11.9035 59.0079 11.9035 62.416 11.9035 65.8262C11.9035 66.1335 11.9291 66.4408 11.9441 66.746H20.9821C21.0185 66.6385 21.0442 66.5891 21.0506 66.5375C21.8129 61.0085 22.5752 55.4816 23.3246 49.9526C23.3503 49.7571 23.2925 49.525 23.2025 49.3466C22.8985 48.7514 22.5623 48.1712 22.194 47.505V47.5029ZM49.6056 66.761C49.6056 66.4322 49.6121 66.1701 49.6056 65.9079C49.5521 64.1372 49.5328 62.3623 49.4301 60.5938C49.1924 56.5711 48.8605 52.557 47.852 48.6353C46.8135 44.5998 44.5353 41.5419 40.8439 39.565C40.3364 39.2942 40.073 39.3823 39.7047 39.7906C37.5143 42.221 35.2917 44.6213 33.0799 47.0344C32.0921 48.1117 30.9551 48.2994 29.669 47.5974C29.2878 48.558 28.38 49.237 28.5684 50.4877C29.1208 54.1472 29.5812 57.8174 30.0843 61.4855C30.3242 63.2304 30.579 64.971 30.8316 66.7503H39.9403V65.8306C39.9403 62.3924 39.9403 58.9542 39.9403 55.516C39.9403 55.2474 39.9296 54.9766 39.9638 54.7123C40.0409 54.1214 40.4178 53.7926 40.983 53.7561C41.5569 53.7196 41.9616 54.0268 42.1029 54.592C42.1735 54.8735 42.165 55.1765 42.165 55.4709C42.1693 58.9091 42.1671 62.3472 42.1671 65.7854C42.1671 66.0992 42.1671 66.4107 42.1671 66.7632H49.6035L49.6056 66.761ZM36.6064 20.9881C36.6064 20.5583 36.5465 20.1199 36.6171 19.7009C36.8484 18.3149 36.3795 17.3157 35.1975 16.5356C34.72 16.2219 34.4031 16.1037 33.855 16.3207C29.1465 18.1709 24.3588 18.4438 19.616 16.5893C18.2521 16.0543 17.3614 16.0521 16.4 17.1717C16.0274 17.6036 15.7597 17.9367 15.7833 18.5362C15.8304 19.7955 15.8004 21.059 15.7983 22.3182C15.794 24.0545 16.0745 25.7349 16.7233 27.3509C18.3827 31.4896 22.1041 34.1971 26.1467 34.2036C30.2514 34.2122 33.9214 31.597 35.6429 27.4583C36.5079 25.3782 36.7028 23.2078 36.6064 20.9881ZM15.0938 15.0443C15.2373 15.098 15.3786 15.1518 15.5221 15.2055C15.9268 14.7478 16.3293 14.2858 16.7383 13.8345C17.2008 13.3231 17.7104 13.2994 18.3292 13.5981C19.267 14.0494 20.2134 14.5114 21.2027 14.8208C25.5964 16.1918 29.8745 15.7277 34.0241 13.841C34.7671 13.5036 35.3281 13.5573 35.8891 14.1633C36.3302 14.6403 36.8484 15.0465 37.3858 15.5321C37.6813 14.9713 37.9254 14.5264 38.1545 14.0752C39.3343 11.7501 39.0902 9.94936 37.3173 8.03687C37.009 7.7038 36.6621 7.40081 36.2981 7.1279C35.3281 6.39729 34.5916 5.49692 34.2318 4.32794C33.9192 3.31367 33.2148 2.81299 32.2234 2.58736C29.2686 1.91476 26.3694 2.16403 23.5259 3.12672C20.723 4.07652 18.0915 5.3465 16.3807 7.90364C15.8026 8.76964 15.3015 9.79679 15.1474 10.8089C14.9375 12.1906 15.096 13.6304 15.096 15.0443H15.0938ZM25.924 42.1114C28.5384 40.2935 31.125 38.497 33.7394 36.6791C33.4546 35.8797 33.1891 35.1319 32.9193 34.369C28.3864 37.1626 23.9327 37.1411 19.4426 34.3325C19.1728 35.0395 18.8902 35.7035 18.6803 36.389C18.6311 36.5458 18.7681 36.8531 18.9159 36.9627C21.2348 38.684 23.5687 40.3837 25.924 42.1092V42.1114ZM25.4765 50.6897C24.7506 56.0081 24.0205 61.3588 23.2882 66.7331H28.4335C28.4335 66.4774 28.4549 66.2904 28.4313 66.1099C27.7612 61.1417 27.0824 56.1757 26.4165 51.2097C26.3394 50.6381 26.0739 50.4791 25.4765 50.6897ZM23.9969 43.463C21.92 41.9416 19.8666 40.5707 17.9716 39.0063C16.7169 37.9684 15.4857 38.2263 14.0082 38.5228C16.2865 41.0069 18.4791 43.4007 20.6824 45.8031C21.8043 45.0102 22.8514 44.2732 23.9969 43.463ZM37.767 38.5464C36.3666 38.1102 35.2339 38.151 34.1376 39.0815C33.1034 39.9604 31.9151 40.6566 30.7974 41.4367C29.8424 42.1007 28.8896 42.7689 27.8468 43.4974C29.0073 44.2882 30.0736 45.0167 31.1592 45.7559C33.3818 43.332 35.5465 40.9682 37.767 38.5464ZM27.8104 46.2114C27.2601 45.8139 26.7591 45.4185 26.2216 45.0833C26.0696 44.9887 25.7591 44.9887 25.605 45.0833C25.0675 45.4142 24.5665 45.8031 24.0419 46.177C24.1275 46.3618 24.1789 46.4843 24.241 46.5982C24.483 47.043 24.7164 47.4943 24.9755 47.9284C25.2881 48.4527 26.4786 48.5086 26.8062 47.995C27.1616 47.4363 27.4592 46.8432 27.8104 46.2114Z" fill="var(--fill-0, #115056)"/>
<path id="Vector_2" d="M45.6682 21.5963C44.8803 21.9014 44.4285 21.549 44.0281 21.0075C43.3429 20.0813 42.6192 19.1809 41.9297 18.2569C41.4244 17.5822 41.4693 17.1266 42.1417 16.6044C46.0986 13.5316 50.0555 10.4565 54.0403 7.4159C55.2715 6.47685 56.4663 6.55636 57.8002 7.57922C61.3075 10.2717 64.7998 12.9836 68.2964 15.689C68.6989 16.0006 69.1079 16.3036 69.5019 16.6259C70.0714 17.0922 70.1785 17.6209 69.6989 18.2333C68.988 19.1423 68.2964 20.0641 67.5898 20.9752C67.0052 21.7273 66.8618 21.7811 65.9068 21.6435C65.8939 21.9035 65.8704 22.1593 65.8704 22.4128C65.8683 25.5545 65.8704 28.6982 65.8683 31.8399C65.8683 33.0583 65.5621 33.3613 64.348 33.3613C58.646 33.3613 52.9461 33.3613 47.2441 33.3613C45.9487 33.3613 45.6661 33.0712 45.6661 31.7324C45.6661 28.6703 45.6661 25.6082 45.6661 22.5461V21.592L45.6682 21.5963ZM55.8046 13.697C53.1731 15.732 50.6015 17.7047 48.0599 19.7138C47.8415 19.8858 47.7173 20.3048 47.7152 20.6099C47.6916 23.9385 47.7002 27.2671 47.7023 30.5957C47.7023 30.8041 47.7302 31.0104 47.7473 31.2253H51.6935C51.6935 28.5758 51.6893 25.9993 51.6957 23.4249C51.6978 22.4687 52.049 22.1141 53.0039 22.1098C54.824 22.0991 56.6418 22.1012 58.4619 22.1098C59.5132 22.1141 59.8601 22.4579 59.8643 23.5066C59.8708 25.735 59.8643 27.9633 59.8643 30.1917C59.8643 30.5312 59.8643 30.8729 59.8643 31.2575H63.7827C63.8127 31.12 63.8534 31.019 63.8534 30.9159C63.8577 27.4003 63.8641 23.8826 63.8448 20.3671C63.8448 20.1372 63.7057 19.8299 63.5301 19.6924C60.9821 17.6939 58.4148 15.7191 55.8046 13.7013V13.697ZM67.5084 17.7519C67.4163 17.6295 67.3907 17.5779 67.35 17.5456C63.7528 14.7564 60.1491 11.9693 56.5562 9.17582C55.9909 8.73746 55.5027 8.81481 54.9674 9.23599C53.3465 10.5103 51.7064 11.7609 50.0748 13.0244C48.0878 14.563 46.1029 16.1059 44.058 17.6896C44.4756 18.2333 44.8567 18.7297 45.2614 19.2561C45.5162 19.0692 45.7089 18.9338 45.8973 18.7877C48.8843 16.4777 51.8841 14.1827 54.8518 11.8469C55.5456 11.301 56.0937 11.3139 56.7703 11.8576C58.3998 13.1641 60.0699 14.4212 61.7208 15.6998C63.241 16.8752 64.7613 18.0528 66.3393 19.2755C66.7483 18.7426 67.1166 18.2612 67.5084 17.7519ZM53.7748 24.1985V31.2253H57.7467V24.1985H53.7748Z" fill="var(--fill-0, #115056)"/>
</g>
</svg>
