<svg width="110" height="113" viewBox="0 0 110 113" fill="none" xmlns="http://www.w3.org/2000/svg">
<rect x="0.5" y="0.5" width="109" height="111.826" rx="9.5" fill="#F1FAFA"/>
<rect x="0.5" y="0.5" width="109" height="111.826" rx="9.5" stroke="#115056"/>
<g clip-path="url(#clip0_140_4224)">
<path d="M54.426 59.4279C55.3218 59.6439 56.1722 59.8531 57.0248 60.0509C58.7596 60.4556 60.4967 60.8467 62.2316 61.2537C66.7221 62.3064 69.43 65.6783 69.4505 70.3007C69.471 75.4074 69.4664 80.5118 69.4505 85.6185C69.4391 89.9522 66.5879 92.8102 62.2406 92.8147C51.5475 92.8284 40.8543 92.8193 30.1612 92.8193C28.9698 92.8193 27.7784 92.8397 26.587 92.7965C22.9445 92.6624 20.0797 89.8271 20.041 86.171C19.9819 80.6687 19.9774 75.1641 20.0501 69.664C20.1001 65.7124 22.8854 62.2564 26.7302 61.3105C29.5086 60.6261 32.3189 60.0668 35.1247 59.5098C35.8045 59.3733 35.9841 59.0914 35.9591 58.4389C35.9114 57.136 35.9796 55.8287 35.9227 54.5258C35.9068 54.1552 35.7181 53.6982 35.4521 53.4436C32.3894 50.5287 30.9024 46.9658 30.8024 42.7504C30.7524 40.6313 30.5 38.5168 30.3613 36.3977C30.1908 33.7671 30.4568 31.1751 31.3458 28.6877C32.9487 24.2039 36.1796 21.5142 40.777 20.4751C45.3744 19.436 49.6331 19.9817 53.2073 23.39C53.3528 23.5287 53.6006 23.6014 53.8098 23.6264C57.0248 24.0175 58.871 25.6114 59.7191 28.7422C60.2921 30.8613 60.3398 33.0281 59.9874 35.1586C59.5054 38.0734 59.3371 40.9951 59.2303 43.9418C59.0984 47.557 57.5523 50.6105 54.9739 53.1275C54.5738 53.5186 54.401 53.896 54.4123 54.4508C54.4442 56.0924 54.4237 57.7363 54.4237 59.4256L54.426 59.4279ZM39.14 69.8869C38.9126 70.0142 38.7876 70.0756 38.6716 70.1483C37.2506 71.0214 36.9959 70.9691 36.0773 69.5958C34.6585 67.4745 33.2307 65.3577 31.8414 63.2181C31.5254 62.7316 31.2207 62.5997 30.6591 62.7566C29.7588 63.0067 28.8334 63.1522 27.9171 63.3477C24.452 64.0844 22.292 66.706 22.2806 70.2393C22.2647 75.4028 22.2692 80.5641 22.2806 85.7276C22.2874 88.6152 24.2019 90.541 27.0803 90.557C30.3704 90.5729 33.6604 90.5479 36.9527 90.5729C37.5098 90.5774 37.7326 90.4069 37.8622 89.8612C39.0104 85.066 40.2109 80.2822 41.3386 75.4824C41.4796 74.8844 41.4728 74.1273 41.2227 73.5862C40.6315 72.3129 39.8539 71.1283 39.14 69.8846V69.8869ZM38.5807 34.049C37.196 35.3587 35.8818 36.6024 34.5676 37.8415C33.4535 38.892 32.8646 40.1289 33.1147 41.7045C33.1852 42.1479 33.1238 42.6094 33.1284 43.0642C33.1875 48.6961 37.2301 53.5959 42.6801 54.6463C48.4098 55.7491 53.9781 52.741 56.1654 47.4274C57.1385 45.0628 57.1703 42.5981 56.9771 40.1425C56.802 37.9029 54.8966 36.4091 52.648 36.6046C51.7953 36.6797 50.9359 36.9798 50.1378 37.3163C46.027 39.0534 42.2322 38.2167 39.2878 34.8675C39.1013 34.6561 38.9194 34.4424 38.5784 34.049H38.5807ZM50.4925 69.5708C49.699 70.8691 48.835 72.0742 48.2097 73.3906C47.9096 74.0227 47.8732 74.914 48.0392 75.612C49.1783 80.3799 50.4061 85.1251 51.5884 89.8794C51.7067 90.3569 51.8817 90.5797 52.4297 90.5751C55.8038 90.5479 59.178 90.5842 62.5521 90.5524C65.2146 90.5274 67.17 88.5675 67.1814 85.9027C67.2041 80.6278 67.2087 75.3528 67.1814 70.0801C67.1655 66.8379 65.0759 64.2777 61.9155 63.5205C61.0606 63.3159 60.1875 63.1795 59.3508 62.918C58.7642 62.7338 58.4891 62.9339 58.1844 63.4C56.7429 65.6078 55.2763 67.7974 53.803 69.9846C53.2323 70.8327 52.748 70.9282 51.8635 70.4098C51.4293 70.1552 51.0018 69.8869 50.4857 69.5731L50.4925 69.5708ZM57.5569 36.209C57.6387 35.6588 57.7206 35.2541 57.7569 34.8425C57.9411 32.7757 58.0502 30.709 57.3204 28.7081C56.827 27.3576 55.9789 26.3526 54.5078 26.0093C52.6411 25.5704 52.1705 25.3181 50.6539 24.2039C50.0423 23.756 49.3807 23.3149 48.6713 23.0717C44.2762 21.5619 40.1427 22.1463 36.4934 25.0293C33.7695 27.1825 32.9237 30.3111 32.6691 33.6261C32.6009 34.5242 32.6577 35.4337 32.6577 36.2318C34.4289 34.7811 36.1251 33.3283 37.8917 31.9663C39.0718 31.0568 39.4674 31.1796 40.2746 32.3983C42.5369 35.8179 45.7087 36.7342 49.4989 35.1063C50.2469 34.7857 51.0427 34.5219 51.8408 34.3901C53.9735 34.0354 55.872 34.6038 57.5546 36.2067L57.5569 36.209ZM49.3829 90.4956C49.3102 90.1704 49.2556 89.9021 49.1897 89.6361C48.0892 85.2433 47.0229 80.8392 45.8678 76.4601C45.3676 74.5638 45.6768 72.8881 46.7296 71.2852C47.3275 70.3734 47.8937 69.4412 48.4985 68.4772C47.3525 67.7792 46.2976 67.1175 45.2198 66.4968C45.0448 66.3968 44.7082 66.3854 44.54 66.4877C43.3827 67.1903 42.2481 67.9315 41.0499 68.6977C41.6592 69.6959 42.2322 70.6372 42.8052 71.5739C43.7078 73.0496 43.9488 74.6116 43.5259 76.3032C42.4164 80.7528 41.3364 85.2115 40.2473 89.6657C40.1836 89.9226 40.1472 90.1863 40.0904 90.4956H49.3784H49.3829ZM52.1341 55.3307C47.4458 57.7204 42.8984 57.7499 38.2532 55.4649C38.2532 56.8086 38.2351 58.0478 38.2714 59.2824C38.2783 59.4757 38.4988 59.7258 38.6852 59.8394C40.5815 60.974 42.4823 62.1018 44.4036 63.1886C44.6423 63.3227 45.0766 63.3432 45.3108 63.2159C47.4321 62.079 49.533 60.9035 51.6271 59.7167C51.8408 59.5962 52.1 59.321 52.1068 59.1096C52.1523 57.8977 52.1296 56.6836 52.1296 55.3307H52.1341ZM52.3706 68.0406C53.687 66.0648 54.9467 64.1754 56.2472 62.2223C55.3582 62.0085 54.6238 61.7653 53.8735 61.6766C53.4142 61.622 52.8731 61.6948 52.4615 61.8994C51.1973 62.5315 49.9764 63.2523 48.7418 63.9412C48.2416 64.2208 47.7459 64.5119 47.1411 64.8575C48.9464 65.9557 50.6085 66.9675 52.3728 68.0406H52.3706ZM42.6733 64.8438C41.009 63.8661 39.4151 63.0544 37.9668 62.0404C36.5002 61.0127 35.2747 61.9813 33.8218 62.1086C35.1906 64.1595 36.4593 66.0603 37.7644 68.0156C39.3924 66.9629 40.9521 65.9557 42.6733 64.8438Z" fill="#115056"/>
<path d="M74.0998 45.729C74.018 45.7973 73.927 45.8632 73.8474 45.9405C73.4359 46.3293 73.0289 46.7226 72.5492 47.1797C73.4177 48.3392 72.7288 49.0941 71.9239 49.8808C70.0367 51.7202 68.1905 53.6051 66.3238 55.465C65.3507 56.4358 64.6981 56.4336 63.7182 55.465C63.1725 54.9284 62.62 54.3986 62.097 53.8393C61.4081 53.1049 61.3922 52.3887 62.1038 51.6656C64.2138 49.5261 66.3261 47.3866 68.4952 45.3084C68.8158 45.0015 69.5206 44.8173 69.9344 44.9469C70.5051 45.1242 70.8007 45.0197 71.1508 44.6195C71.4282 44.3012 71.7716 44.042 72.1194 43.7237C70.2823 41.0566 69.6502 38.21 70.4687 35.12C71.0963 32.7531 72.4514 30.8705 74.4681 29.4904C78.4971 26.7347 83.938 27.3326 87.2781 30.875C90.6591 34.4607 90.9114 39.8993 87.9102 43.8123C85.2795 47.241 79.5885 49.4147 74.0998 45.7268V45.729ZM87.1553 37.6688C87.1371 33.749 83.9744 30.6045 80.0523 30.609C76.1007 30.6113 72.9743 33.8036 72.9493 37.7711C72.9243 41.4522 76.3758 44.8946 80.1251 44.8127C84.0472 44.7263 87.1758 41.6 87.1576 37.6711L87.1553 37.6688Z" fill="#115056"/>
<path d="M80.3873 31.7641C80.8488 31.8732 81.5969 32.0096 82.3199 32.2324C82.8701 32.403 83.1748 32.8395 82.9838 33.4216C82.7837 34.0332 82.3085 34.1946 81.6901 34.0355C79.0844 33.3602 77.768 33.8945 76.3719 36.1932C76.0491 36.7253 75.6171 37.0049 75.035 36.6866C74.4666 36.3751 74.4075 35.8635 74.6871 35.2974C75.7944 33.0623 77.6134 31.93 80.3873 31.7641Z" fill="#115056"/>
<path d="M60.5947 80.5324C60.2923 80.3096 60.0263 80.1117 59.758 79.9162C59.4556 79.6934 59.1509 79.4751 58.8485 79.25C58.578 79.0499 58.5643 78.9408 58.7621 78.6725C59.0031 78.3496 59.2373 78.0222 59.4783 77.7016C59.592 77.5493 59.5898 77.4243 59.4602 77.2742C58.8667 76.5966 58.2847 75.9123 57.698 75.2301C57.6389 75.1619 57.5844 75.0914 57.5298 75.0232C57.5412 75.0119 57.5525 74.9982 57.5639 74.9869C57.6094 75.0096 57.6548 75.0301 57.698 75.0528C58.9122 75.669 60.1263 76.2851 61.3382 76.9013C61.5883 77.0286 61.6179 77.1491 61.4519 77.3742C61.1904 77.7244 60.9244 78.07 60.6629 78.4179C60.4697 78.6748 60.4833 78.7885 60.7289 78.9931C61.9498 80.0026 63.1685 81.0144 64.3918 82.0216C64.4623 82.0808 64.5487 82.1194 64.6282 82.1672C64.6078 82.199 64.5896 82.2285 64.5691 82.2604C64.5032 82.2717 64.435 82.2922 64.369 82.2922C62.275 82.2922 60.1786 82.3195 58.0846 82.2831C57.0455 82.2649 56.1838 81.7556 55.4607 81.028C54.69 80.2504 54.283 79.2887 54.2511 78.2087C54.2057 76.6739 54.2329 75.1346 54.2307 73.5976C54.2307 73.0815 54.2352 72.5631 54.2307 72.047C54.2307 71.8856 54.2852 71.8151 54.4512 71.8151C56.393 71.7992 58.337 71.6764 60.2719 71.7855C62.5183 71.9106 64.2485 73.2975 64.6396 75.6326C64.6919 75.9486 64.7101 76.2738 64.7124 76.5944C64.7192 77.8153 64.7124 79.0386 64.7124 80.2595C64.7124 80.3118 64.6874 80.3937 64.6487 80.4096C64.6101 80.4278 64.5305 80.396 64.4918 80.3619C64.0666 80.0003 63.6437 79.6388 63.2299 79.2637C63.1663 79.2068 63.1344 79.0909 63.1299 78.9999C63.0958 78.1336 63.0753 77.2674 63.0412 76.4034C62.9775 74.8573 62.0408 73.7795 60.5242 73.4953C60.4128 73.4749 60.2969 73.4703 60.1832 73.468C58.8735 73.468 57.5639 73.468 56.2543 73.468C55.9132 73.468 55.8927 73.4908 55.8927 73.8341C55.8927 75.0437 55.8655 76.2533 55.8996 77.4606C55.9314 78.6225 56.5498 79.8594 57.7935 80.33C58.1141 80.4505 58.4666 80.5187 58.8099 80.5392C59.3578 80.5733 59.9103 80.5483 60.4606 80.5483C60.4901 80.5483 60.522 80.5437 60.597 80.5347L60.5947 80.5324Z" fill="#115056"/>
</g>
<defs>
<clipPath id="clip0_140_4224">
<rect width="70" height="72.8262" fill="white" transform="translate(20 20)"/>
</clipPath>
</defs>
</svg>
