<svg width="110" height="109" viewBox="0 0 110 109" fill="none" xmlns="http://www.w3.org/2000/svg">
<rect x="0.5" y="0.5" width="109" height="108" rx="9.5" fill="#F1FAFA"/>
<rect x="0.5" y="0.5" width="109" height="108" rx="9.5" stroke="#115056"/>
<g clip-path="url(#clip0_140_8)">
<path d="M46.2219 88.9999C38.0193 88.9999 29.8145 88.9999 21.6119 88.9999C20.2795 88.9999 19.9844 88.7179 19.9996 87.3959C20.0712 81.2962 20.2838 75.2094 21.5815 69.2109C22.8032 63.5634 25.8412 59.3218 31.3096 57.0826C32.757 56.4905 34.3867 56.3118 35.9491 56.0254C36.4287 55.9371 36.7238 55.8467 36.88 55.3515C37.1404 54.5333 37.7654 53.7087 37.6873 52.9422C37.6135 52.2381 36.8041 51.6159 36.3354 50.9441C34.6905 48.5822 33.7465 45.9554 33.7769 43.0961C33.8117 39.9203 33.5816 36.7854 33.0717 33.657C32.3794 29.4154 34.1458 26.1707 37.5202 23.7915C42.0381 20.6136 47.0791 19.3648 52.6017 20.3057C54.6676 20.6588 56.0867 21.6987 56.8441 23.7097C57.1066 24.4095 57.7446 25.0317 58.3457 25.5312C59.5588 26.5432 60.4658 27.7424 61.0821 29.1742C61.7678 30.7589 61.7939 32.3544 61.1168 33.9476C60.9389 34.3675 60.7848 34.8132 60.5244 35.1814C59.4134 36.751 59.205 38.4842 59.2441 40.3617C59.281 42.2284 59.1486 44.1231 58.8383 45.964C58.4282 48.3949 57.226 50.5092 55.5508 52.3329C55.2296 52.6817 55.2209 52.9637 55.3294 53.4051C55.7352 55.0457 56.2907 56.4646 58.4195 56.2235C64.8102 57.7414 68.7921 61.7311 70.5238 67.9535C71.7911 72.5137 72.0927 77.2096 72.3054 81.9077C72.39 83.7593 72.4074 85.6131 72.4334 87.4648C72.4508 88.6877 72.1274 88.9978 70.9144 88.9978C62.6836 88.9978 54.4527 88.9978 46.2219 88.9978V88.9999ZM42.3701 67.5358C42.2443 67.6176 42.1119 67.6994 41.9839 67.7856C40.6732 68.6619 40.4996 68.6468 39.4038 67.4691C37.0363 64.9241 34.6666 62.3813 32.323 59.8148C31.9346 59.3885 31.6525 59.2852 31.1035 59.5758C27.1671 61.6622 24.8843 64.9456 23.886 69.198C22.788 73.8766 22.5146 78.6457 22.3041 83.4213C22.2564 84.5129 22.2976 85.6088 22.2976 86.7349H29.7798C29.7798 86.3452 29.7798 86.0244 29.7798 85.7036C29.7798 82.2931 29.7798 78.8847 29.782 75.4742C29.782 75.1814 29.7733 74.8757 29.8427 74.5958C29.9838 74.0295 30.3896 73.7195 30.9689 73.7539C31.5397 73.7862 31.9259 74.1135 32.0062 74.7034C32.0431 74.9683 32.0322 75.2395 32.0322 75.5065C32.0322 78.9967 32.0518 82.4868 32.0171 85.977C32.0105 86.6638 32.2297 86.8275 32.8894 86.8189C35.4326 86.7844 37.9759 86.8059 40.5213 86.8038C40.7578 86.8038 40.9944 86.7758 41.2417 86.7607C41.3003 86.4421 41.3611 86.1815 41.398 85.9189C42.0598 81.1067 42.6522 76.2838 43.4204 71.4889C43.6678 69.9451 43.3553 68.7265 42.368 67.5401L42.3701 67.5358ZM70.003 86.7693C70.003 84.6615 70.0854 82.6505 69.9856 80.646C69.7816 76.5938 69.4214 72.5547 68.3907 68.608C67.336 64.5732 65.0207 61.5201 61.2817 59.5543C60.8087 59.3067 60.5461 59.367 60.1924 59.7545C57.8813 62.2801 55.5486 64.7863 53.2137 67.2904C51.8617 68.7394 51.8552 68.7329 50.1995 67.6607C50.1626 67.637 50.1019 67.6521 49.9977 67.6456C49.7937 67.9901 49.618 68.3927 49.3489 68.7178C48.8151 69.3638 48.8368 70.0786 48.9496 70.8343C49.2013 72.531 49.44 74.2319 49.6765 75.9307C50.1735 79.5134 50.6682 83.0983 51.1695 86.737H60.4007V85.7983C60.4007 82.3598 60.4007 78.9213 60.4007 75.4828C60.4007 75.2137 60.3877 74.9424 60.4289 74.6798C60.5201 74.092 60.9345 73.6915 61.4792 73.7776C61.8785 73.84 62.2756 74.2211 62.5599 74.557C62.7161 74.74 62.651 75.1233 62.651 75.4161C62.6553 78.8804 62.6532 82.3469 62.6532 85.8112C62.6532 86.1213 62.6532 86.4313 62.6532 86.7672H70.0052L70.003 86.7693ZM35.9773 40.9775C35.9947 40.9775 36.012 40.9775 36.0316 40.9775C36.0316 41.8366 35.9882 42.6956 36.0402 43.5526C36.177 45.7702 36.8583 47.8264 38.1647 49.6307C40.5582 52.9357 43.7503 54.6862 47.9254 54.0812C52.2046 53.4589 55.733 50.0269 56.6401 45.5097C57.009 43.6645 56.8419 41.7181 57.0481 39.832C57.2086 38.355 56.805 37.272 55.5117 36.4689C55.1059 36.217 54.8412 36.0921 54.3659 36.2773C49.0646 38.3378 43.7785 38.4088 38.5119 36.1201C38.3036 36.0297 37.9195 36.0663 37.748 36.2041C35.9708 37.6423 35.9773 37.6509 35.9773 39.9311V40.9775ZM57.8032 35.5452C58.0983 34.994 58.3218 34.5376 58.5779 34.1005C59.8061 32.0099 59.7041 30.0936 57.4191 27.7145C57.1783 27.4625 56.894 27.2494 56.6119 27.0405C55.7027 26.358 55.0017 25.5161 54.6654 24.4267C54.3247 23.32 53.5717 22.7688 52.4628 22.5578C47.1246 21.5415 42.3636 22.8722 38.143 26.1384C35.1549 28.4508 34.7361 31.6029 35.5997 35.3407C36.0251 34.8433 36.3332 34.445 36.6826 34.0854C37.5224 33.2177 37.7372 33.1962 38.7896 33.7474C40.6558 34.7271 42.6522 35.2739 44.7441 35.5C48.1445 35.8682 51.3713 35.218 54.4571 33.8206C55.1797 33.4933 55.7309 33.5665 56.2755 34.1393C56.7182 34.6065 57.2217 35.0156 57.8032 35.5474V35.5452ZM46.2197 62.1079C48.8758 60.2821 51.4907 58.4842 54.1272 56.6713C53.8321 55.8639 53.563 55.1211 53.2874 54.3654C48.6957 57.1644 44.1908 57.1278 39.6576 54.3288C39.3929 55.0242 39.1217 55.6658 38.9155 56.3268C38.8612 56.4969 38.9437 56.822 39.0783 56.9211C41.4414 58.6586 43.8241 60.3725 46.2197 62.1057V62.1079ZM45.7684 70.6729C45.0306 76.0147 44.2949 81.3479 43.555 86.7155H48.7652C48.7652 86.498 48.7803 86.3624 48.763 86.2311C48.0794 81.2101 47.3872 76.1912 46.7102 71.1702C46.6385 70.6341 46.3695 70.4963 45.7684 70.6729ZM44.2667 63.4557C42.1271 61.9076 40.0309 60.5189 38.0887 58.9407C36.8258 57.9137 35.6062 58.2904 34.1393 58.4907C36.4764 61.0098 38.6963 63.4062 40.9162 65.8004C42.0685 64.9952 43.1253 64.2545 44.2646 63.4557H44.2667ZM58.2068 58.5337C56.8289 58.1419 55.6571 58.0536 54.6133 59.0354C54.1858 59.4359 53.6455 59.7179 53.1572 60.0538C51.5232 61.1777 49.887 62.3017 48.1597 63.4902C49.3294 64.2803 50.4078 65.0102 51.5102 65.7552C53.7518 63.3373 55.9435 60.9753 58.2068 58.5359V58.5337ZM48.1272 66.2074C47.5716 65.809 47.066 65.415 46.5235 65.0813C46.3673 64.9865 46.0548 64.9822 45.8986 65.077C45.3517 65.4042 44.844 65.7918 44.2906 66.1772C44.6356 66.8038 44.9329 67.37 45.2584 67.9212C45.5709 68.4487 46.7796 68.5047 47.1094 67.9944C47.4697 67.4368 47.7713 66.8425 48.1272 66.2095V66.2074Z" fill="#115056"/>
<path d="M78.5142 47.6112C78.6488 48.1624 78.716 48.6425 78.894 49.0774C78.9656 49.2497 79.2781 49.4069 79.4929 49.4241C81.5653 49.5856 82.8065 50.6191 83.3121 52.6473C83.477 53.3061 83.1125 53.7733 82.3443 53.8013C81.4264 53.8336 80.5041 53.8099 79.584 53.8099C76.3095 53.8099 73.035 53.8121 69.7604 53.8099C68.4519 53.8099 68.172 53.3492 68.6147 52.1607C69.2678 50.4102 70.4158 49.4026 72.3688 49.4198C72.538 49.4198 72.8028 49.2152 72.8657 49.0451C73.0241 48.6253 73.0914 48.1731 73.2259 47.6112C72.8679 47.6112 72.5836 47.6112 72.2993 47.6112C69.1876 47.6112 66.0758 47.6112 62.9618 47.6112C61.892 47.6112 61.6034 47.2796 61.7813 46.2268C62.6298 41.1735 63.4848 36.1223 64.3289 31.0669C64.4461 30.3693 64.7998 30.0377 65.5268 30.0377C72.4274 30.0463 79.3302 30.0441 86.2308 30.0377C86.9577 30.0377 87.2897 30.3843 87.4069 31.0862C88.2445 36.1417 89.1038 41.1928 89.9523 46.2461C90.1259 47.2796 89.8417 47.6069 88.7415 47.6069C85.6557 47.6112 82.57 47.6069 79.4864 47.6069C79.1934 47.6069 78.9005 47.6069 78.5142 47.6069V47.6112ZM82.8976 45.9038C82.7479 44.4225 82.6069 43.0208 82.4636 41.6041H79.3519V45.9038H82.8955H82.8976ZM72.4165 41.5847H69.2765C69.1355 43.038 68.9966 44.4505 68.8599 45.8715H72.4165V41.5847ZM74.2176 41.5653V45.8693H77.5052V41.5653H74.2176ZM84.1866 41.5459C84.3407 43.0617 84.4839 44.4612 84.6315 45.8952H88.1469C87.9234 44.543 87.715 43.2297 87.472 41.9227C87.4438 41.7763 87.2051 41.5675 87.0575 41.561C86.1244 41.5287 85.1892 41.5438 84.1888 41.5438L84.1866 41.5459ZM67.5557 41.5459C66.5445 41.5459 65.607 41.533 64.6696 41.561C64.5372 41.5653 64.3202 41.7462 64.2985 41.8732C64.0512 43.2017 63.8363 44.5366 63.6063 45.8973H67.1109C67.2562 44.4634 67.3995 43.0617 67.5557 41.5459ZM83.6593 36.3592C83.783 37.5412 83.9024 38.6694 84.0174 39.7718H87.1248C86.9208 38.5833 86.7277 37.4637 86.5389 36.3592H83.6593ZM77.3337 39.8041V36.3742H74.3825V39.8041H77.3337ZM68.083 36.3592H65.2034C65.0103 37.5197 64.8258 38.635 64.6349 39.7847H67.7271C67.8465 38.6328 67.9615 37.524 68.0809 36.3592H68.083ZM81.9385 36.3742H79.1565V39.7804H82.2727C82.1577 38.6156 82.0492 37.5046 81.9385 36.3742ZM69.8038 36.3527C69.6953 37.5046 69.5868 38.6307 69.4783 39.7761H72.6075V36.3527H69.8038ZM70.585 52.0143H81.0813C81.1117 51.9195 81.1443 51.8248 81.1747 51.7322C80.6625 51.5341 80.1548 51.1767 79.6383 51.1638C77.1276 51.1035 74.6147 51.1336 72.1019 51.1401C71.4747 51.1401 70.9626 51.3726 70.585 52.0164V52.0143ZM83.4944 34.5613H86.2525C86.0832 33.6054 85.9291 32.7204 85.7729 31.8398H83.2058C83.3056 32.7786 83.3989 33.6699 83.4944 34.5613ZM81.754 34.5786C81.6564 33.6312 81.5653 32.7377 81.4741 31.8506H79.009V34.5786H81.7519H81.754ZM70.2617 31.8506C70.1727 32.7807 70.0881 33.6527 69.9991 34.5721H72.7681V31.8506H70.2617ZM65.5072 34.5893H68.2501C68.3478 33.6699 68.4411 32.7764 68.5387 31.8506H65.9694C65.8154 32.757 65.67 33.6226 65.5072 34.5893ZM74.5757 34.5699H77.145V31.8506H74.5757V34.5699ZM77.1276 49.3638C76.878 47.5961 76.8325 47.5186 75.5326 47.6263C74.3674 47.721 75.0075 48.7889 74.4715 49.3638H77.1276Z" fill="#115056"/>
</g>
<defs>
<clipPath id="clip0_140_8">
<rect width="70" height="69" fill="white" transform="translate(20 20)"/>
</clipPath>
</defs>
</svg>
