<svg preserveAspectRatio="none" width="100%" height="100%" overflow="visible" style="display: block;" viewBox="0 0 70 69" fill="none" xmlns="http://www.w3.org/2000/svg">
<g id="Group">
<path id="Vector" d="M26.2229 69.0001C18.0203 69.0001 9.81548 69.0001 1.61286 69.0001C0.280478 69.0001 -0.0146426 68.7181 0.000547451 67.3961C0.0721576 61.2964 0.284818 55.2096 1.58248 49.2111C2.80419 43.5635 5.8422 39.322 11.3106 37.0827C12.758 36.4906 14.3877 36.3119 15.9501 36.0256C16.4297 35.9373 16.7248 35.8469 16.881 35.3517C17.1414 34.5335 17.7664 33.7089 17.6883 32.9424C17.6145 32.2383 16.8051 31.6161 16.3363 30.9443C14.6915 28.5824 13.7475 25.9556 13.7779 23.0963C13.8126 19.9205 13.5826 16.7856 13.0727 13.6572C12.3804 9.41557 14.1468 6.17087 17.5212 3.79171C22.0391 0.613751 27.08 -0.63504 32.6027 0.305859C34.6685 0.658966 36.0877 1.69891 36.8451 3.70989C37.1076 4.40964 37.7456 5.03189 38.3467 5.5314C39.5597 6.54335 40.4668 7.74262 41.0831 9.17443C41.7688 10.7591 41.7948 12.3545 41.1178 13.9478C40.9399 14.3677 40.7858 14.8134 40.5254 15.1815C39.4143 16.7511 39.206 18.4844 39.2451 20.3619C39.282 22.2286 39.1496 24.1233 38.8393 25.9642C38.4292 28.395 37.227 30.5094 35.5517 32.333C35.2306 32.6818 35.2219 32.9639 35.3304 33.4053C35.7362 35.0459 36.2917 36.4648 38.4205 36.2237C44.8111 37.7416 48.7931 41.7313 50.5248 47.9537C51.792 52.5139 52.0937 57.2098 52.3063 61.9078C52.391 63.7595 52.4083 65.6133 52.4344 67.465C52.4517 68.6879 52.1284 68.998 50.9154 68.998C42.6845 68.998 34.4537 68.998 26.2229 68.998V69.0001ZM22.3711 47.536C22.2453 47.6178 22.1129 47.6996 21.9849 47.7857C20.6742 48.6621 20.5006 48.647 19.4047 47.4692C17.0373 44.9243 14.6676 42.3815 12.324 39.815C11.9356 39.3887 11.6535 39.2854 11.1045 39.576C7.16807 41.6624 4.88523 44.9458 3.88703 49.1982C2.789 53.8768 2.51558 58.6459 2.30509 63.4215C2.25735 64.5131 2.29858 65.609 2.29858 66.7351H9.78076C9.78076 66.3454 9.78076 66.0245 9.78076 65.7037C9.78076 62.2932 9.78076 58.8849 9.78293 55.4744C9.78293 55.1816 9.77425 54.8759 9.84369 54.596C9.98474 54.0297 10.3905 53.7197 10.9699 53.7541C11.5406 53.7864 11.9269 54.1137 12.0072 54.7036C12.0441 54.9684 12.0332 55.2397 12.0332 55.5067C12.0332 58.9969 12.0528 62.487 12.018 65.9772C12.0115 66.664 12.2307 66.8276 12.8904 66.819C15.4336 66.7846 17.9769 66.8061 20.5223 66.804C20.7588 66.804 20.9953 66.776 21.2427 66.7609C21.3013 66.4422 21.3621 66.1817 21.399 65.919C22.0608 61.1069 22.6532 56.284 23.4214 51.4891C23.6688 49.9453 23.3563 48.7266 22.369 47.5403L22.3711 47.536ZM50.004 66.7695C50.004 64.6616 50.0864 62.6507 49.9866 60.6461C49.7826 56.594 49.4224 52.5548 48.3916 48.6082C47.337 44.5733 45.0216 41.5203 41.2827 39.5545C40.8097 39.3069 40.5471 39.3672 40.1934 39.7547C37.8823 42.2803 35.5496 44.7865 33.2146 47.2905C31.8627 48.7396 31.8562 48.7331 30.2005 47.6609C30.1636 47.6372 30.1029 47.6523 29.9987 47.6458C29.7947 47.9903 29.6189 48.3929 29.3499 48.718C28.816 49.364 28.8377 50.0788 28.9506 50.8345C29.2023 52.5312 29.441 54.2321 29.6775 55.9309C30.1745 59.5136 30.6692 63.0985 31.1705 66.7372H40.4017V65.7985C40.4017 62.36 40.4017 58.9215 40.4017 55.483C40.4017 55.2139 40.3887 54.9426 40.4299 54.6799C40.521 54.0921 40.9355 53.6917 41.4802 53.7778C41.8795 53.8402 42.2766 54.2213 42.5608 54.5572C42.7171 54.7402 42.652 55.1235 42.652 55.4163C42.6563 58.8806 42.6542 62.3471 42.6542 65.8114C42.6542 66.1214 42.6542 66.4315 42.6542 66.7674H50.0061L50.004 66.7695ZM15.9783 20.9777C15.9957 20.9777 16.013 20.9777 16.0325 20.9777C16.0325 21.8367 15.9891 22.6958 16.0412 23.5527C16.1779 25.7704 16.8593 27.8266 18.1657 29.6309C20.5592 32.9359 23.7512 34.6864 27.9263 34.0813C32.2056 33.4591 35.734 30.0271 36.6411 25.5099C37.01 23.6647 36.8429 21.7183 37.049 19.8322C37.2096 18.3552 36.806 17.2722 35.5127 16.4691C35.1069 16.2172 34.8421 16.0923 34.3669 16.2775C29.0656 18.338 23.7795 18.409 18.5129 16.1203C18.3045 16.0299 17.9204 16.0665 17.749 16.2043C15.9718 17.6425 15.9783 17.6511 15.9783 19.9313V20.9777ZM37.8042 15.5454C38.0993 14.9942 38.3228 14.5378 38.5789 14.1007C39.8071 12.01 39.7051 10.0938 37.4201 7.71463C37.1792 7.46272 36.895 7.24957 36.6129 7.04072C35.7036 6.35819 35.0027 5.51633 34.6664 4.42687C34.3257 3.32018 33.5727 2.76899 32.4638 2.55799C27.1256 1.54173 22.3646 2.87234 18.144 6.13857C15.1559 8.45099 14.737 11.6031 15.6007 15.3409C16.026 14.8435 16.3342 14.4452 16.6835 14.0856C17.5233 13.2179 17.7382 13.1964 18.7906 13.7476C20.6568 14.7272 22.6532 15.2741 24.7451 15.5002C28.1455 15.8684 31.3723 15.2181 34.458 13.8208C35.1807 13.4935 35.7318 13.5667 36.2765 14.1394C36.7192 14.6067 37.2226 15.0158 37.8042 15.5476V15.5454ZM26.2207 42.1081C28.8768 40.2822 31.4917 38.4844 34.1282 36.6715C33.8331 35.8641 33.564 35.1213 33.2884 34.3656C28.6967 37.1646 24.1918 37.128 19.6586 34.329C19.3939 35.0244 19.1226 35.666 18.9165 36.327C18.8622 36.4971 18.9447 36.8222 19.0792 36.9213C21.4424 38.6588 23.825 40.3727 26.2207 42.1059V42.1081ZM25.7694 50.673C25.0316 56.0148 24.2959 61.348 23.5559 66.7157H28.7661C28.7661 66.4982 28.7813 66.3626 28.764 66.2312C28.0804 61.2102 27.3882 56.1914 26.7111 51.1704C26.6395 50.6343 26.3704 50.4965 25.7694 50.673ZM24.2677 43.4559C22.1281 41.9078 20.0319 40.5191 18.0897 38.9409C16.8268 37.9138 15.6072 38.2906 14.1403 38.4909C16.4774 41.01 18.6973 43.4064 20.9172 45.8006C22.0695 44.9953 23.1263 44.2547 24.2655 43.4559H24.2677ZM38.2078 38.5339C36.8299 38.1421 35.6581 38.0538 34.6143 39.0356C34.1868 39.4361 33.6465 39.7181 33.1582 40.054C31.5242 41.1779 29.888 42.3018 28.1607 43.4903C29.3303 44.2805 30.4088 45.0104 31.5112 45.7554C33.7528 43.3375 35.9445 40.9755 38.2078 38.5361V38.5339ZM28.1281 46.2075C27.5726 45.8092 27.067 45.4152 26.5245 45.0815C26.3683 44.9867 26.0558 44.9824 25.8996 45.0772C25.3527 45.4044 24.8449 45.792 24.2916 46.1774C24.6366 46.8039 24.9339 47.3702 25.2594 47.9214C25.5719 48.4489 26.7806 48.5049 27.1104 47.9946C27.4706 47.4369 27.7723 46.8427 28.1281 46.2097V46.2075Z" fill="var(--fill-0, #115056)"/>
<path id="Vector_2" d="M58.5149 27.6114C58.6495 28.1626 58.7168 28.6427 58.8947 29.0776C58.9663 29.2499 59.2788 29.407 59.4936 29.4243C61.566 29.5858 62.8072 30.6192 63.3128 32.6474C63.4778 33.3063 63.1132 33.7735 62.345 33.8015C61.4271 33.8338 60.5048 33.8101 59.5848 33.8101C56.3102 33.8101 53.0357 33.8123 49.7612 33.8101C48.4526 33.8101 48.1727 33.3493 48.6154 32.1608C49.2686 30.4104 50.4165 29.4027 52.3695 29.42C52.5388 29.42 52.8035 29.2154 52.8664 29.0453C53.0248 28.6255 53.0921 28.1733 53.2267 27.6114C52.8686 27.6114 52.5843 27.6114 52.3001 27.6114C49.1883 27.6114 46.0765 27.6114 42.9625 27.6114C41.8927 27.6114 41.6041 27.2798 41.782 26.2269C42.6305 21.1736 43.4855 16.1225 44.3296 11.067C44.4468 10.3694 44.8005 10.0379 45.5275 10.0379C52.4281 10.0465 59.3309 10.0443 66.2315 10.0379C66.9584 10.0379 67.2904 10.3845 67.4076 11.0864C68.2453 16.1419 69.1046 21.193 69.953 26.2463C70.1266 27.2798 69.8424 27.6071 68.7422 27.6071C65.6564 27.6114 62.5707 27.6071 59.4871 27.6071C59.1942 27.6071 58.9012 27.6071 58.5149 27.6071V27.6114ZM62.8984 25.904C62.7486 24.4226 62.6076 23.021 62.4644 21.6043H59.3526V25.904H62.8962H62.8984ZM52.4172 21.5849H49.2772C49.1362 23.0382 48.9973 24.4506 48.8606 25.8717H52.4172V21.5849ZM54.2183 21.5655V25.8695H57.5059V21.5655H54.2183ZM64.1873 21.5461C64.3414 23.0619 64.4846 24.4614 64.6322 25.8954H68.1476C67.9241 24.5432 67.7158 23.2298 67.4727 21.9229C67.4445 21.7765 67.2058 21.5677 67.0583 21.5612C66.1252 21.5289 65.1899 21.544 64.1895 21.544L64.1873 21.5461ZM47.5564 21.5461C46.5452 21.5461 45.6078 21.5332 44.6703 21.5612C44.538 21.5655 44.321 21.7464 44.2993 21.8734C44.0519 23.2018 43.837 24.5368 43.607 25.8975H47.1116C47.257 24.4636 47.4002 23.0619 47.5564 21.5461ZM63.66 16.3593C63.7837 17.5414 63.9031 18.6696 64.0181 19.772H67.1255C66.9215 18.5835 66.7284 17.4639 66.5396 16.3593H63.66ZM57.3345 19.8043V16.3744H54.3833V19.8043H57.3345ZM48.0837 16.3593H45.2041C45.011 17.5198 44.8266 18.6351 44.6356 19.7849H47.7279C47.8472 18.633 47.9622 17.5242 48.0816 16.3593H48.0837ZM61.9392 16.3744H59.1573V19.7806H62.2734C62.1584 18.6158 62.0499 17.5048 61.9392 16.3744ZM49.8046 16.3529C49.6961 17.5048 49.5876 18.6308 49.4791 19.7763H52.6082V16.3529H49.8046ZM50.5858 32.0144H61.0821C61.1124 31.9197 61.145 31.825 61.1754 31.7324C60.6633 31.5343 60.1555 31.1769 59.639 31.164C57.1283 31.1037 54.6155 31.1338 52.1026 31.1403C51.4755 31.1403 50.9633 31.3728 50.5858 32.0166V32.0144ZM63.4951 14.5615H66.2532C66.0839 13.6055 65.9299 12.7206 65.7736 11.84H63.2065C63.3063 12.7787 63.3996 13.6701 63.4951 14.5615ZM61.7548 14.5787C61.6571 13.6314 61.566 12.7378 61.4748 11.8508H59.0097V14.5787H61.7526H61.7548ZM50.2624 11.8508C50.1735 12.7809 50.0888 13.6529 49.9999 14.5723H52.7688V11.8508H50.2624ZM45.5079 14.5895H48.2508C48.3485 13.6701 48.4418 12.7766 48.5394 11.8508H45.9702C45.8161 12.7572 45.6707 13.6228 45.5079 14.5895ZM54.5764 14.5701H57.1457V11.8508H54.5764V14.5701ZM57.1283 29.364C56.8788 27.5963 56.8332 27.5188 55.5334 27.6264C54.3681 27.7212 55.0082 28.7891 54.4722 29.364H57.1283Z" fill="var(--fill-0, #115056)"/>
</g>
</svg>
