<svg width="140" height="145" viewBox="0 0 140 145" fill="none" xmlns="http://www.w3.org/2000/svg">
<rect x="0.5" y="1.13135" width="139" height="143" rx="9.5" fill="white"/>
<rect x="0.5" y="1.13135" width="139" height="143" rx="9.5" stroke="#115056"/>
<g clip-path="url(#clip0_171_2576)">
<path d="M69.1797 76.9367C70.4595 77.2451 71.6743 77.5439 72.8923 77.8263C75.3706 78.4043 77.8522 78.9628 80.3305 79.544C86.7456 81.0473 90.6141 85.8626 90.6433 92.4636C90.6725 99.7563 90.666 107.046 90.6433 114.338C90.6271 120.527 86.5539 124.608 80.3435 124.615C65.0676 124.634 49.7916 124.621 34.5157 124.621C32.8137 124.621 31.1117 124.651 29.4097 124.589C24.2062 124.397 20.1135 120.348 20.0583 115.127C19.9739 107.27 19.9674 99.4089 20.0713 91.5545C20.1428 85.9113 24.1217 80.9759 29.6143 79.6252C33.5835 78.6478 37.5982 77.8491 41.6064 77.0536C42.5776 76.8588 42.8342 76.4561 42.7984 75.5243C42.7302 73.6637 42.8277 71.7968 42.7465 69.9362C42.7237 69.407 42.4541 68.7544 42.0741 68.3907C37.6989 64.2281 35.5746 59.1401 35.4317 53.1203C35.3602 50.0941 34.9997 47.0744 34.8015 44.0483C34.5579 40.2915 34.938 36.59 36.208 33.0378C38.4979 26.6348 43.1135 22.7937 49.6812 21.3098C56.2489 19.826 62.3327 20.6052 67.4387 25.4724C67.6466 25.6705 68.0006 25.7744 68.2995 25.8101C72.8923 26.3686 75.5298 28.6447 76.7413 33.1158C77.5599 36.1419 77.6281 39.2363 77.1246 42.2787C76.436 46.4413 76.1956 50.6136 76.043 54.8217C75.8546 59.9843 73.6459 64.345 69.9625 67.9394C69.3908 68.4978 69.144 69.0368 69.1602 69.8291C69.2057 72.1734 69.1764 74.5209 69.1764 76.9334L69.1797 76.9367ZM47.3426 91.8727C47.0177 92.0545 46.8391 92.1422 46.6734 92.2461C44.6434 93.4929 44.2796 93.4182 42.9673 91.4571C40.9405 88.4277 38.9007 85.4047 36.9161 82.3494C36.4646 81.6545 36.0293 81.4662 35.2271 81.6902C33.9408 82.0474 32.6188 82.2552 31.3098 82.5344C26.3597 83.5864 23.274 87.3302 23.2577 92.376C23.235 99.7498 23.2415 107.12 23.2577 114.494C23.2675 118.618 26.0024 121.368 30.1145 121.391C34.8145 121.413 39.5146 121.378 44.2179 121.413C45.0137 121.42 45.332 121.176 45.5171 120.397C47.1574 113.549 48.8724 106.718 50.4835 99.8634C50.6849 99.0095 50.6751 97.9283 50.3178 97.1555C49.4733 95.3372 48.3625 93.6455 47.3426 91.8694V91.8727ZM46.5435 40.6942C44.5654 42.5644 42.688 44.3405 40.8106 46.1101C39.219 47.6102 38.3777 49.3765 38.735 51.6267C38.8357 52.2598 38.748 52.9189 38.7545 53.5683C38.839 61.611 44.6141 68.6082 52.3999 70.1083C60.5852 71.6831 68.5398 67.3874 71.6645 59.7992C73.0547 56.4224 73.1002 52.9027 72.8241 49.396C72.574 46.1977 69.8521 44.0645 66.6397 44.3437C65.4216 44.4509 64.1938 44.8795 63.0537 45.36C57.1811 47.8407 51.76 46.6458 47.5537 41.8631C47.2873 41.5611 47.0275 41.2559 46.5403 40.6942H46.5435ZM63.5604 91.4214C62.4268 93.2754 61.1926 94.9963 60.2993 96.8762C59.8706 97.7789 59.8186 99.0517 60.0557 100.049C61.683 106.857 63.437 113.634 65.126 120.423C65.2949 121.105 65.545 121.423 66.3278 121.417C71.1481 121.378 75.9683 121.43 80.7885 121.384C84.592 121.349 87.3854 118.55 87.4017 114.744C87.4342 107.211 87.4407 99.6784 87.4017 92.1487C87.3789 87.5185 84.3939 83.8624 79.879 82.7812C78.6577 82.489 77.4104 82.2942 76.2151 81.9208C75.3771 81.6578 74.9841 81.9435 74.5488 82.6091C72.4895 85.7619 70.3945 88.8887 68.2897 92.0123C67.4744 93.2234 66.7826 93.3598 65.5191 92.6195C64.8987 92.2558 64.288 91.8727 63.5507 91.4246L63.5604 91.4214ZM73.6524 43.7788C73.7693 42.993 73.8862 42.415 73.9382 41.8273C74.2013 38.8759 74.3572 35.9244 73.3146 33.0671C72.6097 31.1384 71.3982 29.7032 69.2966 29.2129C66.6299 28.5863 65.9576 28.2258 63.7911 26.6348C62.9173 25.9952 61.9721 25.3653 60.9587 25.0179C54.6801 22.8619 48.775 23.6963 43.5617 27.8135C39.6705 30.8883 38.4622 35.3562 38.0984 40.0902C38.001 41.3728 38.0822 42.6716 38.0822 43.8112C40.6124 41.7397 43.0355 39.6649 45.5593 37.7199C47.2451 36.4212 47.8103 36.5965 48.9634 38.3369C52.1953 43.2203 56.7264 44.5288 62.141 42.204C63.2096 41.7462 64.3465 41.3695 65.4866 41.1812C68.5333 40.6747 71.2455 41.4864 73.6491 43.7755L73.6524 43.7788ZM61.9754 121.303C61.8714 120.839 61.7935 120.456 61.6993 120.076C60.1272 113.803 58.6038 107.513 56.9538 101.26C56.2392 98.5517 56.6809 96.1587 58.1848 93.8696C59.0391 92.5675 59.8478 91.2363 60.7118 89.8596C59.0748 88.8628 57.5676 87.9179 56.028 87.0315C55.7779 86.8886 55.2972 86.8724 55.0569 87.0185C53.4036 88.0218 51.7827 89.0803 50.071 90.1745C50.9415 91.5999 51.76 92.9442 52.5785 94.2819C53.868 96.3892 54.2123 98.6199 53.6082 101.036C52.0231 107.39 50.4802 113.757 48.9244 120.118C48.8334 120.485 48.7815 120.862 48.7003 121.303H61.9689H61.9754ZM65.9056 71.0857C59.208 74.4982 52.7117 74.5404 46.0758 71.2772C46.0758 73.1962 46.0498 74.9658 46.1018 76.7289C46.1115 77.0049 46.4266 77.362 46.6929 77.5244C49.4019 79.1446 52.1173 80.7551 54.862 82.3071C55.203 82.4987 55.8234 82.5279 56.158 82.3461C59.1885 80.7226 62.1897 79.044 65.1813 77.349C65.4866 77.177 65.8569 76.7841 65.8666 76.4821C65.9316 74.7515 65.8991 73.0176 65.8991 71.0857H65.9056ZM66.2434 89.2362C68.1241 86.4145 69.9235 83.7163 71.7814 80.9272C70.5114 80.622 69.4623 80.2746 68.3904 80.1479C67.7343 80.07 66.9612 80.1739 66.3733 80.4661C64.5674 81.3688 62.8231 82.3981 61.0594 83.3819C60.3448 83.7813 59.6367 84.1969 58.7727 84.6904C61.3517 86.2587 63.7261 87.7036 66.2466 89.2362H66.2434ZM52.3901 84.6709C50.0125 83.2747 47.7356 82.1156 45.6665 80.6674C43.5715 79.1998 41.8207 80.583 39.7452 80.7648C41.7006 83.6936 43.513 86.4081 45.3774 89.2004C47.7031 87.6971 49.9313 86.2587 52.3901 84.6709Z" fill="#115056"/>
<path d="M97.2859 57.3739C97.1689 57.4713 97.039 57.5655 96.9253 57.6759C96.3374 58.2311 95.756 58.7928 95.0706 59.4455C96.3114 61.1014 95.3272 62.1794 94.1774 63.3029C91.4815 65.9296 88.844 68.6214 86.1773 71.2774C84.7871 72.6638 83.8549 72.6606 82.4549 71.2774C81.6754 70.5111 80.8861 69.7546 80.139 68.9558C79.1548 67.907 79.1321 66.8843 80.1488 65.8517C83.163 62.7963 86.1805 59.7409 89.2792 56.7732C89.7372 56.3349 90.7441 56.0719 91.3353 56.257C92.1506 56.5102 92.5728 56.3609 93.073 55.7894C93.4693 55.3348 93.9598 54.9647 94.4567 54.5101C91.8323 50.7014 90.9293 46.6362 92.0986 42.2236C92.9951 38.8435 94.931 36.1551 97.8121 34.1842C103.568 30.2488 111.34 31.1028 116.112 36.1615C120.942 41.282 121.302 49.0487 117.015 54.6367C113.257 59.5331 105.127 62.6372 97.2859 57.3707V57.3739ZM115.937 45.8635C115.911 40.2657 111.392 35.7752 105.789 35.7817C100.144 35.7849 95.678 40.3436 95.6423 46.0096C95.6066 51.2664 100.537 56.1823 105.893 56.0654C111.496 55.942 115.966 51.4774 115.94 45.8667L115.937 45.8635Z" fill="#115056"/>
<path d="M106.267 37.4312C106.926 37.587 107.995 37.7818 109.028 38.1C109.814 38.3435 110.249 38.967 109.976 39.7982C109.691 40.6716 109.012 40.9021 108.128 40.6749C104.406 39.7105 102.525 40.4736 100.531 43.7562C100.07 44.516 99.4525 44.9154 98.621 44.4608C97.809 44.016 97.7245 43.2854 98.124 42.4769C99.7059 39.2852 102.304 37.6682 106.267 37.4312Z" fill="#115056"/>
<path d="M77.9918 107.075C77.5598 106.757 77.1797 106.474 76.7965 106.195C76.3645 105.877 75.9292 105.565 75.4972 105.244C75.1107 104.958 75.0912 104.802 75.3738 104.419C75.7181 103.958 76.0526 103.49 76.3969 103.033C76.5593 102.815 76.5561 102.636 76.371 102.422C75.5232 101.454 74.6917 100.477 73.8537 99.5031C73.7692 99.4057 73.6912 99.305 73.6133 99.2076C73.6295 99.1914 73.6458 99.1719 73.662 99.1556C73.727 99.1881 73.7919 99.2173 73.8537 99.2498C75.5882 100.13 77.3226 101.01 79.0539 101.89C79.4112 102.071 79.4534 102.244 79.2163 102.565C78.8428 103.065 78.4627 103.559 78.0892 104.055C77.8131 104.422 77.8326 104.585 78.1834 104.877C79.9276 106.318 81.6686 107.763 83.4161 109.202C83.5168 109.286 83.6403 109.341 83.7539 109.41C83.7247 109.455 83.6987 109.497 83.6695 109.543C83.5753 109.559 83.4778 109.588 83.3837 109.588C80.3921 109.588 77.3974 109.627 74.4058 109.575C72.9214 109.549 71.6904 108.822 70.6575 107.783C69.5564 106.672 68.975 105.299 68.9295 103.757C68.8645 101.565 68.9035 99.3667 68.9003 97.1718C68.9003 96.4347 68.9068 95.6944 68.9003 94.9573C68.9003 94.7268 68.9782 94.6261 69.2153 94.6261C71.9892 94.6034 74.7664 94.4281 77.5305 94.5839C80.7397 94.7625 83.2115 96.7432 83.7702 100.078C83.8449 100.529 83.8709 100.993 83.8741 101.451C83.8839 103.195 83.8741 104.942 83.8741 106.685C83.8741 106.76 83.8384 106.877 83.7832 106.9C83.728 106.926 83.6143 106.88 83.559 106.831C82.9516 106.315 82.3475 105.799 81.7563 105.263C81.6654 105.182 81.6199 105.016 81.6134 104.887C81.5647 103.649 81.5355 102.412 81.4867 101.179C81.3958 98.9706 80.0576 97.4315 77.8911 97.0256C77.7319 96.9964 77.5663 96.9899 77.4039 96.9867C75.5329 96.9867 73.662 96.9867 71.7911 96.9867C71.3039 96.9867 71.2746 97.0192 71.2746 97.5094C71.2746 99.2368 71.2357 100.964 71.2844 102.688C71.3299 104.348 72.2134 106.114 73.9901 106.786C74.4481 106.958 74.9515 107.055 75.442 107.085C76.2248 107.133 77.0141 107.098 77.8001 107.098C77.8424 107.098 77.8878 107.091 77.995 107.078L77.9918 107.075Z" fill="#115056"/>
</g>
<defs>
<clipPath id="clip0_171_2576">
<rect width="100" height="104" fill="white" transform="translate(20 20.6313)"/>
</clipPath>
</defs>
</svg>
