<svg width="100" height="105" viewBox="0 0 100 105" fill="none" xmlns="http://www.w3.org/2000/svg">
<path d="M49.1797 56.9367C50.4595 57.2451 51.6743 57.5439 52.8923 57.8263C55.3706 58.4043 57.8522 58.9628 60.3305 59.544C66.7456 61.0473 70.6141 65.8626 70.6433 72.4636C70.6725 79.7563 70.666 87.0457 70.6433 94.3384C70.6271 100.527 66.5539 104.608 60.3435 104.615C45.0676 104.634 29.7916 104.621 14.5157 104.621C12.8137 104.621 11.1117 104.651 9.40966 104.589C4.20617 104.397 0.11353 100.348 0.0583121 95.1274C-0.0261391 87.2697 -0.0326354 79.4089 0.0713046 71.5545C0.142763 65.9113 4.12172 60.9759 9.61429 59.6252C13.5835 58.6478 17.5982 57.8491 21.6064 57.0536C22.5776 56.8588 22.8342 56.4561 22.7984 55.5243C22.7302 53.6637 22.8277 51.7968 22.7465 49.9362C22.7237 49.407 22.4541 48.7544 22.0741 48.3907C17.6989 44.2281 15.5746 39.1401 15.4317 33.1203C15.3602 30.0941 14.9997 27.0744 14.8015 24.0483C14.5579 20.2915 14.938 16.59 16.208 13.0378C18.4979 6.63483 23.1135 2.79369 29.6812 1.30983C36.2489 -0.174032 42.3327 0.605238 47.4387 5.47243C47.6466 5.67049 48.0006 5.77439 48.2995 5.81011C52.8923 6.36859 55.5298 8.6447 56.7413 13.1158C57.5599 16.1419 57.6281 19.2363 57.1246 22.2787C56.436 26.4413 56.1956 30.6136 56.043 34.8217C55.8546 39.9843 53.6459 44.345 49.9625 47.9394C49.3908 48.4978 49.144 49.0368 49.1602 49.8291C49.2057 52.1734 49.1764 54.5209 49.1764 56.9334L49.1797 56.9367ZM27.3426 71.8727C27.0177 72.0545 26.8391 72.1422 26.6734 72.2461C24.6434 73.4929 24.2796 73.4182 22.9673 71.4571C20.9405 68.4277 18.9007 65.4047 16.9161 62.3494C16.4646 61.6545 16.0293 61.4662 15.2271 61.6902C13.9408 62.0474 12.6188 62.2552 11.3098 62.5344C6.35967 63.5864 3.27396 67.3302 3.25771 72.376C3.23498 79.7498 3.24147 87.1204 3.25771 94.4942C3.26746 98.6179 6.00238 101.368 10.1145 101.391C14.8145 101.413 19.5146 101.378 24.2179 101.413C25.0137 101.42 25.332 101.176 25.5171 100.397C27.1574 93.5494 28.8724 86.7178 30.4835 79.8634C30.6849 79.0095 30.6751 77.9283 30.3178 77.1555C29.4733 75.3372 28.3625 73.6455 27.3426 71.8694V71.8727ZM26.5435 20.6942C24.5654 22.5644 22.688 24.3405 20.8106 26.1101C19.219 27.6102 18.3777 29.3765 18.735 31.6267C18.8357 32.2598 18.748 32.9189 18.7545 33.5683C18.839 41.611 24.6141 48.6082 32.3999 50.1083C40.5852 51.6831 48.5398 47.3874 51.6645 39.7992C53.0547 36.4224 53.1002 32.9027 52.8241 29.396C52.574 26.1977 49.8521 24.0645 46.6397 24.3437C45.4216 24.4509 44.1938 24.8795 43.0537 25.36C37.1811 27.8407 31.76 26.6458 27.5537 21.8631C27.2873 21.5611 27.0275 21.2559 26.5403 20.6942H26.5435ZM43.5604 71.4214C42.4268 73.2754 41.1926 74.9963 40.2993 76.8762C39.8706 77.7789 39.8186 79.0517 40.0557 80.0485C41.683 86.8574 43.437 93.6338 45.126 100.423C45.2949 101.105 45.545 101.423 46.3278 101.417C51.1481 101.378 55.9683 101.43 60.7885 101.384C64.592 101.349 67.3854 98.5497 67.4017 94.7442C67.4342 87.2113 67.4407 79.6784 67.4017 72.1487C67.3789 67.5185 64.3939 63.8624 59.879 62.7812C58.6577 62.489 57.4104 62.2942 56.2151 61.9208C55.3771 61.6578 54.9841 61.9435 54.5488 62.6091C52.4895 65.7619 50.3945 68.8887 48.2897 72.0123C47.4744 73.2234 46.7826 73.3598 45.5191 72.6195C44.8987 72.2558 44.288 71.8727 43.5507 71.4246L43.5604 71.4214ZM53.6524 23.7788C53.7693 22.993 53.8862 22.415 53.9382 21.8273C54.2013 18.8759 54.3572 15.9244 53.3146 13.0671C52.6097 11.1384 51.3982 9.70321 49.2966 9.21292C46.6299 8.58626 45.9576 8.22584 43.7911 6.63484C42.9173 5.99519 41.9721 5.36528 40.9587 5.01785C34.6801 2.86187 28.775 3.69634 23.5617 7.81348C19.6705 10.8883 18.4622 15.3562 18.0984 20.0902C18.001 21.3728 18.0822 22.6716 18.0822 23.8112C20.6124 21.7397 23.0355 19.6649 25.5593 17.7199C27.2451 16.4212 27.8103 16.5965 28.9634 18.3369C32.1953 23.2203 36.7264 24.5288 42.141 22.204C43.2096 21.7462 44.3465 21.3695 45.4866 21.1812C48.5333 20.6747 51.2455 21.4864 53.6491 23.7755L53.6524 23.7788ZM41.9754 101.303C41.8714 100.839 41.7935 100.456 41.6993 100.076C40.1272 93.8026 38.6038 87.5133 36.9538 81.2596C36.2392 78.5517 36.6809 76.1587 38.1848 73.8696C39.0391 72.5675 39.8478 71.2363 40.7118 69.8596C39.0748 68.8628 37.5676 67.9179 36.028 67.0315C35.7779 66.8886 35.2972 66.8724 35.0569 67.0185C33.4036 68.0218 31.7827 69.0803 30.071 70.1745C30.9415 71.5999 31.76 72.9442 32.5785 74.2819C33.868 76.3892 34.2123 78.6199 33.6082 81.0356C32.0231 87.3899 30.4802 93.7572 28.9244 100.118C28.8334 100.485 28.7815 100.862 28.7003 101.303H41.9689H41.9754ZM45.9056 51.0857C39.208 54.4982 32.7117 54.5404 26.0758 51.2772C26.0758 53.1962 26.0498 54.9658 26.1018 56.7289C26.1115 57.0049 26.4266 57.362 26.6929 57.5244C29.4019 59.1446 32.1173 60.7551 34.862 62.3071C35.203 62.4987 35.8234 62.5279 36.158 62.3461C39.1885 60.7226 42.1897 59.044 45.1813 57.349C45.4866 57.177 45.8569 56.7841 45.8666 56.4821C45.9316 54.7515 45.8991 53.0176 45.8991 51.0857H45.9056ZM46.2434 69.2362C48.1241 66.4145 49.9235 63.7163 51.7814 60.9272C50.5114 60.622 49.4623 60.2746 48.3904 60.1479C47.7343 60.07 46.9612 60.1739 46.3733 60.4661C44.5674 61.3688 42.8231 62.3981 41.0594 63.3819C40.3448 63.7813 39.6367 64.1969 38.7727 64.6904C41.3517 66.2587 43.7261 67.7036 46.2466 69.2362H46.2434ZM32.3901 64.6709C30.0125 63.2747 27.7356 62.1156 25.6665 60.6674C23.5715 59.1998 21.8207 60.583 19.7452 60.7648C21.7006 63.6936 23.513 66.4081 25.3774 69.2004C27.7031 67.6971 29.9313 66.2587 32.3901 64.6709Z" fill="#115056"/>
<path d="M77.2859 37.3739C77.1689 37.4713 77.039 37.5655 76.9253 37.6759C76.3374 38.2311 75.756 38.7928 75.0706 39.4455C76.3114 41.1014 75.3272 42.1794 74.1774 43.3029C71.4815 45.9296 68.844 48.6214 66.1773 51.2774C64.7871 52.6638 63.8549 52.6606 62.4549 51.2774C61.6754 50.5111 60.8861 49.7546 60.139 48.9558C59.1548 47.907 59.1321 46.8843 60.1488 45.8517C63.163 42.7963 66.1805 39.7409 69.2792 36.7732C69.7372 36.3349 70.7441 36.0719 71.3353 36.257C72.1506 36.5102 72.5728 36.3609 73.073 35.7894C73.4693 35.3348 73.9598 34.9647 74.4567 34.5101C71.8323 30.7014 70.9293 26.6362 72.0986 22.2236C72.9951 18.8435 74.931 16.1551 77.8121 14.1842C83.5677 10.2488 91.3405 11.1028 96.112 16.1615C100.942 21.282 101.302 29.0487 97.015 34.6367C93.2569 39.5331 85.1268 42.6372 77.2859 37.3707V37.3739ZM95.9366 25.8635C95.9106 20.2657 91.3925 15.7752 85.7894 15.7817C80.1442 15.7849 75.678 20.3436 75.6423 26.0096C75.6066 31.2664 80.5372 36.1823 85.8934 36.0654C91.4964 35.942 95.9658 31.4774 95.9398 25.8667L95.9366 25.8635Z" fill="#115056"/>
<path d="M86.2671 17.4312C86.9265 17.587 87.9951 17.7818 89.028 18.1C89.814 18.3435 90.2493 18.967 89.9765 19.7982C89.6906 20.6716 89.0118 20.9021 88.1283 20.6749C84.4059 19.7105 82.5253 20.4736 80.5309 23.7562C80.0697 24.516 79.4525 24.9154 78.621 24.4608C77.809 24.016 77.7245 23.2854 78.124 22.4769C79.7059 19.2852 82.3044 17.6682 86.2671 17.4312Z" fill="#115056"/>
<path d="M57.9918 87.075C57.5598 86.7568 57.1797 86.4743 56.7965 86.195C56.3645 85.8768 55.9292 85.5651 55.4972 85.2437C55.1107 84.958 55.0912 84.8021 55.3738 84.419C55.7181 83.9579 56.0526 83.4903 56.3969 83.0325C56.5593 82.815 56.5561 82.6364 56.371 82.4221C55.5232 81.4545 54.6917 80.4772 53.8537 79.5031C53.7692 79.4057 53.6912 79.305 53.6133 79.2076C53.6295 79.1914 53.6458 79.1719 53.662 79.1556C53.727 79.1881 53.7919 79.2173 53.8537 79.2498C55.5882 80.1297 57.3226 81.0097 59.0539 81.8896C59.4112 82.0714 59.4534 82.2435 59.2163 82.5649C58.8428 83.065 58.4627 83.5585 58.0892 84.0553C57.8131 84.4222 57.8326 84.5846 58.1834 84.8768C59.9276 86.3184 61.6686 87.7633 63.4161 89.2017C63.5168 89.2861 63.6403 89.3414 63.7539 89.4095C63.7247 89.455 63.6987 89.4972 63.6695 89.5427C63.5753 89.5589 63.4778 89.5881 63.3837 89.5881C60.3921 89.5881 57.3974 89.6271 54.4058 89.5751C52.9214 89.5492 51.6904 88.8218 50.6575 87.7828C49.5564 86.6724 48.975 85.2989 48.9295 83.7566C48.8645 81.5649 48.9035 79.3667 48.9003 77.1718C48.9003 76.4347 48.9068 75.6944 48.9003 74.9573C48.9003 74.7268 48.9782 74.6261 49.2153 74.6261C51.9892 74.6034 54.7664 74.4281 57.5305 74.5839C60.7397 74.7625 63.2115 76.7432 63.7702 80.0778C63.8449 80.5291 63.8709 80.9934 63.8741 81.4512C63.8839 83.1949 63.8741 84.9417 63.8741 86.6853C63.8741 86.76 63.8384 86.8769 63.7832 86.8996C63.728 86.9256 63.6143 86.8802 63.559 86.8315C62.9516 86.3152 62.3475 85.7989 61.7563 85.2632C61.6654 85.182 61.6199 85.0164 61.6134 84.8865C61.5647 83.6494 61.5355 82.4123 61.4867 81.1785C61.3958 78.9706 60.0576 77.4315 57.8911 77.0256C57.7319 76.9964 57.5663 76.9899 57.4039 76.9867C55.5329 76.9867 53.662 76.9867 51.7911 76.9867C51.3039 76.9867 51.2746 77.0192 51.2746 77.5094C51.2746 79.2368 51.2357 80.9642 51.2844 82.6883C51.3299 84.3475 52.2134 86.1139 53.9901 86.786C54.4481 86.9581 54.9515 87.0555 55.442 87.0847C56.2248 87.1334 57.0141 87.0977 57.8001 87.0977C57.8424 87.0977 57.8878 87.0912 57.995 87.0782L57.9918 87.075Z" fill="#115056"/>
</svg>
