<svg width="100" height="107" viewBox="0 0 100 107" fill="none" xmlns="http://www.w3.org/2000/svg">
<path d="M18.0612 10.1046C18.163 10.1044 18.163 10.1044 18.2669 10.1042C18.4933 10.1038 18.7197 10.1039 18.9461 10.104C19.1105 10.1039 19.2749 10.1037 19.4393 10.1034C19.843 10.1029 20.2467 10.1028 20.6504 10.1027C21.1343 10.1027 21.6181 10.1022 22.1019 10.1018C23.2708 10.1007 24.4397 10.1003 25.6086 10.1C26.1616 10.0998 26.7146 10.0996 27.2677 10.0993C29.1613 10.0985 31.055 10.0977 32.9486 10.0975C33.0674 10.0975 33.1862 10.0975 33.3049 10.0975C33.424 10.0974 33.543 10.0974 33.6621 10.0974C33.9009 10.0974 34.1397 10.0973 34.3786 10.0973C34.4378 10.0973 34.497 10.0973 34.558 10.0973C36.4793 10.0971 38.4006 10.096 40.3219 10.0944C42.354 10.0928 44.3861 10.0918 46.4182 10.0918C46.6412 10.0917 46.8642 10.0917 47.0872 10.0917C47.1421 10.0917 47.197 10.0917 47.2536 10.0917C48.1373 10.0916 49.021 10.0909 49.9047 10.0899C50.7926 10.0889 51.6805 10.0887 52.5683 10.0893C53.0958 10.0896 53.6232 10.0893 54.1507 10.0882C54.5445 10.0875 54.9382 10.0878 55.332 10.0886C55.4914 10.0887 55.6507 10.0885 55.81 10.0879C56.0266 10.0872 56.243 10.0877 56.4596 10.0885C56.5215 10.088 56.5834 10.0874 56.6471 10.0869C57.314 10.0923 57.8825 10.2529 58.3725 10.7187C58.8291 11.2095 59.024 11.7416 59.0006 12.4115C58.9244 13.0453 58.649 13.5277 58.1707 13.9467C57.636 14.3115 57.0371 14.3703 56.4073 14.367C56.3057 14.3673 56.3057 14.3673 56.2019 14.3676C55.9746 14.3681 55.7472 14.3676 55.5199 14.3671C55.3553 14.3673 55.1908 14.3675 55.0262 14.3677C54.6683 14.3681 54.3104 14.3682 53.9524 14.3678C53.4202 14.3673 52.8879 14.3676 52.3557 14.368C51.46 14.3687 50.5644 14.3688 49.6688 14.3686C48.3888 14.3684 47.1089 14.3693 45.829 14.3704C45.3152 14.3709 44.8014 14.3713 44.2876 14.3717C44.202 14.3718 44.202 14.3718 44.1147 14.3719C42.7561 14.3729 41.3976 14.3737 40.039 14.3743C39.9796 14.3743 39.9202 14.3743 39.8589 14.3744C38.4724 14.375 37.0859 14.3755 35.6994 14.3756C35.61 14.3756 35.61 14.3756 35.5187 14.3757C35.2181 14.3757 34.9175 14.3757 34.6169 14.3758C34.5574 14.3758 34.498 14.3758 34.4368 14.3758C34.3169 14.3758 34.197 14.3758 34.0771 14.3758C32.0949 14.3761 30.1128 14.3772 28.1307 14.3793C27.8507 14.3796 27.5707 14.3799 27.2906 14.3802C27.2355 14.3803 27.1804 14.3803 27.1236 14.3804C26.2374 14.3812 25.3512 14.3811 24.465 14.3806C23.574 14.38 22.683 14.3805 21.792 14.3819C21.263 14.3827 20.7339 14.3827 20.2049 14.3817C19.8095 14.381 19.414 14.3817 19.0185 14.383C18.8589 14.3833 18.6992 14.3831 18.5396 14.3825C17.0873 14.3768 15.9208 14.575 14.8439 15.6334C14.169 16.3547 13.7745 17.2933 13.7774 18.2807C13.7772 18.3559 13.7772 18.3559 13.7771 18.4326C13.7767 18.6015 13.7769 18.7704 13.7771 18.9393C13.7769 19.0618 13.7768 19.1842 13.7766 19.3067C13.7761 19.6452 13.7761 19.9837 13.7762 20.3223C13.7762 20.6898 13.7758 21.0574 13.7754 21.4249C13.7748 22.1548 13.7745 22.8846 13.7744 23.6145C13.7742 24.4884 13.7736 25.3623 13.773 26.2361C13.7716 28.3485 13.7709 30.4609 13.7703 32.5733C13.7701 33.2728 13.7699 33.9724 13.7696 34.6719C13.7696 34.7459 13.7696 34.7459 13.7696 34.8214C13.7695 35.0211 13.7695 35.2207 13.7694 35.4203C13.7682 38.8353 13.7671 42.2502 13.7666 45.6652C13.7666 45.9334 13.7666 46.2017 13.7665 46.4699C13.7665 46.5497 13.7665 46.5497 13.7665 46.6312C13.7664 47.1703 13.7663 47.7094 13.7663 48.2486C13.7662 48.3567 13.7662 48.4648 13.7662 48.5729C13.7657 52.0444 13.7642 55.5159 13.762 58.9874C13.7604 61.4817 13.759 63.9759 13.7585 66.4702C13.7585 66.5215 13.7585 66.5728 13.7585 66.6256C13.7583 67.7518 13.7581 68.878 13.758 70.0041C13.758 70.4573 13.758 70.9104 13.7579 71.3635C13.7579 71.4131 13.7579 71.4627 13.7579 71.5138C13.7578 73.1111 13.7568 74.7083 13.7555 76.3056C13.7541 77.9146 13.7535 79.5236 13.7542 81.1326C13.7546 82.1309 13.7543 83.1292 13.7527 84.1275C13.7518 84.7642 13.7519 85.401 13.7527 86.0378C13.7532 86.4007 13.7533 86.7636 13.7521 87.1265C13.7511 87.4569 13.7513 87.7873 13.7525 88.1177C13.7527 88.2363 13.7524 88.3548 13.7517 88.4734C13.7439 89.7899 14.0561 90.8773 15.0021 91.8397C15.6872 92.4808 16.6097 92.9055 17.5547 92.9063C17.637 92.9066 17.7192 92.9068 17.8039 92.9071C17.8951 92.907 17.9863 92.9069 18.0775 92.9068C18.1749 92.907 18.2722 92.9071 18.3695 92.9074C18.6382 92.9078 18.9068 92.9079 19.1755 92.9079C19.4673 92.908 19.7592 92.9084 20.051 92.9088C20.6304 92.9096 21.2097 92.91 21.7891 92.9102C22.4829 92.9106 23.1766 92.9113 23.8704 92.912C25.5475 92.9137 27.2245 92.9148 28.9016 92.9156C29.457 92.9159 30.0125 92.9162 30.5679 92.9165C33.5209 92.9182 36.4739 92.9197 39.4268 92.9205C40.1111 92.9207 40.7954 92.9209 41.4796 92.9211C41.5646 92.9212 41.6496 92.9212 41.7372 92.9212C44.4934 92.922 47.2496 92.9241 50.0057 92.9269C52.8389 92.9298 55.6721 92.9316 58.5053 92.9319C58.9055 92.932 59.3056 92.9321 59.7058 92.9321C59.7846 92.9321 59.8633 92.9322 59.9445 92.9322C61.2119 92.9324 62.4794 92.9338 63.7468 92.9355C65.0209 92.9373 66.295 92.9378 67.5691 92.9371C68.326 92.9367 69.0828 92.9372 69.8397 92.9391C70.3455 92.9402 70.8514 92.9402 71.3572 92.9391C71.6453 92.9386 71.9333 92.9385 72.2214 92.94C72.484 92.9413 72.7466 92.941 73.0092 92.9396C73.1469 92.9392 73.2847 92.9404 73.4224 92.9418C74.3744 92.933 75.228 92.6685 75.9919 92.0906C76.0408 92.0539 76.0896 92.0173 76.14 91.9795C76.9565 91.3172 77.3685 90.3494 77.5386 89.3334C77.5651 88.9788 77.5656 88.6259 77.5636 88.2707C77.5638 88.1659 77.564 88.0611 77.5644 87.9563C77.5651 87.6706 77.5645 87.385 77.5638 87.0993C77.5632 86.7904 77.5637 86.4814 77.5642 86.1724C77.5648 85.6377 77.5647 85.103 77.5642 84.5683C77.5634 83.7944 77.564 83.0205 77.565 82.2466C77.5666 80.9897 77.5675 79.7329 77.5678 78.4761C77.5678 78.3634 77.5678 78.3634 77.5678 78.2484C77.568 77.4099 77.568 76.5714 77.568 75.7329C77.5679 75.4286 77.5679 75.1244 77.5679 74.8201C77.5679 74.745 77.5679 74.6699 77.5679 74.5926C77.5679 73.3401 77.5689 72.0876 77.5706 70.8352C77.5717 70.0633 77.5719 69.2914 77.5708 68.5196C77.5702 67.9908 77.5705 67.462 77.5716 66.9332C77.5722 66.6283 77.5723 66.3234 77.5713 66.0184C77.5704 65.739 77.5707 65.4596 77.5719 65.1802C77.5722 65.0794 77.572 64.9787 77.5713 64.8779C77.5661 64.0954 77.6507 63.4066 78.2111 62.8184C78.7388 62.3639 79.2386 62.2736 79.9186 62.2807C80.4515 62.3211 80.8657 62.5368 81.2536 62.8996C81.607 63.3159 81.7835 63.7989 81.7843 64.3385C81.7845 64.382 81.7847 64.4256 81.7848 64.4704C81.7853 64.6174 81.7852 64.7643 81.7852 64.9112C81.7854 65.0172 81.7857 65.1232 81.786 65.2292C81.7866 65.5214 81.7869 65.8135 81.7871 66.1057C81.7873 66.4205 81.788 66.7353 81.7886 67.0501C81.7899 67.8112 81.7906 68.5722 81.7912 69.3333C81.7915 69.6919 81.7918 70.0505 81.7922 70.4091C81.7933 71.6018 81.7943 72.7945 81.7948 73.9873C81.7949 74.2969 81.795 74.6066 81.7952 74.9163C81.7952 74.9932 81.7952 75.0702 81.7953 75.1495C81.7958 76.3942 81.7975 77.639 81.7997 78.8838C81.8019 80.1626 81.8032 81.4414 81.8034 82.7202C81.8035 83.4379 81.8041 84.1555 81.8058 84.8732C81.8073 85.4849 81.8078 86.0965 81.8072 86.7082C81.8069 87.0199 81.807 87.3315 81.8083 87.6432C81.8179 90.0434 81.8178 90.0434 81.5063 91.1491C81.4872 91.2183 81.4872 91.2183 81.4677 91.2889C81.0989 92.6117 80.3568 93.7215 79.4216 94.7133C79.377 94.763 79.3325 94.8127 79.2866 94.8639C77.9398 96.3053 75.9072 97.0645 73.9744 97.2016C73.6531 97.2109 73.3319 97.2107 73.0105 97.2102C72.9135 97.2103 72.8165 97.2104 72.7195 97.2106C72.4533 97.2109 72.1871 97.2108 71.9208 97.2106C71.6311 97.2105 71.3413 97.2108 71.0515 97.211C70.5438 97.2114 70.036 97.2115 69.5283 97.2114C68.7732 97.2113 68.0181 97.2116 67.2631 97.2119C65.836 97.2126 64.4089 97.2128 62.9818 97.2128C61.8797 97.2128 60.7776 97.213 59.6755 97.2132C59.3583 97.2132 59.0411 97.2133 58.7239 97.2134C58.645 97.2134 58.5661 97.2134 58.4849 97.2134C56.2665 97.2138 54.0482 97.2141 51.8298 97.2141C51.7461 97.2141 51.6625 97.2141 51.5763 97.2141C51.1524 97.2141 50.7284 97.214 50.3045 97.214C50.1782 97.214 50.1782 97.214 50.0494 97.214C49.8791 97.214 49.7088 97.214 49.5386 97.214C46.8897 97.214 44.2409 97.2145 41.592 97.2154C38.6161 97.2164 35.6402 97.217 32.6643 97.217C32.3469 97.2169 32.0295 97.2169 31.7122 97.2169C31.634 97.2169 31.5559 97.2169 31.4754 97.2169C30.2181 97.2169 28.9609 97.2174 27.7037 97.2179C26.4399 97.2185 25.1762 97.2186 23.9125 97.2181C23.1619 97.2179 22.4113 97.218 21.6608 97.2187C21.159 97.2191 20.6573 97.219 20.1555 97.2185C19.8699 97.2183 19.5843 97.2182 19.2987 97.2187C16.7967 97.2232 14.3996 96.9755 12.4411 95.2513C12.3869 95.206 12.3327 95.1607 12.2769 95.1139C10.6502 93.7164 9.68086 91.6862 9.49575 89.559C9.46701 89.0835 9.47275 88.6071 9.47328 88.1309C9.47316 88.0087 9.47302 87.8864 9.47286 87.7642C9.47248 87.4283 9.47253 87.0923 9.47264 86.7564C9.47269 86.3909 9.47235 86.0254 9.47206 85.6599C9.47155 84.935 9.47141 84.2101 9.47137 83.4852C9.47131 82.6169 9.47086 81.7486 9.4704 80.8803C9.46935 78.8315 9.46894 76.7828 9.46863 74.734C9.46847 73.6914 9.46822 72.6488 9.46795 71.6062C9.4671 68.2608 9.46638 64.9153 9.46615 61.5699C9.46614 61.4101 9.46613 61.2502 9.46612 61.0904C9.46609 60.7698 9.46607 60.4492 9.46605 60.1287C9.46602 59.7534 9.466 59.3781 9.46597 59.0028C9.46596 58.8954 9.46595 58.7879 9.46595 58.6805C9.46571 55.2313 9.46469 51.7821 9.46313 48.3328C9.462 45.8539 9.46096 43.375 9.46066 40.8961C9.46065 40.8451 9.46064 40.7941 9.46064 40.7415C9.4605 39.6217 9.46042 38.5018 9.4604 37.382C9.46039 36.9813 9.46038 36.5805 9.46036 36.1798C9.46036 36.0801 9.46035 35.9804 9.46035 35.8807C9.46029 34.2939 9.45962 32.707 9.45864 31.1202C9.45763 29.4768 9.45735 27.8333 9.4579 26.1899C9.4582 25.2429 9.45794 24.2959 9.45688 23.3489C9.45622 22.7159 9.4563 22.0829 9.45698 21.4499C9.45734 21.0895 9.45739 20.7291 9.45654 20.3688C9.45577 20.0401 9.45595 19.7115 9.45685 19.3828C9.45701 19.2654 9.45685 19.1481 9.45629 19.0307C9.45145 17.9437 9.522 16.8097 9.89402 15.7792C9.9141 15.7216 9.93418 15.664 9.95486 15.6047C10.6989 13.5508 12.2229 11.8623 14.1933 10.922C15.4403 10.3491 16.6922 10.102 18.0612 10.1046Z" fill="#115056"/>
<path d="M60.0699 21.3171C60.1753 21.3158 60.1753 21.3158 60.2828 21.3145C60.3583 21.3147 60.4338 21.3149 60.5117 21.3151C60.5896 21.3147 60.6675 21.3144 60.7478 21.314C60.9126 21.3136 61.0774 21.3137 61.2422 21.3142C61.4943 21.3148 61.7463 21.3129 61.9984 21.3108C62.1585 21.3106 62.3186 21.3107 62.4787 21.3109C62.5541 21.3101 62.6295 21.3094 62.7071 21.3086C63.23 21.3133 63.23 21.3133 63.4959 21.4724C63.7145 21.7245 63.6925 21.8973 63.6895 22.2269C63.6888 22.3131 63.6882 22.3992 63.6876 22.488C63.6868 22.5544 63.6861 22.6208 63.6853 22.6892C63.7406 22.6892 63.796 22.6891 63.853 22.689C67.1326 22.6845 70.4121 22.681 73.6917 22.6789C74.0852 22.6787 74.4788 22.6784 74.8723 22.6782C74.9506 22.6781 75.029 22.678 75.1097 22.678C76.3793 22.6771 77.6489 22.6755 78.9185 22.6737C80.2206 22.6718 81.5228 22.6707 82.8249 22.6703C83.6288 22.67 84.4327 22.6691 85.2365 22.6675C85.7873 22.6664 86.3381 22.6661 86.8889 22.6663C87.207 22.6665 87.5251 22.6663 87.8431 22.6652C88.1341 22.6642 88.4251 22.6642 88.7161 22.6648C88.8216 22.6649 88.927 22.6647 89.0325 22.664C89.1755 22.6632 89.3185 22.6637 89.4616 22.6644C89.5411 22.6643 89.6207 22.6643 89.7026 22.6642C89.9968 22.6993 90.1732 22.8064 90.369 23.0254C90.4946 23.3362 90.4793 23.6369 90.4773 23.9691C90.4775 24.0409 90.4777 24.1128 90.4779 24.1869C90.4781 24.3386 90.4777 24.4903 90.4769 24.642C90.4758 24.874 90.4768 25.106 90.4781 25.338C90.478 25.4855 90.4777 25.6331 90.4773 25.7806C90.4778 25.8499 90.4782 25.9192 90.4786 25.9906C90.4725 26.6077 90.4725 26.6077 90.2488 26.8587C90.0139 27.0119 89.8125 27.0099 89.5361 27.0098C89.4913 27.0099 89.4466 27.0101 89.4006 27.0102C89.2501 27.0106 89.0997 27.01 88.9492 27.0094C88.8405 27.0094 88.7318 27.0096 88.6231 27.0097C88.3239 27.01 88.0248 27.0095 87.7256 27.0088C87.4031 27.0082 87.0807 27.0084 86.7582 27.0085C86.1994 27.0086 85.6406 27.0082 85.0817 27.0074C84.2737 27.0063 83.4657 27.006 82.6578 27.0058C81.3469 27.0055 80.0361 27.0046 78.7253 27.0033C77.4518 27.0021 76.1782 27.0012 74.9047 27.0006C74.8262 27.0006 74.7478 27.0005 74.6669 27.0005C74.2733 27.0003 73.8796 27.0001 73.486 27C70.2191 26.9986 66.9522 26.9962 63.6853 26.9932C63.6854 27.0521 63.6855 27.1111 63.6856 27.1718C63.6916 30.6619 63.6962 34.152 63.699 37.6422C63.6993 38.061 63.6997 38.4798 63.7 38.8985C63.7001 38.9819 63.7002 39.0653 63.7002 39.1512C63.7014 40.5023 63.7035 41.8535 63.706 43.2046C63.7085 44.5903 63.71 45.9761 63.7106 47.3618C63.7109 48.2173 63.7121 49.0728 63.7143 49.9283C63.7157 50.5145 63.7161 51.1006 63.7158 51.6867C63.7156 52.0252 63.7159 52.3637 63.7173 52.7022C63.7186 53.0119 63.7187 53.3215 63.7178 53.6312C63.7177 53.7435 63.718 53.8557 63.7188 53.9679C63.7199 54.1202 63.7193 54.2723 63.7184 54.4245C63.7185 54.5092 63.7186 54.5938 63.7187 54.681C63.6792 54.9417 63.5998 55.0523 63.4163 55.238C63.2471 55.3226 63.1278 55.3156 62.9385 55.3182C62.831 55.3198 62.831 55.3198 62.7215 55.3215C62.3938 55.3245 62.0662 55.3272 61.7385 55.3288C61.5656 55.3299 61.3927 55.3317 61.2198 55.3343C60.9708 55.338 60.7218 55.3395 60.4728 55.3404C60.3955 55.342 60.3182 55.3435 60.2386 55.3451C59.7027 55.3436 59.7027 55.3436 59.435 55.1475C59.2408 54.8608 59.2384 54.6481 59.2385 54.3087C59.2384 54.2615 59.2384 54.2144 59.2383 54.1659C59.2381 54.0068 59.2384 53.8477 59.2387 53.6886C59.2387 53.5738 59.2386 53.4591 59.2385 53.3444C59.2384 53.0281 59.2386 52.7119 59.239 52.3957C59.2393 52.0551 59.2392 51.7144 59.2391 51.3738C59.2391 50.7833 59.2393 50.1928 59.2397 49.6023C59.2402 48.7485 59.2404 47.8947 59.2405 47.0409C59.2406 45.6559 59.2411 44.2708 59.2417 42.8857C59.2423 41.5399 59.2428 40.1942 59.2431 38.8485C59.2431 38.7656 59.2431 38.6827 59.2431 38.5972C59.2432 38.1813 59.2433 37.7654 59.2434 37.3495C59.2441 33.8974 59.2453 30.4453 59.2468 26.9932C59.1761 26.9953 59.1761 26.9953 59.104 26.9975C58.8896 27.0031 58.6752 27.0066 58.4608 27.01C58.3866 27.0123 58.3125 27.0145 58.2361 27.0168C57.6841 27.0235 57.6841 27.0235 57.4184 26.8665C57.1132 26.51 57.1414 26.1413 57.1418 25.6926C57.1415 25.6254 57.1412 25.5581 57.1409 25.4889C57.1406 25.3469 57.1405 25.205 57.1408 25.0631C57.141 24.8464 57.1395 24.6298 57.1378 24.4132C57.1376 24.275 57.1376 24.1369 57.1376 23.9988C57.137 23.9342 57.1364 23.8697 57.1357 23.8032C57.1382 23.4517 57.154 23.1879 57.3638 22.891C57.5999 22.7038 57.7735 22.6645 58.0712 22.6695C58.1399 22.6702 58.2086 22.6708 58.2794 22.6715C58.3858 22.674 58.3858 22.674 58.4944 22.6766C58.6028 22.678 58.6028 22.678 58.7134 22.6794C58.8912 22.6818 59.069 22.6851 59.2468 22.6892C59.2433 22.6077 59.2433 22.6077 59.2397 22.5245C59.2379 22.4527 59.2361 22.3808 59.2342 22.3068C59.2307 22.2003 59.2307 22.2003 59.2271 22.0916C59.2545 21.8006 59.3532 21.6326 59.5683 21.4372C59.7495 21.3243 59.8575 21.3183 60.0699 21.3171Z" fill="#115056"/>
<path d="M23.296 80.5656C23.4179 80.5652 23.4179 80.5652 23.5423 80.5648C23.7668 80.5643 23.9913 80.5646 24.2159 80.5653C24.4606 80.5659 24.7053 80.5653 24.95 80.5649C25.3784 80.5642 25.8069 80.5644 26.2354 80.565C26.8726 80.5659 27.5098 80.5657 28.147 80.5652C29.285 80.5644 30.423 80.5647 31.5611 80.5655C32.5569 80.5662 33.5527 80.5666 34.5485 80.5665C34.6476 80.5665 34.6476 80.5665 34.7487 80.5664C35.0168 80.5664 35.285 80.5664 35.5531 80.5664C38.0683 80.5661 40.5835 80.567 43.0987 80.5684C45.3336 80.5696 47.5684 80.57 49.8033 80.5696C49.9468 80.5696 50.0903 80.5696 50.2338 80.5695C50.3403 80.5695 50.3403 80.5695 50.4488 80.5695C50.806 80.5694 51.1632 80.5694 51.5203 80.5693C51.5908 80.5693 51.6613 80.5693 51.7339 80.5693C53.6011 80.569 55.4684 80.5694 57.3357 80.57C57.5366 80.57 57.7375 80.5701 57.9384 80.5702C58.0716 80.5702 58.2049 80.5702 58.3382 80.5703C59.2675 80.5706 60.1969 80.5706 61.1262 80.5705C62.3237 80.5703 63.5212 80.5706 64.7188 80.5716C65.3521 80.5722 65.9855 80.5724 66.6189 80.572C67.0419 80.5718 67.4648 80.5721 67.8878 80.5728C68.1288 80.5732 68.3699 80.5733 68.6109 80.5729C68.8706 80.5724 69.1303 80.573 69.39 80.5737C69.4648 80.5734 69.5396 80.5731 69.6167 80.5728C70.3598 80.5766 70.9435 80.6772 71.4974 81.1992C72.0289 81.7618 72.1326 82.1967 72.1142 82.9698C72.0592 83.5493 71.7712 83.9651 71.3513 84.3568C70.7741 84.8126 70.1761 84.8475 69.4645 84.8447C69.3428 84.845 69.3428 84.845 69.2186 84.8453C68.9936 84.8458 68.7686 84.8457 68.5435 84.8453C68.2987 84.845 68.0538 84.8455 67.8089 84.8459C67.3798 84.8465 66.9506 84.8466 66.5215 84.8463C65.8833 84.846 65.2452 84.8464 64.6071 84.8469C63.401 84.8479 62.195 84.8481 60.989 84.8479C60.0577 84.8478 59.1264 84.8479 58.1952 84.8482C58.0614 84.8482 57.9277 84.8483 57.7939 84.8483C57.5924 84.8484 57.3908 84.8484 57.1893 84.8485C55.3151 84.8491 53.441 84.8493 51.5668 84.8491C51.4961 84.8491 51.4255 84.849 51.3527 84.849C50.9945 84.849 50.6363 84.8489 50.2782 84.8489C50.207 84.8489 50.1359 84.8488 50.0626 84.8488C49.9187 84.8488 49.7749 84.8488 49.631 84.8488C47.3926 84.8484 45.1541 84.8489 42.9157 84.8502C40.4012 84.8516 37.8868 84.8523 35.3723 84.852C35.1042 84.852 34.8362 84.852 34.5681 84.8519C34.5021 84.8519 34.4361 84.8519 34.3681 84.8519C33.3713 84.8518 32.3745 84.8523 31.3777 84.853C30.2442 84.8538 29.1107 84.8539 27.9771 84.8531C27.3427 84.8526 26.7083 84.8528 26.0739 84.8537C25.6501 84.8542 25.2263 84.854 24.8025 84.8533C24.561 84.8528 24.3196 84.8527 24.0782 84.8535C23.8178 84.8544 23.5575 84.8536 23.2972 84.8528C23.2226 84.8533 23.148 84.8537 23.0711 84.8543C22.2972 84.8489 21.6801 84.701 21.1159 84.1551C20.7318 83.7555 20.6106 83.2495 20.5527 82.7092C20.632 81.9691 20.8815 81.41 21.469 80.9355C22.0229 80.5885 22.6607 80.5614 23.296 80.5656Z" fill="#115056"/>
<path d="M22.4764 70.1503C22.5464 70.15 22.6164 70.1496 22.6886 70.1492C22.7652 70.1495 22.8418 70.1498 22.9208 70.15C23.0027 70.1498 23.0847 70.1496 23.1691 70.1493C23.3974 70.1488 23.6257 70.1489 23.854 70.1492C24.102 70.1494 24.3501 70.1489 24.5982 70.1484C25.0332 70.1477 25.4683 70.1475 25.9033 70.1477C26.5502 70.1479 27.1972 70.1473 27.8441 70.1466C29.0667 70.1453 30.2892 70.1449 31.5118 70.1449C32.4558 70.1448 33.3998 70.1445 34.3438 70.1441C34.6153 70.144 34.8868 70.1439 35.1584 70.1437C35.2259 70.1437 35.2934 70.1437 35.3629 70.1437C37.2621 70.1428 39.1613 70.1423 41.0605 70.1424C41.1322 70.1424 41.2038 70.1424 41.2776 70.1424C41.6407 70.1424 42.0038 70.1424 42.3669 70.1424C42.439 70.1424 42.5111 70.1424 42.5854 70.1424C42.7312 70.1424 42.8771 70.1424 43.0229 70.1424C45.292 70.1425 47.5611 70.1415 49.8302 70.1397C52.3784 70.1376 54.9266 70.1364 57.4748 70.1366C57.7464 70.1366 58.018 70.1366 58.2896 70.1366C58.3899 70.1366 58.3899 70.1366 58.4923 70.1366C59.5695 70.1366 60.6467 70.1357 61.7239 70.1346C62.8062 70.1334 63.8885 70.1333 64.9708 70.1342C65.614 70.1347 66.2573 70.1344 66.9005 70.1331C67.3301 70.1323 67.7596 70.1325 68.1891 70.1334C68.434 70.134 68.6788 70.1341 68.9236 70.133C69.1873 70.1318 69.4511 70.1327 69.7148 70.1339C69.7908 70.1332 69.8668 70.1325 69.9451 70.1318C70.604 70.1378 71.0832 70.3243 71.5672 70.7726C72.0314 71.2904 72.1158 71.8041 72.1102 72.4796C72.0649 73.0618 71.8134 73.505 71.3836 73.8908C70.8326 74.3279 70.1906 74.3665 69.5122 74.3624C69.4306 74.3627 69.349 74.363 69.2649 74.3633C69.0391 74.364 68.8133 74.3638 68.5875 74.3631C68.3415 74.3627 68.0956 74.3634 67.8497 74.364C67.4189 74.3648 66.9881 74.3649 66.5573 74.3645C65.9167 74.3639 65.2761 74.3644 64.6355 74.3652C63.4913 74.3665 62.3471 74.3666 61.2029 74.3663C60.2016 74.366 59.2003 74.366 58.199 74.3664C58.0647 74.3665 57.9304 74.3665 57.7961 74.3666C57.5937 74.3667 57.3913 74.3667 57.1889 74.3668C55.3074 74.3675 53.4258 74.3678 51.5443 74.3673C51.4734 74.3673 51.4024 74.3673 51.3293 74.3673C50.7533 74.3671 50.1773 74.3669 49.6013 74.3667C47.3543 74.3661 45.1072 74.3666 42.8602 74.3682C40.3357 74.3699 37.8113 74.3708 35.2868 74.3703C35.0177 74.3703 34.7486 74.3702 34.4794 74.3702C34.4132 74.3702 34.3469 74.3702 34.2786 74.3701C33.278 74.37 32.2773 74.3705 31.2767 74.3714C30.1388 74.3724 29.001 74.3725 27.8632 74.3713C27.2264 74.3706 26.5896 74.3707 25.9528 74.3719C25.5274 74.3726 25.102 74.3723 24.6766 74.3713C24.4342 74.3707 24.1919 74.3705 23.9495 74.3715C23.6882 74.3726 23.427 74.3717 23.1657 74.3705C23.0908 74.3711 23.0159 74.3718 22.9387 74.3724C22.2244 74.3658 21.6328 74.1824 21.1125 73.6835C20.7313 73.2358 20.5529 72.7198 20.564 72.1333C20.6147 71.596 20.826 71.1091 21.1834 70.7053C21.5689 70.3878 21.9677 70.1507 22.4764 70.1503Z" fill="#115056"/>
<path d="M22.4621 60.2645C22.5074 60.2642 22.5527 60.264 22.5994 60.2638C22.7506 60.2631 22.9018 60.2635 23.053 60.2638C23.1628 60.2636 23.2725 60.2632 23.3822 60.2629C23.6833 60.2621 23.9845 60.2621 24.2856 60.2622C24.6106 60.2623 24.9355 60.2615 25.2604 60.2609C25.8969 60.2598 26.5334 60.2594 27.1698 60.2593C27.6872 60.2593 28.2047 60.259 28.7221 60.2586C30.1892 60.2574 31.6564 60.2567 33.1235 60.2568C33.2026 60.2569 33.2817 60.2569 33.3632 60.2569C33.4819 60.2569 33.4819 60.2569 33.6031 60.2569C34.8863 60.2569 36.1695 60.2556 37.4527 60.2538C38.7706 60.2518 40.0884 60.2509 41.4062 60.251C42.1459 60.2511 42.8857 60.2507 43.6254 60.2492C44.2553 60.248 44.8852 60.2477 45.515 60.2486C45.8363 60.2491 46.1575 60.2491 46.4788 60.2479C46.7731 60.2469 47.0675 60.247 47.3619 60.2482C47.4681 60.2484 47.5743 60.2482 47.6805 60.2474C48.4229 60.2425 49.0889 60.2808 49.6594 60.803C50.1575 61.3491 50.2672 61.9105 50.2536 62.6295C50.2283 63.1752 50.0055 63.602 49.6339 63.9968C49.138 64.4202 48.5989 64.5268 47.9619 64.5272C47.9173 64.5273 47.8727 64.5274 47.8268 64.5275C47.6777 64.5278 47.5285 64.5277 47.3793 64.5275C47.2712 64.5276 47.1631 64.5278 47.055 64.528C46.758 64.5284 46.4611 64.5284 46.1641 64.5283C45.8438 64.5283 45.5235 64.5286 45.2032 64.529C44.5757 64.5295 43.9483 64.5297 43.3208 64.5297C42.8107 64.5298 42.3007 64.5299 41.7907 64.5301C40.3448 64.5307 38.8989 64.531 37.453 64.531C37.375 64.531 37.297 64.531 37.2167 64.531C37.0997 64.531 37.0997 64.531 36.9802 64.531C35.7152 64.5309 34.4501 64.5316 33.1851 64.5325C31.8863 64.5335 30.5875 64.534 29.2887 64.5339C28.5594 64.5339 27.8302 64.5341 27.101 64.5348C26.4801 64.5354 25.8593 64.5355 25.2384 64.5351C24.9217 64.5349 24.6049 64.5349 24.2882 64.5354C23.9981 64.536 23.708 64.5359 23.4179 64.5353C23.3131 64.5352 23.2083 64.5353 23.1035 64.5357C22.2832 64.5384 21.5699 64.5194 20.9351 63.9448C20.5132 63.4964 20.3612 63.0096 20.3428 62.4001C20.3653 61.6775 20.5908 61.1808 21.1161 60.6853C21.5293 60.3582 21.9413 60.2651 22.4621 60.2645Z" fill="#115056"/>
<path d="M22.5839 50.4292C22.6783 50.4289 22.7727 50.4285 22.8671 50.4279C23.1255 50.4268 23.3839 50.4274 23.6424 50.4282C23.9215 50.4288 24.2006 50.4279 24.4796 50.4271C25.026 50.4259 25.5724 50.4262 26.1187 50.427C26.5628 50.4276 27.0069 50.4277 27.451 50.4274C27.5142 50.4273 27.5774 50.4273 27.6426 50.4272C27.771 50.4272 27.8995 50.4271 28.0279 50.427C29.2321 50.4262 30.4364 50.4271 31.6406 50.4285C32.6736 50.4297 33.7066 50.4295 34.7397 50.4283C35.9396 50.4269 37.1395 50.4263 38.3395 50.4271C38.4674 50.4272 38.5954 50.4273 38.7234 50.4274C38.8178 50.4274 38.8178 50.4274 38.9142 50.4275C39.3577 50.4277 39.8012 50.4273 40.2447 50.4267C40.7852 50.4259 41.3258 50.4262 41.8663 50.4276C42.1421 50.4283 42.4178 50.4286 42.6935 50.4277C42.9461 50.4269 43.1986 50.4273 43.4511 50.4287C43.5855 50.4292 43.7199 50.4283 43.8542 50.4274C44.4048 50.4322 44.7664 50.4972 45.2036 50.8503C45.7155 51.4369 45.8575 52.0594 45.8226 52.8258C45.7634 53.4368 45.5501 53.8501 45.1445 54.305C44.6707 54.6925 44.1865 54.6616 43.5986 54.6589C43.5042 54.6592 43.4099 54.6596 43.3156 54.66C43.057 54.661 42.7984 54.6607 42.5398 54.6602C42.2606 54.6599 41.9815 54.6607 41.7024 54.6614C41.1558 54.6626 40.6092 54.6626 40.0626 54.6623C39.6183 54.662 39.1741 54.6621 38.7298 54.6624C38.6665 54.6625 38.6033 54.6625 38.5381 54.6626C38.4097 54.6627 38.2812 54.6628 38.1527 54.6629C36.9481 54.6638 35.7434 54.6635 34.5387 54.6627C33.4367 54.662 32.3347 54.6629 31.2327 54.6645C30.101 54.6661 28.9693 54.6668 27.8376 54.6663C27.2023 54.6661 26.567 54.6663 25.9317 54.6674C25.3909 54.6684 24.8501 54.6685 24.3094 54.6673C24.0335 54.6667 23.7576 54.6666 23.4817 54.6676C23.2291 54.6685 22.9764 54.6682 22.7237 54.6669C22.5893 54.6666 22.4549 54.6675 22.3205 54.6685C21.7696 54.664 21.4081 54.5991 20.9707 54.2459C20.4589 53.6593 20.3172 53.037 20.3515 52.2707C20.4073 51.7009 20.5959 51.2799 20.9707 50.8503C21.4857 50.4344 21.9426 50.4248 22.5839 50.4292Z" fill="#115056"/>
<path d="M67.4167 28.7324C67.5323 28.7319 67.5323 28.7319 67.6503 28.7313C67.7354 28.7312 67.8205 28.7311 67.9081 28.731C67.9991 28.7307 68.0901 28.7304 68.1812 28.73C68.4318 28.7291 68.6824 28.7286 68.9331 28.7281C69.1479 28.7277 69.3627 28.727 69.5776 28.7263C70.2855 28.7241 70.9934 28.7227 71.7013 28.7214C71.8856 28.7211 72.0699 28.7208 72.2542 28.7204C73.3986 28.7183 74.543 28.7165 75.6875 28.7154C75.9526 28.7152 76.2177 28.7149 76.4828 28.7146C76.5487 28.7145 76.6146 28.7145 76.6825 28.7144C77.7499 28.7133 78.8173 28.7105 79.8847 28.7071C80.9805 28.7036 82.0762 28.7016 83.172 28.7012C83.7872 28.7008 84.4025 28.6998 85.0178 28.6971C85.5418 28.6948 86.0658 28.6939 86.5898 28.6947C86.8571 28.6951 87.1244 28.6949 87.3917 28.6928C87.6367 28.691 87.8815 28.691 88.1265 28.6925C88.2566 28.6929 88.3867 28.6912 88.5168 28.6895C89.0429 28.6951 89.3843 28.787 89.7783 29.1453C90.168 29.615 90.2018 30.0983 90.1994 30.6828C90.1996 30.7484 90.1999 30.8141 90.2001 30.8817C90.2008 31.1011 90.2006 31.3205 90.2003 31.5399C90.2006 31.6975 90.2009 31.855 90.2013 32.0125C90.2022 32.4401 90.2023 32.8676 90.2021 33.2951C90.202 33.6973 90.2024 34.0994 90.2028 34.5016C90.2035 35.3467 90.2034 36.1918 90.203 37.0369C90.2026 37.8095 90.2034 38.5821 90.2047 39.3547C90.206 40.1487 90.2065 40.9427 90.2063 41.7367C90.2062 42.1822 90.2063 42.6277 90.2073 43.0731C90.2081 43.492 90.208 43.9109 90.2071 44.3298C90.2069 44.4835 90.2071 44.6371 90.2077 44.7908C90.2084 45.0007 90.2078 45.2106 90.207 45.4205C90.2075 45.4812 90.208 45.5418 90.2085 45.6043C90.2038 46.1524 90.058 46.5975 89.7111 47.0337C89.3811 47.2829 89.1477 47.3782 88.738 47.3792C88.6611 47.3795 88.5842 47.3799 88.505 47.3802C88.4201 47.3802 88.3352 47.3803 88.2478 47.3803C88.157 47.3806 88.0662 47.3809 87.9755 47.3812C87.7255 47.382 87.4755 47.3824 87.2255 47.3827C86.956 47.3831 86.6866 47.3839 86.4172 47.3846C85.7663 47.3862 85.1154 47.3872 84.4644 47.3881C84.2806 47.3883 84.0968 47.3886 83.913 47.3889C82.7717 47.3906 81.6304 47.3921 80.4892 47.3929C80.2248 47.3931 79.9604 47.3933 79.696 47.3935C79.6303 47.3936 79.5646 47.3936 79.4969 47.3937C78.4323 47.3945 77.3677 47.3967 76.3031 47.3995C75.2103 47.4024 74.1175 47.404 73.0247 47.4043C72.411 47.4046 71.7974 47.4054 71.1837 47.4076C70.6611 47.4095 70.1386 47.4102 69.616 47.4094C69.3494 47.4091 69.0828 47.4093 68.8161 47.4109C68.5719 47.4125 68.3277 47.4124 68.0835 47.4111C67.9536 47.4109 67.8237 47.4122 67.6938 47.4137C67.1486 47.4087 66.8015 47.3183 66.4082 46.9343C66.0402 46.5229 66.0195 46.158 66.0213 45.6317C66.021 45.5645 66.0207 45.4973 66.0203 45.4281C66.0195 45.2027 66.0196 44.9773 66.0197 44.7519C66.0193 44.5904 66.0189 44.4289 66.0183 44.2674C66.0173 43.874 66.0169 43.4807 66.0168 43.0874C66.0167 42.7676 66.0164 42.4478 66.016 42.128C66.0148 41.221 66.0142 40.314 66.0143 39.4069C66.0143 39.358 66.0143 39.3092 66.0143 39.2588C66.0143 39.2099 66.0143 39.1609 66.0143 39.1105C66.0144 38.3174 66.0131 37.5244 66.0112 36.7314C66.0093 35.9167 66.0084 35.1021 66.0085 34.2874C66.0085 33.8302 66.0082 33.373 66.0067 32.9158C66.0053 32.4857 66.0054 32.0557 66.0064 31.6256C66.0065 31.4678 66.0062 31.3101 66.0054 31.1523C66.0043 30.9368 66.005 30.7213 66.006 30.5058C66.0053 30.4435 66.0046 30.3812 66.0039 30.317C66.009 29.8412 66.1254 29.4845 66.4451 29.1267C66.4901 29.0899 66.5351 29.053 66.5815 29.0151C66.6266 28.977 66.6718 28.9389 66.7183 28.8997C66.9475 28.7374 67.1445 28.7332 67.4167 28.7324ZM67.3154 30.147C67.2704 30.2108 67.2704 30.2108 67.2245 30.276C67.1935 30.318 67.1625 30.3601 67.1305 30.4034C66.9198 30.7972 66.8938 31.1771 66.8955 31.614C66.8952 31.6713 66.8949 31.7287 66.8946 31.7877C66.8937 31.9789 66.8939 32.1701 66.894 32.3613C66.8936 32.4988 66.8931 32.6362 66.8926 32.7737C66.8914 33.1465 66.8911 33.5193 66.891 33.8921C66.8909 34.1251 66.8906 34.3582 66.8903 34.5913C66.889 35.4048 66.8885 36.2184 66.8886 37.0319C66.8887 37.7895 66.8872 38.5472 66.8851 39.3048C66.8834 39.9559 66.8826 40.607 66.8827 41.2581C66.8828 41.6466 66.8824 42.0352 66.8809 42.4238C66.8796 42.7894 66.8796 43.155 66.8806 43.5205C66.8808 43.6544 66.8804 43.7883 66.8796 43.9221C66.8578 45.0114 66.8578 45.0114 67.3506 45.9535C67.6827 46.2275 67.8874 46.3694 68.3279 46.3702C68.3982 46.3705 68.4686 46.3708 68.5411 46.3712C68.6186 46.3711 68.6962 46.3711 68.776 46.3711C68.8582 46.3714 68.9404 46.3716 69.0251 46.3719C69.2536 46.3725 69.4821 46.3728 69.7107 46.373C69.957 46.3732 70.2033 46.3739 70.4496 46.3745C71.0447 46.3758 71.6397 46.3765 72.2348 46.3771C72.515 46.3774 72.7952 46.3777 73.0754 46.3781C74.0068 46.3792 74.9382 46.3802 75.8696 46.3807C76.1113 46.3808 76.3531 46.3809 76.5948 46.3811C76.6549 46.3811 76.7149 46.3811 76.7768 46.3812C77.7501 46.3817 78.7234 46.3834 79.6967 46.3856C80.6959 46.3878 81.6951 46.389 82.6942 46.3893C83.2553 46.3894 83.8163 46.39 84.3773 46.3917C84.8551 46.3932 85.3329 46.3937 85.8107 46.3931C86.0544 46.3928 86.2982 46.3929 86.5419 46.3942C86.8063 46.3956 87.0707 46.3949 87.3351 46.394C87.4119 46.3948 87.4887 46.3955 87.5678 46.3963C88.0754 46.3921 88.457 46.3262 88.8384 45.9625C88.8684 45.9193 88.8984 45.8761 88.9293 45.8316C88.9603 45.7888 88.9914 45.746 89.0233 45.7019C89.2327 45.3271 89.2599 44.9862 89.2583 44.568C89.2588 44.4813 89.2588 44.4813 89.2592 44.3928C89.2601 44.1996 89.26 44.0063 89.2599 43.813C89.2603 43.6743 89.2607 43.5355 89.2612 43.3967C89.2624 43.02 89.2627 42.6434 89.2628 42.2667C89.2629 42.0312 89.2632 41.7957 89.2636 41.5603C89.2648 40.7384 89.2654 39.9166 89.2653 39.0948C89.2652 38.3293 89.2666 37.5639 89.2687 36.7984C89.2705 36.1407 89.2712 35.4831 89.2711 34.8254C89.2711 34.4329 89.2715 34.0403 89.2729 33.6477C89.2742 33.2783 89.2742 32.909 89.2732 32.5396C89.2731 32.4043 89.2734 32.269 89.2742 32.1337C89.3142 31.074 89.3142 31.074 88.8517 30.16C88.5547 29.886 88.2936 29.7339 87.8839 29.7333C87.8132 29.7329 87.7424 29.7324 87.6696 29.732C87.592 29.7322 87.5144 29.7324 87.4344 29.7326C87.3106 29.7322 87.3106 29.7322 87.1844 29.7317C86.9552 29.731 86.7261 29.7309 86.4969 29.731C86.2498 29.7311 86.0027 29.7303 85.7556 29.7297C85.2715 29.7286 84.7873 29.7282 84.3031 29.7281C83.9095 29.7281 83.5159 29.7278 83.1223 29.7274C82.0065 29.7262 80.8907 29.7256 79.7748 29.7257C79.7147 29.7257 79.6545 29.7257 79.5925 29.7257C79.5322 29.7257 79.472 29.7257 79.4099 29.7257C78.4338 29.7257 77.4577 29.7245 76.4816 29.7226C75.4794 29.7206 74.4772 29.7197 73.475 29.7198C72.9123 29.7199 72.3496 29.7195 71.7869 29.718C71.3078 29.7168 70.8286 29.7165 70.3495 29.7174C70.1051 29.7179 69.8607 29.7179 69.6162 29.7167C69.3511 29.7155 69.086 29.7163 68.8208 29.7173C68.7438 29.7166 68.6668 29.716 68.5875 29.7152C68.0789 29.7196 67.7003 29.7867 67.3154 30.147Z" fill="#115056"/>
<path d="M33.5983 21.855C33.7597 21.8821 33.7597 21.8821 33.8942 22.0166C33.8979 22.2118 33.8979 22.2118 33.8784 22.4607C33.8732 22.528 33.8732 22.528 33.8678 22.5966C33.8248 23.1088 33.7514 23.6166 33.6756 24.1247C33.6608 24.2264 33.646 24.328 33.6312 24.4296C33.5926 24.6938 33.5536 24.958 33.5145 25.2221C33.4747 25.4914 33.4355 25.7606 33.3961 26.0299C33.3386 26.4233 33.2809 26.8166 33.2227 27.2098C33.2054 27.3276 33.2054 27.3276 33.1876 27.4477C33.1654 27.5934 33.1419 27.739 33.1171 27.8843C33.0874 28.0681 33.0782 28.2404 33.0788 28.4263C33.0786 28.4843 33.0784 28.5423 33.0783 28.6021C33.0717 28.7409 33.0717 28.7409 33.1544 28.8088C33.3269 28.8158 33.4977 28.8185 33.6702 28.8184C33.7242 28.8186 33.7782 28.8188 33.8339 28.8191C33.9516 28.8196 34.0693 28.8199 34.187 28.8202C34.3733 28.8206 34.5595 28.8217 34.7458 28.8229C35.2754 28.8265 35.8051 28.8297 36.3348 28.8307C36.6584 28.8314 36.982 28.8334 37.3056 28.8362C37.4291 28.837 37.5526 28.8374 37.6761 28.8372C37.8488 28.8371 38.0215 28.8386 38.1943 28.8404C38.271 28.8398 38.271 28.8398 38.3492 28.8391C38.5838 28.8432 38.7137 28.8593 38.9042 29.0014C39.0051 29.1451 39.0051 29.1451 39.0104 29.3276C38.9124 29.6262 38.7578 29.8636 38.5848 30.1244C38.5105 30.2392 38.4363 30.3541 38.3621 30.469C38.3237 30.5282 38.2853 30.5873 38.2457 30.6482C38.0636 30.9308 37.887 31.2168 37.7106 31.503C37.6748 31.561 37.6389 31.6189 37.602 31.6787C37.4001 32.0055 37.1988 32.3326 36.9976 32.6599C36.5186 33.4394 36.0376 34.2174 35.5518 34.9927C35.1493 35.6358 34.7519 36.2822 34.3547 36.9287C34.1193 37.3118 33.883 37.6944 33.6462 38.0766C33.611 38.1335 33.5758 38.1903 33.5396 38.2488C33.3968 38.4793 33.254 38.7097 33.1111 38.94C32.658 39.6708 32.2063 40.4025 31.7585 41.1365C31.7322 41.1793 31.7059 41.222 31.6788 41.2661C31.616 41.3706 31.5575 41.4776 31.4997 41.5849C31.4688 41.6297 31.4378 41.6745 31.406 41.7207C31.1916 41.7417 31.1916 41.7417 31.0025 41.7207C30.831 41.4326 30.8812 41.2324 30.9585 40.925C30.9751 40.8635 30.9917 40.8021 31.0088 40.7388C31.0258 40.6723 31.0429 40.6058 31.0605 40.5372C31.1186 40.3122 31.1782 40.0876 31.2378 39.863C31.2793 39.7032 31.3208 39.5435 31.3621 39.3837C31.6203 38.3899 31.8859 37.3982 32.1509 36.4062C32.2018 36.2156 32.2526 36.025 32.3035 35.8343C32.3373 35.7072 32.3712 35.5801 32.4051 35.453C32.4219 35.3902 32.4386 35.3273 32.4559 35.2625C32.5569 34.884 32.6585 34.5057 32.7607 34.1275C32.8251 33.8887 32.889 33.6497 32.9529 33.4108C32.9829 33.2987 33.0132 33.1868 33.0436 33.0749C33.0856 32.9205 33.1269 32.7658 33.1681 32.6112C33.1804 32.5665 33.1928 32.5218 33.2055 32.4757C33.2806 32.1894 33.3057 31.9289 33.2889 31.6333C33.1523 31.4966 32.8679 31.5557 32.6802 31.5554C32.6234 31.5551 32.5667 31.5548 32.5082 31.5544C32.3845 31.5537 32.2609 31.5531 32.1372 31.5526C31.9417 31.5519 31.7461 31.5506 31.5506 31.5491C30.9945 31.5449 30.4383 31.5413 29.8822 31.5391C29.5424 31.5377 29.2027 31.5353 28.863 31.5323C28.7332 31.5313 28.6035 31.5307 28.4738 31.5305C28.2925 31.5302 28.1112 31.5286 27.9299 31.5268C27.8491 31.5271 27.8491 31.5271 27.7666 31.5274C27.4048 31.522 27.4048 31.522 27.235 31.4058C27.1692 31.297 27.1692 31.297 27.1716 31.1431C27.2549 30.909 27.3867 30.7277 27.5352 30.5316C27.597 30.4474 27.6588 30.3631 27.7204 30.2788C27.7519 30.2357 27.7835 30.1927 27.816 30.1483C27.9606 29.9477 28.0979 29.7426 28.2345 29.5365C28.2618 29.4954 28.2891 29.4543 28.3172 29.4119C28.3742 29.3259 28.4311 29.2399 28.488 29.1539C28.6478 28.9123 28.8083 28.6712 28.9687 28.43C29.0026 28.3791 29.0364 28.3282 29.0713 28.2757C29.6619 27.3884 30.2603 26.5063 30.8574 25.6233C31.0911 25.2776 31.3245 24.9317 31.5576 24.5855C31.7102 24.359 31.8628 24.1326 32.0155 23.9061C32.0871 23.7998 32.1587 23.6935 32.2302 23.5872C32.4196 23.3057 32.6098 23.0248 32.8016 22.745C32.8822 22.6266 32.9613 22.5074 33.0403 22.388C33.0867 22.32 33.1332 22.2519 33.181 22.1819C33.2397 22.0941 33.2397 22.0941 33.2997 22.0045C33.4234 21.8821 33.4234 21.8821 33.5983 21.855Z" fill="#115056"/>
<path d="M78.3459 32.0371C78.52 32.1244 78.6581 32.241 78.804 32.3691C78.8439 32.4023 78.8838 32.4355 78.9249 32.4697C79.0065 32.5378 79.0878 32.6064 79.1686 32.6755C79.3484 32.8289 79.5324 32.9769 79.7161 33.1257C79.8198 33.211 79.9235 33.2965 80.0271 33.3821C80.0326 33.3086 80.0382 33.235 80.0439 33.1593C80.0943 32.9113 80.0943 32.9113 80.2017 32.7966C80.4238 32.677 80.5969 32.6834 80.8485 32.6828C80.9184 32.6825 80.9184 32.6825 80.9897 32.6822C81.088 32.6821 81.1863 32.6824 81.2846 32.6833C81.4344 32.6843 81.5841 32.6833 81.7339 32.682C81.8297 32.6821 81.9254 32.6824 82.0212 32.6828C82.1079 32.683 82.1946 32.6832 82.2839 32.6835C82.5291 32.7111 82.6567 32.763 82.8516 32.9113C82.9299 33.068 82.927 33.1583 82.9265 33.3327C82.9264 33.3919 82.9264 33.4512 82.9264 33.5122C82.9261 33.5762 82.9257 33.6403 82.9254 33.7062C82.9252 33.8045 82.9252 33.8045 82.9251 33.9047C82.9247 34.1144 82.9239 34.324 82.923 34.5337C82.9227 34.6757 82.9224 34.8176 82.9221 34.9595C82.9214 35.308 82.9202 35.6564 82.9188 36.0048C82.9591 36.0236 82.9993 36.0424 83.0408 36.0618C83.2555 36.1749 83.4255 36.3345 83.6039 36.4966C83.6406 36.5284 83.6773 36.5603 83.7152 36.5931C83.8768 36.7395 83.9854 36.8523 84.0584 37.0598C84.0635 37.2745 83.9851 37.3805 83.8603 37.5515C83.7258 37.686 83.7258 37.686 83.5375 37.7107C83.271 37.6801 83.1741 37.6009 82.9735 37.4254C82.917 37.3771 82.8606 37.3287 82.8024 37.2789C82.7707 37.2487 82.739 37.2186 82.7063 37.1876C82.5771 37.0713 82.5771 37.0713 82.3949 36.9579C81.8915 36.5916 81.8915 36.5916 81.8042 36.2628C81.7505 35.8495 81.7754 35.4362 81.7966 35.0213C81.8003 34.8947 81.8037 34.7682 81.8067 34.6417C81.8148 34.3336 81.8275 34.0261 81.8428 33.7183C81.5987 33.7183 81.3546 33.7183 81.1031 33.7183C81.1062 33.788 81.1093 33.8577 81.1125 33.9295C81.1151 34.0216 81.1175 34.1137 81.1199 34.2059C81.1222 34.2517 81.1244 34.2976 81.1267 34.3448C81.1312 34.5776 81.122 34.7021 80.9796 34.8902C80.789 35.0289 80.6663 35.0586 80.4306 35.0633C80.0769 34.9199 79.8235 34.7012 79.5437 34.4496C79.4548 34.3713 79.3659 34.293 79.2768 34.2148C79.2332 34.1763 79.1896 34.1379 79.1447 34.0982C78.9658 33.9412 78.7849 33.787 78.6022 33.6342C78.5458 33.5867 78.4894 33.5392 78.4312 33.4903C78.2785 33.382 78.1933 33.3373 78.0096 33.3148C77.8415 33.4382 77.6951 33.5605 77.5431 33.7015C77.4522 33.7831 77.3613 33.8646 77.2704 33.9461C77.225 33.9872 77.1796 34.0283 77.1328 34.0707C76.9452 34.239 76.7528 34.4013 76.5595 34.5631C76.2945 34.7863 76.0307 35.0109 75.768 35.2369C75.2236 35.7055 74.6705 36.1618 74.1091 36.61C74.1748 36.6553 74.2404 36.7006 74.308 36.7472C74.4868 36.8973 74.51 36.934 74.5612 37.1756C74.5603 37.2633 74.5594 37.351 74.5584 37.4413C74.5585 37.4906 74.5585 37.54 74.5586 37.5909C74.5583 37.7499 74.5552 37.9087 74.552 38.0677C74.5514 38.1662 74.551 38.2647 74.5508 38.3631C74.5487 38.7273 74.5431 39.0914 74.5379 39.4555C74.5295 40.2697 74.5212 41.0839 74.5126 41.9227C76.9316 41.9227 79.3506 41.9227 81.8428 41.9227C81.8428 41.146 81.8428 40.3693 81.8428 39.569C82.1118 39.3 82.1118 39.3 82.2487 39.2667C82.6163 39.2773 82.6163 39.2773 82.7801 39.3883C82.9048 39.5863 82.9276 39.7587 82.9297 39.9865C82.9303 40.0433 82.9309 40.1001 82.9316 40.1586C82.932 40.2504 82.932 40.2504 82.9325 40.344C82.9329 40.4071 82.9332 40.4702 82.9336 40.5352C82.9343 40.6687 82.9347 40.8022 82.935 40.9357C82.9356 41.1397 82.9377 41.3437 82.9398 41.5476C82.9403 41.6774 82.9406 41.8072 82.9409 41.9369C82.9417 41.9978 82.9425 42.0587 82.9434 42.1214C82.9421 42.4791 82.9158 42.7327 82.6498 42.9987C82.5337 43.0057 82.4173 43.0078 82.301 43.0082C82.2254 43.0086 82.1497 43.009 82.0718 43.0093C81.9463 43.0095 81.9463 43.0095 81.8182 43.0096C81.7306 43.0099 81.643 43.0102 81.5528 43.0106C81.3118 43.0115 81.0709 43.0119 80.83 43.0122C80.6796 43.0124 80.5292 43.0127 80.3788 43.013C79.9086 43.0139 79.4384 43.0145 78.9682 43.0148C78.4247 43.0151 77.8813 43.0163 77.3378 43.0182C76.9182 43.0197 76.4986 43.0204 76.079 43.0205C75.8282 43.0205 75.5774 43.0209 75.3265 43.0221C75.0468 43.0234 74.7672 43.0231 74.4874 43.0227C74.404 43.0233 74.3206 43.0239 74.2346 43.0246C74.1586 43.0242 74.0826 43.0238 74.0043 43.0235C73.9381 43.0236 73.8719 43.0236 73.8038 43.0238C73.6384 42.9987 73.6384 42.9987 73.5162 42.91C73.3861 42.7252 73.4104 42.5225 73.4137 42.3049C73.4137 42.2301 73.4137 42.2301 73.4137 42.1538C73.4138 41.9889 73.4154 41.8241 73.4169 41.6593C73.4173 41.545 73.4176 41.4307 73.4178 41.3164C73.4186 41.0155 73.4206 40.7147 73.4228 40.4139C73.4249 40.1069 73.4258 39.7999 73.4268 39.493C73.429 38.8906 73.4324 38.2883 73.4366 37.686C73.3713 37.6876 73.306 37.6892 73.2387 37.6909C73.1107 37.6928 73.1107 37.6928 72.9801 37.6947C72.853 37.6971 72.853 37.6971 72.7233 37.6996C72.4952 37.686 72.4952 37.686 72.2682 37.5473C72.1302 37.2979 72.1254 37.1614 72.1589 36.879C72.277 36.7327 72.3734 36.6337 72.5162 36.5176C72.5527 36.486 72.5892 36.4545 72.6269 36.422C72.7387 36.3262 72.8519 36.2325 72.9659 36.1393C73.0611 36.0609 73.0611 36.0609 73.1582 35.9809C73.2795 35.8819 73.4011 35.7833 73.5231 35.6851C73.7128 35.5281 73.8943 35.3646 74.0755 35.1978C74.3761 34.9211 74.6868 34.6618 75.0047 34.4053C75.1816 34.2592 75.3519 34.1082 75.5214 33.9537C75.7498 33.7455 75.9828 33.5467 76.2233 33.3526C76.4854 33.1409 76.7365 32.9214 76.9841 32.6928C77.8086 31.9419 77.8086 31.9419 78.3459 32.0371Z" fill="#115056"/>
</svg>
