<svg width="140" height="147" viewBox="0 0 140 147" fill="none" xmlns="http://www.w3.org/2000/svg">
<rect x="0.5" y="1.13135" width="139" height="145.052" rx="9.5" fill="white"/>
<rect x="0.5" y="1.13135" width="139" height="145.052" rx="9.5" stroke="#115056"/>
<path d="M38.0612 30.1046C38.163 30.1044 38.163 30.1044 38.2669 30.1042C38.4933 30.1038 38.7197 30.1039 38.9461 30.104C39.1105 30.1039 39.2749 30.1037 39.4393 30.1034C39.843 30.1029 40.2467 30.1028 40.6504 30.1027C41.1343 30.1027 41.6181 30.1022 42.1019 30.1018C43.2708 30.1007 44.4397 30.1003 45.6086 30.1C46.1616 30.0998 46.7146 30.0996 47.2677 30.0993C49.1613 30.0985 51.055 30.0977 52.9486 30.0975C53.0674 30.0975 53.1862 30.0975 53.3049 30.0975C53.424 30.0974 53.543 30.0974 53.6621 30.0974C53.9009 30.0974 54.1397 30.0973 54.3786 30.0973C54.4378 30.0973 54.497 30.0973 54.558 30.0973C56.4793 30.0971 58.4006 30.096 60.3219 30.0944C62.354 30.0928 64.3861 30.0918 66.4182 30.0918C66.6412 30.0917 66.8642 30.0917 67.0872 30.0917C67.1421 30.0917 67.197 30.0917 67.2536 30.0917C68.1373 30.0916 69.021 30.0909 69.9047 30.0899C70.7926 30.0889 71.6805 30.0887 72.5683 30.0893C73.0958 30.0896 73.6232 30.0893 74.1507 30.0882C74.5445 30.0875 74.9382 30.0878 75.332 30.0886C75.4914 30.0887 75.6507 30.0885 75.81 30.0879C76.0266 30.0872 76.243 30.0877 76.4596 30.0885C76.5215 30.088 76.5834 30.0874 76.6471 30.0869C77.314 30.0923 77.8825 30.2529 78.3725 30.7187C78.8291 31.2095 79.024 31.7416 79.0006 32.4115C78.9244 33.0453 78.649 33.5277 78.1707 33.9467C77.636 34.3115 77.0371 34.3703 76.4073 34.367C76.3057 34.3673 76.3057 34.3673 76.2019 34.3676C75.9746 34.3681 75.7472 34.3676 75.5199 34.3671C75.3553 34.3673 75.1908 34.3675 75.0262 34.3677C74.6683 34.3681 74.3104 34.3682 73.9524 34.3678C73.4202 34.3673 72.8879 34.3676 72.3557 34.368C71.46 34.3687 70.5644 34.3688 69.6688 34.3686C68.3888 34.3684 67.1089 34.3693 65.829 34.3704C65.3152 34.3709 64.8014 34.3713 64.2876 34.3717C64.202 34.3718 64.202 34.3718 64.1147 34.3719C62.7561 34.3729 61.3976 34.3737 60.039 34.3743C59.9796 34.3743 59.9202 34.3743 59.8589 34.3744C58.4724 34.375 57.0859 34.3755 55.6994 34.3756C55.61 34.3756 55.61 34.3756 55.5187 34.3757C55.2181 34.3757 54.9175 34.3757 54.6169 34.3758C54.5574 34.3758 54.498 34.3758 54.4368 34.3758C54.3169 34.3758 54.197 34.3758 54.0771 34.3758C52.0949 34.3761 50.1128 34.3772 48.1307 34.3793C47.8507 34.3796 47.5707 34.3799 47.2906 34.3802C47.2355 34.3803 47.1804 34.3803 47.1236 34.3804C46.2374 34.3812 45.3512 34.3811 44.465 34.3806C43.574 34.38 42.683 34.3805 41.792 34.3819C41.263 34.3827 40.7339 34.3827 40.2049 34.3817C39.8095 34.381 39.414 34.3817 39.0185 34.383C38.8589 34.3833 38.6992 34.3831 38.5396 34.3825C37.0873 34.3768 35.9208 34.575 34.8439 35.6334C34.169 36.3547 33.7745 37.2933 33.7774 38.2807C33.7772 38.3559 33.7772 38.3559 33.7771 38.4326C33.7767 38.6015 33.7769 38.7704 33.7771 38.9393C33.7769 39.0618 33.7768 39.1842 33.7766 39.3067C33.7761 39.6452 33.7761 39.9837 33.7762 40.3223C33.7762 40.6898 33.7758 41.0574 33.7754 41.4249C33.7748 42.1548 33.7745 42.8846 33.7744 43.6145C33.7742 44.4884 33.7736 45.3623 33.773 46.2361C33.7716 48.3485 33.7709 50.4609 33.7703 52.5733C33.7701 53.2728 33.7699 53.9724 33.7696 54.6719C33.7696 54.7459 33.7696 54.7459 33.7696 54.8214C33.7695 55.0211 33.7695 55.2207 33.7694 55.4203C33.7682 58.8353 33.7671 62.2502 33.7666 65.6652C33.7666 65.9334 33.7666 66.2017 33.7665 66.4699C33.7665 66.5497 33.7665 66.5497 33.7665 66.6312C33.7664 67.1703 33.7663 67.7094 33.7663 68.2486C33.7662 68.3567 33.7662 68.4648 33.7662 68.5729C33.7657 72.0444 33.7642 75.5159 33.762 78.9874C33.7604 81.4817 33.759 83.9759 33.7585 86.4702C33.7585 86.5215 33.7585 86.5728 33.7585 86.6256C33.7583 87.7518 33.7581 88.878 33.758 90.0041C33.758 90.4573 33.758 90.9104 33.7579 91.3635C33.7579 91.4131 33.7579 91.4627 33.7579 91.5138C33.7578 93.1111 33.7568 94.7083 33.7555 96.3056C33.7541 97.9146 33.7535 99.5236 33.7542 101.133C33.7546 102.131 33.7543 103.129 33.7527 104.127C33.7518 104.764 33.7519 105.401 33.7527 106.038C33.7532 106.401 33.7533 106.764 33.7521 107.127C33.7511 107.457 33.7513 107.787 33.7525 108.118C33.7527 108.236 33.7524 108.355 33.7517 108.473C33.7439 109.79 34.0561 110.877 35.0021 111.84C35.6872 112.481 36.6097 112.905 37.5547 112.906C37.637 112.907 37.7192 112.907 37.8039 112.907C37.8951 112.907 37.9863 112.907 38.0775 112.907C38.1749 112.907 38.2722 112.907 38.3695 112.907C38.6382 112.908 38.9068 112.908 39.1755 112.908C39.4673 112.908 39.7592 112.908 40.051 112.909C40.6304 112.91 41.2097 112.91 41.7891 112.91C42.4829 112.911 43.1766 112.911 43.8704 112.912C45.5475 112.914 47.2245 112.915 48.9016 112.916C49.457 112.916 50.0125 112.916 50.5679 112.917C53.5209 112.918 56.4739 112.92 59.4268 112.921C60.1111 112.921 60.7954 112.921 61.4796 112.921C61.5646 112.921 61.6496 112.921 61.7372 112.921C64.4934 112.922 67.2496 112.924 70.0057 112.927C72.8389 112.93 75.6721 112.932 78.5053 112.932C78.9055 112.932 79.3056 112.932 79.7058 112.932C79.7846 112.932 79.8633 112.932 79.9445 112.932C81.2119 112.932 82.4794 112.934 83.7468 112.936C85.0209 112.937 86.295 112.938 87.5691 112.937C88.326 112.937 89.0828 112.937 89.8397 112.939C90.3455 112.94 90.8514 112.94 91.3572 112.939C91.6453 112.939 91.9333 112.939 92.2214 112.94C92.484 112.941 92.7466 112.941 93.0092 112.94C93.1469 112.939 93.2847 112.94 93.4224 112.942C94.3744 112.933 95.228 112.669 95.9919 112.091C96.0408 112.054 96.0896 112.017 96.14 111.979C96.9565 111.317 97.3685 110.349 97.5386 109.333C97.5651 108.979 97.5656 108.626 97.5636 108.271C97.5638 108.166 97.564 108.061 97.5644 107.956C97.5651 107.671 97.5645 107.385 97.5638 107.099C97.5632 106.79 97.5637 106.481 97.5642 106.172C97.5648 105.638 97.5647 105.103 97.5642 104.568C97.5634 103.794 97.564 103.02 97.565 102.247C97.5666 100.99 97.5675 99.7329 97.5678 98.4761C97.5678 98.3634 97.5678 98.3634 97.5678 98.2484C97.568 97.4099 97.568 96.5714 97.568 95.7329C97.5679 95.4286 97.5679 95.1244 97.5679 94.8201C97.5679 94.745 97.5679 94.6699 97.5679 94.5926C97.5679 93.3401 97.5689 92.0876 97.5706 90.8352C97.5717 90.0633 97.5719 89.2914 97.5708 88.5196C97.5702 87.9908 97.5705 87.462 97.5716 86.9332C97.5722 86.6283 97.5723 86.3234 97.5713 86.0184C97.5704 85.739 97.5707 85.4596 97.5719 85.1802C97.5722 85.0794 97.572 84.9787 97.5713 84.8779C97.5661 84.0954 97.6507 83.4066 98.2111 82.8184C98.7388 82.3639 99.2386 82.2736 99.9186 82.2807C100.451 82.3211 100.866 82.5368 101.254 82.8996C101.607 83.3159 101.784 83.7989 101.784 84.3385C101.785 84.382 101.785 84.4256 101.785 84.4704C101.785 84.6174 101.785 84.7643 101.785 84.9112C101.785 85.0172 101.786 85.1232 101.786 85.2292C101.787 85.5214 101.787 85.8135 101.787 86.1057C101.787 86.4205 101.788 86.7353 101.789 87.0501C101.79 87.8112 101.791 88.5722 101.791 89.3333C101.791 89.6919 101.792 90.0505 101.792 90.4091C101.793 91.6018 101.794 92.7945 101.795 93.9873C101.795 94.2969 101.795 94.6066 101.795 94.9163C101.795 94.9932 101.795 95.0702 101.795 95.1495C101.796 96.3942 101.798 97.639 101.8 98.8838C101.802 100.163 101.803 101.441 101.803 102.72C101.804 103.438 101.804 104.156 101.806 104.873C101.807 105.485 101.808 106.097 101.807 106.708C101.807 107.02 101.807 107.332 101.808 107.643C101.818 110.043 101.818 110.043 101.506 111.149C101.487 111.218 101.487 111.218 101.468 111.289C101.099 112.612 100.357 113.722 99.4216 114.713C99.377 114.763 99.3325 114.813 99.2866 114.864C97.9398 116.305 95.9072 117.065 93.9744 117.202C93.6531 117.211 93.3319 117.211 93.0105 117.21C92.9135 117.21 92.8165 117.21 92.7195 117.211C92.4533 117.211 92.1871 117.211 91.9208 117.211C91.6311 117.211 91.3413 117.211 91.0515 117.211C90.5438 117.211 90.036 117.211 89.5283 117.211C88.7732 117.211 88.0181 117.212 87.2631 117.212C85.836 117.213 84.4089 117.213 82.9818 117.213C81.8797 117.213 80.7776 117.213 79.6755 117.213C79.3583 117.213 79.0411 117.213 78.7239 117.213C78.645 117.213 78.5661 117.213 78.4849 117.213C76.2665 117.214 74.0482 117.214 71.8298 117.214C71.7461 117.214 71.6625 117.214 71.5763 117.214C71.1524 117.214 70.7284 117.214 70.3045 117.214C70.1782 117.214 70.1782 117.214 70.0494 117.214C69.8791 117.214 69.7088 117.214 69.5386 117.214C66.8897 117.214 64.2409 117.214 61.592 117.215C58.6161 117.216 55.6402 117.217 52.6643 117.217C52.3469 117.217 52.0295 117.217 51.7122 117.217C51.634 117.217 51.5559 117.217 51.4754 117.217C50.2181 117.217 48.9609 117.217 47.7037 117.218C46.4399 117.219 45.1762 117.219 43.9125 117.218C43.1619 117.218 42.4113 117.218 41.6608 117.219C41.159 117.219 40.6573 117.219 40.1555 117.219C39.8699 117.218 39.5843 117.218 39.2987 117.219C36.7967 117.223 34.3996 116.976 32.4411 115.251C32.3869 115.206 32.3327 115.161 32.2769 115.114C30.6502 113.716 29.6809 111.686 29.4958 109.559C29.467 109.084 29.4727 108.607 29.4733 108.131C29.4732 108.009 29.473 107.886 29.4729 107.764C29.4725 107.428 29.4725 107.092 29.4726 106.756C29.4727 106.391 29.4724 106.025 29.4721 105.66C29.4716 104.935 29.4714 104.21 29.4714 103.485C29.4713 102.617 29.4709 101.749 29.4704 100.88C29.4694 98.8315 29.4689 96.7828 29.4686 94.734C29.4685 93.6914 29.4682 92.6488 29.468 91.6062C29.4671 88.2608 29.4664 84.9153 29.4661 81.5699C29.4661 81.4101 29.4661 81.2502 29.4661 81.0904C29.4661 80.7698 29.4661 80.4492 29.466 80.1287C29.466 79.7534 29.466 79.3781 29.466 79.0028C29.466 78.8954 29.466 78.7879 29.4659 78.6805C29.4657 75.2313 29.4647 71.7821 29.4631 68.3328C29.462 65.8539 29.461 63.375 29.4607 60.8961C29.4607 60.8451 29.4606 60.7941 29.4606 60.7415C29.4605 59.6217 29.4604 58.5018 29.4604 57.382C29.4604 56.9813 29.4604 56.5805 29.4604 56.1798C29.4604 56.0801 29.4604 55.9804 29.4603 55.8807C29.4603 54.2939 29.4596 52.707 29.4586 51.1202C29.4576 49.4768 29.4573 47.8333 29.4579 46.1899C29.4582 45.2429 29.4579 44.2959 29.4569 43.3489C29.4562 42.7159 29.4563 42.0829 29.457 41.4499C29.4573 41.0895 29.4574 40.7291 29.4565 40.3688C29.4558 40.0401 29.456 39.7115 29.4569 39.3828C29.457 39.2654 29.4568 39.1481 29.4563 39.0307C29.4514 37.9437 29.522 36.8097 29.894 35.7792C29.9141 35.7216 29.9342 35.664 29.9549 35.6047C30.6989 33.5508 32.2229 31.8623 34.1933 30.922C35.4403 30.3491 36.6922 30.102 38.0612 30.1046Z" fill="#115056"/>
<path d="M80.0699 41.3171C80.1753 41.3158 80.1753 41.3158 80.2828 41.3145C80.3583 41.3147 80.4338 41.3149 80.5117 41.3151C80.5896 41.3147 80.6675 41.3144 80.7478 41.314C80.9126 41.3136 81.0774 41.3137 81.2422 41.3142C81.4943 41.3148 81.7463 41.3129 81.9984 41.3108C82.1585 41.3106 82.3186 41.3107 82.4787 41.3109C82.5541 41.3101 82.6295 41.3094 82.7071 41.3086C83.23 41.3133 83.23 41.3133 83.4959 41.4724C83.7145 41.7245 83.6925 41.8973 83.6895 42.2269C83.6888 42.3131 83.6882 42.3992 83.6876 42.488C83.6868 42.5544 83.6861 42.6208 83.6853 42.6892C83.7406 42.6892 83.796 42.6891 83.853 42.689C87.1326 42.6845 90.4121 42.681 93.6917 42.6789C94.0852 42.6787 94.4788 42.6784 94.8723 42.6782C94.9506 42.6781 95.029 42.678 95.1097 42.678C96.3793 42.6771 97.6489 42.6755 98.9185 42.6737C100.221 42.6718 101.523 42.6707 102.825 42.6703C103.629 42.67 104.433 42.6691 105.237 42.6675C105.787 42.6664 106.338 42.6661 106.889 42.6663C107.207 42.6665 107.525 42.6663 107.843 42.6652C108.134 42.6642 108.425 42.6642 108.716 42.6648C108.822 42.6649 108.927 42.6647 109.032 42.664C109.176 42.6632 109.319 42.6637 109.462 42.6644C109.541 42.6643 109.621 42.6643 109.703 42.6642C109.997 42.6993 110.173 42.8064 110.369 43.0254C110.495 43.3362 110.479 43.6369 110.477 43.9691C110.478 44.0409 110.478 44.1128 110.478 44.1869C110.478 44.3386 110.478 44.4903 110.477 44.642C110.476 44.874 110.477 45.106 110.478 45.338C110.478 45.4855 110.478 45.6331 110.477 45.7806C110.478 45.8499 110.478 45.9192 110.479 45.9906C110.473 46.6077 110.473 46.6077 110.249 46.8587C110.014 47.0119 109.813 47.0099 109.536 47.0098C109.491 47.0099 109.447 47.0101 109.401 47.0102C109.25 47.0106 109.1 47.01 108.949 47.0094C108.841 47.0094 108.732 47.0096 108.623 47.0097C108.324 47.01 108.025 47.0095 107.726 47.0088C107.403 47.0082 107.081 47.0084 106.758 47.0085C106.199 47.0086 105.641 47.0082 105.082 47.0074C104.274 47.0063 103.466 47.006 102.658 47.0058C101.347 47.0055 100.036 47.0046 98.7253 47.0033C97.4518 47.0021 96.1782 47.0012 94.9047 47.0006C94.8262 47.0006 94.7478 47.0005 94.6669 47.0005C94.2733 47.0003 93.8796 47.0001 93.486 47C90.2191 46.9986 86.9522 46.9962 83.6853 46.9932C83.6854 47.0521 83.6855 47.1111 83.6856 47.1718C83.6916 50.6619 83.6962 54.152 83.699 57.6422C83.6993 58.061 83.6997 58.4798 83.7 58.8985C83.7001 58.9819 83.7002 59.0653 83.7002 59.1512C83.7014 60.5023 83.7035 61.8535 83.706 63.2046C83.7085 64.5903 83.71 65.9761 83.7106 67.3618C83.7109 68.2173 83.7121 69.0728 83.7143 69.9283C83.7157 70.5145 83.7161 71.1006 83.7158 71.6867C83.7156 72.0252 83.7159 72.3637 83.7173 72.7022C83.7186 73.0119 83.7187 73.3215 83.7178 73.6312C83.7177 73.7435 83.718 73.8557 83.7188 73.9679C83.7199 74.1202 83.7193 74.2723 83.7184 74.4245C83.7185 74.5092 83.7186 74.5938 83.7187 74.681C83.6792 74.9417 83.5998 75.0523 83.4163 75.238C83.2471 75.3226 83.1278 75.3156 82.9385 75.3182C82.831 75.3198 82.831 75.3198 82.7215 75.3215C82.3938 75.3245 82.0662 75.3272 81.7385 75.3288C81.5656 75.3299 81.3927 75.3317 81.2198 75.3343C80.9708 75.338 80.7218 75.3395 80.4728 75.3404C80.3955 75.342 80.3182 75.3435 80.2386 75.3451C79.7027 75.3436 79.7027 75.3436 79.435 75.1475C79.2408 74.8608 79.2384 74.6481 79.2385 74.3087C79.2384 74.2615 79.2384 74.2144 79.2383 74.1659C79.2381 74.0068 79.2384 73.8477 79.2387 73.6886C79.2387 73.5738 79.2386 73.4591 79.2385 73.3444C79.2384 73.0281 79.2386 72.7119 79.239 72.3957C79.2393 72.0551 79.2392 71.7144 79.2391 71.3738C79.2391 70.7833 79.2393 70.1928 79.2397 69.6023C79.2402 68.7485 79.2404 67.8947 79.2405 67.0409C79.2406 65.6559 79.2411 64.2708 79.2417 62.8857C79.2423 61.5399 79.2428 60.1942 79.2431 58.8485C79.2431 58.7656 79.2431 58.6827 79.2431 58.5972C79.2432 58.1813 79.2433 57.7654 79.2434 57.3495C79.2441 53.8974 79.2453 50.4453 79.2468 46.9932C79.1761 46.9953 79.1761 46.9953 79.104 46.9975C78.8896 47.0031 78.6752 47.0066 78.4608 47.01C78.3866 47.0123 78.3125 47.0145 78.2361 47.0168C77.6841 47.0235 77.6841 47.0235 77.4184 46.8665C77.1132 46.51 77.1414 46.1413 77.1418 45.6926C77.1415 45.6254 77.1412 45.5581 77.1409 45.4889C77.1406 45.3469 77.1405 45.205 77.1408 45.0631C77.141 44.8464 77.1395 44.6298 77.1378 44.4132C77.1376 44.275 77.1376 44.1369 77.1376 43.9988C77.137 43.9342 77.1364 43.8697 77.1357 43.8032C77.1382 43.4517 77.154 43.1879 77.3638 42.891C77.5999 42.7038 77.7735 42.6645 78.0712 42.6695C78.1399 42.6702 78.2086 42.6708 78.2794 42.6715C78.3858 42.674 78.3858 42.674 78.4944 42.6766C78.6028 42.678 78.6028 42.678 78.7134 42.6794C78.8912 42.6818 79.069 42.6851 79.2468 42.6892C79.2433 42.6077 79.2433 42.6077 79.2397 42.5245C79.2379 42.4527 79.2361 42.3808 79.2342 42.3068C79.2307 42.2003 79.2307 42.2003 79.2271 42.0916C79.2545 41.8006 79.3532 41.6326 79.5683 41.4372C79.7495 41.3243 79.8575 41.3183 80.0699 41.3171Z" fill="#115056"/>
<path d="M43.296 100.566C43.4179 100.565 43.4179 100.565 43.5423 100.565C43.7668 100.564 43.9913 100.565 44.2159 100.565C44.4606 100.566 44.7053 100.565 44.95 100.565C45.3784 100.564 45.8069 100.564 46.2354 100.565C46.8726 100.566 47.5098 100.566 48.147 100.565C49.285 100.564 50.423 100.565 51.5611 100.566C52.5569 100.566 53.5527 100.567 54.5485 100.566C54.6476 100.566 54.6476 100.566 54.7487 100.566C55.0168 100.566 55.285 100.566 55.5531 100.566C58.0683 100.566 60.5835 100.567 63.0987 100.568C65.3336 100.57 67.5684 100.57 69.8033 100.57C69.9468 100.57 70.0903 100.57 70.2338 100.57C70.3403 100.57 70.3403 100.57 70.4488 100.57C70.806 100.569 71.1632 100.569 71.5203 100.569C71.5908 100.569 71.6613 100.569 71.7339 100.569C73.6011 100.569 75.4684 100.569 77.3357 100.57C77.5366 100.57 77.7375 100.57 77.9384 100.57C78.0716 100.57 78.2049 100.57 78.3382 100.57C79.2675 100.571 80.1969 100.571 81.1262 100.57C82.3237 100.57 83.5212 100.571 84.7188 100.572C85.3521 100.572 85.9855 100.572 86.6189 100.572C87.0419 100.572 87.4648 100.572 87.8878 100.573C88.1288 100.573 88.3699 100.573 88.6109 100.573C88.8706 100.572 89.1303 100.573 89.39 100.574C89.4648 100.573 89.5396 100.573 89.6167 100.573C90.3598 100.577 90.9435 100.677 91.4974 101.199C92.0289 101.762 92.1326 102.197 92.1142 102.97C92.0592 103.549 91.7712 103.965 91.3513 104.357C90.7741 104.813 90.1761 104.847 89.4645 104.845C89.3428 104.845 89.3428 104.845 89.2186 104.845C88.9936 104.846 88.7686 104.846 88.5435 104.845C88.2987 104.845 88.0538 104.845 87.8089 104.846C87.3798 104.846 86.9506 104.847 86.5215 104.846C85.8833 104.846 85.2452 104.846 84.6071 104.847C83.401 104.848 82.195 104.848 80.989 104.848C80.0577 104.848 79.1264 104.848 78.1952 104.848C78.0614 104.848 77.9277 104.848 77.7939 104.848C77.5924 104.848 77.3908 104.848 77.1893 104.848C75.3151 104.849 73.441 104.849 71.5668 104.849C71.4961 104.849 71.4255 104.849 71.3527 104.849C70.9945 104.849 70.6363 104.849 70.2782 104.849C70.207 104.849 70.1359 104.849 70.0626 104.849C69.9187 104.849 69.7749 104.849 69.631 104.849C67.3926 104.848 65.1541 104.849 62.9157 104.85C60.4012 104.852 57.8868 104.852 55.3723 104.852C55.1042 104.852 54.8362 104.852 54.5681 104.852C54.5021 104.852 54.4361 104.852 54.3681 104.852C53.3713 104.852 52.3745 104.852 51.3777 104.853C50.2442 104.854 49.1107 104.854 47.9771 104.853C47.3427 104.853 46.7083 104.853 46.0739 104.854C45.6501 104.854 45.2263 104.854 44.8025 104.853C44.561 104.853 44.3196 104.853 44.0782 104.854C43.8178 104.854 43.5575 104.854 43.2972 104.853C43.2226 104.853 43.148 104.854 43.0711 104.854C42.2972 104.849 41.6801 104.701 41.1159 104.155C40.7318 103.756 40.6106 103.249 40.5527 102.709C40.632 101.969 40.8815 101.41 41.469 100.935C42.0229 100.589 42.6607 100.561 43.296 100.566Z" fill="#115056"/>
<path d="M42.4764 90.1503C42.5464 90.15 42.6164 90.1496 42.6886 90.1492C42.7652 90.1495 42.8418 90.1498 42.9208 90.15C43.0027 90.1498 43.0847 90.1496 43.1691 90.1493C43.3974 90.1488 43.6257 90.1489 43.854 90.1492C44.102 90.1494 44.3501 90.1489 44.5982 90.1484C45.0332 90.1477 45.4683 90.1475 45.9033 90.1477C46.5502 90.1479 47.1972 90.1473 47.8441 90.1466C49.0667 90.1453 50.2892 90.1449 51.5118 90.1449C52.4558 90.1448 53.3998 90.1445 54.3438 90.1441C54.6153 90.144 54.8868 90.1439 55.1584 90.1437C55.2259 90.1437 55.2934 90.1437 55.3629 90.1437C57.2621 90.1428 59.1613 90.1423 61.0605 90.1424C61.1322 90.1424 61.2038 90.1424 61.2776 90.1424C61.6407 90.1424 62.0038 90.1424 62.3669 90.1424C62.439 90.1424 62.5111 90.1424 62.5854 90.1424C62.7312 90.1424 62.8771 90.1424 63.0229 90.1424C65.292 90.1425 67.5611 90.1415 69.8302 90.1397C72.3784 90.1376 74.9266 90.1364 77.4748 90.1366C77.7464 90.1366 78.018 90.1366 78.2896 90.1366C78.3899 90.1366 78.3899 90.1366 78.4923 90.1366C79.5695 90.1366 80.6467 90.1357 81.7239 90.1346C82.8062 90.1334 83.8885 90.1333 84.9708 90.1342C85.614 90.1347 86.2573 90.1344 86.9005 90.1331C87.3301 90.1323 87.7596 90.1325 88.1891 90.1334C88.434 90.134 88.6788 90.1341 88.9236 90.133C89.1873 90.1318 89.4511 90.1327 89.7148 90.1339C89.7908 90.1332 89.8668 90.1325 89.9451 90.1318C90.604 90.1378 91.0832 90.3243 91.5672 90.7726C92.0314 91.2904 92.1158 91.8041 92.1102 92.4796C92.0649 93.0618 91.8134 93.505 91.3836 93.8908C90.8326 94.3279 90.1906 94.3665 89.5122 94.3624C89.4306 94.3627 89.349 94.363 89.2649 94.3633C89.0391 94.364 88.8133 94.3638 88.5875 94.3631C88.3415 94.3627 88.0956 94.3634 87.8497 94.364C87.4189 94.3648 86.9881 94.3649 86.5573 94.3645C85.9167 94.3639 85.2761 94.3644 84.6355 94.3652C83.4913 94.3665 82.3471 94.3666 81.2029 94.3663C80.2016 94.366 79.2003 94.366 78.199 94.3664C78.0647 94.3665 77.9304 94.3665 77.7961 94.3666C77.5937 94.3667 77.3913 94.3667 77.1889 94.3668C75.3074 94.3675 73.4258 94.3678 71.5443 94.3673C71.4734 94.3673 71.4024 94.3673 71.3293 94.3673C70.7533 94.3671 70.1773 94.3669 69.6013 94.3667C67.3543 94.3661 65.1072 94.3666 62.8602 94.3682C60.3357 94.3699 57.8113 94.3708 55.2868 94.3703C55.0177 94.3703 54.7486 94.3702 54.4794 94.3702C54.4132 94.3702 54.3469 94.3702 54.2786 94.3701C53.278 94.37 52.2773 94.3705 51.2767 94.3714C50.1388 94.3724 49.001 94.3725 47.8632 94.3713C47.2264 94.3706 46.5896 94.3707 45.9528 94.3719C45.5274 94.3726 45.102 94.3723 44.6766 94.3713C44.4342 94.3707 44.1919 94.3705 43.9495 94.3715C43.6882 94.3726 43.427 94.3717 43.1657 94.3705C43.0908 94.3711 43.0159 94.3718 42.9387 94.3724C42.2244 94.3658 41.6328 94.1824 41.1125 93.6835C40.7313 93.2358 40.5529 92.7198 40.564 92.1333C40.6147 91.596 40.826 91.1091 41.1834 90.7053C41.5689 90.3878 41.9677 90.1507 42.4764 90.1503Z" fill="#115056"/>
<path d="M42.4621 80.2645C42.5074 80.2642 42.5527 80.264 42.5994 80.2638C42.7506 80.2631 42.9018 80.2635 43.053 80.2638C43.1628 80.2636 43.2725 80.2632 43.3822 80.2629C43.6833 80.2621 43.9845 80.2621 44.2856 80.2622C44.6106 80.2623 44.9355 80.2615 45.2604 80.2609C45.8969 80.2598 46.5334 80.2594 47.1698 80.2593C47.6872 80.2593 48.2047 80.259 48.7221 80.2586C50.1892 80.2574 51.6564 80.2567 53.1235 80.2568C53.2026 80.2569 53.2817 80.2569 53.3632 80.2569C53.4819 80.2569 53.4819 80.2569 53.6031 80.2569C54.8863 80.2569 56.1695 80.2556 57.4527 80.2538C58.7706 80.2518 60.0884 80.2509 61.4062 80.251C62.1459 80.2511 62.8857 80.2507 63.6254 80.2492C64.2553 80.248 64.8852 80.2477 65.515 80.2486C65.8363 80.2491 66.1575 80.2491 66.4788 80.2479C66.7731 80.2469 67.0675 80.247 67.3619 80.2482C67.4681 80.2484 67.5743 80.2482 67.6805 80.2474C68.4229 80.2425 69.0889 80.2808 69.6594 80.803C70.1575 81.3491 70.2672 81.9105 70.2536 82.6295C70.2283 83.1752 70.0055 83.602 69.6339 83.9968C69.138 84.4202 68.5989 84.5268 67.9619 84.5272C67.9173 84.5273 67.8727 84.5274 67.8268 84.5275C67.6777 84.5278 67.5285 84.5277 67.3793 84.5275C67.2712 84.5276 67.1631 84.5278 67.055 84.528C66.758 84.5284 66.4611 84.5284 66.1641 84.5283C65.8438 84.5283 65.5235 84.5286 65.2032 84.529C64.5757 84.5295 63.9483 84.5297 63.3208 84.5297C62.8107 84.5298 62.3007 84.5299 61.7907 84.5301C60.3448 84.5307 58.8989 84.531 57.453 84.531C57.375 84.531 57.297 84.531 57.2167 84.531C57.0997 84.531 57.0997 84.531 56.9802 84.531C55.7152 84.5309 54.4501 84.5316 53.1851 84.5325C51.8863 84.5335 50.5875 84.534 49.2887 84.5339C48.5594 84.5339 47.8302 84.5341 47.101 84.5348C46.4801 84.5354 45.8593 84.5355 45.2384 84.5351C44.9217 84.5349 44.6049 84.5349 44.2882 84.5354C43.9981 84.536 43.708 84.5359 43.4179 84.5353C43.3131 84.5352 43.2083 84.5353 43.1035 84.5357C42.2832 84.5384 41.5699 84.5194 40.9351 83.9448C40.5132 83.4964 40.3612 83.0096 40.3428 82.4001C40.3653 81.6775 40.5908 81.1808 41.1161 80.6853C41.5293 80.3582 41.9413 80.2651 42.4621 80.2645Z" fill="#115056"/>
<path d="M42.5839 70.4292C42.6783 70.4289 42.7727 70.4285 42.8671 70.4279C43.1255 70.4268 43.3839 70.4274 43.6424 70.4282C43.9215 70.4288 44.2006 70.4279 44.4796 70.4271C45.026 70.4259 45.5724 70.4262 46.1187 70.427C46.5628 70.4276 47.0069 70.4277 47.451 70.4274C47.5142 70.4273 47.5774 70.4273 47.6426 70.4272C47.771 70.4272 47.8995 70.4271 48.0279 70.427C49.2321 70.4262 50.4364 70.4271 51.6406 70.4285C52.6736 70.4297 53.7066 70.4295 54.7397 70.4283C55.9396 70.4269 57.1395 70.4263 58.3395 70.4271C58.4674 70.4272 58.5954 70.4273 58.7234 70.4274C58.8178 70.4274 58.8178 70.4274 58.9142 70.4275C59.3577 70.4277 59.8012 70.4273 60.2447 70.4267C60.7852 70.4259 61.3258 70.4262 61.8663 70.4276C62.1421 70.4283 62.4178 70.4286 62.6935 70.4277C62.9461 70.4269 63.1986 70.4273 63.4511 70.4287C63.5855 70.4292 63.7199 70.4283 63.8542 70.4274C64.4048 70.4322 64.7664 70.4972 65.2036 70.8503C65.7155 71.4369 65.8575 72.0594 65.8226 72.8258C65.7634 73.4368 65.5501 73.8501 65.1445 74.305C64.6707 74.6925 64.1865 74.6616 63.5986 74.6589C63.5042 74.6592 63.4099 74.6596 63.3156 74.66C63.057 74.661 62.7984 74.6607 62.5398 74.6602C62.2606 74.6599 61.9815 74.6607 61.7024 74.6614C61.1558 74.6626 60.6092 74.6626 60.0626 74.6623C59.6183 74.662 59.1741 74.6621 58.7298 74.6624C58.6665 74.6625 58.6033 74.6625 58.5381 74.6626C58.4097 74.6627 58.2812 74.6628 58.1527 74.6629C56.9481 74.6638 55.7434 74.6635 54.5387 74.6627C53.4367 74.662 52.3347 74.6629 51.2327 74.6645C50.101 74.6661 48.9693 74.6668 47.8376 74.6663C47.2023 74.6661 46.567 74.6663 45.9317 74.6674C45.3909 74.6684 44.8501 74.6685 44.3094 74.6673C44.0335 74.6667 43.7576 74.6666 43.4817 74.6676C43.2291 74.6685 42.9764 74.6682 42.7237 74.6669C42.5893 74.6666 42.4549 74.6675 42.3205 74.6685C41.7696 74.664 41.4081 74.5991 40.9707 74.2459C40.4589 73.6593 40.3172 73.037 40.3515 72.2707C40.4073 71.7009 40.5959 71.2799 40.9707 70.8503C41.4857 70.4344 41.9426 70.4248 42.5839 70.4292Z" fill="#115056"/>
<path d="M87.4167 48.7324C87.5323 48.7319 87.5323 48.7319 87.6503 48.7313C87.7354 48.7312 87.8205 48.7311 87.9081 48.731C87.9991 48.7307 88.0901 48.7304 88.1812 48.73C88.4318 48.7291 88.6824 48.7286 88.9331 48.7281C89.1479 48.7277 89.3627 48.727 89.5776 48.7263C90.2855 48.7241 90.9934 48.7227 91.7013 48.7214C91.8856 48.7211 92.0699 48.7208 92.2542 48.7204C93.3986 48.7183 94.543 48.7165 95.6875 48.7154C95.9526 48.7152 96.2177 48.7149 96.4828 48.7146C96.5487 48.7145 96.6146 48.7145 96.6825 48.7144C97.7499 48.7133 98.8173 48.7105 99.8847 48.7071C100.98 48.7036 102.076 48.7016 103.172 48.7012C103.787 48.7008 104.403 48.6998 105.018 48.6971C105.542 48.6948 106.066 48.6939 106.59 48.6947C106.857 48.6951 107.124 48.6949 107.392 48.6928C107.637 48.691 107.882 48.691 108.126 48.6925C108.257 48.6929 108.387 48.6912 108.517 48.6895C109.043 48.6951 109.384 48.787 109.778 49.1453C110.168 49.615 110.202 50.0983 110.199 50.6828C110.2 50.7484 110.2 50.8141 110.2 50.8817C110.201 51.1011 110.201 51.3205 110.2 51.5399C110.201 51.6975 110.201 51.855 110.201 52.0125C110.202 52.4401 110.202 52.8676 110.202 53.2951C110.202 53.6973 110.202 54.0994 110.203 54.5016C110.204 55.3467 110.203 56.1918 110.203 57.0369C110.203 57.8095 110.203 58.5821 110.205 59.3547C110.206 60.1487 110.207 60.9427 110.206 61.7367C110.206 62.1822 110.206 62.6277 110.207 63.0731C110.208 63.492 110.208 63.9109 110.207 64.3298C110.207 64.4835 110.207 64.6371 110.208 64.7908C110.208 65.0007 110.208 65.2106 110.207 65.4205C110.207 65.4812 110.208 65.5418 110.208 65.6043C110.204 66.1524 110.058 66.5975 109.711 67.0337C109.381 67.2829 109.148 67.3782 108.738 67.3792C108.661 67.3795 108.584 67.3799 108.505 67.3802C108.42 67.3802 108.335 67.3803 108.248 67.3803C108.157 67.3806 108.066 67.3809 107.975 67.3812C107.725 67.382 107.475 67.3824 107.225 67.3827C106.956 67.3831 106.687 67.3839 106.417 67.3846C105.766 67.3862 105.115 67.3872 104.464 67.3881C104.281 67.3883 104.097 67.3886 103.913 67.3889C102.772 67.3906 101.63 67.3921 100.489 67.3929C100.225 67.3931 99.9604 67.3933 99.696 67.3935C99.6303 67.3936 99.5646 67.3936 99.4969 67.3937C98.4323 67.3945 97.3677 67.3967 96.3031 67.3995C95.2103 67.4024 94.1175 67.404 93.0247 67.4043C92.411 67.4046 91.7974 67.4054 91.1837 67.4076C90.6611 67.4095 90.1386 67.4102 89.616 67.4094C89.3494 67.4091 89.0828 67.4093 88.8161 67.4109C88.5719 67.4125 88.3277 67.4124 88.0835 67.4111C87.9536 67.4109 87.8237 67.4122 87.6938 67.4137C87.1486 67.4087 86.8015 67.3183 86.4082 66.9343C86.0402 66.5229 86.0195 66.158 86.0213 65.6317C86.021 65.5645 86.0207 65.4973 86.0203 65.4281C86.0195 65.2027 86.0196 64.9773 86.0197 64.7519C86.0193 64.5904 86.0189 64.4289 86.0183 64.2674C86.0173 63.874 86.0169 63.4807 86.0168 63.0874C86.0167 62.7676 86.0164 62.4478 86.016 62.128C86.0148 61.221 86.0142 60.314 86.0143 59.4069C86.0143 59.358 86.0143 59.3092 86.0143 59.2588C86.0143 59.2099 86.0143 59.1609 86.0143 59.1105C86.0144 58.3174 86.0131 57.5244 86.0112 56.7314C86.0093 55.9167 86.0084 55.1021 86.0085 54.2874C86.0085 53.8302 86.0082 53.373 86.0067 52.9158C86.0053 52.4857 86.0054 52.0557 86.0064 51.6256C86.0065 51.4678 86.0062 51.3101 86.0054 51.1523C86.0043 50.9368 86.005 50.7213 86.006 50.5058C86.0053 50.4435 86.0046 50.3812 86.0039 50.317C86.009 49.8412 86.1254 49.4845 86.4451 49.1267C86.4901 49.0899 86.5351 49.053 86.5815 49.0151C86.6266 48.977 86.6718 48.9389 86.7183 48.8997C86.9475 48.7374 87.1445 48.7332 87.4167 48.7324ZM87.3154 50.147C87.2704 50.2108 87.2704 50.2108 87.2245 50.276C87.1935 50.318 87.1625 50.3601 87.1305 50.4034C86.9198 50.7972 86.8938 51.1771 86.8955 51.614C86.8952 51.6713 86.8949 51.7287 86.8946 51.7877C86.8937 51.9789 86.8939 52.1701 86.894 52.3613C86.8936 52.4988 86.8931 52.6362 86.8926 52.7737C86.8914 53.1465 86.8911 53.5193 86.891 53.8921C86.8909 54.1251 86.8906 54.3582 86.8903 54.5913C86.889 55.4048 86.8885 56.2184 86.8886 57.0319C86.8887 57.7895 86.8872 58.5472 86.8851 59.3048C86.8834 59.9559 86.8826 60.607 86.8827 61.2581C86.8828 61.6466 86.8824 62.0352 86.8809 62.4238C86.8796 62.7894 86.8796 63.155 86.8806 63.5205C86.8808 63.6544 86.8804 63.7883 86.8796 63.9221C86.8578 65.0114 86.8578 65.0114 87.3506 65.9535C87.6827 66.2275 87.8874 66.3694 88.3279 66.3702C88.3982 66.3705 88.4686 66.3708 88.5411 66.3712C88.6186 66.3711 88.6962 66.3711 88.776 66.3711C88.8582 66.3714 88.9404 66.3716 89.0251 66.3719C89.2536 66.3725 89.4821 66.3728 89.7107 66.373C89.957 66.3732 90.2033 66.3739 90.4496 66.3745C91.0447 66.3758 91.6397 66.3765 92.2348 66.3771C92.515 66.3774 92.7952 66.3777 93.0754 66.3781C94.0068 66.3792 94.9382 66.3802 95.8696 66.3807C96.1113 66.3808 96.3531 66.3809 96.5948 66.3811C96.6549 66.3811 96.7149 66.3811 96.7768 66.3812C97.7501 66.3817 98.7234 66.3834 99.6967 66.3856C100.696 66.3878 101.695 66.389 102.694 66.3893C103.255 66.3894 103.816 66.39 104.377 66.3917C104.855 66.3932 105.333 66.3937 105.811 66.3931C106.054 66.3928 106.298 66.3929 106.542 66.3942C106.806 66.3956 107.071 66.3949 107.335 66.394C107.412 66.3948 107.489 66.3955 107.568 66.3963C108.075 66.3921 108.457 66.3262 108.838 65.9625C108.868 65.9193 108.898 65.8761 108.929 65.8316C108.96 65.7888 108.991 65.746 109.023 65.7019C109.233 65.3271 109.26 64.9862 109.258 64.568C109.259 64.4813 109.259 64.4813 109.259 64.3928C109.26 64.1996 109.26 64.0063 109.26 63.813C109.26 63.6743 109.261 63.5355 109.261 63.3967C109.262 63.02 109.263 62.6434 109.263 62.2667C109.263 62.0312 109.263 61.7957 109.264 61.5603C109.265 60.7384 109.265 59.9166 109.265 59.0948C109.265 58.3293 109.267 57.5639 109.269 56.7984C109.27 56.1407 109.271 55.4831 109.271 54.8254C109.271 54.4329 109.271 54.0403 109.273 53.6477C109.274 53.2783 109.274 52.909 109.273 52.5396C109.273 52.4043 109.273 52.269 109.274 52.1337C109.314 51.074 109.314 51.074 108.852 50.16C108.555 49.886 108.294 49.7339 107.884 49.7333C107.813 49.7329 107.742 49.7324 107.67 49.732C107.592 49.7322 107.514 49.7324 107.434 49.7326C107.311 49.7322 107.311 49.7322 107.184 49.7317C106.955 49.731 106.726 49.7309 106.497 49.731C106.25 49.7311 106.003 49.7303 105.756 49.7297C105.271 49.7286 104.787 49.7282 104.303 49.7281C103.91 49.7281 103.516 49.7278 103.122 49.7274C102.006 49.7262 100.891 49.7256 99.7748 49.7257C99.7147 49.7257 99.6545 49.7257 99.5925 49.7257C99.5322 49.7257 99.472 49.7257 99.4099 49.7257C98.4338 49.7257 97.4577 49.7245 96.4816 49.7226C95.4794 49.7206 94.4772 49.7197 93.475 49.7198C92.9123 49.7199 92.3496 49.7195 91.7869 49.718C91.3078 49.7168 90.8286 49.7165 90.3495 49.7174C90.1051 49.7179 89.8607 49.7179 89.6162 49.7167C89.3511 49.7155 89.086 49.7163 88.8208 49.7173C88.7438 49.7166 88.6668 49.716 88.5875 49.7152C88.0789 49.7196 87.7003 49.7867 87.3154 50.147Z" fill="#115056"/>
<path d="M53.5983 41.855C53.7597 41.8821 53.7597 41.8821 53.8942 42.0166C53.8979 42.2118 53.8979 42.2118 53.8784 42.4607C53.8732 42.528 53.8732 42.528 53.8678 42.5966C53.8248 43.1088 53.7514 43.6166 53.6756 44.1247C53.6608 44.2264 53.646 44.328 53.6312 44.4296C53.5926 44.6938 53.5536 44.958 53.5145 45.2221C53.4747 45.4914 53.4355 45.7606 53.3961 46.0299C53.3386 46.4233 53.2809 46.8166 53.2227 47.2098C53.2054 47.3276 53.2054 47.3276 53.1876 47.4477C53.1654 47.5934 53.1419 47.739 53.1171 47.8843C53.0874 48.0681 53.0782 48.2404 53.0788 48.4263C53.0786 48.4843 53.0784 48.5423 53.0783 48.6021C53.0717 48.7409 53.0717 48.7409 53.1544 48.8088C53.3269 48.8158 53.4977 48.8185 53.6702 48.8184C53.7242 48.8186 53.7782 48.8188 53.8339 48.8191C53.9516 48.8196 54.0693 48.8199 54.187 48.8202C54.3733 48.8206 54.5595 48.8217 54.7458 48.8229C55.2754 48.8265 55.8051 48.8297 56.3348 48.8307C56.6584 48.8314 56.982 48.8334 57.3056 48.8362C57.4291 48.837 57.5526 48.8374 57.6761 48.8372C57.8488 48.8371 58.0215 48.8386 58.1943 48.8404C58.271 48.8398 58.271 48.8398 58.3492 48.8391C58.5838 48.8432 58.7137 48.8593 58.9042 49.0014C59.0051 49.1451 59.0051 49.1451 59.0104 49.3276C58.9124 49.6262 58.7578 49.8636 58.5848 50.1244C58.5105 50.2392 58.4363 50.3541 58.3621 50.469C58.3237 50.5282 58.2853 50.5873 58.2457 50.6482C58.0636 50.9308 57.887 51.2168 57.7106 51.503C57.6748 51.561 57.6389 51.6189 57.602 51.6787C57.4001 52.0055 57.1988 52.3326 56.9976 52.6599C56.5186 53.4394 56.0376 54.2174 55.5518 54.9927C55.1493 55.6358 54.7519 56.2822 54.3547 56.9287C54.1193 57.3118 53.883 57.6944 53.6462 58.0766C53.611 58.1335 53.5758 58.1903 53.5396 58.2488C53.3968 58.4793 53.254 58.7097 53.1111 58.94C52.658 59.6708 52.2063 60.4025 51.7585 61.1365C51.7322 61.1793 51.7059 61.222 51.6788 61.2661C51.616 61.3706 51.5575 61.4776 51.4997 61.5849C51.4688 61.6297 51.4378 61.6745 51.406 61.7207C51.1916 61.7417 51.1916 61.7417 51.0025 61.7207C50.831 61.4326 50.8812 61.2324 50.9585 60.925C50.9751 60.8635 50.9917 60.8021 51.0088 60.7388C51.0258 60.6723 51.0429 60.6058 51.0605 60.5372C51.1186 60.3122 51.1782 60.0876 51.2378 59.863C51.2793 59.7032 51.3208 59.5435 51.3621 59.3837C51.6203 58.3899 51.8859 57.3982 52.1509 56.4062C52.2018 56.2156 52.2526 56.025 52.3035 55.8343C52.3373 55.7072 52.3712 55.5801 52.4051 55.453C52.4219 55.3902 52.4386 55.3273 52.4559 55.2625C52.5569 54.884 52.6585 54.5057 52.7607 54.1275C52.8251 53.8887 52.889 53.6497 52.9529 53.4108C52.9829 53.2987 53.0132 53.1868 53.0436 53.0749C53.0856 52.9205 53.1269 52.7658 53.1681 52.6112C53.1804 52.5665 53.1928 52.5218 53.2055 52.4757C53.2806 52.1894 53.3057 51.9289 53.2889 51.6333C53.1523 51.4966 52.8679 51.5557 52.6802 51.5554C52.6234 51.5551 52.5667 51.5548 52.5082 51.5544C52.3845 51.5537 52.2609 51.5531 52.1372 51.5526C51.9417 51.5519 51.7461 51.5506 51.5506 51.5491C50.9945 51.5449 50.4383 51.5413 49.8822 51.5391C49.5424 51.5377 49.2027 51.5353 48.863 51.5323C48.7332 51.5313 48.6035 51.5307 48.4738 51.5305C48.2925 51.5302 48.1112 51.5286 47.9299 51.5268C47.8491 51.5271 47.8491 51.5271 47.7666 51.5274C47.4048 51.522 47.4048 51.522 47.235 51.4058C47.1692 51.297 47.1692 51.297 47.1716 51.1431C47.2549 50.909 47.3867 50.7277 47.5352 50.5316C47.597 50.4474 47.6588 50.3631 47.7204 50.2788C47.7519 50.2357 47.7835 50.1927 47.816 50.1483C47.9606 49.9477 48.0979 49.7426 48.2345 49.5365C48.2618 49.4954 48.2891 49.4543 48.3172 49.4119C48.3742 49.3259 48.4311 49.2399 48.488 49.1539C48.6478 48.9123 48.8083 48.6712 48.9687 48.43C49.0026 48.3791 49.0364 48.3282 49.0713 48.2757C49.6619 47.3884 50.2603 46.5063 50.8574 45.6233C51.0911 45.2776 51.3245 44.9317 51.5576 44.5855C51.7102 44.359 51.8628 44.1326 52.0155 43.9061C52.0871 43.7998 52.1587 43.6935 52.2302 43.5872C52.4196 43.3057 52.6098 43.0248 52.8016 42.745C52.8822 42.6266 52.9613 42.5074 53.0403 42.388C53.0867 42.32 53.1332 42.2519 53.181 42.1819C53.2397 42.0941 53.2397 42.0941 53.2997 42.0045C53.4234 41.8821 53.4234 41.8821 53.5983 41.855Z" fill="#115056"/>
<path d="M98.3459 52.0371C98.52 52.1244 98.6581 52.241 98.804 52.3691C98.8439 52.4023 98.8838 52.4355 98.9249 52.4697C99.0065 52.5378 99.0878 52.6064 99.1686 52.6755C99.3484 52.8289 99.5324 52.9769 99.7161 53.1257C99.8198 53.211 99.9235 53.2965 100.027 53.3821C100.033 53.3086 100.038 53.235 100.044 53.1593C100.094 52.9113 100.094 52.9113 100.202 52.7966C100.424 52.677 100.597 52.6834 100.849 52.6828C100.918 52.6825 100.918 52.6825 100.99 52.6822C101.088 52.6821 101.186 52.6824 101.285 52.6833C101.434 52.6843 101.584 52.6833 101.734 52.682C101.83 52.6821 101.925 52.6824 102.021 52.6828C102.108 52.683 102.195 52.6832 102.284 52.6835C102.529 52.7111 102.657 52.763 102.852 52.9113C102.93 53.068 102.927 53.1583 102.926 53.3327C102.926 53.3919 102.926 53.4512 102.926 53.5122C102.926 53.5762 102.926 53.6403 102.925 53.7062C102.925 53.8045 102.925 53.8045 102.925 53.9047C102.925 54.1144 102.924 54.324 102.923 54.5337C102.923 54.6757 102.922 54.8176 102.922 54.9595C102.921 55.308 102.92 55.6564 102.919 56.0048C102.959 56.0236 102.999 56.0424 103.041 56.0618C103.256 56.1749 103.426 56.3345 103.604 56.4966C103.641 56.5284 103.677 56.5603 103.715 56.5931C103.877 56.7395 103.985 56.8523 104.058 57.0598C104.063 57.2745 103.985 57.3805 103.86 57.5515C103.726 57.686 103.726 57.686 103.537 57.7107C103.271 57.6801 103.174 57.6009 102.973 57.4254C102.917 57.3771 102.861 57.3287 102.802 57.2789C102.771 57.2487 102.739 57.2186 102.706 57.1876C102.577 57.0713 102.577 57.0713 102.395 56.9579C101.891 56.5916 101.891 56.5916 101.804 56.2628C101.75 55.8495 101.775 55.4362 101.797 55.0213C101.8 54.8947 101.804 54.7682 101.807 54.6417C101.815 54.3336 101.828 54.0261 101.843 53.7183C101.599 53.7183 101.355 53.7183 101.103 53.7183C101.106 53.788 101.109 53.8577 101.113 53.9295C101.115 54.0216 101.118 54.1137 101.12 54.2059C101.122 54.2517 101.124 54.2976 101.127 54.3448C101.131 54.5776 101.122 54.7021 100.98 54.8902C100.789 55.0289 100.666 55.0586 100.431 55.0633C100.077 54.9199 99.8235 54.7012 99.5437 54.4496C99.4548 54.3713 99.3659 54.293 99.2768 54.2148C99.2332 54.1763 99.1896 54.1379 99.1447 54.0982C98.9658 53.9412 98.7849 53.787 98.6022 53.6342C98.5458 53.5867 98.4894 53.5392 98.4312 53.4903C98.2785 53.382 98.1933 53.3373 98.0096 53.3148C97.8415 53.4382 97.6951 53.5605 97.5431 53.7015C97.4522 53.7831 97.3613 53.8646 97.2704 53.9461C97.225 53.9872 97.1796 54.0283 97.1328 54.0707C96.9452 54.239 96.7528 54.4013 96.5595 54.5631C96.2945 54.7863 96.0307 55.0109 95.768 55.2369C95.2236 55.7055 94.6705 56.1618 94.1091 56.61C94.1748 56.6553 94.2404 56.7006 94.308 56.7472C94.4868 56.8973 94.51 56.934 94.5612 57.1756C94.5603 57.2633 94.5594 57.351 94.5584 57.4413C94.5585 57.4906 94.5585 57.54 94.5586 57.5909C94.5583 57.7499 94.5552 57.9087 94.552 58.0677C94.5514 58.1662 94.551 58.2647 94.5508 58.3631C94.5487 58.7273 94.5431 59.0914 94.5379 59.4555C94.5295 60.2697 94.5212 61.0839 94.5126 61.9227C96.9316 61.9227 99.3506 61.9227 101.843 61.9227C101.843 61.146 101.843 60.3693 101.843 59.569C102.112 59.3 102.112 59.3 102.249 59.2667C102.616 59.2773 102.616 59.2773 102.78 59.3883C102.905 59.5863 102.928 59.7587 102.93 59.9865C102.93 60.0433 102.931 60.1001 102.932 60.1586C102.932 60.2504 102.932 60.2504 102.932 60.344C102.933 60.4071 102.933 60.4702 102.934 60.5352C102.934 60.6687 102.935 60.8022 102.935 60.9357C102.936 61.1397 102.938 61.3437 102.94 61.5476C102.94 61.6774 102.941 61.8072 102.941 61.9369C102.942 61.9978 102.943 62.0587 102.943 62.1214C102.942 62.4791 102.916 62.7327 102.65 62.9987C102.534 63.0057 102.417 63.0078 102.301 63.0082C102.225 63.0086 102.15 63.009 102.072 63.0093C101.946 63.0095 101.946 63.0095 101.818 63.0096C101.731 63.0099 101.643 63.0102 101.553 63.0106C101.312 63.0115 101.071 63.0119 100.83 63.0122C100.68 63.0124 100.529 63.0127 100.379 63.013C99.9086 63.0139 99.4384 63.0145 98.9682 63.0148C98.4247 63.0151 97.8813 63.0163 97.3378 63.0182C96.9182 63.0197 96.4986 63.0204 96.079 63.0205C95.8282 63.0205 95.5774 63.0209 95.3265 63.0221C95.0468 63.0234 94.7672 63.0231 94.4874 63.0227C94.404 63.0233 94.3206 63.0239 94.2346 63.0246C94.1586 63.0242 94.0826 63.0238 94.0043 63.0235C93.9381 63.0236 93.8719 63.0236 93.8038 63.0238C93.6384 62.9987 93.6384 62.9987 93.5162 62.91C93.3861 62.7252 93.4104 62.5225 93.4137 62.3049C93.4137 62.2301 93.4137 62.2301 93.4137 62.1538C93.4138 61.9889 93.4154 61.8241 93.4169 61.6593C93.4173 61.545 93.4176 61.4307 93.4178 61.3164C93.4186 61.0155 93.4206 60.7147 93.4228 60.4139C93.4249 60.1069 93.4258 59.7999 93.4268 59.493C93.429 58.8906 93.4324 58.2883 93.4366 57.686C93.3713 57.6876 93.306 57.6892 93.2387 57.6909C93.1107 57.6928 93.1107 57.6928 92.9801 57.6947C92.853 57.6971 92.853 57.6971 92.7233 57.6996C92.4952 57.686 92.4952 57.686 92.2682 57.5473C92.1302 57.2979 92.1254 57.1614 92.1589 56.879C92.277 56.7327 92.3734 56.6337 92.5162 56.5176C92.5527 56.486 92.5892 56.4545 92.6269 56.422C92.7387 56.3262 92.8519 56.2325 92.9659 56.1393C93.0611 56.0609 93.0611 56.0609 93.1582 55.9809C93.2795 55.8819 93.4011 55.7833 93.5231 55.6851C93.7128 55.5281 93.8943 55.3646 94.0755 55.1978C94.3761 54.9211 94.6868 54.6618 95.0047 54.4053C95.1816 54.2592 95.3519 54.1082 95.5214 53.9537C95.7498 53.7455 95.9828 53.5467 96.2233 53.3526C96.4854 53.1409 96.7365 52.9214 96.9841 52.6928C97.8086 51.9419 97.8086 51.9419 98.3459 52.0371Z" fill="#115056"/>
</svg>
