<svg width="100" height="101" viewBox="0 0 100 101" fill="none" xmlns="http://www.w3.org/2000/svg">
<path d="M37.4603 100.33C25.7423 100.33 14.0211 100.33 2.30311 100.33C0.399706 100.33 -0.0218945 99.9243 -0.00019449 98.0209C0.102106 89.2386 0.405906 80.4749 2.25971 71.8383C4.00501 63.707 8.34502 57.6 16.157 54.376C18.2247 53.5235 20.5528 53.2662 22.7849 52.8539C23.47 52.7268 23.8916 52.5966 24.1148 51.8836C24.4868 50.7056 25.3796 49.5182 25.268 48.4146C25.1626 47.4009 24.0063 46.505 23.3367 45.5378C20.9868 42.1371 19.6383 38.3551 19.6817 34.2383C19.7313 29.6658 19.4027 25.1522 18.6742 20.6479C17.6853 14.5409 20.2087 9.86917 25.0293 6.44366C31.4835 1.86805 38.6848 0.0700474 46.5743 1.42475C49.5255 1.93315 51.5529 3.43045 52.6348 6.32586C53.0099 7.33336 53.9213 8.22926 54.78 8.94847C56.5129 10.4055 57.8087 12.1322 58.6891 14.1937C59.6687 16.4753 59.7059 18.7724 58.7387 21.0664C58.4845 21.6709 58.2644 22.3126 57.8924 22.8427C56.3052 25.1026 56.0076 27.5981 56.0634 30.3013C56.1161 32.989 55.927 35.717 55.4837 38.3675C54.8978 41.8674 53.1804 44.9116 50.7872 47.5373C50.3284 48.0395 50.316 48.4456 50.471 49.0811C51.0507 51.4434 51.8443 53.4863 54.8854 53.1391C64.0149 55.3246 69.7034 61.0689 72.1773 70.0279C73.9877 76.5937 74.4186 83.3548 74.7224 90.119C74.8433 92.785 74.8681 95.4541 74.9053 98.1201C74.9301 99.8809 74.4682 100.327 72.7353 100.327C60.9769 100.327 49.2186 100.327 37.4603 100.327V100.33ZM31.9578 69.4265C31.778 69.5443 31.5889 69.6621 31.406 69.7861C29.5336 71.0478 29.2856 71.0261 27.7201 69.3304C24.338 65.6662 20.9527 62.0051 17.6047 58.3099C17.0498 57.6961 16.6468 57.5473 15.8625 57.9658C10.2391 60.9697 6.97792 65.6972 5.55192 71.8197C3.98331 78.556 3.59271 85.4225 3.29201 92.2983C3.22381 93.87 3.28271 95.4479 3.28271 97.0692H13.9715C13.9715 96.5081 13.9715 96.0462 13.9715 95.5843C13.9715 90.6739 13.9715 85.7666 13.9746 80.8562C13.9746 80.4346 13.9622 79.9944 14.0614 79.5914C14.2629 78.7761 14.8426 78.3297 15.6703 78.3793C16.4856 78.4258 17.0374 78.897 17.1521 79.7464C17.2048 80.1277 17.1893 80.5183 17.1893 80.9027C17.1893 85.9278 17.2172 90.9529 17.1676 95.978C17.1583 96.9669 17.4714 97.2025 18.4138 97.1901C22.0471 97.1405 25.6803 97.1715 29.3166 97.1684C29.6545 97.1684 29.9924 97.1281 30.3458 97.1064C30.4295 96.6476 30.5163 96.2725 30.569 95.8943C31.5145 88.9658 32.3608 82.0218 33.4582 75.1181C33.8116 72.8954 33.3652 71.1408 31.9547 69.4327L31.9578 69.4265ZM71.4332 97.1188C71.4332 94.0839 71.5511 91.1885 71.4085 88.3024C71.117 82.4682 70.6024 76.6526 69.1299 70.9703C67.6233 65.1609 64.3156 60.7651 58.9743 57.9348C58.2985 57.5783 57.9234 57.6651 57.4181 58.2231C54.1166 61.8594 50.7841 65.4678 47.4485 69.0731C45.5172 71.1594 45.5079 71.1501 43.1426 69.6063C43.0899 69.5722 43.0031 69.5939 42.8543 69.5846C42.5629 70.0806 42.3118 70.6603 41.9274 71.1284C41.1648 72.0584 41.1958 73.0876 41.357 74.1757C41.7166 76.6185 42.0576 79.0675 42.3955 81.5134C43.1054 86.6718 43.8122 91.8333 44.5283 97.0723H57.7157V95.7207C57.7157 90.77 57.7157 85.8193 57.7157 80.8686C57.7157 80.4811 57.6971 80.0905 57.756 79.7123C57.8862 78.866 58.4783 78.2894 59.2564 78.4134C59.8268 78.5033 60.3941 79.052 60.8002 79.5356C61.0234 79.7991 60.9304 80.3509 60.9304 80.7725C60.9366 85.7604 60.9335 90.7514 60.9335 95.7393C60.9335 96.1857 60.9335 96.6321 60.9335 97.1157H71.4363L71.4332 97.1188ZM22.8252 31.1879C22.85 31.1879 22.8748 31.1879 22.9027 31.1879C22.9027 32.4248 22.8407 33.6617 22.9151 34.8955C23.1104 38.0885 24.0838 41.049 25.95 43.6468C29.3693 48.4053 33.9294 50.9256 39.8938 50.0545C46.007 49.1586 51.0476 44.2172 52.3434 37.7134C52.8704 35.0567 52.6317 32.2543 52.9262 29.5387C53.1556 27.4121 52.579 25.8528 50.7314 24.6965C50.1517 24.3338 49.7735 24.154 49.0946 24.4206C41.5213 27.3873 33.9697 27.4896 26.446 24.1943C26.1484 24.0641 25.5997 24.1168 25.3548 24.3152C22.8159 26.386 22.8252 26.3984 22.8252 29.6813V31.1879ZM54.005 23.3666C54.4266 22.573 54.7459 21.9158 55.1117 21.2865C56.8663 18.2764 56.7206 15.5174 53.4563 12.0919C53.1122 11.7292 52.7061 11.4223 52.3031 11.1216C51.0042 10.1389 50.0029 8.92677 49.5224 7.35816C49.0357 5.76476 47.96 4.97116 46.3759 4.66736C38.7499 3.20415 31.9485 5.11996 25.919 9.82267C21.6503 13.1521 21.0519 17.6905 22.2858 23.0721C22.8934 22.356 23.3336 21.7825 23.8327 21.2648C25.0324 20.0155 25.3393 19.9845 26.8428 20.7781C29.5088 22.1886 32.3608 22.976 35.3492 23.3015C40.2069 23.8316 44.8166 22.8954 49.2248 20.8835C50.2571 20.4123 51.0445 20.5177 51.8226 21.3423C52.455 22.015 53.1742 22.604 54.005 23.3697V23.3666ZM37.4572 61.6114C41.2516 58.9826 44.9871 56.3941 48.7536 53.7839C48.332 52.6214 47.9476 51.5519 47.5539 50.4638C40.9943 54.4938 34.5587 54.4411 28.0828 50.4111C27.7046 51.4124 27.3171 52.3362 27.0226 53.2879C26.9451 53.5328 27.0629 54.0009 27.2551 54.1435C30.631 56.6452 34.0348 59.1128 37.4572 61.6083V61.6114ZM36.8124 73.9432C35.7584 81.6343 34.7075 89.313 33.6504 97.0413H41.0935C41.0935 96.7282 41.1152 96.5329 41.0904 96.3438C40.1139 89.1146 39.125 81.8885 38.1578 74.6593C38.0555 73.8874 37.6711 73.689 36.8124 73.9432ZM34.6672 63.552C31.6106 61.3231 28.616 59.3236 25.8415 57.0513C24.0373 55.5726 22.2951 56.1151 20.1994 56.4034C23.5382 60.0304 26.7095 63.4807 29.8808 66.9279C31.5269 65.7685 33.0366 64.7021 34.6641 63.552H34.6672ZM54.5816 56.4654C52.6131 55.9012 50.9391 55.7741 49.448 57.1877C48.8373 57.7643 48.0654 58.1704 47.3679 58.654C45.0336 60.2722 42.6962 61.8904 40.2286 63.6016C41.8995 64.7393 43.4402 65.7902 45.015 66.8628C48.2173 63.3815 51.3483 59.9808 54.5816 56.4685V56.4654ZM40.1821 67.5138C39.3885 66.9403 38.6662 66.373 37.8912 65.8925C37.668 65.7561 37.2216 65.7499 36.9984 65.8863C36.2172 66.3575 35.4918 66.9155 34.7013 67.4704C35.1942 68.3725 35.6189 69.1878 36.0839 69.9814C36.5303 70.7409 38.257 70.8215 38.7282 70.0868C39.2428 69.2839 39.6737 68.4283 40.1821 67.5169V67.5138Z" fill="#115056"/>
<path d="M83.5912 40.7393C83.7834 41.5329 83.8795 42.2242 84.1337 42.8504C84.236 43.0984 84.6824 43.3247 84.9893 43.3495C87.9498 43.582 89.723 45.07 90.4453 47.9902C90.6809 48.9388 90.1601 49.6115 89.0627 49.6518C87.7514 49.6983 86.4339 49.6642 85.1195 49.6642C80.4416 49.6642 75.7637 49.6673 71.0858 49.6642C69.2165 49.6642 68.8166 49.0008 69.449 47.2896C70.3821 44.7693 72.022 43.3185 74.812 43.3433C75.0538 43.3433 75.432 43.0488 75.5219 42.8039C75.7482 42.1994 75.8443 41.5484 76.0365 40.7393C75.525 40.7393 75.1189 40.7393 74.7128 40.7393C70.2674 40.7393 65.822 40.7393 61.3735 40.7393C59.8452 40.7393 59.4328 40.2619 59.6871 38.746C60.8992 31.4702 62.1206 24.1976 63.3265 16.9188C63.4939 15.9144 63.9992 15.437 65.0377 15.437C74.8957 15.4494 84.7568 15.4463 94.6148 15.437C95.6533 15.437 96.1276 15.9361 96.295 16.9467C97.4916 24.2255 98.7192 31.4981 99.9313 38.7739C100.179 40.2619 99.7732 40.7331 98.2015 40.7331C93.7933 40.7393 89.3851 40.7331 84.98 40.7331C84.5615 40.7331 84.143 40.7331 83.5912 40.7331V40.7393ZM89.8532 38.281C89.6393 36.1482 89.4378 34.1301 89.2332 32.0902H84.7878V38.281H89.8501H89.8532ZM74.8802 32.0623H70.3945C70.193 34.1549 69.9946 36.1885 69.7993 38.2345H74.8802V32.0623ZM77.4532 32.0344V38.2314H82.1497V32.0344H77.4532ZM91.6946 32.0065C91.9147 34.189 92.1193 36.204 92.3301 38.2686H97.3521C97.0328 36.3218 96.7352 34.4308 96.388 32.549C96.3477 32.3382 96.0067 32.0375 95.7959 32.0282C94.4629 31.9817 93.1268 32.0034 91.6977 32.0034L91.6946 32.0065ZM67.9362 32.0065C66.4916 32.0065 65.1524 31.9879 63.8132 32.0282C63.6241 32.0344 63.3141 32.2948 63.2831 32.4777C62.9297 34.3905 62.6228 36.3125 62.2942 38.2717H67.3007C67.5084 36.2071 67.713 34.189 67.9362 32.0065ZM90.9413 24.5386C91.118 26.2405 91.2885 27.8649 91.4528 29.4521H95.892C95.6006 27.7409 95.3247 26.1289 95.055 24.5386H90.9413ZM81.9048 29.4986V24.5603H77.6888V29.4986H81.9048ZM68.6895 24.5386H64.5758C64.2999 26.2095 64.0364 27.8153 63.7636 29.4707H68.1811C68.3516 27.8122 68.5159 26.2157 68.6864 24.5386H68.6895ZM88.483 24.5603H84.5088V29.4645H88.9604C88.7961 27.7874 88.6411 26.1878 88.483 24.5603ZM71.1478 24.5293C70.9928 26.1878 70.8378 27.8091 70.6828 29.4583H75.153V24.5293H71.1478ZM72.2638 47.0788H87.2585C87.3019 46.9424 87.3484 46.806 87.3918 46.6727C86.6602 46.3875 85.9348 45.8729 85.197 45.8543C81.6103 45.7675 78.0205 45.8109 74.4307 45.8202C73.5348 45.8202 72.8032 46.155 72.2638 47.0819V47.0788ZM90.7057 21.9501H94.6458C94.404 20.5737 94.1839 19.2996 93.9607 18.0317H90.2934C90.436 19.3833 90.5693 20.6667 90.7057 21.9501ZM88.2195 21.9749C88.08 20.6109 87.9498 19.3244 87.8196 18.0472H84.298V21.9749H88.2164H88.2195ZM71.8019 18.0472C71.6748 19.3864 71.5539 20.6419 71.4268 21.9656H75.3824V18.0472H71.8019ZM65.0098 21.9904H68.9282C69.0677 20.6667 69.201 19.3802 69.3405 18.0472H65.6701C65.45 19.3523 65.2423 20.5985 65.0098 21.9904ZM77.9647 21.9625H81.6351V18.0472H77.9647V21.9625ZM81.6103 43.2627C81.2538 40.7176 81.1887 40.606 79.3318 40.761C77.6671 40.8974 78.5816 42.435 77.8159 43.2627H81.6103Z" fill="#115056"/>
</svg>
