<svg width="140" height="141" viewBox="0 0 140 141" fill="none" xmlns="http://www.w3.org/2000/svg">
<rect x="0.5" y="1.48438" width="139" height="138.346" rx="9.5" fill="white"/>
<rect x="0.5" y="1.48438" width="139" height="138.346" rx="9.5" stroke="#115056"/>
<g clip-path="url(#clip0_171_3455)">
<path d="M57.4603 120.33C45.7423 120.33 34.0211 120.33 22.3031 120.33C20.3997 120.33 19.9781 119.924 19.9998 118.021C20.1021 109.239 20.4059 100.475 22.2597 91.8383C24.005 83.707 28.345 77.6 36.157 74.376C38.2247 73.5235 40.5528 73.2662 42.7849 72.8539C43.47 72.7268 43.8916 72.5966 44.1148 71.8836C44.4868 70.7056 45.3796 69.5182 45.268 68.4146C45.1626 67.4009 44.0063 66.505 43.3367 65.5378C40.9868 62.1371 39.6383 58.3551 39.6817 54.2383C39.7313 49.6658 39.4027 45.1522 38.6742 40.6479C37.6853 34.5409 40.2087 29.8692 45.0293 26.4437C51.4835 21.8681 58.6848 20.07 66.5743 21.4248C69.5255 21.9332 71.5529 23.4305 72.6348 26.3259C73.0099 27.3334 73.9213 28.2293 74.78 28.9485C76.5129 30.4055 77.8087 32.1322 78.6891 34.1937C79.6687 36.4753 79.7059 38.7724 78.7387 41.0664C78.4845 41.6709 78.2644 42.3126 77.8924 42.8427C76.3052 45.1026 76.0076 47.5981 76.0634 50.3013C76.1161 52.989 75.927 55.717 75.4837 58.3675C74.8978 61.8674 73.1804 64.9116 70.7872 67.5373C70.3284 68.0395 70.316 68.4456 70.471 69.0811C71.0507 71.4434 71.8443 73.4863 74.8854 73.1391C84.0149 75.3246 89.7034 81.0689 92.1773 90.0279C93.9877 96.5937 94.4186 103.355 94.7224 110.119C94.8433 112.785 94.8681 115.454 94.9053 118.12C94.9301 119.881 94.4682 120.327 92.7353 120.327C80.9769 120.327 69.2186 120.327 57.4603 120.327V120.33ZM51.9578 89.4265C51.778 89.5443 51.5889 89.6621 51.406 89.7861C49.5336 91.0478 49.2856 91.0261 47.7201 89.3304C44.338 85.6662 40.9527 82.0051 37.6047 78.3099C37.0498 77.6961 36.6468 77.5473 35.8625 77.9658C30.2391 80.9697 26.9779 85.6972 25.5519 91.8197C23.9833 98.556 23.5927 105.423 23.292 112.298C23.2238 113.87 23.2827 115.448 23.2827 117.069H33.9715C33.9715 116.508 33.9715 116.046 33.9715 115.584C33.9715 110.674 33.9715 105.767 33.9746 100.856C33.9746 100.435 33.9622 99.9944 34.0614 99.5914C34.2629 98.7761 34.8426 98.3297 35.6703 98.3793C36.4856 98.4258 37.0374 98.897 37.1521 99.7464C37.2048 100.128 37.1893 100.518 37.1893 100.903C37.1893 105.928 37.2172 110.953 37.1676 115.978C37.1583 116.967 37.4714 117.203 38.4138 117.19C42.0471 117.141 45.6803 117.172 49.3166 117.168C49.6545 117.168 49.9924 117.128 50.3458 117.106C50.4295 116.648 50.5163 116.273 50.569 115.894C51.5145 108.966 52.3608 102.022 53.4582 95.1181C53.8116 92.8954 53.3652 91.1408 51.9547 89.4327L51.9578 89.4265ZM91.4332 117.119C91.4332 114.084 91.5511 111.189 91.4085 108.302C91.117 102.468 90.6024 96.6526 89.1299 90.9703C87.6233 85.1609 84.3156 80.7651 78.9743 77.9348C78.2985 77.5783 77.9234 77.6651 77.4181 78.2231C74.1166 81.8594 70.7841 85.4678 67.4485 89.0731C65.5172 91.1594 65.5079 91.1501 63.1426 89.6063C63.0899 89.5722 63.0031 89.5939 62.8543 89.5846C62.5629 90.0806 62.3118 90.6603 61.9274 91.1284C61.1648 92.0584 61.1958 93.0876 61.357 94.1757C61.7166 96.6185 62.0576 99.0675 62.3955 101.513C63.1054 106.672 63.8122 111.833 64.5283 117.072H77.7157V115.721C77.7157 110.77 77.7157 105.819 77.7157 100.869C77.7157 100.481 77.6971 100.091 77.756 99.7123C77.8862 98.866 78.4783 98.2894 79.2564 98.4134C79.8268 98.5033 80.3941 99.052 80.8002 99.5356C81.0234 99.7991 80.9304 100.351 80.9304 100.773C80.9366 105.76 80.9335 110.751 80.9335 115.739C80.9335 116.186 80.9335 116.632 80.9335 117.116H91.4363L91.4332 117.119ZM42.8252 51.1879C42.85 51.1879 42.8748 51.1879 42.9027 51.1879C42.9027 52.4248 42.8407 53.6617 42.9151 54.8955C43.1104 58.0885 44.0838 61.049 45.95 63.6468C49.3693 68.4053 53.9294 70.9256 59.8938 70.0545C66.007 69.1586 71.0476 64.2172 72.3434 57.7134C72.8704 55.0567 72.6317 52.2543 72.9262 49.5387C73.1556 47.4121 72.579 45.8528 70.7314 44.6965C70.1517 44.3338 69.7735 44.154 69.0946 44.4206C61.5213 47.3873 53.9697 47.4896 46.446 44.1943C46.1484 44.0641 45.5997 44.1168 45.3548 44.3152C42.8159 46.386 42.8252 46.3984 42.8252 49.6813V51.1879ZM74.005 43.3666C74.4266 42.573 74.7459 41.9158 75.1117 41.2865C76.8663 38.2764 76.7206 35.5174 73.4563 32.0919C73.1122 31.7292 72.7061 31.4223 72.3031 31.1216C71.0042 30.1389 70.0029 28.9268 69.5224 27.3582C69.0357 25.7648 67.96 24.9712 66.3759 24.6674C58.7499 23.2042 51.9485 25.12 45.919 29.8227C41.6503 33.1521 41.0519 37.6905 42.2858 43.0721C42.8934 42.356 43.3336 41.7825 43.8327 41.2648C45.0324 40.0155 45.3393 39.9845 46.8428 40.7781C49.5088 42.1886 52.3608 42.976 55.3492 43.3015C60.2069 43.8316 64.8166 42.8954 69.2248 40.8835C70.2571 40.4123 71.0445 40.5177 71.8226 41.3423C72.455 42.015 73.1742 42.604 74.005 43.3697V43.3666ZM57.4572 81.6114C61.2516 78.9826 64.9871 76.3941 68.7536 73.7839C68.332 72.6214 67.9476 71.5519 67.5539 70.4638C60.9943 74.4938 54.5587 74.4411 48.0828 70.4111C47.7046 71.4124 47.3171 72.3362 47.0226 73.2879C46.9451 73.5328 47.0629 74.0009 47.2551 74.1435C50.631 76.6452 54.0348 79.1128 57.4572 81.6083V81.6114ZM56.8124 93.9432C55.7584 101.634 54.7075 109.313 53.6504 117.041H61.0935C61.0935 116.728 61.1152 116.533 61.0904 116.344C60.1139 109.115 59.125 101.889 58.1578 94.6593C58.0555 93.8874 57.6711 93.689 56.8124 93.9432ZM54.6672 83.552C51.6106 81.3231 48.616 79.3236 45.8415 77.0513C44.0373 75.5726 42.2951 76.1151 40.1994 76.4034C43.5382 80.0304 46.7095 83.4807 49.8808 86.9279C51.5269 85.7685 53.0366 84.7021 54.6641 83.552H54.6672ZM74.5816 76.4654C72.6131 75.9012 70.9391 75.7741 69.448 77.1877C68.8373 77.7643 68.0654 78.1704 67.3679 78.654C65.0336 80.2722 62.6962 81.8904 60.2286 83.6016C61.8995 84.7393 63.4402 85.7902 65.015 86.8628C68.2173 83.3815 71.3483 79.9808 74.5816 76.4685V76.4654ZM60.1821 87.5138C59.3885 86.9403 58.6662 86.373 57.8912 85.8925C57.668 85.7561 57.2216 85.7499 56.9984 85.8863C56.2172 86.3575 55.4918 86.9155 54.7013 87.4704C55.1942 88.3725 55.6189 89.1878 56.0839 89.9814C56.5303 90.7409 58.257 90.8215 58.7282 90.0868C59.2428 89.2839 59.6737 88.4283 60.1821 87.5169V87.5138Z" fill="#115056"/>
<path d="M103.591 60.7393C103.783 61.5329 103.879 62.2242 104.134 62.8504C104.236 63.0984 104.682 63.3247 104.989 63.3495C107.95 63.582 109.723 65.07 110.445 67.9902C110.681 68.9388 110.16 69.6115 109.063 69.6518C107.751 69.6983 106.434 69.6642 105.12 69.6642C100.442 69.6642 95.7637 69.6673 91.0858 69.6642C89.2165 69.6642 88.8166 69.0008 89.449 67.2896C90.3821 64.7693 92.022 63.3185 94.812 63.3433C95.0538 63.3433 95.432 63.0488 95.5219 62.8039C95.7482 62.1994 95.8443 61.5484 96.0365 60.7393C95.525 60.7393 95.1189 60.7393 94.7128 60.7393C90.2674 60.7393 85.822 60.7393 81.3735 60.7393C79.8452 60.7393 79.4328 60.2619 79.6871 58.746C80.8992 51.4702 82.1206 44.1976 83.3265 36.9188C83.4939 35.9144 83.9992 35.437 85.0377 35.437C94.8957 35.4494 104.757 35.4463 114.615 35.437C115.653 35.437 116.128 35.9361 116.295 36.9467C117.492 44.2255 118.719 51.4981 119.931 58.7739C120.179 60.2619 119.773 60.7331 118.202 60.7331C113.793 60.7393 109.385 60.7331 104.98 60.7331C104.562 60.7331 104.143 60.7331 103.591 60.7331V60.7393ZM109.853 58.281C109.639 56.1482 109.438 54.1301 109.233 52.0902H104.788V58.281H109.85H109.853ZM94.8802 52.0623H90.3945C90.193 54.1549 89.9946 56.1885 89.7993 58.2345H94.8802V52.0623ZM97.4532 52.0344V58.2314H102.15V52.0344H97.4532ZM111.695 52.0065C111.915 54.189 112.119 56.204 112.33 58.2686H117.352C117.033 56.3218 116.735 54.4308 116.388 52.549C116.348 52.3382 116.007 52.0375 115.796 52.0282C114.463 51.9817 113.127 52.0034 111.698 52.0034L111.695 52.0065ZM87.9362 52.0065C86.4916 52.0065 85.1524 51.9879 83.8132 52.0282C83.6241 52.0344 83.3141 52.2948 83.2831 52.4777C82.9297 54.3905 82.6228 56.3125 82.2942 58.2717H87.3007C87.5084 56.2071 87.713 54.189 87.9362 52.0065ZM110.941 44.5386C111.118 46.2405 111.289 47.8649 111.453 49.4521H115.892C115.601 47.7409 115.325 46.1289 115.055 44.5386H110.941ZM101.905 49.4986V44.5603H97.6888V49.4986H101.905ZM88.6895 44.5386H84.5758C84.2999 46.2095 84.0364 47.8153 83.7636 49.4707H88.1811C88.3516 47.8122 88.5159 46.2157 88.6864 44.5386H88.6895ZM108.483 44.5603H104.509V49.4645H108.96C108.796 47.7874 108.641 46.1878 108.483 44.5603ZM91.1478 44.5293C90.9928 46.1878 90.8378 47.8091 90.6828 49.4583H95.153V44.5293H91.1478ZM92.2638 67.0788H107.259C107.302 66.9424 107.348 66.806 107.392 66.6727C106.66 66.3875 105.935 65.8729 105.197 65.8543C101.61 65.7675 98.0205 65.8109 94.4307 65.8202C93.5348 65.8202 92.8032 66.155 92.2638 67.0819V67.0788ZM110.706 41.9501H114.646C114.404 40.5737 114.184 39.2996 113.961 38.0317H110.293C110.436 39.3833 110.569 40.6667 110.706 41.9501ZM108.22 41.9749C108.08 40.6109 107.95 39.3244 107.82 38.0472H104.298V41.9749H108.216H108.22ZM91.8019 38.0472C91.6748 39.3864 91.5539 40.6419 91.4268 41.9656H95.3824V38.0472H91.8019ZM85.0098 41.9904H88.9282C89.0677 40.6667 89.201 39.3802 89.3405 38.0472H85.6701C85.45 39.3523 85.2423 40.5985 85.0098 41.9904ZM97.9647 41.9625H101.635V38.0472H97.9647V41.9625ZM101.61 63.2627C101.254 60.7176 101.189 60.606 99.3318 60.761C97.6671 60.8974 98.5816 62.435 97.8159 63.2627H101.61Z" fill="#115056"/>
</g>
<defs>
<clipPath id="clip0_171_3455">
<rect width="100" height="99.3459" fill="white" transform="translate(20 20.9844)"/>
</clipPath>
</defs>
</svg>
