<svg width="70" height="73" viewBox="0 0 70 73" fill="none" xmlns="http://www.w3.org/2000/svg">
<path d="M34.426 39.4278C35.3218 39.6438 36.1722 39.853 37.0248 40.0508C38.7596 40.4555 40.4967 40.8466 42.2316 41.2536C46.7221 42.3063 49.43 45.6782 49.4505 50.3006C49.471 55.4073 49.4664 60.5117 49.4505 65.6184C49.4391 69.9521 46.5879 72.8101 42.2406 72.8146C31.5475 72.8283 20.8543 72.8192 10.1612 72.8192C8.96978 72.8192 7.77837 72.8397 6.58696 72.7965C2.94451 72.6623 0.0796665 69.827 0.0410138 66.1709C-0.0181021 60.6686 -0.0226495 55.164 0.0501085 49.664C0.10013 45.7123 2.8854 42.2563 6.7302 41.3104C9.50865 40.6261 12.3189 40.0667 15.1247 39.5097C15.8045 39.3732 15.9841 39.0913 15.9591 38.4388C15.9114 37.1359 15.9796 35.8286 15.9227 34.5257C15.9068 34.1551 15.7181 33.6981 15.4521 33.4435C12.3894 30.5286 10.9024 26.9657 10.8024 22.7503C10.7524 20.6312 10.5 18.5167 10.3613 16.3976C10.1908 13.767 10.4568 11.175 11.3458 8.68757C12.9487 4.20385 16.1796 1.51408 20.777 0.475008C25.3744 -0.564067 29.6331 -0.0183817 33.2073 3.38988C33.3528 3.52857 33.6006 3.60133 33.8098 3.62634C37.0248 4.01741 38.871 5.61127 39.7191 8.74213C40.2921 10.8612 40.3398 13.028 39.9874 15.1585C39.5054 18.0733 39.3371 20.995 39.2303 23.9417C39.0984 27.5569 37.5523 30.6105 34.9739 33.1274C34.5738 33.5185 34.401 33.8959 34.4123 34.4507C34.4442 36.0923 34.4237 37.7362 34.4237 39.4255L34.426 39.4278ZM19.14 49.8868C18.9126 50.0141 18.7876 50.0755 18.6716 50.1483C17.2506 51.0213 16.9959 50.9691 16.0773 49.5957C14.6585 47.4744 13.2307 45.3576 11.8414 43.2181C11.5254 42.7315 11.2207 42.5996 10.6591 42.7565C9.75875 43.0066 8.83336 43.1521 7.91707 43.3477C4.45197 44.0843 2.29196 46.7059 2.2806 50.2392C2.26468 55.4027 2.26923 60.564 2.2806 65.7276C2.28742 68.6151 4.20186 70.541 7.08035 70.5569C10.3704 70.5728 13.6604 70.5478 16.9527 70.5728C17.5098 70.5773 17.7326 70.4068 17.8622 69.8611C19.0104 65.0659 20.2109 60.2821 21.3386 55.4823C21.4796 54.8843 21.4728 54.1272 21.2227 53.5861C20.6315 52.3128 19.8539 51.1282 19.14 49.8845V49.8868ZM18.5807 14.0489C17.196 15.3586 15.8818 16.6023 14.5676 17.8414C13.4535 18.8919 12.8646 20.1288 13.1147 21.7044C13.1852 22.1478 13.1238 22.6094 13.1284 23.0641C13.1875 28.696 17.2301 33.5958 22.6801 34.6463C28.4098 35.749 33.9781 32.7409 36.1654 27.4273C37.1385 25.0627 37.1703 22.598 36.9771 20.1424C36.802 17.9028 34.8966 16.409 32.648 16.6045C31.7953 16.6796 30.9359 16.9797 30.1378 17.3162C26.027 19.0533 22.2322 18.2166 19.2878 14.8674C19.1013 14.656 18.9194 14.4423 18.5784 14.0489H18.5807ZM30.4925 49.5707C29.699 50.869 28.835 52.0741 28.2097 53.3905C27.9096 54.0226 27.8732 54.9139 28.0392 55.6119C29.1783 60.3798 30.4061 65.125 31.5884 69.8793C31.7067 70.3568 31.8817 70.5796 32.4297 70.5751C35.8038 70.5478 39.178 70.5841 42.5521 70.5523C45.2146 70.5273 47.17 68.5674 47.1814 65.9026C47.2041 60.6277 47.2087 55.3527 47.1814 50.08C47.1655 46.8378 45.0759 44.2776 41.9155 43.5205C41.0606 43.3158 40.1875 43.1794 39.3508 42.9179C38.7642 42.7338 38.4891 42.9338 38.1844 43.3999C36.7429 45.6077 35.2763 47.7973 33.803 49.9845C33.2323 50.8326 32.748 50.9281 31.8635 50.4097C31.4293 50.1551 31.0018 49.8868 30.4857 49.573L30.4925 49.5707ZM37.5568 16.2089C37.6387 15.6587 37.7206 15.254 37.7569 14.8424C37.9411 12.7757 38.0502 10.7089 37.3204 8.70803C36.827 7.35746 35.9789 6.35249 34.5078 6.00916C32.6411 5.57034 32.1705 5.31796 30.6539 4.20386C30.0423 3.75594 29.3807 3.31484 28.6713 3.07156C24.2762 1.56183 20.1427 2.14617 16.4934 5.0292C13.7695 7.18239 12.9237 10.311 12.6691 13.626C12.6009 14.5241 12.6577 15.4336 12.6577 16.2317C14.4289 14.781 16.1251 13.3282 17.8917 11.9662C19.0718 11.0567 19.4674 11.1795 20.2746 12.3982C22.5369 15.8178 25.7087 16.7341 29.4989 15.1062C30.2469 14.7856 31.0427 14.5218 31.8408 14.39C33.9735 14.0353 35.872 14.6037 37.5546 16.2066L37.5568 16.2089ZM29.3829 70.4955C29.3102 70.1703 29.2556 69.902 29.1897 69.636C28.0892 65.2433 27.0229 60.8391 25.8678 56.46C25.3676 54.5638 25.6768 52.888 26.7296 51.2851C27.3275 50.3733 27.8937 49.4411 28.4985 48.4771C27.3525 47.7791 26.2976 47.1174 25.2198 46.4967C25.0448 46.3967 24.7082 46.3853 24.54 46.4876C23.3827 47.1902 22.2481 47.9314 21.0499 48.6976C21.6592 49.6958 22.2322 50.6371 22.8052 51.5739C23.7078 53.0495 23.9488 54.6115 23.5259 56.3031C22.4164 60.7527 21.3364 65.2114 20.2473 69.6656C20.1836 69.9225 20.1472 70.1863 20.0904 70.4955H29.3784H29.3829ZM32.1341 35.3306C27.4458 37.7203 22.8984 37.7498 18.2532 35.4648C18.2532 36.8085 18.2351 38.0477 18.2714 39.2823C18.2783 39.4756 18.4988 39.7257 18.6852 39.8394C20.5815 40.9739 22.4823 42.1017 24.4036 43.1885C24.6423 43.3226 25.0766 43.3431 25.3108 43.2158C27.4321 42.0789 29.533 40.9034 31.6271 39.7166C31.8408 39.5961 32.1 39.321 32.1068 39.1095C32.1523 37.8976 32.1296 36.6835 32.1296 35.3306H32.1341ZM32.3706 48.0405C33.687 46.0647 34.9467 44.1753 36.2472 42.2222C35.3582 42.0085 34.6238 41.7652 33.8735 41.6765C33.4142 41.6219 32.8731 41.6947 32.4615 41.8993C31.1973 42.5314 29.9764 43.2522 28.7418 43.9411C28.2416 44.2207 27.7459 44.5118 27.1411 44.8574C28.9464 45.9556 30.6085 46.9674 32.3728 48.0405H32.3706ZM22.6733 44.8437C21.009 43.8661 19.4151 43.0543 17.9668 42.0403C16.5002 41.0126 15.2747 41.9812 13.8218 42.1085C15.1906 44.1594 16.4593 46.0602 17.7644 48.0155C19.3924 46.9628 20.9521 45.9556 22.6733 44.8437Z" fill="#115056"/>
<path d="M54.1008 25.7291C54.0189 25.7973 53.928 25.8633 53.8484 25.9406C53.4369 26.3294 53.0299 26.7227 52.5501 27.1797C53.4187 28.3393 52.7297 29.0942 51.9249 29.8809C50.0377 31.7203 48.1915 33.6052 46.3248 35.4651C45.3516 36.4359 44.6991 36.4337 43.7191 35.4651C43.1734 34.9285 42.6209 34.3987 42.098 33.8394C41.4091 33.105 41.3931 32.3888 42.1048 31.6657C44.2148 29.5262 46.327 27.3867 48.4961 25.3085C48.8167 25.0016 49.5216 24.8174 49.9354 24.947C50.5061 25.1243 50.8017 25.0197 51.1518 24.6196C51.4292 24.3013 51.7725 24.0421 52.1204 23.7237C50.2833 21.0567 49.6512 18.2101 50.4697 15.1201C51.0972 12.7532 52.4524 10.8706 54.4691 9.49047C58.4981 6.73476 63.939 7.33274 67.2791 10.8751C70.66 14.4607 70.9124 19.8994 67.9112 23.8124C65.2805 27.2411 59.5895 29.4148 54.1008 25.7269V25.7291ZM67.1563 17.6689C67.1381 13.7491 63.9754 10.6046 60.0533 10.6091C56.1016 10.6114 52.9753 13.8036 52.9503 17.7712C52.9253 21.4523 56.3767 24.8947 60.1261 24.8128C64.0482 24.7264 67.1768 21.6001 67.1586 17.6712L67.1563 17.6689Z" fill="#115056"/>
<path d="M60.3863 11.7642C60.8478 11.8733 61.5959 12.0097 62.3189 12.2325C62.8691 12.4031 63.1738 12.8396 62.9828 13.4217C62.7828 14.0333 62.3075 14.1947 61.6891 14.0356C59.0835 13.3603 57.767 13.8946 56.3709 16.1933C56.0481 16.7253 55.6161 17.005 55.034 16.6867C54.4656 16.3752 54.4065 15.8636 54.6861 15.2975C55.7934 13.0624 57.6124 11.9301 60.3863 11.7642Z" fill="#115056"/>
<path d="M40.5947 60.5324C40.2923 60.3095 40.0263 60.1117 39.758 59.9162C39.4556 59.6934 39.1509 59.4751 38.8485 59.25C38.578 59.0499 38.5643 58.9408 38.7621 58.6725C39.0031 58.3496 39.2373 58.0222 39.4783 57.7016C39.592 57.5493 39.5898 57.4242 39.4602 57.2742C38.8667 56.5966 38.2847 55.9122 37.698 55.2301C37.6389 55.1619 37.5844 55.0914 37.5298 55.0232C37.5412 55.0118 37.5525 54.9982 37.5639 54.9868C37.6094 55.0096 37.6548 55.03 37.698 55.0528C38.9122 55.6689 40.1263 56.2851 41.3382 56.9013C41.5883 57.0286 41.6179 57.1491 41.4519 57.3742C41.1904 57.7243 40.9244 58.0699 40.6629 58.4178C40.4697 58.6747 40.4833 58.7884 40.7289 58.9931C41.9498 60.0026 43.1685 61.0144 44.3918 62.0216C44.4623 62.0807 44.5487 62.1194 44.6282 62.1671C44.6078 62.199 44.5896 62.2285 44.5691 62.2604C44.5032 62.2717 44.435 62.2922 44.369 62.2922C42.275 62.2922 40.1786 62.3195 38.0846 62.2831C37.0455 62.2649 36.1838 61.7556 35.4607 61.028C34.69 60.2504 34.283 59.2886 34.2511 58.2086C34.2057 56.6739 34.2329 55.1346 34.2307 53.5976C34.2307 53.0815 34.2352 52.5631 34.2307 52.047C34.2307 51.8855 34.2852 51.815 34.4512 51.815C36.393 51.7991 38.337 51.6763 40.2719 51.7855C42.5183 51.9105 44.2485 53.2975 44.6396 55.6326C44.6919 55.9486 44.7101 56.2737 44.7124 56.5943C44.7192 57.8153 44.7124 59.0385 44.7124 60.2595C44.7124 60.3118 44.6874 60.3937 44.6487 60.4096C44.6101 60.4278 44.5305 60.3959 44.4918 60.3618C44.0666 60.0003 43.6437 59.6388 43.2299 59.2636C43.1663 59.2068 43.1344 59.0908 43.1299 58.9999C43.0958 58.1336 43.0753 57.2673 43.0412 56.4033C42.9775 54.8572 42.0408 53.7795 40.5242 53.4953C40.4128 53.4748 40.2969 53.4703 40.1832 53.468C38.8735 53.468 37.5639 53.468 36.2543 53.468C35.9132 53.468 35.8927 53.4907 35.8927 53.8341C35.8927 55.0437 35.8655 56.2533 35.8996 57.4606C35.9314 58.6225 36.5498 59.8593 37.7935 60.33C38.1141 60.4505 38.4666 60.5187 38.8099 60.5392C39.3578 60.5733 39.9103 60.5483 40.4606 60.5483C40.4901 60.5483 40.522 60.5437 40.597 60.5346L40.5947 60.5324Z" fill="#115056"/>
</svg>
