<svg width="110" height="113" viewBox="0 0 110 113" fill="none" xmlns="http://www.w3.org/2000/svg">
<rect x="0.5" y="0.5" width="109" height="111.826" rx="9.5" fill="#F1FAFA"/>
<rect x="0.5" y="0.5" width="109" height="111.826" rx="9.5" stroke="#115056"/>
<g clip-path="url(#clip0_174_2020)">
<path d="M54.426 59.4278C55.3218 59.6438 56.1722 59.853 57.0248 60.0508C58.7596 60.4555 60.4967 60.8466 62.2316 61.2536C66.7221 62.3063 69.43 65.6782 69.4505 70.3006C69.471 75.4073 69.4664 80.5117 69.4505 85.6184C69.4391 89.9521 66.5879 92.8101 62.2406 92.8146C51.5475 92.8283 40.8543 92.8192 30.1612 92.8192C28.9698 92.8192 27.7784 92.8397 26.587 92.7965C22.9445 92.6623 20.0797 89.827 20.041 86.1709C19.9819 80.6686 19.9774 75.164 20.0501 69.664C20.1001 65.7123 22.8854 62.2563 26.7302 61.3104C29.5086 60.6261 32.3189 60.0667 35.1247 59.5097C35.8045 59.3732 35.9841 59.0913 35.9591 58.4388C35.9114 57.1359 35.9796 55.8286 35.9227 54.5257C35.9068 54.1551 35.7181 53.6981 35.4521 53.4435C32.3894 50.5286 30.9024 46.9657 30.8024 42.7503C30.7524 40.6312 30.5 38.5167 30.3613 36.3976C30.1908 33.767 30.4568 31.175 31.3458 28.6876C32.9487 24.2039 36.1796 21.5141 40.777 20.475C45.3744 19.4359 49.6331 19.9816 53.2073 23.3899C53.3528 23.5286 53.6006 23.6013 53.8098 23.6263C57.0248 24.0174 58.871 25.6113 59.7191 28.7421C60.2921 30.8612 60.3398 33.028 59.9874 35.1585C59.5054 38.0733 59.3371 40.995 59.2303 43.9417C59.0984 47.5569 57.5523 50.6105 54.9739 53.1274C54.5738 53.5185 54.401 53.8959 54.4123 54.4507C54.4442 56.0923 54.4237 57.7362 54.4237 59.4255L54.426 59.4278ZM39.14 69.8868C38.9126 70.0141 38.7876 70.0755 38.6716 70.1483C37.2506 71.0213 36.9959 70.9691 36.0773 69.5957C34.6585 67.4744 33.2307 65.3576 31.8414 63.2181C31.5254 62.7315 31.2207 62.5996 30.6591 62.7565C29.7588 63.0066 28.8334 63.1521 27.9171 63.3477C24.452 64.0843 22.292 66.7059 22.2806 70.2392C22.2647 75.4027 22.2692 80.564 22.2806 85.7276C22.2874 88.6151 24.2019 90.541 27.0803 90.5569C30.3704 90.5728 33.6604 90.5478 36.9527 90.5728C37.5098 90.5773 37.7326 90.4068 37.8622 89.8611C39.0104 85.0659 40.2109 80.2821 41.3386 75.4823C41.4796 74.8843 41.4728 74.1272 41.2227 73.5861C40.6315 72.3128 39.8539 71.1282 39.14 69.8845V69.8868ZM38.5807 34.0489C37.196 35.3586 35.8818 36.6023 34.5676 37.8414C33.4535 38.8919 32.8646 40.1288 33.1147 41.7044C33.1852 42.1478 33.1238 42.6094 33.1284 43.0641C33.1875 48.696 37.2301 53.5958 42.6801 54.6463C48.4098 55.749 53.9781 52.7409 56.1654 47.4273C57.1385 45.0627 57.1703 42.598 56.9771 40.1424C56.802 37.9028 54.8966 36.409 52.648 36.6045C51.7953 36.6796 50.9359 36.9797 50.1378 37.3162C46.027 39.0533 42.2322 38.2166 39.2878 34.8674C39.1013 34.656 38.9194 34.4423 38.5784 34.0489H38.5807ZM50.4925 69.5707C49.699 70.869 48.835 72.0741 48.2097 73.3905C47.9096 74.0226 47.8732 74.9139 48.0392 75.6119C49.1783 80.3798 50.4061 85.125 51.5884 89.8793C51.7067 90.3568 51.8817 90.5796 52.4297 90.5751C55.8038 90.5478 59.178 90.5841 62.5521 90.5523C65.2146 90.5273 67.17 88.5674 67.1814 85.9026C67.2041 80.6277 67.2087 75.3527 67.1814 70.08C67.1655 66.8378 65.0759 64.2776 61.9155 63.5205C61.0606 63.3158 60.1875 63.1794 59.3508 62.9179C58.7642 62.7338 58.4891 62.9338 58.1844 63.3999C56.7429 65.6077 55.2763 67.7973 53.803 69.9845C53.2323 70.8326 52.748 70.9281 51.8635 70.4097C51.4293 70.1551 51.0018 69.8868 50.4857 69.573L50.4925 69.5707ZM57.5568 36.2089C57.6387 35.6587 57.7206 35.254 57.7569 34.8424C57.9411 32.7757 58.0502 30.7089 57.3204 28.708C56.827 27.3575 55.9789 26.3525 54.5078 26.0092C52.6411 25.5703 52.1705 25.318 50.6539 24.2039C50.0423 23.7559 49.3807 23.3148 48.6713 23.0716C44.2762 21.5618 40.1427 22.1462 36.4934 25.0292C33.7695 27.1824 32.9237 30.311 32.6691 33.626C32.6009 34.5241 32.6577 35.4336 32.6577 36.2317C34.4289 34.781 36.1251 33.3282 37.8917 31.9662C39.0718 31.0567 39.4674 31.1795 40.2746 32.3982C42.5369 35.8178 45.7087 36.7341 49.4989 35.1062C50.2469 34.7856 51.0427 34.5218 51.8408 34.39C53.9735 34.0353 55.872 34.6037 57.5546 36.2066L57.5568 36.2089ZM49.3829 90.4955C49.3102 90.1703 49.2556 89.902 49.1897 89.636C48.0892 85.2433 47.0229 80.8391 45.8678 76.46C45.3676 74.5638 45.6768 72.888 46.7296 71.2851C47.3275 70.3733 47.8937 69.4411 48.4985 68.4771C47.3525 67.7791 46.2976 67.1174 45.2198 66.4967C45.0448 66.3967 44.7082 66.3853 44.54 66.4876C43.3827 67.1902 42.2481 67.9314 41.0499 68.6976C41.6592 69.6958 42.2322 70.6371 42.8052 71.5739C43.7078 73.0495 43.9488 74.6115 43.5259 76.3031C42.4164 80.7527 41.3364 85.2114 40.2473 89.6656C40.1836 89.9225 40.1472 90.1863 40.0904 90.4955H49.3784H49.3829ZM52.1341 55.3306C47.4458 57.7203 42.8984 57.7498 38.2532 55.4648C38.2532 56.8085 38.2351 58.0477 38.2714 59.2823C38.2783 59.4756 38.4988 59.7257 38.6852 59.8394C40.5815 60.9739 42.4823 62.1017 44.4036 63.1885C44.6423 63.3226 45.0766 63.3431 45.3108 63.2158C47.4321 62.0789 49.533 60.9034 51.6271 59.7166C51.8408 59.5961 52.1 59.321 52.1068 59.1095C52.1523 57.8976 52.1296 56.6835 52.1296 55.3306H52.1341ZM52.3706 68.0405C53.687 66.0647 54.9467 64.1753 56.2472 62.2222C55.3582 62.0085 54.6238 61.7652 53.8735 61.6765C53.4142 61.6219 52.8731 61.6947 52.4615 61.8993C51.1973 62.5314 49.9764 63.2522 48.7418 63.9411C48.2416 64.2207 47.7459 64.5118 47.1411 64.8574C48.9464 65.9556 50.6085 66.9674 52.3728 68.0405H52.3706ZM42.6733 64.8437C41.009 63.8661 39.4151 63.0543 37.9668 62.0403C36.5002 61.0126 35.2747 61.9812 33.8218 62.1085C35.1906 64.1594 36.4593 66.0602 37.7644 68.0155C39.3924 66.9628 40.9521 65.9556 42.6733 64.8437Z" fill="#115056"/>
<path d="M74.1008 45.7291C74.0189 45.7973 73.928 45.8633 73.8484 45.9406C73.4369 46.3294 73.0299 46.7227 72.5501 47.1797C73.4187 48.3393 72.7297 49.0942 71.9249 49.8809C70.0377 51.7203 68.1915 53.6052 66.3248 55.4651C65.3516 56.4359 64.6991 56.4337 63.7191 55.4651C63.1734 54.9285 62.6209 54.3987 62.098 53.8394C61.4091 53.105 61.3931 52.3888 62.1048 51.6657C64.2148 49.5262 66.327 47.3867 68.4961 45.3085C68.8167 45.0016 69.5216 44.8174 69.9354 44.947C70.5061 45.1243 70.8017 45.0197 71.1518 44.6196C71.4292 44.3013 71.7725 44.0421 72.1204 43.7237C70.2833 41.0567 69.6512 38.2101 70.4697 35.1201C71.0972 32.7532 72.4524 30.8706 74.4691 29.4905C78.4981 26.7348 83.939 27.3327 87.2791 30.8751C90.66 34.4607 90.9124 39.8994 87.9112 43.8124C85.2805 47.2411 79.5895 49.4148 74.1008 45.7269V45.7291ZM87.1563 37.6689C87.1381 33.7491 83.9754 30.6046 80.0533 30.6091C76.1016 30.6114 72.9753 33.8036 72.9503 37.7712C72.9253 41.4523 76.3767 44.8947 80.1261 44.8128C84.0482 44.7264 87.1768 41.6001 87.1586 37.6712L87.1563 37.6689Z" fill="#115056"/>
<path d="M80.3863 31.7642C80.8478 31.8733 81.5959 32.0097 82.3189 32.2325C82.8691 32.4031 83.1738 32.8396 82.9828 33.4217C82.7828 34.0333 82.3075 34.1947 81.6891 34.0356C79.0835 33.3603 77.767 33.8946 76.3709 36.1933C76.0481 36.7253 75.6161 37.005 75.034 36.6867C74.4656 36.3752 74.4065 35.8636 74.6861 35.2975C75.7934 33.0624 77.6124 31.9301 80.3863 31.7642Z" fill="#115056"/>
<path d="M60.5947 80.5324C60.2923 80.3095 60.0263 80.1117 59.758 79.9162C59.4556 79.6934 59.1509 79.4751 58.8485 79.25C58.578 79.0499 58.5643 78.9408 58.7621 78.6725C59.0031 78.3496 59.2373 78.0222 59.4783 77.7016C59.592 77.5493 59.5898 77.4242 59.4602 77.2742C58.8667 76.5966 58.2847 75.9122 57.698 75.2301C57.6389 75.1619 57.5844 75.0914 57.5298 75.0232C57.5412 75.0118 57.5525 74.9982 57.5639 74.9868C57.6094 75.0096 57.6548 75.03 57.698 75.0528C58.9122 75.6689 60.1263 76.2851 61.3382 76.9013C61.5883 77.0286 61.6179 77.1491 61.4519 77.3742C61.1904 77.7243 60.9244 78.0699 60.6629 78.4178C60.4697 78.6747 60.4833 78.7884 60.7289 78.9931C61.9498 80.0026 63.1685 81.0144 64.3918 82.0216C64.4623 82.0807 64.5487 82.1194 64.6282 82.1671C64.6078 82.199 64.5896 82.2285 64.5691 82.2604C64.5032 82.2717 64.435 82.2922 64.369 82.2922C62.275 82.2922 60.1786 82.3195 58.0846 82.2831C57.0455 82.2649 56.1838 81.7556 55.4607 81.028C54.69 80.2504 54.283 79.2886 54.2511 78.2086C54.2057 76.6739 54.2329 75.1346 54.2307 73.5976C54.2307 73.0815 54.2352 72.5631 54.2307 72.047C54.2307 71.8855 54.2852 71.815 54.4512 71.815C56.393 71.7991 58.337 71.6763 60.2719 71.7855C62.5183 71.9105 64.2485 73.2975 64.6396 75.6326C64.6919 75.9486 64.7101 76.2737 64.7124 76.5943C64.7192 77.8153 64.7124 79.0385 64.7124 80.2595C64.7124 80.3118 64.6874 80.3937 64.6487 80.4096C64.6101 80.4278 64.5305 80.3959 64.4918 80.3618C64.0666 80.0003 63.6437 79.6388 63.2299 79.2636C63.1663 79.2068 63.1344 79.0908 63.1299 78.9999C63.0958 78.1336 63.0753 77.2673 63.0412 76.4033C62.9775 74.8572 62.0408 73.7795 60.5242 73.4953C60.4128 73.4748 60.2969 73.4703 60.1832 73.468C58.8735 73.468 57.5639 73.468 56.2543 73.468C55.9132 73.468 55.8927 73.4907 55.8927 73.8341C55.8927 75.0437 55.8655 76.2533 55.8996 77.4606C55.9314 78.6225 56.5498 79.8593 57.7935 80.33C58.1141 80.4505 58.4666 80.5187 58.8099 80.5392C59.3578 80.5733 59.9103 80.5483 60.4606 80.5483C60.4901 80.5483 60.522 80.5437 60.597 80.5346L60.5947 80.5324Z" fill="#115056"/>
</g>
<defs>
<clipPath id="clip0_174_2020">
<rect width="70" height="72.8262" fill="white" transform="translate(20 20)"/>
</clipPath>
</defs>
</svg>
