<svg width="70" height="69" viewBox="0 0 70 69" fill="none" xmlns="http://www.w3.org/2000/svg">
<path d="M26.2229 69.0001C18.0203 69.0001 9.81548 69.0001 1.61286 69.0001C0.280478 69.0001 -0.0146426 68.7181 0.000547451 67.3961C0.0721576 61.2964 0.284818 55.2096 1.58248 49.2111C2.80419 43.5635 5.8422 39.322 11.3106 37.0827C12.758 36.4906 14.3877 36.3119 15.9501 36.0256C16.4297 35.9373 16.7248 35.8469 16.881 35.3517C17.1414 34.5335 17.7664 33.7089 17.6883 32.9424C17.6145 32.2383 16.8051 31.6161 16.3363 30.9443C14.6915 28.5824 13.7475 25.9556 13.7779 23.0963C13.8126 19.9205 13.5826 16.7856 13.0727 13.6572C12.3804 9.41557 14.1468 6.17087 17.5212 3.79171C22.0391 0.613751 27.08 -0.63504 32.6027 0.305859C34.6685 0.658966 36.0877 1.69891 36.8451 3.70989C37.1076 4.40964 37.7456 5.03189 38.3467 5.5314C39.5597 6.54335 40.4668 7.74262 41.0831 9.17443C41.7688 10.7591 41.7948 12.3545 41.1178 13.9478C40.9399 14.3677 40.7858 14.8134 40.5254 15.1815C39.4143 16.7511 39.206 18.4844 39.2451 20.3619C39.282 22.2286 39.1496 24.1233 38.8393 25.9642C38.4292 28.395 37.227 30.5094 35.5517 32.333C35.2306 32.6818 35.2219 32.9639 35.3304 33.4053C35.7362 35.0459 36.2917 36.4648 38.4205 36.2237C44.8111 37.7416 48.7931 41.7313 50.5248 47.9537C51.792 52.5139 52.0937 57.2098 52.3063 61.9078C52.391 63.7595 52.4083 65.6133 52.4344 67.465C52.4517 68.6879 52.1284 68.998 50.9154 68.998C42.6845 68.998 34.4537 68.998 26.2229 68.998V69.0001ZM22.3711 47.536C22.2453 47.6178 22.1129 47.6996 21.9849 47.7857C20.6742 48.6621 20.5006 48.647 19.4047 47.4692C17.0373 44.9243 14.6676 42.3815 12.324 39.815C11.9356 39.3887 11.6535 39.2854 11.1045 39.576C7.16807 41.6624 4.88523 44.9458 3.88703 49.1982C2.789 53.8768 2.51558 58.6459 2.30509 63.4215C2.25735 64.5131 2.29858 65.609 2.29858 66.7351H9.78076C9.78076 66.3454 9.78076 66.0245 9.78076 65.7037C9.78076 62.2932 9.78076 58.8849 9.78293 55.4744C9.78293 55.1816 9.77425 54.8759 9.84369 54.596C9.98474 54.0297 10.3905 53.7197 10.9699 53.7541C11.5406 53.7864 11.9269 54.1137 12.0072 54.7036C12.0441 54.9684 12.0332 55.2397 12.0332 55.5067C12.0332 58.9969 12.0528 62.487 12.018 65.9772C12.0115 66.664 12.2307 66.8276 12.8904 66.819C15.4336 66.7846 17.9769 66.8061 20.5223 66.804C20.7588 66.804 20.9953 66.776 21.2427 66.7609C21.3013 66.4422 21.3621 66.1817 21.399 65.919C22.0608 61.1069 22.6532 56.284 23.4214 51.4891C23.6688 49.9453 23.3563 48.7266 22.369 47.5403L22.3711 47.536ZM50.004 66.7695C50.004 64.6616 50.0864 62.6507 49.9866 60.6461C49.7826 56.594 49.4224 52.5548 48.3916 48.6082C47.337 44.5733 45.0216 41.5203 41.2827 39.5545C40.8097 39.3069 40.5471 39.3672 40.1934 39.7547C37.8823 42.2803 35.5496 44.7865 33.2146 47.2905C31.8627 48.7396 31.8562 48.7331 30.2005 47.6609C30.1636 47.6372 30.1029 47.6523 29.9987 47.6458C29.7947 47.9903 29.6189 48.3929 29.3499 48.718C28.816 49.364 28.8377 50.0788 28.9506 50.8345C29.2023 52.5312 29.441 54.2321 29.6775 55.9309C30.1745 59.5136 30.6692 63.0985 31.1705 66.7372H40.4017V65.7985C40.4017 62.36 40.4017 58.9215 40.4017 55.483C40.4017 55.2139 40.3887 54.9426 40.4299 54.6799C40.521 54.0921 40.9355 53.6917 41.4802 53.7778C41.8795 53.8402 42.2766 54.2213 42.5608 54.5572C42.7171 54.7402 42.652 55.1235 42.652 55.4163C42.6563 58.8806 42.6542 62.3471 42.6542 65.8114C42.6542 66.1214 42.6542 66.4315 42.6542 66.7674H50.0061L50.004 66.7695ZM15.9783 20.9777C15.9957 20.9777 16.013 20.9777 16.0325 20.9777C16.0325 21.8367 15.9891 22.6958 16.0412 23.5527C16.1779 25.7704 16.8593 27.8266 18.1657 29.6309C20.5592 32.9359 23.7512 34.6864 27.9263 34.0813C32.2056 33.4591 35.734 30.0271 36.6411 25.5099C37.01 23.6647 36.8429 21.7183 37.049 19.8322C37.2096 18.3552 36.806 17.2722 35.5127 16.4691C35.1069 16.2172 34.8421 16.0923 34.3669 16.2775C29.0656 18.338 23.7795 18.409 18.5129 16.1203C18.3045 16.0299 17.9204 16.0665 17.749 16.2043C15.9718 17.6425 15.9783 17.6511 15.9783 19.9313V20.9777ZM37.8042 15.5454C38.0993 14.9942 38.3228 14.5378 38.5789 14.1007C39.8071 12.01 39.7051 10.0938 37.4201 7.71463C37.1792 7.46272 36.895 7.24957 36.6129 7.04072C35.7036 6.35819 35.0027 5.51633 34.6664 4.42687C34.3257 3.32018 33.5727 2.76899 32.4638 2.55799C27.1256 1.54173 22.3646 2.87234 18.144 6.13857C15.1559 8.45099 14.737 11.6031 15.6007 15.3409C16.026 14.8435 16.3342 14.4452 16.6835 14.0856C17.5233 13.2179 17.7382 13.1964 18.7906 13.7476C20.6568 14.7272 22.6532 15.2741 24.7451 15.5002C28.1455 15.8684 31.3723 15.2181 34.458 13.8208C35.1807 13.4935 35.7318 13.5667 36.2765 14.1394C36.7192 14.6067 37.2226 15.0158 37.8042 15.5476V15.5454ZM26.2207 42.1081C28.8768 40.2822 31.4917 38.4844 34.1282 36.6715C33.8331 35.8641 33.564 35.1213 33.2884 34.3656C28.6967 37.1646 24.1918 37.128 19.6586 34.329C19.3939 35.0244 19.1226 35.666 18.9165 36.327C18.8622 36.4971 18.9447 36.8222 19.0792 36.9213C21.4424 38.6588 23.825 40.3727 26.2207 42.1059V42.1081ZM25.7694 50.673C25.0316 56.0148 24.2959 61.348 23.5559 66.7157H28.7661C28.7661 66.4982 28.7813 66.3626 28.764 66.2312C28.0804 61.2102 27.3882 56.1914 26.7111 51.1704C26.6395 50.6343 26.3704 50.4965 25.7694 50.673ZM24.2677 43.4559C22.1281 41.9078 20.0319 40.5191 18.0897 38.9409C16.8268 37.9138 15.6072 38.2906 14.1403 38.4909C16.4774 41.01 18.6973 43.4064 20.9172 45.8006C22.0695 44.9953 23.1263 44.2547 24.2655 43.4559H24.2677ZM38.2078 38.5339C36.8299 38.1421 35.6581 38.0538 34.6143 39.0356C34.1868 39.4361 33.6465 39.7181 33.1582 40.054C31.5242 41.1779 29.888 42.3018 28.1607 43.4903C29.3303 44.2805 30.4088 45.0104 31.5112 45.7554C33.7528 43.3375 35.9445 40.9755 38.2078 38.5361V38.5339ZM28.1281 46.2075C27.5726 45.8092 27.067 45.4152 26.5245 45.0815C26.3683 44.9867 26.0558 44.9824 25.8996 45.0772C25.3527 45.4044 24.8449 45.792 24.2916 46.1774C24.6366 46.8039 24.9339 47.3702 25.2594 47.9214C25.5719 48.4489 26.7806 48.5049 27.1104 47.9946C27.4706 47.4369 27.7723 46.8427 28.1281 46.2097V46.2075Z" fill="#115056"/>
<path d="M58.5142 27.6116C58.6488 28.1628 58.716 28.6429 58.894 29.0778C58.9656 29.2501 59.2781 29.4073 59.4929 29.4245C61.5653 29.586 62.8065 30.6195 63.3121 32.6477C63.477 33.3065 63.1125 33.7737 62.3443 33.8017C61.4264 33.834 60.5041 33.8103 59.584 33.8103C56.3095 33.8103 53.035 33.8125 49.7604 33.8103C48.4519 33.8103 48.172 33.3496 48.6147 32.1611C49.2678 30.4106 50.4158 29.403 52.3688 29.4202C52.538 29.4202 52.8028 29.2156 52.8657 29.0455C53.0241 28.6257 53.0914 28.1735 53.2259 27.6116C52.8679 27.6116 52.5836 27.6116 52.2993 27.6116C49.1876 27.6116 46.0758 27.6116 42.9618 27.6116C41.892 27.6116 41.6034 27.28 41.7813 26.2272C42.6298 21.1739 43.4848 16.1227 44.3289 11.0673C44.4461 10.3697 44.7998 10.0381 45.5268 10.0381C52.4274 10.0467 59.3302 10.0445 66.2308 10.0381C66.9577 10.0381 67.2897 10.3847 67.4069 11.0866C68.2445 16.1421 69.1038 21.1932 69.9523 26.2465C70.1259 27.28 69.8417 27.6073 68.7415 27.6073C65.6557 27.6116 62.57 27.6073 59.4864 27.6073C59.1934 27.6073 58.9005 27.6073 58.5142 27.6073V27.6116ZM62.8976 25.9042C62.7479 24.4229 62.6069 23.0212 62.4636 21.6045H59.3519V25.9042H62.8955H62.8976ZM52.4165 21.5851H49.2765C49.1355 23.0384 48.9966 24.4509 48.8599 25.8719H52.4165V21.5851ZM54.2176 21.5657V25.8697H57.5052V21.5657H54.2176ZM64.1866 21.5463C64.3407 23.0621 64.4839 24.4616 64.6315 25.8956H68.1469C67.9234 24.5434 67.715 23.2301 67.472 21.9231C67.4438 21.7767 67.2051 21.5679 67.0575 21.5614C66.1244 21.5291 65.1892 21.5442 64.1888 21.5442L64.1866 21.5463ZM47.5557 21.5463C46.5445 21.5463 45.607 21.5334 44.6696 21.5614C44.5372 21.5657 44.3202 21.7466 44.2985 21.8736C44.0512 23.2021 43.8363 24.537 43.6063 25.8977H47.1109C47.2562 24.4638 47.3995 23.0621 47.5557 21.5463ZM63.6593 16.3596C63.783 17.5416 63.9024 18.6698 64.0174 19.7722H67.1248C66.9208 18.5837 66.7277 17.4641 66.5389 16.3596H63.6593ZM57.3337 19.8045V16.3746H54.3825V19.8045H57.3337ZM48.083 16.3596H45.2034C45.0103 17.5201 44.8258 18.6354 44.6349 19.7851H47.7271C47.8465 18.6332 47.9615 17.5244 48.0809 16.3596H48.083ZM61.9385 16.3746H59.1565V19.7808H62.2727C62.1577 18.616 62.0492 17.505 61.9385 16.3746ZM49.8038 16.3531C49.6953 17.505 49.5868 18.6311 49.4783 19.7765H52.6075V16.3531H49.8038ZM50.585 32.0147H61.0813C61.1117 31.9199 61.1443 31.8252 61.1747 31.7326C60.6625 31.5345 60.1548 31.1771 59.6383 31.1642C57.1276 31.1039 54.6147 31.134 52.1019 31.1405C51.4747 31.1405 50.9626 31.373 50.585 32.0168V32.0147ZM63.4944 14.5617H66.2525C66.0832 13.6058 65.9291 12.7208 65.7729 11.8402H63.2058C63.3056 12.779 63.3989 13.6703 63.4944 14.5617ZM61.754 14.5789C61.6564 13.6316 61.5653 12.7381 61.4741 11.851H59.009V14.5789H61.7519H61.754ZM50.2617 11.851C50.1727 12.7811 50.0881 13.6531 49.9991 14.5725H52.7681V11.851H50.2617ZM45.5072 14.5897H48.2501C48.3478 13.6703 48.4411 12.7768 48.5387 11.851H45.9694C45.8154 12.7574 45.67 13.623 45.5072 14.5897ZM54.5757 14.5703H57.145V11.851H54.5757V14.5703ZM57.1276 29.3642C56.878 27.5965 56.8325 27.519 55.5326 27.6267C54.3674 27.7214 55.0075 28.7893 54.4715 29.3642H57.1276Z" fill="#115056"/>
</svg>
