<svg width="90" height="92" viewBox="0 0 90 92" fill="none" xmlns="http://www.w3.org/2000/svg">
<rect width="90" height="92" rx="10" fill="white"/>
<rect x="0.5" y="0.5" width="89" height="91" rx="9.5" stroke="#115056" stroke-opacity="0.15"/>
<path d="M25.5595 20.5382C25.619 20.5381 25.619 20.5381 25.6797 20.5379C25.8121 20.5377 25.9445 20.5378 26.0769 20.5378C26.173 20.5377 26.2691 20.5376 26.3652 20.5375C26.6012 20.5372 26.8372 20.5371 27.0733 20.5371C27.3562 20.537 27.6391 20.5368 27.9219 20.5365C28.6053 20.5359 29.2887 20.5357 29.9721 20.5355C30.2955 20.5354 30.6188 20.5352 30.9422 20.5351C32.0493 20.5346 33.1565 20.5342 34.2636 20.534C34.3331 20.534 34.4025 20.534 34.4719 20.534C34.5415 20.534 34.6111 20.534 34.6808 20.534C34.8204 20.534 34.96 20.5339 35.0997 20.5339C35.1343 20.5339 35.1689 20.5339 35.2046 20.5339C36.3279 20.5338 37.4512 20.5331 38.5745 20.5322C39.7626 20.5312 40.9507 20.5307 42.1388 20.5307C42.2692 20.5307 42.3996 20.5306 42.53 20.5306C42.5621 20.5306 42.5942 20.5306 42.6273 20.5306C43.1439 20.5306 43.6606 20.5302 44.1773 20.5296C44.6964 20.529 45.2155 20.5289 45.7346 20.5292C46.043 20.5294 46.3513 20.5292 46.6597 20.5286C46.89 20.5282 47.1202 20.5284 47.3504 20.5288C47.4436 20.5289 47.5368 20.5287 47.6299 20.5284C47.7565 20.528 47.8831 20.5283 48.0097 20.5287C48.0459 20.5284 48.082 20.5281 48.1193 20.5278C48.5092 20.531 48.8416 20.6249 49.1281 20.8972C49.3951 21.1841 49.509 21.4952 49.4953 21.8868C49.4508 22.2573 49.2898 22.5394 49.0101 22.7843C48.6975 22.9976 48.3473 23.032 47.9791 23.0301C47.9197 23.0302 47.9197 23.0302 47.859 23.0304C47.7261 23.0307 47.5932 23.0304 47.4603 23.0301C47.364 23.0302 47.2678 23.0303 47.1716 23.0305C46.9624 23.0307 46.7531 23.0307 46.5438 23.0305C46.2326 23.0302 45.9214 23.0304 45.6103 23.0306C45.0866 23.031 44.563 23.0311 44.0393 23.031C43.291 23.0309 42.5427 23.0314 41.7943 23.0321C41.4939 23.0323 41.1935 23.0326 40.8932 23.0328C40.8431 23.0328 40.8431 23.0328 40.792 23.0329C39.9977 23.0335 39.2034 23.0339 38.4091 23.0343C38.3744 23.0343 38.3396 23.0343 38.3038 23.0344C37.4932 23.0347 36.6825 23.035 35.8719 23.0351C35.8196 23.0351 35.8196 23.0351 35.7663 23.0351C35.5905 23.0351 35.4147 23.0351 35.239 23.0352C35.2042 23.0352 35.1695 23.0352 35.1337 23.0352C35.0636 23.0352 34.9935 23.0352 34.9234 23.0352C33.7645 23.0353 32.6056 23.036 31.4468 23.0372C31.283 23.0374 31.1193 23.0376 30.9556 23.0378C30.9234 23.0378 30.8912 23.0378 30.858 23.0379C30.3398 23.0384 29.8217 23.0383 29.3035 23.038C28.7826 23.0377 28.2617 23.0379 27.7407 23.0387C27.4314 23.0392 27.1221 23.0392 26.8128 23.0386C26.5816 23.0382 26.3504 23.0387 26.1192 23.0394C26.0258 23.0396 25.9325 23.0395 25.8391 23.0391C24.99 23.0358 24.308 23.1517 23.6784 23.7704C23.2838 24.1921 23.0532 24.7408 23.0549 25.318C23.0548 25.362 23.0548 25.362 23.0547 25.4069C23.0545 25.5056 23.0546 25.6043 23.0547 25.7031C23.0546 25.7747 23.0545 25.8463 23.0544 25.9179C23.0541 26.1158 23.0541 26.3137 23.0542 26.5116C23.0541 26.7265 23.0539 26.9413 23.0537 27.1562C23.0533 27.5829 23.0532 28.0096 23.0531 28.4363C23.053 28.9472 23.0526 29.458 23.0523 29.9689C23.0515 31.2039 23.0511 32.4388 23.0507 33.6737C23.0506 34.0827 23.0505 34.4916 23.0503 34.9006C23.0503 34.9439 23.0503 34.9439 23.0503 34.988C23.0503 35.1047 23.0502 35.2214 23.0502 35.3382C23.0495 37.3346 23.0489 39.331 23.0486 41.3275C23.0486 41.4843 23.0485 41.6411 23.0485 41.7979C23.0485 41.8446 23.0485 41.8446 23.0485 41.8922C23.0484 42.2074 23.0484 42.5226 23.0483 42.8378C23.0483 42.901 23.0483 42.9642 23.0483 43.0273C23.048 45.0569 23.0471 47.0864 23.0459 49.1159C23.0449 50.5741 23.0441 52.0322 23.0438 53.4904C23.0438 53.5204 23.0438 53.5504 23.0438 53.5813C23.0437 54.2397 23.0436 54.898 23.0435 55.5564C23.0435 55.8213 23.0435 56.0862 23.0435 56.3511C23.0435 56.3801 23.0435 56.4091 23.0435 56.439C23.0434 57.3728 23.0428 58.3066 23.042 59.2404C23.0412 60.181 23.0409 61.1217 23.0413 62.0623C23.0415 62.6459 23.0413 63.2295 23.0404 63.8131C23.0399 64.1854 23.0399 64.5577 23.0405 64.9299C23.0407 65.1421 23.0407 65.3543 23.0401 65.5665C23.0395 65.7596 23.0396 65.9528 23.0403 66.1459C23.0404 66.2152 23.0403 66.2845 23.0398 66.3538C23.0353 67.1235 23.2178 67.7592 23.7709 68.3219C24.1715 68.6967 24.7108 68.9449 25.2633 68.9454C25.3114 68.9456 25.3595 68.9457 25.409 68.9458C25.4624 68.9458 25.5157 68.9458 25.569 68.9457C25.6259 68.9458 25.6828 68.9459 25.7397 68.946C25.8968 68.9463 26.0539 68.9463 26.2109 68.9463C26.3816 68.9464 26.5522 68.9466 26.7228 68.9469C27.0616 68.9473 27.4003 68.9475 27.739 68.9477C28.1447 68.9479 28.5503 68.9483 28.9559 68.9487C29.9364 68.9498 30.9169 68.9503 31.8974 68.9508C32.2222 68.951 32.547 68.9512 32.8717 68.9514C34.5982 68.9524 36.3247 68.9532 38.0512 68.9537C38.4513 68.9538 38.8513 68.954 39.2514 68.9541C39.3011 68.9541 39.3508 68.9541 39.402 68.9541C41.0135 68.9546 42.6249 68.9558 44.2363 68.9575C45.8928 68.9591 47.5493 68.9602 49.2057 68.9604C49.4397 68.9604 49.6737 68.9605 49.9076 68.9605C49.9537 68.9605 49.9997 68.9605 50.0472 68.9605C50.7882 68.9607 51.5292 68.9615 52.2703 68.9625C53.0152 68.9635 53.7601 68.9638 54.505 68.9634C54.9475 68.9632 55.39 68.9635 55.8326 68.9646C56.1283 68.9652 56.4241 68.9652 56.7198 68.9646C56.8882 68.9643 57.0566 68.9642 57.225 68.9651C57.3786 68.9659 57.5321 68.9657 57.6857 68.9648C57.7662 68.9646 57.8467 68.9654 57.9273 68.9661C58.4838 68.961 58.9829 68.8064 59.4295 68.4685C59.4581 68.4471 59.4867 68.4257 59.5162 68.4036C59.9935 68.0164 60.2344 67.4506 60.3339 66.8566C60.3494 66.6493 60.3496 66.443 60.3485 66.2354C60.3486 66.1741 60.3487 66.1128 60.3489 66.0516C60.3493 65.8845 60.349 65.7176 60.3486 65.5505C60.3482 65.3699 60.3485 65.1893 60.3488 65.0087C60.3492 64.6961 60.3491 64.3835 60.3488 64.0709C60.3484 63.6184 60.3487 63.166 60.3493 62.7136C60.3502 61.9788 60.3508 61.244 60.3509 60.5092C60.3509 60.4434 60.3509 60.4434 60.3509 60.3761C60.351 59.8859 60.3511 59.3957 60.351 58.9055C60.351 58.7277 60.351 58.5498 60.351 58.3719C60.351 58.328 60.351 58.2841 60.351 58.2389C60.351 57.5067 60.3515 56.7745 60.3526 56.0423C60.3532 55.591 60.3533 55.1398 60.3527 54.6885C60.3523 54.3794 60.3525 54.0702 60.3531 53.7611C60.3535 53.5828 60.3536 53.4046 60.353 53.2263C60.3524 53.063 60.3526 52.8996 60.3533 52.7363C60.3535 52.6774 60.3534 52.6184 60.3529 52.5595C60.3499 52.1021 60.3994 51.6994 60.727 51.3555C61.0356 51.0898 61.3278 51.037 61.7254 51.0412C62.0369 51.0648 62.2791 51.1909 62.5059 51.403C62.7125 51.6463 62.8157 51.9287 62.8162 52.2442C62.8163 52.2696 62.8164 52.2951 62.8165 52.3213C62.8167 52.4072 62.8167 52.4931 62.8167 52.579C62.8168 52.641 62.817 52.703 62.8171 52.7649C62.8175 52.9357 62.8177 53.1065 62.8178 53.2773C62.8179 53.4614 62.8183 53.6454 62.8187 53.8295C62.8194 54.2744 62.8198 54.7193 62.8202 55.1642C62.8204 55.3739 62.8206 55.5835 62.8208 55.7932C62.8214 56.4905 62.822 57.1877 62.8223 57.885C62.8224 58.0661 62.8224 58.2471 62.8225 58.4281C62.8225 58.4731 62.8226 58.5181 62.8226 58.5645C62.8229 59.2922 62.8239 60.0199 62.8252 60.7476C62.8265 61.4952 62.8272 62.2428 62.8273 62.9905C62.8274 63.41 62.8277 63.8296 62.8287 64.2491C62.8296 64.6067 62.8299 64.9643 62.8295 65.3219C62.8294 65.5041 62.8294 65.6863 62.8302 65.8685C62.8358 67.2717 62.8358 67.2717 62.6536 67.9181C62.6425 67.9586 62.6425 67.9586 62.631 67.9999C62.4155 68.7732 61.9815 69.422 61.4348 70.0018C61.4087 70.0309 61.3827 70.0599 61.3558 70.0898C60.5684 70.9325 59.3801 71.3764 58.25 71.4565C58.0621 71.462 57.8744 71.4618 57.6864 71.4615C57.6297 71.4616 57.573 71.4617 57.5163 71.4618C57.3606 71.4619 57.205 71.4619 57.0493 71.4618C56.8799 71.4617 56.7105 71.4619 56.5411 71.462C56.2442 71.4622 55.9474 71.4623 55.6505 71.4622C55.209 71.4622 54.7676 71.4623 54.3261 71.4625C53.4917 71.4629 52.6574 71.463 51.823 71.4631C51.1786 71.4631 50.5343 71.4632 49.8899 71.4633C49.7045 71.4633 49.519 71.4633 49.3335 71.4634C49.2874 71.4634 49.2413 71.4634 49.1938 71.4634C47.8968 71.4636 46.5998 71.4638 45.3028 71.4638C45.2539 71.4638 45.205 71.4638 45.1546 71.4638C44.9067 71.4638 44.6589 71.4638 44.411 71.4638C44.3372 71.4638 44.3372 71.4638 44.2618 71.4638C44.1623 71.4638 44.0627 71.4638 43.9632 71.4638C42.4145 71.4637 40.8658 71.464 39.3171 71.4646C37.5772 71.4652 35.8373 71.4655 34.0974 71.4655C33.9118 71.4655 33.7263 71.4655 33.5407 71.4655C33.495 71.4655 33.4493 71.4655 33.4023 71.4655C32.6672 71.4655 31.9321 71.4657 31.1971 71.4661C30.4582 71.4664 29.7194 71.4664 28.9805 71.4662C28.5417 71.466 28.1028 71.4661 27.664 71.4665C27.3706 71.4667 27.0773 71.4667 26.7839 71.4664C26.6169 71.4662 26.45 71.4662 26.283 71.4665C24.8201 71.4691 23.4187 71.3243 22.2736 70.3163C22.2419 70.2898 22.2102 70.2633 22.1776 70.236C21.2265 69.419 20.6598 68.2321 20.5515 66.9885C20.5347 66.7105 20.5381 66.432 20.5384 66.1536C20.5383 66.0822 20.5382 66.0107 20.5381 65.9393C20.5379 65.7429 20.538 65.5465 20.538 65.35C20.538 65.1364 20.5378 64.9227 20.5377 64.709C20.5374 64.2852 20.5373 63.8615 20.5373 63.4377C20.5372 62.93 20.537 62.4224 20.5367 61.9148C20.5361 60.717 20.5359 59.5193 20.5357 58.3216C20.5356 57.712 20.5354 57.1025 20.5353 56.493C20.5348 54.5372 20.5344 52.5814 20.5342 50.6256C20.5342 50.5322 20.5342 50.4387 20.5342 50.3453C20.5342 50.1579 20.5342 49.9705 20.5342 49.7831C20.5341 49.5637 20.5341 49.3442 20.5341 49.1248C20.5341 49.062 20.5341 48.9993 20.5341 48.9365C20.534 46.92 20.5334 44.9035 20.5325 42.887C20.5318 41.4378 20.5312 39.9886 20.531 38.5394C20.531 38.5096 20.531 38.4797 20.531 38.449C20.5309 37.7943 20.5309 37.1397 20.5309 36.485C20.5309 36.2507 20.5308 36.0164 20.5308 35.7822C20.5308 35.7239 20.5308 35.6656 20.5308 35.6073C20.5308 34.6796 20.5304 33.7519 20.5298 32.8242C20.5292 31.8635 20.5291 30.9027 20.5294 29.9419C20.5296 29.3883 20.5294 28.8347 20.5288 28.281C20.5284 27.911 20.5285 27.5409 20.5289 27.1708C20.5291 26.9601 20.5291 26.7495 20.5286 26.5388C20.5282 26.3466 20.5283 26.1545 20.5288 25.9624C20.5289 25.8938 20.5288 25.8251 20.5285 25.7565C20.5256 25.1211 20.5669 24.4581 20.7844 23.8557C20.7961 23.822 20.8079 23.7883 20.82 23.7536C21.255 22.5529 22.146 21.5658 23.298 21.0161C24.0271 20.6811 24.7591 20.5366 25.5595 20.5382Z" fill="#165056"/>
<path d="M58.4203 25.2808C58.6036 25.3843 58.7565 25.505 58.9089 25.6494C59.0039 25.7387 59.1028 25.8205 59.2042 25.9025C59.3643 26.0322 59.5219 26.1643 59.6785 26.2981C59.8529 26.4468 60.0305 26.5902 60.2118 26.7306C60.4385 26.9063 60.6558 27.0912 60.8716 27.2803C61.0416 27.429 61.2149 27.5724 61.3924 27.7122C61.5003 27.7974 61.6056 27.8854 61.7108 27.9739C61.7118 27.9364 61.7128 27.8988 61.7139 27.8601C61.7326 27.4327 61.7788 27.0258 62.104 26.7158C62.293 26.5839 62.4675 26.5149 62.6973 26.5135C62.7289 26.5132 62.7606 26.5129 62.7933 26.5126C62.8277 26.5125 62.8621 26.5124 62.8976 26.5123C62.9341 26.512 62.9706 26.5118 63.0083 26.5115C63.1291 26.5107 63.25 26.5103 63.3709 26.5099C63.4123 26.5097 63.4537 26.5096 63.4963 26.5094C63.7156 26.5086 63.9348 26.508 64.1541 26.5076C64.3798 26.5072 64.6055 26.5059 64.8312 26.5043C65.0053 26.5033 65.1795 26.5029 65.3537 26.5028C65.4368 26.5026 65.52 26.5022 65.6031 26.5014C66.1452 26.4969 66.5814 26.509 67.0323 26.8433C67.1839 27.0042 67.2302 27.1703 67.2276 27.3869C67.2272 27.4573 67.2272 27.4573 67.2269 27.5292C67.226 27.5802 67.2251 27.6311 67.2243 27.6837C67.2238 27.7383 67.2234 27.793 67.223 27.8476C67.2221 27.9651 67.2209 28.0825 67.2195 28.2C67.2174 28.3861 67.2165 28.5722 67.216 28.7583C67.2158 28.8222 67.2156 28.886 67.2154 28.9499C67.2152 28.9978 67.2152 28.9978 67.2151 29.0468C67.2136 29.4798 67.2111 29.9127 67.2058 30.3457C67.2022 30.6382 67.2005 30.9306 67.2008 31.223C67.2009 31.3776 67.2001 31.532 67.197 31.6865C67.1478 32.401 67.1478 32.401 67.4304 33.0158C67.5365 33.1049 67.6459 33.1724 67.7658 33.2421C67.8413 33.3024 67.916 33.3637 67.9895 33.4264C68.042 33.4686 68.042 33.4686 68.0956 33.5117C68.2319 33.6235 68.3613 33.7422 68.4915 33.861C68.5969 33.9546 68.7053 34.0433 68.8151 34.1316C69.3684 34.584 69.3684 34.584 69.4565 34.972C69.4747 35.272 69.385 35.5209 69.2008 35.7548C68.9888 35.9864 68.748 36.1168 68.4318 36.1318C68.0534 36.1115 67.8347 35.8841 67.5722 35.635C67.464 35.5329 67.3512 35.4385 67.235 35.3455C67.0787 35.2197 66.9297 35.0889 66.7829 34.9524C66.6018 34.7839 66.4145 34.6262 66.2218 34.471C66.0699 34.3454 65.9252 34.2125 65.7807 34.0785C65.6985 34.0041 65.6148 33.9364 65.5271 33.8687C65.35 33.7146 65.2643 33.5188 65.2354 33.2868C65.2302 33.1567 65.23 33.0275 65.2316 32.8973C65.2316 32.8481 65.2315 32.799 65.2315 32.7484C65.2316 32.6147 65.2324 32.481 65.2335 32.3473C65.2345 32.2073 65.2346 32.0672 65.2348 31.9271C65.2353 31.6622 65.2365 31.3974 65.2381 31.1326C65.2399 30.8309 65.2407 30.5292 65.2415 30.2275C65.2432 29.6074 65.2461 28.9872 65.2494 28.3671C64.7564 28.3671 64.2633 28.3671 63.7553 28.3671C63.7576 28.4931 63.7599 28.619 63.7623 28.7488C63.7638 28.8719 63.765 28.995 63.7661 29.1181C63.7671 29.2032 63.7685 29.2882 63.7702 29.3732C63.7726 29.496 63.7737 29.6188 63.7745 29.7416C63.7756 29.7791 63.7766 29.8166 63.7776 29.8553C63.7777 30.1657 63.6912 30.4175 63.4847 30.6532C63.2506 30.8851 62.9758 30.9641 62.652 30.9766C62.2256 30.9587 61.9851 30.7655 61.6715 30.4901C61.6082 30.4361 61.5446 30.3824 61.481 30.3288C61.4374 30.292 61.3939 30.2552 61.3505 30.2183C61.2162 30.1043 61.0807 29.9919 60.9441 29.8807C60.763 29.7333 60.5846 29.583 60.4067 29.4319C60.2733 29.3187 60.1387 29.2071 60.0029 29.0969C59.8117 28.9413 59.6247 28.7813 59.4379 28.6204C59.2645 28.4713 59.0885 28.3259 58.9109 28.1819C58.7853 28.0788 58.6618 27.9736 58.5383 27.8683C58.3556 27.7127 58.1698 27.5644 57.9755 27.4235C57.8126 27.4904 57.6907 27.606 57.5602 27.7208C57.5109 27.7638 57.4615 27.8067 57.412 27.8495C57.3876 27.8707 57.3632 27.8919 57.338 27.9137C57.2408 27.9971 57.1414 28.0777 57.0417 28.1582C56.8694 28.298 56.7049 28.4444 56.5409 28.5937C56.4073 28.7125 56.2685 28.8241 56.1296 28.9365C55.9891 29.0523 55.8519 29.1713 55.7147 29.291C55.5464 29.4378 55.3772 29.5829 55.2036 29.7234C54.9546 29.9252 54.7139 30.1362 54.4723 30.3465C54.1599 30.6178 53.8447 30.8858 53.5285 31.1526C53.3702 31.2863 53.2129 31.4213 53.0558 31.5565C52.8961 31.6938 52.7354 31.8293 52.5717 31.9619C52.3221 32.1647 52.0805 32.3764 51.8379 32.5875C51.5258 32.8586 51.2107 33.1265 50.8947 33.3931C50.7083 33.5506 50.523 33.7095 50.3381 33.8689C50.2123 33.9771 50.0849 34.0828 49.9546 34.1857C50.0087 34.2022 50.0087 34.2022 50.0639 34.219C50.4066 34.331 50.7059 34.4407 50.8815 34.7756C50.957 34.9573 50.9536 35.1311 50.9517 35.3255C50.9519 35.3837 50.9519 35.3837 50.952 35.4432C50.9522 35.5734 50.9516 35.7035 50.9509 35.8337C50.9509 35.9286 50.9509 36.0235 50.951 36.1184C50.951 36.3725 50.9503 36.6265 50.9495 36.8805C50.9488 37.119 50.9488 37.3574 50.9487 37.5958C50.9481 38.293 50.9464 38.9902 50.9449 39.6874C50.9425 41.2451 50.94 42.8028 50.9375 44.4076C55.6734 44.4076 60.4093 44.4076 65.2888 44.4076C65.2888 42.9546 65.2888 41.5015 65.2888 40.0043C65.4391 39.6662 65.5264 39.4863 65.8546 39.3308C66.1479 39.2284 66.4288 39.2353 66.7141 39.3606C66.9378 39.4858 67.0913 39.6761 67.1899 39.9119C67.2478 40.1217 67.2324 40.3437 67.2319 40.5599C67.2322 40.6162 67.2325 40.6726 67.2329 40.7289C67.2338 40.8814 67.2339 41.0338 67.2338 41.1863C67.2338 41.3139 67.2341 41.4415 67.2345 41.5691C67.2352 41.8703 67.2353 42.1715 67.2351 42.4727C67.2348 42.7827 67.2357 43.0927 67.2372 43.4027C67.2384 43.6695 67.2388 43.9363 67.2387 44.203C67.2386 44.3621 67.2388 44.5212 67.2398 44.6802C67.2406 44.8299 67.2406 44.9796 67.2398 45.1293C67.2396 45.184 67.2398 45.2387 67.2404 45.2933C67.2439 45.6545 67.2093 45.9593 66.9634 46.24C66.7392 46.4433 66.5045 46.5061 66.2101 46.5063C66.1669 46.5066 66.1669 46.5066 66.1228 46.5069C66.0264 46.5073 65.93 46.507 65.8336 46.5066C65.7637 46.5068 65.6938 46.507 65.6239 46.5072C65.432 46.5078 65.2401 46.5076 65.0482 46.5073C64.8412 46.5072 64.6342 46.5077 64.4271 46.5081C64.0216 46.5087 63.6161 46.5088 63.2105 46.5086C62.881 46.5084 62.5514 46.5085 62.2218 46.5087C62.1514 46.5087 62.1514 46.5087 62.0797 46.5088C61.9844 46.5088 61.8891 46.5089 61.7939 46.5089C60.9003 46.5095 60.0068 46.5093 59.1133 46.5088C58.2957 46.5084 57.4782 46.5089 56.6606 46.5099C55.8213 46.5108 54.9819 46.5112 54.1426 46.5109C53.6713 46.5108 53.2 46.5109 52.7288 46.5116C52.3276 46.5122 51.9264 46.5122 51.5252 46.5115C51.3205 46.5112 51.1158 46.5111 50.9111 46.5117C50.7236 46.5122 50.5362 46.512 50.3488 46.5113C50.281 46.5111 50.2133 46.5112 50.1455 46.5117C49.3991 46.5158 49.3991 46.5159 49.1446 46.2744C49.0221 46.1338 48.9667 46.0384 48.9668 45.8552C48.9667 45.8205 48.9666 45.7858 48.9665 45.7501C48.9666 45.7118 48.9668 45.6735 48.9669 45.634C48.9668 45.5935 48.9668 45.5529 48.9668 45.5112C48.9667 45.3745 48.9669 45.2378 48.9671 45.1012C48.9671 45.0036 48.9671 44.9059 48.9671 44.8083C48.9671 44.5977 48.9672 44.3871 48.9674 44.1764C48.9678 43.8719 48.9679 43.5674 48.9679 43.2629C48.968 42.7688 48.9683 42.2748 48.9686 41.7807C48.969 41.3007 48.9693 40.8207 48.9694 40.3407C48.9694 40.3112 48.9695 40.2816 48.9695 40.2511C48.9695 40.1028 48.9696 39.9544 48.9696 39.8061C48.97 38.5748 48.9707 37.3435 48.9716 36.1121C48.9234 36.1128 48.8753 36.1134 48.8256 36.114C48.6456 36.1162 48.4655 36.1175 48.2855 36.1186C48.2078 36.1192 48.1301 36.12 48.0525 36.121C47.9403 36.1225 47.8282 36.1231 47.716 36.1237C47.6817 36.1243 47.6474 36.1249 47.6121 36.1255C47.2168 36.1256 46.9439 36.0137 46.6587 35.7396C46.4603 35.5094 46.3851 35.2491 46.4016 34.9471C46.4767 34.4579 46.9714 34.1716 47.3301 33.8822C47.4414 33.7899 47.548 33.6939 47.6544 33.596C47.8302 33.4342 48.0119 33.2826 48.1977 33.1326C48.3011 33.0473 48.4007 32.959 48.4998 32.8686C48.6333 32.7469 48.7696 32.6307 48.9102 32.5173C49.0597 32.3963 49.2036 32.2715 49.3451 32.1413C49.5209 31.9796 49.7025 31.8279 49.8884 31.678C49.9918 31.5926 50.0914 31.5043 50.1905 31.414C50.3595 31.2599 50.5349 31.1155 50.7127 30.9717C50.8502 30.8579 50.9815 30.7379 51.1134 30.6177C51.2155 30.527 51.3202 30.4407 51.4265 30.3549C51.5761 30.234 51.72 30.1092 51.8615 29.979C52.0373 29.8172 52.2189 29.6656 52.4047 29.5156C52.5082 29.4303 52.6077 29.342 52.7069 29.2517C52.8404 29.13 52.9766 29.0137 53.1172 28.9003C53.2668 28.7793 53.4107 28.6546 53.5522 28.5243C53.7279 28.3626 53.9096 28.2109 54.0954 28.061C54.1989 27.9756 54.2984 27.8873 54.3975 27.797C54.5311 27.6753 54.6673 27.5591 54.8079 27.4456C54.9575 27.3247 55.1014 27.1999 55.2429 27.0697C55.4186 26.9079 55.6003 26.7563 55.7861 26.6063C55.8896 26.521 55.9891 26.4327 56.0882 26.3423C56.2563 26.1892 56.4305 26.0458 56.6075 25.9033C56.7219 25.8077 56.83 25.7073 56.9385 25.6052C57.3594 25.2175 57.8679 25.0188 58.4203 25.2808Z" fill="#115056"/>
<path d="M28.6205 61.7309C28.6918 61.7307 28.6918 61.7307 28.7645 61.7304C28.8958 61.7301 29.027 61.7303 29.1583 61.7307C29.3014 61.7311 29.4444 61.7307 29.5875 61.7305C29.838 61.7301 30.0886 61.7302 30.3391 61.7305C30.7116 61.7311 31.0842 61.7309 31.4567 61.7307C32.1221 61.7302 32.7874 61.7304 33.4528 61.7309C34.035 61.7313 34.6172 61.7315 35.1995 61.7314C35.2574 61.7314 35.2574 61.7314 35.3165 61.7314C35.4733 61.7314 35.63 61.7314 35.7868 61.7313C37.2574 61.7312 38.7279 61.7317 40.1985 61.7325C41.5051 61.7332 42.8117 61.7335 44.1184 61.7332C44.2023 61.7332 44.2862 61.7332 44.3701 61.7332C44.4324 61.7332 44.4324 61.7332 44.4958 61.7332C44.7047 61.7331 44.9135 61.7331 45.1223 61.7331C45.1635 61.7331 45.2047 61.7331 45.2471 61.7331C46.3389 61.7329 47.4306 61.7331 48.5223 61.7335C48.6398 61.7335 48.7572 61.7335 48.8747 61.7336C48.9526 61.7336 49.0305 61.7336 49.1085 61.7336C49.6518 61.7338 50.1952 61.7338 50.7385 61.7337C51.4387 61.7337 52.1388 61.7338 52.839 61.7344C53.2093 61.7347 53.5796 61.7348 53.9499 61.7346C54.1972 61.7345 54.4445 61.7347 54.6918 61.7351C54.8327 61.7353 54.9737 61.7354 55.1146 61.7352C55.2664 61.7349 55.4183 61.7352 55.5701 61.7356C55.6138 61.7355 55.6575 61.7353 55.7026 61.7351C56.1371 61.7373 56.4784 61.7962 56.8022 62.1013C57.113 62.4302 57.1736 62.6845 57.1628 63.1364C57.1307 63.4752 56.9623 63.7183 56.7168 63.9473C56.3793 64.2138 56.0297 64.2341 55.6136 64.2325C55.5425 64.2327 55.5425 64.2327 55.4699 64.2329C55.3383 64.2332 55.2068 64.2331 55.0752 64.2329C54.932 64.2327 54.7888 64.233 54.6457 64.2332C54.3948 64.2336 54.1439 64.2336 53.893 64.2335C53.5199 64.2333 53.1468 64.2335 52.7737 64.2338C52.0685 64.2344 51.3634 64.2345 50.6583 64.2344C50.1138 64.2343 49.5693 64.2344 49.0248 64.2346C48.9466 64.2346 48.8684 64.2346 48.7902 64.2346C48.6724 64.2347 48.5546 64.2347 48.4367 64.2347C47.341 64.2351 46.2452 64.2352 45.1495 64.2351C45.1082 64.2351 45.0668 64.2351 45.0243 64.2351C44.8149 64.235 44.6054 64.235 44.396 64.235C44.3544 64.235 44.3129 64.2349 44.27 64.2349C44.1859 64.2349 44.1018 64.2349 44.0177 64.2349C42.7089 64.2347 41.4002 64.235 40.0915 64.2357C38.6213 64.2365 37.1512 64.237 35.6811 64.2368C35.5244 64.2368 35.3676 64.2368 35.2109 64.2368C35.1723 64.2368 35.1337 64.2368 35.094 64.2367C34.5112 64.2367 33.9284 64.237 33.3456 64.2374C32.6829 64.2379 32.0201 64.2379 31.3574 64.2374C30.9865 64.2372 30.6156 64.2372 30.2446 64.2378C29.9969 64.2381 29.7491 64.238 29.5013 64.2375C29.3601 64.2373 29.219 64.2372 29.0778 64.2377C28.9256 64.2382 28.7734 64.2377 28.6212 64.2372C28.5776 64.2375 28.5339 64.2378 28.489 64.2381C28.0365 64.235 27.6757 64.1485 27.3459 63.8294C27.1213 63.5958 27.0504 63.2999 27.0166 62.9841C27.063 62.5514 27.2088 62.2245 27.5523 61.9471C27.8762 61.7443 28.2491 61.7285 28.6205 61.7309Z" fill="#165056"/>
<path d="M28.1409 55.6419C28.1818 55.6417 28.2228 55.6415 28.2649 55.6413C28.3097 55.6414 28.3545 55.6416 28.4007 55.6417C28.4486 55.6416 28.4965 55.6415 28.5459 55.6413C28.6794 55.641 28.8128 55.6411 28.9463 55.6413C29.0913 55.6414 29.2364 55.6411 29.3814 55.6408C29.6358 55.6404 29.8901 55.6403 30.1445 55.6404C30.5227 55.6405 30.9009 55.6402 31.2792 55.6397C31.994 55.639 32.7088 55.6388 33.4236 55.6387C33.9755 55.6387 34.5274 55.6385 35.0793 55.6383C35.2381 55.6382 35.3968 55.6381 35.5556 55.6381C35.5951 55.638 35.6345 55.638 35.6752 55.638C36.7856 55.6375 37.896 55.6372 39.0064 55.6373C39.0483 55.6373 39.0902 55.6373 39.1333 55.6373C39.3456 55.6373 39.5579 55.6373 39.7702 55.6373C39.8123 55.6373 39.8545 55.6373 39.8979 55.6373C39.9832 55.6373 40.0685 55.6373 40.1537 55.6373C41.4804 55.6373 42.8071 55.6368 44.1337 55.6357C45.6236 55.6345 47.1134 55.6338 48.6032 55.6339C48.762 55.6339 48.9208 55.6339 49.0797 55.6339C49.1383 55.6339 49.1383 55.6339 49.1981 55.6339C49.8279 55.6339 50.4578 55.6334 51.0876 55.6327C51.7203 55.632 52.3531 55.632 52.9859 55.6325C53.362 55.6328 53.7381 55.6326 54.1141 55.6318C54.3653 55.6314 54.6164 55.6315 54.8675 55.632C55.0107 55.6323 55.1538 55.6324 55.297 55.6318C55.4512 55.6311 55.6054 55.6316 55.7596 55.6323C55.804 55.6319 55.8484 55.6315 55.8942 55.6311C56.2794 55.6346 56.5596 55.7436 56.8426 56.0057C57.114 56.3084 57.1633 56.6088 57.16 57.0036C57.1336 57.344 56.9865 57.6031 56.7352 57.8286C56.4131 58.0842 56.0378 58.1067 55.6411 58.1043C55.5934 58.1045 55.5457 58.1047 55.4965 58.1049C55.3645 58.1053 55.2325 58.1052 55.1005 58.1048C54.9567 58.1045 54.8129 58.1049 54.6691 58.1053C54.4172 58.1058 54.1653 58.1058 53.9135 58.1056C53.5389 58.1052 53.1644 58.1055 52.7898 58.106C52.1209 58.1068 51.4519 58.1068 50.783 58.1066C50.1975 58.1065 49.6121 58.1065 49.0266 58.1067C48.9481 58.1067 48.8696 58.1068 48.7911 58.1068C48.6728 58.1068 48.5544 58.1069 48.4361 58.1069C47.336 58.1074 46.236 58.1075 45.1359 58.1072C45.0944 58.1072 45.0529 58.1072 45.0102 58.1072C44.6734 58.1071 44.3367 58.107 43.9999 58.1069C42.6861 58.1065 41.3724 58.1068 40.0586 58.1077C38.5826 58.1088 37.1067 58.1093 35.6307 58.109C35.4733 58.109 35.316 58.1089 35.1586 58.1089C35.1199 58.1089 35.0812 58.1089 35.0412 58.1089C34.4562 58.1088 33.8712 58.1091 33.2861 58.1096C32.6208 58.1102 31.9556 58.1102 31.2903 58.1095C30.918 58.1092 30.5457 58.1092 30.1734 58.1099C29.9247 58.1103 29.676 58.1102 29.4273 58.1095C29.2856 58.1092 29.1439 58.1091 29.0022 58.1097C28.8494 58.1103 28.6966 58.1098 28.5439 58.1091C28.5001 58.1095 28.4563 58.1098 28.4112 58.1102C27.9936 58.1063 27.6476 57.9991 27.3434 57.7075C27.1206 57.4457 27.0163 57.144 27.0227 56.8012C27.0524 56.4871 27.1759 56.2024 27.3849 55.9664C27.6103 55.7807 27.8435 55.6421 28.1409 55.6419Z" fill="#165056"/>
<path d="M28.1327 49.8625C28.1592 49.8623 28.1856 49.8622 28.2129 49.8621C28.3013 49.8617 28.3897 49.8619 28.4781 49.8621C28.5423 49.8619 28.6065 49.8617 28.6706 49.8615C28.8467 49.8611 29.0227 49.8611 29.1988 49.8612C29.3888 49.8612 29.5788 49.8607 29.7687 49.8604C30.1409 49.8597 30.513 49.8595 30.8851 49.8595C31.1876 49.8594 31.4901 49.8593 31.7926 49.859C32.6504 49.8583 33.5082 49.858 34.366 49.858C34.4123 49.858 34.4585 49.858 34.5061 49.858C34.5756 49.858 34.5756 49.858 34.6464 49.858C35.3967 49.8581 36.1469 49.8573 36.8972 49.8562C37.6676 49.8551 38.4381 49.8545 39.2086 49.8546C39.6411 49.8546 40.0736 49.8544 40.5061 49.8536C40.8744 49.8528 41.2426 49.8527 41.6109 49.8532C41.7987 49.8535 41.9866 49.8535 42.1744 49.8528C42.3465 49.8522 42.5186 49.8523 42.6907 49.853C42.7528 49.8531 42.8149 49.8529 42.877 49.8525C43.3111 49.8496 43.7004 49.872 44.034 50.1773C44.3252 50.4965 44.3894 50.8248 44.3814 51.2451C44.3666 51.5641 44.2363 51.8137 44.0191 52.0444C43.7291 52.292 43.4139 52.3543 43.0415 52.3545C43.0154 52.3546 42.9894 52.3546 42.9625 52.3547C42.8753 52.3549 42.7881 52.3548 42.7009 52.3547C42.6377 52.3548 42.5745 52.3549 42.5113 52.355C42.3377 52.3552 42.164 52.3552 41.9904 52.3552C41.8032 52.3552 41.6159 52.3554 41.4286 52.3556C41.0617 52.3559 40.6949 52.356 40.328 52.356C40.0298 52.356 39.7316 52.3561 39.4334 52.3562C38.588 52.3566 37.7427 52.3568 36.8973 52.3567C36.8517 52.3567 36.8061 52.3567 36.7592 52.3567C36.6907 52.3567 36.6907 52.3567 36.6209 52.3567C35.8813 52.3567 35.1417 52.3571 34.402 52.3576C33.6427 52.3582 32.8833 52.3585 32.1239 52.3584C31.6976 52.3584 31.2712 52.3585 30.8448 52.359C30.4819 52.3593 30.1189 52.3594 29.7559 52.3591C29.5707 52.359 29.3855 52.359 29.2003 52.3593C29.0307 52.3597 28.8611 52.3596 28.6915 52.3593C28.6302 52.3592 28.5689 52.3593 28.5077 52.3595C28.028 52.3611 27.611 52.35 27.2399 52.014C26.9932 51.7519 26.9043 51.4673 26.8936 51.111C26.9067 50.6885 27.0386 50.3981 27.3457 50.1085C27.5873 49.9173 27.8281 49.8628 28.1327 49.8625Z" fill="#165056"/>
<path d="M28.2035 44.1126C28.2587 44.1124 28.3139 44.1121 28.3691 44.1118C28.5202 44.1112 28.6713 44.1115 28.8224 44.112C28.9856 44.1123 29.1487 44.1118 29.3119 44.1113C29.6313 44.1106 29.9508 44.1108 30.2702 44.1112C30.5299 44.1116 30.7895 44.1117 31.0491 44.1115C31.0861 44.1115 31.1231 44.1114 31.1612 44.1114C31.2363 44.1114 31.3114 44.1113 31.3865 44.1113C32.0905 44.1108 32.7946 44.1113 33.4987 44.1122C34.1026 44.1129 34.7066 44.1127 35.3106 44.112C36.0121 44.1112 36.7137 44.1109 37.4153 44.1113C37.4901 44.1114 37.5649 44.1114 37.6397 44.1115C37.695 44.1115 37.695 44.1115 37.7513 44.1116C38.0106 44.1117 38.2699 44.1115 38.5292 44.1111C38.8452 44.1106 39.1613 44.1108 39.4773 44.1116C39.6385 44.112 39.7997 44.1122 39.9609 44.1117C40.1086 44.1112 40.2562 44.1115 40.4039 44.1123C40.4824 44.1125 40.561 44.112 40.6396 44.1115C40.9615 44.1143 41.1729 44.1523 41.4285 44.3587C41.7278 44.7017 41.8108 45.0656 41.7904 45.5136C41.7558 45.8709 41.6311 46.1124 41.394 46.3784C41.1169 46.6049 40.8338 46.5869 40.4901 46.5853C40.4349 46.5855 40.3798 46.5857 40.3246 46.5859C40.1734 46.5865 40.0222 46.5863 39.8711 46.5861C39.7079 46.5859 39.5447 46.5864 39.3815 46.5868C39.0619 46.5874 38.7423 46.5875 38.4227 46.5873C38.163 46.5871 37.9032 46.5872 37.6435 46.5874C37.6065 46.5874 37.5695 46.5874 37.5314 46.5875C37.4563 46.5875 37.3812 46.5876 37.3061 46.5876C36.6018 46.5882 35.8975 46.588 35.1931 46.5875C34.5488 46.5871 33.9045 46.5876 33.2602 46.5886C32.5985 46.5895 31.9369 46.5899 31.2752 46.5897C30.9038 46.5895 30.5323 46.5896 30.1609 46.5903C29.8447 46.5909 29.5285 46.5909 29.2123 46.5902C29.0511 46.5899 28.8898 46.5898 28.7285 46.5904C28.5807 46.5909 28.433 46.5908 28.2853 46.59C28.2067 46.5898 28.1281 46.5903 28.0495 46.5909C27.7275 46.5883 27.5161 46.5504 27.2604 46.3438C26.9611 46.0009 26.8783 45.6371 26.8984 45.1891C26.9309 44.856 27.0412 44.6099 27.2604 44.3587C27.5615 44.1156 27.8286 44.11 28.2035 44.1126Z" fill="#165056"/>
<path d="M35.3153 28.6153C36.0852 29.2699 36.5643 30.1722 36.6544 31.1797C36.6996 31.8401 36.5901 32.4683 36.3049 33.0671C36.2663 33.1776 36.2723 33.2127 36.3105 33.3208C36.3896 33.4101 36.4691 33.4931 36.5543 33.5761C36.5925 33.614 36.5925 33.614 36.6315 33.6527C36.6868 33.7076 36.7422 33.7623 36.7978 33.8169C36.8858 33.9034 36.9734 33.9903 37.061 34.0773C37.2787 34.2933 37.4969 34.5087 37.7152 34.7241C37.8995 34.9061 38.0835 35.0882 38.2672 35.2707C38.3533 35.3561 38.4399 35.4412 38.5264 35.5262C38.5796 35.5789 38.6327 35.6316 38.6858 35.6844C38.7098 35.7078 38.7338 35.7312 38.7586 35.7553C38.931 35.9276 39.0797 36.1022 39.123 36.3492C39.1188 36.7425 39.0285 36.9371 38.7606 37.2229C38.5373 37.4356 38.3308 37.5684 38.0184 37.5865C37.6882 37.5646 37.4672 37.3705 37.2447 37.1427C37.2182 37.1163 37.1917 37.0898 37.1643 37.0625C37.0776 36.9756 36.9914 36.8883 36.9052 36.8008C36.8449 36.7402 36.7845 36.6796 36.7241 36.6191C36.5658 36.4601 36.4079 36.3008 36.2502 36.1413C36.0889 35.9784 35.9272 35.816 35.7655 35.6535C35.4487 35.3351 35.1324 35.0161 34.8164 34.6969C34.7759 34.7132 34.7355 34.7296 34.6937 34.7465C34.6401 34.768 34.5864 34.7896 34.5328 34.8112C34.5061 34.822 34.4795 34.8328 34.4521 34.8439C33.5462 35.2078 32.5215 35.2035 31.6168 34.8373C31.1189 34.6236 30.7184 34.3287 30.3341 33.9499C30.291 33.9075 30.291 33.9075 30.2469 33.8642C29.6709 33.2585 29.3554 32.4185 29.3119 31.591C29.3094 31.546 29.3094 31.546 29.3069 31.5001C29.2815 30.5334 29.6374 29.6487 30.2555 28.9175C30.2776 28.8914 30.2997 28.8652 30.3225 28.8383C31.6336 27.4214 33.8728 27.484 35.3153 28.6153ZM30.9433 29.6982C30.4889 30.2777 30.2895 30.936 30.3341 31.6696C30.4427 32.4423 30.7998 33.0538 31.3957 33.5567C32.0627 34.0297 32.7817 34.1453 33.5827 34.0511C34.059 33.9457 34.5005 33.6893 34.8558 33.3602C34.8968 33.3223 34.8968 33.3223 34.9387 33.2837C35.3946 32.8189 35.6323 32.1331 35.652 31.4927C35.6417 30.8037 35.3964 30.1768 34.9344 29.6645C34.9149 29.6415 34.8955 29.6184 34.8754 29.5947C34.4763 29.1547 33.8404 28.837 33.2467 28.7941C32.355 28.7538 31.5495 29.008 30.9433 29.6982Z" fill="#115056"/>
<path d="M57.8179 32.3772C58.2201 32.3772 58.6223 32.3772 59.0368 32.3772C59.0497 32.7794 59.0627 33.1816 59.0761 33.596C59.2525 33.6276 59.2525 33.6276 59.4324 33.6599C59.9624 33.7622 60.6492 33.9502 61.042 34.343C61.0179 34.5838 60.8925 34.8036 60.7938 35.0211C60.7747 35.0649 60.7555 35.1087 60.7358 35.1538C60.717 35.1954 60.6982 35.2369 60.6788 35.2798C60.6532 35.3369 60.6532 35.3369 60.6271 35.3951C60.5702 35.4831 60.5702 35.4831 60.4909 35.518C60.3739 35.5246 60.3054 35.4761 60.204 35.4192C59.544 35.0735 58.7384 34.8845 57.9967 35.0397C57.7557 35.121 57.5655 35.2314 57.41 35.4364C57.3531 35.6354 57.3583 35.7828 57.4493 35.9647C57.6396 36.1851 57.856 36.2651 58.1275 36.3407C58.1614 36.3505 58.1954 36.3604 58.2303 36.3705C58.381 36.4142 58.5319 36.4567 58.683 36.499C60.6419 37.0481 60.6419 37.0481 61.1378 37.8445C61.4202 38.3588 61.4647 38.8802 61.3185 39.4475C61.1202 40.0556 60.6851 40.4546 60.1377 40.7513C59.7988 40.9201 59.4191 41.0658 59.0368 41.0658C59.0368 41.494 59.0368 41.9221 59.0368 42.3632C58.6345 42.3632 58.2323 42.3632 57.8179 42.3632C57.8179 41.9481 57.8179 41.5329 57.8179 41.1052C57.7141 41.1052 57.6103 41.1052 57.5033 41.1052C57.3892 41.0918 57.2787 41.0669 57.1667 41.0413C57.136 41.0343 57.1053 41.0273 57.0736 41.02C56.4247 40.8642 55.8341 40.5731 55.3408 40.1223C55.7227 39.2647 55.7227 39.2647 55.8913 38.9428C56.0276 39.0064 56.1489 39.0866 56.2746 39.1689C56.9963 39.622 57.9134 39.8141 58.7554 39.6626C59.0424 39.5825 59.3418 39.4667 59.5258 39.2213C59.6209 39.0506 59.6551 38.9032 59.6265 38.7069C59.5217 38.4427 59.3717 38.346 59.1154 38.2352C58.8141 38.1121 58.4994 38.0416 58.184 37.9649C57.3263 37.7546 56.3509 37.4805 55.8616 36.6767C55.6052 36.1912 55.5347 35.6203 55.6947 35.0899C55.9465 34.469 56.329 34.0656 56.9498 33.7978C57.2264 33.696 57.5223 33.596 57.8179 33.596C57.8179 33.1938 57.8179 32.7916 57.8179 32.3772Z" fill="#115056"/>
</svg>
