<svg width="60" height="62" viewBox="0 0 60 62" fill="none" xmlns="http://www.w3.org/2000/svg">
<path d="M10.5595 5.53819C10.619 5.53807 10.619 5.53807 10.6797 5.53795C10.8121 5.53773 10.9445 5.53778 11.0769 5.53784C11.173 5.53774 11.2691 5.53762 11.3652 5.53748C11.6012 5.5372 11.8372 5.5371 12.0733 5.53708C12.3562 5.53704 12.6391 5.53678 12.9219 5.53651C13.6053 5.53588 14.2887 5.53565 14.9721 5.53546C15.2955 5.53537 15.6188 5.53523 15.9422 5.53508C17.0493 5.53458 18.1565 5.53416 19.2636 5.53402C19.3331 5.53401 19.4025 5.534 19.4719 5.53399C19.5415 5.53398 19.6111 5.53398 19.6808 5.53397C19.8204 5.53395 19.96 5.53393 20.0997 5.53391C20.1343 5.53391 20.1689 5.53391 20.2046 5.5339C21.3279 5.53376 22.4512 5.53313 23.5745 5.53222C24.7626 5.53125 25.9507 5.53071 27.1388 5.53066C27.2692 5.53066 27.3996 5.53065 27.53 5.53064C27.5621 5.53064 27.5942 5.53063 27.6273 5.53063C28.1439 5.53059 28.6606 5.53015 29.1773 5.52958C29.6964 5.52902 30.2155 5.52889 30.7346 5.52921C31.043 5.52938 31.3514 5.52923 31.6597 5.52861C31.89 5.52818 32.1202 5.52837 32.3504 5.52879C32.4436 5.52887 32.5368 5.52875 32.6299 5.52841C32.7565 5.52797 32.8831 5.52826 33.0097 5.52874C33.0459 5.52844 33.082 5.52814 33.1193 5.52783C33.5092 5.53097 33.8416 5.62489 34.1281 5.8972C34.3951 6.18414 34.509 6.4952 34.4953 6.88683C34.4508 7.25735 34.2898 7.5394 34.0101 7.78432C33.6975 7.99757 33.3473 8.03197 32.9791 8.03006C32.9197 8.03023 32.9197 8.03023 32.859 8.0304C32.7261 8.03067 32.5932 8.03039 32.4603 8.0301C32.364 8.03019 32.2678 8.03031 32.1716 8.03046C31.9624 8.03071 31.7531 8.03072 31.5438 8.03051C31.2326 8.03021 30.9214 8.03036 30.6103 8.03062C30.0866 8.03103 29.563 8.0311 29.0393 8.031C28.291 8.03087 27.5427 8.03139 26.7943 8.03205C26.4939 8.03232 26.1935 8.03256 25.8932 8.0328C25.8431 8.03284 25.8431 8.03284 25.792 8.03288C24.9977 8.03352 24.2034 8.03394 23.4091 8.0343C23.3744 8.03432 23.3396 8.03434 23.3038 8.03435C22.4932 8.03472 21.6825 8.03499 20.8719 8.03509C20.8196 8.0351 20.8196 8.0351 20.7663 8.0351C20.5905 8.03512 20.4147 8.03514 20.239 8.03516C20.2042 8.03517 20.1695 8.03517 20.1337 8.03518C20.0636 8.03518 19.9935 8.03519 19.9234 8.0352C18.7645 8.03533 17.6056 8.036 16.4468 8.03725C16.283 8.03742 16.1193 8.03759 15.9556 8.03776C15.9234 8.03779 15.8912 8.03782 15.858 8.03785C15.3398 8.03835 14.8217 8.03828 14.3035 8.03797C13.7826 8.03766 13.2617 8.03792 12.7407 8.03874C12.4314 8.03921 12.1221 8.03924 11.8128 8.03864C11.5816 8.03824 11.3504 8.03866 11.1192 8.0394C11.0258 8.03957 10.9325 8.03947 10.8391 8.03908C9.99005 8.03579 9.30803 8.15167 8.67844 8.77043C8.28384 9.19209 8.05317 9.74083 8.05487 10.318C8.05477 10.362 8.05477 10.362 8.05466 10.4069C8.05448 10.5056 8.05457 10.6043 8.05466 10.7031C8.05458 10.7747 8.05449 10.8463 8.05438 10.9179C8.05413 11.1158 8.05412 11.3137 8.05416 11.5116C8.05415 11.7265 8.05392 11.9413 8.05371 12.1562C8.05335 12.5829 8.05319 13.0096 8.0531 13.4363C8.05299 13.9472 8.05265 14.458 8.0523 14.9689C8.05148 16.2039 8.05107 17.4388 8.05072 18.6737C8.05061 19.0827 8.05048 19.4916 8.05033 19.9006C8.05032 19.9439 8.05032 19.9439 8.0503 19.988C8.05026 20.1047 8.05022 20.2214 8.05018 20.3382C8.04947 22.3346 8.04887 24.331 8.04857 26.3275C8.04855 26.4843 8.04853 26.6411 8.0485 26.7979C8.0485 26.8446 8.0485 26.8446 8.04849 26.8922C8.04844 27.2074 8.0484 27.5226 8.04835 27.8378C8.04834 27.901 8.04833 27.9642 8.04832 28.0273C8.04801 30.0569 8.04713 32.0864 8.04585 34.1159C8.04494 35.5741 8.04409 37.0322 8.04381 38.4904C8.0438 38.5204 8.0438 38.5504 8.04379 38.5813C8.04367 39.2397 8.04359 39.898 8.04355 40.5564C8.04353 40.8213 8.04351 41.0862 8.04349 41.3511C8.04348 41.3801 8.04348 41.4091 8.04348 41.439C8.0434 42.3728 8.04284 43.3066 8.04203 44.2404C8.04122 45.181 8.04091 46.1217 8.04129 47.0623C8.04152 47.6459 8.04133 48.2295 8.04043 48.8131C8.0399 49.1854 8.03995 49.5577 8.04045 49.93C8.04072 50.1421 8.04075 50.3543 8.04007 50.5665C8.03947 50.7596 8.03959 50.9528 8.04029 51.1459C8.04041 51.2152 8.04027 51.2845 8.03984 51.3538C8.0353 52.1235 8.21781 52.7592 8.7709 53.3219C9.17146 53.6967 9.71081 53.9449 10.2633 53.9454C10.3114 53.9456 10.3595 53.9457 10.409 53.9458C10.4624 53.9458 10.5157 53.9458 10.569 53.9457C10.6259 53.9458 10.6828 53.9459 10.7397 53.946C10.8968 53.9463 11.0539 53.9463 11.2109 53.9463C11.3816 53.9464 11.5522 53.9466 11.7228 53.9469C12.0616 53.9473 12.4003 53.9475 12.739 53.9477C13.1447 53.9479 13.5503 53.9483 13.9559 53.9487C14.9364 53.9497 15.9169 53.9503 16.8974 53.9508C17.2222 53.951 17.547 53.9512 17.8717 53.9514C19.5982 53.9524 21.3247 53.9532 23.0512 53.9537C23.4513 53.9538 23.8513 53.954 24.2514 53.9541C24.3011 53.9541 24.3508 53.9541 24.402 53.9541C26.0135 53.9546 27.6249 53.9558 29.2363 53.9575C30.8928 53.9591 32.5493 53.9602 34.2057 53.9604C34.4397 53.9604 34.6737 53.9605 34.9076 53.9605C34.9537 53.9605 34.9997 53.9605 35.0472 53.9605C35.7882 53.9607 36.5292 53.9615 37.2703 53.9625C38.0152 53.9635 38.7601 53.9638 39.505 53.9634C39.9475 53.9632 40.39 53.9635 40.8326 53.9646C41.1283 53.9652 41.4241 53.9652 41.7198 53.9646C41.8882 53.9643 42.0566 53.9642 42.225 53.9651C42.3786 53.9659 42.5321 53.9657 42.6857 53.9648C42.7662 53.9646 42.8467 53.9654 42.9273 53.9661C43.4838 53.961 43.9829 53.8064 44.4295 53.4685C44.4581 53.4471 44.4867 53.4257 44.5162 53.4036C44.9935 53.0164 45.2344 52.4506 45.3339 51.8566C45.3494 51.6493 45.3496 51.443 45.3485 51.2354C45.3486 51.1741 45.3487 51.1128 45.3489 51.0516C45.3493 50.8845 45.349 50.7176 45.3486 50.5505C45.3482 50.3699 45.3485 50.1893 45.3488 50.0087C45.3492 49.6961 45.3491 49.3835 45.3488 49.0709C45.3484 48.6184 45.3487 48.166 45.3493 47.7136C45.3502 46.9788 45.3507 46.244 45.3509 45.5092C45.3509 45.4434 45.3509 45.4434 45.3509 45.3761C45.351 44.8859 45.3511 44.3957 45.351 43.9055C45.351 43.7277 45.351 43.5498 45.351 43.3719C45.351 43.328 45.351 43.2841 45.351 43.2389C45.351 42.5067 45.3515 41.7745 45.3526 41.0423C45.3532 40.591 45.3533 40.1398 45.3527 39.6885C45.3523 39.3794 45.3525 39.0702 45.3531 38.7611C45.3535 38.5828 45.3536 38.4046 45.353 38.2263C45.3524 38.063 45.3526 37.8996 45.3533 37.7363C45.3535 37.6774 45.3534 37.6184 45.3529 37.5595C45.3499 37.1021 45.3994 36.6994 45.727 36.3555C46.0356 36.0898 46.3278 36.037 46.7254 36.0412C47.0369 36.0648 47.2791 36.1909 47.5059 36.403C47.7125 36.6463 47.8157 36.9287 47.8162 37.2442C47.8163 37.2696 47.8164 37.2951 47.8165 37.3213C47.8167 37.4072 47.8167 37.4931 47.8167 37.579C47.8168 37.641 47.817 37.703 47.8171 37.7649C47.8175 37.9357 47.8177 38.1065 47.8178 38.2773C47.8179 38.4614 47.8183 38.6454 47.8187 38.8295C47.8194 39.2744 47.8198 39.7193 47.8202 40.1642C47.8204 40.3739 47.8206 40.5835 47.8208 40.7932C47.8214 41.4905 47.822 42.1877 47.8223 42.885C47.8224 43.0661 47.8224 43.2471 47.8225 43.4281C47.8225 43.4731 47.8226 43.5181 47.8226 43.5645C47.8229 44.2922 47.8239 45.0199 47.8252 45.7476C47.8265 46.4952 47.8272 47.2428 47.8273 47.9905C47.8274 48.41 47.8277 48.8296 47.8287 49.2491C47.8296 49.6067 47.8299 49.9643 47.8295 50.3219C47.8294 50.5041 47.8294 50.6863 47.8302 50.8685C47.8358 52.2717 47.8358 52.2717 47.6536 52.9181C47.6425 52.9586 47.6425 52.9586 47.631 52.9999C47.4155 53.7732 46.9815 54.422 46.4348 55.0018C46.4087 55.0309 46.3827 55.0599 46.3558 55.0898C45.5684 55.9325 44.3801 56.3764 43.25 56.4565C43.0621 56.462 42.8744 56.4618 42.6864 56.4615C42.6297 56.4616 42.573 56.4617 42.5163 56.4618C42.3606 56.4619 42.205 56.4619 42.0493 56.4618C41.8799 56.4617 41.7105 56.4619 41.5411 56.462C41.2442 56.4622 40.9474 56.4623 40.6505 56.4622C40.209 56.4622 39.7676 56.4623 39.3261 56.4625C38.4917 56.4629 37.6574 56.463 36.823 56.4631C36.1786 56.4631 35.5343 56.4632 34.8899 56.4633C34.7045 56.4633 34.519 56.4633 34.3335 56.4634C34.2874 56.4634 34.2413 56.4634 34.1938 56.4634C32.8968 56.4636 31.5998 56.4638 30.3028 56.4638C30.2539 56.4638 30.205 56.4638 30.1546 56.4638C29.9067 56.4638 29.6589 56.4638 29.411 56.4638C29.3372 56.4638 29.3372 56.4638 29.2618 56.4638C29.1623 56.4638 29.0627 56.4638 28.9632 56.4638C27.4145 56.4637 25.8658 56.464 24.3171 56.4646C22.5772 56.4652 20.8373 56.4655 19.0974 56.4655C18.9118 56.4655 18.7263 56.4655 18.5407 56.4655C18.495 56.4655 18.4493 56.4655 18.4023 56.4655C17.6672 56.4655 16.9321 56.4657 16.1971 56.4661C15.4582 56.4664 14.7194 56.4664 13.9805 56.4662C13.5417 56.466 13.1028 56.4661 12.664 56.4665C12.3706 56.4667 12.0773 56.4667 11.7839 56.4664C11.6169 56.4662 11.45 56.4662 11.283 56.4665C9.82012 56.4691 8.41867 56.3243 7.27357 55.3163C7.24189 55.2898 7.21021 55.2633 7.17758 55.236C6.22651 54.419 5.65976 53.2321 5.55153 51.9885C5.53473 51.7105 5.53808 51.432 5.53839 51.1536C5.53832 51.0822 5.53824 51.0107 5.53814 50.9393C5.53793 50.7429 5.53795 50.5465 5.53802 50.35C5.53805 50.1364 5.53785 49.9227 5.53768 49.709C5.53738 49.2852 5.5373 48.8615 5.53727 48.4377C5.53724 47.93 5.53698 47.4224 5.53671 46.9148C5.53609 45.717 5.53586 44.5193 5.53567 43.3216C5.53558 42.7121 5.53543 42.1025 5.53528 41.493C5.53478 39.5372 5.53436 37.5814 5.53422 35.6256C5.53422 35.5322 5.53421 35.4387 5.5342 35.3453C5.53419 35.1579 5.53418 34.9705 5.53416 34.7831C5.53415 34.5637 5.53413 34.3442 5.53412 34.1248C5.53411 34.062 5.53411 33.9993 5.5341 33.9365C5.53396 31.92 5.53337 29.9035 5.53246 27.887C5.5318 26.4378 5.53119 24.9886 5.53101 23.5394C5.53101 23.5096 5.531 23.4797 5.531 23.449C5.53092 22.7943 5.53088 22.1397 5.53086 21.485C5.53086 21.2507 5.53085 21.0164 5.53084 20.7822C5.53084 20.7239 5.53083 20.6656 5.53083 20.6073C5.53079 19.6796 5.5304 18.7519 5.52983 17.8242C5.52924 16.8635 5.52908 15.9027 5.5294 14.9419C5.52958 14.3883 5.52942 13.8347 5.5288 13.281C5.52842 12.911 5.52847 12.5409 5.52886 12.1708C5.52907 11.9601 5.5291 11.7495 5.5286 11.5388C5.52815 11.3466 5.52826 11.1545 5.52879 10.9624C5.52888 10.8938 5.52878 10.8251 5.52846 10.7565C5.52563 10.1211 5.56688 9.45806 5.78438 8.85566C5.79612 8.82199 5.80786 8.78831 5.81996 8.75362C6.255 7.55286 7.14603 6.56576 8.298 6.01606C9.02713 5.6811 9.75908 5.53665 10.5595 5.53819Z" fill="#165056"/>
<path d="M43.4203 10.2808C43.6036 10.3843 43.7565 10.505 43.9089 10.6494C44.0039 10.7387 44.1028 10.8205 44.2042 10.9025C44.3643 11.0322 44.5219 11.1643 44.6785 11.2981C44.8529 11.4468 45.0305 11.5902 45.2118 11.7306C45.4385 11.9063 45.6558 12.0912 45.8716 12.2803C46.0416 12.429 46.2149 12.5724 46.3924 12.7122C46.5003 12.7974 46.6056 12.8854 46.7108 12.9739C46.7118 12.9364 46.7128 12.8988 46.7139 12.8601C46.7326 12.4327 46.7788 12.0258 47.104 11.7158C47.293 11.5839 47.4675 11.5149 47.6973 11.5135C47.7289 11.5132 47.7606 11.5129 47.7933 11.5126C47.8277 11.5125 47.8621 11.5124 47.8976 11.5123C47.9341 11.512 47.9706 11.5118 48.0083 11.5115C48.1291 11.5107 48.25 11.5103 48.3709 11.5099C48.4123 11.5097 48.4537 11.5096 48.4963 11.5094C48.7156 11.5086 48.9348 11.508 49.1541 11.5076C49.3798 11.5072 49.6055 11.5059 49.8312 11.5043C50.0053 11.5033 50.1795 11.5029 50.3537 11.5028C50.4368 11.5026 50.52 11.5022 50.6031 11.5014C51.1452 11.4969 51.5814 11.509 52.0323 11.8433C52.1839 12.0042 52.2302 12.1703 52.2276 12.3869C52.2272 12.4573 52.2272 12.4573 52.2269 12.5292C52.226 12.5802 52.2251 12.6311 52.2243 12.6837C52.2238 12.7383 52.2234 12.793 52.223 12.8476C52.2221 12.9651 52.2209 13.0825 52.2195 13.2C52.2174 13.3861 52.2165 13.5722 52.216 13.7583C52.2158 13.8222 52.2156 13.886 52.2154 13.9499C52.2152 13.9978 52.2152 13.9978 52.2151 14.0468C52.2136 14.4798 52.2111 14.9127 52.2058 15.3457C52.2022 15.6382 52.2005 15.9306 52.2008 16.223C52.2009 16.3776 52.2001 16.532 52.197 16.6865C52.1478 17.401 52.1478 17.401 52.4304 18.0158C52.5365 18.1049 52.6459 18.1724 52.7658 18.2421C52.8413 18.3024 52.916 18.3637 52.9895 18.4264C53.042 18.4686 53.042 18.4686 53.0956 18.5117C53.2319 18.6235 53.3613 18.7422 53.4915 18.861C53.5969 18.9546 53.7053 19.0433 53.8151 19.1316C54.3684 19.584 54.3684 19.584 54.4565 19.972C54.4747 20.272 54.385 20.5209 54.2008 20.7548C53.9888 20.9864 53.748 21.1168 53.4318 21.1318C53.0534 21.1115 52.8347 20.8841 52.5722 20.635C52.464 20.5329 52.3512 20.4385 52.235 20.3455C52.0787 20.2197 51.9297 20.0889 51.7829 19.9524C51.6018 19.7839 51.4145 19.6262 51.2218 19.471C51.0699 19.3454 50.9252 19.2125 50.7807 19.0785C50.6985 19.0041 50.6148 18.9364 50.5271 18.8687C50.35 18.7146 50.2643 18.5188 50.2354 18.2868C50.2302 18.1567 50.23 18.0275 50.2316 17.8973C50.2316 17.8481 50.2315 17.799 50.2315 17.7484C50.2316 17.6147 50.2324 17.481 50.2335 17.3473C50.2345 17.2073 50.2346 17.0672 50.2348 16.9271C50.2353 16.6622 50.2365 16.3974 50.2381 16.1326C50.2399 15.8309 50.2407 15.5292 50.2415 15.2275C50.2432 14.6074 50.2461 13.9872 50.2494 13.3671C49.7564 13.3671 49.2633 13.3671 48.7553 13.3671C48.7576 13.4931 48.7599 13.619 48.7623 13.7488C48.7638 13.8719 48.765 13.995 48.7661 14.1181C48.7671 14.2032 48.7685 14.2882 48.7702 14.3732C48.7726 14.496 48.7737 14.6188 48.7745 14.7416C48.7756 14.7791 48.7766 14.8166 48.7776 14.8553C48.7777 15.1657 48.6912 15.4175 48.4847 15.6532C48.2506 15.8851 47.9758 15.9641 47.652 15.9766C47.2256 15.9587 46.9851 15.7655 46.6715 15.4901C46.6082 15.4361 46.5446 15.3824 46.481 15.3288C46.4374 15.292 46.3939 15.2552 46.3505 15.2183C46.2162 15.1043 46.0807 14.9919 45.9441 14.8807C45.763 14.7333 45.5846 14.583 45.4067 14.4319C45.2733 14.3187 45.1387 14.2071 45.0029 14.0969C44.8117 13.9413 44.6247 13.7813 44.4379 13.6204C44.2645 13.4713 44.0885 13.3259 43.9109 13.1819C43.7853 13.0788 43.6618 12.9736 43.5383 12.8683C43.3556 12.7127 43.1698 12.5644 42.9755 12.4235C42.8126 12.4904 42.6907 12.606 42.5602 12.7208C42.5109 12.7638 42.4615 12.8067 42.412 12.8495C42.3876 12.8707 42.3632 12.8919 42.338 12.9137C42.2408 12.9971 42.1414 13.0777 42.0417 13.1582C41.8694 13.298 41.7049 13.4444 41.5409 13.5937C41.4073 13.7125 41.2685 13.8241 41.1296 13.9365C40.9891 14.0523 40.8519 14.1713 40.7147 14.291C40.5464 14.4378 40.3772 14.5829 40.2036 14.7234C39.9546 14.9252 39.7139 15.1362 39.4723 15.3465C39.1599 15.6178 38.8447 15.8858 38.5285 16.1526C38.3702 16.2863 38.2129 16.4213 38.0558 16.5565C37.8961 16.6938 37.7354 16.8293 37.5717 16.9619C37.3221 17.1647 37.0805 17.3764 36.8379 17.5875C36.5258 17.8586 36.2107 18.1265 35.8947 18.3931C35.7083 18.5506 35.523 18.7095 35.3381 18.8689C35.2123 18.9771 35.0849 19.0828 34.9546 19.1857C35.0087 19.2022 35.0087 19.2022 35.0639 19.219C35.4066 19.331 35.7059 19.4407 35.8815 19.7756C35.957 19.9573 35.9536 20.1311 35.9517 20.3255C35.9519 20.3837 35.9519 20.3837 35.952 20.4432C35.9522 20.5734 35.9516 20.7035 35.9509 20.8337C35.9509 20.9286 35.9509 21.0235 35.951 21.1184C35.951 21.3725 35.9503 21.6265 35.9495 21.8805C35.9488 22.119 35.9488 22.3574 35.9487 22.5958C35.9481 23.293 35.9464 23.9902 35.9449 24.6874C35.9425 26.2451 35.94 27.8028 35.9375 29.4076C40.6734 29.4076 45.4093 29.4076 50.2888 29.4076C50.2888 27.9546 50.2888 26.5015 50.2888 25.0043C50.4391 24.6662 50.5264 24.4863 50.8546 24.3308C51.1479 24.2284 51.4288 24.2353 51.7141 24.3606C51.9378 24.4858 52.0913 24.6761 52.1899 24.9119C52.2478 25.1217 52.2324 25.3437 52.2319 25.5599C52.2322 25.6162 52.2325 25.6726 52.2329 25.7289C52.2338 25.8814 52.2339 26.0338 52.2338 26.1863C52.2338 26.3139 52.2341 26.4415 52.2345 26.5691C52.2352 26.8703 52.2353 27.1715 52.2351 27.4727C52.2348 27.7827 52.2357 28.0927 52.2372 28.4027C52.2384 28.6695 52.2388 28.9363 52.2387 29.203C52.2386 29.3621 52.2388 29.5212 52.2398 29.6802C52.2406 29.8299 52.2406 29.9796 52.2398 30.1293C52.2396 30.184 52.2398 30.2387 52.2404 30.2933C52.2439 30.6545 52.2093 30.9593 51.9634 31.24C51.7392 31.4433 51.5045 31.5061 51.2101 31.5063C51.1669 31.5066 51.1669 31.5066 51.1228 31.5069C51.0264 31.5073 50.93 31.507 50.8336 31.5066C50.7637 31.5068 50.6938 31.507 50.6239 31.5072C50.432 31.5078 50.2401 31.5076 50.0482 31.5073C49.8412 31.5072 49.6342 31.5077 49.4271 31.5081C49.0216 31.5087 48.6161 31.5088 48.2105 31.5086C47.881 31.5084 47.5514 31.5085 47.2218 31.5087C47.1514 31.5087 47.1514 31.5087 47.0797 31.5088C46.9844 31.5088 46.8891 31.5089 46.7939 31.5089C45.9003 31.5095 45.0068 31.5093 44.1133 31.5088C43.2957 31.5084 42.4782 31.5089 41.6606 31.5099C40.8213 31.5108 39.9819 31.5112 39.1426 31.5109C38.6713 31.5108 38.2 31.5109 37.7288 31.5116C37.3276 31.5122 36.9264 31.5122 36.5252 31.5115C36.3205 31.5112 36.1158 31.5111 35.9111 31.5117C35.7236 31.5122 35.5362 31.512 35.3488 31.5113C35.281 31.5111 35.2133 31.5112 35.1455 31.5117C34.3991 31.5159 34.3991 31.5159 34.1446 31.2744C34.0221 31.1338 33.9667 31.0384 33.9668 30.8552C33.9667 30.8205 33.9666 30.7858 33.9665 30.7501C33.9666 30.7118 33.9668 30.6735 33.9669 30.634C33.9668 30.5935 33.9668 30.5529 33.9668 30.5112C33.9667 30.3745 33.9669 30.2378 33.9671 30.1012C33.9671 30.0035 33.9671 29.9059 33.9671 29.8083C33.9671 29.5977 33.9672 29.3871 33.9674 29.1764C33.9678 28.8719 33.9679 28.5674 33.9679 28.2629C33.968 27.7688 33.9683 27.2748 33.9686 26.7807C33.969 26.3007 33.9693 25.8207 33.9694 25.3407C33.9694 25.3112 33.9695 25.2816 33.9695 25.2511C33.9695 25.1028 33.9696 24.9544 33.9696 24.8061C33.97 23.5748 33.9707 22.3435 33.9716 21.1121C33.9234 21.1128 33.8753 21.1134 33.8256 21.114C33.6456 21.1162 33.4655 21.1175 33.2855 21.1186C33.2078 21.1192 33.1301 21.12 33.0525 21.121C32.9403 21.1225 32.8282 21.1231 32.716 21.1237C32.6817 21.1243 32.6474 21.1249 32.6121 21.1255C32.2168 21.1256 31.9439 21.0137 31.6587 20.7396C31.4603 20.5094 31.3851 20.2491 31.4016 19.9471C31.4767 19.4579 31.9714 19.1716 32.33 18.8822C32.4414 18.7899 32.548 18.6939 32.6544 18.596C32.8302 18.4342 33.0119 18.2826 33.1977 18.1326C33.3011 18.0473 33.4007 17.959 33.4998 17.8686C33.6333 17.7469 33.7696 17.6307 33.9102 17.5173C34.0597 17.3963 34.2036 17.2715 34.3451 17.1413C34.5209 16.9796 34.7025 16.8279 34.8884 16.678C34.9918 16.5926 35.0914 16.5043 35.1905 16.414C35.3595 16.2599 35.5349 16.1155 35.7127 15.9717C35.8502 15.8579 35.9815 15.7379 36.1134 15.6177C36.2155 15.527 36.3202 15.4407 36.4265 15.3549C36.5761 15.234 36.72 15.1092 36.8615 14.979C37.0373 14.8172 37.2189 14.6656 37.4047 14.5156C37.5082 14.4303 37.6077 14.342 37.7069 14.2517C37.8404 14.13 37.9766 14.0137 38.1172 13.9003C38.2668 13.7793 38.4107 13.6546 38.5522 13.5243C38.7279 13.3626 38.9096 13.2109 39.0954 13.061C39.1989 12.9756 39.2984 12.8873 39.3975 12.797C39.5311 12.6753 39.6673 12.5591 39.8079 12.4456C39.9575 12.3247 40.1014 12.1999 40.2429 12.0697C40.4186 11.9079 40.6003 11.7563 40.7861 11.6063C40.8896 11.521 40.9891 11.4327 41.0882 11.3423C41.2563 11.1892 41.4305 11.0458 41.6075 10.9033C41.7219 10.8077 41.83 10.7073 41.9385 10.6052C42.3594 10.2175 42.8679 10.0188 43.4203 10.2808Z" fill="#115056"/>
<path d="M13.6205 46.7309C13.6918 46.7307 13.6918 46.7307 13.7645 46.7304C13.8958 46.7301 14.027 46.7303 14.1583 46.7307C14.3014 46.7311 14.4444 46.7307 14.5875 46.7305C14.838 46.7301 15.0886 46.7302 15.3391 46.7305C15.7116 46.7311 16.0842 46.7309 16.4567 46.7307C17.1221 46.7302 17.7874 46.7304 18.4528 46.7309C19.035 46.7313 19.6172 46.7315 20.1995 46.7314C20.2574 46.7314 20.2574 46.7314 20.3165 46.7314C20.4733 46.7314 20.63 46.7314 20.7868 46.7313C22.2574 46.7312 23.7279 46.7317 25.1985 46.7325C26.5051 46.7332 27.8117 46.7335 29.1184 46.7332C29.2023 46.7332 29.2862 46.7332 29.3701 46.7332C29.4324 46.7332 29.4324 46.7332 29.4958 46.7332C29.7047 46.7331 29.9135 46.7331 30.1223 46.7331C30.1635 46.7331 30.2047 46.7331 30.2471 46.7331C31.3389 46.7329 32.4306 46.7331 33.5223 46.7335C33.6398 46.7335 33.7572 46.7335 33.8747 46.7336C33.9526 46.7336 34.0305 46.7336 34.1085 46.7336C34.6518 46.7338 35.1952 46.7338 35.7385 46.7337C36.4387 46.7337 37.1388 46.7338 37.839 46.7344C38.2093 46.7347 38.5796 46.7348 38.9499 46.7346C39.1972 46.7345 39.4445 46.7347 39.6918 46.7351C39.8327 46.7353 39.9737 46.7354 40.1146 46.7352C40.2664 46.7349 40.4183 46.7352 40.5701 46.7356C40.6138 46.7355 40.6575 46.7353 40.7026 46.7351C41.1371 46.7373 41.4784 46.7962 41.8022 47.1013C42.113 47.4302 42.1736 47.6845 42.1628 48.1364C42.1307 48.4752 41.9623 48.7183 41.7168 48.9473C41.3793 49.2138 41.0297 49.2341 40.6136 49.2325C40.5425 49.2327 40.5425 49.2327 40.4699 49.2329C40.3383 49.2332 40.2068 49.2331 40.0752 49.2329C39.932 49.2327 39.7888 49.233 39.6457 49.2332C39.3948 49.2336 39.1439 49.2336 38.893 49.2335C38.5199 49.2333 38.1468 49.2335 37.7737 49.2338C37.0685 49.2344 36.3634 49.2345 35.6583 49.2344C35.1138 49.2343 34.5693 49.2344 34.0248 49.2346C33.9466 49.2346 33.8684 49.2346 33.7902 49.2346C33.6724 49.2347 33.5546 49.2347 33.4367 49.2347C32.341 49.2351 31.2452 49.2352 30.1495 49.2351C30.1082 49.2351 30.0668 49.2351 30.0243 49.2351C29.8149 49.235 29.6054 49.235 29.396 49.235C29.3544 49.235 29.3129 49.2349 29.27 49.2349C29.1859 49.2349 29.1018 49.2349 29.0177 49.2349C27.7089 49.2347 26.4002 49.235 25.0915 49.2357C23.6213 49.2365 22.1512 49.237 20.6811 49.2368C20.5244 49.2368 20.3676 49.2368 20.2109 49.2368C20.1723 49.2368 20.1337 49.2368 20.094 49.2367C19.5112 49.2367 18.9284 49.237 18.3456 49.2374C17.6829 49.2379 17.0201 49.2379 16.3574 49.2374C15.9865 49.2372 15.6156 49.2372 15.2446 49.2378C14.9969 49.2381 14.7491 49.238 14.5013 49.2375C14.3601 49.2373 14.219 49.2372 14.0778 49.2377C13.9256 49.2382 13.7734 49.2377 13.6212 49.2372C13.5776 49.2375 13.5339 49.2378 13.489 49.2381C13.0365 49.235 12.6757 49.1485 12.3459 48.8294C12.1213 48.5958 12.0504 48.2999 12.0166 47.9841C12.063 47.5514 12.2088 47.2245 12.5523 46.9471C12.8762 46.7443 13.2491 46.7285 13.6205 46.7309Z" fill="#165056"/>
<path d="M13.1409 40.6419C13.1818 40.6417 13.2228 40.6415 13.2649 40.6413C13.3097 40.6414 13.3545 40.6416 13.4007 40.6417C13.4486 40.6416 13.4965 40.6415 13.5459 40.6413C13.6794 40.641 13.8128 40.6411 13.9463 40.6413C14.0913 40.6414 14.2364 40.6411 14.3814 40.6408C14.6358 40.6404 14.8901 40.6403 15.1445 40.6404C15.5227 40.6405 15.9009 40.6402 16.2792 40.6397C16.994 40.639 17.7088 40.6388 18.4236 40.6387C18.9755 40.6387 19.5274 40.6385 20.0793 40.6383C20.2381 40.6382 20.3968 40.6381 20.5556 40.6381C20.5951 40.638 20.6345 40.638 20.6752 40.638C21.7856 40.6375 22.896 40.6372 24.0064 40.6373C24.0483 40.6373 24.0902 40.6373 24.1333 40.6373C24.3456 40.6373 24.5579 40.6373 24.7702 40.6373C24.8123 40.6373 24.8545 40.6373 24.8979 40.6373C24.9832 40.6373 25.0685 40.6373 25.1537 40.6373C26.4804 40.6373 27.8071 40.6368 29.1337 40.6357C30.6236 40.6345 32.1134 40.6338 33.6032 40.6339C33.762 40.6339 33.9208 40.6339 34.0797 40.6339C34.1383 40.6339 34.1383 40.6339 34.1981 40.6339C34.8279 40.6339 35.4578 40.6334 36.0876 40.6327C36.7203 40.632 37.3531 40.632 37.9859 40.6325C38.362 40.6328 38.7381 40.6326 39.1141 40.6318C39.3653 40.6314 39.6164 40.6315 39.8675 40.632C40.0107 40.6323 40.1538 40.6324 40.297 40.6318C40.4512 40.6311 40.6054 40.6316 40.7596 40.6323C40.804 40.6319 40.8484 40.6315 40.8942 40.6311C41.2794 40.6346 41.5596 40.7436 41.8426 41.0057C42.114 41.3084 42.1633 41.6088 42.16 42.0036C42.1336 42.344 41.9865 42.6031 41.7352 42.8286C41.4131 43.0842 41.0378 43.1067 40.6411 43.1043C40.5934 43.1045 40.5457 43.1047 40.4965 43.1049C40.3645 43.1053 40.2325 43.1052 40.1005 43.1048C39.9567 43.1045 39.8129 43.1049 39.6691 43.1053C39.4172 43.1058 39.1653 43.1058 38.9135 43.1056C38.5389 43.1052 38.1644 43.1055 37.7898 43.106C37.1209 43.1068 36.4519 43.1068 35.783 43.1066C35.1975 43.1065 34.6121 43.1065 34.0266 43.1067C33.9481 43.1067 33.8696 43.1068 33.7911 43.1068C33.6728 43.1068 33.5544 43.1069 33.4361 43.1069C32.336 43.1074 31.236 43.1075 30.1359 43.1072C30.0944 43.1072 30.0529 43.1072 30.0102 43.1072C29.6734 43.1071 29.3367 43.107 28.9999 43.1069C27.6861 43.1065 26.3724 43.1068 25.0586 43.1077C23.5826 43.1088 22.1067 43.1093 20.6307 43.109C20.4733 43.109 20.316 43.1089 20.1586 43.1089C20.1199 43.1089 20.0812 43.1089 20.0412 43.1089C19.4562 43.1088 18.8712 43.1091 18.2861 43.1096C17.6208 43.1102 16.9556 43.1102 16.2903 43.1095C15.918 43.1092 15.5457 43.1092 15.1734 43.1099C14.9247 43.1103 14.676 43.1102 14.4273 43.1095C14.2856 43.1092 14.1439 43.1091 14.0022 43.1097C13.8494 43.1103 13.6966 43.1098 13.5439 43.1091C13.5001 43.1095 13.4563 43.1098 13.4112 43.1102C12.9936 43.1063 12.6476 42.9991 12.3434 42.7075C12.1206 42.4457 12.0163 42.144 12.0227 41.8012C12.0524 41.4871 12.1759 41.2024 12.3849 40.9664C12.6103 40.7807 12.8435 40.6421 13.1409 40.6419Z" fill="#165056"/>
<path d="M13.1327 34.8625C13.1592 34.8623 13.1856 34.8622 13.2129 34.8621C13.3013 34.8617 13.3897 34.8619 13.4781 34.8621C13.5423 34.8619 13.6065 34.8617 13.6706 34.8615C13.8467 34.8611 14.0227 34.8611 14.1988 34.8612C14.3888 34.8612 14.5788 34.8607 14.7687 34.8604C15.1409 34.8597 15.513 34.8595 15.8851 34.8595C16.1876 34.8594 16.4901 34.8593 16.7926 34.859C17.6504 34.8583 18.5082 34.858 19.366 34.858C19.4123 34.858 19.4585 34.858 19.5061 34.858C19.5756 34.858 19.5756 34.858 19.6464 34.858C20.3967 34.8581 21.1469 34.8573 21.8972 34.8562C22.6676 34.8551 23.4381 34.8545 24.2086 34.8546C24.6411 34.8546 25.0736 34.8544 25.5061 34.8536C25.8744 34.8528 26.2426 34.8527 26.6109 34.8532C26.7987 34.8535 26.9866 34.8535 27.1744 34.8528C27.3465 34.8522 27.5186 34.8523 27.6907 34.853C27.7528 34.8531 27.8149 34.8529 27.877 34.8525C28.3111 34.8496 28.7004 34.872 29.034 35.1773C29.3252 35.4965 29.3894 35.8248 29.3814 36.2451C29.3666 36.5641 29.2363 36.8137 29.0191 37.0444C28.7291 37.292 28.4139 37.3543 28.0415 37.3545C28.0154 37.3546 27.9894 37.3546 27.9625 37.3547C27.8753 37.3549 27.7881 37.3548 27.7009 37.3547C27.6377 37.3548 27.5745 37.3549 27.5113 37.355C27.3377 37.3552 27.164 37.3552 26.9904 37.3552C26.8032 37.3552 26.6159 37.3554 26.4286 37.3556C26.0617 37.3559 25.6949 37.356 25.328 37.356C25.0298 37.356 24.7316 37.3561 24.4334 37.3562C23.588 37.3566 22.7427 37.3568 21.8973 37.3567C21.8517 37.3567 21.8061 37.3567 21.7592 37.3567C21.6907 37.3567 21.6907 37.3567 21.6209 37.3567C20.8813 37.3567 20.1417 37.3571 19.402 37.3576C18.6427 37.3582 17.8833 37.3585 17.1239 37.3584C16.6976 37.3584 16.2712 37.3585 15.8448 37.359C15.4819 37.3593 15.1189 37.3594 14.7559 37.3591C14.5707 37.359 14.3855 37.359 14.2003 37.3593C14.0307 37.3597 13.8611 37.3596 13.6915 37.3593C13.6302 37.3592 13.5689 37.3593 13.5077 37.3595C13.028 37.3611 12.611 37.35 12.2399 37.014C11.9932 36.7519 11.9043 36.4673 11.8936 36.111C11.9067 35.6885 12.0386 35.3981 12.3457 35.1085C12.5873 34.9173 12.8281 34.8628 13.1327 34.8625Z" fill="#165056"/>
<path d="M13.2035 29.1126C13.2587 29.1124 13.3139 29.1121 13.3691 29.1118C13.5202 29.1112 13.6713 29.1115 13.8224 29.112C13.9856 29.1123 14.1487 29.1118 14.3119 29.1113C14.6313 29.1106 14.9508 29.1108 15.2702 29.1112C15.5299 29.1116 15.7895 29.1117 16.0491 29.1115C16.0861 29.1115 16.1231 29.1114 16.1612 29.1114C16.2363 29.1114 16.3114 29.1113 16.3865 29.1113C17.0905 29.1108 17.7946 29.1113 18.4987 29.1122C19.1026 29.1129 19.7066 29.1127 20.3106 29.112C21.0121 29.1112 21.7137 29.1109 22.4153 29.1113C22.4901 29.1114 22.5649 29.1114 22.6397 29.1115C22.695 29.1115 22.695 29.1115 22.7513 29.1116C23.0106 29.1117 23.2699 29.1115 23.5292 29.1111C23.8452 29.1106 24.1613 29.1108 24.4773 29.1116C24.6385 29.112 24.7997 29.1122 24.9609 29.1117C25.1086 29.1112 25.2562 29.1115 25.4039 29.1123C25.4824 29.1125 25.561 29.112 25.6396 29.1115C25.9615 29.1143 26.1729 29.1523 26.4285 29.3587C26.7278 29.7017 26.8108 30.0656 26.7904 30.5136C26.7558 30.8709 26.6311 31.1124 26.394 31.3784C26.1169 31.6049 25.8338 31.5869 25.4901 31.5853C25.4349 31.5855 25.3798 31.5857 25.3246 31.5859C25.1734 31.5865 25.0222 31.5863 24.8711 31.5861C24.7079 31.5859 24.5447 31.5864 24.3815 31.5868C24.0619 31.5874 23.7423 31.5875 23.4227 31.5873C23.163 31.5871 22.9032 31.5872 22.6435 31.5874C22.6065 31.5874 22.5695 31.5874 22.5314 31.5875C22.4563 31.5875 22.3812 31.5876 22.3061 31.5876C21.6018 31.5882 20.8975 31.588 20.1931 31.5875C19.5488 31.5871 18.9045 31.5876 18.2602 31.5886C17.5985 31.5895 16.9369 31.5899 16.2752 31.5897C15.9038 31.5895 15.5323 31.5896 15.1609 31.5903C14.8447 31.5909 14.5285 31.5909 14.2123 31.5902C14.0511 31.5899 13.8898 31.5898 13.7285 31.5904C13.5807 31.5909 13.433 31.5908 13.2853 31.59C13.2067 31.5898 13.1281 31.5903 13.0495 31.5909C12.7275 31.5883 12.5161 31.5504 12.2604 31.3438C11.9611 31.0009 11.8783 30.6371 11.8984 30.1891C11.9309 29.856 12.0412 29.6099 12.2604 29.3587C12.5615 29.1156 12.8286 29.11 13.2035 29.1126Z" fill="#165056"/>
<path d="M20.3153 13.6153C21.0852 14.2699 21.5643 15.1722 21.6544 16.1797C21.6996 16.8401 21.5901 17.4683 21.3049 18.0671C21.2663 18.1776 21.2723 18.2127 21.3105 18.3208C21.3896 18.4101 21.4691 18.4931 21.5543 18.5761C21.5925 18.614 21.5925 18.614 21.6315 18.6527C21.6868 18.7076 21.7422 18.7623 21.7978 18.8169C21.8858 18.9034 21.9734 18.9903 22.061 19.0773C22.2787 19.2933 22.4969 19.5087 22.7152 19.7241C22.8995 19.9061 23.0835 20.0882 23.2672 20.2707C23.3533 20.3561 23.4399 20.4412 23.5264 20.5262C23.5796 20.5789 23.6327 20.6316 23.6858 20.6844C23.7098 20.7078 23.7338 20.7312 23.7586 20.7553C23.931 20.9276 24.0797 21.1022 24.123 21.3492C24.1188 21.7425 24.0285 21.9371 23.7606 22.2229C23.5373 22.4356 23.3308 22.5684 23.0184 22.5865C22.6882 22.5646 22.4672 22.3705 22.2447 22.1427C22.2182 22.1163 22.1917 22.0898 22.1643 22.0625C22.0776 21.9756 21.9914 21.8883 21.9052 21.8008C21.8449 21.7402 21.7845 21.6796 21.7241 21.6191C21.5658 21.4601 21.4079 21.3008 21.2502 21.1413C21.0889 20.9784 20.9272 20.816 20.7655 20.6535C20.4487 20.3351 20.1324 20.0161 19.8164 19.6969C19.7759 19.7132 19.7355 19.7296 19.6937 19.7465C19.6401 19.768 19.5864 19.7896 19.5328 19.8112C19.5061 19.822 19.4795 19.8328 19.4521 19.8439C18.5462 20.2078 17.5215 20.2035 16.6168 19.8373C16.1189 19.6236 15.7184 19.3287 15.3341 18.9499C15.291 18.9075 15.291 18.9075 15.2469 18.8642C14.6709 18.2585 14.3554 17.4185 14.3119 16.591C14.3094 16.546 14.3094 16.546 14.3069 16.5001C14.2815 15.5334 14.6374 14.6487 15.2555 13.9175C15.2776 13.8914 15.2997 13.8652 15.3225 13.8383C16.6336 12.4214 18.8728 12.484 20.3153 13.6153ZM15.9433 14.6982C15.4889 15.2777 15.2895 15.936 15.3341 16.6696C15.4427 17.4423 15.7998 18.0538 16.3957 18.5567C17.0627 19.0297 17.7817 19.1453 18.5827 19.0511C19.059 18.9457 19.5005 18.6893 19.8558 18.3602C19.8968 18.3223 19.8968 18.3223 19.9387 18.2837C20.3946 17.8189 20.6323 17.1331 20.652 16.4927C20.6417 15.8037 20.3964 15.1768 19.9344 14.6645C19.9149 14.6415 19.8955 14.6184 19.8754 14.5947C19.4763 14.1547 18.8404 13.837 18.2467 13.7941C17.355 13.7538 16.5495 14.008 15.9433 14.6982Z" fill="#115056"/>
<path d="M43.7051 16.4192C43.8007 16.4338 43.8007 16.4338 43.8793 16.5125C43.9079 16.7398 43.8706 16.9738 43.8354 17.1987C43.8284 17.2453 43.8284 17.2453 43.8212 17.293C43.8112 17.3598 43.801 17.4267 43.7907 17.4935C43.7744 17.5995 43.7585 17.7054 43.7427 17.8114C43.6976 18.1125 43.6519 18.4135 43.6061 18.7144C43.578 18.8991 43.5503 19.0838 43.5227 19.2685C43.5071 19.3727 43.491 19.4768 43.475 19.581C43.4654 19.645 43.4558 19.709 43.4463 19.773C43.4395 19.8162 43.4395 19.8162 43.4325 19.8601C43.4085 20.0251 43.4102 20.1633 43.4468 20.326C43.5874 20.3729 43.7157 20.3716 43.862 20.3722C43.9073 20.3726 43.9073 20.3726 43.9535 20.373C44.019 20.3735 44.0845 20.374 44.1501 20.3744C44.2537 20.375 44.3572 20.3759 44.4608 20.3769C44.7553 20.3797 45.0498 20.3821 45.3444 20.3841C45.5245 20.3853 45.7046 20.387 45.8847 20.3888C45.9535 20.3895 46.0222 20.3899 46.091 20.3903C46.1869 20.3908 46.2828 20.3917 46.3787 20.3928C46.4073 20.3928 46.4359 20.3928 46.4653 20.3928C46.6619 20.3957 46.6619 20.3957 46.7495 20.4833C46.7671 20.6581 46.7428 20.7594 46.6499 20.9069C46.6281 20.942 46.6063 20.9772 46.5838 21.0134C46.5599 21.0509 46.5359 21.0884 46.5112 21.1271C46.4864 21.1668 46.4616 21.2065 46.4361 21.2474C46.3575 21.3731 46.2783 21.4982 46.1991 21.6234C46.1504 21.7012 46.1019 21.7789 46.0533 21.8567C45.9561 22.0126 45.8586 22.1684 45.7611 22.324C45.5757 22.6203 45.3928 22.918 45.2098 23.2157C45.0281 23.5114 44.8457 23.8067 44.6629 24.1017C44.5212 24.3302 44.3802 24.5592 44.2395 24.7883C43.9858 25.2012 43.7305 25.613 43.4731 26.0236C43.2562 26.37 43.042 26.718 42.8286 27.0666C42.7598 27.1788 42.6905 27.2909 42.6211 27.4028C42.6049 27.4294 42.5887 27.456 42.572 27.4834C42.5309 27.5487 42.5309 27.5487 42.4638 27.6387C42.3606 27.6583 42.3606 27.6583 42.2672 27.6387C42.1886 27.56 42.1886 27.56 42.1861 27.4889C42.2161 27.2575 42.2653 27.0358 42.3255 26.8105C42.3354 26.7726 42.3453 26.7347 42.3555 26.6956C42.3882 26.5709 42.4213 26.4464 42.4543 26.3218C42.4774 26.2339 42.5005 26.1461 42.5236 26.0582C42.5844 25.8269 42.6455 25.5956 42.7067 25.3643C42.7558 25.1783 42.8048 24.9923 42.8537 24.8063C42.9455 24.4572 43.0374 24.1081 43.1297 23.7591C43.1507 23.6797 43.1716 23.6002 43.1925 23.5207C43.2494 23.3052 43.3079 23.0903 43.3682 22.8757C43.3811 22.8292 43.394 22.7826 43.4074 22.7347C43.4324 22.6449 43.4577 22.5553 43.4835 22.4657C43.4947 22.4253 43.5059 22.3848 43.5174 22.3431C43.5275 22.3075 43.5376 22.2719 43.548 22.2352C43.5666 22.1236 43.5564 22.0462 43.5254 21.938C43.4467 21.8592 43.2877 21.8922 43.1797 21.8918C43.1476 21.8916 43.1155 21.8913 43.0825 21.891C43.0125 21.8905 42.9426 21.89 42.8727 21.8896C42.7622 21.889 42.6517 21.8881 42.5411 21.8871C42.2268 21.8843 41.9125 21.8819 41.5982 21.8799C41.4062 21.8786 41.2142 21.877 41.0222 21.8752C40.9488 21.8745 40.8755 21.8741 40.8021 21.8737C40.6997 21.8732 40.5973 21.8723 40.4948 21.8712C40.4643 21.8712 40.4338 21.8712 40.4023 21.8712C40.1923 21.8683 40.1923 21.8683 40.1047 21.7807C40.0868 21.6573 40.0962 21.5986 40.16 21.4906C40.1985 21.4417 40.1985 21.4417 40.2379 21.3917C40.365 21.2246 40.4861 21.0559 40.6019 20.8809C40.6179 20.8568 40.6339 20.8327 40.6504 20.8078C40.6843 20.7568 40.7181 20.7057 40.7519 20.6546C40.8464 20.5118 40.9412 20.3692 41.0361 20.2267C41.0561 20.1965 41.0762 20.1664 41.0968 20.1354C41.3322 19.7818 41.5699 19.4297 41.8077 19.0778C41.8297 19.0452 41.8518 19.0125 41.8745 18.9789C41.964 18.8466 42.0534 18.7142 42.1429 18.5819C42.3028 18.3454 42.4625 18.1088 42.6222 17.8722C42.6889 17.7734 42.7556 17.6745 42.8224 17.5756C42.8645 17.5132 42.9066 17.4508 42.9487 17.3883C42.9687 17.3588 42.9886 17.3293 43.0091 17.2988C43.0284 17.2702 43.0477 17.2416 43.0676 17.2121C43.1222 17.1314 43.177 17.0509 43.2318 16.9705C43.2929 16.8808 43.3521 16.7906 43.4105 16.6992C43.434 16.663 43.4576 16.6268 43.4818 16.5896C43.5011 16.559 43.5204 16.5284 43.5402 16.4969C43.6041 16.4338 43.6041 16.4338 43.7051 16.4192Z" fill="#115056"/>
</svg>
