<svg width="91" height="91" viewBox="0 0 91 91" fill="none" xmlns="http://www.w3.org/2000/svg">
<g clip-path="url(#clip0_161_583)">
<path d="M15.7364 9.74183C15.779 9.74177 15.8216 9.74169 15.8642 9.74158C15.9804 9.74136 16.0966 9.74152 16.2128 9.74173C16.34 9.7419 16.4671 9.74172 16.5943 9.74158C16.8178 9.74139 17.0414 9.74142 17.2649 9.7416C17.5058 9.7418 17.7467 9.74186 17.9876 9.74176C18.0106 9.74175 18.0106 9.74175 18.034 9.74174C18.1122 9.74171 18.1904 9.74167 18.2687 9.74164C18.839 9.74139 19.4093 9.74144 19.9796 9.74163C20.5575 9.74183 21.1354 9.7419 21.7133 9.74181C21.7315 9.7418 21.7497 9.7418 21.7685 9.7418C21.9357 9.74177 22.1028 9.74174 22.27 9.74171C22.6891 9.74164 23.1081 9.74159 23.5272 9.74155C23.5464 9.74155 23.5657 9.74155 23.5854 9.74154C24.5317 9.74146 25.478 9.7416 26.4244 9.74176C26.7574 9.74181 27.0905 9.74187 27.4236 9.74192C27.4443 9.74193 27.465 9.74193 27.4863 9.74193C28.446 9.74209 29.4057 9.7421 30.3654 9.74208C30.4491 9.74207 30.5328 9.74207 30.6166 9.74207C30.9742 9.74206 31.3319 9.74206 31.6895 9.74205C32.6307 9.74202 33.572 9.74202 34.5132 9.74203C34.5346 9.74203 34.556 9.74203 34.5781 9.74203C35.9657 9.74205 37.3533 9.74215 38.7408 9.74232C38.7741 9.74233 38.7741 9.74233 38.808 9.74233C39.5499 9.74242 40.2918 9.74252 41.0337 9.74262C41.7122 9.74271 42.3906 9.74279 43.069 9.74287C43.0915 9.74288 43.1139 9.74288 43.137 9.74288C45.2674 9.74313 47.3978 9.7431 49.5282 9.74301C49.6409 9.74301 49.7537 9.74301 49.8665 9.743C49.8888 9.743 49.9111 9.743 49.9341 9.743C49.9792 9.743 50.0243 9.74299 50.0693 9.74299C50.1144 9.74299 50.1594 9.74299 50.2045 9.74299C50.6985 9.74297 51.1925 9.74295 51.6865 9.74293C51.7536 9.74293 51.8207 9.74293 51.8878 9.74293C53.2523 9.74288 54.6169 9.74288 55.9814 9.74294C56.0029 9.74294 56.0243 9.74294 56.0463 9.74294C57.0292 9.74299 58.012 9.74304 58.9949 9.74312C59.1002 9.74312 59.2055 9.74313 59.3109 9.74314C59.3421 9.74314 59.3421 9.74314 59.374 9.74314C59.479 9.74315 59.5841 9.74316 59.6891 9.74317C59.7311 9.74317 59.773 9.74317 59.815 9.74318C59.8461 9.74318 59.8461 9.74318 59.8779 9.74318C60.0034 9.74319 60.1289 9.7432 60.2545 9.74321C61.1933 9.74328 62.1321 9.74332 63.0709 9.74329C63.0916 9.74329 63.1123 9.74329 63.1336 9.74329C63.3628 9.74328 63.5921 9.74328 63.8213 9.74327C63.9043 9.74327 63.9873 9.74326 64.0702 9.74326C64.0907 9.74326 64.1112 9.74326 64.1323 9.74326C65.0773 9.74323 66.0224 9.74323 66.9674 9.74337C66.9866 9.74337 67.0058 9.74337 67.0255 9.74338C67.4438 9.74344 67.8622 9.74352 68.2805 9.7436C68.4473 9.74364 68.6142 9.74367 68.781 9.7437C68.7992 9.74371 68.8174 9.74371 68.8362 9.74371C69.4134 9.74383 69.9905 9.74382 70.5677 9.74374C71.1361 9.74367 71.7045 9.74371 72.2729 9.74393C72.3507 9.74396 72.4286 9.74399 72.5065 9.74402C72.5294 9.74403 72.5294 9.74403 72.5527 9.74404C72.7929 9.74412 73.033 9.74407 73.2732 9.74397C73.5083 9.74387 73.7435 9.74391 73.9786 9.7441C74.1037 9.7442 74.2288 9.74424 74.3539 9.74409C74.4676 9.74397 74.5813 9.74402 74.6949 9.74423C74.7356 9.74427 74.7762 9.74424 74.8168 9.74414C75.1776 9.74329 75.5341 9.76812 75.8895 9.83305C75.9129 9.83733 75.9364 9.8416 75.9606 9.846C76.4453 9.93813 76.9193 10.0977 77.3554 10.3292C77.3938 10.3495 77.4325 10.3694 77.4712 10.3892C78.0586 10.6923 78.6081 11.146 79.0132 11.6689C79.0289 11.6885 79.0447 11.7081 79.0609 11.7283C79.9883 12.8936 80.1963 14.2396 80.1962 15.6805C80.1962 15.7778 80.1964 15.875 80.1965 15.9723C80.1967 16.1425 80.1968 16.3127 80.1969 16.4828C80.197 16.7361 80.1972 16.9893 80.1974 17.2425C80.1978 17.6692 80.1981 18.096 80.1984 18.5227C80.1987 18.9469 80.199 19.3711 80.1994 19.7953C80.1994 19.8085 80.1994 19.8218 80.1994 19.8354C80.1995 19.9833 80.1997 20.1313 80.1998 20.2792C80.2 20.553 80.2003 20.8268 80.2005 21.1005C80.2005 21.1142 80.2005 21.1279 80.2006 21.1421C80.2011 21.7941 80.2016 22.4461 80.2021 23.0981C80.2022 23.1414 80.2022 23.1846 80.2022 23.2278C80.2025 23.5456 80.2027 23.8633 80.2029 24.181C80.2034 24.7399 80.2038 25.2989 80.2042 25.8578C80.2042 25.9004 80.2043 25.9431 80.2043 25.9858C80.2048 26.6325 80.2053 27.2793 80.2059 27.926C80.2059 27.9397 80.2059 27.9534 80.2059 27.9676C80.2062 28.2423 80.2064 28.517 80.2066 28.7918C80.2068 28.9406 80.2069 29.0895 80.207 29.2383C80.2071 29.2583 80.2071 29.2583 80.2071 29.2786C80.2074 29.6874 80.2077 30.0962 80.208 30.505C80.2091 33.2066 80.2091 33.2066 80.2191 35.9083C80.2197 36.0121 80.2201 36.1159 80.2204 36.2197C80.2209 36.3541 80.2217 36.4885 80.2227 36.6229C80.223 36.6706 80.2232 36.7182 80.2233 36.7659C80.2251 37.4459 80.4012 38.0137 80.7828 38.5774C80.8399 38.6628 80.8945 38.7498 80.9495 38.8366C80.9734 38.8743 80.9973 38.9119 81.0212 38.9496C81.0332 38.9683 81.0451 38.9871 81.0574 39.0065C81.2552 39.3178 81.4536 39.6286 81.6526 39.9391C81.7062 40.0228 81.7597 40.1065 81.8133 40.1902C81.8399 40.2317 81.8664 40.2732 81.893 40.3147C81.9609 40.4208 82.0288 40.5269 82.0967 40.6331C82.2203 40.8263 82.3439 41.0194 82.4688 41.2117C82.5649 41.36 82.66 41.509 82.7552 41.6579C82.8308 41.7762 82.9067 41.8943 82.9832 42.0122C83.0738 42.1517 83.1636 42.2919 83.2532 42.4321C83.3792 42.6291 83.5059 42.8257 83.6332 43.0219C83.7597 43.2169 83.8855 43.4122 84.0107 43.608C84.1179 43.7758 84.2258 43.943 84.3345 44.1097C84.4354 44.2646 84.5349 44.4203 84.6344 44.576C84.7168 44.7049 84.7997 44.8334 84.8832 44.9615C84.9954 45.1336 85.1063 45.3066 85.217 45.4797C85.3284 45.654 85.4406 45.8278 85.5532 46.0013C85.7486 46.3023 85.9419 46.6045 86.1353 46.9068C86.3286 47.2093 86.3286 47.2093 86.5232 47.5109C86.6535 47.7118 86.7824 47.9137 86.9114 48.1155C86.9526 48.1798 86.9938 48.2442 87.035 48.3085C87.1728 48.5236 87.3103 48.7388 87.4473 48.9543C87.5365 49.0945 87.6261 49.2344 87.7157 49.3743C88.125 50.0134 88.125 50.0134 88.2932 50.3003C88.302 50.3152 88.3107 50.33 88.3197 50.3454C89.1713 51.7973 89.7458 53.4171 89.5437 59.002C89.4106 59.5051 89.2447 60 89.0545 60.4843C89.0493 60.4974 89.0442 60.5106 89.0389 60.5241C88.8541 60.9927 88.6255 61.4085 88.1532 61.6378C87.7887 61.7817 87.4345 61.7732 87.0698 61.6335C86.7867 61.507 86.5539 61.2582 86.4345 60.9739C86.2007 60.3588 86.4537 59.7745 86.6507 59.1874C86.8459 58.6072 86.8459 58.6072 87.0132 58.0186C87.0213 57.9876 87.0213 57.9876 87.0295 57.9559C87.477 56.2117 87.3321 54.3104 86.5532 52.6798C86.5463 52.6653 86.5394 52.6508 86.5323 52.6359C86.4941 52.5564 86.4545 52.4778 86.4137 52.3996C86.3922 52.3579 86.3711 52.316 86.3501 52.2741C86.2073 51.9929 86.0406 51.7271 85.8732 51.4601C85.8476 51.4191 85.822 51.3781 85.7965 51.337C85.7347 51.2379 85.6727 51.1389 85.6106 51.0399C85.5724 50.9789 85.5343 50.9179 85.4962 50.8568C85.2848 50.5183 85.0719 50.1808 84.8574 49.8442C84.7824 49.7265 84.7077 49.6086 84.6332 49.4905C84.4084 49.1343 84.1815 48.7795 83.9543 48.4249C83.9127 48.3599 83.8711 48.2949 83.8295 48.2299C83.6781 47.9931 83.5262 47.7567 83.3732 47.5209C83.2475 47.3273 83.1225 47.1331 82.9982 46.9386C82.8675 46.734 82.7353 46.5305 82.6025 46.3273C82.5143 46.1924 82.4268 46.0572 82.3394 45.9219C82.294 45.8517 82.2486 45.7815 82.2032 45.7113C82.1849 45.683 82.1665 45.6547 82.1482 45.6264C82.1391 45.6123 82.1301 45.5983 82.1207 45.5839C81.8732 45.2014 81.6257 44.819 81.3782 44.4366C81.3691 44.4226 81.3601 44.4086 81.3507 44.3942C81.3323 44.3657 81.3139 44.3372 81.2955 44.3088C81.2509 44.2399 81.2064 44.1711 81.1617 44.1023C81.0659 43.9546 80.9706 43.8065 80.8759 43.658C80.8213 43.5725 80.7666 43.4872 80.7117 43.4019C80.6871 43.3635 80.6625 43.3251 80.638 43.2866C80.6067 43.2374 80.575 43.1884 80.5432 43.1394C80.5343 43.1253 80.5255 43.1113 80.5163 43.0968C80.436 42.9742 80.3349 42.8831 80.2132 42.802C80.2132 42.8271 80.2132 42.8522 80.2131 42.878C80.2123 43.985 80.2113 45.092 80.21 46.199C80.21 46.2242 80.21 46.2242 80.21 46.2499C80.2095 46.6147 80.2091 46.9795 80.2086 47.3443C80.2084 47.5232 80.2082 47.7021 80.208 47.881C80.2079 47.8989 80.2079 47.9167 80.2079 47.935C80.2072 48.5112 80.2067 49.0874 80.2062 49.6635C80.2058 50.2561 80.2052 50.8486 80.2043 51.4411C80.2042 51.525 80.2041 51.6088 80.2039 51.6927C80.2039 51.7092 80.2039 51.7257 80.2039 51.7427C80.2035 52.0074 80.2033 52.2721 80.2032 52.5369C80.2031 52.8035 80.2028 53.0702 80.2023 53.3369C80.202 53.495 80.2018 53.6531 80.2019 53.8112C80.202 53.9298 80.2017 54.0485 80.2013 54.1671C80.2012 54.2147 80.2012 54.2622 80.2013 54.3098C80.2036 55.4363 79.935 56.572 79.2732 57.4987C79.3072 57.5773 79.359 57.641 79.412 57.7074C79.4217 57.7197 79.4314 57.732 79.4414 57.7447C79.5075 57.8278 79.5754 57.9092 79.6445 57.9899C79.9707 58.3733 80.2931 58.8141 80.278 59.3439C80.2493 59.6664 80.1217 59.9119 79.8932 60.1381C79.8785 60.1535 79.8637 60.169 79.8485 60.1848C79.6267 60.4029 79.3384 60.5266 79.0282 60.5243C78.4619 60.5195 78.0626 60.1679 77.6795 59.787C77.6652 59.7728 77.6509 59.7586 77.6362 59.744C77.557 59.6646 77.4815 59.5832 77.4082 59.4982C77.3468 59.4281 77.2824 59.3609 77.2182 59.2933C77.1065 59.1751 76.9956 59.0563 76.886 58.9362C76.8286 58.8734 76.771 58.8109 76.7132 58.7484C76.6273 58.6555 76.5416 58.5623 76.4561 58.4689C76.3886 58.3953 76.321 58.3219 76.2532 58.2485C76.1305 58.1157 76.0082 57.9824 75.8861 57.849C75.7719 57.7244 75.6575 57.6 75.5428 57.4758C75.467 57.3938 75.3915 57.3115 75.3161 57.2292C75.2486 57.1555 75.181 57.0821 75.1132 57.0088C75.0364 56.9257 74.9597 56.8424 74.8832 56.7589C74.777 56.6429 74.6703 56.5273 74.5635 56.4118C74.5034 56.3467 74.4433 56.2816 74.3833 56.2165C74.333 56.1621 74.2828 56.1077 74.2325 56.0533C74.1268 55.9389 74.0213 55.8243 73.916 55.7095C73.8088 55.5924 73.701 55.4758 73.5932 55.3592C73.4672 55.2229 73.3414 55.0865 73.216 54.9496C73.1188 54.8435 73.0212 54.7378 72.9235 54.6322C72.8634 54.5671 72.8033 54.502 72.7433 54.4369C72.693 54.3825 72.6428 54.3281 72.5925 54.2737C72.4868 54.1593 72.3813 54.0447 72.276 53.9298C72.1688 53.8128 72.061 53.6962 71.9532 53.5796C71.8272 53.4433 71.7014 53.3069 71.576 53.17C71.4788 53.0639 71.3812 52.9582 71.2835 52.8526C71.2334 52.7983 71.1833 52.7441 71.1332 52.6898C71.1132 52.6681 71.0932 52.6465 71.0732 52.6248C71.0332 52.5815 70.9932 52.5382 70.9532 52.4948C70.9433 52.4841 70.9334 52.4734 70.9232 52.4623C70.9032 52.4407 70.8832 52.419 70.8632 52.3974C70.813 52.343 70.7628 52.2886 70.7125 52.2342C70.6068 52.1198 70.5013 52.0052 70.396 51.8903C70.2988 51.7842 70.2012 51.6785 70.1035 51.5729C70.0534 51.5186 70.0033 51.4643 69.9532 51.4101C69.9332 51.3884 69.9132 51.3667 69.8932 51.3451C68.5732 49.9154 68.5732 49.9154 68.5432 49.8829C68.5232 49.8612 68.5031 49.8395 68.4831 49.8178C68.4336 49.7642 68.3841 49.7105 68.3346 49.6569C68.2275 49.5406 68.1199 49.4248 68.012 49.3093C67.9097 49.2 67.8082 49.09 67.7072 48.9796C67.5511 48.8091 67.3939 48.6398 67.236 48.471C67.1467 48.3755 67.0583 48.2792 66.9701 48.1827C66.9049 48.1116 66.8391 48.0412 66.7732 47.9708C66.6894 47.8813 66.606 47.7914 66.5232 47.7009C66.4291 47.5979 66.334 47.4958 66.2387 47.394C66.1712 47.3218 66.104 47.2494 66.0373 47.1766C65.6954 46.778 65.6954 46.778 65.2314 46.5779C64.6969 46.5686 64.1174 46.6548 63.6967 47.0174C63.491 47.2238 63.3736 47.4743 63.367 47.7659C63.3728 48.3169 63.6886 48.799 63.9526 49.2625C64.0313 49.4009 64.1078 49.5403 64.1832 49.6804C64.2772 49.8551 64.3735 50.0282 64.4716 50.2006C64.5591 50.3548 64.6452 50.5099 64.7307 50.6652C64.7374 50.6775 64.7442 50.6897 64.7511 50.7023C64.7579 50.7145 64.7646 50.7268 64.7715 50.7394C64.7852 50.7642 64.7988 50.7889 64.8124 50.8136C64.8192 50.8259 64.8259 50.8381 64.8329 50.8507C64.9026 50.9774 64.9729 51.1038 65.0432 51.2301C65.1469 51.4165 65.2502 51.6032 65.3532 51.79C65.4936 52.0446 65.6347 52.2989 65.776 52.553C65.851 52.6877 65.9259 52.8225 66.0008 52.9573C66.063 53.0693 66.1252 53.1813 66.1875 53.2932C66.3232 53.5373 66.4586 53.7815 66.5934 54.0261C66.7394 54.2908 66.8862 54.5551 67.0332 54.8193C67.1937 55.1079 67.354 55.3966 67.5134 55.6858C67.6097 55.8604 67.7063 56.0348 67.8032 56.209C67.9076 56.3967 68.0118 56.5846 68.1157 56.7726C68.1224 56.7848 68.1291 56.7969 68.136 56.8094C68.238 56.9941 68.3386 57.1795 68.4387 57.3652C68.5122 57.5011 68.5879 57.6357 68.6645 57.7699C68.7617 57.9406 68.8542 58.1132 68.9444 58.2877C69.0507 58.4931 69.1616 58.6959 69.2732 58.8984C69.2853 58.9203 69.2973 58.9422 69.3098 58.9648C69.3834 59.0984 69.4572 59.232 69.531 59.3656C69.579 59.4526 69.627 59.5396 69.6749 59.6266C69.9984 60.2145 69.9984 60.2145 70.332 60.7967C70.3434 60.8163 70.3548 60.8358 70.3665 60.8559C70.415 60.9386 70.4635 61.0214 70.5121 61.104C71.0024 61.9378 71.3281 62.792 71.0926 63.7668C70.9606 64.2677 70.6843 64.7015 70.3774 65.1118C69.4069 66.4112 68.9531 67.9874 69.1718 69.6003C69.227 69.9727 69.3206 70.3313 69.4214 70.6933C69.7778 71.9742 69.9994 73.2866 70.0732 74.6149C70.074 74.6279 70.0748 74.6409 70.0756 74.6543C70.0961 74.9902 70.0978 75.3262 70.101 75.6625C70.1061 76.2062 70.1144 76.7496 70.1307 77.2931C70.1311 77.3066 70.1315 77.3201 70.1319 77.3341C70.1426 77.6882 70.1548 78.0424 70.1671 78.3965C70.1691 78.4565 70.1712 78.5166 70.1733 78.5766C70.1794 78.753 70.1855 78.9293 70.1919 79.1056C70.2156 79.7628 70.2156 79.7628 70.2159 80.0039C70.2159 80.027 70.2159 80.027 70.2159 80.0506C70.2128 80.5153 70.1046 80.9877 69.7664 81.3237C69.4838 81.5879 69.1707 81.6694 68.7895 81.659C68.4466 81.6429 68.1851 81.5009 67.9546 81.2517C67.6132 80.8436 67.5696 80.2976 67.5527 79.7886C67.5512 79.7496 67.5497 79.7107 67.5482 79.6717C67.545 79.5885 67.542 79.5052 67.5391 79.422C67.5344 79.2887 67.5294 79.1554 67.5243 79.022C67.5164 78.8104 67.5086 78.5988 67.5009 78.3872C67.4853 77.957 67.4694 77.5269 67.4532 77.0969C67.4524 77.0749 67.4515 77.0529 67.4507 77.0303C67.4094 75.9351 67.3589 74.8408 67.2851 73.7472C67.282 73.7012 67.279 73.6552 67.2759 73.6092C67.2189 72.7585 67.0811 71.955 66.8792 71.1276C66.6074 70.0132 66.6074 70.0132 66.5532 69.556C66.5515 69.5422 66.5498 69.5284 66.5481 69.5142C66.5114 69.2045 66.506 68.8966 66.507 68.585C66.507 68.5603 66.507 68.5355 66.5071 68.51C66.5079 68.1548 66.5156 67.8076 66.5732 67.4565C66.5783 67.4231 66.5783 67.4231 66.5836 67.389C66.7052 66.6071 66.9329 65.8516 67.2732 65.137C67.2824 65.1175 67.2915 65.0981 67.301 65.078C67.5427 64.5675 67.8402 64.0947 68.1643 63.633C68.3455 63.3742 68.4481 63.1595 68.4132 62.8375C68.3724 62.659 68.274 62.5057 68.1817 62.3498C68.006 62.0523 67.8637 61.7387 67.722 61.4241C67.4369 60.7918 67.1239 60.1152 66.4402 59.8415C66.2004 59.7582 65.9588 59.7154 65.705 59.7142C65.6774 59.714 65.6774 59.714 65.6492 59.7138C65.6099 59.7136 65.5705 59.7135 65.5312 59.7134C65.4748 59.7132 65.4185 59.7126 65.3621 59.712C65.166 59.7109 64.9712 59.7156 64.7758 59.7317C64.0431 59.7911 63.3109 59.7865 62.5765 59.7853C62.3753 59.7849 62.1741 59.785 61.9729 59.785C61.5971 59.7851 61.2213 59.7849 60.8455 59.7845C60.4653 59.7842 60.0851 59.784 59.7049 59.7839C59.6808 59.7839 59.6567 59.7839 59.6318 59.7839C59.5088 59.7839 59.3858 59.7838 59.2628 59.7838C58.3887 59.7837 57.5146 59.7833 56.6405 59.7827C55.7482 59.7822 54.8559 59.7818 53.9636 59.7816C53.95 59.7816 53.9363 59.7816 53.9222 59.7816C53.6169 59.7815 53.3115 59.7814 53.0061 59.7813C52.4415 59.7812 51.8768 59.7811 51.3122 59.7809C51.2694 59.7809 51.2266 59.7809 51.1838 59.7809C49.8403 59.7806 48.4969 59.78 47.1534 59.7795C47.0643 59.7794 46.9753 59.7794 46.8862 59.7794C46.0213 59.779 45.1565 59.7786 44.2916 59.7782C43.3511 59.7778 42.4105 59.7774 41.4699 59.777C41.3806 59.777 41.2914 59.777 41.2022 59.7769C39.858 59.7764 38.5137 59.7758 37.1695 59.7755C37.1267 59.7755 37.0839 59.7755 37.0412 59.7755C36.4772 59.7753 35.9132 59.7752 35.3493 59.7751C35.0443 59.775 34.7394 59.7749 34.4344 59.7748C34.4208 59.7748 34.4072 59.7748 34.3931 59.7748C33.5004 59.7746 32.6077 59.7742 31.715 59.7736C30.8304 59.7731 29.9458 59.7727 29.0612 59.7726C28.9391 59.7726 28.8169 59.7725 28.6948 59.7725C28.6589 59.7725 28.6589 59.7725 28.6222 59.7725C28.2427 59.7724 27.8632 59.7722 27.4838 59.7718C27.1108 59.7714 26.7379 59.7713 26.365 59.7714C26.1463 59.7714 25.9275 59.7713 25.7088 59.771C25.5636 59.7707 25.4184 59.7707 25.2732 59.7709C25.1908 59.771 25.1085 59.771 25.0261 59.7707C24.9513 59.7705 24.8765 59.7705 24.8016 59.7708C24.7624 59.7708 24.7231 59.7706 24.6839 59.7703C24.3324 59.7723 24.0154 59.8602 23.7588 60.11C23.577 60.3018 23.4432 60.5139 23.3079 60.74C23.2849 60.7785 23.2617 60.8169 23.2384 60.8553C22.721 61.7076 22.2909 62.6643 22.5281 63.6818C22.6572 64.1871 22.8935 64.6359 23.202 65.0545C24.1484 66.3433 24.4097 67.9946 24.1757 69.5531C24.1055 70.0071 23.9954 70.4489 23.8629 70.8882C23.3718 72.5222 23.2516 74.2365 23.172 76.5516C23.1711 76.5798 23.1711 76.5798 23.1702 76.6086C23.1689 76.6467 23.1677 76.6847 23.1664 76.7228C23.1578 76.9873 23.1482 77.2518 23.1375 77.5162C23.1369 77.5323 23.1362 77.5484 23.1355 77.565C23.1323 77.6454 23.1291 77.7259 23.1258 77.8063C23.1245 77.8381 23.1232 77.8699 23.122 77.9017C23.121 77.9252 23.121 77.9252 23.12 77.9491C23.1043 78.3396 23.0911 78.7301 23.082 79.1209C23.0815 79.1394 23.0811 79.158 23.0806 79.1772C23.0764 79.3581 23.0724 79.539 23.0689 79.7199C23.0676 79.786 23.0662 79.8521 23.0647 79.9183C23.0641 79.9487 23.0635 79.979 23.063 80.0094C23.0551 80.4882 22.979 80.9537 22.6332 81.3134C22.4939 81.4356 22.3476 81.5301 22.1732 81.5934C22.1557 81.5997 22.1382 81.6061 22.1202 81.6127C21.7822 81.7155 21.4122 81.6662 21.0995 81.5121C20.7582 81.3151 20.5575 81.0159 20.4523 80.6385C20.4229 80.5033 20.4275 80.3664 20.4279 80.2287C20.4279 80.1986 20.4278 80.1685 20.4277 80.1383C20.4276 80.0574 20.4278 79.9765 20.4281 79.8956C20.4282 79.8446 20.4283 79.7935 20.4284 79.7425C20.429 79.2766 20.4372 78.8116 20.4562 78.346C20.4686 78.0336 20.4771 77.7213 20.4834 77.4087C20.4838 77.3879 20.4842 77.3672 20.4846 77.3459C20.4884 77.1571 20.492 76.9683 20.4954 76.7795C20.509 76.0129 20.5293 75.2459 20.5882 74.4812C20.5899 74.4593 20.5915 74.4375 20.5932 74.4149C20.7043 72.9617 20.9501 71.5415 21.3311 70.1356C21.6567 68.9308 21.566 67.7108 21.0932 66.5567C21.0861 66.5394 21.0791 66.5222 21.0718 66.5044C20.8615 65.9982 20.5686 65.5278 20.236 65.0931C19.6876 64.3748 19.3643 63.5883 19.4849 62.6727C19.5473 62.2574 19.6967 61.8663 19.8927 61.4965C19.9134 61.4574 19.9338 61.4181 19.9541 61.3787C20.0593 61.1764 20.1714 60.9781 20.2841 60.7799C20.3543 60.6562 20.4238 60.5322 20.4932 60.4081C20.5823 60.2487 20.6719 60.0895 20.762 59.9307C20.8695 59.7408 20.9757 59.5501 21.0815 59.3592C21.1614 59.2152 21.242 59.0716 21.3232 58.9284C21.4552 58.6955 21.5852 58.4615 21.7151 58.2273C21.7777 58.1144 21.8405 58.0015 21.9032 57.8886C21.9282 57.8436 21.9532 57.7986 21.9782 57.7537C22.1282 57.4837 22.1282 57.4837 22.1657 57.4162C22.1907 57.3712 22.2157 57.3262 22.2407 57.2812C22.303 57.1692 22.3652 57.0572 22.4275 56.9452C22.5966 56.6412 22.7649 56.3368 22.9329 56.0322C22.993 55.9232 23.0531 55.8143 23.1132 55.7053C23.1466 55.6449 23.1799 55.5845 23.2132 55.5242C23.2265 55.5 23.2399 55.4758 23.2532 55.4517C23.2598 55.4397 23.2664 55.4278 23.2732 55.4154C23.2932 55.3792 23.3132 55.3429 23.3332 55.3067C23.3431 55.2888 23.3431 55.2888 23.3532 55.2705C23.3665 55.2463 23.3799 55.2221 23.3932 55.198C23.4265 55.1376 23.4598 55.0773 23.4931 55.017C23.5536 54.9073 23.6141 54.7976 23.6747 54.688C23.7088 54.6264 23.7429 54.5648 23.777 54.5031C23.7836 54.491 23.7903 54.479 23.7972 54.4665C23.8988 54.2825 23.9991 54.0978 24.0989 53.9127C24.1707 53.7799 24.2446 53.6483 24.3195 53.5171C24.4279 53.3269 24.5314 53.1343 24.6338 52.9408C24.7209 52.7766 24.8096 52.6136 24.902 52.4523C25.0221 52.2424 25.1355 52.0292 25.2485 51.8154C25.2629 51.7882 25.2773 51.7609 25.2917 51.7337C25.2987 51.7204 25.3058 51.7071 25.313 51.6934C25.4017 51.5259 25.4928 51.3598 25.584 51.1936C25.6369 51.0968 25.6894 50.9997 25.742 50.9027C25.7582 50.8727 25.7582 50.8727 25.7747 50.8422C25.7966 50.8017 25.8185 50.7613 25.8404 50.7209C25.8946 50.6207 25.9489 50.5205 26.0032 50.4203C26.0139 50.4005 26.0247 50.3806 26.0357 50.3602C26.0896 50.2607 26.1436 50.1612 26.1975 50.0618C26.219 50.0221 26.2405 49.9825 26.262 49.9429C26.2726 49.9233 26.2832 49.9036 26.2942 49.8834C26.351 49.7786 26.4076 49.6737 26.4641 49.5688C26.4759 49.5467 26.4877 49.5247 26.4999 49.5021C26.5237 49.4579 26.5474 49.4137 26.5711 49.3696C26.625 49.2692 26.6793 49.1692 26.7355 49.0701C27.0342 48.5434 27.2132 47.929 27.0607 47.321C26.9695 47.0231 26.8046 46.7654 26.5332 46.6011C26.1844 46.443 25.8148 46.431 25.4532 46.5611C25.4321 46.5686 25.411 46.5761 25.3893 46.5838C24.9667 46.747 24.6383 47.0849 24.3475 47.4217C24.2899 47.4877 24.2296 47.551 24.1695 47.6147C24.143 47.6428 24.1165 47.6709 24.0901 47.699C24.0706 47.7197 24.0706 47.7197 24.0507 47.7409C23.9673 47.8298 23.8848 47.9196 23.8022 48.0093C23.7526 48.0632 23.7029 48.117 23.6532 48.1708C23.6332 48.1924 23.6132 48.2141 23.5932 48.2358C21.5532 50.4453 21.5532 50.4453 21.5232 50.4778C21.5032 50.4994 21.4832 50.5211 21.4632 50.5427C21.413 50.5971 21.3628 50.6515 21.3125 50.7059C21.2159 50.8105 21.1194 50.9152 21.0232 51.0202C20.917 51.1361 20.8103 51.2517 20.7035 51.3673C20.6534 51.4215 20.6033 51.4758 20.5532 51.53C20.5332 51.5517 20.5132 51.5734 20.4932 51.595C20.4833 51.6057 20.4734 51.6165 20.4632 51.6275C20.3732 51.725 20.3732 51.725 20.3432 51.7575C20.3232 51.7791 20.3032 51.8008 20.2832 51.8224C20.233 51.8768 20.1828 51.9313 20.1325 51.9856C20.0359 52.0902 19.9394 52.1949 19.8432 52.2999C19.7168 52.4379 19.5898 52.5753 19.4628 52.7127C19.3561 52.8282 19.2494 52.9437 19.1432 53.0597C19.0168 53.1977 18.8898 53.3351 18.7628 53.4725C18.6561 53.588 18.5494 53.7036 18.4432 53.8195C18.3168 53.9575 18.1898 54.0949 18.0628 54.2324C17.9561 54.3478 17.8494 54.4634 17.7432 54.5794C17.6168 54.7174 17.4898 54.8548 17.3628 54.9922C17.2561 55.1077 17.1494 55.2232 17.0432 55.3392C16.9168 55.4772 16.7898 55.6146 16.6628 55.752C16.5561 55.8675 16.4494 55.9831 16.3432 56.099C16.237 56.215 16.1303 56.3306 16.0235 56.4461C15.9734 56.5004 15.9233 56.5546 15.8732 56.6089C15.813 56.6741 15.7528 56.7394 15.6925 56.8046C15.5868 56.919 15.4813 57.0335 15.3761 57.1484C15.2986 57.233 15.2207 57.3173 15.1428 57.4016C15.0761 57.4738 15.0096 57.5462 14.9432 57.6187C14.8667 57.7022 14.7901 57.7855 14.7132 57.8686C14.5995 57.9916 14.4863 58.115 14.3732 58.2386C14.25 58.3731 14.1266 58.5074 14.0028 58.6413C13.9361 58.7136 13.8696 58.7859 13.8032 58.8584C13.697 58.9744 13.5903 59.09 13.4835 59.2055C13.4434 59.2489 13.4033 59.2924 13.3632 59.3358C13.3431 59.3576 13.3231 59.3793 13.303 59.401C13.254 59.4539 13.2052 59.507 13.1567 59.5604C12.3125 60.4887 12.3125 60.4887 11.703 60.5242C11.3569 60.5369 11.0734 60.4423 10.8095 60.2119C10.777 60.181 10.7449 60.1498 10.7132 60.1181C10.6893 60.0946 10.6893 60.0946 10.665 60.0706C10.4494 59.8461 10.3418 59.5724 10.3449 59.262C10.365 58.7232 10.7322 58.2717 11.0816 57.8944C11.1251 57.8474 11.1682 57.8003 11.2107 57.7524C11.2206 57.7414 11.2304 57.7303 11.2405 57.7189C11.2876 57.6609 11.3303 57.5998 11.3732 57.5387C11.3587 57.5181 11.3441 57.4974 11.3291 57.4761C11.0751 57.1092 10.8763 56.7217 10.7332 56.299C10.7277 56.2829 10.7222 56.2668 10.7165 56.2502C10.4808 55.5502 10.4303 54.8072 10.43 54.0739C10.4299 54.0248 10.4299 53.9757 10.4297 53.9266C10.4295 53.8203 10.4294 53.714 10.4293 53.6077C10.4291 53.4496 10.4289 53.2915 10.4286 53.1334C10.4281 52.8674 10.4277 52.6014 10.4274 52.3354C10.4271 52.0722 10.4267 51.809 10.4263 51.5457C10.4262 51.5293 10.4262 51.513 10.4262 51.4961C10.4261 51.4128 10.4259 51.3296 10.4258 51.2463C10.4248 50.6573 10.424 50.0683 10.4232 49.4793C10.4224 48.9072 10.4215 48.3351 10.4207 47.763C10.4206 47.7453 10.4206 47.7277 10.4206 47.7095C10.4203 47.5323 10.42 47.3551 10.4197 47.1779C10.4192 46.8169 10.4186 46.4559 10.4181 46.0949C10.4181 46.0783 10.418 46.0617 10.418 46.0446C10.4163 44.9371 10.4147 43.8295 10.4132 42.722C10.3756 42.772 10.338 42.822 10.3004 42.872C10.2899 42.886 10.2794 42.8999 10.2686 42.9143C10.0484 43.2074 9.84852 43.5112 9.65209 43.8207C9.5943 43.9114 9.5357 44.0016 9.47696 44.0917C9.46639 44.1079 9.45583 44.1241 9.44494 44.1408C9.4243 44.1725 9.40366 44.2042 9.38302 44.2358C9.33545 44.3089 9.28807 44.3821 9.24071 44.4554C9.23178 44.4692 9.22285 44.483 9.21365 44.4972C9.19579 44.5248 9.17792 44.5524 9.16006 44.58C9.11446 44.6506 9.06883 44.721 9.02321 44.7915C9.00487 44.8199 8.98654 44.8482 8.96821 44.8765C8.63821 45.3864 8.63821 45.3864 8.61073 45.4289C8.59231 45.4573 8.5739 45.4858 8.55549 45.5142C8.51094 45.5831 8.46636 45.6519 8.42172 45.7207C8.31324 45.888 8.20554 46.0557 8.09821 46.2237C7.95567 46.4467 7.81134 46.6685 7.66651 46.8901C7.52832 47.1016 7.39182 47.3143 7.25571 47.5272C7.12562 47.7306 6.99444 47.9334 6.86258 48.1357C6.71189 48.367 6.56279 48.5994 6.41408 48.832C6.32069 48.978 6.22655 49.1234 6.13189 49.2686C6.04493 49.4021 5.95899 49.5362 5.87321 49.6705C5.77714 49.8208 5.68067 49.9709 5.58321 50.1204C5.445 50.3324 5.30861 50.5455 5.17245 50.7589C5.13527 50.817 5.0979 50.875 5.06047 50.9329C4.77952 51.3689 4.52599 51.8164 4.29321 52.2799C4.28468 52.2967 4.27616 52.3136 4.26738 52.331C3.53647 53.7857 3.19027 55.4935 3.76991 58.7287C3.89213 59.0944 4.03251 59.4477 4.19321 59.7982C4.20094 59.8153 4.20867 59.8323 4.21663 59.8499C4.33611 60.1129 4.47081 60.3667 4.61321 60.618C4.62213 60.6338 4.63105 60.6496 4.64025 60.6658C4.91624 61.1489 5.24198 61.6051 5.55624 62.0637C5.62461 62.1636 5.69264 62.2638 5.76071 62.3639C5.7894 62.4061 5.8181 62.4483 5.8468 62.4905C5.86108 62.5115 5.87535 62.5325 5.89006 62.5541C5.94696 62.6378 6.00387 62.7215 6.06078 62.8052C6.10331 62.8677 6.14584 62.9302 6.18836 62.9927C6.2445 63.0753 6.30065 63.1578 6.3568 63.2403C6.50573 63.4592 6.65455 63.6782 6.80321 63.8973C7.06704 64.2861 7.33135 64.6746 7.59617 65.0627C7.63395 65.1181 7.6717 65.1735 7.70946 65.2289C7.8598 65.4494 8.01036 65.6698 8.16117 65.8901C8.19395 65.9379 8.2267 65.9858 8.25946 66.0337C8.32401 66.1281 8.38859 66.2224 8.45321 66.3168C8.46232 66.3301 8.47143 66.3434 8.48081 66.3571C8.61041 66.5462 8.74124 66.7345 8.87233 66.9226C8.95652 67.0435 9.04017 67.1648 9.12321 67.2865C9.21877 67.4266 9.31511 67.566 9.41196 67.7052C9.43217 67.7343 9.43217 67.7343 9.4528 67.7639C9.51731 67.8566 9.58205 67.949 9.64735 68.0411C9.895 68.3909 10.1177 68.7504 10.3251 69.1254C10.3485 69.1676 10.3722 69.2096 10.396 69.2516C11.1829 70.6696 11.5014 72.3169 11.5447 73.9225C11.5477 74.0353 11.551 74.1482 11.5543 74.261C11.555 74.2858 11.5557 74.3105 11.5564 74.336C11.5852 75.3401 11.6195 76.344 11.657 77.3478C11.6585 77.3888 11.66 77.4298 11.6616 77.4708C11.6822 78.0226 11.7029 78.5744 11.724 79.1262C11.7321 79.3384 11.7401 79.5506 11.7481 79.7628C11.7528 79.8871 11.7575 80.0114 11.7623 80.1357C11.7963 81.013 11.7963 81.013 11.797 81.3357C11.7971 81.3661 11.7971 81.3661 11.7972 81.3972C11.7955 81.6646 11.745 81.9089 11.6332 82.1532C11.6248 82.1719 11.6164 82.1905 11.6078 82.2097C11.4589 82.5104 11.1933 82.7393 10.8791 82.8526C10.5078 82.9613 10.1401 82.8775 9.80664 82.6973C9.70173 82.6368 9.61668 82.5603 9.53321 82.4732C9.51426 82.4551 9.51426 82.4551 9.49492 82.4368C9.13552 82.0711 9.1543 81.4782 9.13505 81.0042C9.13334 80.963 9.13163 80.9219 9.12991 80.8808C9.12528 80.7693 9.1207 80.6578 9.11615 80.5463C9.11229 80.4522 9.10841 80.3581 9.10452 80.264C9.0953 80.0405 9.08613 79.817 9.07699 79.5936C9.06872 79.3914 9.0604 79.1893 9.05203 78.9871C8.99226 77.544 8.93426 76.1016 8.91262 74.6573C8.90663 74.2629 8.90018 73.8695 8.86469 73.4765C8.86288 73.4564 8.86288 73.4564 8.86103 73.4358C8.71569 71.8616 8.11685 70.4181 7.18969 69.1495C7.11207 69.0431 7.03713 68.9352 6.96321 68.8262C6.87934 68.7026 6.79373 68.5807 6.70571 68.46C6.56864 68.272 6.43808 68.0797 6.30756 67.887C6.25976 67.8166 6.21152 67.7465 6.16321 67.6765C5.70691 67.0139 5.25785 66.3464 4.8076 65.6797C4.46419 65.1713 4.12022 64.6632 3.77321 64.1572C3.76421 64.1441 3.75522 64.131 3.74595 64.1174C3.63113 63.9499 3.5155 63.7829 3.39946 63.6161C3.37919 63.587 3.37919 63.587 3.35852 63.5573C3.28893 63.4573 3.21922 63.3574 3.1493 63.2577C2.99255 63.0338 2.83888 62.8088 2.69321 62.5776C2.68319 62.5618 2.67318 62.546 2.66286 62.5297C1.93644 61.3813 1.32329 60.1178 1.01274 58.7895C1.00939 58.7754 1.00605 58.7613 1.0026 58.7467C0.986631 58.6792 0.971209 58.6116 0.95675 58.5437C0.927654 58.4175 0.896775 58.3182 0.82636 58.2103C0.702912 58.0181 0.686879 57.8556 0.688645 57.6316C0.688269 57.596 0.687818 57.5604 0.6873 57.5248C0.686148 57.4291 0.686125 57.3334 0.686393 57.2376C0.68652 57.1571 0.686102 57.0766 0.685696 56.9961C0.684752 56.8056 0.684751 56.6152 0.685344 56.4248C0.685934 56.2298 0.684921 56.035 0.683103 55.8401C0.68159 55.6715 0.681111 55.5029 0.681422 55.3343C0.681596 55.2341 0.681411 55.134 0.680215 55.0339C0.675116 54.5663 0.703024 54.2062 0.941489 53.7966C0.992297 53.7052 1.03132 53.6093 1.07047 53.5125C1.08527 53.4767 1.10008 53.4408 1.11489 53.405C1.12976 53.3686 1.14461 53.3323 1.15946 53.2959C1.17571 53.2563 1.19197 53.2168 1.20823 53.1772C1.31352 52.9204 1.41548 52.6624 1.51571 52.4036C1.91848 51.3635 2.34853 50.3331 2.93321 49.3805C2.96013 49.3364 2.98706 49.2923 3.01399 49.2481C3.17949 48.9776 3.34763 48.7088 3.51603 48.4401C3.56596 48.3604 3.61582 48.2806 3.66567 48.2009C3.70314 48.1409 3.74064 48.0809 3.77813 48.021C3.82844 47.9405 3.87869 47.86 3.92891 47.7795C4.08415 47.5306 4.24069 47.2826 4.39853 47.0354C4.45684 46.944 4.51501 46.8526 4.57321 46.7611C4.59654 46.7244 4.61987 46.6878 4.64321 46.6511C4.65476 46.633 4.66631 46.6148 4.67821 46.5961C4.71321 46.5411 4.74821 46.4862 4.78321 46.4312C4.79476 46.413 4.80631 46.3949 4.81822 46.3762C4.8415 46.3396 4.86479 46.303 4.88807 46.2664C4.94719 46.1736 5.00628 46.0807 5.06531 45.9878C5.17844 45.8097 5.29188 45.6319 5.40674 45.455C5.48944 45.3275 5.57134 45.1995 5.65321 45.0715C5.77068 44.8878 5.88863 44.7044 6.00732 44.5215C6.05267 44.4516 6.09793 44.3816 6.14321 44.3116C6.16154 44.2833 6.17987 44.255 6.19821 44.2267C6.20728 44.2126 6.21636 44.1986 6.22571 44.1842C8.06821 41.3373 8.06821 41.3373 8.09568 41.2949C8.1141 41.2664 8.13251 41.2379 8.15093 41.2095C8.19548 41.1406 8.24005 41.0718 8.28469 41.003C8.40893 40.8115 8.53214 40.6193 8.65513 40.4269C8.73083 40.3086 8.80674 40.1904 8.88321 40.0726C9.01354 39.8717 9.14241 39.6698 9.27142 39.4681C9.32607 39.3826 9.38078 39.2972 9.43549 39.2118C9.48852 39.129 9.54151 39.0462 9.59449 38.9634C9.62015 38.9232 9.64584 38.8831 9.67154 38.843C9.75253 38.7166 9.83313 38.5899 9.91321 38.4629C9.92686 38.4414 9.92686 38.4414 9.94079 38.4194C10.2515 37.9264 10.3877 37.3973 10.4045 36.8188C10.4049 36.8054 10.4053 36.792 10.4057 36.7781C10.4144 36.4898 10.4164 36.2014 10.4166 35.9129C10.4167 35.841 10.4169 35.769 10.4171 35.6971C10.4174 35.5732 10.4176 35.4492 10.4178 35.3253C10.4181 35.1458 10.4185 34.9662 10.419 34.7867C10.4197 34.4946 10.4204 34.2026 10.4211 33.9106C10.4211 33.8932 10.4211 33.8758 10.4212 33.8579C10.4217 33.6108 10.4222 33.3637 10.4226 33.1165C10.4227 33.0903 10.4227 33.0903 10.4227 33.0636C10.4228 33.0462 10.4228 33.0288 10.4228 33.0108C10.4234 32.7193 10.4241 32.4279 10.4249 32.1364C10.4254 31.9574 10.4257 31.7785 10.4259 31.5995C10.4261 31.4769 10.4264 31.3543 10.4268 31.2317C10.427 31.1613 10.4272 31.0908 10.4272 31.0203C10.4274 30.2884 10.4274 30.2884 10.5207 29.9648C10.5251 29.9489 10.5296 29.933 10.5342 29.9167C10.5467 29.8726 10.5598 29.8287 10.5732 29.7849C10.5791 29.7653 10.5851 29.7458 10.5912 29.7257C10.6816 29.4695 10.872 29.2358 11.112 29.1088C11.4429 28.9562 11.846 28.9321 12.1932 29.045C12.5185 29.1744 12.7393 29.3914 12.8894 29.7057C13.0556 30.1183 13.0763 30.543 13.0758 30.9821C13.0758 31.0225 13.0758 31.063 13.0759 31.1034C13.0759 31.2146 13.0759 31.3258 13.0759 31.4371C13.0758 31.558 13.0759 31.679 13.076 31.8C13.0761 32.0121 13.0761 32.2242 13.0761 32.4363C13.076 32.6638 13.0761 32.8913 13.0761 33.1189C13.0761 33.1333 13.0761 33.1477 13.0761 33.1625C13.0762 33.2358 13.0762 33.3092 13.0762 33.3825C13.0763 33.5329 13.0763 33.6833 13.0764 33.8336C13.0764 33.8564 13.0764 33.8564 13.0764 33.8795C13.0765 34.1152 13.0765 34.3508 13.0765 34.5865C13.0765 34.6104 13.0765 34.6104 13.0765 34.6347C13.0765 34.6994 13.0766 34.764 13.0766 34.8287C13.0767 35.6201 13.077 36.4115 13.0773 37.2029C13.0774 37.3883 13.0775 37.5737 13.0776 37.7591C13.0776 37.793 13.0776 37.827 13.0776 37.8609C13.0777 37.9291 13.0777 37.9972 13.0777 38.0653C13.0778 38.1337 13.0778 38.2021 13.0778 38.2705C13.0782 39.0593 13.0785 39.8481 13.0788 40.6369C13.0789 40.6904 13.0789 40.7439 13.0789 40.7974C13.0792 41.6198 13.0795 42.4423 13.0796 43.2647C13.0796 43.2824 13.0796 43.3 13.0796 43.3182C13.0797 43.6029 13.0797 43.8876 13.0797 44.1723C13.0798 44.9935 13.08 45.8147 13.0804 46.6359C13.0804 46.6613 13.0804 46.6613 13.0804 46.6872C13.0806 47.0424 13.0808 47.3976 13.081 47.7528C13.0812 47.9192 13.0813 48.0856 13.0813 48.252C13.0814 48.2684 13.0814 48.2848 13.0814 48.3016C13.0817 48.827 13.0817 49.3524 13.0816 49.8778C13.0816 50.408 13.0817 50.9382 13.0822 51.4685C13.0823 51.5422 13.0823 51.6159 13.0824 51.6896C13.0824 51.7041 13.0824 51.7185 13.0824 51.7334C13.0826 51.9597 13.0825 52.186 13.0824 52.4123C13.0822 52.6363 13.0823 52.8602 13.0827 53.0842C13.0829 53.2034 13.083 53.3227 13.0827 53.4419C13.0814 54.0427 13.1068 54.6379 13.1541 55.2369C13.1565 55.2677 13.1565 55.2677 13.159 55.299C13.1673 55.3997 13.1775 55.4993 13.1932 55.5991C13.2129 55.5777 13.2129 55.5777 13.2329 55.5558C13.431 55.3394 13.63 55.1239 13.8304 54.9096C13.9197 54.8141 14.0081 54.7178 14.0963 54.6212C14.1734 54.5372 14.2515 54.454 14.3294 54.3707C14.4011 54.294 14.4724 54.217 14.5432 54.1395C14.626 54.0489 14.7094 53.9591 14.7932 53.8695C14.8958 53.7598 14.9977 53.6496 15.0991 53.5387C15.1565 53.4759 15.2142 53.4134 15.272 53.3509C15.2869 53.3347 15.2869 53.3347 15.3022 53.3182C15.3426 53.2744 15.3831 53.2306 15.4236 53.1868C15.5581 53.0413 15.6922 52.8955 15.826 52.7494C15.8626 52.7096 15.8991 52.6697 15.9357 52.6298C15.954 52.6099 15.9723 52.5899 15.9905 52.57C16.0373 52.5189 16.0841 52.468 16.131 52.417C16.2478 52.2902 16.2478 52.2902 16.362 52.1612C16.4242 52.0893 16.4886 52.0196 16.5532 51.9499C16.6298 51.8673 16.7055 51.7842 16.7792 51.699C16.8193 51.6531 16.8599 51.6078 16.9007 51.5625C16.9158 51.5457 16.931 51.5289 16.9466 51.5116C16.9778 51.4771 17.0091 51.4428 17.0405 51.4085C17.3178 51.1046 17.4 50.8673 17.3983 50.4526C17.3983 50.4289 17.3984 50.4052 17.3984 50.3809C17.3986 50.3156 17.3985 50.2504 17.3984 50.1851C17.3983 50.1137 17.3984 50.0423 17.3985 49.9709C17.3987 49.8454 17.3987 49.7199 17.3986 49.5944C17.3985 49.4065 17.3986 49.2186 17.3987 49.0307C17.399 48.7105 17.399 48.3902 17.399 48.07C17.3989 47.7455 17.399 47.421 17.3991 47.0964C17.3991 47.0759 17.3991 47.0554 17.3992 47.0343C17.3992 46.9298 17.3993 46.8253 17.3993 46.7207C17.3997 45.9873 17.3998 45.2539 17.3999 44.5205C17.4 43.7476 17.4002 42.9747 17.4005 42.2019C17.4005 42.1786 17.4005 42.1553 17.4005 42.1313C17.4006 41.8711 17.4007 41.6109 17.4008 41.3507C17.4011 40.8695 17.4012 40.3882 17.4014 39.9069C17.4014 39.8828 17.4015 39.8588 17.4015 39.8339C17.4019 38.6878 17.4022 37.5416 17.4026 36.3955C17.4026 36.3194 17.4026 36.2434 17.4026 36.1673C17.4028 35.4037 17.403 34.6401 17.4032 33.8765C17.4034 33.0878 17.4036 32.2992 17.4038 31.5106C17.4038 31.4346 17.4039 31.3586 17.4039 31.2826C17.4042 30.1379 17.4045 28.9931 17.405 27.8484C17.405 27.8243 17.405 27.8002 17.405 27.7754C17.4052 27.2946 17.4054 26.8138 17.4056 26.3329C17.4057 26.0729 17.4058 25.8129 17.4059 25.5528C17.4059 25.5296 17.4059 25.5063 17.406 25.4823C17.4063 24.71 17.4064 23.9376 17.4065 23.1652C17.4066 22.4337 17.4068 21.7023 17.4071 20.9708C17.4072 20.8664 17.4072 20.7621 17.4073 20.6578C17.4073 20.6373 17.4073 20.6169 17.4073 20.5958C17.4075 20.2723 17.4075 19.9487 17.4074 19.6252C17.4074 19.3069 17.4075 18.9886 17.4077 18.6703C17.4079 18.4838 17.4079 18.2973 17.4078 18.1108C17.4077 17.9867 17.4078 17.8627 17.4079 17.7386C17.408 17.6684 17.4081 17.5982 17.4079 17.528C17.4058 16.1151 17.4058 16.1151 17.8132 15.688C17.8261 15.6743 17.8389 15.6607 17.8522 15.6466C18.3761 15.1373 19.2934 15.225 19.9633 15.2255C20.0465 15.2256 20.1298 15.2255 20.2131 15.2254C20.3593 15.2253 20.5056 15.2253 20.6518 15.2254C20.8708 15.2254 21.0897 15.2254 21.3087 15.2253C21.6819 15.2252 22.0551 15.2252 22.4283 15.2252C22.8064 15.2252 23.1845 15.2252 23.5626 15.2251C23.5984 15.2251 23.5984 15.2251 23.635 15.2251C23.7323 15.2251 23.8297 15.2251 23.927 15.225C24.9284 15.2248 25.9297 15.2248 26.9311 15.2248C27.0403 15.2248 27.1494 15.2248 27.2586 15.2248C27.286 15.2248 27.3133 15.2248 27.3407 15.2248C27.9551 15.2248 28.5696 15.2247 29.1841 15.2247C29.3212 15.2246 29.4584 15.2246 29.5956 15.2246C29.6092 15.2246 29.6229 15.2246 29.6369 15.2246C29.7196 15.2246 29.8022 15.2246 29.8849 15.2246C29.9263 15.2246 29.9677 15.2246 30.0091 15.2246C30.653 15.2245 31.2968 15.2245 31.9407 15.2245C31.9547 15.2245 31.9687 15.2245 31.9832 15.2245C32.8769 15.2244 33.7707 15.2244 34.6644 15.2244C34.7083 15.2244 34.7523 15.2244 34.7962 15.2244C35.1049 15.2244 35.4136 15.2244 35.7223 15.2244C35.8108 15.2244 35.8993 15.2244 35.9878 15.2244C36.0616 15.2244 36.1354 15.2244 36.2092 15.2244C37.6036 15.2244 38.9979 15.2244 40.3922 15.2242C40.4069 15.2242 40.4216 15.2242 40.4367 15.2242C40.8954 15.2241 41.3541 15.2241 41.8127 15.224C42.2834 15.2239 42.754 15.2239 43.2247 15.2238C43.2392 15.2238 43.2537 15.2238 43.2686 15.2238C44.1764 15.2237 45.0842 15.2236 45.9921 15.2235C46.0061 15.2235 46.0201 15.2235 46.0345 15.2235C46.6505 15.2235 47.2664 15.2235 47.8823 15.2235C48.1301 15.2235 48.3779 15.2235 48.6257 15.2235C48.6668 15.2235 48.7079 15.2235 48.749 15.2235C49.3771 15.2235 50.0052 15.2235 50.6333 15.2234C50.6469 15.2234 50.6604 15.2234 50.6744 15.2234C50.8921 15.2233 51.1098 15.2233 51.3276 15.2233C52.2204 15.2231 53.1132 15.223 54.0061 15.2232C54.1276 15.2232 54.2491 15.2232 54.3707 15.2232C54.3945 15.2232 54.4183 15.2232 54.4429 15.2232C54.8199 15.2233 55.1969 15.2232 55.574 15.223C55.9448 15.2229 56.3157 15.2229 56.6865 15.2231C56.9039 15.2232 57.1212 15.2231 57.3385 15.2229C57.483 15.2228 57.6275 15.2229 57.7721 15.223C57.8539 15.2231 57.9357 15.2231 58.0175 15.223C59.6033 15.2201 59.6033 15.2201 60.1074 15.6985C60.3747 15.9875 60.4088 16.3348 60.3968 16.7101C60.3778 17.0159 60.2544 17.2678 60.0327 17.4774C59.5402 17.8923 58.8219 17.8738 58.2147 17.8725C58.1324 17.8724 58.0501 17.8725 57.9678 17.8726C57.8232 17.8727 57.6787 17.8726 57.5341 17.8725C57.3177 17.8723 57.1013 17.8723 56.8848 17.8724C56.516 17.8725 56.1471 17.8725 55.7782 17.8723C55.4045 17.8721 55.0308 17.872 54.657 17.872C54.6216 17.872 54.6216 17.872 54.5855 17.872C54.465 17.8721 54.3446 17.8721 54.2242 17.8721C53.3529 17.8721 52.4815 17.872 51.6102 17.8717C51.3948 17.8717 51.1794 17.8716 50.9641 17.8716C50.9507 17.8716 50.9373 17.8716 50.9235 17.8716C50.303 17.8714 49.6825 17.8713 49.0621 17.8713C49.0215 17.8713 48.9809 17.8713 48.9403 17.8713C48.6955 17.8713 48.4507 17.8713 48.206 17.8713C47.5975 17.8712 46.989 17.8712 46.3805 17.8712C46.3667 17.8712 46.3528 17.8712 46.3385 17.8712C45.4416 17.8711 44.5447 17.871 43.6477 17.8708C43.6334 17.8708 43.6191 17.8708 43.6043 17.8708C43.1685 17.8707 42.7327 17.8706 42.2969 17.8705C41.8146 17.8705 41.3323 17.8704 40.85 17.8703C40.8355 17.8703 40.821 17.8703 40.8061 17.8703C39.443 17.87 38.08 17.8698 36.717 17.8697C36.6287 17.8697 36.5405 17.8697 36.4523 17.8697C35.5329 17.8696 34.6134 17.8695 33.694 17.8695C33.6546 17.8695 33.6546 17.8695 33.6144 17.8695C33.5666 17.8694 33.5188 17.8694 33.471 17.8694C29.0184 17.8691 24.5658 17.8683 20.1132 17.8675C20.1198 27.8313 20.1264 37.7951 20.1332 48.0608C20.3023 47.8931 20.3023 47.8931 20.4606 47.7186C20.5185 47.6516 20.5798 47.5878 20.6407 47.5234C20.7371 47.4211 20.8323 47.3181 20.9259 47.2133C20.9987 47.1328 21.0731 47.0537 21.1473 46.9745C21.2385 46.877 21.3289 46.7788 21.4191 46.6803C21.5067 46.5844 21.5949 46.4892 21.6831 46.3938C21.7127 46.3617 21.7423 46.3296 21.7719 46.2975C21.8904 46.1689 22.0095 46.0408 22.129 45.913C22.2036 45.8331 22.2779 45.753 22.352 45.6726C22.8914 45.0875 22.8914 45.0875 23.1132 44.9015C23.1288 44.8882 23.1288 44.8882 23.1446 44.8747C23.9886 44.156 25.0118 43.7103 26.1345 43.7943C26.6891 43.8441 27.345 44.0151 27.7997 44.3483C27.8644 44.3886 27.905 44.3909 27.9807 44.3916C28.5417 44.4193 28.9774 44.7613 29.4132 45.0815C29.4365 45.0985 29.4365 45.0985 29.4602 45.116C29.5554 45.1859 29.6505 45.256 29.7455 45.3262C29.7928 45.3611 29.8402 45.396 29.8876 45.4308C29.919 45.4539 29.9505 45.477 29.982 45.5001C29.9974 45.5115 30.0129 45.5228 30.0288 45.5345C30.1133 45.5968 30.1974 45.6595 30.2811 45.7228C30.299 45.7363 30.3169 45.7499 30.3353 45.7638C30.3696 45.7897 30.4038 45.8157 30.438 45.8418C30.5268 45.909 30.6151 45.9685 30.7132 46.0213C30.7277 46.0043 30.7423 45.9873 30.7573 45.9699C30.8429 45.87 30.9285 45.7701 31.0141 45.6702C31.0288 45.6532 31.0288 45.6532 31.0437 45.6357C31.0635 45.6126 31.0834 45.5895 31.1032 45.5664C31.153 45.5083 31.2028 45.4502 31.2525 45.3921C31.3666 45.2589 31.4811 45.1261 31.596 44.9936C31.699 44.8749 31.8013 44.7557 31.9035 44.6362C31.9634 44.5663 32.0233 44.4964 32.0833 44.4266C32.133 44.3685 32.1828 44.3105 32.2325 44.2524C32.3466 44.1191 32.4611 43.9863 32.5761 43.8539C32.6488 43.7701 32.7211 43.6861 32.7932 43.6018C32.887 43.4922 32.9813 43.3831 33.0759 43.2742C33.1504 43.1884 33.2244 43.1021 33.2982 43.0157C33.3807 42.9191 33.465 42.8243 33.5505 42.7304C33.5953 42.6797 33.6374 42.6274 33.6795 42.5745C33.9361 42.2603 34.2422 41.9879 34.6595 41.9259C34.6838 41.9247 34.7081 41.9234 34.7332 41.9222C34.7525 41.9207 34.7525 41.9207 34.7723 41.9191C35.1566 41.9013 35.5203 42.0781 35.8024 42.3252C36.0234 42.5337 36.1371 42.7998 36.1573 43.1029C36.1647 43.6193 35.9759 43.9681 35.6416 44.3489C35.6014 44.3952 35.5629 44.4427 35.5245 44.4904C35.4214 44.6172 35.3137 44.74 35.2064 44.8633C35.0822 45.0062 34.9586 45.1494 34.8395 45.2964C34.7684 45.384 34.6939 45.4677 34.6179 45.5511C34.5732 45.6014 34.5305 45.6528 34.4882 45.7051C34.3839 45.8338 34.2749 45.9584 34.1661 46.0833C34.1145 46.1428 34.0632 46.2026 34.012 46.2625C34.0021 46.2739 33.9923 46.2854 33.9822 46.2972C33.9624 46.3203 33.9427 46.3434 33.9229 46.3665C33.873 46.4248 33.8231 46.4829 33.7732 46.5411C33.7532 46.5645 33.7332 46.5878 33.7132 46.6111C33.5932 46.7511 33.4732 46.8911 33.3532 47.031C33.3433 47.0426 33.3334 47.0541 33.3232 47.0661C33.3032 47.0893 33.2833 47.1126 33.2633 47.1358C33.2125 47.1951 33.1618 47.2544 33.1111 47.3138C33.0217 47.4185 32.9321 47.5228 32.8395 47.6247C32.7792 47.6909 32.7219 47.7587 32.6657 47.8284C32.592 47.9195 32.5145 48.0057 32.4348 48.0914C32.3765 48.1543 32.3216 48.2187 32.2682 48.2858C32.1452 48.4384 32.0092 48.5796 31.8732 48.7207C31.8557 48.7391 31.8557 48.7391 31.8378 48.7579C31.6091 48.9933 31.3219 49.1587 30.989 49.1702C30.7518 49.1718 30.5559 49.1239 30.3407 49.0256C30.3271 49.0194 30.3135 49.0132 30.2994 49.0068C30.182 48.9503 30.0783 48.8773 29.9732 48.8006C29.7672 49.1401 29.5736 49.4841 29.3887 49.8354C29.33 49.9468 29.27 50.0574 29.2095 50.1678C29.1902 50.203 29.171 50.2381 29.1517 50.2733C29.1374 50.2994 29.1374 50.2994 29.1229 50.326C29.0694 50.4239 29.0163 50.5221 28.9632 50.6202C28.8784 50.777 28.7934 50.9336 28.7082 51.0901C28.6993 51.1066 28.6903 51.123 28.6811 51.14C28.5934 51.3009 28.5031 51.4602 28.4132 51.62C39.5144 51.62 50.6156 51.62 62.0532 51.62C61.908 51.2505 61.7628 50.881 61.6132 50.5003C61.4964 50.2026 61.3796 49.9049 61.2629 49.6072C61.2036 49.4559 61.1442 49.3046 61.0848 49.1533C61.0426 49.0459 61.0005 48.9385 60.9585 48.8311C60.8862 48.6463 60.8138 48.4617 60.7401 48.2775C60.7094 48.2009 60.679 48.1242 60.6485 48.0474C60.6343 48.0117 60.62 47.976 60.6055 47.9404C60.5859 47.8917 60.5665 47.843 60.5472 47.7941C60.5384 47.7729 60.5384 47.7729 60.5295 47.7512C60.5082 47.6965 60.4935 47.6477 60.4911 47.5888C60.5157 47.5355 60.5398 47.5151 60.5846 47.4779C60.5974 47.4672 60.6102 47.4565 60.6234 47.4455C60.6332 47.4374 60.6431 47.4293 60.6532 47.421C60.6364 47.4209 60.6197 47.4209 60.6024 47.4209C58.8311 47.4197 57.0598 47.4185 55.1239 47.4169C55.0963 47.4169 55.0688 47.4169 55.0412 47.4169C54.4629 47.4164 53.8845 47.4159 53.3062 47.4154C53.0156 47.4151 52.7251 47.4149 52.4346 47.4146C52.3907 47.4146 52.3469 47.4146 52.3031 47.4145C51.6284 47.414 50.9537 47.4134 50.279 47.413C50.2645 47.413 50.25 47.413 50.2351 47.4129C50.0013 47.4128 49.7674 47.4126 49.5336 47.4125C48.86 47.4121 48.1864 47.4116 47.5128 47.411C47.492 47.411 47.492 47.411 47.4708 47.411C47.1666 47.4107 46.8624 47.4104 46.5581 47.4101C46.4357 47.41 46.3133 47.4099 46.1909 47.4098C46.1775 47.4098 46.1641 47.4098 46.1502 47.4098C45.7188 47.4094 45.2874 47.4091 44.856 47.4089C44.4092 47.4087 43.9624 47.4083 43.5156 47.4078C43.258 47.4075 43.0004 47.4073 42.7428 47.4073C42.5707 47.4072 42.3986 47.4071 42.2265 47.4068C42.1285 47.4066 42.0305 47.4065 41.9325 47.4066C41.8431 47.4067 41.7538 47.4065 41.6645 47.4063C41.6325 47.4062 41.6005 47.4062 41.5685 47.4063C41.1227 47.4073 40.6494 47.3618 40.3086 47.0397C40.0378 46.7439 39.9445 46.3718 39.9491 45.9798C39.9656 45.6617 40.085 45.3637 40.3164 45.1421C40.649 44.8446 41.0701 44.7551 41.5042 44.7564C41.5355 44.7563 41.5667 44.7562 41.598 44.7561C41.6838 44.7559 41.7696 44.756 41.8554 44.7561C41.9488 44.7561 42.0422 44.756 42.1356 44.7558C42.2994 44.7556 42.4631 44.7555 42.6268 44.7555C42.8704 44.7555 43.114 44.7553 43.3576 44.755C43.7678 44.7546 44.178 44.7544 44.5882 44.7542C44.9956 44.7541 45.4031 44.7538 45.8105 44.7535C45.8486 44.7535 45.8486 44.7535 45.8874 44.7534C46.0164 44.7533 46.1454 44.7532 46.2743 44.7531C47.1751 44.7523 48.0758 44.7516 48.9766 44.7511C49.0319 44.7511 49.0872 44.751 49.1425 44.751C49.184 44.751 49.2255 44.751 49.267 44.7509C49.3917 44.7509 49.5164 44.7508 49.6411 44.7507C49.6689 44.7507 49.6966 44.7507 49.7243 44.7507C50.359 44.7503 50.9936 44.7499 51.6283 44.7494C51.6693 44.7494 51.7104 44.7494 51.7515 44.7493C52.3727 44.7489 52.994 44.7485 53.6152 44.748C53.6546 44.7479 53.6546 44.7479 53.6948 44.7479C53.9315 44.7477 54.1682 44.7475 54.4049 44.7473C54.9912 44.7468 55.5776 44.7464 56.1639 44.7461C56.5738 44.7459 56.9838 44.7456 57.3937 44.7453C57.6147 44.7451 57.8357 44.745 58.0567 44.7449C58.5685 44.7448 59.0803 44.744 59.592 44.742C59.6752 44.7417 59.7585 44.7414 59.8417 44.7411C60.0835 44.7404 60.3254 44.7393 60.5673 44.7376C60.6717 44.7369 60.7762 44.7362 60.8806 44.7359C60.9776 44.7357 61.0746 44.735 61.1716 44.734C61.2068 44.7338 61.242 44.7336 61.2772 44.7336C61.8286 44.7332 62.3109 44.567 62.792 44.3072C63.3597 44.0014 63.9863 43.8206 64.6332 43.8018C64.6542 43.801 64.6751 43.8002 64.6967 43.7993C65.3247 43.7868 65.95 43.9261 66.5132 44.2017C66.5276 44.2087 66.5419 44.2156 66.5567 44.2228C67.1097 44.4952 67.5979 44.9104 67.9958 45.3796C68.056 45.4468 68.1208 45.5094 68.185 45.5728C68.253 45.6403 68.317 45.7098 68.3791 45.7828C68.433 45.8436 68.4915 45.8997 68.5493 45.9567C68.602 46.0102 68.6508 46.0663 68.6996 46.1233C68.7436 46.173 68.7908 46.2191 68.8382 46.2656C68.8873 46.3156 68.9325 46.3687 68.9782 46.4218C69.0222 46.4713 69.0691 46.5173 69.1163 46.5636C69.152 46.5999 69.1854 46.6373 69.2186 46.6759C69.2895 46.7574 69.3628 46.8363 69.437 46.9148C69.4634 46.9429 69.4898 46.971 69.5162 46.9991C69.5292 47.0129 69.5422 47.0267 69.5556 47.0409C69.6951 47.1897 69.8326 47.3402 69.9703 47.4906C70.0378 47.5642 70.1054 47.6376 70.1732 47.7109C70.2591 47.8039 70.3448 47.8971 70.4303 47.9904C70.4978 48.0641 70.5654 48.1375 70.6332 48.2108C70.7559 48.3436 70.8782 48.4769 71.0003 48.6103C71.1145 48.7349 71.2289 48.8594 71.3436 48.9835C71.4284 49.0753 71.5128 49.1674 71.5972 49.2595C71.6367 49.3026 71.6763 49.3455 71.7161 49.3884C71.7267 49.3998 71.7372 49.4112 71.7481 49.423C71.7682 49.4447 71.7884 49.4663 71.8085 49.488C71.8789 49.5639 71.9456 49.6416 72.0132 49.7204C72.0198 39.209 72.0264 28.6975 72.0332 17.8675C69.4856 17.8675 66.938 17.8675 64.3132 17.8675C63.8811 17.8058 63.5424 17.712 63.2532 17.3676C63.0262 17.0525 62.9746 16.6688 63.0231 16.2906C63.07 16.0528 63.1509 15.8496 63.3132 15.668C63.3241 15.6555 63.335 15.643 63.3462 15.63C63.586 15.3717 63.947 15.2691 64.2885 15.2422C64.3657 15.2394 64.4428 15.2383 64.52 15.238C64.55 15.2376 64.5801 15.2373 64.6101 15.2369C64.693 15.2359 64.776 15.2354 64.8589 15.2349C64.9316 15.2344 65.0043 15.2337 65.077 15.233C66.1628 15.2232 67.2487 15.2251 68.3346 15.2255C68.5619 15.2256 68.7891 15.2256 69.0164 15.2255C71.3141 15.2246 71.3141 15.2246 72.4384 15.2352C72.4974 15.2358 72.5563 15.2362 72.6153 15.2367C72.7057 15.2374 72.7961 15.2383 72.8865 15.2394C72.9187 15.2397 72.9509 15.24 72.9831 15.2402C73.462 15.2438 73.9095 15.3205 74.2684 15.6622C74.6314 16.0339 74.7405 16.5419 74.7381 17.0477C74.7382 17.0724 74.7382 17.0971 74.7383 17.1226C74.7384 17.1908 74.7383 17.259 74.7381 17.3272C74.738 17.4019 74.738 17.4765 74.7381 17.5512C74.7382 17.6824 74.7381 17.8135 74.738 17.9447C74.7377 18.1411 74.7377 18.3375 74.7378 18.5339C74.7378 18.8686 74.7377 19.2033 74.7374 19.538C74.7372 19.8772 74.737 20.2164 74.737 20.5556C74.737 20.5877 74.737 20.5877 74.737 20.6205C74.737 20.7298 74.737 20.839 74.7369 20.9483C74.7369 21.7148 74.7366 22.4813 74.7362 23.2479C74.7359 24.0555 74.7356 24.8632 74.7354 25.6709C74.7354 25.6952 74.7354 25.7195 74.7354 25.7446C74.7354 26.0165 74.7353 26.2884 74.7353 26.5603C74.7352 27.0632 74.7351 27.5661 74.735 28.0689C74.735 28.0941 74.735 28.1193 74.735 28.1452C74.7348 29.3428 74.7344 30.5404 74.734 31.7379C74.734 31.8174 74.734 31.8969 74.734 31.9763C74.7337 32.8009 74.7334 33.6255 74.7332 34.45C74.7329 35.2477 74.7327 36.0454 74.7324 36.843C74.7324 36.9225 74.7324 37.0019 74.7323 37.0813C74.732 38.2777 74.7316 39.4741 74.7314 40.6706C74.7314 40.6957 74.7314 40.7208 74.7314 40.7467C74.7313 41.2491 74.7312 41.7515 74.7311 42.2538C74.7311 42.5255 74.731 42.7971 74.731 43.0688C74.731 43.1053 74.731 43.1053 74.731 43.1424C74.7308 43.9497 74.7305 44.757 74.7301 45.5644C74.7298 46.3287 74.7295 47.093 74.7295 47.8574C74.7294 47.9663 74.7294 48.0753 74.7294 48.1842C74.7294 48.2056 74.7294 48.227 74.7294 48.249C74.7294 48.5872 74.7292 48.9255 74.7289 49.2637C74.7287 49.5963 74.7286 49.9289 74.7287 50.2614C74.7287 50.4564 74.7286 50.6514 74.7284 50.8464C74.7282 50.9759 74.7282 51.1055 74.7283 51.235C74.7284 51.3084 74.7284 51.3818 74.7282 51.4552C74.7264 52.2316 74.8369 52.8407 75.4038 53.4105C75.4809 53.4876 75.558 53.5647 75.6356 53.6412C75.7287 53.7334 75.8188 53.8263 75.904 53.9258C75.9417 53.9692 75.9819 54.0095 76.0232 54.0495C76.0914 54.1157 76.1538 54.1854 76.216 54.2571C76.2759 54.3253 76.3383 54.391 76.4007 54.4569C76.4983 54.5605 76.595 54.6647 76.6898 54.7709C76.7405 54.8274 76.7918 54.8834 76.8432 54.9393C76.9103 55.0123 76.977 55.0855 77.0432 55.1592C77.112 55.2358 77.1812 55.312 77.2507 55.3879C77.26 55.3981 77.2693 55.4083 77.2789 55.4187C77.3227 55.4666 77.3671 55.5135 77.4132 55.5591C77.5375 54.7137 77.5505 53.8807 77.5484 53.0281C77.5479 52.8274 77.5482 52.6266 77.5484 52.4259C77.5489 52.051 77.5487 51.6761 77.5483 51.3012C77.5479 50.9221 77.5477 50.5429 77.5479 50.1637C77.5479 50.1397 77.5479 50.1156 77.5479 50.0908C77.5479 49.968 77.548 49.8452 77.5481 49.7225C77.5484 48.8369 77.5482 47.9513 77.5477 47.0657C77.5476 46.8473 77.5475 46.629 77.5473 46.4106C77.5473 46.3903 77.5473 46.3903 77.5473 46.3695C77.547 45.7387 77.5469 45.1079 77.5469 44.4772C77.5469 44.4358 77.5469 44.3945 77.5469 44.3532C77.5469 44.1039 77.5469 43.8546 77.5469 43.6053C77.547 42.9858 77.5469 42.3663 77.5469 41.7467C77.5469 41.7326 77.5469 41.7185 77.5469 41.704C77.5468 40.7918 77.5465 39.8796 77.5462 38.9675C77.5462 38.9529 77.5462 38.9384 77.5461 38.9234C77.5459 38.451 77.5457 37.9787 77.5455 37.5063C77.5453 37.046 77.5451 36.5857 77.5449 36.1254C77.5449 36.1107 77.5449 36.096 77.5449 36.0808C77.5444 34.6807 77.5443 33.2806 77.5443 31.8805C77.5443 31.8064 77.5443 31.7322 77.5443 31.658C77.5443 31.5691 77.5443 31.4802 77.5443 31.3913C77.5443 31.0813 77.5443 30.7712 77.5443 30.4612C77.5443 30.417 77.5443 30.3729 77.5443 30.3288C77.5444 29.4312 77.5443 28.5336 77.5441 27.636C77.5441 27.6219 77.5441 27.6079 77.5441 27.5933C77.544 26.9467 77.5439 26.3002 77.5437 25.6536C77.5437 25.612 77.5437 25.5704 77.5437 25.5288C77.5437 25.4458 77.5437 25.3627 77.5436 25.2797C77.5436 25.266 77.5436 25.2524 77.5436 25.2383C77.5436 25.1005 77.5436 24.9627 77.5435 24.825C77.5434 24.2079 77.5433 23.5908 77.5432 22.9737C77.5432 22.9462 77.5432 22.9188 77.5432 22.8913C77.5432 22.7818 77.5432 22.6723 77.5432 22.5627C77.5432 21.5467 77.543 20.5306 77.5424 19.5146C77.5423 19.4172 77.5422 19.3198 77.5422 19.2223C77.5422 19.1865 77.5422 19.1865 77.5421 19.1499C77.5419 18.7715 77.5419 18.3932 77.542 18.0148C77.542 17.6427 77.5419 17.2705 77.5415 16.8984C77.5413 16.6803 77.5412 16.4623 77.5414 16.2442C77.5415 16.0992 77.5414 15.9542 77.5411 15.8092C77.541 15.7271 77.5409 15.6451 77.5411 15.563C77.5432 14.6719 77.4156 13.8158 76.7795 13.1461C76.5657 12.9407 76.3245 12.7861 76.0532 12.6687C76.039 12.6625 76.0248 12.6563 76.0101 12.6499C75.6368 12.4916 75.2208 12.405 74.8149 12.4062C74.7892 12.4062 74.7892 12.4062 74.7629 12.4061C74.7056 12.406 74.6482 12.4061 74.5909 12.4062C74.5491 12.4062 74.5073 12.4061 74.4655 12.4061C74.35 12.406 74.2346 12.406 74.1192 12.4061C73.9934 12.4061 73.8675 12.406 73.7417 12.406C73.5202 12.4059 73.2986 12.4059 73.077 12.4059C72.838 12.4059 72.5989 12.4059 72.3599 12.4058C72.3447 12.4058 72.3296 12.4058 72.314 12.4058C72.2366 12.4058 72.1593 12.4058 72.0819 12.4058C71.5167 12.4056 70.9515 12.4056 70.3862 12.4055C69.8131 12.4055 69.2401 12.4055 68.667 12.4054C68.6305 12.4054 68.594 12.4054 68.5575 12.4054C68.4102 12.4053 68.263 12.4053 68.1157 12.4053C66.4957 12.405 64.8756 12.4048 63.2556 12.4047C63.2351 12.4047 63.2146 12.4047 63.1935 12.4047C63.0898 12.4047 62.9861 12.4047 62.8825 12.4047C62.0141 12.4047 61.1457 12.4046 60.2773 12.4045C59.8614 12.4045 59.4456 12.4044 59.0297 12.4044C59.0091 12.4044 58.9884 12.4044 58.9671 12.4044C57.9717 12.4043 56.9763 12.4042 55.9809 12.4042C55.9597 12.4042 55.9385 12.4042 55.9166 12.4042C54.5633 12.4041 53.2101 12.404 51.8568 12.404C51.7459 12.404 51.6349 12.404 51.524 12.404C51.3461 12.404 51.1682 12.404 50.9903 12.404C50.9682 12.404 50.9462 12.404 50.9235 12.404C50.8789 12.404 50.8344 12.404 50.7898 12.404C50.4773 12.4039 50.1648 12.4039 49.8523 12.4039C49.7404 12.4039 49.6286 12.4039 49.5168 12.4039C47.4048 12.4039 45.2927 12.4038 43.1807 12.4034C43.1585 12.4034 43.1362 12.4034 43.1133 12.4034C42.4186 12.4033 41.724 12.4032 41.0293 12.4031C40.3165 12.403 39.6037 12.4029 38.8909 12.4028C38.858 12.4028 38.858 12.4028 38.8244 12.4028C37.45 12.4025 36.0755 12.4024 34.701 12.4024C34.6798 12.4024 34.6586 12.4024 34.6367 12.4023C33.7044 12.4023 32.7721 12.4023 31.8398 12.4023C31.4648 12.4023 31.0897 12.4023 30.7147 12.4023C30.6525 12.4023 30.5903 12.4023 30.5281 12.4023C29.5768 12.4022 28.6256 12.4022 27.6744 12.402C27.6538 12.402 27.6333 12.402 27.6122 12.402C27.2822 12.4019 26.9522 12.4018 26.6222 12.4018C25.6854 12.4016 24.7485 12.4014 23.8117 12.4014C23.7927 12.4014 23.7737 12.4014 23.7541 12.4014C23.3393 12.4014 22.9246 12.4015 22.5098 12.4015C22.3444 12.4015 22.179 12.4016 22.0135 12.4016C21.9865 12.4016 21.9865 12.4016 21.9589 12.4016C21.3867 12.4016 20.8144 12.4015 20.2422 12.4013C19.6787 12.4011 19.1152 12.401 18.5517 12.4012C18.4744 12.4013 18.3972 12.4013 18.32 12.4013C18.3049 12.4013 18.2897 12.4013 18.2742 12.4013C18.0361 12.4014 17.798 12.4013 17.5599 12.4011C17.3268 12.4009 17.0936 12.4009 16.8605 12.4011C16.7365 12.4013 16.6124 12.4013 16.4884 12.4011C16.3757 12.4008 16.2629 12.4009 16.1502 12.4012C16.11 12.4012 16.0697 12.4012 16.0295 12.401C15.2193 12.398 14.4289 12.5941 13.8295 13.1636C13.4736 13.5338 13.2749 14.0057 13.167 14.502C13.164 14.5155 13.1611 14.529 13.158 14.5429C13.0975 14.8467 13.0873 15.1519 13.0879 15.4606C13.0878 15.501 13.0877 15.5414 13.0876 15.5818C13.0874 15.6919 13.0874 15.802 13.0875 15.9121C13.0875 16.0312 13.0872 16.1503 13.087 16.2695C13.0867 16.4756 13.0866 16.6817 13.0865 16.8879C13.0864 17.1864 13.086 17.4849 13.0856 17.7834C13.0854 17.9228 13.0852 18.0622 13.085 18.2016C13.085 18.2155 13.0849 18.2295 13.0849 18.2438C13.0845 18.5753 13.0841 18.9068 13.0838 19.2383C13.0838 19.2528 13.0838 19.2673 13.0838 19.2822C13.0836 19.5026 13.0834 19.7229 13.0832 19.9433C13.083 20.1782 13.0828 20.4131 13.0826 20.648C13.0826 20.6625 13.0825 20.6769 13.0825 20.6918C13.0822 21.0227 13.0819 21.3535 13.0814 21.6843C13.0814 21.6983 13.0814 21.7122 13.0814 21.7266C13.0812 21.8657 13.081 22.0048 13.0808 22.1439C13.0803 22.4553 13.08 22.7666 13.0799 23.0779C13.0798 23.282 13.0796 23.486 13.0792 23.69C13.0791 23.8076 13.0789 23.9251 13.079 24.0426C13.079 24.1505 13.0789 24.2584 13.0786 24.3662C13.0785 24.405 13.0785 24.4437 13.0786 24.4825C13.0796 25.044 13.0484 25.6391 12.6332 26.0657C12.3714 26.3087 12.0308 26.3817 11.6838 26.3713C11.334 26.3535 10.9768 26.2421 10.7282 25.9845C10.4634 25.6638 10.4442 25.2995 10.4431 24.9032C10.4428 24.8605 10.4424 24.8177 10.442 24.7749C10.4411 24.6575 10.4405 24.54 10.44 24.4226C10.4396 24.3212 10.4389 24.2198 10.4382 24.1184C10.4358 23.7477 10.4344 23.3771 10.4332 23.0064C10.4332 22.9912 10.4331 22.9761 10.4331 22.9605C10.4304 22.1205 10.4295 21.2805 10.4295 20.4405C10.4295 20.4234 10.4295 20.4064 10.4295 20.3888C10.4295 20.3718 10.4295 20.3547 10.4295 20.3372C10.4295 20.3201 10.4295 20.303 10.4295 20.2855C10.4295 20.2509 10.4295 20.2164 10.4295 20.1819C10.4295 19.9212 10.4294 19.6604 10.4291 19.3996C10.4262 16.4192 10.4262 16.4192 10.4707 15.0844C10.4732 15.0071 10.4757 14.9298 10.4781 14.8525C10.4796 14.8037 10.4811 14.7548 10.4826 14.706C10.4836 14.6737 10.4836 14.6737 10.4846 14.6407C10.5281 13.2815 11.0201 12.1432 12.0082 11.1958C12.7103 10.5389 13.605 10.0785 14.5395 9.8643C14.5596 9.85961 14.5797 9.85493 14.6004 9.8501C14.9755 9.76854 15.3534 9.74032 15.7364 9.74183ZM27.0132 54.4194C26.9986 54.4249 26.9839 54.4304 26.9688 54.4361C26.7876 54.5152 26.6981 54.6885 26.6007 54.8518C26.5885 54.872 26.5764 54.8922 26.5638 54.913C26.2797 55.387 26.018 55.8732 25.7595 56.3615C25.6619 56.5458 25.5628 56.7292 25.4613 56.9114C25.4476 56.9361 25.4476 56.9361 25.4338 56.9612C25.4259 56.9753 25.418 56.9895 25.4098 57.004C25.3903 57.0384 25.3903 57.0384 25.3932 57.0788C38.5206 57.0788 51.648 57.0788 65.1732 57.0788C65.1594 57.0096 65.1498 56.9644 65.1223 56.9033C65.116 56.8891 65.1097 56.8749 65.1032 56.8604C65.0963 56.8452 65.0894 56.8301 65.0823 56.8145C65.0751 56.7984 65.0679 56.7824 65.0605 56.7659C65.037 56.7135 65.0132 56.6612 64.9895 56.6089C64.9814 56.591 64.9733 56.5732 64.9649 56.5547C64.6062 55.7281 64.6062 55.7281 64.1132 54.9793C64.0943 54.9554 64.0943 54.9554 64.0749 54.9311C63.7559 54.5485 63.2896 54.4064 62.8107 54.3544C62.4437 54.3212 62.078 54.3165 61.7097 54.3168C61.6362 54.3169 61.5627 54.3168 61.4893 54.3167C61.3604 54.3167 61.2314 54.3167 61.1025 54.3167C60.9095 54.3168 60.7165 54.3167 60.5235 54.3166C60.1944 54.3165 59.8654 54.3165 59.5364 54.3165C59.203 54.3165 58.8697 54.3165 58.5364 54.3164C58.5048 54.3164 58.5048 54.3164 58.4726 54.3164C58.3867 54.3164 58.3009 54.3164 58.2151 54.3164C57.3202 54.3162 56.4254 54.3161 55.5306 54.3161C55.4343 54.3161 55.338 54.3161 55.2418 54.3161C55.2179 54.3161 55.194 54.3161 55.1694 54.3161C54.6397 54.3161 54.1101 54.316 53.5804 54.316C53.3623 54.3159 53.1441 54.3159 52.926 54.3159C52.8898 54.3159 52.8898 54.3159 52.853 54.3159C51.4719 54.3158 50.0909 54.3157 48.7099 54.3157C48.6582 54.3157 48.6066 54.3157 48.5549 54.3157C48.3216 54.3157 48.0883 54.3157 47.8551 54.3157C47.751 54.3157 47.647 54.3157 47.543 54.3157C47.4909 54.3157 47.4389 54.3157 47.3868 54.3157C45.7401 54.3157 44.0934 54.3156 42.4467 54.3153C42.0318 54.3152 41.6168 54.3152 41.2019 54.3151C41.1763 54.3151 41.1507 54.3151 41.1244 54.3151C40.3369 54.315 39.5495 54.3149 38.762 54.3149C38.7372 54.3149 38.7125 54.3149 38.687 54.3149C38.1443 54.3148 37.6016 54.3148 37.0589 54.3148C36.8647 54.3148 36.6705 54.3148 36.4763 54.3148C36.428 54.3148 36.3796 54.3148 36.3313 54.3148C35.5616 54.3149 34.7919 54.3147 34.0222 54.3146C33.247 54.3144 32.4719 54.3143 31.6967 54.3145C31.5895 54.3145 31.4824 54.3145 31.3752 54.3145C31.3542 54.3145 31.3332 54.3145 31.3116 54.3145C30.9792 54.3146 30.6468 54.3145 30.3145 54.3144C29.9875 54.3142 29.6606 54.3142 29.3337 54.3144C29.1421 54.3145 28.9505 54.3144 28.7589 54.3143C28.6315 54.3142 28.5041 54.3142 28.3767 54.3143C28.3046 54.3144 28.2324 54.3144 28.1603 54.3143C27.5781 54.2996 27.5781 54.2996 27.0132 54.4194Z" fill="white"/>
<path d="M41.6534 34.3989C41.6956 34.3989 41.7379 34.3988 41.7801 34.3987C41.896 34.3986 42.0119 34.3987 42.1278 34.3988C42.254 34.3989 42.3802 34.3988 42.5063 34.3987C42.7274 34.3985 42.9485 34.3985 43.1695 34.3987C43.4066 34.3988 43.6437 34.3988 43.8809 34.3987C43.9034 34.3987 43.9034 34.3987 43.9263 34.3987C43.9874 34.3987 44.0485 34.3986 44.1095 34.3986C44.678 34.3984 45.2464 34.3984 45.8149 34.3985C45.8401 34.3985 45.8401 34.3985 45.8659 34.3985C45.8828 34.3985 45.8996 34.3985 45.917 34.3985C46.4308 34.3986 46.9445 34.3987 47.4583 34.3986C47.4927 34.3986 47.5271 34.3986 47.5616 34.3986C47.6998 34.3986 47.8381 34.3986 47.9764 34.3986C48.363 34.3985 48.7496 34.3985 49.1361 34.3985C49.1625 34.3985 49.1625 34.3985 49.1895 34.3985C49.7503 34.3985 50.3112 34.3985 50.8721 34.3986C50.8993 34.3986 50.8993 34.3986 50.9272 34.3986C51.2226 34.3987 51.5179 34.3987 51.8133 34.3988C52.9848 34.3989 54.1564 34.3989 55.3279 34.3987C55.6231 34.3987 55.9183 34.3986 56.2136 34.3986C56.2317 34.3986 56.2499 34.3986 56.2687 34.3986C56.8289 34.3985 57.3892 34.3985 57.9495 34.3985C57.9671 34.3985 57.9847 34.3985 58.0028 34.3985C58.3889 34.3985 58.7751 34.3985 59.1612 34.3986C59.2994 34.3986 59.4376 34.3986 59.5757 34.3986C59.6101 34.3986 59.6445 34.3986 59.6788 34.3986C60.1925 34.3987 60.7061 34.3986 61.2197 34.3985C61.2366 34.3985 61.2534 34.3985 61.2707 34.3985C61.2875 34.3985 61.3043 34.3985 61.3217 34.3985C61.8885 34.3984 62.4553 34.3984 63.0221 34.3986C63.083 34.3987 63.1439 34.3987 63.2048 34.3987C63.2197 34.3987 63.2346 34.3987 63.25 34.3987C63.4865 34.3988 63.723 34.3987 63.9594 34.3986C64.192 34.3985 64.4246 34.3986 64.6572 34.3988C64.7816 34.3988 64.9059 34.3989 65.0303 34.3987C65.1435 34.3986 65.2567 34.3987 65.37 34.3989C65.4106 34.3989 65.4512 34.3989 65.4919 34.3988C65.9653 34.3977 66.4473 34.4372 66.8115 34.7786C67.104 35.0992 67.1532 35.4957 67.1361 35.9117C67.117 36.2142 66.9854 36.4531 66.7728 36.6635C66.7569 36.6804 66.7569 36.6804 66.7407 36.6976C66.3579 37.0705 65.6819 37.0497 65.1887 37.0484C65.1473 37.0484 65.1059 37.0485 65.0645 37.0486C64.9514 37.0487 64.8383 37.0486 64.7252 37.0485C64.6019 37.0484 64.4786 37.0485 64.3553 37.0486C64.1394 37.0488 63.9235 37.0488 63.7076 37.0487C63.4761 37.0486 63.2446 37.0485 63.0131 37.0486C62.9984 37.0486 62.9838 37.0486 62.9687 37.0486C62.909 37.0487 62.8493 37.0487 62.7896 37.0487C62.2343 37.0489 61.6791 37.0489 61.1238 37.0488C61.1074 37.0488 61.091 37.0488 61.074 37.0488C61.0494 37.0488 61.0494 37.0488 61.0242 37.0488C60.5223 37.0487 60.0205 37.0487 59.5187 37.0487C59.485 37.0487 59.4514 37.0487 59.4178 37.0487C59.2826 37.0487 59.1475 37.0488 59.0123 37.0488C58.6345 37.0488 58.2567 37.0488 57.8789 37.0488C57.8531 37.0488 57.8531 37.0488 57.8268 37.0488C57.2788 37.0489 56.7308 37.0488 56.1828 37.0487C56.1561 37.0487 56.1561 37.0487 56.1289 37.0487C55.8404 37.0487 55.5519 37.0486 55.2633 37.0486C54.1191 37.0484 52.9749 37.0484 51.8306 37.0486C51.5422 37.0486 51.2539 37.0487 50.9655 37.0487C50.9478 37.0487 50.93 37.0487 50.9117 37.0487C50.3643 37.0488 49.8169 37.0489 49.2694 37.0488C49.2437 37.0488 49.2437 37.0488 49.2174 37.0488C48.84 37.0488 48.4626 37.0488 48.0852 37.0488C47.9501 37.0488 47.8151 37.0487 47.68 37.0487C47.6465 37.0487 47.6129 37.0487 47.5793 37.0487C47.0776 37.0487 46.576 37.0487 46.0743 37.0488C46.0497 37.0488 46.0497 37.0488 46.0245 37.0488C46.0081 37.0488 45.9917 37.0488 45.9748 37.0488C45.4211 37.0489 44.8674 37.0489 44.3137 37.0487C44.2542 37.0487 44.1947 37.0486 44.1351 37.0486C44.1205 37.0486 44.1059 37.0486 44.0909 37.0486C43.8601 37.0485 43.6293 37.0486 43.3985 37.0487C43.1712 37.0488 42.944 37.0488 42.7168 37.0486C42.5953 37.0485 42.4739 37.0484 42.3525 37.0486C42.2418 37.0487 42.1311 37.0487 42.0205 37.0485C41.9809 37.0484 41.9413 37.0485 41.9017 37.0486C41.3542 37.0499 40.7526 37.0336 40.3119 36.6628C40.0633 36.4127 39.9532 36.0943 39.9453 35.7462C39.9492 35.3778 40.0526 35.0342 40.3116 34.7633C40.6886 34.4161 41.1695 34.3977 41.6534 34.3989Z" fill="white"/>
<path d="M41.4755 24.0037C41.4929 24.0037 41.5102 24.0037 41.5281 24.0037C41.5861 24.0036 41.644 24.0037 41.702 24.0038C41.7442 24.0038 41.7864 24.0038 41.8286 24.0038C41.945 24.0037 42.0613 24.0038 42.1776 24.0039C42.304 24.004 42.4305 24.004 42.5569 24.004C42.7786 24.004 43.0003 24.0041 43.222 24.0043C43.4598 24.0044 43.6977 24.0045 43.9356 24.0046C43.9581 24.0046 43.9581 24.0046 43.9811 24.0046C44.0423 24.0046 44.1035 24.0046 44.1647 24.0046C44.9063 24.0048 45.6479 24.0052 46.3895 24.0056C46.63 24.0058 46.8705 24.0059 47.111 24.006C47.1364 24.006 47.1364 24.006 47.1624 24.006C47.2311 24.0061 47.2997 24.0061 47.3684 24.0061C48.5426 24.0067 49.7168 24.0074 50.891 24.0082C50.9832 24.0082 51.0754 24.0083 51.1676 24.0084C51.1859 24.0084 51.2042 24.0084 51.2231 24.0084C51.4084 24.0085 51.5937 24.0087 51.779 24.0088C51.8162 24.0088 51.8533 24.0088 51.8905 24.0089C53.084 24.0097 54.2774 24.0102 55.4709 24.0105C56.3286 24.0108 57.1862 24.011 58.0439 24.0116C58.0615 24.0116 58.0792 24.0116 58.0973 24.0116C58.4846 24.0119 58.8718 24.0121 59.259 24.0124C59.4148 24.0125 59.5706 24.0127 59.7264 24.0128C59.7434 24.0128 59.7605 24.0128 59.7781 24.0128C60.3272 24.0132 60.8764 24.0134 61.4255 24.0134C61.9786 24.0135 62.5318 24.0137 63.0849 24.0144C63.1614 24.0145 63.2378 24.0146 63.3143 24.0146C63.3293 24.0147 63.3443 24.0147 63.3597 24.0147C63.5969 24.0149 63.834 24.0149 64.0712 24.0148C64.3045 24.0147 64.5378 24.0149 64.7711 24.0153C64.8958 24.0156 65.0206 24.0157 65.1453 24.0154C65.2589 24.0152 65.3725 24.0154 65.4861 24.0158C65.5268 24.0159 65.5676 24.0159 65.6083 24.0157C65.9063 24.0144 66.1915 24.0371 66.4603 24.1799C66.4735 24.1867 66.4866 24.1935 66.5002 24.2005C66.6206 24.2654 66.7184 24.3472 66.8128 24.4461C66.824 24.4569 66.8351 24.4676 66.8466 24.4787C67.0837 24.7251 67.1431 25.0654 67.1412 25.393C67.1327 25.7283 67.0202 26.0331 66.7858 26.2787C66.4438 26.5822 66.0375 26.6528 65.5949 26.6592C65.562 26.6598 65.529 26.6605 65.4961 26.6612C65.0807 26.6691 64.6652 26.6685 64.2497 26.6683C64.1276 26.6683 64.0055 26.6683 63.8834 26.6684C63.6702 26.6685 63.4569 26.6685 63.2437 26.6685C63.0153 26.6685 62.787 26.6685 62.5586 26.6686C62.5441 26.6686 62.5296 26.6686 62.5146 26.6686C62.4555 26.6686 62.3963 26.6686 62.3372 26.6687C61.723 26.6689 61.1089 26.6689 60.4947 26.6689C60.4288 26.6689 60.3629 26.6689 60.297 26.6689C60.2806 26.6689 60.2643 26.6689 60.2474 26.6689C59.8839 26.669 59.5203 26.669 59.1568 26.669C59.0068 26.6691 58.8568 26.6691 58.7068 26.6691C58.6902 26.6691 58.6736 26.6691 58.6565 26.6691C57.708 26.6692 56.7594 26.6693 55.8108 26.6693C55.7753 26.6693 55.7399 26.6693 55.7045 26.6693C55.5445 26.6693 55.3846 26.6693 55.2246 26.6693C55.1533 26.6693 55.082 26.6693 55.0107 26.6693C54.975 26.6693 54.9393 26.6693 54.9036 26.6693C53.7736 26.6693 52.6437 26.6694 51.5137 26.6697C51.2287 26.6698 50.9436 26.6699 50.6586 26.6699C50.641 26.6699 50.6235 26.6699 50.6054 26.6699C50.0644 26.6701 49.5234 26.6701 48.9824 26.6702C48.9569 26.6702 48.9569 26.6702 48.9309 26.6702C48.5581 26.6702 48.1853 26.6702 47.8124 26.6702C47.679 26.6702 47.5457 26.6702 47.4123 26.6702C47.3791 26.6702 47.3459 26.6702 47.3127 26.6702C46.7844 26.6702 46.2561 26.6703 45.7278 26.6705C45.196 26.6706 44.6642 26.6707 44.1324 26.6705C44.0589 26.6705 43.9854 26.6705 43.9118 26.6705C43.8974 26.6705 43.883 26.6705 43.8682 26.6705C43.6403 26.6704 43.4124 26.6705 43.1845 26.6707C42.9602 26.6708 42.736 26.6708 42.5117 26.6706C42.3919 26.6706 42.272 26.6705 42.1521 26.6707C42.043 26.6709 41.9338 26.6708 41.8246 26.6706C41.7855 26.6706 41.7464 26.6706 41.7072 26.6707C41.1865 26.6721 40.6939 26.6282 40.2978 26.2519C40.0541 26.0019 39.9544 25.6947 39.9453 25.3471C39.9548 24.9837 40.0588 24.6531 40.3128 24.3861C40.6315 24.0977 41.0571 24.0023 41.4755 24.0037Z" fill="white"/>
<path d="M85.5932 63.7607C85.8486 63.9628 86.0424 64.207 86.093 64.5371C86.1358 64.9372 86.0293 65.2918 85.833 65.6368C85.8256 65.6498 85.8183 65.6628 85.8107 65.6762C85.7269 65.8234 85.6358 65.9612 85.5355 66.0977C85.4639 66.1971 85.3967 66.2994 85.3292 66.4017C85.2975 66.4494 85.2658 66.4972 85.2341 66.5449C85.2259 66.5572 85.2177 66.5695 85.2092 66.5822C85.1142 66.725 85.018 66.8671 84.9217 67.009C84.9129 67.022 84.9041 67.035 84.895 67.0484C84.8426 67.1256 84.7903 67.2027 84.7379 67.2798C84.7137 67.3153 84.6896 67.3509 84.6655 67.3864C84.4267 67.7379 84.1871 68.0888 83.9462 68.4389C83.9113 68.4896 83.8764 68.5403 83.8416 68.591C83.6555 68.8623 83.468 69.1327 83.2787 69.4017C83.0514 69.7246 82.8303 70.0476 82.6373 70.3924C82.6156 70.4311 82.5935 70.4696 82.5714 70.5081C82.1863 71.1982 81.9629 71.982 81.838 72.7578C81.834 72.7822 81.83 72.8067 81.8259 72.832C81.7521 73.3161 81.7419 73.8048 81.728 74.2934C81.7251 74.3904 81.7222 74.4873 81.7192 74.5843C81.7142 74.7496 81.7093 74.9149 81.7044 75.0802C81.6915 75.5119 81.6781 75.9436 81.6645 76.3753C81.6638 76.3967 81.6632 76.418 81.6625 76.44C81.6282 77.5317 81.5864 78.6228 81.533 79.7137C81.5314 79.7457 81.5314 79.7457 81.5298 79.7784C81.5156 80.0703 81.5006 80.3623 81.4848 80.6541C81.4818 80.7099 81.4789 80.7656 81.476 80.8213C81.4716 80.9067 81.4668 80.9921 81.4618 81.0775C81.4601 81.108 81.4584 81.1385 81.4569 81.1691C81.4288 81.723 81.2231 82.2368 80.8205 82.6268C80.5969 82.8205 80.3089 82.9279 80.013 82.9186C79.6951 82.8888 79.415 82.7359 79.2041 82.498C79.0465 82.2977 78.9415 82.0854 78.8755 81.8407C78.8714 81.8257 78.8673 81.8107 78.8631 81.7952C78.7986 81.5362 78.8102 81.2673 78.8107 81.0025C78.8107 80.9613 78.8107 80.92 78.8107 80.8788C78.8107 80.7676 78.8108 80.6564 78.8109 80.5451C78.8111 80.4286 78.8111 80.3121 78.8111 80.1957C78.8111 79.9754 78.8113 79.7551 78.8115 79.5348C78.8117 79.2838 78.8118 79.0329 78.8119 78.782C78.8122 78.2661 78.8125 77.7502 78.813 77.2343C78.8592 77.2343 78.9054 77.2343 78.953 77.2343C78.9534 77.2199 78.9538 77.2055 78.9542 77.1906C78.9562 77.1198 78.9583 77.049 78.9603 76.9781C78.9607 76.9647 78.9611 76.9514 78.9615 76.9376C78.9662 76.7708 78.9711 76.6041 78.976 76.4374C78.9774 76.3893 78.9788 76.3412 78.9802 76.2931C78.9812 76.2605 78.9821 76.2279 78.9831 76.1953C78.9886 76.008 78.9939 75.8206 78.999 75.6333C79.0449 73.9257 79.1627 72.2659 80.2889 69.3676C80.3111 69.3199 80.3332 69.2721 80.3551 69.2242C80.7535 68.36 81.2611 67.5401 81.8032 66.7595C81.8321 66.7178 81.8609 66.6759 81.8895 66.634C82.0744 66.3637 82.2636 66.0966 82.4558 65.8314C82.539 65.7165 82.621 65.6007 82.7027 65.4846C82.7744 65.3827 82.8472 65.2816 82.9205 65.1807C83.0129 65.0532 83.104 64.9249 83.1942 64.7958C83.2058 64.7791 83.2175 64.7625 83.2295 64.7453C83.275 64.6801 83.3206 64.6148 83.3661 64.5496C83.6852 64.0919 84.012 63.6519 84.5798 63.5052C84.9512 63.4501 85.289 63.5414 85.5932 63.7607Z" fill="white"/>
<path d="M29.1932 32.1443C29.2102 32.1499 29.2271 32.1555 29.2445 32.1612C29.6572 32.311 29.9789 32.6689 30.2832 32.9716C30.2961 32.9845 30.3091 32.9973 30.3224 33.0105C30.4602 33.1488 30.5855 33.2971 30.7095 33.4478C30.7276 33.4698 30.7276 33.4698 30.7461 33.4922C30.8366 33.6025 30.9241 33.7149 31.0095 33.8293C31.0541 33.885 31.1019 33.9345 31.1532 33.9839C31.2442 33.8848 31.3335 33.7848 31.4182 33.6802C31.5011 33.578 31.5866 33.4784 31.6731 33.3792C31.7267 33.3178 31.7801 33.2562 31.8327 33.1939C31.976 33.0244 32.125 32.8611 32.2785 32.7006C32.3096 32.668 32.3405 32.6351 32.3713 32.6021C32.5605 32.4049 32.775 32.2395 33.0332 32.1443C33.049 32.138 33.0647 32.1316 33.081 32.1251C33.3449 32.0348 33.6801 32.0531 33.9332 32.1643C33.9515 32.1723 33.9698 32.1804 33.9887 32.1886C34.3328 32.3587 34.5823 32.6558 34.7082 33.0166C34.8142 33.4024 34.7246 33.7858 34.5301 34.1277C34.367 34.3762 34.1409 34.5953 33.9155 34.7871C33.8721 34.8247 33.8299 34.8635 33.7878 34.9026C33.6841 34.9988 33.5778 35.09 33.4675 35.1787C33.3921 35.2411 33.3207 35.3075 33.2488 35.3738C33.1752 35.4398 33.0987 35.5018 33.0214 35.5634C32.9759 35.6013 32.9343 35.641 32.8932 35.6835C32.9247 35.7644 32.9823 35.8136 33.0457 35.8697C33.0566 35.8795 33.0675 35.8893 33.0787 35.8994C33.1101 35.9276 33.1416 35.9555 33.1732 35.9835C33.1938 36.0018 33.1938 36.0018 33.2148 36.0205C33.2739 36.0727 33.3338 36.1239 33.394 36.1748C33.5537 36.3099 33.7074 36.4501 33.8593 36.5938C33.9189 36.6501 33.9794 36.7052 34.0407 36.7596C34.4182 37.0984 34.7237 37.4716 34.753 37.9979C34.7629 38.3337 34.6507 38.6477 34.422 38.8953C34.3864 38.932 34.3501 38.9674 34.3132 39.0028C34.3011 39.0148 34.289 39.0269 34.2765 39.0393C34.0363 39.2625 33.7364 39.3557 33.4141 39.3522C32.9403 39.3346 32.5848 39.0462 32.2677 38.7229C32.2355 38.6901 32.203 38.6575 32.1706 38.6249C32.0607 38.5143 31.9545 38.4015 31.8532 38.283C31.8241 38.2508 31.795 38.2187 31.7657 38.1867C31.7039 38.1184 31.6447 38.0486 31.587 37.9768C31.5079 37.879 31.4243 37.7865 31.3382 37.6949C31.2738 37.6263 31.2128 37.5559 31.1532 37.4831C31.1307 37.5057 31.1081 37.5283 31.0856 37.5509C31.0624 37.5739 31.0392 37.5969 31.0159 37.6198C30.9381 37.6965 30.8641 37.7749 30.7928 37.8577C30.7439 37.9137 30.6936 37.9684 30.6432 38.023C30.5836 38.0877 30.5244 38.1526 30.467 38.2192C29.5273 39.2986 29.5273 39.2986 28.9302 39.3462C28.7185 39.3585 28.5313 39.3453 28.3332 39.2627C28.3159 39.2557 28.2985 39.2487 28.2806 39.2415C27.9636 39.0986 27.7194 38.8213 27.5888 38.5036C27.4698 38.187 27.475 37.8368 27.6098 37.5247C27.7471 37.2272 27.9644 37.0058 28.1944 36.778C28.2346 36.7382 28.2746 36.6982 28.3147 36.6582C28.4264 36.5468 28.5376 36.4359 28.6579 36.3338C28.7265 36.2748 28.7914 36.2119 28.857 36.1497C28.9742 36.0388 29.092 35.9286 29.211 35.8196C29.2664 35.7688 29.3205 35.7171 29.3732 35.6635C29.3458 35.6001 29.3164 35.564 29.2627 35.5208C29.2486 35.5094 29.2345 35.4979 29.22 35.4861C29.205 35.4742 29.1899 35.4622 29.1745 35.4498C29.1591 35.4374 29.1437 35.4249 29.1279 35.4121C29.0971 35.3872 29.0663 35.3623 29.0354 35.3375C28.9819 35.2945 28.9288 35.251 28.8757 35.2074C28.8242 35.1652 28.7725 35.1231 28.7208 35.0812C27.5973 34.1682 27.5973 34.1682 27.5132 33.584C27.487 33.1816 27.5473 32.8522 27.8207 32.5392C27.8512 32.5073 27.882 32.4756 27.9132 32.4443C27.9265 32.4303 27.9398 32.4163 27.9535 32.4019C28.2807 32.0816 28.7659 31.9988 29.1932 32.1443Z" fill="white"/>
<path d="M35.3528 21.8265C35.3656 21.8321 35.3785 21.8377 35.3917 21.8434C35.7231 21.9929 35.9581 22.2249 36.0921 22.5657C36.2062 22.9 36.1725 23.3065 36.0252 23.6272C35.9095 23.8374 35.7528 24.0167 35.5946 24.1956C35.5425 24.2546 35.4923 24.3147 35.4428 24.376C35.3402 24.5026 35.2328 24.625 35.1258 24.7479C34.9878 24.9068 34.8515 25.0671 34.7156 25.2279C34.6488 25.307 34.5815 25.3858 34.5141 25.4645C34.5041 25.476 34.4942 25.4876 34.484 25.4996C34.4329 25.559 34.3818 25.6185 34.3306 25.6779C34.2388 25.7845 34.1476 25.8913 34.0591 26.0006C33.9881 26.0881 33.9137 26.1717 33.8378 26.2549C33.7912 26.3073 33.7469 26.361 33.7028 26.4155C33.6306 26.5048 33.5551 26.5901 33.4777 26.6749C33.4316 26.7268 33.3877 26.7801 33.3441 26.8342C33.2668 26.9296 33.1853 27.0201 33.1021 27.1104C33.0543 27.1637 33.009 27.2183 32.9641 27.2741C32.8909 27.3648 32.8139 27.4504 32.7345 27.5356C32.6747 27.6003 32.6181 27.6666 32.5628 27.7352C32.4902 27.8255 32.4136 27.9106 32.3347 27.9953C32.273 28.062 32.2148 28.1305 32.1578 28.2014C32.0876 28.2885 32.0136 28.3678 31.9328 28.445C31.9099 28.4686 31.9099 28.4686 31.8866 28.4925C31.86 28.5185 31.86 28.5185 31.8328 28.545C31.8194 28.5584 31.8059 28.5718 31.792 28.5856C31.5377 28.8279 31.2476 28.9645 30.8928 28.9649C30.4845 28.9378 30.1512 28.7289 29.8312 28.4932C29.7905 28.4633 29.7495 28.4338 29.7085 28.4044C29.5046 28.2579 29.3023 28.1095 29.1005 27.9603C29.0534 27.9256 29.0063 27.891 28.9591 27.8565C28.7744 27.7211 28.5914 27.5837 28.4095 27.4445C28.2948 27.3569 28.1793 27.2706 28.0628 27.1853C27.9247 27.0841 27.7878 26.9816 27.6516 26.8779C27.6347 26.8651 27.6178 26.8522 27.6004 26.839C27.2008 26.534 26.7846 26.2127 26.6928 25.6857C26.6517 25.2899 26.7473 24.9617 26.9975 24.6503C27.0411 24.6004 27.0861 24.5529 27.1328 24.5059C27.1448 24.4932 27.1568 24.4805 27.1692 24.4674C27.3745 24.267 27.6586 24.1872 27.9378 24.1797C28.4995 24.1893 28.9205 24.5068 29.3528 24.8259C29.3841 24.8488 29.4154 24.8718 29.4467 24.8948C29.5103 24.9415 29.5738 24.9884 29.6373 25.0353C29.7002 25.0818 29.7633 25.1282 29.8265 25.1744C30.0161 25.3134 30.204 25.4543 30.3905 25.5974C30.4834 25.6686 30.5771 25.7382 30.6728 25.8056C30.7491 25.7754 30.7854 25.7311 30.8353 25.6669C30.8987 25.5872 30.9637 25.5105 31.0328 25.4357C31.1151 25.3463 31.1922 25.2539 31.2685 25.1595C31.3261 25.0897 31.387 25.0232 31.4479 24.9564C31.4941 24.9044 31.5379 24.8512 31.5816 24.7971C31.6588 24.7017 31.7403 24.6113 31.8234 24.521C31.8878 24.4493 31.948 24.3746 32.0085 24.2996C32.0519 24.247 32.0969 24.1964 32.1428 24.146C32.2051 24.0777 32.2646 24.0079 32.3228 23.9361C32.395 23.8468 32.4705 23.7615 32.5479 23.6767C32.594 23.6247 32.6379 23.5715 32.6816 23.5174C32.7588 23.4219 32.8403 23.3315 32.9234 23.2412C32.9717 23.1875 33.0175 23.1324 33.0628 23.0762C33.1396 22.9811 33.2207 22.8911 33.3035 22.8012C33.3514 22.7479 33.3967 22.6934 33.4416 22.6376C33.5243 22.5351 33.612 22.4385 33.7016 22.3421C33.744 22.296 33.7849 22.2492 33.8253 22.2014C34.2167 21.7558 34.8001 21.5864 35.3528 21.8265Z" fill="white"/>
<path d="M34.7721 41.9192C35.1564 41.9014 35.5202 42.0782 35.8023 42.3253C36.0232 42.5337 36.1369 42.7999 36.1571 43.103C36.1645 43.6194 35.9757 43.9681 35.6414 44.349C35.6013 44.3953 35.5628 44.4428 35.5243 44.4904C35.4212 44.6173 35.3136 44.7401 35.2062 44.8634C35.0821 45.0062 34.9585 45.1495 34.8393 45.2965C34.7682 45.3841 34.6937 45.4678 34.6177 45.5512C34.573 45.6015 34.5304 45.6529 34.488 45.7052C34.3837 45.8339 34.2748 45.9584 34.166 46.0834C34.1143 46.1429 34.063 46.2027 34.0118 46.2625C34.002 46.274 33.9922 46.2855 33.982 46.2973C33.9623 46.3204 33.9425 46.3435 33.9227 46.3666C33.8729 46.4248 33.823 46.483 33.773 46.5412C33.753 46.5645 33.733 46.5879 33.713 46.6112C33.593 46.7512 33.473 46.8911 33.353 47.0311C33.3382 47.0484 33.3382 47.0484 33.323 47.0661C33.3031 47.0894 33.2831 47.1127 33.2632 47.1359C33.2124 47.1952 33.1616 47.2545 33.1109 47.3139C33.0215 47.4186 32.932 47.5229 32.8393 47.6247C32.7791 47.691 32.7217 47.7587 32.6655 47.8284C32.5919 47.9196 32.5144 48.0057 32.4346 48.0914C32.3764 48.1543 32.3214 48.2188 32.268 48.2858C32.1451 48.4385 32.009 48.5796 31.873 48.7207C31.8613 48.733 31.8496 48.7453 31.8376 48.7579C31.6089 48.9934 31.3217 49.1588 30.9889 49.1703C30.5987 49.1728 30.2539 49.025 29.953 48.7807C29.9576 48.7685 29.9621 48.7564 29.9668 48.7438C29.9877 48.6874 30.0085 48.631 30.0293 48.5745C30.0364 48.5554 30.0436 48.5362 30.0509 48.5165C30.2893 47.8672 30.2607 47.2049 29.9747 46.5742C29.937 46.4949 29.8958 46.4179 29.853 46.3413C29.8461 46.3286 29.8391 46.316 29.832 46.303C29.6062 45.8977 29.2875 45.5402 28.9361 45.2389C28.8854 45.1949 28.8362 45.1495 28.7868 45.104C28.6191 44.9517 28.4435 44.8129 28.2618 44.6779C28.2384 44.6604 28.2384 44.6604 28.2146 44.6426C28.1164 44.5703 28.0159 44.5058 27.9102 44.4451C27.8979 44.4374 27.8857 44.4296 27.873 44.4217C27.873 44.4151 27.873 44.4085 27.873 44.4017C28.4785 44.3644 28.9505 44.7417 29.413 45.0815C29.4286 45.0929 29.4441 45.1043 29.46 45.116C29.5553 45.1859 29.6503 45.2561 29.7453 45.3263C29.7926 45.3612 29.84 45.396 29.8874 45.4308C29.9189 45.454 29.9503 45.4771 29.9818 45.5002C29.9972 45.5116 30.0127 45.5229 30.0286 45.5346C30.1131 45.5968 30.1972 45.6595 30.2809 45.7229C30.2988 45.7364 30.3167 45.7499 30.3352 45.7639C30.3694 45.7898 30.4037 45.8158 30.4378 45.8419C30.5266 45.9091 30.6149 45.9686 30.713 46.0213C30.7276 46.0044 30.7421 45.9874 30.7571 45.9699C30.8427 45.8701 30.9284 45.7702 31.014 45.6703C31.0237 45.6589 31.0335 45.6475 31.0436 45.6358C31.0634 45.6127 31.0832 45.5896 31.103 45.5665C31.1528 45.5084 31.2026 45.4503 31.2523 45.3922C31.3664 45.259 31.4809 45.1262 31.5959 44.9937C31.6989 44.875 31.8012 44.7557 31.9034 44.6363C31.9632 44.5664 32.0232 44.4965 32.0831 44.4266C32.1329 44.3686 32.1826 44.3105 32.2323 44.2524C32.3464 44.1192 32.4609 43.9864 32.5759 43.8539C32.6486 43.7702 32.7209 43.6861 32.793 43.6019C32.8868 43.4923 32.9812 43.3832 33.0758 43.2743C33.1503 43.1884 33.2242 43.1022 33.298 43.0158C33.3806 42.9191 33.4648 42.8244 33.5504 42.7304C33.5951 42.6797 33.6372 42.6275 33.6793 42.5746C33.9359 42.2603 34.2421 41.9879 34.6593 41.926C34.6969 41.9241 34.7345 41.9221 34.7721 41.9192Z" fill="white"/>
</g>
<defs>
<clipPath id="clip0_161_583">
<rect width="90" height="90" fill="white" transform="translate(0.333008 0.631348)"/>
</clipPath>
</defs>
</svg>
