<svg width="90" height="91" viewBox="0 0 90 91" fill="none" xmlns="http://www.w3.org/2000/svg">
<rect width="90" height="90.3444" rx="10" fill="white"/>
<rect x="0.5" y="0.5" width="89" height="89.3444" rx="9.5" stroke="#115056" stroke-opacity="0.15"/>
<path d="M25.2772 20.3905C25.3352 20.3903 25.3352 20.3903 25.3943 20.3902C25.5231 20.39 25.6519 20.3901 25.7808 20.3901C25.8743 20.39 25.9678 20.3899 26.0614 20.3898C26.2911 20.3895 26.5208 20.3894 26.7505 20.3894C27.0258 20.3893 27.3011 20.3891 27.5764 20.3888C28.2415 20.3882 28.9066 20.388 29.5717 20.3878C29.8864 20.3877 30.2011 20.3876 30.5158 20.3874C31.5933 20.3869 32.6708 20.3865 33.7483 20.3864C33.8158 20.3864 33.8834 20.3864 33.951 20.3864C34.0187 20.3864 34.0865 20.3864 34.1542 20.3863C34.2901 20.3863 34.426 20.3863 34.5619 20.3863C34.5956 20.3863 34.6293 20.3863 34.664 20.3863C35.7572 20.3861 36.8505 20.3855 37.9437 20.3846C39.0999 20.3837 40.2562 20.3832 41.4125 20.3831C41.5394 20.3831 41.6663 20.3831 41.7932 20.3831C41.8244 20.3831 41.8557 20.3831 41.8879 20.3831C42.3907 20.3831 42.8935 20.3826 43.3964 20.3821C43.9016 20.3815 44.4068 20.3814 44.912 20.3817C45.2121 20.3819 45.5122 20.3817 45.8123 20.3811C46.0364 20.3807 46.2605 20.3809 46.4845 20.3813C46.5752 20.3814 46.6659 20.3813 46.7565 20.3809C46.8797 20.3805 47.0029 20.3808 47.1261 20.3813C47.1613 20.381 47.1965 20.3807 47.2328 20.3804C47.6123 20.3834 47.9357 20.4748 48.2146 20.7399C48.4744 21.0192 48.5853 21.3219 48.572 21.7031C48.5286 22.0637 48.3719 22.3382 48.0998 22.5766C47.7955 22.7842 47.4547 22.8176 47.0964 22.8158C47.0385 22.8159 47.0385 22.8159 46.9795 22.8161C46.8501 22.8164 46.7208 22.8161 46.5914 22.8158C46.4978 22.8159 46.4041 22.816 46.3105 22.8162C46.1068 22.8164 45.9032 22.8164 45.6995 22.8162C45.3967 22.8159 45.0938 22.8161 44.791 22.8163C44.2813 22.8167 43.7717 22.8168 43.2621 22.8167C42.5338 22.8166 41.8055 22.8171 41.0772 22.8177C40.7849 22.818 40.4926 22.8182 40.2002 22.8184C40.1515 22.8185 40.1515 22.8185 40.1018 22.8185C39.3288 22.8191 38.5558 22.8196 37.7827 22.8199C37.7489 22.8199 37.7151 22.8199 37.6802 22.82C36.8913 22.8203 36.1024 22.8206 35.3134 22.8207C35.2626 22.8207 35.2626 22.8207 35.2107 22.8207C35.0396 22.8207 34.8685 22.8207 34.6975 22.8207C34.6637 22.8208 34.6299 22.8208 34.595 22.8208C34.5268 22.8208 34.4586 22.8208 34.3903 22.8208C33.2625 22.8209 32.1347 22.8216 31.0068 22.8228C30.8475 22.8229 30.6882 22.8231 30.5288 22.8233C30.4975 22.8233 30.4661 22.8233 30.4338 22.8234C29.9295 22.8239 29.4253 22.8238 28.921 22.8235C28.414 22.8232 27.9071 22.8234 27.4001 22.8242C27.0991 22.8247 26.798 22.8247 26.497 22.8241C26.272 22.8237 26.047 22.8242 25.822 22.8249C25.7311 22.825 25.6403 22.8249 25.5494 22.8246C24.7231 22.8214 24.0593 22.9341 23.4466 23.5364C23.0626 23.9468 22.8381 24.4809 22.8397 25.0427C22.8396 25.0855 22.8396 25.0855 22.8395 25.1291C22.8394 25.2252 22.8394 25.3213 22.8395 25.4174C22.8395 25.4871 22.8394 25.5568 22.8393 25.6265C22.839 25.8191 22.839 26.0117 22.839 26.2043C22.839 26.4135 22.8388 26.6226 22.8386 26.8317C22.8383 27.247 22.8381 27.6623 22.838 28.0776C22.8379 28.5749 22.8376 29.0721 22.8372 29.5694C22.8364 30.7713 22.836 31.9733 22.8357 33.1752C22.8356 33.5733 22.8355 33.9713 22.8353 34.3693C22.8353 34.4115 22.8353 34.4115 22.8353 34.4544C22.8352 34.568 22.8352 34.6816 22.8352 34.7952C22.8345 36.7383 22.8339 38.6814 22.8336 40.6246C22.8336 40.7772 22.8336 40.9298 22.8335 41.0825C22.8335 41.1279 22.8335 41.1279 22.8335 41.1742C22.8335 41.481 22.8334 41.7878 22.8334 42.0945C22.8334 42.1561 22.8334 42.2176 22.8334 42.2791C22.8331 44.2544 22.8322 46.2297 22.831 48.205C22.8301 49.6243 22.8292 51.0435 22.829 52.4627C22.829 52.4919 22.829 52.5211 22.829 52.5512C22.8288 53.192 22.8288 53.8328 22.8287 54.4736C22.8287 54.7314 22.8287 54.9892 22.8287 55.2471C22.8287 55.2753 22.8287 55.3035 22.8286 55.3326C22.8286 56.2414 22.828 57.1503 22.8272 58.0591C22.8265 58.9747 22.8262 59.8902 22.8265 60.8057C22.8267 61.3738 22.8266 61.9418 22.8257 62.5098C22.8252 62.8721 22.8252 63.2345 22.8257 63.5968C22.826 63.8033 22.826 64.0098 22.8253 64.2163C22.8247 64.4043 22.8249 64.5923 22.8255 64.7803C22.8257 64.8478 22.8255 64.9152 22.8251 64.9827C22.8207 65.7318 22.9983 66.3505 23.5366 66.8981C23.9264 67.2629 24.4513 67.5046 24.9891 67.505C25.0358 67.5052 25.0826 67.5053 25.1308 67.5055C25.1827 67.5054 25.2346 67.5054 25.2865 67.5053C25.3419 67.5054 25.3973 67.5055 25.4527 67.5056C25.6055 67.5059 25.7584 67.5059 25.9113 67.5059C26.0773 67.506 26.2434 67.5062 26.4094 67.5065C26.7391 67.5069 27.0688 67.5071 27.3984 67.5073C27.7932 67.5075 28.1879 67.5079 28.5827 67.5083C29.537 67.5093 30.4912 67.5098 31.4455 67.5103C31.7615 67.5105 32.0776 67.5107 32.3936 67.5108C34.0739 67.5118 35.7541 67.5127 37.4344 67.5131C37.8237 67.5132 38.2131 67.5134 38.6024 67.5135C38.6508 67.5135 38.6992 67.5135 38.749 67.5135C40.3173 67.514 41.8856 67.5152 43.4538 67.5168C45.0659 67.5184 46.678 67.5194 48.2901 67.5196C48.5178 67.5196 48.7455 67.5197 48.9732 67.5197C49.018 67.5197 49.0628 67.5197 49.109 67.5197C49.8302 67.5199 50.5514 67.5206 51.2726 67.5217C51.9976 67.5227 52.7225 67.523 53.4475 67.5225C53.8781 67.5223 54.3088 67.5226 54.7394 67.5237C55.0273 67.5243 55.3151 67.5243 55.603 67.5237C55.7669 67.5234 55.9307 67.5234 56.0946 67.5242C56.2441 67.5249 56.3935 67.5248 56.5429 67.5239C56.6213 67.5237 56.6997 67.5244 56.7781 67.5252C57.3197 67.5202 57.8054 67.3697 58.2401 67.0409C58.2679 67.02 58.2957 66.9992 58.3244 66.9777C58.789 66.6008 59.0234 66.0501 59.1202 65.472C59.1353 65.2703 59.1355 65.0695 59.1344 64.8674C59.1345 64.8077 59.1347 64.7481 59.1348 64.6885C59.1352 64.5259 59.1349 64.3634 59.1345 64.2008C59.1342 64.025 59.1345 63.8492 59.1347 63.6734C59.1351 63.3691 59.135 63.0649 59.1347 62.7606C59.1343 62.3203 59.1346 61.8799 59.1352 61.4396C59.1361 60.7244 59.1366 60.0093 59.1368 59.2941C59.1368 59.23 59.1368 59.23 59.1368 59.1646C59.1369 58.6875 59.1369 58.2104 59.1369 57.7333C59.1369 57.5601 59.1369 57.387 59.1369 57.2139C59.1368 57.1712 59.1368 57.1284 59.1368 57.0844C59.1368 56.3718 59.1374 55.6591 59.1384 54.9464C59.139 54.5072 59.1391 54.068 59.1385 53.6288C59.1382 53.328 59.1383 53.0271 59.139 52.7262C59.1393 52.5527 59.1394 52.3792 59.1388 52.2057C59.1382 52.0467 59.1384 51.8877 59.1391 51.7287C59.1393 51.6714 59.1392 51.6141 59.1388 51.5567C59.1358 51.1115 59.184 50.7195 59.5028 50.3849C59.8031 50.1262 60.0875 50.0749 60.4744 50.0789C60.7776 50.1019 61.0133 50.2246 61.234 50.4311C61.4351 50.6679 61.5356 50.9427 61.536 51.2498C61.5361 51.2746 61.5362 51.2993 61.5363 51.3249C61.5366 51.4085 61.5365 51.4921 61.5365 51.5757C61.5366 51.636 61.5368 51.6963 61.5369 51.7566C61.5373 51.9229 61.5375 52.0891 61.5376 52.2553C61.5377 52.4345 61.5381 52.6136 61.5384 52.7927C61.5392 53.2258 61.5396 53.6588 61.5399 54.0918C61.5401 54.2959 61.5403 54.4999 61.5405 54.704C61.5411 55.3827 61.5417 56.0613 61.542 56.74C61.542 56.9162 61.5421 57.0924 61.5422 57.2686C61.5422 57.3124 61.5422 57.3562 61.5422 57.4013C61.5426 58.1096 61.5435 58.8179 61.5448 59.5261C61.546 60.2538 61.5467 60.9814 61.5469 61.7091C61.5469 62.1174 61.5473 62.5258 61.5482 62.9341C61.5491 63.2822 61.5494 63.6302 61.549 63.9783C61.5488 64.1556 61.5489 64.3329 61.5497 64.5103C61.5551 65.876 61.5551 65.876 61.3778 66.5052C61.3669 66.5446 61.3669 66.5446 61.3558 66.5847C61.146 67.3374 60.7237 67.9689 60.1916 68.5332C60.1663 68.5615 60.1409 68.5898 60.1148 68.6189C59.3485 69.4391 58.1919 69.8711 57.0921 69.9491C56.9093 69.9544 56.7266 69.9543 56.5437 69.954C56.4885 69.954 56.4333 69.9541 56.3781 69.9542C56.2266 69.9544 56.0751 69.9543 55.9236 69.9542C55.7588 69.9541 55.5939 69.9543 55.429 69.9544C55.1401 69.9546 54.8512 69.9547 54.5623 69.9546C54.1326 69.9546 53.703 69.9547 53.2734 69.9549C52.4613 69.9553 51.6493 69.9554 50.8373 69.9554C50.2102 69.9555 49.5831 69.9555 48.956 69.9557C48.7755 69.9557 48.595 69.9557 48.4145 69.9558C48.3696 69.9558 48.3247 69.9558 48.2785 69.9558C47.0163 69.956 45.754 69.9562 44.4917 69.9562C44.4441 69.9562 44.3965 69.9562 44.3475 69.9562C44.1063 69.9562 43.8651 69.9562 43.6238 69.9561C43.552 69.9561 43.552 69.9561 43.4787 69.9561C43.3818 69.9561 43.2849 69.9561 43.188 69.9561C41.6808 69.9561 40.1736 69.9564 38.6664 69.9569C36.9731 69.9575 35.2798 69.9578 33.5864 69.9578C33.4059 69.9578 33.2253 69.9578 33.0447 69.9578C33.0002 69.9578 32.9558 69.9578 32.91 69.9578C32.1946 69.9578 31.4792 69.958 30.7638 69.9584C30.0448 69.9587 29.3257 69.9587 28.6066 69.9585C28.1796 69.9583 27.7525 69.9584 27.3254 69.9588C27.0399 69.959 26.7544 69.959 26.4689 69.9587C26.3064 69.9585 26.1439 69.9585 25.9814 69.9588C24.5577 69.9614 23.1938 69.8204 22.0794 68.8394C22.0485 68.8136 22.0177 68.7878 21.9859 68.7612C21.0603 67.966 20.5088 66.8108 20.4034 65.6004C20.3871 65.3299 20.3904 65.0588 20.3907 64.7878C20.3906 64.7183 20.3905 64.6487 20.3904 64.5792C20.3902 64.388 20.3902 64.1968 20.3903 64.0057C20.3903 63.7977 20.3901 63.5898 20.39 63.3818C20.3897 62.9693 20.3896 62.5568 20.3896 62.1444C20.3895 61.6503 20.3893 61.1562 20.389 60.6622C20.3884 59.4964 20.3882 58.3306 20.388 57.1649C20.3879 56.5716 20.3878 55.9784 20.3876 55.3851C20.3871 53.4816 20.3867 51.578 20.3866 49.6745C20.3866 49.5835 20.3866 49.4926 20.3866 49.4016C20.3866 49.2192 20.3866 49.0368 20.3865 48.8544C20.3865 48.6408 20.3865 48.4273 20.3865 48.2137C20.3865 48.1526 20.3865 48.0915 20.3865 48.0304C20.3864 46.0678 20.3858 44.1051 20.3849 42.1425C20.3842 40.732 20.3837 39.3215 20.3835 37.911C20.3835 37.8819 20.3835 37.8529 20.3835 37.823C20.3834 37.1858 20.3833 36.5486 20.3833 35.9114C20.3833 35.6834 20.3833 35.4554 20.3833 35.2274C20.3833 35.1706 20.3833 35.1139 20.3833 35.0572C20.3833 34.1543 20.3829 33.2513 20.3823 32.3484C20.3818 31.4133 20.3816 30.4782 20.3819 29.5431C20.3821 29.0042 20.3819 28.4654 20.3813 27.9265C20.381 27.5663 20.381 27.2062 20.3814 26.846C20.3816 26.6409 20.3816 26.4359 20.3811 26.2308C20.3807 26.0438 20.3808 25.8568 20.3813 25.6698C20.3814 25.603 20.3813 25.5362 20.381 25.4694C20.3782 24.8509 20.4184 24.2057 20.6301 23.6193C20.6415 23.5866 20.6529 23.5538 20.6647 23.52C21.0881 22.3513 21.9552 21.3906 23.0764 20.8556C23.7859 20.5296 24.4983 20.389 25.2772 20.3905Z" fill="#165056"/>
<path d="M48.4637 25.7044C48.492 25.7043 48.5202 25.7042 48.5494 25.7041C48.6442 25.7038 48.739 25.704 48.8338 25.7042C48.9025 25.7041 48.9711 25.7039 49.0397 25.7038C49.2284 25.7034 49.4171 25.7035 49.6058 25.7036C49.8092 25.7037 50.0127 25.7034 50.2161 25.7031C50.6148 25.7026 51.0134 25.7025 51.412 25.7026C51.736 25.7027 52.0599 25.7026 52.3839 25.7025C52.453 25.7024 52.453 25.7024 52.5235 25.7024C52.6171 25.7023 52.7107 25.7023 52.8043 25.7022C53.6825 25.7018 54.5606 25.7019 55.4387 25.7021C56.2423 25.7023 57.0459 25.7019 57.8495 25.7012C58.6744 25.7004 59.4993 25.7001 60.3241 25.7003C60.7873 25.7003 61.2505 25.7002 61.7137 25.6997C62.1081 25.6993 62.5024 25.6992 62.8967 25.6997C63.098 25.6999 63.2992 25.6999 63.5004 25.6995C63.6846 25.6991 63.8688 25.6992 64.053 25.6997C64.1196 25.6998 64.1863 25.6997 64.2529 25.6994C64.3435 25.699 64.4341 25.6993 64.5248 25.6998C64.6002 25.6998 64.6002 25.6998 64.6773 25.6998C64.8991 25.7219 65.0696 25.7751 65.2342 25.9273C65.347 26.0813 65.3989 26.2562 65.4551 26.4367C65.4677 26.4761 65.4804 26.5154 65.4935 26.5559C65.5382 26.696 65.5819 26.8364 65.6253 26.9769C65.6337 27.0039 65.642 27.0308 65.6506 27.0585C65.7889 27.5047 65.9248 27.9517 66.0602 28.3988C66.1556 28.7137 66.2511 29.0286 66.3467 29.3434C66.357 29.3775 66.3673 29.4115 66.378 29.4466C66.5011 29.8523 66.6259 30.2573 66.755 30.6612C66.7732 30.7183 66.7732 30.7183 66.7918 30.7767C66.8441 30.9412 66.897 31.1054 66.9511 31.2694C67.0613 31.6102 67.1788 31.9748 67.0148 32.3149C66.9856 32.3465 66.9564 32.3781 66.9263 32.4106C66.9003 32.439 66.8743 32.4674 66.8474 32.4967C66.6804 32.5962 66.5049 32.6148 66.3141 32.6402C66.358 32.6634 66.402 32.6866 66.4473 32.7105C66.9848 32.9985 67.4377 33.3308 67.883 33.7499C67.9083 33.7728 67.9337 33.7957 67.9598 33.8193C68.6514 34.4688 69.1112 35.4147 69.3681 36.3161C69.3751 36.3403 69.3821 36.3646 69.3893 36.3896C69.413 36.4786 69.4323 36.5681 69.4518 36.6581C69.4614 36.6984 69.4709 36.7387 69.4806 36.7802C69.6078 37.3776 69.5822 37.9902 69.5795 38.5976C69.579 38.7597 69.579 38.9219 69.579 39.084C69.5788 39.3554 69.5783 39.6267 69.5774 39.898C69.5763 40.2467 69.5759 40.5953 69.5757 40.9439C69.5756 41.2442 69.5751 41.5446 69.5746 41.8449C69.5744 41.9413 69.5743 42.0377 69.5742 42.1342C69.574 42.285 69.5736 42.4359 69.5731 42.5868C69.5729 42.6422 69.5728 42.6977 69.5728 42.7531C69.5727 42.8285 69.5724 42.9038 69.572 42.9792C69.5719 43.0214 69.5718 43.0637 69.5717 43.1072C69.5666 43.2014 69.5666 43.2014 69.5284 43.2397C69.4456 43.2545 69.4456 43.2545 69.3371 43.2397C69.2486 43.1763 69.1727 43.1143 69.0931 43.0412C69.0453 42.9987 68.9975 42.9563 68.9498 42.9138C68.913 42.8807 68.913 42.8807 68.8755 42.847C68.7573 42.7411 68.6369 42.6378 68.5167 42.5342C68.4691 42.4929 68.4215 42.4516 68.3738 42.4103C68.35 42.3896 68.3261 42.3689 68.3016 42.3475C68.224 42.2801 68.1464 42.2126 68.0689 42.1451C68.043 42.1226 68.0171 42.1 67.9904 42.0768C67.9408 42.0337 67.8912 41.9905 67.8417 41.9473C67.8193 41.9278 67.7968 41.9083 67.7737 41.8882C67.7443 41.8625 67.7443 41.8625 67.7143 41.8364C67.6529 41.7826 67.6529 41.7826 67.5747 41.738C67.5003 41.6708 67.5003 41.6708 67.4779 41.5778C67.4763 41.5399 67.4748 41.502 67.4732 41.463C67.471 41.4183 67.4689 41.3736 67.4667 41.3276C67.4651 41.2762 67.4636 41.2248 67.4621 41.1734C67.4599 41.1162 67.4578 41.059 67.4556 41.0019C67.4496 40.8383 67.4448 40.6747 67.4403 40.5111C67.4372 40.4014 67.4339 40.2917 67.4305 40.182C67.421 39.8705 67.4115 39.559 67.4029 39.2474C67.3975 39.0558 67.3917 38.8642 67.3856 38.6726C67.3834 38.6004 67.3813 38.5282 67.3795 38.4561C67.3643 37.8729 67.3255 37.2799 67.1296 36.725C67.1198 36.6968 67.1101 36.6686 67.1 36.6395C66.7487 35.6699 66.0237 35.0459 65.1159 34.6037C64.7146 34.4273 64.254 34.2812 63.8146 34.2805C63.7414 34.2802 63.7414 34.2802 63.6668 34.28C63.613 34.28 63.5593 34.28 63.5055 34.2801C63.4487 34.2799 63.3919 34.2798 63.335 34.2797C63.181 34.2793 63.0269 34.2792 62.8728 34.2792C62.7442 34.2792 62.6156 34.279 62.4871 34.2789C62.1839 34.2786 61.8807 34.2785 61.5776 34.2785C61.2645 34.2785 60.9514 34.2781 60.6384 34.2775C60.3697 34.277 60.101 34.2768 59.8323 34.2769C59.6718 34.2769 59.5112 34.2768 59.3507 34.2764C59.1999 34.276 59.0491 34.276 58.8983 34.2763C58.8429 34.2763 58.7874 34.2762 58.732 34.276C58.6566 34.2757 58.5811 34.2759 58.5057 34.2762C58.4634 34.2761 58.4211 34.2761 58.3775 34.2761C58.2722 34.2756 58.2722 34.2756 58.2018 34.3621C58.19 34.4566 58.19 34.4566 58.1916 34.5684C58.1913 34.6122 58.191 34.656 58.1906 34.7011C58.1907 34.7494 58.1907 34.7978 58.1907 34.8475C58.1905 34.8988 58.1902 34.95 58.19 35.0012C58.1893 35.1408 58.1891 35.2804 58.189 35.42C58.189 35.5075 58.1888 35.5949 58.1886 35.6824C58.1879 35.9884 58.1876 36.2944 58.1877 36.6004C58.1877 36.8841 58.1869 37.1678 58.1857 37.4515C58.1847 37.6959 58.1843 37.9403 58.1843 38.1848C58.1844 38.3303 58.1841 38.4759 58.1833 38.6215C58.1794 39.3676 58.2034 40.0742 58.4769 40.7788C58.4881 40.8084 58.4994 40.8379 58.511 40.8684C58.702 41.353 58.9604 41.7823 59.3115 42.1683C59.3354 42.1952 59.3592 42.2221 59.3837 42.2499C59.9658 42.8722 60.8844 43.2902 61.7355 43.3208C61.7798 43.3207 61.8241 43.3207 61.8697 43.3206C61.9067 43.3206 61.9067 43.3206 61.9445 43.3206C62.025 43.3206 62.1055 43.3203 62.1861 43.32C62.2423 43.3199 62.2986 43.3198 62.3548 43.3198C62.5021 43.3197 62.6493 43.3193 62.7966 43.3189C62.9472 43.3185 63.0977 43.3183 63.2483 43.3181C63.5432 43.3177 63.8381 43.317 64.133 43.3162C64.0253 43.2384 63.9176 43.1607 63.81 43.0829C63.78 43.0612 63.75 43.0396 63.7191 43.0173C63.5398 42.8877 63.3603 42.7583 63.1808 42.6291C63.0388 42.5268 62.8971 42.4241 62.7554 42.3213C62.7237 42.2983 62.692 42.2754 62.6594 42.2517C62.5621 42.181 62.465 42.1101 62.368 42.0391C62.3385 42.0177 62.3091 41.9964 62.2788 41.9743C61.7269 41.5693 61.7269 41.5693 61.6457 41.3647C61.6447 41.1296 61.7835 40.9801 61.9208 40.8027C61.9694 40.7382 62.018 40.6737 62.0666 40.6093C62.1044 40.5597 62.1044 40.5597 62.1429 40.5091C62.2678 40.3448 62.3909 40.1792 62.5139 40.0134C62.5363 39.9835 62.5588 39.9536 62.582 39.9228C62.751 39.701 62.751 39.701 62.8702 39.4514C62.8379 39.273 62.7622 39.1712 62.6382 39.0425C62.5139 38.9098 62.3956 38.7755 62.2819 38.6335C62.141 38.4593 61.9929 38.2945 61.8404 38.1306C61.6949 37.9733 61.5599 37.809 61.4256 37.642C61.3362 37.5341 61.2432 37.4308 61.1483 37.3277C60.9912 37.157 60.8438 36.9808 60.6985 36.8001C60.583 36.6606 60.4598 36.5289 60.3351 36.3975C60.2691 36.3149 60.245 36.2639 60.2299 36.1606C60.4501 36.1808 60.618 36.2687 60.8111 36.3687C60.8452 36.386 60.8792 36.4034 60.9144 36.4212C61.1542 36.5437 61.3922 36.6698 61.6299 36.7964C61.9765 36.9795 62.328 37.153 62.6789 37.3277C63.4932 37.7332 63.4932 37.7332 63.861 37.9313C64.0529 38.0339 64.2474 38.1305 64.4428 38.226C64.499 38.2536 64.5552 38.2812 64.6114 38.3088C64.6956 38.3502 64.7798 38.3913 64.8644 38.432C64.9432 38.4699 65.0217 38.5084 65.1002 38.547C65.1239 38.5581 65.1476 38.5693 65.172 38.5809C65.3236 38.6562 65.4185 38.7351 65.5105 38.8774C65.5312 39.1356 65.3759 39.2982 65.223 39.4934C64.9968 39.783 64.7754 40.0765 64.5539 40.3698C64.5336 40.3966 64.5133 40.4235 64.4924 40.4511C64.4421 40.5184 64.3926 40.5862 64.3434 40.6544C64.3038 40.7088 64.3038 40.7088 64.2633 40.7643C64.1998 40.8859 64.1932 40.9614 64.2095 41.0968C64.2711 41.1728 64.3269 41.2257 64.4008 41.2882C64.4283 41.3134 64.4557 41.3386 64.4839 41.3645C64.6964 41.5597 64.9164 41.7438 65.1406 41.9252C65.2692 42.0295 65.397 42.1348 65.5249 42.24C65.5528 42.263 65.5807 42.286 65.6095 42.3096C65.8006 42.4672 65.9901 42.6264 66.1788 42.7867C66.3748 42.9532 66.5738 43.1158 66.7733 43.278C67.0198 43.4784 67.2642 43.681 67.5064 43.8867C67.7064 44.0563 67.9091 44.2223 68.1126 44.3877C68.3609 44.5895 68.6072 44.7933 68.8502 45.0015C68.9993 45.1285 69.153 45.2463 69.3137 45.3583C69.3933 45.4391 69.404 45.5007 69.4136 45.6121C69.3459 45.6798 69.2557 45.6553 69.1655 45.6558C69.1351 45.6557 69.1046 45.6557 69.0733 45.6557C69.0411 45.6558 69.0089 45.6559 68.9757 45.656C68.8664 45.6563 68.7572 45.6563 68.6479 45.6563C68.5693 45.6565 68.4907 45.6566 68.4122 45.6568C68.1951 45.6573 67.9781 45.6575 67.7611 45.6577C67.5274 45.6579 67.2938 45.6583 67.0601 45.6587C66.522 45.6596 65.9839 45.6602 65.4457 45.6607C65.2596 45.6608 65.0734 45.661 64.8873 45.6612C63.8979 45.6621 62.9086 45.663 61.9192 45.6635C61.6899 45.6636 61.4606 45.6637 61.2312 45.6638C61.2028 45.6638 61.1743 45.6638 61.1449 45.6638C60.2212 45.6643 59.2975 45.6655 58.3738 45.6671C57.4245 45.6687 56.4752 45.6697 55.5259 45.6699C55.3919 45.67 55.2578 45.67 55.1237 45.6701C55.0974 45.6701 55.071 45.6701 55.0438 45.6701C54.619 45.6702 54.1942 45.671 53.7694 45.672C53.3424 45.673 52.9154 45.6733 52.4884 45.6729C52.2571 45.6727 52.0257 45.6728 51.7943 45.6737C51.5826 45.6746 51.3708 45.6746 51.1591 45.6738C51.0824 45.6737 51.0058 45.6739 50.9291 45.6745C50.8249 45.6752 50.7209 45.6748 50.6167 45.6741C50.572 45.6748 50.572 45.6748 50.5263 45.6755C50.301 45.672 50.151 45.598 49.9748 45.4591C49.8321 45.298 49.8165 45.0941 49.8217 44.8851C49.8875 44.6624 49.9981 44.5059 50.1976 44.383C50.2996 44.3419 50.3781 44.3402 50.488 44.3407C50.5293 44.3407 50.5707 44.3407 50.6133 44.3407C50.6577 44.3411 50.7021 44.3415 50.7479 44.3419C50.8164 44.3421 50.8164 44.3421 50.8862 44.3422C51.032 44.3427 51.1778 44.3436 51.3237 44.3446C51.4225 44.345 51.5214 44.3453 51.6202 44.3456C51.8626 44.3465 52.1049 44.3478 52.3473 44.3494C52.3518 44.3141 52.3563 44.2789 52.361 44.2425C52.4638 43.4778 52.7202 42.8013 53.3422 42.307C53.5228 42.1795 53.7294 42.0535 53.9544 42.0535C53.9544 41.5231 53.9544 40.9928 53.9544 40.4463C53.7814 40.4469 53.6083 40.4475 53.4301 40.4481C52.8581 40.4501 52.2861 40.4513 51.7141 40.4523C51.3674 40.4529 51.0206 40.4537 50.6739 40.455C50.3715 40.4561 50.0692 40.4569 49.7668 40.4571C49.6068 40.4573 49.4469 40.4576 49.2869 40.4585C49.136 40.4592 48.9852 40.4595 48.8344 40.4593C48.7793 40.4593 48.7242 40.4596 48.669 40.46C48.1195 40.4642 47.7026 40.3605 47.2862 39.9858C46.8836 39.5633 46.7045 39 46.663 38.4275C46.6597 38.3828 46.6565 38.338 46.6531 38.2919C46.6506 38.2579 46.6482 38.2238 46.6457 38.1887C46.6072 38.1891 46.6072 38.1891 46.5679 38.1894C46.2997 38.192 46.0315 38.1937 45.7634 38.195C45.6634 38.1956 45.5634 38.1963 45.4634 38.1973C45.3194 38.1987 45.1754 38.1994 45.0314 38.1999C44.987 38.2005 44.9425 38.2011 44.8967 38.2017C44.5959 38.2017 44.3626 38.182 44.125 37.9806C43.9788 37.8043 43.9446 37.6709 43.9497 37.4441C43.9901 37.1301 44.1092 36.832 44.2111 36.5337C44.2382 36.4528 44.2652 36.372 44.2921 36.2911C44.353 36.1085 44.4142 35.9261 44.4756 35.7437C44.5901 35.4029 44.7024 35.0613 44.8147 34.7197C44.8249 34.6887 44.835 34.6577 44.8455 34.6257C44.8874 34.4983 44.9293 34.3709 44.9711 34.2434C45.0465 34.014 45.122 33.7846 45.1975 33.5552C45.2136 33.5063 45.2136 33.5063 45.23 33.4565C45.2516 33.3909 45.2732 33.3254 45.2948 33.2598C45.5177 32.5831 45.7399 31.9062 45.9617 31.2292C46.2276 30.4178 46.4938 29.6065 46.7603 28.7953C46.7994 28.6763 46.8385 28.5573 46.8776 28.4384C46.8915 28.3961 46.8915 28.3961 46.9056 28.353C46.9241 28.2967 46.9426 28.2405 46.961 28.1842C47.0061 28.047 47.0513 27.9098 47.0968 27.7727C47.1802 27.5212 47.2626 27.2696 47.3415 27.0167C47.3781 26.8999 47.4152 26.7833 47.4525 26.6668C47.47 26.6116 47.4871 26.5564 47.5039 26.5011C47.6594 25.9892 47.6594 25.9892 47.8728 25.8286C48.0693 25.7279 48.2443 25.7046 48.4637 25.7044ZM48.7503 27.0535C48.6487 27.3074 48.5542 27.5562 48.4729 27.8164C48.4626 27.8484 48.4524 27.8804 48.4418 27.9133C48.4321 27.944 48.4225 27.9747 48.4125 28.0064C48.4039 28.0338 48.3952 28.0612 48.3863 28.0895C48.363 28.169 48.363 28.169 48.3677 28.278C49.8072 28.278 51.2467 28.278 52.7299 28.278C52.8127 27.6673 52.8127 27.6673 52.8447 27.0535C51.4936 27.0535 50.1424 27.0535 48.7503 27.0535ZM54.184 27.0535C54.1012 27.6641 54.1012 27.6641 54.0692 28.278C55.6729 28.278 57.2766 28.278 58.9289 28.278C58.9033 27.8688 58.8649 27.4603 58.8141 27.0535C57.2862 27.0535 55.7582 27.0535 54.184 27.0535ZM60.1534 27.0535C60.1534 27.4634 60.2152 27.8714 60.2682 28.278C61.6951 28.278 63.122 28.278 64.5922 28.278C64.509 27.8622 64.3763 27.4575 64.2478 27.0535C62.8966 27.0535 61.5455 27.0535 60.1534 27.0535ZM47.9085 29.579C47.757 30.0336 47.6054 30.4882 47.4493 30.9565C47.4014 31.099 47.3534 31.2415 47.304 31.3884C47.2612 31.5155 47.2612 31.5155 47.2185 31.6427C47.1994 31.6993 47.1803 31.7559 47.1611 31.8125C47.132 31.8983 47.1032 31.9841 47.0744 32.07C47.0658 32.0952 47.0572 32.1204 47.0483 32.1464C47.0129 32.2527 46.9901 32.3359 46.9901 32.4489C48.7327 32.4489 50.4753 32.4489 52.2707 32.4489C52.3596 31.7779 52.3596 31.7779 52.4386 31.1059C52.4447 31.0499 52.4447 31.0499 52.451 30.9929C52.4593 30.9162 52.4677 30.8396 52.4759 30.763C52.4886 30.6458 52.5015 30.5286 52.5144 30.4115C52.5227 30.336 52.5308 30.2606 52.539 30.1851C52.5448 30.1333 52.5448 30.1333 52.5506 30.0804C52.5541 30.048 52.5575 30.0156 52.5611 29.9822C52.5642 29.9541 52.5672 29.926 52.5704 29.8971C52.5781 29.7913 52.5768 29.685 52.5768 29.579C51.0363 29.579 49.4957 29.579 47.9085 29.579ZM53.9161 29.579C53.865 29.9116 53.8182 30.2418 53.7819 30.576C53.7769 30.6213 53.7719 30.6667 53.7668 30.7135C53.7564 30.8084 53.746 30.9034 53.7357 30.9984C53.72 31.1435 53.7039 31.2886 53.6879 31.4337C53.6778 31.5264 53.6676 31.6192 53.6575 31.712C53.6528 31.7551 53.648 31.7982 53.6431 31.8426C53.6387 31.8831 53.6344 31.9236 53.6299 31.9653C53.6241 32.0182 53.6241 32.0182 53.6182 32.0723C53.6088 32.1975 53.61 32.3233 53.61 32.4489C54.3929 32.4489 55.1758 32.4489 55.9825 32.4489C55.9951 32.3479 56.0077 32.2468 56.0207 32.1428C56.0985 32.065 56.2585 32.0951 56.3654 32.0931C56.3975 32.0924 56.4296 32.0916 56.4627 32.0908C56.5693 32.0884 56.676 32.0862 56.7826 32.084C56.8563 32.0824 56.93 32.0807 57.0038 32.079C57.1982 32.0746 57.3927 32.0705 57.5871 32.0664C57.7854 32.0622 57.9836 32.0577 58.1819 32.0533C58.5712 32.0446 58.9605 32.0362 59.3498 32.028C59.3282 31.7046 59.3026 31.3824 59.2673 31.0603C59.2632 31.0223 59.2591 30.9844 59.2549 30.9453C59.2463 30.8662 59.2377 30.7872 59.229 30.7082C59.2158 30.5872 59.2027 30.4661 59.1897 30.345C59.1813 30.2678 59.1729 30.1905 59.1645 30.1132C59.1587 30.0592 59.1587 30.0592 59.1527 30.004C59.1472 29.9538 59.1472 29.9538 59.1415 29.9025C59.1383 29.8732 59.1351 29.8439 59.1318 29.8137C59.1198 29.7193 59.1198 29.7193 59.082 29.579C57.3772 29.579 55.6725 29.579 53.9161 29.579ZM60.4212 29.579C60.4537 30.1025 60.4537 30.1025 60.5037 30.6237C60.5078 30.6607 60.5119 30.6978 60.5162 30.736C60.5247 30.813 60.5333 30.8899 60.542 30.9668C60.5553 31.0848 60.5683 31.2028 60.5813 31.3209C60.5897 31.3962 60.5981 31.4715 60.6066 31.5468C60.6105 31.582 60.6143 31.6171 60.6183 31.6533C60.622 31.6858 60.6257 31.7183 60.6295 31.7518C60.6327 31.7803 60.6359 31.8088 60.6392 31.8381C60.6499 31.9211 60.6499 31.9211 60.6891 32.028C60.7296 32.0275 60.7702 32.0271 60.8119 32.0267C61.1985 32.0228 61.5851 32.0199 61.9716 32.018C62.1703 32.0171 62.3689 32.0157 62.5675 32.0135C64.2839 31.9951 64.2839 31.9951 65.0513 32.2193C65.0781 32.2268 65.1048 32.2342 65.1323 32.2419C65.2774 32.283 65.4192 32.3302 65.5607 32.3819C65.6363 32.4085 65.7119 32.435 65.7875 32.4614C65.8349 32.4785 65.8349 32.4785 65.8832 32.496C65.9625 32.523 66.0412 32.5447 66.1228 32.5637C66.088 32.5282 66.0533 32.4926 66.0175 32.4561C65.9226 32.3449 65.867 32.246 65.8191 32.1081C65.8062 32.0709 65.7933 32.0337 65.78 31.9954C65.7092 31.7814 65.642 31.5665 65.5758 31.351C65.5607 31.302 65.5456 31.253 65.5304 31.2041C65.4911 31.0766 65.4518 30.9491 65.4125 30.8216C65.3569 30.6409 65.3012 30.4602 65.2454 30.2796C65.2158 30.1837 65.1862 30.0877 65.1568 29.9918C65.1435 29.9487 65.1302 29.9056 65.1165 29.8613C65.1048 29.8233 65.0931 29.7853 65.0811 29.7461C65.054 29.6562 65.054 29.6562 65.0131 29.579C63.4978 29.579 61.9825 29.579 60.4212 29.579ZM46.5309 33.7499C45.9277 35.1756 45.9277 35.1756 45.536 36.8494C47.5943 36.8494 49.6526 36.8494 51.7733 36.8494C51.8283 36.7394 51.8306 36.6337 51.844 36.5114C51.847 36.4845 51.85 36.4576 51.8531 36.4299C51.8629 36.3408 51.8726 36.2516 51.8822 36.1624C51.889 36.1004 51.8959 36.0385 51.9027 35.9765C51.9169 35.8464 51.9311 35.7163 51.9452 35.5862C51.9633 35.4198 51.9815 35.2534 51.9999 35.087C52.014 34.9589 52.028 34.8308 52.042 34.7027C52.0486 34.6414 52.0554 34.5801 52.0621 34.5187C52.0716 34.4328 52.0809 34.3468 52.0902 34.2608C52.0955 34.2119 52.1008 34.163 52.1063 34.1126C52.1166 33.9921 52.1177 33.8709 52.1177 33.7499C50.274 33.7499 48.4304 33.7499 46.5309 33.7499ZM53.457 33.7499C53.3963 34.1378 53.3963 34.1378 53.3471 34.5262C53.3418 34.5747 53.3364 34.6232 53.3309 34.6732C53.3254 34.7242 53.3199 34.7752 53.3144 34.8263C53.3085 34.8801 53.3026 34.9339 53.2967 34.9877C53.2844 35.0994 53.2723 35.2111 53.2602 35.3228C53.2447 35.4657 53.2291 35.6087 53.2134 35.7516C53.2012 35.8623 53.1892 35.9729 53.1771 36.0836C53.1714 36.1363 53.1656 36.1891 53.1598 36.2418C53.1518 36.3152 53.1439 36.3886 53.1359 36.462C53.1314 36.5037 53.1269 36.5454 53.1222 36.5883C53.1103 36.7037 53.1103 36.7037 53.1126 36.8494C54.0596 36.8494 55.0067 36.8494 55.9825 36.8494C55.9825 35.8266 55.9825 34.8037 55.9825 33.7499C55.149 33.7499 54.3156 33.7499 53.457 33.7499ZM47.985 38.1887C47.985 38.4838 48.0195 38.8148 48.2385 39.0377C48.3868 39.1508 48.4702 39.1502 48.6562 39.1506C48.6822 39.1507 48.7082 39.1508 48.735 39.1509C48.8225 39.1512 48.91 39.1513 48.9976 39.1513C49.0602 39.1515 49.1228 39.1517 49.1854 39.1519C49.3204 39.1524 49.4554 39.1527 49.5905 39.1529C49.804 39.1533 50.0175 39.1541 50.2311 39.155C50.8383 39.1573 51.4456 39.1594 52.0529 39.1607C52.3881 39.1614 52.7233 39.1625 53.0585 39.164C53.236 39.1648 53.4134 39.1654 53.5908 39.1655C53.7578 39.1656 53.9248 39.1662 54.0917 39.1672C54.153 39.1675 54.2142 39.1676 54.2754 39.1674C54.3592 39.1673 54.4428 39.1678 54.5265 39.1686C54.5968 39.1688 54.5968 39.1688 54.6684 39.169C54.861 39.191 54.9848 39.253 55.1143 39.3964C55.226 39.5578 55.2233 39.682 55.2239 39.8734C55.2242 39.9051 55.2244 39.9368 55.2247 39.9695C55.2254 40.0749 55.2259 40.1802 55.2263 40.2855C55.2264 40.3214 55.2266 40.3574 55.2267 40.3944C55.2275 40.5847 55.2281 40.7751 55.2284 40.9654C55.2289 41.1619 55.2302 41.3584 55.2317 41.5549C55.2327 41.7061 55.233 41.8572 55.2332 42.0084C55.2334 42.0808 55.2338 42.1532 55.2345 42.2257C55.2354 42.3272 55.2354 42.4286 55.2351 42.5301C55.2359 42.5748 55.2359 42.5748 55.2366 42.6205C55.2347 42.8185 55.1929 42.9284 55.0641 43.0866C54.9162 43.2166 54.7907 43.2421 54.5977 43.2517C54.3574 43.2732 54.1765 43.3232 54.0034 43.4971C53.7916 43.7577 53.7334 44.0214 53.6865 44.3494C55.0629 44.3494 56.4393 44.3494 57.8575 44.3494C57.7217 44.191 57.5893 44.0401 57.4461 43.8902C55.9892 42.2869 56.0171 40.2659 55.9825 38.1887C53.3433 38.1887 50.7041 38.1887 47.985 38.1887Z" fill="#154F55"/>
<path d="M61.5891 31.9852C61.8951 31.9818 62.2011 31.9791 62.5071 31.9774C62.6622 31.9765 62.8173 31.9753 62.9724 31.9733C63.685 31.9641 64.3567 31.9977 65.0506 32.1812C65.0768 32.1881 65.103 32.1949 65.13 32.202C65.2652 32.2382 65.3972 32.2803 65.5289 32.3271C65.5665 32.3401 65.604 32.3531 65.6427 32.3664C67.1223 32.8904 68.3155 33.9061 68.9951 35.3292C69.1432 35.6501 69.2705 35.9762 69.3674 36.3163C69.3779 36.3527 69.3779 36.3527 69.3886 36.3898C69.4122 36.4788 69.4315 36.5683 69.4511 36.6583C69.4654 36.7187 69.4654 36.7187 69.4799 36.7804C69.6071 37.3778 69.5814 37.9905 69.5788 38.5978C69.5782 38.76 69.5783 38.9221 69.5783 39.0842C69.5781 39.3556 69.5775 39.6269 69.5767 39.8983C69.5756 40.2469 69.5752 40.5955 69.575 40.9442C69.5749 41.2445 69.5744 41.5448 69.5738 41.8451C69.5737 41.9415 69.5736 42.038 69.5735 42.1344C69.5733 42.2853 69.5729 42.4361 69.5723 42.587C69.5722 42.6424 69.5721 42.6979 69.572 42.7534C69.572 42.8287 69.5716 42.9041 69.5713 42.9794C69.5712 43.0217 69.5711 43.0639 69.5709 43.1074C69.5659 43.2016 69.5659 43.2016 69.5277 43.2399C69.4448 43.2547 69.4448 43.2547 69.3363 43.2399C69.2479 43.1765 69.1719 43.1145 69.0924 43.0414C69.0446 42.999 68.9968 42.9565 68.949 42.9141C68.9123 42.8809 68.9123 42.8809 68.8748 42.8472C68.7566 42.7413 68.6362 42.638 68.516 42.5344C68.4684 42.4931 68.4207 42.4518 68.3731 42.4105C68.3493 42.3898 68.3254 42.3691 68.3008 42.3478C68.2232 42.2803 68.1457 42.2128 68.0682 42.1453C68.0293 42.1115 68.0293 42.1115 67.9896 42.077C67.9401 42.0339 67.8905 41.9907 67.841 41.9475C67.8186 41.928 67.7961 41.9085 67.773 41.8884C67.7534 41.8713 67.7338 41.8542 67.7136 41.8366C67.6522 41.7829 67.6522 41.7829 67.574 41.7382C67.4996 41.671 67.4996 41.671 67.4771 41.5781C67.4756 41.5402 67.474 41.5023 67.4724 41.4632C67.4703 41.4185 67.4682 41.3738 67.466 41.3278C67.4644 41.2764 67.4628 41.225 67.4613 41.1736C67.4592 41.1164 67.457 41.0593 67.4548 41.0021C67.4489 40.8385 67.4441 40.6749 67.4395 40.5113C67.4364 40.4016 67.4331 40.2919 67.4298 40.1823C67.4202 39.8707 67.4108 39.5592 67.4021 39.2476C67.3968 39.056 67.391 38.8644 67.3849 38.6728C67.3827 38.6006 67.3806 38.5285 67.3788 38.4563C67.3636 37.8731 67.3247 37.2802 67.1289 36.7252C67.1191 36.697 67.1093 36.6688 67.0993 36.6397C66.748 35.6701 66.023 35.0461 65.1152 34.6039C64.7139 34.4275 64.2532 34.2814 63.8139 34.2807C63.7407 34.2805 63.7407 34.2805 63.6661 34.2802C63.6123 34.2802 63.5586 34.2802 63.5048 34.2803C63.448 34.2802 63.3911 34.28 63.3343 34.2799C63.1802 34.2795 63.0262 34.2795 62.8721 34.2794C62.7435 34.2794 62.6149 34.2792 62.4863 34.2791C62.1832 34.2788 61.88 34.2787 61.5768 34.2787C61.2638 34.2788 60.9507 34.2784 60.6376 34.2778C60.3689 34.2773 60.1003 34.277 59.8316 34.2771C59.671 34.2771 59.5105 34.277 59.35 34.2766C59.1992 34.2762 59.0484 34.2762 58.8976 34.2765C58.8422 34.2765 58.7867 34.2764 58.7313 34.2762C58.6558 34.2759 58.5804 34.2761 58.5049 34.2764C58.4626 34.2763 58.4203 34.2763 58.3768 34.2763C58.2714 34.2758 58.2714 34.2758 58.2011 34.3624C58.1892 34.4568 58.1892 34.4568 58.1909 34.5686C58.1904 34.6343 58.1904 34.6343 58.1899 34.7013C58.19 34.7738 58.19 34.7738 58.19 34.8478C58.1898 34.899 58.1895 34.9502 58.1892 35.0015C58.1886 35.141 58.1884 35.2806 58.1883 35.4202C58.1883 35.5077 58.1881 35.5952 58.1879 35.6826C58.1872 35.9886 58.1869 36.2947 58.1869 36.6007C58.187 36.8844 58.1862 37.168 58.185 37.4517C58.184 37.6961 58.1836 37.9406 58.1836 38.185C58.1836 38.3306 58.1834 38.4761 58.1826 38.6217C58.1787 39.3678 58.2027 40.0745 58.4762 40.779C58.4874 40.8086 58.4987 40.8382 58.5103 40.8687C58.7013 41.3533 58.9597 41.7825 59.3108 42.1685C59.3346 42.1954 59.3585 42.2223 59.383 42.2501C59.9651 42.8724 60.8837 43.2905 61.7348 43.321C61.7791 43.321 61.8234 43.3209 61.869 43.3208C61.906 43.3208 61.906 43.3208 61.9437 43.3208C62.0243 43.3208 62.1048 43.3205 62.1853 43.3202C62.2416 43.3201 62.2978 43.3201 62.3541 43.32C62.5013 43.3199 62.6486 43.3195 62.7959 43.3191C62.9464 43.3187 63.097 43.3185 63.2476 43.3183C63.5425 43.3179 63.8374 43.3172 64.1322 43.3164C64.0246 43.2387 63.9169 43.1609 63.8092 43.0831C63.7792 43.0614 63.7493 43.0398 63.7184 43.0175C63.539 42.8879 63.3596 42.7585 63.1801 42.6293C63.0381 42.527 62.8964 42.4243 62.7547 42.3215C62.723 42.2986 62.6913 42.2756 62.6587 42.2519C62.5614 42.1812 62.4643 42.1103 62.3673 42.0393C62.3378 42.018 62.3084 41.9966 62.278 41.9745C61.7262 41.5695 61.7262 41.5695 61.645 41.3649C61.644 41.1298 61.7828 40.9803 61.92 40.8029C61.9687 40.7384 62.0173 40.6739 62.0659 40.6095C62.0911 40.5764 62.1162 40.5434 62.1422 40.5094C62.267 40.345 62.3902 40.1794 62.5131 40.0137C62.5356 39.9838 62.5581 39.9539 62.5813 39.9231C62.7503 39.7012 62.7503 39.7012 62.8695 39.4516C62.8372 39.2732 62.7614 39.1714 62.6375 39.0427C62.5131 38.91 62.3949 38.7757 62.2812 38.6337C62.1403 38.4595 61.9922 38.2947 61.8397 38.1308C61.6942 37.9735 61.5592 37.8092 61.4248 37.6423C61.3355 37.5343 61.2425 37.431 61.1476 37.3279C60.9905 37.1573 60.8431 36.981 60.6978 36.8003C60.5822 36.6608 60.4591 36.5291 60.3344 36.3977C60.2684 36.3151 60.2442 36.2641 60.2292 36.1608C60.4494 36.181 60.6173 36.2689 60.8103 36.3689C60.8444 36.3862 60.8785 36.4036 60.9136 36.4214C61.1535 36.5439 61.3914 36.67 61.6292 36.7966C61.9758 36.9797 62.3273 37.1532 62.6782 37.3279C63.4925 37.7335 63.4925 37.7335 63.8603 37.9315C64.0522 38.0341 64.2466 38.1307 64.4421 38.2263C64.4983 38.2538 64.5545 38.2814 64.6107 38.309C64.6948 38.3504 64.7791 38.3916 64.8636 38.4322C64.9425 38.4701 65.021 38.5086 65.0995 38.5472C65.1232 38.5584 65.1469 38.5696 65.1713 38.5811C65.3229 38.6564 65.4178 38.7353 65.5098 38.8777C65.5305 39.1358 65.3752 39.2984 65.2223 39.4936C64.9961 39.7832 64.7746 40.0767 64.5532 40.37C64.5227 40.4103 64.5227 40.4103 64.4917 40.4513C64.4414 40.5186 64.3918 40.5864 64.3427 40.6546C64.3163 40.6909 64.2898 40.7271 64.2626 40.7645C64.1991 40.8861 64.1925 40.9616 64.2088 41.0971C64.2704 41.173 64.3261 41.2259 64.4001 41.2884C64.4275 41.3136 64.455 41.3388 64.4832 41.3648C64.6956 41.5599 64.9157 41.744 65.1399 41.9254C65.2685 42.0298 65.3963 42.135 65.5241 42.2402C65.5521 42.2632 65.58 42.2862 65.6088 42.3099C65.7999 42.4674 65.9894 42.6266 66.1781 42.787C66.3741 42.9534 66.573 43.116 66.7726 43.2782C67.0191 43.4786 67.2635 43.6813 67.5057 43.8869C67.7056 44.0565 67.9084 44.2225 68.1118 44.3879C68.3602 44.5897 68.6065 44.7935 68.8495 45.0017C68.9985 45.1287 69.1523 45.2465 69.313 45.3586C69.3926 45.4393 69.4033 45.5009 69.4129 45.6124C69.3415 45.6837 69.2393 45.6557 69.1443 45.6563C69.1109 45.6563 69.0776 45.6563 69.0432 45.6563C69.008 45.6564 68.9728 45.6565 68.9365 45.6567C68.8176 45.6571 68.6986 45.6573 68.5797 45.6574C68.4948 45.6576 68.4099 45.6579 68.325 45.6582C68.0935 45.6588 67.8619 45.6592 67.6304 45.6595C67.4856 45.6597 67.3409 45.66 67.1961 45.6602C66.7949 45.6609 66.3938 45.6614 65.9926 45.6617C65.8884 45.6618 65.7841 45.6618 65.6799 45.6619C65.654 45.6619 65.6281 45.662 65.6015 45.662C65.1832 45.6623 64.765 45.6633 64.3468 45.6645C63.9168 45.6658 63.4869 45.6664 63.0569 45.6666C62.8158 45.6667 62.5746 45.667 62.3335 45.668C62.1061 45.6689 61.8787 45.669 61.6513 45.6686C61.5683 45.6686 61.4852 45.6689 61.4022 45.6694C60.7806 45.6731 60.2253 45.5998 59.6409 45.378C59.6112 45.3668 59.5815 45.3557 59.5509 45.3442C59.0166 45.1362 58.5315 44.8637 58.0863 44.5027C58.0273 44.4588 57.9683 44.415 57.9094 44.3711C56.764 43.4668 56.1643 41.9863 55.9901 40.5713C55.976 40.4248 55.9763 40.2789 55.9766 40.1318C55.9765 40.0804 55.9765 40.0804 55.9764 40.028C55.9761 39.9138 55.9761 39.7997 55.9762 39.6855C55.9761 39.6034 55.9759 39.5213 55.9758 39.4392C55.9755 39.2167 55.9754 38.9943 55.9753 38.7718C55.9753 38.5862 55.9752 38.4005 55.975 38.2149C55.9747 37.7772 55.9746 37.3396 55.9746 36.9019C55.9747 36.4499 55.9743 35.9978 55.9737 35.5458C55.9732 35.1579 55.973 34.7699 55.973 34.3819C55.973 34.1502 55.9729 33.9184 55.9725 33.6866C55.9721 33.4689 55.9721 33.2513 55.9724 33.0336C55.9724 32.9535 55.9723 32.8735 55.9721 32.7934C55.9718 32.6845 55.972 32.5757 55.9723 32.4668C55.9721 32.4348 55.9719 32.4027 55.9717 32.3698C55.973 32.1517 55.973 32.1517 56.0583 32.0664C56.1693 32.0546 56.1693 32.0546 56.3142 32.0514C56.3408 32.0507 56.3673 32.05 56.3946 32.0493C56.4838 32.0471 56.573 32.0455 56.6621 32.0439C56.7258 32.0425 56.7896 32.041 56.8533 32.0396C57.0602 32.0351 57.2671 32.0315 57.4741 32.0282C57.5082 32.0276 57.5424 32.0271 57.5776 32.0265C58.6499 32.0094 59.7223 32.0015 60.7947 31.9929C61.0595 31.9908 61.3243 31.9881 61.5891 31.9852Z" fill="#115056"/>
<path d="M28.2562 60.4831C28.3256 60.4829 28.3256 60.4829 28.3964 60.4826C28.5241 60.4823 28.6519 60.4825 28.7797 60.4829C28.9189 60.4833 29.0581 60.4829 29.1974 60.4827C29.4412 60.4823 29.685 60.4824 29.9288 60.4827C30.2914 60.4832 30.6539 60.4831 31.0165 60.4828C31.664 60.4824 32.3116 60.4826 32.9591 60.483C33.5257 60.4834 34.0924 60.4836 34.659 60.4836C34.7154 60.4836 34.7154 60.4836 34.7729 60.4836C34.9255 60.4835 35.078 60.4835 35.2306 60.4835C36.6618 60.4834 38.0929 60.4838 39.5241 60.4846C40.7957 60.4853 42.0674 60.4856 43.339 60.4854C43.4207 60.4853 43.5023 60.4853 43.584 60.4853C43.6446 60.4853 43.6446 60.4853 43.7064 60.4853C43.9096 60.4853 44.1128 60.4852 44.316 60.4852C44.3561 60.4852 44.3962 60.4852 44.4375 60.4852C45.5 60.485 46.5625 60.4852 47.625 60.4856C47.7393 60.4856 47.8536 60.4856 47.9679 60.4857C48.0438 60.4857 48.1196 60.4857 48.1954 60.4857C48.7242 60.4859 49.253 60.4859 49.7818 60.4859C50.4632 60.4858 51.1446 60.4859 51.826 60.4865C52.1864 60.4868 52.5468 60.4869 52.9072 60.4867C53.1479 60.4866 53.3885 60.4868 53.6292 60.4872C53.7664 60.4874 53.9035 60.4875 54.0407 60.4872C54.1884 60.487 54.3362 60.4873 54.484 60.4877C54.5265 60.4875 54.5691 60.4874 54.6129 60.4872C55.0358 60.4893 55.3679 60.5466 55.6831 60.8436C55.9855 61.1637 56.0445 61.4112 56.034 61.8511C56.0028 62.1808 55.8389 62.4174 55.6 62.6403C55.2715 62.8996 54.9313 62.9195 54.5263 62.9179C54.4571 62.9181 54.4571 62.9181 54.3865 62.9183C54.2584 62.9185 54.1304 62.9184 54.0023 62.9182C53.863 62.9181 53.7237 62.9183 53.5843 62.9186C53.3401 62.9189 53.096 62.919 52.8518 62.9188C52.4887 62.9186 52.1256 62.9188 51.7624 62.9192C51.0762 62.9197 50.39 62.9198 49.7037 62.9197C49.1738 62.9197 48.6439 62.9197 48.114 62.9199C48.0379 62.9199 47.9618 62.9199 47.8857 62.92C47.771 62.92 47.6564 62.92 47.5417 62.9201C46.4753 62.9204 45.4089 62.9205 44.3425 62.9204C44.3023 62.9204 44.2621 62.9204 44.2206 62.9204C44.0168 62.9203 43.813 62.9203 43.6092 62.9203C43.5687 62.9203 43.5283 62.9203 43.4866 62.9203C43.4047 62.9202 43.3229 62.9202 43.241 62.9202C41.9673 62.92 40.6936 62.9203 39.42 62.921C37.9892 62.9218 36.5585 62.9222 35.1277 62.9221C34.9752 62.922 34.8227 62.922 34.6701 62.922C34.6326 62.922 34.595 62.922 34.5563 62.922C33.9891 62.922 33.422 62.9222 32.8548 62.9226C32.2098 62.9231 31.5648 62.9231 30.9198 62.9227C30.5588 62.9224 30.1979 62.9225 29.8369 62.923C29.5957 62.9233 29.3546 62.9232 29.1134 62.9228C28.9761 62.9225 28.8387 62.9225 28.7013 62.9229C28.5532 62.9234 28.4051 62.923 28.2569 62.9225C28.2145 62.9228 28.172 62.923 28.1283 62.9233C27.6879 62.9203 27.3368 62.8362 27.0158 62.5255C26.7972 62.2982 26.7283 62.0102 26.6953 61.7028C26.7404 61.2817 26.8824 60.9635 27.2167 60.6935C27.5319 60.4961 27.8948 60.4807 28.2562 60.4831Z" fill="#165056"/>
<path d="M27.7896 54.5567C27.8295 54.5565 27.8693 54.5562 27.9104 54.556C27.954 54.5562 27.9976 54.5563 28.0425 54.5565C28.0891 54.5564 28.1357 54.5562 28.1838 54.5561C28.3137 54.5558 28.4436 54.5558 28.5735 54.556C28.7146 54.5562 28.8558 54.5558 28.9969 54.5556C29.2445 54.5552 29.492 54.5551 29.7396 54.5552C30.1077 54.5553 30.4758 54.555 30.8439 54.5546C31.5395 54.5538 32.2352 54.5536 32.9308 54.5536C33.468 54.5535 34.0051 54.5534 34.5422 54.5531C34.6967 54.5531 34.8512 54.553 35.0057 54.5529C35.0442 54.5529 35.0826 54.5529 35.1221 54.5529C36.2028 54.5524 37.2835 54.5521 38.3641 54.5521C38.4049 54.5521 38.4456 54.5521 38.4876 54.5521C38.6942 54.5521 38.9008 54.5521 39.1074 54.5522C39.1485 54.5522 39.1895 54.5522 39.2318 54.5522C39.3147 54.5522 39.3977 54.5522 39.4807 54.5522C40.7718 54.5522 42.063 54.5516 43.3541 54.5506C44.804 54.5494 46.254 54.5488 47.7039 54.5488C47.8584 54.5488 48.013 54.5488 48.1675 54.5488C48.2246 54.5488 48.2246 54.5488 48.2829 54.5488C48.8958 54.5488 49.5087 54.5484 50.1217 54.5477C50.7375 54.547 51.3533 54.547 51.9691 54.5475C52.3352 54.5478 52.7012 54.5476 53.0672 54.5469C53.3116 54.5464 53.556 54.5465 53.8004 54.5471C53.9397 54.5474 54.079 54.5474 54.2183 54.5468C54.3684 54.5461 54.5185 54.5467 54.6685 54.5473C54.7118 54.5469 54.755 54.5465 54.7996 54.5461C55.1745 54.5495 55.4471 54.6557 55.7225 54.9107C55.9867 55.2054 56.0347 55.4977 56.0315 55.882C56.0057 56.2133 55.8626 56.4655 55.6181 56.685C55.3046 56.9337 54.9393 56.9557 54.5532 56.9533C54.5068 56.9535 54.4604 56.9537 54.4125 56.9539C54.284 56.9543 54.1556 56.9541 54.0271 56.9538C53.8871 56.9535 53.7472 56.9539 53.6073 56.9543C53.3621 56.9547 53.117 56.9548 52.8719 56.9545C52.5074 56.9542 52.1429 56.9545 51.7784 56.9549C51.1273 56.9557 50.4763 56.9558 49.8252 56.9556C49.2555 56.9554 48.6857 56.9554 48.116 56.9556C48.0395 56.9557 47.9631 56.9557 47.8867 56.9557C47.7715 56.9558 47.6564 56.9558 47.5412 56.9559C46.4706 56.9563 45.4 56.9565 44.3294 56.9562C44.289 56.9561 44.2487 56.9561 44.2071 56.9561C43.8794 56.956 43.5516 56.9559 43.2239 56.9558C41.9453 56.9554 40.6667 56.9558 39.3881 56.9566C37.9517 56.9576 36.5153 56.9581 35.0788 56.9579C34.9257 56.9578 34.7726 56.9578 34.6194 56.9578C34.5817 56.9578 34.544 56.9578 34.5052 56.9578C33.9358 56.9577 33.3664 56.958 32.797 56.9585C32.1496 56.9591 31.5022 56.9591 30.8547 56.9584C30.4924 56.958 30.13 56.9581 29.7677 56.9588C29.5256 56.9592 29.2836 56.959 29.0415 56.9584C28.9036 56.9581 28.7658 56.958 28.6279 56.9586C28.4792 56.9592 28.3305 56.9586 28.1818 56.9579C28.1392 56.9583 28.0966 56.9587 28.0527 56.9591C27.6463 56.9553 27.3096 56.8509 27.0135 56.5671C26.7967 56.3123 26.6952 56.0187 26.7014 55.685C26.7303 55.3792 26.8505 55.1022 27.0539 54.8725C27.2733 54.6918 27.5002 54.5568 27.7896 54.5567Z" fill="#165056"/>
<path d="M27.7811 48.9315C27.8069 48.9314 27.8327 48.9313 27.8592 48.9311C27.9453 48.9308 28.0313 48.931 28.1173 48.9312C28.1798 48.931 28.2422 48.9308 28.3046 48.9306C28.476 48.9302 28.6473 48.9302 28.8187 48.9303C29.0036 48.9303 29.1885 48.9299 29.3734 48.9295C29.7355 48.9289 30.0977 48.9286 30.4598 48.9286C30.7542 48.9286 31.0486 48.9284 31.343 48.9282C32.1779 48.9275 33.0127 48.9271 33.8475 48.9272C33.8925 48.9272 33.9375 48.9272 33.9839 48.9272C34.0514 48.9272 34.0514 48.9272 34.1204 48.9272C34.8506 48.9272 35.5807 48.9265 36.3109 48.9254C37.0607 48.9243 37.8105 48.9238 38.5604 48.9239C38.9813 48.9239 39.4022 48.9237 39.8232 48.9229C40.1815 48.9222 40.5399 48.922 40.8983 48.9225C41.0811 48.9228 41.2639 48.9228 41.4467 48.9221C41.6142 48.9215 41.7817 48.9216 41.9492 48.9223C42.0096 48.9224 42.0701 48.9223 42.1305 48.9218C42.5529 48.919 42.9319 48.9408 43.2565 49.2379C43.5399 49.5487 43.6024 49.8681 43.5946 50.2772C43.5802 50.5878 43.4534 50.8306 43.242 51.0552C42.9598 51.2962 42.6531 51.3568 42.2906 51.357C42.2652 51.3571 42.2399 51.3572 42.2138 51.3572C42.1289 51.3574 42.044 51.3573 41.9591 51.3572C41.8976 51.3573 41.8361 51.3574 41.7746 51.3575C41.6056 51.3577 41.4367 51.3577 41.2677 51.3577C41.0854 51.3577 40.9032 51.3579 40.7209 51.358C40.3639 51.3584 40.0068 51.3585 39.6498 51.3585C39.3596 51.3585 39.0694 51.3586 38.7792 51.3587C37.9564 51.359 37.1337 51.3592 36.311 51.3592C36.2666 51.3592 36.2223 51.3592 36.1766 51.3592C36.1099 51.3592 36.1099 51.3592 36.042 51.3592C35.3222 51.3592 34.6024 51.3595 33.8825 51.3601C33.1435 51.3606 32.4045 51.3609 31.6655 51.3609C31.2505 51.3608 30.8356 51.3609 30.4207 51.3614C30.0674 51.3617 29.7141 51.3618 29.3608 51.3615C29.1806 51.3614 29.0004 51.3614 28.8202 51.3617C28.6551 51.362 28.49 51.362 28.325 51.3616C28.2653 51.3616 28.2057 51.3617 28.1461 51.3619C27.6793 51.3634 27.2734 51.3526 26.9123 51.0256C26.6721 50.7705 26.5857 50.4935 26.5752 50.1467C26.588 49.7355 26.7163 49.4529 27.0152 49.171C27.2503 48.9849 27.4848 48.9319 27.7811 48.9315Z" fill="#165056"/>
<path d="M27.8501 43.3352C27.9038 43.335 27.9575 43.3347 28.0113 43.3344C28.1583 43.3338 28.3054 43.3341 28.4524 43.3346C28.6112 43.3349 28.77 43.3344 28.9288 43.334C29.2397 43.3333 29.5506 43.3335 29.8615 43.3339C30.1142 43.3342 30.3668 43.3343 30.6195 43.3341C30.6555 43.3341 30.6915 43.3341 30.7285 43.334C30.8016 43.334 30.8747 43.334 30.9478 43.3339C31.633 43.3335 32.3182 43.334 33.0034 43.3348C33.5912 43.3355 34.179 43.3354 34.7668 43.3346C35.4496 43.3338 36.1324 43.3335 36.8151 43.334C36.888 43.334 36.9608 43.3341 37.0336 43.3341C37.0873 43.3342 37.0873 43.3342 37.1422 43.3342C37.3945 43.3343 37.6469 43.3341 37.8992 43.3337C38.2068 43.3333 38.5144 43.3334 38.8219 43.3342C38.9788 43.3346 39.1357 43.3348 39.2926 43.3343C39.4363 43.3338 39.58 43.3341 39.7237 43.3349C39.8002 43.3352 39.8766 43.3347 39.9531 43.3341C40.2663 43.3369 40.4721 43.3739 40.7209 43.5748C41.0121 43.9085 41.093 44.2628 41.073 44.6988C41.0394 45.0465 40.918 45.2817 40.6873 45.5405C40.4176 45.761 40.1421 45.7434 39.8076 45.7419C39.7539 45.742 39.7002 45.7423 39.6466 45.7425C39.4994 45.7431 39.3523 45.7429 39.2051 45.7426C39.0463 45.7424 38.8875 45.7429 38.7287 45.7433C38.4176 45.744 38.1066 45.744 37.7956 45.7438C37.5428 45.7436 37.29 45.7437 37.0372 45.7439C37.0012 45.7439 36.9653 45.744 36.9282 45.744C36.8551 45.744 36.782 45.7441 36.7089 45.7442C36.0234 45.7447 35.338 45.7445 34.6525 45.744C34.0255 45.7437 33.3984 45.7442 32.7714 45.7451C32.1274 45.746 31.4835 45.7464 30.8395 45.7461C30.478 45.746 30.1166 45.7461 29.7551 45.7467C29.4474 45.7473 29.1396 45.7473 28.8319 45.7467C28.675 45.7463 28.518 45.7463 28.361 45.7468C28.2172 45.7474 28.0735 45.7472 27.9297 45.7464C27.8532 45.7462 27.7767 45.7468 27.7002 45.7473C27.3868 45.7448 27.1811 45.7079 26.9322 45.5069C26.641 45.1731 26.5604 44.819 26.5799 44.383C26.6116 44.0588 26.7189 43.8192 26.9322 43.5748C27.2253 43.3381 27.4853 43.3327 27.8501 43.3352Z" fill="#165056"/>
<path d="M34.7715 28.2517C35.5208 28.8888 35.987 29.767 36.0748 30.7476C36.1187 31.3904 36.0122 32.0018 35.7346 32.5846C35.6971 32.6921 35.7029 32.7263 35.7401 32.8316C35.8171 32.9185 35.8944 32.9992 35.9774 33.08C36.0145 33.1169 36.0145 33.1169 36.0524 33.1546C36.1062 33.208 36.1602 33.2612 36.2143 33.3144C36.2999 33.3986 36.3852 33.4831 36.4705 33.5678C36.6823 33.7781 36.8947 33.9877 37.1071 34.1974C37.2865 34.3744 37.4655 34.5517 37.6443 34.7293C37.7282 34.8125 37.8124 34.8953 37.8966 34.978C37.9484 35.0293 38.0001 35.0807 38.0518 35.132C38.0751 35.1548 38.0985 35.1775 38.1226 35.201C38.2903 35.3687 38.4351 35.5386 38.4773 35.779C38.4732 36.1618 38.3852 36.3512 38.1245 36.6294C37.9072 36.8365 37.7062 36.9656 37.4023 36.9833C37.0808 36.9619 36.8658 36.7731 36.6492 36.5514C36.6234 36.5256 36.5976 36.4999 36.571 36.4733C36.4866 36.3888 36.4027 36.3037 36.3189 36.2186C36.2601 36.1596 36.2014 36.1006 36.1426 36.0417C35.9885 35.887 35.8349 35.7319 35.6814 35.5767C35.5244 35.4182 35.367 35.2601 35.2096 35.1019C34.9013 34.792 34.5935 34.4816 34.286 34.1708C34.2466 34.1868 34.2072 34.2027 34.1666 34.2191C34.1144 34.2401 34.0622 34.2611 34.0099 34.2821C33.984 34.2926 33.9581 34.3031 33.9314 34.3139C33.0498 34.6681 32.0526 34.664 31.1721 34.3075C30.6875 34.0995 30.2977 33.8125 29.9238 33.4438C29.8817 33.4025 29.8817 33.4025 29.8389 33.3604C29.2783 32.7709 28.9713 31.9533 28.9289 31.1479C28.9265 31.1041 28.9265 31.1041 28.9241 31.0594C28.8993 30.1186 29.2457 29.2574 29.8472 28.5458C29.8688 28.5204 29.8903 28.4949 29.9124 28.4687C31.1884 27.0896 33.3676 27.1506 34.7715 28.2517ZM30.5166 29.3056C30.0744 29.8697 29.8803 30.5104 29.9238 31.2244C30.0294 31.9765 30.377 32.5717 30.9569 33.0611C31.606 33.5215 32.3058 33.634 33.0853 33.5423C33.5489 33.4398 33.9785 33.1902 34.3243 32.8698C34.3642 32.833 34.3642 32.833 34.405 32.7954C34.8487 32.3431 35.08 31.6756 35.0992 31.0522C35.0891 30.3816 34.8505 29.7714 34.4008 29.2729C34.3819 29.2504 34.3629 29.228 34.3434 29.2049C33.955 28.7766 33.3362 28.4675 32.7583 28.4257C31.8905 28.3865 31.1065 28.6339 30.5166 29.3056Z" fill="#115056"/>
<path d="M56.4414 44.3495C56.6448 44.3399 56.8481 44.3331 57.0517 44.3285C57.1207 44.3266 57.1897 44.324 57.2586 44.3206C57.6662 44.3014 57.9574 44.3061 58.2725 44.5842C58.3256 44.6333 58.3784 44.6827 58.4312 44.7322C58.5274 44.799 58.627 44.8561 58.7301 44.9115C58.7556 44.9254 58.781 44.9393 58.8071 44.9536C59.3919 45.2678 59.9992 45.482 60.6506 45.6123C60.6506 45.6249 60.6506 45.6375 60.6506 45.6505C60.4357 45.6563 60.2209 45.6604 60.006 45.6631C59.9333 45.6643 59.8605 45.6658 59.7878 45.6679C58.6231 45.6993 57.4588 45.1936 56.5562 44.4643C56.5176 44.4263 56.4793 44.3881 56.4414 44.3495Z" fill="#042B2B"/>
<path d="M55.3701 36.8496C55.5722 36.8496 55.7742 36.8496 55.9824 36.8496C55.9824 37.2789 55.9824 37.7083 55.9824 38.1506C55.7803 38.1506 55.5783 38.1506 55.3701 38.1506C55.3701 37.7213 55.3701 37.292 55.3701 36.8496Z" fill="#032B2B"/>
<path d="M55.3701 32.449C55.5722 32.449 55.7742 32.449 55.9824 32.449C55.9824 32.8783 55.9824 33.3076 55.9824 33.75C55.7803 33.75 55.5783 33.75 55.3701 33.75C55.3701 33.3207 55.3701 32.8913 55.3701 32.449Z" fill="#032B2B"/>
</svg>
