<svg width="90" height="94" viewBox="0 0 90 94" fill="none" xmlns="http://www.w3.org/2000/svg">
<rect width="90" height="93.6315" rx="10" fill="white"/>
<rect x="0.5" y="0.5" width="89" height="92.6315" rx="9.5" stroke="#115056" stroke-opacity="0.15"/>
<path d="M25.8369 20.684C25.898 20.6838 25.898 20.6838 25.9603 20.6837C26.0962 20.6835 26.232 20.6836 26.3679 20.6836C26.4665 20.6835 26.5651 20.6834 26.6638 20.6832C26.906 20.683 27.1482 20.6829 27.3905 20.6828C27.6808 20.6828 27.9711 20.6825 28.2614 20.6823C28.9627 20.6816 29.664 20.6814 30.3653 20.6812C30.6972 20.6811 31.029 20.6809 31.3608 20.6808C32.497 20.6803 33.6332 20.6798 34.7694 20.6797C34.8406 20.6797 34.9119 20.6797 34.9832 20.6797C35.0546 20.6797 35.126 20.6796 35.1974 20.6796C35.3407 20.6796 35.484 20.6796 35.6273 20.6796C35.6629 20.6796 35.6984 20.6796 35.735 20.6796C36.8878 20.6794 38.0406 20.6788 39.1933 20.6778C40.4126 20.6768 41.6318 20.6763 42.8511 20.6762C42.9849 20.6762 43.1187 20.6762 43.2525 20.6762C43.2855 20.6762 43.3184 20.6762 43.3524 20.6762C43.8826 20.6762 44.4128 20.6757 44.943 20.6751C45.4757 20.6746 46.0085 20.6744 46.5412 20.6747C46.8577 20.6749 47.1741 20.6748 47.4906 20.6741C47.7269 20.6737 47.9631 20.6739 48.1994 20.6743C48.295 20.6744 48.3906 20.6743 48.4862 20.6739C48.6161 20.6735 48.746 20.6738 48.8759 20.6743C48.9131 20.674 48.9502 20.6737 48.9885 20.6733C49.3886 20.6766 49.7297 20.7729 50.0237 21.0524C50.2977 21.3469 50.4146 21.6662 50.4006 22.0681C50.3549 22.4484 50.1896 22.7378 49.9026 22.9892C49.5818 23.2081 49.2225 23.2434 48.8446 23.2414C48.7836 23.2416 48.7836 23.2416 48.7214 23.2418C48.5849 23.242 48.4485 23.2417 48.3121 23.2415C48.2134 23.2415 48.1146 23.2417 48.0159 23.2418C47.8012 23.2421 47.5864 23.2421 47.3717 23.2419C47.0523 23.2416 46.733 23.2417 46.4136 23.242C45.8762 23.2424 45.3388 23.2425 44.8015 23.2424C44.0335 23.2422 43.2655 23.2428 42.4976 23.2435C42.1893 23.2437 41.8811 23.244 41.5728 23.2442C41.5214 23.2443 41.5214 23.2443 41.469 23.2443C40.6539 23.245 39.8387 23.2454 39.0236 23.2458C38.988 23.2458 38.9523 23.2458 38.9155 23.2458C38.0836 23.2462 37.2517 23.2465 36.4198 23.2466C36.3662 23.2466 36.3662 23.2466 36.3114 23.2466C36.1311 23.2466 35.9507 23.2466 35.7703 23.2466C35.7347 23.2467 35.699 23.2467 35.6623 23.2467C35.5903 23.2467 35.5184 23.2467 35.4464 23.2467C34.2572 23.2468 33.0679 23.2475 31.8786 23.2488C31.7106 23.249 31.5426 23.2491 31.3746 23.2493C31.3415 23.2493 31.3085 23.2494 31.2744 23.2494C30.7427 23.2499 30.2109 23.2498 29.6792 23.2495C29.1446 23.2492 28.61 23.2495 28.0754 23.2503C27.758 23.2508 27.4406 23.2508 27.1231 23.2502C26.8859 23.2498 26.6486 23.2502 26.4113 23.251C26.3155 23.2512 26.2197 23.2511 26.1239 23.2507C25.2526 23.2473 24.5527 23.3662 23.9066 24.0013C23.5016 24.434 23.2649 24.9972 23.2666 25.5896C23.2665 25.6347 23.2665 25.6347 23.2664 25.6808C23.2662 25.7821 23.2663 25.8834 23.2664 25.9848C23.2664 26.0583 23.2663 26.1317 23.2661 26.2052C23.2659 26.4083 23.2659 26.6114 23.2659 26.8145C23.2659 27.0351 23.2657 27.2556 23.2655 27.4761C23.2651 27.9141 23.2649 28.352 23.2648 28.7899C23.2647 29.3142 23.2644 29.8385 23.264 30.3629C23.2632 31.6303 23.2627 32.8977 23.2624 34.1652C23.2623 34.5849 23.2621 35.0046 23.262 35.4243C23.262 35.4687 23.262 35.4687 23.262 35.514C23.2619 35.6338 23.2619 35.7536 23.2618 35.8734C23.2611 37.9224 23.2605 39.9713 23.2602 42.0203C23.2602 42.1812 23.2601 42.3422 23.2601 42.5031C23.2601 42.551 23.2601 42.551 23.2601 42.5999C23.26 42.9234 23.26 43.2469 23.2599 43.5703C23.2599 43.6352 23.2599 43.7001 23.2599 43.7649C23.2596 45.8478 23.2587 47.9307 23.2574 50.0137C23.2564 51.5102 23.2556 53.0068 23.2553 54.5033C23.2553 54.5341 23.2553 54.5649 23.2553 54.5966C23.2551 55.2723 23.2551 55.948 23.255 56.6237C23.255 56.8955 23.255 57.1674 23.255 57.4393C23.255 57.4691 23.255 57.4988 23.255 57.5295C23.2549 58.4878 23.2543 59.4462 23.2535 60.4046C23.2526 61.37 23.2523 62.3354 23.2527 63.3008C23.2529 63.8997 23.2528 64.4987 23.2518 65.0977C23.2513 65.4797 23.2513 65.8618 23.2518 66.2439C23.2521 66.4616 23.2521 66.6794 23.2515 66.8971C23.2508 67.0954 23.251 67.2936 23.2517 67.4918C23.2518 67.563 23.2517 67.6341 23.2512 67.7052C23.2466 68.4951 23.4339 69.1476 24.0014 69.725C24.4125 70.1097 24.966 70.3645 25.533 70.365C25.5824 70.3651 25.6317 70.3653 25.6825 70.3654C25.7373 70.3654 25.792 70.3653 25.8467 70.3653C25.9051 70.3654 25.9635 70.3655 26.0219 70.3656C26.1831 70.3659 26.3443 70.3659 26.5055 70.3659C26.6806 70.366 26.8557 70.3663 27.0308 70.3665C27.3784 70.3669 27.726 70.3672 28.0737 70.3673C28.4899 70.3675 28.9062 70.368 29.3224 70.3684C30.3287 70.3694 31.3349 70.37 32.3411 70.3706C32.6744 70.3707 33.0077 70.3709 33.3409 70.3711C35.1127 70.3721 36.8845 70.373 38.6563 70.3735C39.0669 70.3736 39.4774 70.3738 39.888 70.3739C39.939 70.3739 39.99 70.3739 40.0425 70.3739C41.6962 70.3744 43.3499 70.3757 45.0036 70.3774C46.7036 70.3791 48.4035 70.3802 50.1034 70.3804C50.3435 70.3804 50.5836 70.3804 50.8237 70.3805C50.8709 70.3805 50.9182 70.3805 50.9669 70.3805C51.7273 70.3806 52.4878 70.3815 53.2483 70.3825C54.0127 70.3836 54.7772 70.3839 55.5417 70.3834C55.9958 70.3832 56.4499 70.3835 56.904 70.3846C57.2075 70.3853 57.511 70.3853 57.8145 70.3847C57.9874 70.3843 58.1602 70.3843 58.333 70.3852C58.4906 70.386 58.6481 70.3858 58.8057 70.3849C58.8884 70.3847 58.971 70.3855 59.0537 70.3863C59.6248 70.381 60.137 70.2223 60.5953 69.8756C60.6247 69.8536 60.654 69.8316 60.6842 69.8089C61.1741 69.4115 61.4213 68.8308 61.5234 68.2212C61.5393 68.0085 61.5395 67.7968 61.5384 67.5836C61.5385 67.5207 61.5386 67.4579 61.5388 67.395C61.5392 67.2236 61.5389 67.0522 61.5385 66.8808C61.5381 66.6954 61.5384 66.51 61.5387 66.3246C61.5391 66.0038 61.539 65.683 61.5387 65.3622C61.5382 64.8978 61.5386 64.4335 61.5392 63.9691C61.5402 63.215 61.5407 62.4609 61.5409 61.7068C61.5409 61.6392 61.5409 61.6392 61.5409 61.5702C61.541 61.0671 61.541 60.564 61.541 60.0609C61.541 59.8784 61.541 59.6958 61.5409 59.5133C61.5409 59.4682 61.5409 59.4232 61.5409 59.3767C61.5409 58.6253 61.5415 57.8738 61.5426 57.1223C61.5432 56.6592 61.5433 56.1961 61.5427 55.7329C61.5423 55.4157 61.5425 55.0984 61.5432 54.7811C61.5435 54.5981 61.5436 54.4152 61.543 54.2323C61.5424 54.0646 61.5426 53.897 61.5434 53.7293C61.5435 53.6689 61.5434 53.6084 61.543 53.5479C61.5398 53.0784 61.5906 52.6652 61.9269 52.3123C62.2435 52.0395 62.5433 51.9854 62.9514 51.9896C63.2711 52.0138 63.5196 52.1433 63.7524 52.361C63.9644 52.6107 64.0703 52.9005 64.0708 53.2243C64.0709 53.2504 64.071 53.2765 64.0711 53.3035C64.0714 53.3916 64.0713 53.4798 64.0713 53.5679C64.0715 53.6315 64.0716 53.6951 64.0718 53.7587C64.0722 53.934 64.0723 54.1093 64.0724 54.2846C64.0726 54.4735 64.073 54.6624 64.0733 54.8513C64.0741 55.3079 64.0745 55.7645 64.0749 56.2212C64.0751 56.4363 64.0753 56.6515 64.0755 56.8667C64.0762 57.5823 64.0768 58.2979 64.0771 59.0136C64.0771 59.1994 64.0772 59.3852 64.0773 59.571C64.0773 59.6171 64.0773 59.6633 64.0774 59.7109C64.0777 60.4577 64.0787 61.2046 64.08 61.9515C64.0814 62.7188 64.0821 63.486 64.0822 64.2533C64.0823 64.6839 64.0827 65.1145 64.0837 65.5451C64.0846 65.9121 64.0849 66.2791 64.0845 66.6461C64.0843 66.8331 64.0844 67.0201 64.0852 67.2071C64.0909 68.6473 64.0909 68.6473 63.904 69.3107C63.8925 69.3522 63.8925 69.3522 63.8808 69.3946C63.6596 70.1882 63.2143 70.8541 62.6531 71.4492C62.6264 71.479 62.5997 71.5088 62.5721 71.5395C61.7641 72.4044 60.5445 72.8599 59.3848 72.9421C59.192 72.9477 58.9994 72.9476 58.8065 72.9473C58.7483 72.9474 58.6901 72.9475 58.6319 72.9475C58.4722 72.9477 58.3124 72.9477 58.1527 72.9476C57.9788 72.9475 57.805 72.9477 57.6311 72.9478C57.3265 72.948 57.0218 72.9481 56.7172 72.948C56.2641 72.948 55.8111 72.9481 55.358 72.9484C54.5018 72.9487 53.6456 72.9489 52.7893 72.9489C52.128 72.9489 51.4668 72.949 50.8055 72.9491C50.6152 72.9491 50.4248 72.9492 50.2345 72.9492C50.1872 72.9492 50.1399 72.9492 50.0911 72.9492C48.7601 72.9495 47.4291 72.9496 46.0981 72.9496C46.0479 72.9496 45.9977 72.9496 45.946 72.9496C45.6916 72.9496 45.4373 72.9496 45.1829 72.9496C45.1071 72.9496 45.1071 72.9496 45.0298 72.9496C44.9277 72.9496 44.8255 72.9496 44.7233 72.9496C43.134 72.9496 41.5447 72.9499 39.9554 72.9504C38.1699 72.9511 36.3843 72.9514 34.5988 72.9514C34.4083 72.9514 34.2179 72.9514 34.0275 72.9514C33.9806 72.9514 33.9337 72.9514 33.8854 72.9514C33.1311 72.9514 32.3767 72.9516 31.6224 72.952C30.8642 72.9523 30.1059 72.9523 29.3477 72.9521C28.8973 72.9519 28.447 72.952 27.9967 72.9524C27.6956 72.9526 27.3946 72.9526 27.0935 72.9523C26.9221 72.9521 26.7508 72.9521 26.5794 72.9524C25.0782 72.9551 23.64 72.8065 22.4649 71.772C22.4323 71.7448 22.3998 71.7176 22.3663 71.6896C21.3903 70.851 20.8087 69.6329 20.6976 68.3566C20.6804 68.0713 20.6838 67.7855 20.6842 67.4997C20.6841 67.4264 20.684 67.3531 20.6839 67.2797C20.6837 67.0782 20.6837 66.8766 20.6838 66.675C20.6838 66.4557 20.6836 66.2364 20.6834 66.0171C20.6831 65.5822 20.683 65.1472 20.683 64.7123C20.683 64.1913 20.6827 63.6703 20.6824 63.1494C20.6818 61.9201 20.6816 60.6909 20.6814 59.4616C20.6813 58.836 20.6811 58.2105 20.681 57.5849C20.6805 55.5776 20.68 53.5704 20.6799 51.5631C20.6799 51.4672 20.6799 51.3713 20.6799 51.2754C20.6799 51.0831 20.6798 50.8907 20.6798 50.6984C20.6798 50.4732 20.6798 50.248 20.6798 50.0229C20.6798 49.9584 20.6798 49.894 20.6798 49.8295C20.6796 47.76 20.679 45.6904 20.6781 43.6209C20.6774 42.1336 20.6768 40.6462 20.6766 39.1588C20.6766 39.1282 20.6766 39.0976 20.6766 39.0661C20.6765 38.3942 20.6764 37.7223 20.6764 37.0504C20.6764 36.81 20.6764 36.5695 20.6764 36.3291C20.6764 36.2693 20.6764 36.2094 20.6764 36.1496C20.6764 35.1975 20.676 34.2454 20.6754 33.2933C20.6748 32.3072 20.6746 31.3212 20.6749 30.3351C20.6751 29.7669 20.675 29.1987 20.6743 28.6306C20.6739 28.2507 20.674 27.8709 20.6744 27.4911C20.6746 27.2749 20.6746 27.0587 20.6741 26.8424C20.6737 26.6453 20.6738 26.4481 20.6743 26.2509C20.6744 26.1805 20.6743 26.11 20.674 26.0396C20.6711 25.3874 20.7134 24.707 20.9366 24.0887C20.9487 24.0542 20.9607 24.0196 20.9731 23.984C21.4196 22.7517 22.334 21.7386 23.5161 21.1744C24.2644 20.8306 25.0155 20.6824 25.8369 20.684Z" fill="#165056"/>
<path d="M51.0418 27.4113C51.105 27.4106 51.105 27.4106 51.1695 27.4098C51.2148 27.4099 51.2601 27.41 51.3068 27.4101C51.3536 27.4099 51.4003 27.4097 51.4485 27.4095C51.5474 27.4092 51.6462 27.4093 51.7451 27.4096C51.8964 27.41 52.0476 27.4088 52.1988 27.4075C52.2949 27.4075 52.391 27.4075 52.487 27.4076C52.5323 27.4072 52.5775 27.4067 52.6241 27.4062C52.9378 27.4091 52.9378 27.4091 53.0973 27.5045C53.2285 27.6558 53.2153 27.7595 53.2135 27.9572C53.2131 28.0089 53.2127 28.0606 53.2124 28.1139C53.2119 28.1537 53.2114 28.1936 53.211 28.2346C53.2442 28.2346 53.2774 28.2345 53.3116 28.2345C55.2794 28.2318 57.2471 28.2297 59.2148 28.2285C59.4509 28.2283 59.6871 28.2281 59.9232 28.228C59.9702 28.228 60.0172 28.2279 60.0656 28.2279C60.8274 28.2274 61.5891 28.2264 62.3509 28.2253C63.1322 28.2242 63.9135 28.2235 64.6948 28.2232C65.1771 28.2231 65.6594 28.2226 66.1417 28.2216C66.4722 28.2209 66.8027 28.2207 67.1332 28.2209C67.324 28.221 67.5148 28.2209 67.7057 28.2202C67.8803 28.2196 68.0549 28.2196 68.2295 28.22C68.2927 28.2201 68.356 28.2199 68.4193 28.2195C68.5051 28.219 68.5909 28.2193 68.6768 28.2197C68.7245 28.2197 68.7722 28.2196 68.8214 28.2196C68.9979 28.2407 69.1037 28.305 69.2212 28.4363C69.2965 28.6228 69.2874 28.8032 69.2862 29.0025C69.2863 29.0457 69.2864 29.0888 69.2866 29.1332C69.2866 29.2242 69.2864 29.3153 69.2859 29.4063C69.2853 29.5455 69.2859 29.6847 69.2867 29.8239C69.2866 29.9124 69.2864 30.0009 69.2862 30.0895C69.2865 30.131 69.2867 30.1726 69.287 30.2154C69.2833 30.5857 69.2833 30.5857 69.1491 30.7363C69.0081 30.8282 68.8873 30.8271 68.7214 30.8269C68.6946 30.827 68.6678 30.8271 68.6402 30.8272C68.5499 30.8274 68.4596 30.8271 68.3693 30.8267C68.3041 30.8268 68.2389 30.8268 68.1737 30.8269C67.9942 30.8271 67.8147 30.8268 67.6351 30.8264C67.4417 30.826 67.2482 30.8262 67.0547 30.8262C66.7194 30.8263 66.3841 30.826 66.0488 30.8255C65.564 30.8249 65.0793 30.8247 64.5945 30.8246C63.808 30.8244 63.0215 30.8239 62.235 30.8231C61.4709 30.8224 60.7067 30.8218 59.9426 30.8214C59.8956 30.8214 59.8485 30.8214 59.8 30.8214C59.5638 30.8213 59.3276 30.8212 59.0914 30.8211C57.1312 30.8202 55.1711 30.8188 53.211 30.817C53.211 30.8524 53.2111 30.8877 53.2111 30.9242C53.2148 33.0182 53.2175 35.1123 53.2192 37.2064C53.2194 37.4577 53.2196 37.7089 53.2198 37.9602C53.2199 38.0102 53.2199 38.0603 53.2199 38.1118C53.2207 38.9225 53.2219 39.7332 53.2234 40.5439C53.2249 41.3753 53.2258 42.2067 53.2261 43.0382C53.2264 43.5515 53.2271 44.0648 53.2284 44.5781C53.2292 44.9298 53.2295 45.2815 53.2293 45.6331C53.2292 45.8362 53.2293 46.0393 53.2302 46.2424C53.231 46.4282 53.231 46.614 53.2305 46.7998C53.2304 46.8672 53.2306 46.9345 53.2311 47.0019C53.2318 47.0932 53.2314 47.1845 53.2308 47.2758C53.2309 47.3266 53.2309 47.3774 53.231 47.4297C53.2073 47.5861 53.1597 47.6525 53.0496 47.7639C52.9481 47.8146 52.8765 47.8105 52.7629 47.812C52.6984 47.813 52.6984 47.813 52.6327 47.814C52.4361 47.8158 52.2395 47.8174 52.0429 47.8184C51.9392 47.819 51.8354 47.8201 51.7317 47.8217C51.5823 47.8239 51.4329 47.8248 51.2835 47.8254C51.2371 47.8263 51.1907 47.8272 51.143 47.8281C50.8214 47.8273 50.8214 47.8273 50.6608 47.7096C50.5443 47.5376 50.5428 47.4099 50.5429 47.2063C50.5429 47.178 50.5428 47.1497 50.5428 47.1206C50.5427 47.0252 50.5428 46.9297 50.543 46.8342C50.543 46.7654 50.543 46.6966 50.5429 46.6277C50.5428 46.438 50.543 46.2483 50.5432 46.0585C50.5434 45.8541 50.5433 45.6498 50.5433 45.4454C50.5433 45.0911 50.5434 44.7368 50.5436 44.3825C50.5439 43.8702 50.544 43.3579 50.5441 42.8457C50.5442 42.0146 50.5444 41.1836 50.5448 40.3525C50.5452 39.5451 50.5455 38.7376 50.5457 37.9302C50.5457 37.8804 50.5457 37.8307 50.5457 37.7794C50.5457 37.5299 50.5458 37.2803 50.5458 37.0308C50.5463 34.9595 50.547 32.8883 50.5479 30.817C50.5055 30.8183 50.5055 30.8183 50.4622 30.8196C50.3336 30.8229 50.2049 30.825 50.0763 30.8271C50.0318 30.8285 49.9873 30.8298 49.9414 30.8312C49.6103 30.8352 49.6103 30.8352 49.4508 30.741C49.2677 30.5271 49.2846 30.3058 49.2849 30.0367C49.2847 29.9963 49.2846 29.956 49.2844 29.9144C49.2841 29.8293 49.2841 29.7441 49.2843 29.6589C49.2844 29.5289 49.2835 29.399 49.2825 29.269C49.2824 29.1861 49.2823 29.1032 49.2824 29.0204C49.282 28.9816 49.2816 28.9429 49.2812 28.903C49.2827 28.6921 49.2922 28.5338 49.4181 28.3557C49.5598 28.2434 49.6639 28.2198 49.8425 28.2228C49.8838 28.2232 49.925 28.2236 49.9675 28.224C50.0313 28.2255 50.0313 28.2255 50.0965 28.2271C50.1615 28.2279 50.1615 28.2279 50.2278 28.2287C50.3345 28.2301 50.4412 28.2321 50.5479 28.2346C50.5458 28.1857 50.5458 28.1857 50.5436 28.1358C50.5425 28.0927 50.5414 28.0496 50.5403 28.0051C50.5382 27.9412 50.5382 27.9412 50.5361 27.8761C50.5525 27.7014 50.6117 27.6007 50.7408 27.4834C50.8495 27.4157 50.9143 27.4121 51.0418 27.4113Z" fill="#115056"/>
<path d="M28.978 62.9607C29.0511 62.9604 29.0511 62.9604 29.1258 62.9602C29.2605 62.9598 29.3952 62.9601 29.5299 62.9605C29.6767 62.9608 29.8235 62.9605 29.9704 62.9602C30.2275 62.9598 30.4846 62.9599 30.7416 62.9603C31.124 62.9608 31.5063 62.9607 31.8886 62.9604C32.5714 62.9599 33.2542 62.9601 33.937 62.9606C34.5345 62.961 35.132 62.9612 35.7295 62.9612C35.789 62.9612 35.789 62.9612 35.8496 62.9612C36.0105 62.9611 36.1714 62.9611 36.3323 62.9611C37.8414 62.9609 39.3505 62.9615 40.8596 62.9623C42.2005 62.963 43.5414 62.9633 44.8824 62.9631C44.9685 62.963 45.0546 62.963 45.1407 62.963C45.2045 62.963 45.2045 62.963 45.2697 62.963C45.484 62.963 45.6983 62.9629 45.9126 62.9629C45.9549 62.9629 45.9971 62.9629 46.0407 62.9629C47.1611 62.9627 48.2814 62.9629 49.4018 62.9633C49.5223 62.9633 49.6429 62.9634 49.7634 62.9634C49.8434 62.9634 49.9233 62.9634 50.0033 62.9635C50.5609 62.9636 51.1185 62.9637 51.6761 62.9636C52.3946 62.9635 53.1131 62.9636 53.8316 62.9643C54.2117 62.9646 54.5917 62.9647 54.9717 62.9645C55.2255 62.9644 55.4793 62.9645 55.7331 62.965C55.8777 62.9652 56.0223 62.9653 56.167 62.965C56.3228 62.9648 56.4786 62.9651 56.6344 62.9655C56.6793 62.9653 56.7241 62.9652 56.7704 62.965C57.2163 62.9673 57.5665 63.0276 57.8988 63.3408C58.2177 63.6784 58.2799 63.9393 58.2689 64.4032C58.2359 64.7509 58.0631 65.0004 57.8112 65.2354C57.4648 65.5089 57.106 65.5298 56.6791 65.5281C56.6061 65.5283 56.6061 65.5283 56.5316 65.5285C56.3965 65.5288 56.2615 65.5287 56.1265 65.5284C55.9796 65.5283 55.8327 65.5286 55.6857 65.5288C55.4283 65.5292 55.1708 65.5292 54.9133 65.5291C54.5304 65.5289 54.1475 65.5291 53.7646 65.5294C53.041 65.5301 52.3174 65.5301 51.5938 65.53C51.035 65.53 50.4762 65.53 49.9175 65.5302C49.8372 65.5302 49.757 65.5302 49.6767 65.5303C49.5558 65.5303 49.4349 65.5303 49.3139 65.5304C48.1895 65.5307 47.065 65.5309 45.9405 65.5307C45.8981 65.5307 45.8557 65.5307 45.812 65.5307C45.5971 65.5307 45.3822 65.5306 45.1673 65.5306C45.1246 65.5306 45.0819 65.5306 45.0379 65.5306C44.9516 65.5306 44.8653 65.5306 44.779 65.5305C43.4359 65.5303 42.0929 65.5306 40.7498 65.5314C39.2411 65.5322 37.7325 65.5327 36.2238 65.5325C36.0629 65.5325 35.9021 65.5325 35.7413 65.5325C35.7016 65.5324 35.662 65.5324 35.6212 65.5324C35.0232 65.5324 34.4251 65.5327 33.827 65.5331C33.1469 65.5336 32.4668 65.5336 31.7867 65.5331C31.406 65.5329 31.0254 65.5329 30.6447 65.5335C30.3904 65.5338 30.1362 65.5337 29.8819 65.5332C29.737 65.533 29.5922 65.5329 29.4473 65.5334C29.2911 65.5339 29.1349 65.5335 28.9787 65.5329C28.9339 65.5332 28.8892 65.5335 28.843 65.5338C28.3787 65.5306 28.0085 65.4419 27.67 65.1143C27.4395 64.8746 27.3668 64.571 27.332 64.2468C27.3796 63.8028 27.5293 63.4673 27.8818 63.1826C28.2142 62.9744 28.5968 62.9582 28.978 62.9607Z" fill="#165056"/>
<path d="M28.4857 56.7113C28.5277 56.7111 28.5697 56.7108 28.6129 56.7106C28.6589 56.7108 28.7049 56.7109 28.7523 56.7111C28.8014 56.711 28.8506 56.7108 28.9013 56.7107C29.0382 56.7104 29.1752 56.7104 29.3122 56.7106C29.461 56.7108 29.6099 56.7104 29.7587 56.7102C30.0197 56.7097 30.2808 56.7096 30.5418 56.7097C30.9299 56.7098 31.3181 56.7095 31.7063 56.7091C32.4398 56.7083 33.1733 56.7081 33.9069 56.708C34.4733 56.708 35.0397 56.7078 35.6061 56.7076C35.769 56.7075 35.9319 56.7074 36.0948 56.7073C36.1353 56.7073 36.1758 56.7073 36.2176 56.7073C37.3571 56.7068 38.4966 56.7065 39.6361 56.7065C39.6791 56.7065 39.7221 56.7065 39.7664 56.7065C39.9842 56.7065 40.2021 56.7065 40.4199 56.7065C40.4632 56.7065 40.5065 56.7065 40.5511 56.7065C40.6386 56.7065 40.7261 56.7065 40.8135 56.7065C42.175 56.7066 43.5365 56.706 44.8979 56.7049C46.4269 56.7036 47.9558 56.703 49.4847 56.703C49.6476 56.703 49.8106 56.703 49.9736 56.703C50.0338 56.703 50.0338 56.703 50.0952 56.703C50.7415 56.703 51.3878 56.7025 52.0342 56.7018C52.6835 56.7012 53.3329 56.7011 53.9823 56.7016C54.3682 56.7019 54.7542 56.7018 55.1401 56.701C55.3978 56.7005 55.6556 56.7006 55.9133 56.7012C56.0602 56.7015 56.2071 56.7015 56.354 56.7009C56.5122 56.7002 56.6704 56.7007 56.8287 56.7014C56.8743 56.701 56.9199 56.7006 56.9669 56.7002C57.3622 56.7038 57.6497 56.8157 57.9401 57.0846C58.2187 57.3953 58.2693 57.7036 58.2659 58.1088C58.2387 58.4582 58.0878 58.7241 57.8299 58.9555C57.4994 59.2178 57.1142 59.241 56.7071 59.2385C56.6582 59.2387 56.6092 59.2389 56.5587 59.2391C56.4232 59.2395 56.2878 59.2393 56.1523 59.239C56.0047 59.2387 55.8572 59.2391 55.7096 59.2395C55.4511 59.24 55.1927 59.24 54.9342 59.2398C54.5498 59.2394 54.1655 59.2397 53.7811 59.2402C53.0946 59.241 52.4081 59.2411 51.7216 59.2409C51.1208 59.2407 50.52 59.2407 49.9192 59.2409C49.8386 59.241 49.758 59.241 49.6774 59.241C49.556 59.2411 49.4346 59.2411 49.3132 59.2412C48.1842 59.2416 47.0553 59.2418 45.9264 59.2415C45.8838 59.2415 45.8413 59.2415 45.7974 59.2414C45.4518 59.2413 45.1062 59.2412 44.7606 59.2411C43.4124 59.2407 42.0642 59.2411 40.7159 59.242C39.2012 59.2431 37.6866 59.2436 36.1719 59.2433C36.0104 59.2433 35.8489 59.2432 35.6875 59.2432C35.6477 59.2432 35.6079 59.2432 35.567 59.2432C34.9666 59.2431 34.3662 59.2434 33.7658 59.2439C33.0831 59.2445 32.4004 59.2446 31.7177 59.2439C31.3356 59.2435 30.9535 59.2435 30.5715 59.2442C30.3162 59.2447 30.061 59.2445 29.8058 59.2438C29.6603 59.2435 29.5149 59.2434 29.3695 59.244C29.2127 59.2447 29.056 59.2441 28.8992 59.2434C28.8543 59.2438 28.8093 59.2442 28.763 59.2446C28.3345 59.2406 27.9795 59.1305 27.6673 58.8312C27.4386 58.5625 27.3316 58.253 27.3382 57.9011C27.3686 57.5787 27.4954 57.2865 27.7098 57.0443C27.9412 56.8538 28.1804 56.7115 28.4857 56.7113Z" fill="#165056"/>
<path d="M28.4777 50.7797C28.5048 50.7796 28.532 50.7795 28.56 50.7793C28.6507 50.7789 28.7415 50.7791 28.8322 50.7793C28.898 50.7792 28.9639 50.779 29.0297 50.7788C29.2104 50.7783 29.3911 50.7783 29.5718 50.7784C29.7667 50.7784 29.9617 50.778 30.1566 50.7776C30.5385 50.7769 30.9204 50.7767 31.3023 50.7766C31.6127 50.7766 31.9232 50.7764 32.2336 50.7762C33.1139 50.7755 33.9942 50.7751 34.8745 50.7752C34.922 50.7752 34.9694 50.7752 35.0183 50.7752C35.0896 50.7752 35.0896 50.7752 35.1623 50.7752C35.9322 50.7752 36.7021 50.7744 37.472 50.7733C38.2627 50.7721 39.0534 50.7716 39.8441 50.7716C40.2879 50.7717 40.7318 50.7715 41.1757 50.7706C41.5536 50.7699 41.9315 50.7697 42.3094 50.7702C42.5022 50.7705 42.6949 50.7705 42.8877 50.7698C43.0643 50.7692 43.2409 50.7693 43.4175 50.77C43.4812 50.7701 43.545 50.77 43.6087 50.7695C44.0542 50.7666 44.4537 50.7895 44.796 51.1028C45.0949 51.4305 45.1607 51.7674 45.1525 52.1987C45.1374 52.5262 45.0037 52.7823 44.7807 53.0191C44.4832 53.2732 44.1597 53.3371 43.7775 53.3373C43.7508 53.3374 43.724 53.3375 43.6965 53.3376C43.607 53.3377 43.5175 53.3376 43.428 53.3375C43.3631 53.3376 43.2983 53.3377 43.2334 53.3378C43.0552 53.3381 42.877 53.3381 42.6989 53.338C42.5067 53.338 42.3145 53.3382 42.1223 53.3384C41.7458 53.3388 41.3693 53.3389 40.9928 53.3389C40.6868 53.3389 40.3808 53.339 40.0748 53.3391C39.2072 53.3395 38.3397 53.3397 37.4722 53.3396C37.4254 53.3396 37.3786 53.3396 37.3304 53.3396C37.2602 53.3396 37.2602 53.3396 37.1885 53.3396C36.4295 53.3396 35.6705 53.34 34.9115 53.3406C34.1322 53.3411 33.3529 53.3414 32.5736 53.3414C32.1361 53.3414 31.6985 53.3415 31.261 53.3419C30.8885 53.3423 30.516 53.3424 30.1434 53.3421C29.9534 53.342 29.7634 53.342 29.5733 53.3423C29.3993 53.3426 29.2252 53.3426 29.0512 53.3422C28.9883 53.3422 28.9254 53.3422 28.8625 53.3425C28.3703 53.3441 27.9423 53.3327 27.5615 52.9879C27.3083 52.7189 27.2171 52.4268 27.2061 52.0611C27.2196 51.6275 27.3549 51.3295 27.6701 51.0322C27.918 50.836 28.1652 50.7801 28.4777 50.7797Z" fill="#165056"/>
<path d="M28.5503 44.8787C28.607 44.8785 28.6636 44.8783 28.7202 44.878C28.8753 44.8773 29.0304 44.8776 29.1854 44.8781C29.3529 44.8785 29.5203 44.8779 29.6878 44.8775C30.0156 44.8768 30.3434 44.8769 30.6712 44.8774C30.9377 44.8777 31.2041 44.8778 31.4706 44.8776C31.5085 44.8776 31.5465 44.8776 31.5855 44.8775C31.6626 44.8775 31.7397 44.8774 31.8168 44.8774C32.5393 44.8769 33.2618 44.8774 33.9843 44.8783C34.6042 44.879 35.224 44.8789 35.8438 44.8782C36.5638 44.8773 37.2837 44.877 38.0037 44.8775C38.0805 44.8775 38.1573 44.8776 38.234 44.8776C38.2907 44.8776 38.2907 44.8776 38.3485 44.8777C38.6146 44.8778 38.8807 44.8776 39.1468 44.8772C39.4711 44.8768 39.7955 44.8769 40.1198 44.8777C40.2852 44.8782 40.4507 44.8783 40.6161 44.8778C40.7676 44.8773 40.9192 44.8776 41.0707 44.8784C41.1513 44.8787 41.2319 44.8782 41.3125 44.8776C41.6429 44.8805 41.8599 44.9195 42.1222 45.1314C42.4293 45.4833 42.5145 45.8568 42.4935 46.3166C42.458 46.6833 42.3301 46.9312 42.0867 47.2042C41.8024 47.4367 41.5119 47.4182 41.1591 47.4165C41.1025 47.4167 41.0459 47.4169 40.9893 47.4172C40.8342 47.4178 40.679 47.4176 40.5239 47.4173C40.3564 47.4171 40.1889 47.4176 40.0214 47.418C39.6935 47.4187 39.3655 47.4188 39.0376 47.4185C38.771 47.4184 38.5044 47.4184 38.2379 47.4187C38.1999 47.4187 38.162 47.4187 38.1229 47.4188C38.0458 47.4188 37.9687 47.4189 37.8916 47.4189C37.1688 47.4195 36.446 47.4193 35.7232 47.4188C35.062 47.4184 34.4008 47.4189 33.7396 47.4199C33.0606 47.4209 32.3816 47.4213 31.7026 47.421C31.3214 47.4209 30.9402 47.4209 30.559 47.4217C30.2346 47.4222 29.9101 47.4223 29.5856 47.4216C29.4201 47.4212 29.2546 47.4211 29.089 47.4218C28.9374 47.4223 28.7859 47.4221 28.6342 47.4213C28.5536 47.4211 28.4729 47.4217 28.3923 47.4223C28.0618 47.4196 27.8449 47.3807 27.5824 47.1687C27.2753 46.8168 27.1903 46.4434 27.2109 45.9836C27.2444 45.6417 27.3575 45.3891 27.5824 45.1314C27.8914 44.8818 28.1656 44.8761 28.5503 44.8787Z" fill="#165056"/>
<path d="M55.4502 31.8605C55.5196 31.8602 55.5196 31.8602 55.5904 31.8598C55.6414 31.8598 55.6925 31.8597 55.7451 31.8597C55.7997 31.8595 55.8543 31.8593 55.9089 31.8591C56.0593 31.8585 56.2097 31.8582 56.36 31.8579C56.4889 31.8577 56.6178 31.8573 56.7467 31.8569C57.1715 31.8555 57.5962 31.8546 58.0209 31.8539C58.1315 31.8537 58.2421 31.8535 58.3527 31.8533C59.0394 31.8521 59.726 31.851 60.4127 31.8503C60.5717 31.8501 60.7308 31.85 60.8899 31.8498C60.9294 31.8498 60.969 31.8497 61.0097 31.8497C61.6501 31.849 62.2906 31.8473 62.931 31.8453C63.5885 31.8432 64.2459 31.842 64.9034 31.8417C65.2725 31.8415 65.6417 31.841 66.0109 31.8393C66.3253 31.8379 66.6397 31.8374 66.9541 31.8379C67.1145 31.8381 67.2748 31.838 67.4352 31.8368C67.5822 31.8356 67.7291 31.8357 67.8761 31.8366C67.9542 31.8368 68.0322 31.8358 68.1103 31.8347C68.4259 31.8381 68.6308 31.8932 68.8672 32.1083C69.101 32.39 69.1213 32.68 69.1198 33.0307C69.12 33.0701 69.1201 33.1095 69.1203 33.1501C69.1207 33.2817 69.1205 33.4134 69.1204 33.545C69.1205 33.6395 69.1208 33.734 69.121 33.8286C69.1215 34.0851 69.1216 34.3416 69.1215 34.5981C69.1214 34.8394 69.1217 35.0807 69.1219 35.322C69.1223 35.8291 69.1222 36.3361 69.122 36.8432C69.1218 37.3068 69.1222 37.7703 69.123 38.2339C69.1238 38.7103 69.1241 39.1867 69.124 39.6631C69.1239 39.9303 69.124 40.1976 69.1246 40.4649C69.1251 40.7163 69.125 40.9676 69.1245 41.2189C69.1244 41.3111 69.1245 41.4033 69.1248 41.4955C69.1252 41.6215 69.1249 41.7474 69.1244 41.8734C69.1247 41.9097 69.125 41.9461 69.1253 41.9836C69.1225 42.3125 69.035 42.5796 68.8268 42.8413C68.6289 42.9908 68.4888 43.048 68.243 43.0486C68.1969 43.0488 68.1507 43.049 68.1032 43.0492C68.0523 43.0492 68.0013 43.0492 67.9489 43.0492C67.8944 43.0494 67.8399 43.0496 67.7855 43.0498C67.6355 43.0503 67.4855 43.0505 67.3355 43.0507C67.1738 43.0509 67.0122 43.0514 66.8505 43.0518C66.46 43.0528 66.0694 43.0534 65.6789 43.0539C65.5686 43.0541 65.4583 43.0542 65.348 43.0544C64.6632 43.0554 63.9785 43.0563 63.2937 43.0568C63.1351 43.0569 62.9764 43.057 62.8178 43.0571C62.7784 43.0572 62.739 43.0572 62.6983 43.0572C62.0596 43.0577 61.4208 43.0591 60.782 43.0608C60.1264 43.0625 59.4707 43.0634 58.815 43.0636C58.4468 43.0638 58.0786 43.0643 57.7104 43.0656C57.3969 43.0667 57.0833 43.0672 56.7698 43.0667C56.6098 43.0665 56.4499 43.0666 56.2899 43.0676C56.1433 43.0685 55.9968 43.0685 55.8503 43.0677C55.7724 43.0676 55.6944 43.0684 55.6165 43.0693C55.2893 43.0663 55.0811 43.012 54.8451 42.7816C54.6243 42.5348 54.6119 42.3158 54.613 42C54.6128 41.9597 54.6126 41.9194 54.6124 41.8779C54.6119 41.7426 54.612 41.6074 54.612 41.4722C54.6118 41.3753 54.6115 41.2784 54.6112 41.1815C54.6106 40.9455 54.6103 40.7095 54.6103 40.4735C54.6102 40.2816 54.6101 40.0897 54.6098 39.8979C54.6091 39.3536 54.6087 38.8094 54.6088 38.2652C54.6088 38.2359 54.6088 38.2065 54.6088 38.1763C54.6088 38.147 54.6088 38.1176 54.6088 38.0873C54.6088 37.6115 54.6081 37.1357 54.6069 36.6599C54.6058 36.1711 54.6052 35.6823 54.6053 35.1935C54.6053 34.9192 54.6051 34.6448 54.6042 34.3705C54.6034 34.1125 54.6034 33.8545 54.604 33.5964C54.6041 33.5018 54.6039 33.4071 54.6034 33.3124C54.6028 33.1831 54.6032 33.0538 54.6038 32.9245C54.6034 32.8871 54.603 32.8497 54.6025 32.8112C54.6056 32.5257 54.6754 32.3117 54.8673 32.0971C54.8943 32.075 54.9213 32.0529 54.9491 32.0301C54.9762 32.0072 55.0033 31.9844 55.0312 31.9609C55.1687 31.8635 55.2869 31.861 55.4502 31.8605ZM55.3894 32.7092C55.3625 32.7476 55.3625 32.7476 55.3349 32.7866C55.3163 32.8119 55.2977 32.8371 55.2785 32.8631C55.1521 33.0994 55.1365 33.3273 55.1375 33.5894C55.1373 33.6238 55.1371 33.6582 55.137 33.6937C55.1364 33.8084 55.1365 33.9231 55.1366 34.0378C55.1363 34.1203 55.1361 34.2028 55.1358 34.2852C55.135 34.5089 55.1348 34.7326 55.1348 34.9563C55.1347 35.0961 55.1346 35.236 55.1344 35.3758C55.1336 35.8639 55.1333 36.3521 55.1333 36.8402C55.1334 37.2948 55.1325 37.7493 55.1313 38.2039C55.1302 38.5946 55.1298 38.9852 55.1298 39.3759C55.1298 39.609 55.1296 39.8422 55.1288 40.0753C55.128 40.2947 55.128 40.514 55.1286 40.7334C55.1286 40.8137 55.1285 40.894 55.128 40.9743C55.1149 41.6279 55.1149 41.6279 55.4106 42.1932C55.6098 42.3576 55.7326 42.4427 55.9969 42.4432C56.0391 42.4434 56.0813 42.4436 56.1248 42.4437C56.1714 42.4437 56.2179 42.4437 56.2658 42.4437C56.3151 42.4439 56.3644 42.444 56.4152 42.4442C56.5524 42.4445 56.6895 42.4447 56.8266 42.4448C56.9744 42.445 57.1222 42.4454 57.27 42.4457C57.627 42.4465 57.984 42.4469 58.3411 42.4473C58.5092 42.4475 58.6773 42.4477 58.8454 42.4479C59.4043 42.4486 59.9631 42.4492 60.522 42.4495C60.667 42.4495 60.812 42.4496 60.9571 42.4497C60.9931 42.4497 61.0292 42.4497 61.0663 42.4497C61.6503 42.4501 62.2343 42.4511 62.8182 42.4524C63.4177 42.4537 64.0172 42.4545 64.6167 42.4546C64.9534 42.4547 65.29 42.455 65.6266 42.4561C65.9133 42.457 66.1999 42.4573 66.4866 42.4569C66.6329 42.4567 66.7791 42.4568 66.9253 42.4576C67.084 42.4584 67.2426 42.458 67.4012 42.4575C67.4473 42.4579 67.4934 42.4583 67.5409 42.4588C67.8454 42.4563 68.0744 42.4167 68.3032 42.1985C68.3212 42.1726 68.3392 42.1467 68.3578 42.12C68.3764 42.0943 68.395 42.0686 68.4142 42.0422C68.5398 41.8173 68.5562 41.6128 68.5552 41.3619C68.5555 41.3098 68.5555 41.3098 68.5557 41.2568C68.5563 41.1408 68.5562 41.0248 68.5561 40.9089C68.5564 40.8256 68.5566 40.7423 68.5569 40.6591C68.5577 40.4331 68.5578 40.2071 68.5579 39.981C68.558 39.8398 68.5581 39.6985 68.5583 39.5572C68.5591 39.0641 68.5594 38.571 68.5593 38.0779C68.5593 37.6186 68.5602 37.1594 68.5614 36.7001C68.5625 36.3055 68.5629 35.9109 68.5629 35.5163C68.5628 35.2808 68.5631 35.0452 68.5639 34.8097C68.5647 34.588 68.5647 34.3664 68.5641 34.1448C68.564 34.0636 68.5642 33.9825 68.5647 33.9013C68.5887 33.2655 68.5887 33.2655 68.3112 32.717C68.133 32.5527 67.9763 32.4614 67.7305 32.461C67.6881 32.4608 67.6457 32.4605 67.6019 32.4602C67.5554 32.4604 67.5088 32.4605 67.4608 32.4606C67.3866 32.4603 67.3866 32.4603 67.3108 32.4601C67.1733 32.4596 67.0358 32.4596 66.8984 32.4597C66.7501 32.4597 66.6018 32.4592 66.4536 32.4589C66.1631 32.4582 65.8726 32.458 65.5821 32.4579C65.3459 32.4579 65.1097 32.4577 64.8736 32.4575C64.2041 32.4567 63.5346 32.4564 62.8651 32.4564C62.829 32.4564 62.7929 32.4564 62.7557 32.4564C62.7195 32.4565 62.6834 32.4565 62.6462 32.4565C62.0605 32.4565 61.4748 32.4557 60.8891 32.4546C60.2878 32.4534 59.6865 32.4529 59.0852 32.4529C58.7476 32.453 58.41 32.4527 58.0723 32.4519C57.7848 32.4511 57.4974 32.451 57.2099 32.4515C57.0632 32.4518 56.9166 32.4518 56.7699 32.4511C56.6109 32.4503 56.4518 32.4508 56.2927 32.4514C56.2465 32.451 56.2003 32.4506 56.1527 32.4502C55.8475 32.4528 55.6204 32.493 55.3894 32.7092Z" fill="#115056"/>
<path d="M35.1592 27.7341C35.256 27.7504 35.256 27.7504 35.3367 27.8311C35.339 27.9482 35.339 27.9482 35.3273 28.0976C35.3241 28.1379 35.3241 28.1379 35.3209 28.1791C35.2951 28.4864 35.251 28.7911 35.2056 29.096C35.1967 29.157 35.1878 29.2179 35.1789 29.2789C35.1558 29.4374 35.1324 29.5959 35.1089 29.7544C35.085 29.916 35.0615 30.0775 35.0379 30.2391C35.0033 30.4751 34.9687 30.7111 34.9338 30.947C34.9234 31.0177 34.9234 31.0177 34.9128 31.0898C34.8995 31.1772 34.8853 31.2645 34.8705 31.3517C34.8526 31.462 34.8471 31.5654 34.8475 31.6769C34.8474 31.7117 34.8473 31.7465 34.8472 31.7824C34.8432 31.8657 34.8432 31.8657 34.8929 31.9064C34.9964 31.9106 35.0988 31.9122 35.2023 31.9122C35.2347 31.9123 35.2671 31.9124 35.3005 31.9126C35.3712 31.9129 35.4418 31.9131 35.5124 31.9132C35.6242 31.9135 35.7359 31.9142 35.8477 31.9149C36.1655 31.917 36.4833 31.919 36.8011 31.9196C36.9952 31.92 37.1894 31.9212 37.3836 31.9229C37.4577 31.9234 37.5317 31.9236 37.6058 31.9235C37.7095 31.9234 37.8131 31.9243 37.9168 31.9254C37.9628 31.925 37.9628 31.925 38.0097 31.9246C38.1505 31.9271 38.2284 31.9367 38.3427 32.022C38.4033 32.1082 38.4033 32.1082 38.4064 32.2177C38.3476 32.3969 38.2548 32.5393 38.1511 32.6958C38.1065 32.7647 38.062 32.8336 38.0174 32.9026C37.9944 32.938 37.9714 32.9735 37.9476 33.0101C37.8383 33.1796 37.7324 33.3512 37.6266 33.5229C37.6051 33.5577 37.5836 33.5925 37.5614 33.6283C37.4403 33.8244 37.3195 34.0207 37.1988 34.2171C36.9114 34.6848 36.6228 35.1516 36.3313 35.6167C36.0898 36.0026 35.8513 36.3904 35.613 36.7783C35.4718 37.0082 35.33 37.2378 35.1879 37.4671C35.1668 37.5012 35.1457 37.5353 35.1239 37.5704C35.0383 37.7087 34.9526 37.8469 34.8669 37.9852C34.595 38.4236 34.324 38.8626 34.0553 39.303C34.0395 39.3287 34.0237 39.3544 34.0075 39.3808C33.9698 39.4435 33.9347 39.5077 33.9 39.5721C33.8815 39.599 33.8629 39.6259 33.8438 39.6536C33.7152 39.6662 33.7152 39.6662 33.6017 39.6536C33.4988 39.4807 33.5289 39.3606 33.5753 39.1761C33.5852 39.1393 33.5952 39.1024 33.6055 39.0644C33.6157 39.0245 33.626 38.9846 33.6365 38.9435C33.6714 38.8085 33.7071 38.6737 33.7429 38.5389C33.7678 38.4431 33.7927 38.3472 33.8175 38.2513C33.9724 37.6551 34.1318 37.06 34.2907 36.4649C34.3213 36.3505 34.3518 36.2361 34.3823 36.1217C34.4026 36.0455 34.4229 35.9692 34.4433 35.893C34.4533 35.8552 34.4634 35.8175 34.4737 35.7787C34.5343 35.5516 34.5953 35.3245 34.6566 35.0976C34.6953 34.9543 34.7336 34.811 34.7719 34.6676C34.7899 34.6004 34.8081 34.5332 34.8264 34.4661C34.8516 34.3734 34.8764 34.2807 34.901 34.1878C34.9085 34.161 34.9159 34.1342 34.9235 34.1066C34.9686 33.9348 34.9836 33.7785 34.9736 33.6011C34.8916 33.5191 34.7209 33.5546 34.6083 33.5544C34.5743 33.5542 34.5402 33.554 34.5051 33.5538C34.4309 33.5534 34.3567 33.553 34.2825 33.5527C34.1652 33.5523 34.0479 33.5515 33.9306 33.5506C33.5969 33.5481 33.2632 33.5459 32.9295 33.5446C32.7257 33.5437 32.5218 33.5423 32.318 33.5405C32.2401 33.5399 32.1623 33.5396 32.0845 33.5395C31.9757 33.5393 31.8669 33.5383 31.7581 33.5372C31.7096 33.5374 31.7096 33.5374 31.6602 33.5376C31.4431 33.5343 31.4431 33.5343 31.3412 33.4646C31.3017 33.3994 31.3017 33.3994 31.3031 33.307C31.3531 33.1665 31.4322 33.0578 31.5213 32.9401C31.5584 32.8896 31.5955 32.839 31.6324 32.7884C31.6514 32.7626 31.6703 32.7367 31.6898 32.7101C31.7765 32.5898 31.8589 32.4667 31.9409 32.343C31.9572 32.3184 31.9736 32.2937 31.9905 32.2683C32.0247 32.2167 32.0589 32.1651 32.093 32.1135C32.1889 31.9685 32.2852 31.8238 32.3814 31.6792C32.4017 31.6486 32.422 31.618 32.443 31.5866C32.7973 31.0542 33.1564 30.5249 33.5146 29.9951C33.6549 29.7877 33.7949 29.5801 33.9348 29.3725C34.0263 29.2365 34.1179 29.1007 34.2095 28.9648C34.2525 28.901 34.2954 28.8372 34.3383 28.7734C34.4519 28.6045 34.5661 28.4361 34.6812 28.2682C34.7295 28.1971 34.777 28.1256 34.8244 28.0539C34.8522 28.0131 34.8801 27.9723 34.9088 27.9303C34.944 27.8776 34.944 27.8776 34.98 27.8238C35.0543 27.7504 35.0543 27.7504 35.1592 27.7341Z" fill="#115056"/>
<path d="M62.0077 33.8432C62.1122 33.8956 62.195 33.9656 62.2826 34.0424C62.3065 34.0623 62.3305 34.0822 62.3551 34.1028C62.4041 34.1436 62.4529 34.1848 62.5013 34.2263C62.6093 34.3183 62.7197 34.4071 62.8298 34.4964C62.8921 34.5476 62.9543 34.5988 63.0164 34.6502C63.0198 34.6061 63.0231 34.562 63.0265 34.5165C63.0568 34.3677 63.0568 34.3677 63.1212 34.2989C63.2544 34.2272 63.3584 34.231 63.5093 34.2306C63.5512 34.2304 63.5512 34.2304 63.594 34.2303C63.653 34.2302 63.712 34.2304 63.7709 34.2309C63.8608 34.2316 63.9507 34.2309 64.0406 34.2301C64.098 34.2302 64.1555 34.2304 64.2129 34.2306C64.2649 34.2307 64.3169 34.2309 64.3705 34.231C64.5176 34.2476 64.5942 34.2788 64.7111 34.3677C64.7581 34.4618 64.7564 34.5159 64.7561 34.6206C64.7561 34.6561 64.7561 34.6916 64.7561 34.7283C64.7558 34.7667 64.7556 34.8051 64.7554 34.8447C64.7553 34.9036 64.7553 34.9036 64.7553 34.9638C64.755 35.0896 64.7545 35.2154 64.754 35.3412C64.7538 35.4263 64.7536 35.5115 64.7535 35.5967C64.753 35.8057 64.7523 36.0148 64.7515 36.2238C64.7756 36.2351 64.7998 36.2464 64.8247 36.2581C64.9535 36.3259 65.0555 36.4217 65.1625 36.5189C65.1846 36.538 65.2066 36.5571 65.2293 36.5768C65.3263 36.6646 65.3914 36.7323 65.4352 36.8568C65.4383 36.9857 65.3913 37.0493 65.3164 37.1519C65.2357 37.2326 65.2357 37.2326 65.1227 37.2474C64.9628 37.229 64.9046 37.1815 64.7843 37.0762C64.7504 37.0472 64.7165 37.0182 64.6817 36.9883C64.6626 36.9702 64.6436 36.9521 64.624 36.9335C64.5464 36.8637 64.5464 36.8637 64.4371 36.7957C64.1351 36.5759 64.1351 36.5759 64.0827 36.3786C64.0505 36.1307 64.0654 35.8826 64.0782 35.6337C64.0804 35.5578 64.0824 35.4819 64.0842 35.406C64.0891 35.2211 64.0967 35.0366 64.1059 34.8519C63.9594 34.8519 63.813 34.8519 63.662 34.8519C63.6639 34.8938 63.6658 34.9356 63.6677 34.9787C63.6692 35.0339 63.6707 35.0892 63.6721 35.1445C63.6735 35.172 63.6748 35.1995 63.6762 35.2278C63.6789 35.3675 63.6734 35.4422 63.588 35.5551C63.4736 35.6383 63.4 35.6561 63.2585 35.6589C63.0463 35.5729 62.8943 35.4417 62.7264 35.2907C62.6731 35.2437 62.6197 35.1968 62.5663 35.1498C62.5401 35.1267 62.514 35.1037 62.487 35.0799C62.3797 34.9856 62.2711 34.8931 62.1615 34.8015C62.1277 34.773 62.0938 34.7445 62.0589 34.7151C61.9673 34.6501 61.9162 34.6233 61.806 34.6098C61.7051 34.6839 61.6173 34.7572 61.526 34.8418C61.4715 34.8908 61.417 34.9397 61.3624 34.9886C61.3352 35.0133 61.3079 35.0379 61.2799 35.0634C61.1673 35.1644 61.0519 35.2617 60.9359 35.3588C60.7769 35.4927 60.6186 35.6275 60.461 35.7631C60.1344 36.0443 59.8025 36.318 59.4657 36.587C59.5051 36.6141 59.5444 36.6413 59.585 36.6693C59.6923 36.7593 59.7062 36.7813 59.7369 36.9263C59.7364 36.9789 59.7358 37.0315 59.7353 37.0857C59.7353 37.1153 59.7353 37.145 59.7353 37.1755C59.7352 37.2709 59.7333 37.3662 59.7314 37.4616C59.7311 37.5207 59.7308 37.5798 59.7307 37.6388C59.7294 37.8573 59.726 38.0758 59.7229 38.2943C59.7179 38.7828 59.7129 39.2713 59.7078 39.7746C61.1592 39.7746 62.6105 39.7746 64.1059 39.7746C64.1059 39.3086 64.1059 38.8425 64.1059 38.3624C64.2673 38.201 64.2673 38.201 64.3494 38.1809C64.5699 38.1873 64.5699 38.1873 64.6683 38.2539C64.7431 38.3727 64.7567 38.4762 64.758 38.6129C64.7584 38.6469 64.7588 38.681 64.7592 38.7161C64.7594 38.7712 64.7594 38.7712 64.7597 38.8273C64.7599 38.8652 64.7601 38.903 64.7604 38.9421C64.7608 39.0222 64.761 39.1023 64.7612 39.1824C64.7616 39.3048 64.7628 39.4271 64.7641 39.5495C64.7644 39.6274 64.7646 39.7052 64.7647 39.7831C64.7652 39.8196 64.7657 39.8562 64.7662 39.8938C64.7655 40.1084 64.7497 40.2606 64.5901 40.4202C64.5204 40.4243 64.4506 40.4256 64.3808 40.4259C64.3354 40.4261 64.29 40.4263 64.2433 40.4266C64.168 40.4266 64.168 40.4266 64.0911 40.4267C64.0385 40.4269 63.986 40.4271 63.9319 40.4273C63.7873 40.4278 63.6427 40.4281 63.4982 40.4283C63.4079 40.4284 63.3177 40.4286 63.2275 40.4287C62.9453 40.4293 62.6632 40.4297 62.3811 40.4298C62.055 40.43 61.729 40.4307 61.4029 40.4319C61.1511 40.4328 60.8994 40.4332 60.6476 40.4332C60.4971 40.4333 60.3466 40.4335 60.1961 40.4342C60.0283 40.435 59.8605 40.4348 59.6927 40.4346C59.6426 40.4349 59.5925 40.4353 59.541 40.4357C59.4954 40.4355 59.4498 40.4353 59.4028 40.435C59.3631 40.4351 59.3234 40.4351 59.2825 40.4352C59.1832 40.4202 59.1832 40.4202 59.1099 40.3669C59.0319 40.2561 59.0464 40.1344 59.0484 40.0039C59.0484 39.959 59.0484 39.959 59.0484 39.9132C59.0485 39.8143 59.0494 39.7154 59.0504 39.6165C59.0506 39.5479 59.0508 39.4793 59.0509 39.4108C59.0513 39.2303 59.0525 39.0498 59.0539 38.8693C59.0551 38.6851 59.0557 38.5009 59.0563 38.3167C59.0576 37.9553 59.0596 37.594 59.0622 37.2326C59.023 37.2335 58.9838 37.2345 58.9434 37.2355C58.8666 37.2366 58.8666 37.2366 58.7882 37.2378C58.712 37.2392 58.712 37.2392 58.6342 37.2407C58.4973 37.2326 58.4973 37.2326 58.3611 37.1493C58.2783 36.9997 58.2754 36.9178 58.2955 36.7484C58.3664 36.6605 58.4243 36.6012 58.5099 36.5315C58.5318 36.5126 58.5537 36.4936 58.5763 36.4741C58.6434 36.4166 58.7113 36.3604 58.7797 36.3045C58.8368 36.2575 58.8368 36.2575 58.8951 36.2095C58.9679 36.1501 59.0409 36.0909 59.114 36.032C59.2279 35.9378 59.3368 35.8397 59.4455 35.7396C59.6259 35.5736 59.8123 35.418 60.003 35.2641C60.1091 35.1765 60.2113 35.0859 60.313 34.9932C60.45 34.8683 60.5899 34.749 60.7342 34.6325C60.8915 34.5055 61.0421 34.3738 61.1906 34.2366C61.6854 33.7861 61.6854 33.7861 62.0077 33.8432Z" fill="#115056"/>
</svg>
