<svg width="60" height="64" viewBox="0 0 60 64" fill="none" xmlns="http://www.w3.org/2000/svg">
<path d="M10.8369 5.68397C10.898 5.68385 10.898 5.68385 10.9603 5.68372C11.0962 5.68349 11.232 5.68355 11.3679 5.68361C11.4665 5.6835 11.5651 5.68338 11.6638 5.68325C11.906 5.68296 12.1482 5.68285 12.3905 5.68283C12.6808 5.68279 12.9711 5.68252 13.2614 5.68225C13.9627 5.6816 14.664 5.68136 15.3653 5.68117C15.6972 5.68108 16.029 5.68093 16.3608 5.68078C17.497 5.68026 18.6332 5.67983 19.7694 5.67969C19.8406 5.67968 19.9119 5.67967 19.9832 5.67966C20.0546 5.67965 20.126 5.67965 20.1974 5.67964C20.3407 5.67962 20.484 5.6796 20.6273 5.67958C20.6629 5.67958 20.6984 5.67957 20.735 5.67957C21.8878 5.67942 23.0406 5.67878 24.1933 5.67784C25.4126 5.67685 26.6318 5.67629 27.8511 5.67625C27.9849 5.67624 28.1187 5.67623 28.2525 5.67622C28.2855 5.67622 28.3184 5.67622 28.3524 5.67621C28.8826 5.67617 29.4128 5.67572 29.943 5.67514C30.4757 5.67456 31.0085 5.67442 31.5412 5.67475C31.8577 5.67493 32.1741 5.67477 32.4906 5.67413C32.7269 5.6737 32.9631 5.67389 33.1994 5.67433C33.295 5.67441 33.3906 5.67428 33.4862 5.67393C33.6161 5.67348 33.746 5.67378 33.8759 5.67427C33.9131 5.67396 33.9502 5.67366 33.9885 5.67334C34.3886 5.67656 34.7297 5.77295 35.0237 6.05242C35.2977 6.34692 35.4146 6.66617 35.4006 7.0681C35.3549 7.44836 35.1896 7.73784 34.9026 7.98921C34.5818 8.20806 34.2225 8.24337 33.8446 8.24142C33.7836 8.24159 33.7836 8.24159 33.7214 8.24176C33.5849 8.24204 33.4485 8.24175 33.3121 8.24146C33.2134 8.24154 33.1146 8.24167 33.0159 8.24182C32.8012 8.24208 32.5864 8.24209 32.3717 8.24188C32.0523 8.24157 31.733 8.24172 31.4136 8.24198C30.8762 8.24241 30.3388 8.24248 29.8015 8.24238C29.0335 8.24224 28.2655 8.24278 27.4976 8.24346C27.1893 8.24373 26.8811 8.24398 26.5728 8.24422C26.5214 8.24427 26.5214 8.24427 26.469 8.24431C25.6539 8.24496 24.8387 8.2454 24.0236 8.24577C23.988 8.24578 23.9523 8.2458 23.9155 8.24582C23.0836 8.2462 22.2517 8.24648 21.4198 8.24657C21.3662 8.24658 21.3662 8.24658 21.3114 8.24659C21.1311 8.24661 20.9507 8.24663 20.7703 8.24665C20.7347 8.24665 20.699 8.24666 20.6623 8.24666C20.5903 8.24667 20.5184 8.24668 20.4464 8.24669C19.2572 8.24682 18.0679 8.24751 16.8786 8.24879C16.7106 8.24897 16.5426 8.24914 16.3746 8.24931C16.3415 8.24934 16.3085 8.24938 16.2744 8.24941C15.7427 8.24992 15.2109 8.24984 14.6792 8.24953C14.1446 8.24922 13.61 8.24948 13.0754 8.25032C12.758 8.2508 12.4406 8.25083 12.1231 8.25022C11.8859 8.24981 11.6486 8.25024 11.4113 8.25099C11.3155 8.25117 11.2197 8.25107 11.1239 8.25067C10.2526 8.24729 9.55267 8.36622 8.90656 9.00126C8.50162 9.43402 8.2649 9.9972 8.26665 10.5896C8.26654 10.6347 8.26654 10.6347 8.26643 10.6808C8.26624 10.7821 8.26634 10.8834 8.26643 10.9848C8.26635 11.0583 8.26625 11.1317 8.26614 11.2052C8.26588 11.4083 8.26588 11.6114 8.26591 11.8145C8.2659 12.0351 8.26567 12.2556 8.26546 12.4761C8.26508 12.9141 8.26492 13.352 8.26483 13.7899C8.26471 14.3142 8.26436 14.8385 8.26401 15.3629C8.26316 16.6303 8.26274 17.8977 8.26239 19.1652C8.26227 19.5849 8.26213 20.0046 8.26199 20.4243C8.26197 20.4687 8.26197 20.4687 8.26195 20.514C8.26191 20.6338 8.26187 20.7536 8.26183 20.8734C8.2611 22.9224 8.26048 24.9713 8.26018 27.0203C8.26016 27.1812 8.26013 27.3422 8.26011 27.5031C8.2601 27.551 8.2601 27.551 8.2601 27.5999C8.26005 27.9234 8.26 28.2469 8.25995 28.5703C8.25994 28.6352 8.25993 28.7001 8.25992 28.7649C8.25961 30.8478 8.2587 32.9307 8.25739 35.0137C8.25645 36.5102 8.25558 38.0068 8.25529 39.5033C8.25529 39.5341 8.25528 39.5649 8.25527 39.5966C8.25515 40.2723 8.25506 40.948 8.25502 41.6237C8.25501 41.8955 8.25498 42.1674 8.25496 42.4393C8.25496 42.4691 8.25496 42.4988 8.25495 42.5295C8.25487 43.4878 8.2543 44.4462 8.25347 45.4046C8.25264 46.37 8.25232 47.3354 8.25271 48.3008C8.25294 48.8997 8.25275 49.4987 8.25183 50.0977C8.25129 50.4797 8.25133 50.8618 8.25185 51.2439C8.25212 51.4616 8.25215 51.6794 8.25146 51.8971C8.25084 52.0954 8.25096 52.2936 8.25168 52.4918C8.2518 52.563 8.25166 52.6341 8.25121 52.7052C8.24656 53.4951 8.43386 54.1476 9.00145 54.725C9.41252 55.1097 9.96601 55.3645 10.533 55.365C10.5824 55.3651 10.6317 55.3653 10.6825 55.3654C10.7373 55.3654 10.792 55.3653 10.8467 55.3653C10.9051 55.3654 10.9635 55.3655 11.0219 55.3656C11.1831 55.3659 11.3443 55.3659 11.5055 55.3659C11.6806 55.366 11.8557 55.3663 12.0308 55.3665C12.3784 55.3669 12.726 55.3672 13.0737 55.3673C13.4899 55.3675 13.9062 55.368 14.3224 55.3684C15.3287 55.3694 16.3349 55.37 17.3411 55.3706C17.6744 55.3707 18.0077 55.3709 18.3409 55.3711C20.1127 55.3721 21.8845 55.373 23.6563 55.3735C24.0669 55.3736 24.4774 55.3738 24.888 55.3739C24.939 55.3739 24.99 55.3739 25.0425 55.3739C26.6962 55.3744 28.3499 55.3757 30.0036 55.3774C31.7036 55.3791 33.4035 55.3802 35.1034 55.3804C35.3435 55.3804 35.5836 55.3804 35.8237 55.3805C35.8709 55.3805 35.9182 55.3805 35.9669 55.3805C36.7273 55.3806 37.4878 55.3815 38.2483 55.3825C39.0127 55.3836 39.7772 55.3839 40.5417 55.3834C40.9958 55.3832 41.4499 55.3835 41.904 55.3846C42.2075 55.3853 42.511 55.3853 42.8145 55.3847C42.9874 55.3843 43.1602 55.3843 43.333 55.3852C43.4906 55.386 43.6481 55.3858 43.8057 55.3849C43.8884 55.3847 43.971 55.3855 44.0537 55.3863C44.6248 55.381 45.137 55.2223 45.5953 54.8756C45.6247 54.8536 45.654 54.8316 45.6842 54.8089C46.1741 54.4115 46.4213 53.8308 46.5234 53.2212C46.5393 53.0085 46.5395 52.7968 46.5384 52.5836C46.5385 52.5207 46.5386 52.4579 46.5388 52.395C46.5392 52.2236 46.5389 52.0522 46.5385 51.8808C46.5381 51.6954 46.5384 51.51 46.5387 51.3246C46.5391 51.0038 46.539 50.683 46.5387 50.3622C46.5382 49.8978 46.5386 49.4335 46.5392 48.9691C46.5402 48.215 46.5407 47.4609 46.5409 46.7068C46.5409 46.6392 46.5409 46.6392 46.5409 46.5702C46.541 46.0671 46.541 45.564 46.541 45.0609C46.541 44.8784 46.541 44.6958 46.5409 44.5133C46.5409 44.4682 46.5409 44.4232 46.5409 44.3767C46.5409 43.6253 46.5415 42.8738 46.5426 42.1223C46.5432 41.6592 46.5433 41.1961 46.5427 40.7329C46.5423 40.4157 46.5425 40.0984 46.5432 39.7811C46.5435 39.5981 46.5436 39.4152 46.543 39.2323C46.5424 39.0646 46.5426 38.897 46.5434 38.7293C46.5435 38.6689 46.5434 38.6084 46.543 38.5479C46.5398 38.0784 46.5906 37.6652 46.9269 37.3123C47.2435 37.0395 47.5433 36.9854 47.9514 36.9896C48.2711 37.0138 48.5196 37.1433 48.7524 37.361C48.9644 37.6107 49.0703 37.9005 49.0708 38.2243C49.0709 38.2504 49.071 38.2765 49.0711 38.3035C49.0714 38.3916 49.0713 38.4798 49.0713 38.5679C49.0715 38.6315 49.0716 38.6951 49.0718 38.7587C49.0722 38.934 49.0723 39.1093 49.0724 39.2846C49.0726 39.4735 49.073 39.6624 49.0733 39.8513C49.0741 40.3079 49.0745 40.7645 49.0749 41.2212C49.0751 41.4363 49.0753 41.6515 49.0755 41.8667C49.0762 42.5823 49.0768 43.2979 49.0771 44.0136C49.0771 44.1994 49.0772 44.3852 49.0773 44.571C49.0773 44.6171 49.0773 44.6633 49.0774 44.7109C49.0777 45.4577 49.0787 46.2046 49.08 46.9515C49.0814 47.7188 49.0821 48.486 49.0822 49.2533C49.0823 49.6839 49.0827 50.1145 49.0837 50.5451C49.0846 50.9121 49.0849 51.2791 49.0845 51.6461C49.0843 51.8331 49.0844 52.0201 49.0852 52.2071C49.0909 53.6473 49.0909 53.6473 48.904 54.3107C48.8925 54.3522 48.8925 54.3522 48.8808 54.3946C48.6596 55.1882 48.2143 55.8541 47.6531 56.4492C47.6264 56.479 47.5997 56.5088 47.5721 56.5395C46.7641 57.4044 45.5445 57.8599 44.3848 57.9421C44.192 57.9477 43.9994 57.9476 43.8065 57.9473C43.7483 57.9474 43.6901 57.9475 43.6319 57.9475C43.4722 57.9477 43.3124 57.9477 43.1527 57.9476C42.9788 57.9475 42.805 57.9477 42.6311 57.9478C42.3265 57.948 42.0218 57.9481 41.7172 57.948C41.2641 57.948 40.8111 57.9481 40.358 57.9484C39.5018 57.9487 38.6456 57.9489 37.7893 57.9489C37.128 57.9489 36.4668 57.949 35.8055 57.9491C35.6152 57.9491 35.4248 57.9492 35.2345 57.9492C35.1872 57.9492 35.1399 57.9492 35.0911 57.9492C33.7601 57.9495 32.4291 57.9496 31.0981 57.9496C31.0479 57.9496 30.9977 57.9496 30.946 57.9496C30.6916 57.9496 30.4373 57.9496 30.1829 57.9496C30.1071 57.9496 30.1071 57.9496 30.0298 57.9496C29.9277 57.9496 29.8255 57.9496 29.7233 57.9496C28.134 57.9496 26.5447 57.9499 24.9554 57.9504C23.1699 57.9511 21.3843 57.9514 19.5988 57.9514C19.4083 57.9514 19.2179 57.9514 19.0275 57.9514C18.9806 57.9514 18.9337 57.9514 18.8854 57.9514C18.1311 57.9514 17.3767 57.9516 16.6224 57.952C15.8642 57.9523 15.1059 57.9523 14.3477 57.9521C13.8973 57.9519 13.447 57.952 12.9967 57.9524C12.6956 57.9526 12.3946 57.9526 12.0935 57.9523C11.9221 57.9521 11.7508 57.9521 11.5794 57.9524C10.0782 57.9551 8.63998 57.8065 7.46485 56.772C7.43234 56.7448 7.39983 56.7176 7.36634 56.6896C6.39033 55.851 5.80871 54.6329 5.69765 53.3566C5.6804 53.0713 5.68384 52.7855 5.68416 52.4997C5.68409 52.4264 5.68401 52.3531 5.68391 52.2797C5.68369 52.0782 5.68371 51.8766 5.68378 51.675C5.68381 51.4557 5.68361 51.2364 5.68343 51.0171C5.68313 50.5822 5.68304 50.1472 5.68302 49.7123C5.68298 49.1913 5.68271 48.6703 5.68244 48.1494C5.68181 46.9201 5.68156 45.6909 5.68137 44.4616C5.68128 43.836 5.68113 43.2105 5.68097 42.5849C5.68046 40.5776 5.68002 38.5704 5.67988 36.5631C5.67988 36.4672 5.67987 36.3713 5.67986 36.2754C5.67985 36.0831 5.67984 35.8907 5.67982 35.6984C5.67981 35.4732 5.67979 35.248 5.67978 35.0229C5.67977 34.9584 5.67977 34.894 5.67976 34.8295C5.67962 32.76 5.67901 30.6904 5.67807 28.6209C5.6774 27.1336 5.67677 25.6462 5.67659 24.1588C5.67659 24.1282 5.67658 24.0976 5.67658 24.0661C5.6765 23.3942 5.67645 22.7223 5.67644 22.0504C5.67643 21.81 5.67642 21.5695 5.67641 21.3291C5.67641 21.2693 5.67641 21.2094 5.6764 21.1496C5.67637 20.1975 5.67597 19.2454 5.67538 18.2933C5.67477 17.3072 5.6746 16.3212 5.67494 15.3351C5.67512 14.7669 5.67496 14.1987 5.67432 13.6306C5.67393 13.2507 5.67398 12.8709 5.67438 12.4911C5.6746 12.2749 5.67463 12.0587 5.67412 11.8424C5.67366 11.6453 5.67377 11.4481 5.67431 11.2509C5.6744 11.1805 5.6743 11.11 5.67397 11.0396C5.67106 10.3874 5.7134 9.70699 5.93661 9.08874C5.94865 9.05418 5.9607 9.01962 5.97311 8.98401C6.41956 7.75165 7.33396 6.73858 8.51615 6.17442C9.2644 5.83064 10.0155 5.68239 10.8369 5.68397Z" fill="#165056"/>
<path d="M36.0418 12.4113C36.105 12.4106 36.105 12.4106 36.1695 12.4098C36.2148 12.4099 36.2601 12.41 36.3068 12.4101C36.3536 12.4099 36.4003 12.4097 36.4485 12.4095C36.5474 12.4092 36.6462 12.4093 36.7451 12.4096C36.8964 12.41 37.0476 12.4088 37.1988 12.4075C37.2949 12.4075 37.391 12.4075 37.487 12.4076C37.5323 12.4072 37.5775 12.4067 37.6241 12.4062C37.9378 12.4091 37.9378 12.4091 38.0973 12.5045C38.2285 12.6558 38.2153 12.7595 38.2135 12.9572C38.2131 13.0089 38.2127 13.0606 38.2124 13.1139C38.2119 13.1537 38.2114 13.1936 38.211 13.2346C38.2442 13.2346 38.2774 13.2345 38.3116 13.2345C40.2794 13.2318 42.2471 13.2297 44.2148 13.2285C44.4509 13.2283 44.6871 13.2281 44.9232 13.228C44.9702 13.228 45.0172 13.2279 45.0656 13.2279C45.8274 13.2274 46.5891 13.2264 47.3509 13.2253C48.1322 13.2242 48.9135 13.2235 49.6948 13.2232C50.1771 13.2231 50.6594 13.2226 51.1417 13.2216C51.4722 13.2209 51.8027 13.2207 52.1332 13.2209C52.324 13.221 52.5148 13.2209 52.7057 13.2202C52.8803 13.2196 53.0549 13.2196 53.2295 13.22C53.2927 13.2201 53.356 13.2199 53.4193 13.2195C53.5051 13.219 53.5909 13.2193 53.6768 13.2197C53.7245 13.2197 53.7722 13.2196 53.8214 13.2196C53.9979 13.2407 54.1037 13.305 54.2212 13.4363C54.2965 13.6228 54.2874 13.8032 54.2862 14.0025C54.2863 14.0457 54.2864 14.0888 54.2866 14.1332C54.2866 14.2242 54.2864 14.3153 54.2859 14.4063C54.2853 14.5455 54.2859 14.6847 54.2867 14.8239C54.2866 14.9124 54.2864 15.0009 54.2862 15.0895C54.2865 15.131 54.2867 15.1726 54.287 15.2154C54.2833 15.5857 54.2833 15.5857 54.1491 15.7363C54.0081 15.8282 53.8873 15.8271 53.7214 15.8269C53.6946 15.827 53.6678 15.8271 53.6402 15.8272C53.5499 15.8274 53.4596 15.8271 53.3693 15.8267C53.3041 15.8268 53.2389 15.8268 53.1737 15.8269C52.9942 15.8271 52.8147 15.8268 52.6351 15.8264C52.4417 15.826 52.2482 15.8262 52.0547 15.8262C51.7194 15.8263 51.3841 15.826 51.0488 15.8255C50.564 15.8249 50.0793 15.8247 49.5945 15.8246C48.808 15.8244 48.0215 15.8239 47.235 15.8231C46.4709 15.8224 45.7067 15.8218 44.9426 15.8214C44.8956 15.8214 44.8485 15.8214 44.8 15.8214C44.5638 15.8213 44.3276 15.8212 44.0914 15.8211C42.1312 15.8202 40.1711 15.8188 38.211 15.817C38.211 15.8524 38.2111 15.8877 38.2111 15.9242C38.2148 18.0182 38.2175 20.1123 38.2192 22.2064C38.2194 22.4577 38.2196 22.7089 38.2198 22.9602C38.2199 23.0102 38.2199 23.0603 38.2199 23.1118C38.2207 23.9225 38.2219 24.7332 38.2234 25.5439C38.2249 26.3753 38.2258 27.2067 38.2261 28.0382C38.2264 28.5515 38.2271 29.0648 38.2284 29.5781C38.2292 29.9298 38.2295 30.2815 38.2293 30.6331C38.2292 30.8362 38.2293 31.0393 38.2302 31.2424C38.231 31.4282 38.231 31.614 38.2305 31.7998C38.2304 31.8672 38.2306 31.9345 38.2311 32.0019C38.2318 32.0932 38.2314 32.1845 38.2308 32.2758C38.2309 32.3266 38.2309 32.3774 38.231 32.4297C38.2073 32.5861 38.1597 32.6525 38.0496 32.7639C37.9481 32.8146 37.8765 32.8105 37.7629 32.812C37.6984 32.813 37.6984 32.813 37.6327 32.814C37.4361 32.8158 37.2395 32.8174 37.0429 32.8184C36.9392 32.819 36.8354 32.8201 36.7317 32.8217C36.5823 32.8239 36.4329 32.8248 36.2835 32.8254C36.2371 32.8263 36.1907 32.8272 36.143 32.8281C35.8214 32.8273 35.8214 32.8273 35.6608 32.7096C35.5443 32.5376 35.5428 32.4099 35.5429 32.2063C35.5429 32.178 35.5428 32.1497 35.5428 32.1206C35.5427 32.0252 35.5428 31.9297 35.543 31.8342C35.543 31.7654 35.543 31.6966 35.5429 31.6277C35.5428 31.438 35.543 31.2483 35.5432 31.0585C35.5434 30.8541 35.5433 30.6498 35.5433 30.4454C35.5433 30.0911 35.5434 29.7368 35.5436 29.3825C35.5439 28.8702 35.544 28.3579 35.5441 27.8457C35.5442 27.0146 35.5444 26.1836 35.5448 25.3525C35.5452 24.5451 35.5455 23.7376 35.5457 22.9302C35.5457 22.8804 35.5457 22.8307 35.5457 22.7794C35.5457 22.5299 35.5458 22.2803 35.5458 22.0308C35.5463 19.9595 35.547 17.8883 35.5479 15.817C35.5055 15.8183 35.5055 15.8183 35.4622 15.8196C35.3336 15.8229 35.2049 15.825 35.0763 15.8271C35.0318 15.8285 34.9873 15.8298 34.9414 15.8312C34.6103 15.8352 34.6103 15.8352 34.4508 15.741C34.2677 15.5271 34.2846 15.3058 34.2849 15.0367C34.2847 14.9963 34.2846 14.956 34.2844 14.9144C34.2841 14.8293 34.2841 14.7441 34.2843 14.6589C34.2844 14.5289 34.2835 14.399 34.2825 14.269C34.2824 14.1861 34.2823 14.1032 34.2824 14.0204C34.282 13.9816 34.2816 13.9429 34.2812 13.903C34.2827 13.6921 34.2922 13.5338 34.4181 13.3557C34.5598 13.2434 34.6639 13.2198 34.8425 13.2228C34.8838 13.2232 34.925 13.2236 34.9675 13.224C35.0313 13.2255 35.0313 13.2255 35.0965 13.2271C35.1615 13.2279 35.1615 13.2279 35.2278 13.2287C35.3345 13.2301 35.4412 13.2321 35.5479 13.2346C35.5458 13.1857 35.5458 13.1857 35.5436 13.1358C35.5425 13.0927 35.5414 13.0496 35.5403 13.0051C35.5382 12.9412 35.5382 12.9412 35.5361 12.8761C35.5525 12.7014 35.6117 12.6007 35.7408 12.4834C35.8495 12.4157 35.9143 12.4121 36.0418 12.4113Z" fill="#115056"/>
<path d="M13.978 47.9607C14.0511 47.9604 14.0511 47.9604 14.1258 47.9602C14.2605 47.9598 14.3952 47.9601 14.5299 47.9605C14.6767 47.9608 14.8235 47.9605 14.9704 47.9602C15.2275 47.9598 15.4846 47.9599 15.7416 47.9603C16.124 47.9608 16.5063 47.9607 16.8886 47.9604C17.5714 47.9599 18.2542 47.9601 18.937 47.9606C19.5345 47.961 20.132 47.9612 20.7295 47.9612C20.789 47.9612 20.789 47.9612 20.8496 47.9612C21.0105 47.9611 21.1714 47.9611 21.3323 47.9611C22.8414 47.9609 24.3505 47.9615 25.8596 47.9623C27.2005 47.963 28.5414 47.9633 29.8824 47.9631C29.9685 47.963 30.0546 47.963 30.1407 47.963C30.2045 47.963 30.2045 47.963 30.2697 47.963C30.484 47.963 30.6983 47.9629 30.9126 47.9629C30.9549 47.9629 30.9971 47.9629 31.0407 47.9629C32.1611 47.9627 33.2814 47.9629 34.4018 47.9633C34.5223 47.9633 34.6429 47.9634 34.7634 47.9634C34.8434 47.9634 34.9233 47.9634 35.0033 47.9635C35.5609 47.9636 36.1185 47.9637 36.6761 47.9636C37.3946 47.9635 38.1131 47.9636 38.8316 47.9643C39.2117 47.9646 39.5917 47.9647 39.9717 47.9645C40.2255 47.9644 40.4793 47.9645 40.7331 47.965C40.8777 47.9652 41.0223 47.9653 41.167 47.965C41.3228 47.9648 41.4786 47.9651 41.6344 47.9655C41.6793 47.9653 41.7241 47.9652 41.7704 47.965C42.2163 47.9673 42.5665 48.0276 42.8988 48.3408C43.2177 48.6784 43.2799 48.9393 43.2689 49.4032C43.2359 49.7509 43.0631 50.0004 42.8112 50.2354C42.4648 50.5089 42.106 50.5298 41.6791 50.5281C41.6061 50.5283 41.6061 50.5283 41.5316 50.5285C41.3965 50.5288 41.2615 50.5287 41.1265 50.5284C40.9796 50.5283 40.8327 50.5286 40.6857 50.5288C40.4283 50.5292 40.1708 50.5292 39.9133 50.5291C39.5304 50.5289 39.1475 50.5291 38.7646 50.5294C38.041 50.5301 37.3174 50.5301 36.5938 50.53C36.035 50.53 35.4762 50.53 34.9175 50.5302C34.8372 50.5302 34.757 50.5302 34.6767 50.5303C34.5558 50.5303 34.4349 50.5303 34.3139 50.5304C33.1895 50.5307 32.065 50.5309 30.9405 50.5307C30.8981 50.5307 30.8557 50.5307 30.812 50.5307C30.5971 50.5307 30.3822 50.5306 30.1673 50.5306C30.1246 50.5306 30.0819 50.5306 30.0379 50.5306C29.9516 50.5306 29.8653 50.5306 29.779 50.5305C28.4359 50.5303 27.0929 50.5306 25.7498 50.5314C24.2411 50.5322 22.7325 50.5327 21.2238 50.5325C21.0629 50.5325 20.9021 50.5325 20.7413 50.5325C20.7016 50.5324 20.662 50.5324 20.6212 50.5324C20.0232 50.5324 19.4251 50.5327 18.827 50.5331C18.1469 50.5336 17.4668 50.5336 16.7867 50.5331C16.406 50.5329 16.0254 50.5329 15.6447 50.5335C15.3904 50.5338 15.1362 50.5337 14.8819 50.5332C14.737 50.533 14.5922 50.5329 14.4473 50.5334C14.2911 50.5339 14.1349 50.5335 13.9787 50.5329C13.9339 50.5332 13.8892 50.5335 13.843 50.5338C13.3787 50.5306 13.0085 50.4419 12.67 50.1143C12.4395 49.8746 12.3668 49.571 12.332 49.2468C12.3796 48.8028 12.5293 48.4673 12.8818 48.1826C13.2142 47.9744 13.5968 47.9582 13.978 47.9607Z" fill="#165056"/>
<path d="M13.4857 41.7113C13.5277 41.7111 13.5697 41.7108 13.6129 41.7106C13.6589 41.7108 13.7049 41.7109 13.7523 41.7111C13.8014 41.711 13.8506 41.7108 13.9013 41.7107C14.0382 41.7104 14.1752 41.7104 14.3122 41.7106C14.461 41.7108 14.6099 41.7104 14.7587 41.7102C15.0197 41.7097 15.2808 41.7096 15.5418 41.7097C15.9299 41.7098 16.3181 41.7095 16.7063 41.7091C17.4398 41.7083 18.1733 41.7081 18.9069 41.708C19.4733 41.708 20.0397 41.7078 20.6061 41.7076C20.769 41.7075 20.9319 41.7074 21.0948 41.7073C21.1353 41.7073 21.1758 41.7073 21.2176 41.7073C22.3571 41.7068 23.4966 41.7065 24.6361 41.7065C24.6791 41.7065 24.7221 41.7065 24.7664 41.7065C24.9842 41.7065 25.2021 41.7065 25.4199 41.7065C25.4632 41.7065 25.5065 41.7065 25.5511 41.7065C25.6386 41.7065 25.7261 41.7065 25.8135 41.7065C27.175 41.7066 28.5365 41.706 29.8979 41.7049C31.4269 41.7036 32.9558 41.703 34.4847 41.703C34.6476 41.703 34.8106 41.703 34.9736 41.703C35.0338 41.703 35.0338 41.703 35.0952 41.703C35.7415 41.703 36.3878 41.7025 37.0342 41.7018C37.6835 41.7012 38.3329 41.7011 38.9823 41.7016C39.3682 41.7019 39.7542 41.7018 40.1401 41.701C40.3978 41.7005 40.6556 41.7006 40.9133 41.7012C41.0602 41.7015 41.2071 41.7015 41.354 41.7009C41.5122 41.7002 41.6704 41.7007 41.8287 41.7014C41.8743 41.701 41.9199 41.7006 41.9669 41.7002C42.3622 41.7038 42.6497 41.8157 42.9401 42.0846C43.2187 42.3953 43.2693 42.7036 43.2659 43.1088C43.2387 43.4582 43.0878 43.7241 42.8299 43.9555C42.4994 44.2178 42.1142 44.241 41.7071 44.2385C41.6582 44.2387 41.6092 44.2389 41.5587 44.2391C41.4232 44.2395 41.2878 44.2393 41.1523 44.239C41.0047 44.2387 40.8572 44.2391 40.7096 44.2395C40.4511 44.24 40.1927 44.24 39.9342 44.2398C39.5498 44.2394 39.1655 44.2397 38.7811 44.2402C38.0946 44.241 37.4081 44.2411 36.7216 44.2409C36.1208 44.2407 35.52 44.2407 34.9192 44.2409C34.8386 44.241 34.758 44.241 34.6774 44.241C34.556 44.2411 34.4346 44.2411 34.3132 44.2412C33.1842 44.2416 32.0553 44.2418 30.9264 44.2415C30.8838 44.2415 30.8413 44.2415 30.7974 44.2414C30.4518 44.2413 30.1062 44.2412 29.7606 44.2411C28.4124 44.2407 27.0642 44.2411 25.7159 44.242C24.2012 44.2431 22.6866 44.2436 21.1719 44.2433C21.0104 44.2433 20.8489 44.2432 20.6875 44.2432C20.6477 44.2432 20.6079 44.2432 20.567 44.2432C19.9666 44.2431 19.3662 44.2434 18.7658 44.2439C18.0831 44.2445 17.4004 44.2446 16.7177 44.2439C16.3356 44.2435 15.9535 44.2435 15.5715 44.2442C15.3162 44.2447 15.061 44.2445 14.8058 44.2438C14.6603 44.2435 14.5149 44.2434 14.3695 44.244C14.2127 44.2447 14.056 44.2441 13.8992 44.2434C13.8543 44.2438 13.8093 44.2442 13.763 44.2446C13.3345 44.2406 12.9795 44.1305 12.6673 43.8312C12.4386 43.5625 12.3316 43.253 12.3382 42.9011C12.3686 42.5787 12.4954 42.2865 12.7098 42.0443C12.9412 41.8538 13.1804 41.7115 13.4857 41.7113Z" fill="#165056"/>
<path d="M13.4777 35.7797C13.5048 35.7796 13.532 35.7795 13.56 35.7793C13.6507 35.7789 13.7415 35.7791 13.8322 35.7793C13.898 35.7792 13.9639 35.779 14.0297 35.7788C14.2104 35.7783 14.3911 35.7783 14.5718 35.7784C14.7667 35.7784 14.9617 35.778 15.1566 35.7776C15.5385 35.7769 15.9204 35.7767 16.3023 35.7766C16.6127 35.7766 16.9232 35.7764 17.2336 35.7762C18.1139 35.7755 18.9942 35.7751 19.8745 35.7752C19.922 35.7752 19.9694 35.7752 20.0183 35.7752C20.0896 35.7752 20.0896 35.7752 20.1623 35.7752C20.9322 35.7752 21.7021 35.7744 22.472 35.7733C23.2627 35.7721 24.0534 35.7716 24.8441 35.7716C25.2879 35.7717 25.7318 35.7715 26.1757 35.7706C26.5536 35.7699 26.9315 35.7697 27.3094 35.7702C27.5022 35.7705 27.6949 35.7705 27.8877 35.7698C28.0643 35.7692 28.2409 35.7693 28.4175 35.77C28.4812 35.7701 28.545 35.77 28.6087 35.7695C29.0542 35.7666 29.4537 35.7895 29.796 36.1028C30.0949 36.4305 30.1607 36.7674 30.1525 37.1987C30.1374 37.5262 30.0037 37.7823 29.7807 38.0191C29.4832 38.2732 29.1597 38.3371 28.7775 38.3373C28.7508 38.3374 28.724 38.3375 28.6965 38.3376C28.607 38.3377 28.5175 38.3376 28.428 38.3375C28.3631 38.3376 28.2983 38.3377 28.2334 38.3378C28.0552 38.3381 27.877 38.3381 27.6989 38.338C27.5067 38.338 27.3145 38.3382 27.1223 38.3384C26.7458 38.3388 26.3693 38.3389 25.9928 38.3389C25.6868 38.3389 25.3808 38.339 25.0748 38.3391C24.2072 38.3395 23.3397 38.3397 22.4722 38.3396C22.4254 38.3396 22.3786 38.3396 22.3304 38.3396C22.2602 38.3396 22.2602 38.3396 22.1885 38.3396C21.4295 38.3396 20.6705 38.34 19.9115 38.3406C19.1322 38.3411 18.3529 38.3414 17.5736 38.3414C17.1361 38.3414 16.6985 38.3415 16.261 38.3419C15.8885 38.3423 15.516 38.3424 15.1434 38.3421C14.9534 38.342 14.7634 38.342 14.5733 38.3423C14.3993 38.3426 14.2252 38.3426 14.0512 38.3422C13.9883 38.3422 13.9254 38.3422 13.8625 38.3425C13.3703 38.3441 12.9423 38.3327 12.5615 37.9879C12.3083 37.7189 12.2171 37.4268 12.2061 37.0611C12.2196 36.6275 12.3549 36.3295 12.6701 36.0322C12.918 35.836 13.1652 35.7801 13.4777 35.7797Z" fill="#165056"/>
<path d="M13.5503 29.8787C13.607 29.8785 13.6636 29.8783 13.7202 29.878C13.8753 29.8773 14.0304 29.8776 14.1854 29.8781C14.3529 29.8785 14.5203 29.8779 14.6878 29.8775C15.0156 29.8768 15.3434 29.8769 15.6712 29.8774C15.9377 29.8777 16.2041 29.8778 16.4706 29.8776C16.5085 29.8776 16.5465 29.8776 16.5855 29.8775C16.6626 29.8775 16.7397 29.8774 16.8168 29.8774C17.5393 29.8769 18.2618 29.8774 18.9843 29.8783C19.6042 29.879 20.224 29.8789 20.8438 29.8782C21.5638 29.8773 22.2837 29.877 23.0037 29.8775C23.0805 29.8775 23.1573 29.8776 23.234 29.8776C23.2907 29.8776 23.2907 29.8776 23.3485 29.8777C23.6146 29.8778 23.8807 29.8776 24.1468 29.8772C24.4711 29.8768 24.7955 29.8769 25.1198 29.8777C25.2852 29.8782 25.4507 29.8783 25.6161 29.8778C25.7676 29.8773 25.9192 29.8776 26.0707 29.8784C26.1513 29.8787 26.2319 29.8782 26.3125 29.8776C26.6429 29.8805 26.8599 29.9195 27.1222 30.1314C27.4293 30.4833 27.5145 30.8568 27.4935 31.3166C27.458 31.6833 27.3301 31.9312 27.0867 32.2042C26.8024 32.4367 26.5119 32.4182 26.1591 32.4165C26.1025 32.4167 26.0459 32.4169 25.9893 32.4172C25.8342 32.4178 25.679 32.4176 25.5239 32.4173C25.3564 32.4171 25.1889 32.4176 25.0214 32.418C24.6935 32.4187 24.3655 32.4188 24.0376 32.4185C23.771 32.4184 23.5044 32.4184 23.2379 32.4187C23.1999 32.4187 23.162 32.4187 23.1229 32.4188C23.0458 32.4188 22.9687 32.4189 22.8916 32.4189C22.1688 32.4195 21.446 32.4193 20.7232 32.4188C20.062 32.4184 19.4008 32.4189 18.7396 32.4199C18.0606 32.4209 17.3816 32.4213 16.7026 32.421C16.3214 32.4209 15.9402 32.4209 15.559 32.4217C15.2346 32.4222 14.9101 32.4223 14.5856 32.4216C14.4201 32.4212 14.2546 32.4211 14.089 32.4218C13.9374 32.4223 13.7859 32.4221 13.6342 32.4213C13.5536 32.4211 13.4729 32.4217 13.3923 32.4223C13.0618 32.4196 12.8449 32.3807 12.5824 32.1687C12.2753 31.8168 12.1903 31.4434 12.2109 30.9836C12.2444 30.6417 12.3575 30.3891 12.5824 30.1314C12.8914 29.8818 13.1656 29.8761 13.5503 29.8787Z" fill="#165056"/>
<path d="M40.4502 16.8605C40.5196 16.8602 40.5196 16.8602 40.5904 16.8598C40.6414 16.8598 40.6925 16.8597 40.7451 16.8597C40.7997 16.8595 40.8543 16.8593 40.9089 16.8591C41.0593 16.8585 41.2097 16.8582 41.36 16.8579C41.4889 16.8577 41.6178 16.8573 41.7467 16.8569C42.1715 16.8555 42.5962 16.8546 43.0209 16.8539C43.1315 16.8537 43.2421 16.8535 43.3527 16.8533C44.0394 16.8521 44.726 16.851 45.4127 16.8503C45.5717 16.8501 45.7308 16.85 45.8899 16.8498C45.9294 16.8498 45.969 16.8497 46.0097 16.8497C46.6501 16.849 47.2906 16.8473 47.931 16.8453C48.5885 16.8432 49.2459 16.842 49.9034 16.8417C50.2725 16.8415 50.6417 16.841 51.0109 16.8393C51.3253 16.8379 51.6397 16.8374 51.9541 16.8379C52.1145 16.8381 52.2748 16.838 52.4352 16.8368C52.5822 16.8356 52.7291 16.8357 52.8761 16.8366C52.9542 16.8368 53.0322 16.8358 53.1103 16.8347C53.4259 16.8381 53.6308 16.8932 53.8672 17.1083C54.101 17.39 54.1213 17.68 54.1198 18.0307C54.12 18.0701 54.1201 18.1095 54.1203 18.1501C54.1207 18.2817 54.1205 18.4134 54.1204 18.545C54.1205 18.6395 54.1208 18.734 54.121 18.8286C54.1215 19.0851 54.1216 19.3416 54.1215 19.5981C54.1214 19.8394 54.1217 20.0807 54.1219 20.322C54.1223 20.8291 54.1222 21.3361 54.122 21.8432C54.1218 22.3068 54.1222 22.7703 54.123 23.2339C54.1238 23.7103 54.1241 24.1867 54.124 24.6631C54.1239 24.9303 54.124 25.1976 54.1246 25.4649C54.1251 25.7163 54.125 25.9676 54.1245 26.2189C54.1244 26.3111 54.1245 26.4033 54.1248 26.4955C54.1252 26.6215 54.1249 26.7474 54.1244 26.8734C54.1247 26.9097 54.125 26.9461 54.1253 26.9836C54.1225 27.3125 54.035 27.5796 53.8268 27.8413C53.6289 27.9908 53.4888 28.048 53.243 28.0486C53.1969 28.0488 53.1507 28.049 53.1032 28.0492C53.0523 28.0492 53.0013 28.0492 52.9489 28.0492C52.8944 28.0494 52.8399 28.0496 52.7855 28.0498C52.6355 28.0503 52.4855 28.0505 52.3355 28.0507C52.1738 28.0509 52.0122 28.0514 51.8505 28.0518C51.46 28.0528 51.0694 28.0534 50.6789 28.0539C50.5686 28.0541 50.4583 28.0542 50.348 28.0544C49.6632 28.0554 48.9785 28.0563 48.2937 28.0568C48.1351 28.0569 47.9764 28.057 47.8178 28.0571C47.7784 28.0572 47.739 28.0572 47.6983 28.0572C47.0596 28.0577 46.4208 28.0591 45.782 28.0608C45.1264 28.0625 44.4707 28.0634 43.815 28.0636C43.4468 28.0638 43.0786 28.0643 42.7104 28.0656C42.3969 28.0667 42.0833 28.0672 41.7698 28.0667C41.6098 28.0665 41.4499 28.0666 41.2899 28.0676C41.1433 28.0685 40.9968 28.0685 40.8503 28.0677C40.7724 28.0676 40.6944 28.0684 40.6165 28.0693C40.2893 28.0663 40.0811 28.012 39.8451 27.7816C39.6243 27.5348 39.6119 27.3158 39.613 27C39.6128 26.9597 39.6126 26.9194 39.6124 26.8779C39.6119 26.7426 39.612 26.6074 39.612 26.4722C39.6118 26.3753 39.6115 26.2784 39.6112 26.1815C39.6106 25.9455 39.6103 25.7095 39.6103 25.4735C39.6102 25.2816 39.6101 25.0897 39.6098 24.8979C39.6091 24.3536 39.6087 23.8094 39.6088 23.2652C39.6088 23.2359 39.6088 23.2065 39.6088 23.1763C39.6088 23.147 39.6088 23.1176 39.6088 23.0873C39.6088 22.6115 39.6081 22.1357 39.6069 21.6599C39.6058 21.1711 39.6052 20.6823 39.6053 20.1935C39.6053 19.9192 39.6051 19.6448 39.6042 19.3705C39.6034 19.1125 39.6034 18.8545 39.604 18.5964C39.6041 18.5018 39.6039 18.4071 39.6034 18.3124C39.6028 18.1831 39.6032 18.0538 39.6038 17.9245C39.6034 17.8871 39.603 17.8497 39.6025 17.8112C39.6056 17.5257 39.6754 17.3117 39.8673 17.0971C39.8943 17.075 39.9213 17.0529 39.9491 17.0301C39.9762 17.0072 40.0033 16.9844 40.0312 16.9609C40.1687 16.8635 40.2869 16.861 40.4502 16.8605ZM40.3894 17.7092C40.3625 17.7476 40.3625 17.7476 40.3349 17.7866C40.3163 17.8119 40.2977 17.8371 40.2785 17.8631C40.1521 18.0994 40.1365 18.3273 40.1375 18.5894C40.1373 18.6238 40.1371 18.6582 40.137 18.6937C40.1364 18.8084 40.1365 18.9231 40.1366 19.0378C40.1363 19.1203 40.1361 19.2028 40.1358 19.2852C40.135 19.5089 40.1348 19.7326 40.1348 19.9563C40.1347 20.0961 40.1346 20.236 40.1344 20.3758C40.1336 20.8639 40.1333 21.3521 40.1333 21.8402C40.1334 22.2948 40.1325 22.7493 40.1313 23.2039C40.1302 23.5946 40.1298 23.9852 40.1298 24.3759C40.1298 24.609 40.1296 24.8422 40.1288 25.0753C40.128 25.2947 40.128 25.514 40.1286 25.7334C40.1286 25.8137 40.1285 25.894 40.128 25.9743C40.1149 26.6279 40.1149 26.6279 40.4106 27.1932C40.6098 27.3576 40.7326 27.4427 40.9969 27.4432C41.0391 27.4434 41.0813 27.4436 41.1248 27.4437C41.1714 27.4437 41.2179 27.4437 41.2658 27.4437C41.3151 27.4439 41.3644 27.444 41.4152 27.4442C41.5524 27.4445 41.6895 27.4447 41.8266 27.4448C41.9744 27.445 42.1222 27.4454 42.27 27.4457C42.627 27.4465 42.984 27.4469 43.3411 27.4473C43.5092 27.4475 43.6773 27.4477 43.8454 27.4479C44.4043 27.4486 44.9631 27.4492 45.522 27.4495C45.667 27.4495 45.812 27.4496 45.9571 27.4497C45.9931 27.4497 46.0292 27.4497 46.0663 27.4497C46.6503 27.4501 47.2343 27.4511 47.8182 27.4524C48.4177 27.4537 49.0172 27.4545 49.6167 27.4546C49.9534 27.4547 50.29 27.455 50.6266 27.4561C50.9133 27.457 51.1999 27.4573 51.4866 27.4569C51.6329 27.4567 51.7791 27.4568 51.9253 27.4576C52.084 27.4584 52.2426 27.458 52.4012 27.4575C52.4473 27.4579 52.4934 27.4583 52.5409 27.4588C52.8454 27.4563 53.0744 27.4167 53.3032 27.1985C53.3212 27.1726 53.3392 27.1467 53.3578 27.12C53.3764 27.0943 53.395 27.0686 53.4142 27.0422C53.5398 26.8173 53.5562 26.6128 53.5552 26.3619C53.5555 26.3098 53.5555 26.3098 53.5557 26.2568C53.5563 26.1408 53.5562 26.0248 53.5561 25.9089C53.5564 25.8256 53.5566 25.7423 53.5569 25.6591C53.5577 25.4331 53.5578 25.2071 53.5579 24.981C53.558 24.8398 53.5581 24.6985 53.5583 24.5572C53.5591 24.0641 53.5594 23.571 53.5593 23.0779C53.5593 22.6186 53.5602 22.1594 53.5614 21.7001C53.5625 21.3055 53.5629 20.9109 53.5629 20.5163C53.5628 20.2808 53.5631 20.0452 53.5639 19.8097C53.5647 19.588 53.5647 19.3664 53.5641 19.1448C53.564 19.0636 53.5642 18.9825 53.5647 18.9013C53.5887 18.2655 53.5887 18.2655 53.3112 17.717C53.133 17.5527 52.9763 17.4614 52.7305 17.461C52.6881 17.4608 52.6457 17.4605 52.6019 17.4602C52.5554 17.4604 52.5088 17.4605 52.4608 17.4606C52.3866 17.4603 52.3866 17.4603 52.3108 17.4601C52.1733 17.4596 52.0358 17.4596 51.8984 17.4597C51.7501 17.4597 51.6018 17.4592 51.4536 17.4589C51.1631 17.4582 50.8726 17.458 50.5821 17.4579C50.3459 17.4579 50.1097 17.4577 49.8736 17.4575C49.2041 17.4567 48.5346 17.4564 47.8651 17.4564C47.829 17.4564 47.7929 17.4564 47.7557 17.4564C47.7195 17.4565 47.6834 17.4565 47.6462 17.4565C47.0605 17.4565 46.4748 17.4557 45.8891 17.4546C45.2878 17.4534 44.6865 17.4529 44.0852 17.4529C43.7476 17.453 43.41 17.4527 43.0723 17.4519C42.7848 17.4511 42.4974 17.451 42.2099 17.4515C42.0632 17.4518 41.9166 17.4518 41.7699 17.4511C41.6109 17.4503 41.4518 17.4508 41.2927 17.4514C41.2465 17.451 41.2003 17.4506 41.1527 17.4502C40.8475 17.4528 40.6204 17.493 40.3894 17.7092Z" fill="#115056"/>
<path d="M20.1592 12.7341C20.256 12.7504 20.256 12.7504 20.3367 12.8311C20.339 12.9482 20.339 12.9482 20.3273 13.0976C20.3241 13.1379 20.3241 13.1379 20.3209 13.1791C20.2951 13.4864 20.251 13.7911 20.2056 14.096C20.1967 14.157 20.1878 14.2179 20.1789 14.2789C20.1558 14.4374 20.1324 14.5959 20.1089 14.7544C20.085 14.916 20.0615 15.0775 20.0379 15.2391C20.0033 15.4751 19.9687 15.7111 19.9338 15.947C19.9234 16.0177 19.9234 16.0177 19.9128 16.0898C19.8995 16.1772 19.8853 16.2645 19.8705 16.3517C19.8526 16.462 19.8471 16.5654 19.8475 16.6769C19.8474 16.7117 19.8473 16.7465 19.8472 16.7824C19.8432 16.8657 19.8432 16.8657 19.8929 16.9064C19.9964 16.9106 20.0988 16.9122 20.2023 16.9122C20.2347 16.9123 20.2671 16.9124 20.3005 16.9126C20.3712 16.9129 20.4418 16.9131 20.5124 16.9132C20.6242 16.9135 20.7359 16.9142 20.8477 16.9149C21.1655 16.917 21.4833 16.919 21.8011 16.9196C21.9952 16.92 22.1894 16.9212 22.3836 16.9229C22.4577 16.9234 22.5317 16.9236 22.6058 16.9235C22.7095 16.9234 22.8131 16.9243 22.9168 16.9254C22.9628 16.925 22.9628 16.925 23.0097 16.9246C23.1505 16.9271 23.2284 16.9367 23.3427 17.022C23.4033 17.1082 23.4033 17.1082 23.4064 17.2177C23.3476 17.3969 23.2548 17.5393 23.1511 17.6958C23.1065 17.7647 23.062 17.8336 23.0174 17.9026C22.9944 17.938 22.9714 17.9735 22.9476 18.0101C22.8383 18.1796 22.7324 18.3512 22.6266 18.5229C22.6051 18.5577 22.5836 18.5925 22.5614 18.6283C22.4403 18.8244 22.3195 19.0207 22.1988 19.2171C21.9114 19.6848 21.6228 20.1516 21.3313 20.6167C21.0898 21.0026 20.8513 21.3904 20.613 21.7783C20.4718 22.0082 20.33 22.2378 20.1879 22.4671C20.1668 22.5012 20.1457 22.5353 20.1239 22.5704C20.0383 22.7087 19.9526 22.8469 19.8669 22.9852C19.595 23.4236 19.324 23.8626 19.0553 24.303C19.0395 24.3287 19.0237 24.3544 19.0075 24.3808C18.9698 24.4435 18.9347 24.5077 18.9 24.5721C18.8815 24.599 18.8629 24.6259 18.8438 24.6536C18.7152 24.6662 18.7152 24.6662 18.6017 24.6536C18.4988 24.4807 18.5289 24.3606 18.5753 24.1761C18.5852 24.1393 18.5952 24.1024 18.6055 24.0644C18.6157 24.0245 18.626 23.9846 18.6365 23.9435C18.6714 23.8085 18.7071 23.6737 18.7429 23.5389C18.7678 23.4431 18.7927 23.3472 18.8175 23.2513C18.9724 22.6551 19.1318 22.06 19.2907 21.4649C19.3213 21.3505 19.3518 21.2361 19.3823 21.1217C19.4026 21.0455 19.4229 20.9692 19.4433 20.893C19.4533 20.8552 19.4634 20.8175 19.4737 20.7787C19.5343 20.5516 19.5953 20.3245 19.6566 20.0976C19.6953 19.9543 19.7336 19.811 19.7719 19.6676C19.7899 19.6004 19.8081 19.5332 19.8264 19.4661C19.8516 19.3734 19.8764 19.2807 19.901 19.1878C19.9085 19.161 19.9159 19.1342 19.9235 19.1066C19.9686 18.9348 19.9836 18.7785 19.9736 18.6011C19.8916 18.5191 19.7209 18.5546 19.6083 18.5544C19.5743 18.5542 19.5402 18.554 19.5051 18.5538C19.4309 18.5534 19.3567 18.553 19.2825 18.5527C19.1652 18.5523 19.0479 18.5515 18.9306 18.5506C18.5969 18.5481 18.2632 18.5459 17.9295 18.5446C17.7257 18.5437 17.5218 18.5423 17.318 18.5405C17.2401 18.5399 17.1623 18.5396 17.0845 18.5395C16.9757 18.5393 16.8669 18.5383 16.7581 18.5372C16.7096 18.5374 16.7096 18.5374 16.6602 18.5376C16.4431 18.5343 16.4431 18.5343 16.3412 18.4646C16.3017 18.3994 16.3017 18.3994 16.3031 18.307C16.3531 18.1665 16.4322 18.0578 16.5213 17.9401C16.5584 17.8896 16.5955 17.839 16.6324 17.7884C16.6514 17.7626 16.6703 17.7367 16.6898 17.7101C16.7765 17.5898 16.8589 17.4667 16.9409 17.343C16.9572 17.3184 16.9736 17.2937 16.9905 17.2683C17.0247 17.2167 17.0589 17.1651 17.093 17.1135C17.1889 16.9685 17.2852 16.8238 17.3814 16.6792C17.4017 16.6486 17.422 16.618 17.443 16.5866C17.7973 16.0542 18.1564 15.5249 18.5146 14.9951C18.6549 14.7877 18.7949 14.5801 18.9348 14.3725C19.0263 14.2365 19.1179 14.1007 19.2095 13.9648C19.2525 13.901 19.2954 13.8372 19.3383 13.7734C19.4519 13.6045 19.5661 13.4361 19.6812 13.2682C19.7295 13.1971 19.777 13.1256 19.8244 13.0539C19.8522 13.0131 19.8801 12.9723 19.9088 12.9303C19.944 12.8776 19.944 12.8776 19.98 12.8238C20.0543 12.7504 20.0543 12.7504 20.1592 12.7341Z" fill="#115056"/>
<path d="M47.0077 18.8432C47.1122 18.8956 47.195 18.9656 47.2826 19.0424C47.3065 19.0623 47.3305 19.0822 47.3551 19.1028C47.4041 19.1436 47.4529 19.1848 47.5013 19.2263C47.6093 19.3183 47.7197 19.4071 47.8298 19.4964C47.8921 19.5476 47.9543 19.5988 48.0164 19.6502C48.0198 19.6061 48.0231 19.562 48.0265 19.5165C48.0568 19.3677 48.0568 19.3677 48.1212 19.2989C48.2544 19.2272 48.3584 19.231 48.5093 19.2306C48.5512 19.2304 48.5512 19.2304 48.594 19.2303C48.653 19.2302 48.712 19.2304 48.7709 19.2309C48.8608 19.2316 48.9507 19.2309 49.0406 19.2301C49.098 19.2302 49.1555 19.2304 49.2129 19.2306C49.2649 19.2307 49.3169 19.2309 49.3705 19.231C49.5176 19.2476 49.5942 19.2788 49.7111 19.3677C49.7581 19.4618 49.7564 19.5159 49.7561 19.6206C49.7561 19.6561 49.7561 19.6916 49.7561 19.7283C49.7558 19.7667 49.7556 19.8051 49.7554 19.8447C49.7553 19.9036 49.7553 19.9036 49.7553 19.9638C49.755 20.0896 49.7545 20.2154 49.754 20.3412C49.7538 20.4263 49.7536 20.5115 49.7535 20.5967C49.753 20.8057 49.7523 21.0148 49.7515 21.2238C49.7756 21.2351 49.7998 21.2464 49.8247 21.2581C49.9535 21.3259 50.0555 21.4217 50.1625 21.5189C50.1846 21.538 50.2066 21.5571 50.2293 21.5768C50.3263 21.6646 50.3914 21.7323 50.4352 21.8568C50.4383 21.9857 50.3913 22.0493 50.3164 22.1519C50.2357 22.2326 50.2357 22.2326 50.1227 22.2474C49.9628 22.229 49.9046 22.1815 49.7843 22.0762C49.7504 22.0472 49.7165 22.0182 49.6817 21.9883C49.6626 21.9702 49.6436 21.9521 49.624 21.9335C49.5464 21.8637 49.5464 21.8637 49.4371 21.7957C49.1351 21.5759 49.1351 21.5759 49.0827 21.3786C49.0505 21.1307 49.0654 20.8826 49.0782 20.6337C49.0804 20.5578 49.0824 20.4819 49.0842 20.406C49.0891 20.2211 49.0967 20.0366 49.1059 19.8519C48.9594 19.8519 48.813 19.8519 48.662 19.8519C48.6639 19.8938 48.6658 19.9356 48.6677 19.9787C48.6692 20.0339 48.6707 20.0892 48.6721 20.1445C48.6735 20.172 48.6748 20.1995 48.6762 20.2278C48.6789 20.3675 48.6734 20.4422 48.588 20.5551C48.4736 20.6383 48.4 20.6561 48.2585 20.6589C48.0463 20.5729 47.8943 20.4417 47.7264 20.2907C47.6731 20.2437 47.6197 20.1968 47.5663 20.1498C47.5401 20.1267 47.514 20.1037 47.487 20.0799C47.3797 19.9856 47.2711 19.8931 47.1615 19.8015C47.1277 19.773 47.0938 19.7445 47.0589 19.7151C46.9673 19.6501 46.9162 19.6233 46.806 19.6098C46.7051 19.6839 46.6173 19.7572 46.526 19.8418C46.4715 19.8908 46.417 19.9397 46.3624 19.9886C46.3352 20.0133 46.3079 20.0379 46.2799 20.0634C46.1673 20.1644 46.0519 20.2617 45.9359 20.3588C45.7769 20.4927 45.6186 20.6275 45.461 20.7631C45.1344 21.0443 44.8025 21.318 44.4657 21.587C44.5051 21.6141 44.5444 21.6413 44.585 21.6693C44.6923 21.7593 44.7062 21.7813 44.7369 21.9263C44.7364 21.9789 44.7358 22.0315 44.7353 22.0857C44.7353 22.1153 44.7353 22.145 44.7353 22.1755C44.7352 22.2709 44.7333 22.3662 44.7314 22.4616C44.7311 22.5207 44.7308 22.5798 44.7307 22.6388C44.7294 22.8573 44.726 23.0758 44.7229 23.2943C44.7179 23.7828 44.7129 24.2713 44.7078 24.7746C46.1592 24.7746 47.6105 24.7746 49.1059 24.7746C49.1059 24.3086 49.1059 23.8425 49.1059 23.3624C49.2673 23.201 49.2673 23.201 49.3494 23.1809C49.5699 23.1873 49.5699 23.1873 49.6683 23.2539C49.7431 23.3727 49.7567 23.4762 49.758 23.6129C49.7584 23.6469 49.7588 23.681 49.7592 23.7161C49.7594 23.7712 49.7594 23.7712 49.7597 23.8273C49.7599 23.8652 49.7601 23.903 49.7604 23.9421C49.7608 24.0222 49.761 24.1023 49.7612 24.1824C49.7616 24.3048 49.7628 24.4271 49.7641 24.5495C49.7644 24.6274 49.7646 24.7052 49.7647 24.7831C49.7652 24.8196 49.7657 24.8562 49.7662 24.8938C49.7655 25.1084 49.7497 25.2606 49.5901 25.4202C49.5204 25.4243 49.4506 25.4256 49.3808 25.4259C49.3354 25.4261 49.29 25.4263 49.2433 25.4266C49.168 25.4266 49.168 25.4266 49.0911 25.4267C49.0385 25.4269 48.986 25.4271 48.9319 25.4273C48.7873 25.4278 48.6427 25.4281 48.4982 25.4283C48.4079 25.4284 48.3177 25.4286 48.2275 25.4287C47.9453 25.4293 47.6632 25.4297 47.3811 25.4298C47.055 25.43 46.729 25.4307 46.4029 25.4319C46.1511 25.4328 45.8994 25.4332 45.6476 25.4332C45.4971 25.4333 45.3466 25.4335 45.1961 25.4342C45.0283 25.435 44.8605 25.4348 44.6927 25.4346C44.6426 25.4349 44.5925 25.4353 44.541 25.4357C44.4954 25.4355 44.4498 25.4353 44.4028 25.435C44.3631 25.4351 44.3234 25.4351 44.2825 25.4352C44.1832 25.4202 44.1832 25.4202 44.1099 25.3669C44.0319 25.2561 44.0464 25.1344 44.0484 25.0039C44.0484 24.959 44.0484 24.959 44.0484 24.9132C44.0485 24.8143 44.0494 24.7154 44.0504 24.6165C44.0506 24.5479 44.0508 24.4793 44.0509 24.4108C44.0513 24.2303 44.0525 24.0498 44.0539 23.8693C44.0551 23.6851 44.0557 23.5009 44.0563 23.3167C44.0576 22.9553 44.0596 22.594 44.0622 22.2326C44.023 22.2335 43.9838 22.2345 43.9434 22.2355C43.8666 22.2366 43.8666 22.2366 43.7882 22.2378C43.712 22.2392 43.712 22.2392 43.6342 22.2407C43.4973 22.2326 43.4973 22.2326 43.3611 22.1493C43.2783 21.9997 43.2754 21.9178 43.2955 21.7484C43.3664 21.6605 43.4243 21.6012 43.5099 21.5315C43.5318 21.5126 43.5537 21.4936 43.5763 21.4741C43.6434 21.4166 43.7113 21.3604 43.7797 21.3045C43.8368 21.2575 43.8368 21.2575 43.8951 21.2095C43.9679 21.1501 44.0409 21.0909 44.114 21.032C44.2279 20.9378 44.3368 20.8397 44.4455 20.7396C44.6259 20.5736 44.8123 20.418 45.003 20.2641C45.1091 20.1765 45.2113 20.0859 45.313 19.9932C45.45 19.8683 45.5899 19.749 45.7342 19.6325C45.8915 19.5055 46.0421 19.3738 46.1906 19.2366C46.6854 18.7861 46.6854 18.7861 47.0077 18.8432Z" fill="#115056"/>
</svg>
