<svg width="22" height="16" viewBox="0 0 22 16" fill="none" xmlns="http://www.w3.org/2000/svg">
<path fill-rule="evenodd" clip-rule="evenodd" d="M18.1837 0.912245L11 0.749756L3.81627 0.912245C2.48511 0.942354 1.35801 1.90297 1.11732 3.21254C0.5356 6.37764 0.5356 9.62226 1.11732 12.7874C1.35801 14.0969 2.48511 15.0575 3.81627 15.0876L11 15.2501L18.1837 15.0876C19.5149 15.0575 20.642 14.0969 20.8827 12.7874C21.4644 9.62226 21.4644 6.37764 20.8827 3.21254C20.642 1.90297 19.5149 0.942354 18.1837 0.912245ZM3.85019 2.41186L11 2.25014L18.1498 2.41186C18.7701 2.42589 19.2952 2.87349 19.4074 3.48369C19.5607 4.31767 19.6711 5.15752 19.7388 5.99994H2.26121C2.32886 5.15752 2.43933 4.31767 2.59261 3.48369C2.70476 2.87349 3.22993 2.42589 3.85019 2.41186ZM2.18103 7.99994C2.18103 9.51161 2.31822 11.0233 2.59261 12.5162C2.70476 13.1264 3.22993 13.574 3.85019 13.588L11 13.7498L18.1498 13.588C18.7701 13.574 19.2952 13.1264 19.4074 12.5162C19.6818 11.0233 19.819 9.51161 19.819 7.99994H2.18103Z" fill="black" fill-opacity="0.658824"/>
</svg>
