<svg width="20" height="20" viewBox="0 0 20 20" fill="none" xmlns="http://www.w3.org/2000/svg">
<path d="M6.8901 13.4026C6.3419 13.4697 5.95185 13.9684 6.01889 14.5166C6.08593 15.0648 6.58469 15.4549 7.13289 15.3879C7.68109 15.3208 8.07114 14.8221 8.0041 14.2739C7.93706 13.7257 7.4383 13.3356 6.8901 13.4026Z" fill="black" fill-opacity="0.658824"/>
<path d="M3.54813 10.789C3.48108 10.2408 3.87114 9.74206 4.41934 9.67502C4.96754 9.60797 5.46629 9.99803 5.53334 10.5462C5.60038 11.0944 5.21032 11.5932 4.66212 11.6602C4.11392 11.7273 3.61517 11.3372 3.54813 10.789Z" fill="black" fill-opacity="0.658824"/>
<path d="M5.91897 5.46182C5.37077 5.52886 4.98072 6.02762 5.04776 6.57582C5.1148 7.12402 5.61356 7.51407 6.16176 7.44703C6.70996 7.37999 7.10001 6.88123 7.03297 6.33303C6.96593 5.78483 6.46717 5.39478 5.91897 5.46182Z" fill="black" fill-opacity="0.658824"/>
<path d="M13.6973 7.28105C13.6303 6.73285 14.0203 6.23409 14.5685 6.16705C15.1167 6.10001 15.6155 6.49006 15.6825 7.03826C15.7496 7.58646 15.3595 8.08522 14.8113 8.15226C14.2631 8.2193 13.7644 7.82925 13.6973 7.28105Z" fill="black" fill-opacity="0.658824"/>
<path d="M9.99264 8.87857C9.44444 8.94561 9.05439 9.44436 9.12143 9.99257C9.18847 10.5408 9.68723 10.9308 10.2354 10.8638C10.7836 10.7967 11.1737 10.298 11.1066 9.74978C11.0396 9.20158 10.5408 8.81153 9.99264 8.87857Z" fill="black" fill-opacity="0.658824"/>
<path d="M9.3931 5.03694C9.32605 4.48874 9.71611 3.98998 10.2643 3.92294C10.8125 3.8559 11.3113 4.24595 11.3783 4.79415C11.4453 5.34235 11.0553 5.84111 10.5071 5.90815C9.95889 5.97519 9.46014 5.58514 9.3931 5.03694Z" fill="black" fill-opacity="0.658824"/>
<path fill-rule="evenodd" clip-rule="evenodd" d="M0.252921 9.76365C0.383417 4.38046 4.85315 0.122303 10.2363 0.252799C15.6195 0.383295 19.8777 4.85302 19.7472 10.2362C19.7389 10.5772 19.6243 10.8886 19.4132 11.1451C19.2113 11.3903 18.9499 11.5512 18.6919 11.6589C18.1899 11.8684 17.5606 11.9341 16.9379 11.9384C14.2493 11.9565 11.9139 14.2692 11.7613 16.9967C11.7257 17.633 11.6172 18.2803 11.3433 18.7888C11.2015 19.0521 11.0023 19.3027 10.7234 19.484C10.4378 19.6697 10.1102 19.7555 9.76377 19.7471C4.38058 19.6166 0.122425 15.1468 0.252921 9.76365ZM10.2 1.75236C5.64498 1.64194 1.8629 5.24499 1.75248 9.8C1.64206 14.355 5.24511 18.1371 9.80013 18.2475C9.86822 18.2492 9.89341 18.2345 9.90576 18.2265C9.92476 18.2141 9.9688 18.1776 10.0226 18.0777C10.14 17.8597 10.2321 17.4757 10.2636 16.9129C10.4581 13.438 13.4045 10.4622 16.9278 10.4384C17.4899 10.4346 17.8843 10.3705 18.114 10.2746C18.1952 10.2408 18.2331 10.2121 18.2477 10.1991C18.3576 5.64443 14.7547 1.86277 10.2 1.75236Z" fill="black" fill-opacity="0.658824"/>
</svg>
