<svg width="21" height="18" viewBox="0 0 21 18" fill="none" xmlns="http://www.w3.org/2000/svg">
<path d="M13.5 9C13.5 8.17157 14.1716 7.5 15 7.5C15.8284 7.5 16.5 8.17157 16.5 9C16.5 9.82843 15.8284 10.5 15 10.5C14.1716 10.5 13.5 9.82843 13.5 9Z" fill="black" fill-opacity="0.658824"/>
<path fill-rule="evenodd" clip-rule="evenodd" d="M18.4413 3.67402C17.7836 2.12836 16.3302 1.01723 14.6007 0.835232L13.9488 0.766636C10.6565 0.420183 7.33575 0.443029 4.04851 0.83475L3.61657 0.886221C1.94777 1.08508 0.625519 2.38889 0.403243 4.05473C-0.0347234 7.33704 -0.0347235 10.663 0.403243 13.9453C0.625519 15.6111 1.94777 16.9149 3.61657 17.1138L4.04851 17.1653C7.33575 17.557 10.6565 17.5798 13.9488 17.2334L14.6007 17.1648C16.3302 16.9828 17.7836 15.8717 18.4413 14.326C19.4806 14.0166 20.2738 13.1156 20.404 12.0024C20.6373 10.0076 20.6373 7.99242 20.404 5.99764C20.2738 4.88442 19.4806 3.98344 18.4413 3.67402ZM13.7918 2.2584C10.6107 1.92365 7.40218 1.94573 4.226 2.32421L3.79406 2.37568C2.80524 2.49351 2.02177 3.26606 1.89007 4.25312C1.46967 7.40376 1.46967 10.5963 1.89007 13.7469C2.02177 14.734 2.80525 15.5065 3.79406 15.6243L4.226 15.6758C7.40218 16.0543 10.6107 16.0764 13.7918 15.7416L14.4437 15.673C15.2942 15.5835 16.0468 15.1643 16.5683 14.542C15.0602 14.6299 13.532 14.5906 12.0417 14.4241C10.7724 14.2822 9.7458 13.2826 9.59606 12.0024C9.36275 10.0076 9.36275 7.99242 9.59606 5.99764C9.7458 4.71738 10.7724 3.71784 12.0417 3.57597C13.532 3.40942 15.0602 3.37012 16.5683 3.45806C16.0468 2.83574 15.2942 2.4165 14.4437 2.327L13.7918 2.2584ZM17.2774 5.01471C17.278 5.01855 17.2786 5.02239 17.2792 5.02623L17.2852 5.06511L17.4839 5.03426C17.5867 5.04444 17.6893 5.05524 17.7917 5.06669C18.3791 5.13234 18.8468 5.59648 18.9141 6.17189C19.1339 8.0509 19.1339 9.94912 18.9141 11.8281C18.8468 12.4035 18.3791 12.8677 17.7917 12.9333C17.6893 12.9448 17.5866 12.9556 17.4839 12.9658L17.2852 12.9349L17.2792 12.9738C17.2786 12.9776 17.278 12.9815 17.2774 12.9853C15.5987 13.1372 13.8772 13.1199 12.2084 12.9333C11.621 12.8677 11.1532 12.4035 11.0859 11.8281C10.8661 9.94912 10.8661 8.0509 11.0859 6.17189C11.1532 5.59648 11.621 5.13234 12.2084 5.06669C13.8772 4.88017 15.5987 4.86285 17.2774 5.01471Z" fill="black" fill-opacity="0.658824"/>
</svg>
