<svg width="30" height="31" viewBox="0 0 30 31" fill="none" xmlns="http://www.w3.org/2000/svg">
<g clip-path="url(#clip0_279_7956)">
<path d="M14.754 16.7834C15.1379 16.8753 15.5023 16.9643 15.8677 17.0486C16.6112 17.2208 17.3557 17.3873 18.0992 17.5605C20.0237 18.0087 21.1843 19.444 21.193 21.4116C21.2018 23.5854 21.1999 25.7582 21.193 27.9319C21.1882 29.7767 19.9662 30.9932 18.1031 30.9952C13.5203 31.001 8.93754 30.9971 4.35476 30.9971C3.84416 30.9971 3.33355 31.0058 2.82295 30.9874C1.2619 30.9303 0.0341079 29.7234 0.0175425 28.1671C-0.00779291 25.8249 -0.00974179 23.4818 0.0214402 21.1406C0.0428778 19.4585 1.23656 17.9874 2.88434 17.5847C4.0751 17.2934 5.2795 17.0553 6.48196 16.8182C6.77332 16.7601 6.8503 16.6401 6.83958 16.3624C6.81911 15.8078 6.84835 15.2513 6.82399 14.6967C6.81717 14.5389 6.73629 14.3444 6.62228 14.236C5.30971 12.9952 4.67243 11.4786 4.62955 9.68424C4.60812 8.78221 4.49995 7.88211 4.44051 6.98008C4.36743 5.86029 4.48144 4.75695 4.86244 3.69813C5.54942 1.78954 6.9341 0.644586 8.90441 0.202281C10.8747 -0.240023 12.6998 -0.00774043 14.2317 1.44306C14.294 1.50209 14.4002 1.53307 14.4899 1.54371C15.8677 1.71018 16.659 2.38864 17.0224 3.72136C17.268 4.62339 17.2885 5.54574 17.1374 6.45261C16.9308 7.69338 16.8587 8.93706 16.8129 10.1914C16.7564 11.7303 16.0938 13.0301 14.9888 14.1015C14.8173 14.2679 14.7432 14.4286 14.7481 14.6648C14.7618 15.3635 14.753 16.0633 14.753 16.7824L14.754 16.7834ZM8.20282 21.2354C8.10537 21.2896 8.05178 21.3158 8.00208 21.3467C7.39306 21.7184 7.28392 21.6961 6.89025 21.1116C6.2822 20.2086 5.67025 19.3075 5.07487 18.3968C4.93943 18.1896 4.80885 18.1335 4.56816 18.2003C4.18229 18.3067 3.78569 18.3687 3.39299 18.4519C1.90795 18.7655 0.982235 19.8814 0.977363 21.3855C0.970542 23.5834 0.972491 25.7804 0.977363 27.9784C0.980286 29.2076 1.80076 30.0273 3.0344 30.0341C4.44441 30.0409 5.85442 30.0302 7.26541 30.0409C7.50414 30.0428 7.59964 29.9702 7.65518 29.7379C8.14727 27.6968 8.66178 25.6604 9.1451 23.6173C9.20551 23.3628 9.20259 23.0405 9.0954 22.8101C8.84205 22.2681 8.50879 21.7639 8.20282 21.2345V21.2354ZM7.9631 5.9803C7.36967 6.53778 6.80645 7.06719 6.24322 7.59466C5.76575 8.04181 5.51337 8.56831 5.62056 9.23903C5.65076 9.42776 5.62445 9.62423 5.6264 9.8178C5.65174 12.2151 7.38429 14.3008 9.72001 14.748C12.1756 15.2174 14.562 13.9369 15.4994 11.6751C15.9165 10.6685 15.9301 9.61939 15.8473 8.57412C15.7722 7.6208 14.9557 6.98492 13.9919 7.06816C13.6265 7.1001 13.2582 7.22785 12.9162 7.37109C11.1544 8.11052 9.52805 7.75436 8.26615 6.32873C8.18625 6.23872 8.1083 6.14774 7.96213 5.9803H7.9631ZM13.0682 21.1009C12.7281 21.6535 12.3578 22.1665 12.0898 22.7269C11.9612 22.9959 11.9456 23.3753 12.0168 23.6725C12.505 25.702 13.0312 27.7219 13.5379 29.7457C13.5885 29.9489 13.6636 30.0438 13.8984 30.0418C15.3445 30.0302 16.7905 30.0457 18.2366 30.0322C19.3777 30.0215 20.2157 29.1872 20.2206 28.0529C20.2303 25.8075 20.2322 23.5621 20.2206 21.3177C20.2137 19.9376 19.3182 18.8478 17.9638 18.5255C17.5974 18.4384 17.2232 18.3803 16.8646 18.269C16.6132 18.1906 16.4953 18.2758 16.3647 18.4742C15.7469 19.414 15.1184 20.346 14.487 21.2771C14.2424 21.6381 14.0348 21.6787 13.6558 21.458C13.4696 21.3496 13.2865 21.2354 13.0653 21.1019L13.0682 21.1009ZM16.0958 6.89975C16.1308 6.66553 16.1659 6.49326 16.1815 6.31808C16.2604 5.43831 16.3072 4.55854 15.9944 3.70684C15.783 3.13194 15.4195 2.70415 14.789 2.55801C13.989 2.37122 13.7873 2.26379 13.1374 1.78954C12.8752 1.59888 12.5917 1.41112 12.2877 1.30756C10.4041 0.66491 8.63254 0.913646 7.06857 2.14087C5.90119 3.05742 5.5387 4.38917 5.42957 5.80028C5.40033 6.18258 5.42469 6.56972 5.42469 6.90943C6.18378 6.29195 6.91071 5.6735 7.66785 5.09376C8.17358 4.70662 8.34313 4.75888 8.68906 5.27765C9.65862 6.73328 11.018 7.12332 12.6424 6.43035C12.9629 6.29388 13.304 6.18161 13.646 6.12548C14.56 5.9745 15.3737 6.21646 16.0948 6.89878L16.0958 6.89975ZM12.5927 30.008C12.5615 29.8696 12.5381 29.7554 12.5098 29.6421C12.0382 27.7722 11.5812 25.8975 11.0862 24.0335C10.8718 23.2263 11.0043 22.513 11.4555 21.8307C11.7118 21.4426 11.9544 21.0457 12.2136 20.6354C11.7225 20.3383 11.2703 20.0566 10.8085 19.7924C10.7334 19.7498 10.5892 19.745 10.5171 19.7885C10.0211 20.0876 9.53487 20.4031 9.02134 20.7293C9.28249 21.1541 9.52805 21.5548 9.77361 21.9536C10.1605 22.5817 10.2638 23.2466 10.0825 23.9667C9.60698 25.8608 9.14412 27.7587 8.67737 29.6547C8.65008 29.7641 8.63449 29.8763 8.61013 30.008H12.5907H12.5927ZM13.7717 15.0393C11.7624 16.0565 9.81356 16.0691 7.82278 15.0964C7.82278 15.6684 7.81499 16.1959 7.83058 16.7214C7.8335 16.8037 7.92802 16.9102 8.00793 16.9585C8.82061 17.4415 9.63524 17.9215 10.4586 18.3842C10.561 18.4413 10.7471 18.45 10.8474 18.3958C11.7566 17.9119 12.657 17.4115 13.5544 16.9063C13.646 16.855 13.7571 16.7379 13.76 16.6479C13.7795 16.132 13.7698 15.6152 13.7698 15.0393H13.7717ZM13.8731 20.4496C14.4373 19.6085 14.9771 18.8042 15.5345 17.9728C15.1535 17.8819 14.8387 17.7783 14.5172 17.7406C14.3203 17.7173 14.0884 17.7483 13.912 17.8354C13.3703 18.1045 12.847 18.4113 12.3179 18.7045C12.1035 18.8236 11.8911 18.9475 11.6319 19.0946C12.4056 19.562 13.1179 19.9927 13.874 20.4496H13.8731ZM9.71709 19.0888C9.0038 18.6726 8.32072 18.3271 7.70001 17.8954C7.07149 17.4579 6.54627 17.8703 5.92361 17.9244C6.51022 18.7974 7.05395 19.6066 7.61328 20.4389C8.31098 19.9908 8.97944 19.562 9.71709 19.0888Z" fill="black" fill-opacity="0.658824"/>
<path d="M23.1858 10.9521C23.1507 10.9812 23.1117 11.0092 23.0776 11.0421C22.9013 11.2076 22.7268 11.3751 22.5212 11.5696C22.8935 12.0632 22.5982 12.3845 22.2533 12.7194C21.4445 13.5024 20.6532 14.3047 19.8532 15.0964C19.4362 15.5097 19.1565 15.5087 18.7365 15.0964C18.5027 14.868 18.2659 14.6425 18.0418 14.4044C17.7465 14.0918 17.7397 13.7869 18.0447 13.4792C18.949 12.5684 19.8542 11.6577 20.7838 10.7731C20.9212 10.6424 21.2233 10.564 21.4006 10.6192C21.6452 10.6947 21.7719 10.6501 21.922 10.4798C22.0408 10.3443 22.188 10.234 22.3371 10.0985C21.5497 8.9632 21.2788 7.75146 21.6296 6.43616C21.8986 5.42864 22.4793 4.62726 23.3437 4.03978C25.0704 2.86676 27.4022 3.1213 28.8336 4.6292C30.2826 6.15549 30.3908 8.47057 29.1045 10.1362C27.9771 11.5957 25.5381 12.521 23.1858 10.9511V10.9521ZM28.781 7.52111C28.7732 5.85255 27.4178 4.51403 25.7369 4.51596C24.0433 4.51693 22.7035 5.87578 22.6927 7.56467C22.682 9.1316 24.1612 10.5969 25.7681 10.5621C27.449 10.5253 28.7898 9.19451 28.782 7.52208L28.781 7.52111Z" fill="black" fill-opacity="0.658824"/>
<path d="M25.8801 5.00763C26.0779 5.05409 26.3985 5.11216 26.7084 5.207C26.9442 5.27959 27.0747 5.46542 26.9929 5.71319C26.9071 5.97354 26.7035 6.04225 26.4384 5.9745C25.3217 5.68705 24.7575 5.9145 24.1592 6.89299C24.0209 7.11946 23.8357 7.23851 23.5863 7.10301C23.3426 6.97041 23.3173 6.75265 23.4372 6.51166C23.9117 5.56027 24.6913 5.07828 25.8801 5.00763Z" fill="black" fill-opacity="0.658824"/>
<path d="M17.3977 25.7669C17.2681 25.672 17.154 25.5878 17.0391 25.5046C16.9095 25.4097 16.7789 25.3168 16.6493 25.221C16.5333 25.1358 16.5275 25.0894 16.6123 24.9752C16.7155 24.8377 16.8159 24.6984 16.9192 24.5619C16.9679 24.4971 16.967 24.4438 16.9114 24.38C16.6571 24.0915 16.4076 23.8002 16.1562 23.5099C16.1309 23.4808 16.1075 23.4508 16.0841 23.4218C16.089 23.417 16.0939 23.4111 16.0987 23.4063C16.1182 23.416 16.1377 23.4247 16.1562 23.4344C16.6766 23.6967 17.1969 23.9589 17.7163 24.2212C17.8235 24.2754 17.8361 24.3267 17.765 24.4225C17.653 24.5716 17.5389 24.7187 17.4269 24.8668C17.3441 24.9761 17.3499 25.0245 17.4551 25.1116C17.9784 25.5414 18.5007 25.9721 19.025 26.4008C19.0552 26.426 19.0922 26.4424 19.1263 26.4628C19.1175 26.4763 19.1097 26.4889 19.101 26.5024C19.0727 26.5073 19.0435 26.516 19.0152 26.516C18.1178 26.516 17.2193 26.5276 16.3219 26.5121C15.8766 26.5044 15.5072 26.2876 15.1974 25.9779C14.867 25.6469 14.6926 25.2375 14.679 24.7777C14.6595 24.1244 14.6712 23.4692 14.6702 22.815C14.6702 22.5953 14.6722 22.3746 14.6702 22.1549C14.6702 22.0862 14.6936 22.0562 14.7647 22.0562C15.5969 22.0494 16.43 21.9971 17.2593 22.0436C18.222 22.0968 18.9636 22.6872 19.1312 23.6812C19.1536 23.8157 19.1614 23.9541 19.1624 24.0906C19.1653 24.6103 19.1624 25.131 19.1624 25.6507C19.1624 25.673 19.1516 25.7078 19.1351 25.7146C19.1185 25.7224 19.0844 25.7088 19.0678 25.6943C18.8856 25.5404 18.7044 25.3865 18.527 25.2268C18.4997 25.2026 18.4861 25.1533 18.4841 25.1146C18.4695 24.7458 18.4608 24.3771 18.4461 24.0093C18.4189 23.3511 18.0174 22.8924 17.3674 22.7714C17.3197 22.7627 17.27 22.7608 17.2213 22.7598C16.66 22.7598 16.0987 22.7598 15.5375 22.7598C15.3913 22.7598 15.3825 22.7695 15.3825 22.9156C15.3825 23.4305 15.3708 23.9454 15.3854 24.4593C15.3991 24.9539 15.6641 25.4804 16.1971 25.6807C16.3345 25.732 16.4856 25.7611 16.6327 25.7698C16.8676 25.7843 17.1043 25.7737 17.3402 25.7737C17.3528 25.7737 17.3665 25.7717 17.3986 25.7678L17.3977 25.7669Z" fill="black" fill-opacity="0.658824"/>
</g>
<defs>
<clipPath id="clip0_279_7956">
<rect width="30" height="31" fill="white"/>
</clipPath>
</defs>
</svg>
