<svg width="30" height="29" viewBox="0 0 30 29" fill="none" xmlns="http://www.w3.org/2000/svg">
<g clip-path="url(#clip0_279_7952)">
<path d="M11.1082 29C7.63213 29 4.15605 29 0.680888 29C0.118365 29 -0.00643621 28.8817 -1.26211e-05 28.3235C0.03027 25.7595 0.1202 23.2009 0.670794 20.6811C1.18927 18.3077 2.47766 16.5266 4.79474 15.5847C5.39764 15.339 6.07579 15.2586 6.7264 15.1457C6.95765 15.106 7.06135 15.0374 7.16963 14.8278C7.51283 14.164 7.51559 13.6447 6.96408 13.0125C6.16113 12.0931 5.82435 10.9199 5.83811 9.7061C5.85279 8.37125 5.75461 7.05356 5.53896 5.73858C5.24714 3.95577 5.99595 2.59202 7.42657 1.59314C9.33989 0.256485 11.4762 -0.26734 13.8162 0.129141C14.6917 0.277257 15.2909 0.717089 15.6121 1.56153C15.724 1.85505 15.9947 2.11696 16.2489 2.32649C16.7812 2.76633 17.173 3.29286 17.4336 3.92055C17.6924 4.54552 17.697 5.17411 17.4483 5.8018C17.373 5.99055 17.3015 6.18744 17.1858 6.35181C16.705 7.03188 16.6123 7.78059 16.6279 8.59342C16.6435 9.39903 16.5784 10.2191 16.4343 11.0129C16.2581 11.9838 15.7635 12.8337 15.0853 13.5634C14.9302 13.7305 14.9312 13.8642 14.9807 14.0737C15.145 14.7682 15.4166 15.3119 16.2819 15.2243C18.99 15.8628 20.6757 17.5409 21.4089 20.1564C21.9457 22.0729 22.0733 24.0462 22.1632 26.0205C22.199 26.7981 22.2063 27.5775 22.2173 28.356C22.2247 28.869 22.088 28.9982 21.5713 28.9982C18.0842 28.9982 14.5962 28.9982 11.1091 28.9982L11.1082 29ZM9.51149 19.9649C9.44266 20.0047 9.4032 20.0245 9.36742 20.048C8.73423 20.4626 8.69661 20.458 8.17171 19.8963C7.17789 18.8333 6.18132 17.7739 5.19575 16.7037C5.04526 16.5402 4.93147 16.5167 4.73234 16.6206C3.13653 17.4515 2.14914 18.743 1.70958 20.4535C1.15715 22.6012 1.05346 24.7986 0.969949 26.9977C0.957102 27.3436 0.968114 27.6904 0.968114 28.0562H4.14596V27.6751C4.14596 26.3998 4.14596 25.1255 4.14596 23.8503C4.14596 23.5793 4.13494 23.3075 4.15513 23.0383C4.17532 22.7665 4.34233 22.6039 4.62222 22.5877C4.88191 22.5723 5.07462 22.7737 5.09756 23.0627C5.10582 23.1639 5.10123 23.2659 5.10123 23.3671C5.10123 24.8004 5.10123 26.2328 5.10123 27.666C5.10123 27.7952 5.11225 27.9243 5.11867 28.0526H8.99209C9.00769 28.0074 9.01871 27.9867 9.02146 27.965C9.34814 25.6412 9.67483 23.3183 9.99601 20.9945C10.007 20.9123 9.98225 20.8148 9.9437 20.7398C9.8134 20.4897 9.66932 20.2458 9.51149 19.9658V19.9649ZM21.2593 28.0589C21.2593 27.9207 21.2621 27.8105 21.2593 27.7004C21.2364 26.9562 21.2281 26.2102 21.1841 25.4669C21.0822 23.7762 20.94 22.0891 20.5078 20.4409C20.0627 18.7448 19.0863 17.4596 17.5043 16.6287C17.2868 16.5149 17.1739 16.5519 17.0161 16.7235C16.0773 17.745 15.1248 18.7538 14.1768 19.768C13.7535 20.2208 13.2662 20.2997 12.715 20.0047C12.5517 20.4084 12.1626 20.6938 12.2433 21.2194C12.4801 22.7575 12.6774 24.3 12.893 25.8417C12.9958 26.575 13.105 27.3066 13.2133 28.0544H17.117V27.6679C17.117 26.2228 17.117 24.7778 17.117 23.3328C17.117 23.2199 17.1124 23.1061 17.1271 22.995C17.1601 22.7466 17.3217 22.6084 17.5639 22.5931C17.8098 22.5777 17.9833 22.7069 18.0438 22.9444C18.0741 23.0627 18.0705 23.1901 18.0705 23.3138C18.0723 24.7588 18.0714 26.2039 18.0714 27.6489C18.0714 27.7807 18.0714 27.9117 18.0714 28.0598H21.2584L21.2593 28.0589ZM15.6882 8.82101C15.6882 8.64038 15.6625 8.45614 15.6928 8.28003C15.7919 7.6975 15.591 7.27754 15.0844 6.9497C14.8798 6.81784 14.744 6.76816 14.509 6.85938C12.4911 7.63699 10.4392 7.75169 8.40663 6.97227C7.82208 6.74739 7.44034 6.74649 7.02831 7.21703C6.86864 7.39856 6.75393 7.53855 6.76403 7.79052C6.78422 8.31977 6.77137 8.85082 6.77045 9.38006C6.76862 10.1098 6.88883 10.8161 7.16688 11.4952C7.87806 13.2347 9.47295 14.3726 11.2055 14.3754C12.9646 14.379 14.5375 13.2798 15.2753 11.5404C15.646 10.6661 15.7295 9.75396 15.6882 8.82101ZM6.46854 6.32291C6.53002 6.34549 6.59059 6.36807 6.65207 6.39065C6.82551 6.19828 6.99803 6.0041 7.1733 5.81444C7.37151 5.59949 7.58992 5.58956 7.85512 5.7151C8.25705 5.90476 8.66266 6.09893 9.08661 6.22899C10.9696 6.80519 12.8031 6.61011 14.5815 5.81715C14.9 5.67536 15.1404 5.69794 15.3808 5.95262C15.5698 6.15312 15.7919 6.32382 16.0223 6.52793C16.1489 6.29221 16.2535 6.10525 16.3517 5.91559C16.8573 4.93839 16.7527 4.18155 15.9929 3.37776C15.8607 3.23777 15.7121 3.11042 15.5561 2.99572C15.1404 2.68866 14.8247 2.31024 14.6705 1.81893C14.5366 1.39264 14.2347 1.18221 13.8098 1.08738C12.5434 0.804694 11.3009 0.909459 10.0823 1.31407C8.88106 1.71326 7.75326 2.24702 7.02005 3.32176C6.77229 3.68573 6.55755 4.11743 6.49148 4.54281C6.40155 5.12354 6.46946 5.72864 6.46946 6.32291H6.46854ZM11.11 17.6989C12.2305 16.9349 13.339 16.1798 14.4595 15.4158C14.3374 15.0798 14.2236 14.7655 14.108 14.4449C12.1653 15.619 10.2566 15.61 8.3323 14.4295C8.21668 14.7267 8.09555 15.0058 8.00561 15.2939C7.98451 15.3598 8.04324 15.4889 8.10656 15.535C9.10038 16.2584 10.1006 16.9728 11.11 17.698V17.6989ZM10.9183 21.3043C10.6072 23.5396 10.2942 25.7884 9.98041 28.0472H12.1855C12.1855 27.9397 12.1947 27.8611 12.1846 27.7853C11.8974 25.6972 11.6065 23.61 11.3211 21.5229C11.2881 21.2826 11.1743 21.2158 10.9183 21.3043ZM10.2842 18.267C9.39403 17.6276 8.514 17.0514 7.70187 16.3939C7.16412 15.9577 6.63647 16.066 6.00329 16.1907C6.97968 17.2347 7.91936 18.2408 8.86362 19.2505C9.34447 18.9173 9.79321 18.6075 10.2842 18.267ZM16.1856 16.2006C15.5855 16.0173 15.1 16.0344 14.6302 16.4255C14.1869 16.7949 13.6776 17.0875 13.1986 17.4153C12.7894 17.6944 12.381 17.9753 11.9341 18.2815C12.4315 18.6138 12.8885 18.92 13.3537 19.2307C14.3062 18.2119 15.234 17.2185 16.1856 16.2006ZM11.9185 19.4221C11.6827 19.2551 11.4679 19.0889 11.2376 18.948C11.1724 18.9082 11.0394 18.9082 10.9733 18.948C10.743 19.0871 10.5283 19.2505 10.3034 19.4077C10.3401 19.4854 10.3622 19.5368 10.3888 19.5847C10.4925 19.7717 10.5925 19.9613 10.7035 20.1437C10.8375 20.3641 11.3477 20.3876 11.4881 20.1717C11.6404 19.9369 11.768 19.6877 11.9185 19.4221Z" fill="#115056"/>
<path d="M19.5717 9.0766C19.234 9.20485 19.0404 9.05673 18.8688 8.82914C18.5751 8.43989 18.265 8.06147 17.9695 7.67311C17.7529 7.38953 17.7722 7.19806 18.0603 6.9786C19.7561 5.6871 21.452 4.3947 23.1597 3.11675C23.6874 2.72207 24.1994 2.75549 24.7711 3.18539C26.2742 4.31703 27.7709 5.4568 29.2695 6.59386C29.442 6.72481 29.6173 6.85216 29.7861 6.98763C30.0302 7.18361 30.0761 7.40578 29.8705 7.66318C29.5659 8.04521 29.2695 8.43266 28.9667 8.81559C28.7161 9.13169 28.6546 9.15427 28.2454 9.09647C28.2399 9.20575 28.2298 9.31323 28.2298 9.4198C28.2289 10.7402 28.2298 12.0615 28.2289 13.3819C28.2289 13.894 28.0976 14.0213 27.5773 14.0213C25.1336 14.0213 22.6908 14.0213 20.2471 14.0213C19.6919 14.0213 19.5708 13.8994 19.5708 13.3367C19.5708 12.0498 19.5708 10.7628 19.5708 9.47579V9.0748L19.5717 9.0766ZM23.9159 5.75664C22.7881 6.61192 21.686 7.44101 20.5967 8.28545C20.5031 8.3577 20.4499 8.53381 20.449 8.66206C20.4389 10.061 20.4425 11.46 20.4435 12.859C20.4435 12.9466 20.4554 13.0333 20.4627 13.1236H22.154C22.154 12.01 22.1521 10.9271 22.1549 9.84518C22.1558 9.44328 22.3063 9.29426 22.7156 9.29245C23.4956 9.28794 24.2747 9.28884 25.0547 9.29245C25.5053 9.29426 25.6539 9.43876 25.6557 9.8795C25.6585 10.8161 25.6557 11.7526 25.6557 12.6892C25.6557 12.8319 25.6557 12.9755 25.6557 13.1371H27.3351C27.3479 13.0793 27.3653 13.0369 27.3653 12.9935C27.3672 11.516 27.3699 10.0375 27.3617 8.56C27.3617 8.46337 27.302 8.33422 27.2268 8.27642C26.1348 7.43649 25.0345 6.6065 23.9159 5.75845V5.75664ZM28.9318 7.46088C28.8923 7.4094 28.8813 7.38772 28.8639 7.37417C27.3222 6.20189 25.7778 5.03051 24.238 3.85642C23.9957 3.67218 23.7865 3.70469 23.5571 3.88171C22.8624 4.41728 22.1595 4.94291 21.4602 5.47396C20.6086 6.12061 19.758 6.76907 18.8816 7.43468C19.0606 7.66318 19.2239 7.87181 19.3973 8.09308C19.5065 8.0145 19.5891 7.95761 19.6699 7.89619C20.95 6.92531 22.2356 5.96075 23.5075 4.97903C23.8048 4.74963 24.0398 4.75505 24.3297 4.98355C25.0281 5.53266 25.7438 6.061 26.4514 6.59837C27.1029 7.09239 27.7544 7.58732 28.4307 8.10121C28.606 7.87723 28.7638 7.67492 28.9318 7.46088ZM23.0459 10.1703V13.1236H24.7482V10.1703H23.0459Z" fill="#115056"/>
</g>
<defs>
<clipPath id="clip0_279_7952">
<rect width="30" height="29" fill="white"/>
</clipPath>
</defs>
</svg>
