<svg width="20" height="21" viewBox="0 0 20 21" fill="none" xmlns="http://www.w3.org/2000/svg">
<path fill-rule="evenodd" clip-rule="evenodd" d="M10.75 1C10.75 0.585786 10.4142 0.25 10 0.25C9.58579 0.25 9.25 0.585786 9.25 1V1.27842C4.26644 1.65752 0.330189 5.78303 0.251212 10.8451C0.244076 11.3024 0.574216 11.6894 1.01742 11.7632C3.74366 12.2176 6.49575 12.4637 9.25 12.5015V18C9.25 18.4142 8.91421 18.75 8.5 18.75C8.08579 18.75 7.75 18.4142 7.75 18V17.5C7.75 17.0858 7.41421 16.75 7 16.75C6.58579 16.75 6.25 17.0858 6.25 17.5V18C6.25 19.2426 7.25736 20.25 8.5 20.25C9.74264 20.25 10.75 19.2426 10.75 18V12.5015C13.5042 12.4637 16.2563 12.2176 18.9826 11.7632C19.4258 11.6894 19.7559 11.3025 19.7488 10.8451C19.6698 5.78303 15.7336 1.65751 10.75 1.27842V1ZM18.226 10.3661C17.9024 6.10606 14.3431 2.75 10 2.75C5.65693 2.75 2.09759 6.10606 1.77398 10.3661C7.22473 11.2202 12.7753 11.2202 18.226 10.3661Z" fill="black" fill-opacity="0.658824"/>
</svg>
