<svg width="30" height="30" viewBox="0 0 30 30" fill="none" xmlns="http://www.w3.org/2000/svg">
<g clip-path="url(#clip0_279_7969)">
<path d="M11.2381 30C7.72273 30 4.20639 30 0.690982 30C0.119961 30 -0.00651953 29.8774 -9.51873e-06 29.3026C0.0306805 26.6505 0.121821 24.0041 0.677962 21.3961C1.20155 18.9406 2.50356 17.0964 4.84716 16.1229C5.46747 15.8654 6.1659 15.7877 6.83551 15.6632C7.04104 15.6249 7.16752 15.5855 7.23448 15.3702C7.34608 15.0145 7.61392 14.656 7.58044 14.3227C7.54882 14.0166 7.20193 13.7461 7.00105 13.454C6.2961 12.4271 5.89155 11.285 5.90457 10.0418C5.91945 8.66102 5.82087 7.29802 5.60232 5.93783C5.30565 4.09367 6.06267 2.68293 7.50883 1.64851C9.44509 0.266787 11.6055 -0.276165 13.9723 0.132921C14.8577 0.286446 15.4659 0.738594 15.7905 1.61294C15.903 1.91718 16.1764 2.18772 16.4341 2.4049C16.9539 2.84488 17.3427 3.3663 17.6068 3.98882C17.9007 4.67781 17.9118 5.37148 17.6217 6.06421C17.5454 6.24675 17.4794 6.44053 17.3678 6.60061C16.8916 7.28305 16.8023 8.03663 16.8191 8.85293C16.8349 9.66455 16.7782 10.4883 16.6452 11.2887C16.4694 12.3456 15.9542 13.2649 15.2362 14.0578C15.0986 14.2094 15.0949 14.3321 15.1414 14.524C15.3153 15.2373 15.5533 15.8542 16.4657 15.7494C19.2045 16.4093 20.9111 18.144 21.6532 20.8494C22.1963 22.8321 22.3256 24.8738 22.4168 26.9164C22.453 27.7215 22.4605 28.5275 22.4716 29.3325C22.4791 29.8643 22.3405 29.9991 21.8206 29.9991C18.2931 29.9991 14.7656 29.9991 11.2381 29.9991V30ZM9.58738 20.6678C9.53344 20.7033 9.47671 20.7389 9.42184 20.7764C8.86012 21.1574 8.78572 21.1508 8.31607 20.6387C7.30144 19.5322 6.28587 18.4267 5.28147 17.3108C5.115 17.1255 4.9941 17.0805 4.75881 17.2069C3.07179 18.114 2.09343 19.5416 1.66562 21.3904C1.19504 23.4247 1.07786 25.4982 0.987653 27.5745C0.967192 28.0491 0.984863 28.5256 0.984863 29.0152H4.19151C4.19151 28.8457 4.19151 28.7063 4.19151 28.5668C4.19151 27.084 4.19151 25.6021 4.19244 24.1193C4.19244 23.9919 4.18872 23.859 4.21848 23.7373C4.27893 23.4911 4.45284 23.3563 4.70115 23.3713C4.94574 23.3853 5.11128 23.5276 5.14569 23.7841C5.1615 23.8993 5.15685 24.0172 5.15685 24.1333C5.15685 25.6508 5.16522 27.1682 5.15034 28.6857C5.14755 28.9843 5.24148 29.0554 5.5242 29.0517C6.61416 29.0367 7.70413 29.0461 8.79502 29.0451C8.89639 29.0451 8.99776 29.033 9.10378 29.0264C9.12889 28.8879 9.15493 28.7746 9.17074 28.6604C9.45439 26.5682 9.70828 24.4712 10.0375 22.3865C10.1435 21.7153 10.0096 21.1854 9.58645 20.6696L9.58738 20.6678ZM21.43 29.0302C21.43 28.1137 21.4654 27.2394 21.4226 26.3678C21.3352 24.606 21.1808 22.8499 20.739 21.134C20.2871 19.3797 19.2947 18.0522 17.6923 17.1975C17.4896 17.0899 17.3771 17.1161 17.2255 17.2846C16.235 18.3827 15.2353 19.4723 14.2346 20.561C13.6552 21.1911 13.6524 21.1882 12.9428 20.7221C12.927 20.7118 12.901 20.7183 12.8563 20.7155C12.7689 20.8653 12.6936 21.0403 12.5783 21.1817C12.3495 21.4625 12.3588 21.7733 12.4071 22.1019C12.515 22.8396 12.6173 23.5791 12.7187 24.3177C12.9317 25.8754 13.1437 27.4341 13.3585 29.0161H17.3148V28.608C17.3148 27.113 17.3148 25.618 17.3148 24.123C17.3148 24.006 17.3092 23.888 17.3269 23.7738C17.3659 23.5183 17.5435 23.3441 17.777 23.3816C17.9481 23.4087 18.1183 23.5744 18.2401 23.7205C18.3071 23.8 18.2792 23.9667 18.2792 24.094C18.281 25.6002 18.2801 27.1074 18.2801 28.6136C18.2801 28.7484 18.2801 28.8832 18.2801 29.0292H21.431L21.43 29.0302ZM6.84759 9.12066C6.85503 9.12066 6.86247 9.12066 6.87084 9.12066C6.87084 9.49417 6.85224 9.86769 6.87457 10.2403C6.93316 11.2045 7.22518 12.0985 7.78504 12.8829C8.81083 14.3199 10.1789 15.081 11.9682 14.8179C13.8021 14.5474 15.3143 13.0552 15.7031 11.0912C15.8612 10.2889 15.7896 9.44269 15.8779 8.62264C15.9467 7.98046 15.7738 7.50959 15.2195 7.16041C15.0456 7.05089 14.9321 6.99659 14.7284 7.0771C12.4564 7.97297 10.191 8.00386 7.93384 7.00876C7.84456 6.96944 7.67995 6.98536 7.60648 7.04527C6.84481 7.6706 6.84759 7.67435 6.84759 8.6657V9.12066ZM16.2016 6.75881C16.328 6.51917 16.4238 6.32071 16.5336 6.13067C17.0599 5.2217 17.0162 4.38855 16.0369 3.35413C15.9337 3.2446 15.8119 3.15192 15.691 3.06112C15.3013 2.76437 15.0009 2.39834 14.8568 1.92466C14.7108 1.4435 14.3881 1.20385 13.9128 1.11211C11.625 0.670257 9.58459 1.24878 7.77574 2.66888C6.49512 3.67428 6.31563 5.04477 6.68577 6.66988C6.86806 6.45364 7.00012 6.28045 7.14985 6.12412C7.50976 5.74686 7.60183 5.7375 8.05288 5.97715C8.85268 6.40309 9.70828 6.64086 10.6048 6.73916C12.0621 6.89923 13.445 6.61652 14.7675 6.00898C15.0772 5.86669 15.3134 5.89852 15.5468 6.14752C15.7366 6.35066 15.9523 6.52853 16.2016 6.75975V6.75881ZM11.2372 18.3078C12.3755 17.514 13.4962 16.7323 14.6261 15.9441C14.4997 15.593 14.3843 15.2701 14.2662 14.9415C12.2983 16.1584 10.3677 16.1425 8.42488 14.9256C8.31142 15.2279 8.19517 15.5069 8.10682 15.7943C8.08357 15.8682 8.11891 16.0096 8.17657 16.0527C9.18934 16.8081 10.2105 17.5533 11.2372 18.3069V18.3078ZM11.0438 22.0317C10.7276 24.3542 10.4123 26.673 10.0952 29.0068H12.3281C12.3281 28.9122 12.3346 28.8532 12.3272 28.7961C12.0342 26.6131 11.7375 24.431 11.4474 22.2479C11.4167 22.0148 11.3014 21.9549 11.0438 22.0317ZM10.4002 18.8938C9.48322 18.2207 8.58484 17.6169 7.75249 16.9307C7.21123 16.4842 6.68857 16.648 6.05988 16.7351C7.0615 17.8304 8.01289 18.8723 8.96428 19.9132C9.45811 19.5631 9.91102 19.2411 10.3993 18.8938H10.4002ZM16.3745 16.7538C15.784 16.5834 15.2818 16.5451 14.8345 16.9719C14.6512 17.1461 14.4197 17.2687 14.2104 17.4147C13.5101 17.9034 12.8089 18.392 12.0686 18.9088C12.5699 19.2523 13.0321 19.5697 13.5045 19.8936C14.4652 18.8423 15.4045 17.8154 16.3745 16.7548V16.7538ZM12.0547 20.0902C11.8166 19.917 11.5999 19.7457 11.3674 19.6006C11.3004 19.5594 11.1665 19.5575 11.0996 19.5987C10.8652 19.741 10.6476 19.9095 10.4104 20.0771C10.5583 20.3495 10.6857 20.5957 10.8252 20.8353C10.9591 21.0647 11.4771 21.089 11.6185 20.8672C11.7729 20.6247 11.9022 20.3663 12.0547 20.0911V20.0902Z" fill="black" fill-opacity="0.658824"/>
<path d="M25.0775 12.0049C25.1351 12.2445 25.1639 12.4533 25.2402 12.6424C25.2709 12.7172 25.4048 12.7856 25.4969 12.7931C26.385 12.8633 26.917 13.3126 27.1337 14.1944C27.2044 14.4809 27.0481 14.684 26.7189 14.6962C26.3255 14.7103 25.9303 14.7 25.5359 14.7C24.1326 14.7 22.7292 14.7009 21.3258 14.7C20.765 14.7 20.6451 14.4996 20.8348 13.9829C21.1147 13.2218 21.6067 12.7837 22.4437 12.7912C22.5162 12.7912 22.6297 12.7023 22.6567 12.6283C22.7246 12.4458 22.7534 12.2492 22.811 12.0049C22.6576 12.0049 22.5358 12.0049 22.4139 12.0049C21.0803 12.0049 19.7467 12.0049 18.4121 12.0049C17.9536 12.0049 17.83 11.8607 17.9062 11.4029C18.2698 9.20584 18.6363 7.00969 18.998 4.81166C19.0483 4.50836 19.1998 4.3642 19.5114 4.3642C22.4688 4.36794 25.4271 4.36701 28.3845 4.3642C28.6961 4.3642 28.8384 4.51491 28.8886 4.82009C29.2476 7.01811 29.6159 9.21426 29.9795 11.4113C30.0539 11.8607 29.9321 12.003 29.4606 12.003C28.1381 12.0049 26.8156 12.003 25.4941 12.003C25.3685 12.003 25.243 12.003 25.0775 12.003V12.0049ZM26.9561 11.2625C26.8919 10.6184 26.8314 10.009 26.7701 9.39306H25.4364V11.2625H26.9551H26.9561ZM22.4642 9.38464H21.1184C21.058 10.0165 20.9985 10.6306 20.9399 11.2485H22.4642V9.38464ZM23.2361 9.37621V11.2475H24.645V9.37621H23.2361ZM27.5085 9.36779C27.5745 10.0268 27.6359 10.6353 27.6991 11.2588H29.2057C29.1099 10.6709 29.0207 10.0998 28.9165 9.53161C28.9044 9.46795 28.8021 9.37715 28.7389 9.37434C28.339 9.3603 27.9381 9.36685 27.5094 9.36685L27.5085 9.36779ZM20.3809 9.36779C19.9476 9.36779 19.5458 9.36217 19.144 9.37434C19.0873 9.37621 18.9943 9.45484 18.985 9.51008C18.879 10.0877 18.7869 10.6681 18.6883 11.2597H20.1903C20.2526 10.6362 20.314 10.0268 20.3809 9.36779ZM27.2825 7.11266C27.3355 7.62659 27.3867 8.11712 27.4359 8.59642H28.7677C28.6803 8.07968 28.5975 7.59289 28.5166 7.11266H27.2825ZM24.5715 8.61046V7.11921H23.3067V8.61046H24.5715ZM20.6069 7.11266H19.3728C19.2901 7.61723 19.211 8.10214 19.1292 8.60204H20.4544C20.5056 8.10121 20.5549 7.6191 20.606 7.11266H20.6069ZM26.545 7.11921H25.3527V8.60016H26.6882C26.6389 8.09372 26.5924 7.61068 26.545 7.11921ZM21.3444 7.10985C21.2979 7.61068 21.2514 8.10027 21.2049 8.59829H22.546V7.10985H21.3444ZM21.6792 13.9192H26.1777C26.1907 13.878 26.2046 13.8368 26.2176 13.7966C25.9982 13.7105 25.7805 13.5551 25.5592 13.5495C24.4832 13.5232 23.4062 13.5364 22.3293 13.5392C22.0605 13.5392 21.8411 13.6403 21.6792 13.9202V13.9192ZM27.2118 6.331H28.3938C28.3213 5.91536 28.2553 5.53061 28.1883 5.14773H27.0881C27.1309 5.55588 27.1709 5.94344 27.2118 6.331ZM26.4659 6.33848C26.4241 5.92659 26.385 5.5381 26.346 5.15241H25.2895V6.33848H26.465H26.4659ZM21.5407 5.15241C21.5025 5.55682 21.4663 5.93595 21.4281 6.33568H22.6148V5.15241H21.5407ZM19.503 6.34317H20.6785C20.7204 5.94344 20.7604 5.55495 20.8022 5.15241H19.7011C19.6351 5.54652 19.5728 5.92285 19.503 6.34317ZM23.3895 6.33474H24.4906V5.15241H23.3895V6.33474ZM24.4832 12.7669C24.3762 11.9983 24.3567 11.9646 23.7996 12.0114C23.3002 12.0526 23.5746 12.5169 23.3449 12.7669H24.4832Z" fill="black" fill-opacity="0.658824"/>
</g>
<defs>
<clipPath id="clip0_279_7969">
<rect width="30" height="30" fill="white"/>
</clipPath>
</defs>
</svg>
