<svg width="19" height="19" viewBox="0 0 19 19" fill="none" xmlns="http://www.w3.org/2000/svg">
<path fill-rule="evenodd" clip-rule="evenodd" d="M8.25 2.78829C4.59833 3.16358 1.75 6.24914 1.75 9.99996C1.75 14.004 4.99594 17.25 9 17.25C12.7508 17.25 15.8364 14.4016 16.2117 10.75H9C8.58579 10.75 8.25 10.4142 8.25 9.99996V2.78829ZM0.25 9.99996C0.25 5.16747 4.16751 1.24996 9 1.24996C9.41421 1.24996 9.75 1.58575 9.75 1.99996V9.24996H17C17.4142 9.24996 17.75 9.58575 17.75 9.99996C17.75 14.8325 13.8325 18.75 9 18.75C4.16751 18.75 0.25 14.8325 0.25 9.99996Z" fill="black" fill-opacity="0.658824"/>
<path fill-rule="evenodd" clip-rule="evenodd" d="M12.5 1.67361V6.49996H17.3264C16.7633 4.11556 14.8844 2.23664 12.5 1.67361ZM11.998 0.0616098C15.6183 0.512138 18.4878 3.38163 18.9384 7.00195C19.0066 7.55001 18.5523 7.99996 18 7.99996H11.5C11.2239 7.99996 11 7.77611 11 7.49996V0.999963C11 0.447679 11.45 -0.00659285 11.998 0.0616098Z" fill="black" fill-opacity="0.658824"/>
</svg>
