<svg width="90" height="88" viewBox="0 0 90 88" fill="none" xmlns="http://www.w3.org/2000/svg">
<path d="M88.0609 37.7201L81.3454 31.7291V9.7419C81.3454 6.78805 77.5196 6.29383 77.5196 6.29383H63.8323C60.5682 6.29383 60.0871 9.87695 60.0871 9.87695V12.5664C60.0871 12.5664 51.211 4.96632 47.8605 2.07856C47.4746 1.67701 47.0113 1.35747 46.4983 1.13918C45.9854 0.920883 45.4335 0.80835 44.8758 0.80835C44.3182 0.80835 43.7663 0.920883 43.2533 1.13918C42.7404 1.35747 42.2771 1.67701 41.8912 2.07856C28.1703 14.3077 14.4543 26.5369 0.742997 38.766C0.596251 38.9205 0.47035 39.0934 0.368479 39.2804C0.126075 39.8109 0.00642667 40.3891 0.0183952 40.972C0.0303638 41.555 0.173641 42.1277 0.437619 42.648C0.702346 43.1798 1.07242 43.6527 1.52549 44.0379C1.97856 44.4231 2.50523 44.7127 3.07366 44.8892C3.37924 44.971 3.69365 45.0153 4.00996 45.0214H9.94466L9.97924 84.6742C10.1665 86.9959 12.8198 87.197 12.8198 87.197H76.5314V86.766C76.8886 86.881 77.1595 87.197 77.5685 87.197C78.0525 87.2027 78.5329 87.1132 78.9822 86.9335C79.4314 86.7538 79.8407 86.4876 80.1867 86.15C80.5327 85.8124 80.8086 85.41 80.9985 84.966C81.1884 84.522 81.2887 84.0449 81.2936 83.5622V61.7129C81.2666 60.7458 80.8625 59.8274 80.1671 59.1528C79.4717 58.4783 78.54 58.1009 77.57 58.1009C76.6 58.1009 75.6682 58.4783 74.9729 59.1528C74.2775 59.8274 73.8734 60.7458 73.8464 61.7129V78.8872H17.5474C17.5474 78.8872 17.6828 44.3232 17.5474 41.0532C17.412 37.7833 13.2952 37.5017 13.2952 37.5017L45.0689 9.49479L60.7699 23.0859C61.2904 23.5626 61.9281 23.8935 62.6182 24.0449C63.3084 24.1963 64.0264 24.1629 64.6995 23.9479C65.5135 23.7353 66.2429 23.2795 66.7897 22.6416C67.3366 22.0037 67.6748 21.2143 67.759 20.3792V13.6411H73.7283C73.7283 13.6411 73.8118 30.5941 73.7283 32.9215C73.6674 33.5583 73.7751 34.1999 74.0405 34.7822C74.3058 35.3646 74.7197 35.8673 75.2408 36.2403L84.0305 44.1565C84.3622 44.4616 84.754 44.6943 85.181 44.8398C85.608 44.9853 86.0608 45.0403 86.5103 45.0014C86.9599 44.9624 87.3963 44.8304 87.7918 44.6137C88.1872 44.3969 88.533 44.1003 88.807 43.7427C89.2188 43.3262 89.5307 42.8222 89.7194 42.2684C89.9081 41.7146 89.9687 41.1254 89.8966 40.5449C89.8246 39.9644 89.6217 39.4077 89.3033 38.9165C88.9849 38.4253 88.5591 38.0124 88.058 37.7086" fill="white"/>
<path d="M32.6467 39.9155C32.5959 39.9289 32.5498 39.9558 32.5133 39.9935C32.4768 40.0311 32.4513 40.078 32.4395 40.129C32.4278 40.1801 32.4302 40.2333 32.4466 40.2831C32.4631 40.3328 32.4928 40.3771 32.5326 40.4113L35.9468 44.2473C36.0176 44.3247 36.0659 44.4199 36.0863 44.5227C36.1068 44.6255 36.0987 44.7319 36.0629 44.8304L35.3683 46.5757C35.3409 46.6452 35.2994 46.7083 35.2465 46.7611C35.1936 46.8139 35.1303 46.8552 35.0607 46.8825L33.3108 47.5754C33.212 47.6111 33.1053 47.6191 33.0023 47.5987C32.8992 47.5783 32.8037 47.5302 32.7261 47.4595L28.9167 44.0827C28.8799 44.0437 28.8335 44.0148 28.7821 43.9989C28.7308 43.9831 28.6762 43.9808 28.6236 43.9922C28.5711 44.0037 28.5225 44.0285 28.4824 44.0643C28.4424 44.1001 28.4123 44.1457 28.3952 44.1965C28.0248 45.5332 28.0329 46.9462 28.4188 48.2786C28.8046 49.611 29.5531 50.8107 30.581 51.7446C31.5376 52.6685 32.7238 53.3214 34.0175 53.6361C35.3112 53.9507 36.6656 53.9157 37.9412 53.5346C38.083 53.4939 38.2334 53.4926 38.3759 53.5309C38.5184 53.5692 38.6478 53.6457 38.7499 53.752L42.8628 57.8542L51.1967 66.0322C52.2865 67.1639 52.8916 66.979 53.7573 66.1155L54.8513 65.0244C55.717 64.1609 54.6252 63.0393 54.3338 62.7204L46.4258 54.2843L42.3148 50.1842C42.2089 50.0823 42.1329 49.9536 42.0948 49.8118C42.0568 49.67 42.0582 49.5206 42.0989 49.3796C42.4863 48.0709 42.5069 46.6814 42.1586 45.3619C41.8103 44.0424 41.1062 42.8432 40.1229 41.8945C39.1752 40.9174 37.9782 40.2167 36.6607 39.868C35.3433 39.5193 33.9554 39.5357 32.6467 39.9155Z" fill="white"/>
<path d="M67.0793 50.8431L64.3414 48.1124C64.1886 48.0209 63.2026 48.793 61.8907 47.9884C61.8907 47.9884 61.0005 47.3769 61.3346 46.6535C61.4722 46.3147 61.5194 45.946 61.4716 45.5835C61.4238 45.2209 61.2825 44.877 61.0616 44.5852C59.888 42.8327 58.2719 41.4198 56.3762 40.4891C53.8338 39.4251 51.14 38.7649 48.3928 38.5325C47.8835 38.5087 47.3733 38.5155 46.8649 38.5528C46.3299 38.571 45.8211 38.7884 45.4389 39.1623C45.2102 39.4011 45.0757 39.7143 45.06 40.0441C45.038 40.1975 45.0298 40.3525 45.0356 40.5074C45.3208 42.1531 48.244 42.3461 49.9552 43.2279C51.1082 43.8212 51.7907 44.2824 51.8823 44.9387C51.9503 45.2894 51.8964 45.6527 51.7296 45.9688C51.496 46.2968 51.2284 46.5992 50.931 46.8709C50.5664 47.2021 49.5356 48.0148 49.1648 48.4496C48.9244 48.9251 49.395 49.492 49.395 49.492C48.5425 50.5826 47.4956 51.5069 46.3067 52.2186L45.7038 51.9017L38.5657 58.3912L35.1026 61.573C34.8424 61.8404 34.6392 62.1575 34.505 62.5052C34.3709 62.853 34.3086 63.2242 34.3219 63.5965C34.3352 63.9689 34.4239 64.3347 34.5825 64.672C34.7412 65.0093 34.9666 65.3112 35.2452 65.5594L35.9663 66.2786C36.1658 66.5433 36.4242 66.7581 36.7212 66.906C37.0181 67.054 37.3456 67.131 37.6775 67.131C38.0095 67.131 38.3369 67.054 38.6339 66.906C38.9308 66.7581 39.1893 66.5433 39.3887 66.2786L42.9312 62.9404L49.9573 55.9327L49.6313 55.1282L52.5974 52.3405C52.5974 52.3405 53.0679 52.8099 53.455 52.6189C54.3405 51.9485 55.296 51.3756 56.3049 50.9102C56.5939 50.7834 56.9106 50.7322 57.2249 50.7613C57.5393 50.7905 57.841 50.899 58.1017 51.0768C58.9247 51.6619 58.668 53.3808 58.67 53.4275C58.7342 53.5251 58.8117 53.6133 58.9002 53.6896L58.943 53.7323C59.0774 53.8664 59.3973 54.1854 59.7721 54.5593C60.6338 55.4187 61.7929 56.5748 62.0741 56.7617C62.0741 56.7617 62.2981 56.7373 62.2696 56.7292C62.2411 56.7211 66.6616 52.5356 66.6616 52.5356C67.3543 51.8448 67.8595 51.6213 67.0854 50.8492" fill="white"/>
</svg>
