<svg width="91" height="88" viewBox="0 0 91 88" fill="none" xmlns="http://www.w3.org/2000/svg">
<path d="M88.3954 37.7168L81.6801 31.7124V9.74243C81.6801 6.78827 77.8543 6.28991 77.8543 6.28991H64.1647C60.8988 6.28991 60.4232 9.87452 60.4232 9.87452V12.5765C60.4232 12.5765 51.5466 4.97795 48.1964 2.08985C47.8105 1.68855 47.3471 1.36925 46.8342 1.15112C46.3213 0.932997 45.7696 0.820557 45.212 0.820557C44.6544 0.820557 44.1026 0.932997 43.5898 1.15112C43.0769 1.36925 42.6135 1.68855 42.2275 2.08985C28.5078 14.3088 14.7881 26.5337 1.06835 38.7646C0.922134 38.9188 0.796667 39.0914 0.695107 39.278C0.453655 39.8089 0.334545 40.3871 0.346525 40.97C0.358505 41.5529 0.501272 42.1258 0.764337 42.6464C1.02926 43.1781 1.39951 43.6507 1.85272 44.0356C2.30592 44.4206 2.83267 44.7099 3.40113 44.8861C3.70667 44.9677 4.021 45.012 4.33725 45.0182H10.27L10.3031 84.6771C10.4898 87.0008 13.1416 87.1989 13.1416 87.1989H76.867V86.7696C77.2252 86.8867 77.4961 87.2019 77.9055 87.2019C78.8821 87.2123 79.8229 86.8355 80.5211 86.1543C81.2193 85.4732 81.6178 84.5433 81.6289 83.5693V61.7133C81.6289 60.7284 81.2366 59.7838 80.5383 59.0873C79.8401 58.3909 78.893 57.9996 77.9055 57.9996C76.918 57.9996 75.9709 58.3909 75.2726 59.0873C74.5744 59.7838 74.1821 60.7284 74.1821 61.7133V78.8889H17.8944C17.8944 78.8889 18.0299 44.3246 17.8944 41.0613C17.759 37.7979 13.6443 37.5097 13.6443 37.5097L45.4061 9.49925L61.1185 23.1052C61.6388 23.5765 62.2744 23.9029 62.9613 24.0515C63.6482 24.2001 64.3622 24.1657 65.0316 23.9518C65.8455 23.7394 66.5749 23.284 67.122 22.6465C67.6692 22.0091 68.0079 21.22 68.0928 20.3852V13.6423H74.0617C74.0617 13.6423 74.146 30.5836 74.0617 32.9253C74.0004 33.5612 74.1071 34.202 74.3712 34.784C74.6352 35.366 75.0474 35.8689 75.5667 36.2428L84.356 44.1565C84.6878 44.4615 85.0797 44.6942 85.5068 44.8396C85.9338 44.985 86.3866 45.0399 86.8361 45.0009C87.2857 44.9619 87.7221 44.8299 88.1176 44.6131C88.5131 44.3964 88.8589 44.0998 89.1329 43.7422C89.5425 43.3258 89.8525 42.8225 90.0399 42.2699C90.2273 41.7172 90.2872 41.1296 90.2152 40.5506C90.1431 39.9717 89.941 39.4165 89.6238 38.9263C89.3067 38.4362 88.8827 38.0238 88.3834 37.7198" fill="white"/>
<path d="M42.5885 57.267H44.9393C44.991 57.2684 45.0416 57.2819 45.0871 57.3064C45.1325 57.331 45.1715 57.3659 45.2008 57.4084C45.2301 57.4508 45.249 57.4995 45.2559 57.5506C45.2628 57.6017 45.2574 57.6537 45.2403 57.7023L43.8889 61.5121C43.855 61.5875 43.8513 61.6728 43.8784 61.7508C43.9055 61.8288 43.9614 61.8936 44.0348 61.9319C44.1081 61.9702 44.1933 61.9791 44.273 61.9569C44.3527 61.9347 44.421 61.883 44.4638 61.8123L48.9397 55.4177C48.9736 55.3687 48.9936 55.3114 48.9973 55.252C49.001 55.1926 48.9884 55.1333 48.9609 55.0805C48.9333 55.0276 48.8918 54.9833 48.8409 54.9523C48.79 54.9212 48.7315 54.9046 48.6718 54.9043H46.622C46.5711 54.9031 46.5213 54.8901 46.4764 54.8662C46.4316 54.8423 46.393 54.8083 46.3637 54.7668C46.3344 54.7254 46.3153 54.6777 46.3079 54.6275C46.3005 54.5773 46.3049 54.5261 46.321 54.478L47.7507 50.0708C47.7906 49.9943 47.7985 49.9052 47.7725 49.823C47.7465 49.7408 47.6889 49.6723 47.6123 49.6325C47.5356 49.5926 47.4463 49.5848 47.3638 49.6107C47.2814 49.6366 47.2127 49.6941 47.1728 49.7706L42.3206 56.7536C42.2864 56.8023 42.2662 56.8595 42.2624 56.9188C42.2585 56.9782 42.2711 57.0375 42.2988 57.0902C42.3265 57.1429 42.3681 57.187 42.4192 57.2176C42.4703 57.2483 42.5289 57.2673 42.5885 57.267Z" fill="white"/>
<path d="M42.5498 39.257C41.2729 39.3687 40.0062 39.5754 38.7602 39.8755L38.6368 39.9115C37.4717 40.3065 36.3428 40.8007 35.2625 41.3886C32.0806 42.9004 29.5034 45.4392 27.9481 48.5938C27.5353 48.2935 27.2346 47.8647 27.0933 47.3749C27.0126 46.9913 27.0157 46.5948 27.1025 46.2125C27.1892 45.8302 27.3575 45.4709 27.596 45.1593L28.5983 43.8834C28.7178 43.7374 28.8069 43.569 28.8604 43.3883C28.9139 43.2075 28.9307 43.0179 28.9098 42.8305C28.8889 42.6432 28.8307 42.4619 28.7387 42.2972C28.6467 42.1326 28.5226 41.9879 28.3738 41.8717C28.2251 41.7555 28.0545 41.67 27.8722 41.6203C27.6899 41.5706 27.4995 41.5577 27.3122 41.5823C27.1248 41.607 26.9442 41.6686 26.781 41.7637C26.6179 41.8588 26.4754 41.9854 26.3618 42.1361L25.3535 43.4181C24.8474 44.0722 24.4939 44.8307 24.319 45.6383C24.144 46.4459 24.1519 47.2823 24.3421 48.0864C24.5489 48.8087 24.9051 49.4797 25.3878 50.0562C25.8704 50.6328 26.4688 51.1021 27.1444 51.4339C27.0752 51.8692 27.024 52.3075 26.997 52.7458C26.8759 54.76 27.1918 56.7764 27.9232 58.6576C28.6546 60.5389 29.7843 62.2406 31.2351 63.6468C30.8224 65.2591 30.6071 66.9154 30.5939 68.5794C30.6458 69.0682 30.8054 69.5394 31.0615 69.9594C31.3175 70.3793 31.6636 70.7375 32.0749 71.0082C32.4803 71.3089 32.9416 71.5262 33.432 71.6473C33.9225 71.7684 34.4322 71.791 34.9314 71.7137C36.4541 71.0964 37.7133 69.9689 38.4923 68.5253C42.8943 69.416 47.4307 69.416 51.8327 68.5253C52.4228 69.5088 53.1551 70.4 54.006 71.1703C54.7711 71.6262 55.6494 71.8582 56.5404 71.8398C56.8799 71.8473 57.2187 71.8048 57.5458 71.7137C58.0214 71.5636 60.306 70.5128 59.9147 64.7636C60.306 64.1782 60.7153 63.5778 60.9862 63.1935C61.8321 63.1935 63.5508 63.1935 65.0287 63.2475C65.2181 63.2527 65.4065 63.2201 65.583 63.1516C65.7596 63.0831 65.9206 62.9801 66.0566 62.8486C66.1926 62.7172 66.3009 62.5599 66.3751 62.3861C66.4493 62.2122 66.4879 62.0254 66.4886 61.8365V51.7821C66.4886 51.4063 66.3389 51.0459 66.0725 50.7802C65.806 50.5144 65.4447 50.3651 65.0678 50.3651H63.3582C62.7234 48.3954 61.8809 46.4984 60.8448 44.706C61.1705 43.3832 61.6493 42.1027 62.2715 40.8902C62.5891 40.6025 62.8088 40.2231 62.9 39.805C62.9912 39.3869 62.9493 38.9508 62.7802 38.5575C62.5299 37.991 62.1498 37.4911 61.6704 37.0979C61.1909 36.7047 60.6257 36.4293 60.02 36.2939C60.1379 36.2929 60.2554 36.3081 60.3692 36.3389L60.2969 36.3149C58.2422 35.7334 56.0681 35.7168 54.0048 36.267C51.9414 36.8172 50.0656 37.9136 48.5759 39.4401C46.5784 39.1425 44.5528 39.08 42.5408 39.254M48.7836 42.3463C49.0037 42.3852 49.2299 42.3718 49.4438 42.3071C49.6577 42.2424 49.8533 42.1283 50.0147 41.974C51.1531 40.6583 52.6363 39.6845 54.2981 39.1617C55.9598 38.6389 57.7347 38.5877 59.424 39.0138L59.5625 39.0559C59.6841 39.1375 59.7989 39.2289 59.9056 39.3291C59.0131 40.9856 58.346 42.7535 57.922 44.5859C57.8695 44.7857 57.8614 44.9946 57.8983 45.1979C57.9352 45.4012 58.0163 45.594 58.1358 45.7628C59.3437 47.7732 60.2895 49.9292 60.9501 52.1784C61.0366 52.4722 61.2163 52.7302 61.4621 52.9137C61.7079 53.0971 62.0067 53.1963 62.3137 53.1962H63.6411V60.3804C59.9538 60.2964 59.8063 60.4014 59.4271 60.6806C59.2043 60.8367 59.0297 60.9629 57.2779 63.6138C57.1025 63.8799 57.022 64.1971 57.0491 64.5144C57.3609 66.0314 57.1828 67.6079 56.5404 69.0177C56.2318 69.0219 55.9252 68.9669 55.6374 68.8556C54.9054 68.0117 54.2458 67.1079 53.6658 66.1536C53.501 65.8955 53.2569 65.6974 52.9698 65.5892C52.6828 65.481 52.3684 65.4683 52.0735 65.5532C47.4533 66.6223 42.649 66.6223 38.0287 65.5532C37.6841 65.4638 37.3183 65.5067 37.0039 65.6735C36.6895 65.8403 36.4494 66.1188 36.3311 66.4539C35.9407 67.4908 35.2152 68.3685 34.2692 68.9487C33.9832 68.8856 33.4505 68.6484 33.4234 68.3482C33.5062 66.7247 33.7614 65.1145 34.1849 63.5447C34.2463 63.2944 34.2381 63.0322 34.1612 62.7862C34.0843 62.5403 33.9416 62.3198 33.7485 62.1487C32.1117 60.7178 30.9077 58.8599 30.2719 56.7838C29.9041 55.5346 29.7534 54.2319 29.8264 52.932C29.8738 52.1776 29.9988 51.4302 30.1996 50.7014C30.2971 50.377 30.4127 50.0582 30.5458 49.7467C31.8497 47.1625 33.9915 45.094 36.623 43.8774C37.541 43.3776 38.4996 42.9558 39.4886 42.6165C42.5374 41.8896 45.7039 41.7987 48.7896 42.3493" fill="white"/>
<path d="M42.3593 45.0423C42.2146 44.8722 42.0118 44.7617 41.7901 44.7322C41.5684 44.7026 41.3436 44.7562 41.1593 44.8825C40.9749 45.0088 40.8441 45.1989 40.7922 45.4159C40.7403 45.6329 40.771 45.8614 40.8783 46.0571C41.2213 46.5976 41.6672 47.0657 42.1907 47.4351C42.3205 47.5038 42.4652 47.5399 42.6121 47.5402H50.7934C50.9136 47.5397 51.0325 47.5153 51.1431 47.4684C51.2537 47.4214 51.3538 47.353 51.4376 47.267C51.9591 46.7594 52.3835 46.1612 52.6897 45.5017C52.7379 45.2843 52.7037 45.0569 52.5937 44.8632C52.4837 44.6695 52.3057 44.5234 52.094 44.4529C51.8824 44.3824 51.652 44.3925 51.4474 44.4814C51.2428 44.5703 51.0784 44.7317 50.986 44.9343C50.8219 45.2297 50.6195 45.5022 50.384 45.7449H42.9222C42.7164 45.5239 42.5273 45.2881 42.3563 45.0393" fill="white"/>
</svg>
