<svg width="81" height="104" viewBox="0 0 81 104" fill="none" xmlns="http://www.w3.org/2000/svg">
<g clip-path="url(#clip0_248_231)">
<path d="M0.664062 5.15112H80.6633V14.1251H0.664062V5.15112Z" fill="white"/>
<path d="M20.1323 0.399902H10.2656V103.6H20.1323V0.399902Z" fill="white"/>
<path d="M79.0361 18.3481C79.9365 18.3482 80.666 19.0805 80.666 19.9839V60.2622C80.6658 61.1654 79.9363 61.8979 79.0361 61.8979H25.7637C24.8634 61.8979 24.133 61.1655 24.1328 60.2622V19.9839C24.1328 19.0805 24.8633 18.3481 25.7637 18.3481H79.0361ZM52.1807 21.3208C51.9338 21.3209 51.6895 21.3702 51.4619 21.4663C51.2343 21.5625 51.0281 21.7031 50.8555 21.8804C44.7581 27.273 38.6632 32.6655 32.5713 38.0581C32.5075 38.1261 32.4525 38.2025 32.4082 38.2847C32.3005 38.5182 32.2468 38.7735 32.252 39.0308C32.2572 39.2881 32.3213 39.5411 32.4385 39.77C32.557 40.0054 32.7217 40.2145 32.9229 40.3843C33.1241 40.554 33.3578 40.6815 33.6094 40.7583C33.7451 40.7945 33.885 40.814 34.0254 40.8169H36.6621L36.6758 58.3052C36.7573 59.3292 37.9375 59.4175 37.9375 59.4175H66.248V59.2271C66.407 59.2786 66.528 59.4175 66.709 59.4175C67.1396 59.4239 67.5553 59.2595 67.8652 58.9595C68.1752 58.6593 68.3544 58.2481 68.3633 57.8159V48.1792C68.3498 47.7479 68.1692 47.3389 67.8604 47.0386C67.5516 46.7384 67.1389 46.5699 66.709 46.5698C66.2789 46.5698 65.8655 46.7383 65.5566 47.0386C65.2478 47.3389 65.0672 47.7479 65.0537 48.1792V55.7524H40.0352C40.0352 55.7524 40.0955 40.5105 40.0352 39.0669C39.9748 37.6233 38.1426 37.5034 38.1426 37.5034L52.2568 25.1528L59.2373 31.1528C59.4974 31.3729 59.8119 31.519 60.1475 31.5757C60.483 31.6323 60.8279 31.5977 61.1455 31.4751C61.4632 31.3524 61.7429 31.1463 61.9541 30.8784C62.1652 30.6107 62.3007 30.2909 62.3467 29.9526V26.9819H64.998C64.9983 27.0357 65.0354 34.4561 64.998 35.4878C64.972 35.7695 65.0206 36.0532 65.1387 36.3101C65.2567 36.5669 65.4405 36.7877 65.6709 36.9507L69.5771 40.4409C69.7251 40.5751 69.8988 40.6778 70.0879 40.7417C70.277 40.8056 70.4779 40.8292 70.6768 40.812C70.8755 40.7948 71.0687 40.7364 71.2441 40.6411C71.4195 40.5458 71.5734 40.415 71.6963 40.2573C71.8777 40.0745 72.0155 39.853 72.0986 39.6089C72.1818 39.3647 72.2088 39.1042 72.1768 38.8481C72.1447 38.5923 72.0547 38.3472 71.9141 38.1313C71.7733 37.9155 71.5851 37.7341 71.3643 37.6021L68.3857 34.9565V25.2612C68.3854 23.9595 66.6855 23.7397 66.6855 23.7397H60.6016C59.1506 23.7397 58.9395 25.3198 58.9395 25.3198V26.5044C58.9218 26.4894 54.992 23.1485 53.5068 21.8804C53.3342 21.7031 53.128 21.5625 52.9004 21.4663C52.6727 21.3701 52.4277 21.3208 52.1807 21.3208Z" fill="white"/>
</g>
<defs>
<clipPath id="clip0_248_231">
<rect width="80" height="103.2" fill="white" transform="translate(0.664062 0.399902)"/>
</clipPath>
</defs>
</svg>
